<?xml version="1.0" encoding="UTF-8" standalone="no"?>
<!-- Created with Inkscape (http://www.inkscape.org/) -->

<svg
   width="640"
   height="480"
   viewBox="0 0 169.33333 127"
   version="1.1"
   id="svg5"
   xmlns:xlink="http://www.w3.org/1999/xlink"
   xmlns="http://www.w3.org/2000/svg"
   xmlns:svg="http://www.w3.org/2000/svg"
   xmlns:i="http://ns.adobe.com/AdobeIllustrator/10.0/">
  <defs
     id="defs2">
    <linearGradient
       id="linearGradient4069">
      <stop
         style="stop-color:#276082;stop-opacity:0;"
         offset="0"
         id="stop4067" />
      <stop
         style="stop-color:#276082;stop-opacity:1;"
         offset="1"
         id="stop4065" />
    </linearGradient>
    <linearGradient
       id="linearGradient4038">
      <stop
         style="stop-color:#276082;stop-opacity:1"
         offset="0"
         id="stop4036" />
      <stop
         style="stop-color:#276082;stop-opacity:0;"
         offset="1"
         id="stop4034" />
    </linearGradient>
    <linearGradient
       id="linearGradient4024">
      <stop
         style="stop-color:#276082;stop-opacity:0.80948985;"
         offset="0"
         id="stop4020" />
      <stop
         style="stop-color:#276082;stop-opacity:0;"
         offset="1"
         id="stop4022" />
    </linearGradient>
    <linearGradient
       id="linearGradient3997">
      <stop
         style="stop-color:#27678d;stop-opacity:0.90870613;"
         offset="0"
         id="stop3993" />
      <stop
         style="stop-color:#27678d;stop-opacity:0;"
         offset="1"
         id="stop3995" />
    </linearGradient>
    <linearGradient
       id="linearGradient3986">
      <stop
         style="stop-color:#27678d;stop-opacity:1;"
         offset="0"
         id="stop3982" />
      <stop
         style="stop-color:#27678d;stop-opacity:0;"
         offset="1"
         id="stop3984" />
    </linearGradient>
    <linearGradient
       id="linearGradient3922">
      <stop
         style="stop-color:#26536e;stop-opacity:0;"
         offset="0.29673585"
         id="stop3920" />
      <stop
         style="stop-color:#26536e;stop-opacity:1;"
         offset="1"
         id="stop3918" />
    </linearGradient>
    <linearGradient
       id="linearGradient3833">
      <stop
         style="stop-color:#26536e;stop-opacity:0;"
         offset="0.34078565"
         id="stop3831" />
      <stop
         style="stop-color:#26536e;stop-opacity:1;"
         offset="1"
         id="stop3829" />
    </linearGradient>
    <radialGradient
       xlink:href="#linearGradient3833"
       id="radialGradient3835"
       cx="12.924159"
       cy="205.73683"
       fx="12.924159"
       fy="205.73683"
       r="59.69687"
       gradientTransform="matrix(1.4919821,-0.43951807,0.17601514,0.59749862,-42.571251,22.488076)"
       gradientUnits="userSpaceOnUse" />
    <radialGradient
       xlink:href="#linearGradient3922"
       id="radialGradient3924"
       cx="187.83665"
       cy="24.251127"
       fx="187.83665"
       fy="24.251127"
       r="16.379105"
       gradientTransform="matrix(-1.5071303,0.01616118,-0.03079869,-2.8721684,459.35942,58.544842)"
       gradientUnits="userSpaceOnUse" />
    <radialGradient
       xlink:href="#linearGradient3986"
       id="radialGradient3988"
       cx="149.19237"
       cy="109.96714"
       fx="149.19237"
       fy="109.96714"
       r="31.433948"
       gradientTransform="matrix(1.7085501,-0.34265473,0.23886702,1.2686383,-172.87052,67.677186)"
       gradientUnits="userSpaceOnUse" />
    <radialGradient
       xlink:href="#linearGradient3997"
       id="radialGradient3999"
       cx="160.10957"
       cy="53.518459"
       fx="160.10957"
       fy="53.518459"
       r="16.379105"
       gradientTransform="matrix(1.5129671,-0.72917759,1.4368592,2.9813319,-159.02941,27.349901)"
       gradientUnits="userSpaceOnUse" />
    <radialGradient
       xlink:href="#linearGradient4024"
       id="radialGradient4026"
       cx="136.03072"
       cy="116.96034"
       fx="136.03072"
       fy="116.96034"
       r="59.69687"
       gradientTransform="matrix(-0.72524667,-0.36053734,0.23531651,-0.47335599,195.41628,209.12821)"
       gradientUnits="userSpaceOnUse" />
    <radialGradient
       xlink:href="#linearGradient4038"
       id="radialGradient4042"
       gradientUnits="userSpaceOnUse"
       gradientTransform="matrix(-0.06529258,0.90244654,-1.0403275,-0.07526835,-91.673761,-47.911519)"
       cx="3.3232667"
       cy="-59.429558"
       fx="3.3232667"
       fy="-59.429558"
       r="60.073886" />
    <radialGradient
       xlink:href="#linearGradient4038"
       id="radialGradient4049"
       gradientUnits="userSpaceOnUse"
       gradientTransform="matrix(0.28184785,0.85978757,-0.92436527,0.30301714,-105.73632,-39.569543)"
       cx="60.55582"
       cy="-19.182558"
       fx="60.55582"
       fy="-19.182558"
       r="60.073886" />
    <radialGradient
       xlink:href="#linearGradient4038"
       id="radialGradient4053"
       gradientUnits="userSpaceOnUse"
       gradientTransform="matrix(-0.24459902,0.87111664,-1.0430871,-0.29288625,-105.15387,-104.32894)"
       cx="9.8871918"
       cy="-118.57521"
       fx="9.8871918"
       fy="-118.57521"
       r="60.073886" />
    <radialGradient
       xlink:href="#linearGradient4069"
       id="radialGradient4071"
       cx="48.761852"
       cy="50.057629"
       fx="48.761852"
       fy="50.057629"
       r="60.169858"
       gradientTransform="matrix(-0.01781588,-0.76634823,1.1641614,-0.02706414,-8.6445692,80.390145)"
       gradientUnits="userSpaceOnUse" />
  </defs>
  <g
     id="layer1"
     style="fill:#264d64">
    <rect
       style="fill:#264d64;fill-opacity:1;fill-rule:evenodd;stroke-width:0.264583"
       id="rect252"
       width="169.33333"
       height="127"
       x="0"
       y="-127"
       transform="scale(1,-1)" />
  </g>
  <g
     id="g4060"
     style="display:inline">
    <path
       id="path3519"
       style="opacity:0.51494033;fill:url(#radialGradient4071);fill-opacity:1;stroke-width:1.92643"
       d="m 70.913991,-34.338796 c -4.960829,0.907439 -9.463197,2.370733 -16.043982,3.429248 -11.939383,1.92044 -18.791697,-1.469469 -29.231807,1.611787 -11.598259,3.423068 -17.9125457,11.846545 -24.3835246,15.603699 -10.4694728,6.0787436 -19.0247044,4.0635425 -26.6598714,13.8446329 -6.032198,7.7275964 -7.651015,19.7002171 -11.049263,27.4280131 -3.984765,9.061565 -9.093171,11.945934 -12.584953,24.440138 -0.708923,2.53665 -0.24871,4.983983 -0.127124,7.155636 H 70.913991 Z"
       transform="translate(98.419342,67.82564)" />
    <path
       id="path4030"
       style="display:inline;opacity:1;fill:url(#radialGradient4042);fill-opacity:1;stroke-width:1.92643"
       d="m 70.913991,-34.338796 c -4.960829,0.907439 -9.463197,2.370733 -16.043982,3.429248 -11.939383,1.92044 -18.791697,-1.469469 -29.231807,1.611787 -11.598259,3.423068 -17.9125457,11.846545 -24.3835246,15.603699 -10.4694728,6.0787436 -19.0247044,4.0635425 -26.6598714,13.8446329 -6.032198,7.7275964 -7.651015,19.7002171 -11.049263,27.4280131 -3.984765,9.061565 -9.093171,11.945934 -12.584953,24.440138 -0.708923,2.53665 -0.24871,4.983983 -0.127124,7.155636 H 70.913991 Z"
       transform="translate(98.419342,67.82564)" />
    <path
       id="path4047"
       style="display:inline;opacity:0.803418;fill:url(#radialGradient4049);fill-opacity:1;stroke-width:1.92643"
       d="m 70.913991,-34.338796 c -4.960829,0.907439 -9.463197,2.370733 -16.043982,3.429248 -11.939383,1.92044 -18.791697,-1.469469 -29.231807,1.611787 -11.598259,3.423068 -17.9125457,11.846545 -24.3835246,15.603699 -10.4694728,6.0787436 -19.0247044,4.0635425 -26.6598714,13.8446329 -6.032198,7.7275964 -7.651015,19.7002171 -11.049263,27.4280131 -3.984765,9.061565 -9.093171,11.945934 -12.584953,24.440138 -0.708923,2.53665 -0.24871,4.983983 -0.127124,7.155636 H 70.913991 Z"
       transform="translate(98.419342,67.82564)" />
    <path
       id="path4051"
       style="display:inline;opacity:0.803418;fill:url(#radialGradient4053);fill-opacity:1;stroke-width:1.92643"
       d="m 70.913991,-34.338796 c -4.960829,0.907439 -9.463197,2.370733 -16.043982,3.429248 -11.939383,1.92044 -18.791697,-1.469469 -29.231807,1.611787 -11.598259,3.423068 -17.9125457,11.846545 -24.3835246,15.603699 -10.4694728,6.0787436 -19.0247044,4.0635425 -26.6598714,13.8446329 -6.032198,7.7275964 -7.651015,19.7002171 -11.049263,27.4280131 -3.984765,9.061565 -9.093171,11.945934 -12.584953,24.440138 -0.708923,2.53665 -0.24871,4.983983 -0.127124,7.155636 H 70.913991 Z"
       transform="translate(98.419342,67.82564)" />
  </g>
  <g
     id="g4077">
    <path
       id="path3574"
       style="opacity:0.803418;fill:url(#radialGradient3835);fill-opacity:1;stroke-width:1.92643"
       d="M 42.642358,87.701106 C 30.799403,87.783668 22.789177,94.326011 15.775264,94.447464 9.474925,94.556571 4.7311882,93.760444 0,93.256839 V 127 h 119.39374 c -3.05728,-7.057 -5.43847,-13.43769 -11.8308,-17.97048 C 95.557527,100.51654 83.563052,104.8485 71.765128,100.552 60.402313,96.413967 55.92341,88.508646 45.062882,87.774486 c -0.82444,-0.05573 -1.630994,-0.07888 -2.420524,-0.07338 z" />
    <path
       id="path4007"
       style="opacity:0.64303193;fill:url(#radialGradient4026);fill-opacity:1;stroke-width:1.92643"
       d="M 42.642358,87.701106 C 30.799403,87.783668 22.789177,94.326011 15.775264,94.447464 9.474925,94.556571 4.7311882,93.760444 0,93.256839 V 127 h 119.39374 c -3.05728,-7.057 -5.43847,-13.43769 -11.8308,-17.97048 C 95.557527,100.51654 83.563052,104.8485 71.765128,100.552 60.402313,96.413967 55.92341,88.508646 45.062882,87.774486 c -0.82444,-0.05573 -1.630994,-0.07888 -2.420524,-0.07338 z" />
  </g>
  <g
     id="g4081"
     transform="matrix(1.0266488,0,0,1,-4.5125309,0)">
    <path
       id="path3576"
       style="opacity:0.803418;fill:url(#radialGradient3924);fill-opacity:1;stroke-width:1.92643"
       d="m 136.57512,0 c 3.2649,6.7494727 7.81582,11.753049 10.02006,16.593302 5.01738,11.017568 2.1692,19.332485 11.15023,27.894421 3.37835,3.220698 7.45279,5.963491 11.58792,8.404655 V 0 Z" />
    <path
       id="path3991"
       style="opacity:0.803418;fill:url(#radialGradient3999);fill-opacity:1;stroke-width:1.92643"
       d="m 136.57512,0 c 3.2649,6.7494727 7.81582,11.753049 10.02006,16.593302 5.01738,11.017568 2.1692,19.332485 11.15023,27.894421 3.37835,3.220698 7.45279,5.963491 11.58792,8.404655 V 0 Z" />
  </g>
  <path
     id="path3980"
     style="display:inline;opacity:0.62470387;fill:url(#radialGradient3988);fill-opacity:1;stroke-width:2.59438"
     d="m 134.43402,117.72949 c -7.29936,-2.88857 -34.12806,-9.96958 -42.032667,-7.72286 -14.384062,4.08836 -36.720575,20.48058 -44.130819,42.18072 v 0 l 71.944106,27.15761 20.22785,-59.34739 c -1.86323,-1.00316 -3.97301,-1.46126 -6.00847,-2.26808 z"
     transform="matrix(0.93377773,-0.35785351,0.31826694,0.94800115,0,0)" />
  <g
     id="g880001"
     style="display:inline;fill:#51a1d0;fill-opacity:1"
     transform="matrix(0.1879952,0,0,0.1879952,141.14279,97.156213)">
    <path
       i:knockout="Off"
       fill="#51a1d0"
       d="m 51.986,57.297 c -1.797,0.025 0.34,0.926 2.686,1.287 0.648,-0.506 1.236,-1.018 1.76,-1.516 -1.461,0.358 -2.948,0.366 -4.446,0.229"
       id="path879977"
       style="fill:#51a1d0;fill-opacity:1" />
    <path
       i:knockout="Off"
       fill="#51a1d0"
       d="m 61.631,54.893 c 1.07,-1.477 1.85,-3.094 2.125,-4.766 -0.24,1.192 -0.887,2.221 -1.496,3.307 -3.359,2.115 -0.316,-1.256 -0.002,-2.537 -3.612,4.546 -0.496,2.726 -0.627,3.996"
       id="path879979"
       style="fill:#51a1d0;fill-opacity:1" />
    <path
       i:knockout="Off"
       fill="#51a1d0"
       d="m 65.191,45.629 c 0.217,-3.236 -0.637,-2.213 -0.924,-0.978 0.335,0.174 0.6,2.281 0.924,0.978"
       id="path879981"
       style="fill:#51a1d0;fill-opacity:1" />
    <path
       i:knockout="Off"
       fill="#51a1d0"
       d="m 45.172,1.399 c 0.959,0.172 2.072,0.304 1.916,0.533 1.049,-0.23 1.287,-0.442 -1.916,-0.533"
       id="path879983"
       style="fill:#51a1d0;fill-opacity:1" />
    <path
       i:knockout="Off"
       fill="#51a1d0"
       d="M 47.088,1.932 46.41,2.072 47.041,2.016 47.088,1.932"
       id="path879985"
       style="fill:#51a1d0;fill-opacity:1" />
    <path
       i:knockout="Off"
       fill="#51a1d0"
       d="m 76.992,46.856 c 0.107,2.906 -0.85,4.316 -1.713,6.812 l -1.553,0.776 c -1.271,2.468 0.123,1.567 -0.787,3.53 -1.984,1.764 -6.021,5.52 -7.313,5.863 -0.943,-0.021 0.639,-1.113 0.846,-1.541 -2.656,1.824 -2.131,2.738 -6.193,3.846 L 60.16,65.878 C 50.142,70.591 36.226,61.251 36.409,48.507 c -0.107,0.809 -0.304,0.607 -0.526,0.934 -0.517,-6.557 3.028,-13.143 9.007,-15.832 5.848,-2.895 12.704,-1.707 16.893,2.197 -2.301,-3.014 -6.881,-6.209 -12.309,-5.91 -5.317,0.084 -10.291,3.463 -11.951,7.131 -2.724,1.715 -3.04,6.611 -4.227,7.507 -1.597,11.737 3.004,16.808 10.787,22.773 1.225,0.826 0.345,0.951 0.511,1.58 -2.586,-1.211 -4.954,-3.039 -6.901,-5.277 1.033,1.512 2.148,2.982 3.589,4.137 -2.438,-0.826 -5.695,-5.908 -6.646,-6.115 4.203,7.525 17.052,13.197 23.78,10.383 -3.113,0.115 -7.068,0.064 -10.566,-1.229 -1.469,-0.756 -3.467,-2.322 -3.11,-2.615 9.182,3.43 18.667,2.598 26.612,-3.771 2.021,-1.574 4.229,-4.252 4.867,-4.289 -0.961,1.445 0.164,0.695 -0.574,1.971 2.014,-3.248 -0.875,-1.322 2.082,-5.609 l 1.092,1.504 c -0.406,-2.696 3.348,-5.97 2.967,-10.234 0.861,-1.304 0.961,1.403 0.047,4.403 1.268,-3.328 0.334,-3.863 0.66,-6.609 0.352,0.923 0.814,1.904 1.051,2.878 -0.826,-3.216 0.848,-5.416 1.262,-7.285 -0.408,-0.181 -1.275,1.422 -1.473,-2.377 0.029,-1.65 0.459,-0.865 0.625,-1.271 -0.324,-0.186 -1.174,-1.451 -1.691,-3.877 0.375,-0.57 1.002,1.478 1.512,1.562 -0.328,-1.929 -0.893,-3.4 -0.916,-4.88 -1.49,-3.114 -0.527,0.415 -1.736,-1.337 -1.586,-4.947 1.316,-1.148 1.512,-3.396 2.404,3.483 3.775,8.881 4.404,11.117 -0.48,-2.726 -1.256,-5.367 -2.203,-7.922 0.73,0.307 -1.176,-5.609 0.949,-1.691 C 83.519,18.706 76.074,10.902 69.225,7.24 70.063,8.007 71.121,8.97 70.741,9.121 67.335,7.093 67.934,6.935 67.446,6.078 64.671,4.949 64.489,6.169 62.651,6.08 57.421,3.306 56.413,3.601 51.6,1.863 l 0.219,1.023 c -3.465,-1.154 -4.037,0.438 -7.782,0.004 -0.228,-0.178 1.2,-0.644 2.375,-0.815 -3.35,0.442 -3.193,-0.66 -6.471,0.122 0.808,-0.567 1.662,-0.942 2.524,-1.424 -2.732,0.166 -6.522,1.59 -5.352,0.295 -4.456,1.988 -12.37,4.779 -16.811,8.943 l -0.14,-0.933 c -2.035,2.443 -8.874,7.296 -9.419,10.46 l -0.544,0.127 c -1.059,1.793 -1.744,3.825 -2.584,5.67 -1.385,2.36 -2.03,0.908 -1.833,1.278 -2.724,5.523 -4.077,10.164 -5.246,13.97 0.833,1.245 0.02,7.495 0.335,12.497 -1.368,24.704 17.338,48.69 37.785,54.228 2.997,1.072 7.454,1.031 11.245,1.141 -4.473,-1.279 -5.051,-0.678 -9.408,-2.197 -3.143,-1.48 -3.832,-3.17 -6.058,-5.102 l 0.881,1.557 c -4.366,-1.545 -2.539,-1.912 -6.091,-3.037 l 0.941,-1.229 C 28.751,98.334 26.418,96.056 25.78,94.795 l -1.548,0.061 c -1.86,-2.295 -2.851,-3.949 -2.779,-5.23 l -0.5,0.891 c -0.567,-0.973 -6.843,-8.607 -3.587,-6.83 -0.605,-0.553 -1.409,-0.9 -2.281,-2.484 l 0.663,-0.758 c -1.567,-2.016 -2.884,-4.6 -2.784,-5.461 0.836,1.129 1.416,1.34 1.99,1.533 -3.957,-9.818 -4.179,-0.541 -7.176,-9.994 L 8.412,66.472 C 7.926,65.74 7.631,64.945 7.24,64.165 l 0.276,-2.75 C 4.667,58.121 6.719,47.409 7.13,41.534 7.415,39.145 9.508,36.602 11.1,32.614 l -0.97,-0.167 c 1.854,-3.234 10.586,-12.988 14.63,-12.486 1.959,-2.461 -0.389,-0.009 -0.772,-0.629 4.303,-4.453 5.656,-3.146 8.56,-3.947 3.132,-1.859 -2.688,0.725 -1.203,-0.709 5.414,-1.383 3.837,-3.144 10.9,-3.846 0.745,0.424 -1.729,0.655 -2.35,1.205 4.511,-2.207 14.275,-1.705 20.617,1.225 7.359,3.439 15.627,13.605 15.953,23.17 l 0.371,0.1 c -0.188,3.802 0.582,8.199 -0.752,12.238 l 0.908,-1.912"
       id="path879987"
       style="fill:#51a1d0;fill-opacity:1" />
    <path
       i:knockout="Off"
       fill="#51a1d0"
       d="m 32.372,59.764 -0.252,1.26 c 1.181,1.604 2.118,3.342 3.626,4.596 -1.085,-2.118 -1.891,-2.993 -3.374,-5.856"
       id="path879989"
       style="fill:#51a1d0;fill-opacity:1" />
    <path
       i:knockout="Off"
       fill="#51a1d0"
       d="m 35.164,59.654 c -0.625,-0.691 -0.995,-1.523 -1.409,-2.352 0.396,1.457 1.207,2.709 1.962,3.982 l -0.553,-1.63"
       id="path879991"
       style="fill:#51a1d0;fill-opacity:1" />
    <path
       i:knockout="Off"
       fill="#51a1d0"
       d="m 84.568,48.916 -0.264,0.662 c -0.484,3.438 -1.529,6.84 -3.131,9.994 1.77,-3.328 2.915,-6.968 3.395,-10.656"
       id="path879993"
       style="fill:#51a1d0;fill-opacity:1" />
    <path
       i:knockout="Off"
       fill="#51a1d0"
       d="M 45.527,0.537 C 46.742,0.092 48.514,0.293 49.803,0 48.123,0.141 46.451,0.225 44.8,0.438 l 0.727,0.099"
       id="path879995"
       style="fill:#51a1d0;fill-opacity:1" />
    <path
       i:knockout="Off"
       fill="#51a1d0"
       d="m 2.872,23.219 c 0.28,2.592 -1.95,3.598 0.494,1.889 1.31,-2.951 -0.512,-0.815 -0.494,-1.889"
       id="path879997"
       style="fill:#51a1d0;fill-opacity:1" />
    <path
       i:knockout="Off"
       fill="#51a1d0"
       d="M 0,35.215 C 0.563,33.487 0.665,32.449 0.88,31.449 -0.676,33.438 0.164,33.862 0,35.215"
       id="path879999"
       style="fill:#51a1d0;fill-opacity:1" />
  </g>
</svg>
