<?xml version="1.0" encoding="UTF-8" standalone="no"?>
<!-- Created with Inkscape (http://www.inkscape.org/) -->

<svg
   width="1920"
   height="1200"
   viewBox="0 0 1920 1200"
   version="1.1"
   id="svg5"
   xml:space="preserve"
   xmlns:xlink="http://www.w3.org/1999/xlink"
   xmlns="http://www.w3.org/2000/svg"
   xmlns:svg="http://www.w3.org/2000/svg"
   xmlns:i="http://ns.adobe.com/AdobeIllustrator/10.0/"><defs
     id="defs2"><rect
       x="934.64034"
       y="1054.5201"
       width="457.22486"
       height="90.392689"
       id="rect26982" /><linearGradient
       id="linearGradient12656"><stop
         style="stop-color:#265e7f;stop-opacity:0.88999999;"
         offset="0"
         id="stop12654" /><stop
         style="stop-color:#276082;stop-opacity:1;"
         offset="0.3511188"
         id="stop12652" /><stop
         style="stop-color:#276082;stop-opacity:1;"
         offset="0.84502661"
         id="stop13554" /><stop
         style="stop-color:#276082;stop-opacity:0.75777662;"
         offset="0.99940705"
         id="stop13556" /></linearGradient><linearGradient
       id="linearGradient12648"><stop
         style="stop-color:#265e7f;stop-opacity:1;"
         offset="0"
         id="stop12646" /><stop
         style="stop-color:#276082;stop-opacity:1;"
         offset="0.34994966"
         id="stop12644" /><stop
         style="stop-color:#276082;stop-opacity:1;"
         offset="0.85264051"
         id="stop13562" /><stop
         style="stop-color:#276082;stop-opacity:0.95999998;"
         offset="1"
         id="stop13564" /></linearGradient><linearGradient
       id="linearGradient12640"><stop
         style="stop-color:#265e7f;stop-opacity:0.92000002;"
         offset="0"
         id="stop12638" /><stop
         style="stop-color:#276082;stop-opacity:1;"
         offset="0.35348684"
         id="stop12636" /><stop
         style="stop-color:#276082;stop-opacity:1;"
         offset="0.8476584"
         id="stop13558" /><stop
         style="stop-color:#276082;stop-opacity:0.85000002;"
         offset="1"
         id="stop13560" /></linearGradient><linearGradient
       id="linearGradient12241"><stop
         style="stop-color:#265a78;stop-opacity:0.85991371;"
         offset="0"
         id="stop12239" /><stop
         style="stop-color:#265a78;stop-opacity:1;"
         offset="0.24582241"
         id="stop12237" /></linearGradient><linearGradient
       id="linearGradient12231"><stop
         style="stop-color:#265a78;stop-opacity:0.60546595;"
         offset="0"
         id="stop12229" /><stop
         style="stop-color:#265a78;stop-opacity:1;"
         offset="0.24852315"
         id="stop12227" /></linearGradient><linearGradient
       id="linearGradient12221"><stop
         style="stop-color:#265a78;stop-opacity:0.318001;"
         offset="0.00097245"
         id="stop12219" /><stop
         style="stop-color:#265a78;stop-opacity:1;"
         offset="0.24779135"
         id="stop12217" /></linearGradient><linearGradient
       id="linearGradient3744"><stop
         style="stop-color:#276082;stop-opacity:0;"
         offset="0.37055299"
         id="stop3742" /><stop
         style="stop-color:#276082;stop-opacity:1;"
         offset="1"
         id="stop3740" /></linearGradient><linearGradient
       id="linearGradient3734"><stop
         style="stop-color:#265a78;stop-opacity:0;"
         offset="0.20029873"
         id="stop3732" /><stop
         style="stop-color:#265a78;stop-opacity:1;"
         offset="1"
         id="stop3730" /></linearGradient><radialGradient
       xlink:href="#linearGradient3734"
       id="radialGradient3736"
       cx="-63.3279"
       cy="1895.5513"
       fx="-63.3279"
       fy="1895.5513"
       r="851.67626"
       gradientTransform="matrix(1.7670923,0.01726974,-0.00680528,0.69633754,61.478115,-20.191501)"
       gradientUnits="userSpaceOnUse" /><radialGradient
       xlink:href="#linearGradient3744"
       id="radialGradient3746"
       cx="2002.5957"
       cy="1425.4607"
       fx="2002.5957"
       fy="1425.4607"
       r="513.49008"
       gradientTransform="matrix(-0.0012629,-1.1197073,1.4443859,-0.00162911,-53.790451,3537.0539)"
       gradientUnits="userSpaceOnUse" /><linearGradient
       xlink:href="#linearGradient12221"
       id="linearGradient12223"
       x1="-3.9511719"
       y1="853.08007"
       x2="1699.4023"
       y2="853.08007"
       gradientUnits="userSpaceOnUse" /><linearGradient
       xlink:href="#linearGradient12231"
       id="linearGradient12233"
       x1="-3.9511719"
       y1="859.08011"
       x2="1699.4023"
       y2="859.08011"
       gradientUnits="userSpaceOnUse" /><linearGradient
       xlink:href="#linearGradient12241"
       id="linearGradient12243"
       x1="-3.9511719"
       y1="863.08011"
       x2="1699.4023"
       y2="863.08011"
       gradientUnits="userSpaceOnUse" /><linearGradient
       xlink:href="#linearGradient12640"
       id="linearGradient12642"
       x1="890.26758"
       y1="839.41798"
       x2="1917.248"
       y2="839.41798"
       gradientUnits="userSpaceOnUse"
       gradientTransform="translate(0,12)" /><linearGradient
       xlink:href="#linearGradient12648"
       id="linearGradient12650"
       x1="890.26758"
       y1="839.41798"
       x2="1917.248"
       y2="839.41798"
       gradientUnits="userSpaceOnUse"
       gradientTransform="translate(0,22)" /><linearGradient
       xlink:href="#linearGradient12656"
       id="linearGradient12658"
       x1="890.26758"
       y1="839.41798"
       x2="1917.248"
       y2="839.41798"
       gradientUnits="userSpaceOnUse" /></defs><g
     id="layer5"
     style="display:inline"><rect
       style="display:inline;fill:#254151;fill-opacity:1;fill-rule:evenodd;stroke-width:1.00598"
       id="rect2322"
       width="1920"
       height="1200"
       x="0"
       y="0" /></g><g
     id="layer4"
     style="display:inline"><g
       id="g4703"
       style="display:inline"
       transform="rotate(-0.06057153,82777.189,585.81077)"><path
         id="path1958"
         style="display:inline;fill:url(#radialGradient3736);fill-opacity:1;stroke-width:6.93461"
         d="M 0.031256004 514.49023 L -0.60304746 1114.4899 L 1520.9664 1116.0985 C 1487.5731 1090.5881 1456.1284 1062.5289 1427.0824 1032.1593 C 1366.4457 968.75922 1315.7921 895.3035 1247.5959 840.11594 C 1175.2189 781.54503 1084.5534 745.99978 991.67879 739.41956 C 946.94205 736.24993 902.03484 739.61537 857.19144 740.31644 C 812.34804 741.01752 766.82086 738.94027 724.09199 725.3144 C 678.73373 710.85003 638.49318 684.03761 598.9546 657.51801 C 559.41601 630.99841 519.24201 604.11297 473.94053 589.47174 C 425.33267 573.76191 373.24602 572.95033 322.19809 574.85624 C 271.15016 576.76214 219.88529 581.23118 169.11718 575.56355 C 109.00789 568.85308 50.554545 547.74011 0.031256004 514.49023 z "
         transform="translate(0,-2)" /><path
         id="path12215"
         style="display:inline;fill:url(#linearGradient12243);fill-opacity:1;stroke-width:6.93461"
         d="M 0.035482629 510.49219 L 0.031256004 514.49023 C 50.554494 547.74008 109.00795 568.85113 169.11718 575.56159 C 219.88524 581.22923 271.15021 576.76214 322.19809 574.85624 C 373.24596 572.95034 425.33077 573.75997 473.93858 589.46979 C 519.24002 604.111 559.41605 630.99843 598.9546 657.51801 C 638.49315 684.03758 678.73377 710.85005 724.09199 725.3144 C 766.82082 738.94026 812.34808 741.01751 857.19144 740.31644 C 902.03478 739.61536 946.94015 736.24798 991.67684 739.4176 C 1084.5513 745.99783 1175.2208 781.54704 1247.5979 840.1179 C 1315.794 895.30539 1366.4477 968.75924 1427.0844 1032.1593 C 1456.1776 1062.5783 1487.736 1090.5881 1521.2047 1116.0987 L 1526.4801 1116.1043 C 1491.0586 1089.5089 1457.7009 1060.1707 1427.0847 1028.1593 C 1366.448 964.75924 1315.7943 891.30539 1247.5982 836.1179 C 1175.2212 777.54704 1084.5516 741.99782 991.67716 735.4176 C 946.94047 732.24797 902.0351 735.61536 857.19176 736.31644 C 812.3484 737.01751 766.82115 734.94026 724.09231 721.3144 C 678.73409 706.85005 638.49348 680.03758 598.95493 653.518 C 559.41638 626.99843 519.24034 600.111 473.93891 585.46979 C 425.33109 569.75997 373.24433 568.95034 322.19646 570.85624 C 271.14858 572.76213 219.88556 577.22923 169.1175 571.56159 C 109.00971 564.85129 50.55789 543.74065 0.035482629 510.49219 z "
         transform="translate(0,-2)" /><path
         id="path11247"
         style="display:inline;fill:url(#linearGradient12233);fill-opacity:1;stroke-width:6.93461"
         d="M 0.039709254 506.49414 L 0.035482629 510.49219 C 50.55789 543.74065 109.00971 564.85129 169.1175 571.56159 C 219.88556 577.22923 271.14858 572.76213 322.19646 570.85624 C 373.24433 568.95034 425.33109 569.75997 473.93891 585.46979 C 519.24034 600.111 559.41638 626.99843 598.95493 653.518 C 638.49348 680.03758 678.73409 706.85005 724.09231 721.3144 C 766.82115 734.94026 812.3484 737.01751 857.19176 736.31644 C 902.0351 735.61536 946.94047 732.24797 991.67716 735.4176 C 1084.5516 741.99782 1175.2212 777.54704 1247.5982 836.1179 C 1315.7943 891.30539 1366.448 964.75924 1427.0847 1028.1593 C 1457.739 1060.2106 1491.181 1089.5184 1526.6676 1116.1045 L 1531.9918 1116.1101 C 1494.5224 1088.4618 1459.2692 1057.8122 1427.0831 1024.1593 C 1366.4463 960.75923 1315.7946 887.30539 1247.5985 832.11789 C 1175.2215 773.54703 1084.552 737.99782 991.67748 731.4176 C 946.9408 728.24797 902.03543 731.61536 857.19208 732.31644 C 812.34872 733.01751 766.82147 730.94026 724.09263 717.31439 C 678.73442 702.85005 638.4938 676.03758 598.95525 649.518 C 559.4167 622.99843 519.24066 596.111 473.93923 581.46979 C 425.33142 565.75997 373.24465 564.95034 322.19678 566.85623 C 271.1489 568.76213 219.88588 573.22923 169.11782 567.56159 C 109.01148 560.85145 50.561285 539.74123 0.039709254 506.49414 z "
         transform="translate(0,-2)" /><path
         id="path10957"
         style="display:inline;fill:url(#linearGradient12223);fill-opacity:1;stroke-width:6.93461"
         d="M 0.043933814 500.49805 L 0.039709254 504.49414 C 50.561285 537.74123 109.01148 558.85145 169.11782 565.56159 C 219.88588 571.22923 271.1489 566.76213 322.19678 564.85623 C 373.24465 562.95034 425.33142 563.75997 473.93923 579.46979 C 519.24066 594.111 559.4167 620.99843 598.95525 647.518 C 638.4938 674.03758 678.73442 700.85005 724.09263 715.31439 C 766.82147 728.94026 812.34872 731.01751 857.19208 730.31644 C 902.03543 729.61536 946.9408 726.24797 991.67748 729.4176 C 1084.552 735.99782 1175.2215 771.54703 1247.5985 830.11789 C 1315.7946 885.30539 1366.4463 958.75923 1427.0831 1022.1593 C 1459.2982 1055.8426 1494.6044 1086.4803 1532.1285 1114.1103 L 1537.5055 1114.1159 C 1497.9679 1085.4468 1460.8399 1053.4541 1427.0834 1018.1593 C 1366.4467 954.75923 1315.793 881.30539 1247.5969 826.11789 C 1175.2199 767.54703 1084.5523 731.99782 991.6778 725.4176 C 946.94112 722.24797 902.03379 725.61536 857.19045 726.31644 C 812.34709 727.01751 766.81984 724.94026 724.091 711.31439 C 678.73279 696.85004 638.49412 670.03757 598.95557 643.518 C 559.41702 616.99843 519.24098 590.111 473.93955 575.46978 C 425.33174 559.75997 373.24497 558.95033 322.1971 560.85623 C 271.14922 562.76213 219.8862 567.22922 169.11815 561.56159 C 109.01358 554.85165 50.564483 533.74343 0.043933814 500.49805 z " /></g><g
       id="g4680"
       style="display:inline"
       transform="matrix(1.404996,0.00481537,-0.00676566,0.99998841,-727.49784,17.111882)"><path
         id="path1990"
         style="display:inline;fill:url(#radialGradient3746);fill-opacity:1;stroke-width:7.281"
         d="m 1886.9085,534.26516 c -21.1241,16.36111 -43.1799,31.5226 -66.1794,45.12193 -46.676,27.59903 -96.8088,49.21922 -148.6102,65.24957 -38.3652,11.8724 -77.6323,20.69454 -115.8909,32.9061 -38.2586,12.21156 -75.8891,28.05952 -107.8008,52.44158 -34.9719,26.72028 -61.6959,62.57129 -87.3673,98.32029 -25.6714,35.749 -51.128,72.29115 -84.3525,101.1554 -55.3566,48.09185 -127.5995,71.06717 -191.3853,107.24117 -63.074,35.7705 -118.24465,85.2492 -161.06587,143.7499 l 965.74157,-4.6504 z"
         transform="translate(0,-2)" /><path
         id="path12632"
         style="display:inline;fill:url(#linearGradient12650);fill-opacity:1;stroke-width:7.281"
         d="m 1886.8606,524.30238 c -21.1094,16.34677 -43.1477,31.49563 -66.1296,45.08459 -46.676,27.599 -96.8102,49.21923 -148.6116,65.24958 -38.3652,11.87238 -77.6323,20.69454 -115.8909,32.90609 -38.2586,12.21154 -75.8891,28.05954 -107.8008,52.44158 -34.9719,26.72024 -61.6959,62.57132 -87.3673,98.32029 -25.6714,35.74896 -51.1294,72.29119 -84.3539,101.15541 -55.3565,48.09181 -127.5982,71.06911 -191.3838,107.24318 -66.6579,37.8029 -124.52833,90.8852 -168.2769,153.7828 l 7.44258,-0.036 c 42.75358,-58.4941 97.79382,-107.9957 160.83382,-143.7468 63.7856,-36.1741 136.0287,-59.15331 191.3852,-107.24512 33.2245,-28.86422 58.6811,-65.40449 84.3525,-101.15345 25.6714,-35.74897 52.3954,-71.60005 87.3673,-98.32029 31.9117,-24.38204 69.5422,-40.23004 107.8008,-52.44158 38.2586,-12.21155 77.5257,-21.03371 115.8909,-32.9061 51.8014,-16.03034 101.9356,-37.65057 148.6116,-65.24958 22.9993,-13.59921 45.0546,-28.76042 66.178,-45.12192 z"
         transform="translate(0,-2)" /><path
         id="path12634"
         style="display:inline;fill:url(#linearGradient12642);fill-opacity:1;stroke-width:7.281"
         d="m 1886.8126,514.33961 c -21.0949,16.33239 -43.118,31.46858 -66.0825,45.04724 -46.676,27.59901 -96.8102,49.21924 -148.6116,65.24958 -38.3652,11.87239 -77.6309,20.69454 -115.8895,32.90609 -38.2586,12.21154 -75.8891,28.05954 -107.8008,52.44159 -34.9719,26.72023 -61.6959,62.57131 -87.3673,98.32028 -25.6714,35.74896 -51.1294,72.29119 -84.3539,101.15541 -55.3565,48.09182 -127.5996,71.06912 -191.3852,107.2431 -70.1703,39.7949 -130.59251,96.5288 -175.06106,163.8156 l 7.1312,-0.034 c 43.68703,-62.8614 101.32606,-116.0084 167.93076,-153.7811 63.7856,-36.17407 136.0273,-59.15332 191.3838,-107.24513 33.2245,-28.86422 58.6825,-65.4045 84.3539,-101.15346 25.6714,-35.74897 52.3954,-71.60005 87.3673,-98.32029 31.9117,-24.38204 69.5422,-40.23004 107.8008,-52.44158 38.2586,-12.21155 77.5257,-21.03371 115.8909,-32.90609 51.8014,-16.03035 101.9356,-37.65058 148.6116,-65.24958 22.9823,-13.58921 45.0201,-28.73903 66.1296,-45.08654 z"
         transform="translate(0,-2)" /><path
         id="path12411"
         style="display:inline;fill:url(#linearGradient12658);fill-opacity:1;stroke-width:7.281"
         d="m 1886.7646,502.37488 c -21.0807,16.31831 -43.0865,31.44328 -66.034,45.01186 -46.676,27.599 -96.8102,49.21923 -148.6116,65.24958 -38.3652,11.87238 -77.6323,20.69454 -115.8909,32.90609 -38.2586,12.21154 -75.8891,28.05954 -107.8008,52.44158 -34.9719,26.72024 -61.6959,62.57132 -87.3673,98.32029 -25.6714,35.74896 -51.128,72.29118 -84.3525,101.1554 -55.3565,48.09182 -127.5996,71.06912 -191.3852,107.24312 -73.6258,41.7546 -136.49823,102.1692 -181.48797,173.8467 l 6.7656,-0.033 c 44.42177,-67.2449 104.60277,-124.0481 174.72187,-163.814 63.7856,-36.17398 136.0287,-59.15324 191.3852,-107.24505 33.2245,-28.86422 58.6825,-65.4045 84.3539,-101.15346 25.6714,-35.74897 52.3954,-71.60005 87.3673,-98.32028 31.9117,-24.38205 69.5422,-40.23005 107.8008,-52.44159 38.2586,-12.21155 77.5243,-21.0337 115.8895,-32.90609 51.8014,-16.03034 101.9356,-37.65057 148.6116,-65.24958 22.9648,-13.57884 44.9876,-28.71616 66.0825,-45.0492 z" /></g></g><rect
     style="display:inline;opacity:0.4487512;fill:#26536e;fill-rule:evenodd"
     id="rect10287"
     width="1920"
     height="1200"
     x="0"
     y="0" /><g
     id="g28314"
     transform="translate(-36.641387)"><g
       id="g24121"
       transform="translate(33.360775,-5.1461403)"><g
         id="layer6"
         style="display:inline"
         transform="matrix(0.82751181,0,0,0.82751181,-233.65779,564.20998)"><g
           id="g880001"
           style="display:inline;fill:#51a1d0;fill-opacity:1"
           transform="matrix(1.0144723,0,0,1.0144723,1234.5714,591.72714)"><path
             i:knockout="Off"
             fill="#51a1d0"
             d="m 51.986,57.297 c -1.797,0.025 0.34,0.926 2.686,1.287 0.648,-0.506 1.236,-1.018 1.76,-1.516 -1.461,0.358 -2.948,0.366 -4.446,0.229"
             id="path879977"
             style="fill:#51a1d0;fill-opacity:1" /><path
             i:knockout="Off"
             fill="#51a1d0"
             d="m 61.631,54.893 c 1.07,-1.477 1.85,-3.094 2.125,-4.766 -0.24,1.192 -0.887,2.221 -1.496,3.307 -3.359,2.115 -0.316,-1.256 -0.002,-2.537 -3.612,4.546 -0.496,2.726 -0.627,3.996"
             id="path879979"
             style="fill:#51a1d0;fill-opacity:1" /><path
             i:knockout="Off"
             fill="#51a1d0"
             d="m 65.191,45.629 c 0.217,-3.236 -0.637,-2.213 -0.924,-0.978 0.335,0.174 0.6,2.281 0.924,0.978"
             id="path879981"
             style="fill:#51a1d0;fill-opacity:1" /><path
             i:knockout="Off"
             fill="#51a1d0"
             d="m 45.172,1.399 c 0.959,0.172 2.072,0.304 1.916,0.533 1.049,-0.23 1.287,-0.442 -1.916,-0.533"
             id="path879983"
             style="fill:#51a1d0;fill-opacity:1" /><path
             i:knockout="Off"
             fill="#51a1d0"
             d="M 47.088,1.932 46.41,2.072 47.041,2.016 47.088,1.932"
             id="path879985"
             style="fill:#51a1d0;fill-opacity:1" /><path
             i:knockout="Off"
             fill="#51a1d0"
             d="m 76.992,46.856 c 0.107,2.906 -0.85,4.316 -1.713,6.812 l -1.553,0.776 c -1.271,2.468 0.123,1.567 -0.787,3.53 -1.984,1.764 -6.021,5.52 -7.313,5.863 -0.943,-0.021 0.639,-1.113 0.846,-1.541 -2.656,1.824 -2.131,2.738 -6.193,3.846 L 60.16,65.878 C 50.142,70.591 36.226,61.251 36.409,48.507 c -0.107,0.809 -0.304,0.607 -0.526,0.934 -0.517,-6.557 3.028,-13.143 9.007,-15.832 5.848,-2.895 12.704,-1.707 16.893,2.197 -2.301,-3.014 -6.881,-6.209 -12.309,-5.91 -5.317,0.084 -10.291,3.463 -11.951,7.131 -2.724,1.715 -3.04,6.611 -4.227,7.507 -1.597,11.737 3.004,16.808 10.787,22.773 1.225,0.826 0.345,0.951 0.511,1.58 -2.586,-1.211 -4.954,-3.039 -6.901,-5.277 1.033,1.512 2.148,2.982 3.589,4.137 -2.438,-0.826 -5.695,-5.908 -6.646,-6.115 4.203,7.525 17.052,13.197 23.78,10.383 -3.113,0.115 -7.068,0.064 -10.566,-1.229 -1.469,-0.756 -3.467,-2.322 -3.11,-2.615 9.182,3.43 18.667,2.598 26.612,-3.771 2.021,-1.574 4.229,-4.252 4.867,-4.289 -0.961,1.445 0.164,0.695 -0.574,1.971 2.014,-3.248 -0.875,-1.322 2.082,-5.609 l 1.092,1.504 c -0.406,-2.696 3.348,-5.97 2.967,-10.234 0.861,-1.304 0.961,1.403 0.047,4.403 1.268,-3.328 0.334,-3.863 0.66,-6.609 0.352,0.923 0.814,1.904 1.051,2.878 -0.826,-3.216 0.848,-5.416 1.262,-7.285 -0.408,-0.181 -1.275,1.422 -1.473,-2.377 0.029,-1.65 0.459,-0.865 0.625,-1.271 -0.324,-0.186 -1.174,-1.451 -1.691,-3.877 0.375,-0.57 1.002,1.478 1.512,1.562 -0.328,-1.929 -0.893,-3.4 -0.916,-4.88 -1.49,-3.114 -0.527,0.415 -1.736,-1.337 -1.586,-4.947 1.316,-1.148 1.512,-3.396 2.404,3.483 3.775,8.881 4.404,11.117 -0.48,-2.726 -1.256,-5.367 -2.203,-7.922 0.73,0.307 -1.176,-5.609 0.949,-1.691 C 83.519,18.706 76.074,10.902 69.225,7.24 70.063,8.007 71.121,8.97 70.741,9.121 67.335,7.093 67.934,6.935 67.446,6.078 64.671,4.949 64.489,6.169 62.651,6.08 57.421,3.306 56.413,3.601 51.6,1.863 l 0.219,1.023 c -3.465,-1.154 -4.037,0.438 -7.782,0.004 -0.228,-0.178 1.2,-0.644 2.375,-0.815 -3.35,0.442 -3.193,-0.66 -6.471,0.122 0.808,-0.567 1.662,-0.942 2.524,-1.424 -2.732,0.166 -6.522,1.59 -5.352,0.295 -4.456,1.988 -12.37,4.779 -16.811,8.943 l -0.14,-0.933 c -2.035,2.443 -8.874,7.296 -9.419,10.46 l -0.544,0.127 c -1.059,1.793 -1.744,3.825 -2.584,5.67 -1.385,2.36 -2.03,0.908 -1.833,1.278 -2.724,5.523 -4.077,10.164 -5.246,13.97 0.833,1.245 0.02,7.495 0.335,12.497 -1.368,24.704 17.338,48.69 37.785,54.228 2.997,1.072 7.454,1.031 11.245,1.141 -4.473,-1.279 -5.051,-0.678 -9.408,-2.197 -3.143,-1.48 -3.832,-3.17 -6.058,-5.102 l 0.881,1.557 c -4.366,-1.545 -2.539,-1.912 -6.091,-3.037 l 0.941,-1.229 C 28.751,98.334 26.418,96.056 25.78,94.795 l -1.548,0.061 c -1.86,-2.295 -2.851,-3.949 -2.779,-5.23 l -0.5,0.891 c -0.567,-0.973 -6.843,-8.607 -3.587,-6.83 -0.605,-0.553 -1.409,-0.9 -2.281,-2.484 l 0.663,-0.758 c -1.567,-2.016 -2.884,-4.6 -2.784,-5.461 0.836,1.129 1.416,1.34 1.99,1.533 -3.957,-9.818 -4.179,-0.541 -7.176,-9.994 L 8.412,66.472 C 7.926,65.74 7.631,64.945 7.24,64.165 l 0.276,-2.75 C 4.667,58.121 6.719,47.409 7.13,41.534 7.415,39.145 9.508,36.602 11.1,32.614 l -0.97,-0.167 c 1.854,-3.234 10.586,-12.988 14.63,-12.486 1.959,-2.461 -0.389,-0.009 -0.772,-0.629 4.303,-4.453 5.656,-3.146 8.56,-3.947 3.132,-1.859 -2.688,0.725 -1.203,-0.709 5.414,-1.383 3.837,-3.144 10.9,-3.846 0.745,0.424 -1.729,0.655 -2.35,1.205 4.511,-2.207 14.275,-1.705 20.617,1.225 7.359,3.439 15.627,13.605 15.953,23.17 l 0.371,0.1 c -0.188,3.802 0.582,8.199 -0.752,12.238 l 0.908,-1.912"
             id="path879987"
             style="fill:#51a1d0;fill-opacity:1" /><path
             i:knockout="Off"
             fill="#51a1d0"
             d="m 32.372,59.764 -0.252,1.26 c 1.181,1.604 2.118,3.342 3.626,4.596 -1.085,-2.118 -1.891,-2.993 -3.374,-5.856"
             id="path879989"
             style="fill:#51a1d0;fill-opacity:1" /><path
             i:knockout="Off"
             fill="#51a1d0"
             d="m 35.164,59.654 c -0.625,-0.691 -0.995,-1.523 -1.409,-2.352 0.396,1.457 1.207,2.709 1.962,3.982 l -0.553,-1.63"
             id="path879991"
             style="fill:#51a1d0;fill-opacity:1" /><path
             i:knockout="Off"
             fill="#51a1d0"
             d="m 84.568,48.916 -0.264,0.662 c -0.484,3.438 -1.529,6.84 -3.131,9.994 1.77,-3.328 2.915,-6.968 3.395,-10.656"
             id="path879993"
             style="fill:#51a1d0;fill-opacity:1" /><path
             i:knockout="Off"
             fill="#51a1d0"
             d="M 45.527,0.537 C 46.742,0.092 48.514,0.293 49.803,0 48.123,0.141 46.451,0.225 44.8,0.438 l 0.727,0.099"
             id="path879995"
             style="fill:#51a1d0;fill-opacity:1" /><path
             i:knockout="Off"
             fill="#51a1d0"
             d="m 2.872,23.219 c 0.28,2.592 -1.95,3.598 0.494,1.889 1.31,-2.951 -0.512,-0.815 -0.494,-1.889"
             id="path879997"
             style="fill:#51a1d0;fill-opacity:1" /><path
             i:knockout="Off"
             fill="#51a1d0"
             d="M 0,35.215 C 0.563,33.487 0.665,32.449 0.88,31.449 -0.676,33.438 0.164,33.862 0,35.215"
             id="path879999"
             style="fill:#51a1d0;fill-opacity:1" /></g></g></g><g
       aria-label="debian"
       transform="matrix(1.1627526,0,0,1.1627526,-172.67454,-185.7866)"
       id="text26980"
       style="font-size:80px;font-family:Poppl-Laudatio;-inkscape-font-specification:'Poppl-Laudatio, Normal';white-space:pre;shape-inside:url(#rect26982);opacity:1;fill:#4f9ecc;stroke-width:7.281"><path
         d="m 935.56056,1108.304 q 0,-5.92 1.20001,-10 1.19999,-4.16 3.43999,-6.72 2.24,-2.64 5.52,-3.76 3.28001,-1.2 7.36,-1.2 2.32001,0 3.6,0.24 1.28,0.24 2.4,0.48 0,-2.96 -0.08,-5.12 0,-2.16 -0.24,-3.76 -0.16001,-1.6 -0.64,-2.64 -0.48,-1.12 -1.28001,-2 2.56001,-0.16 4.48,-0.4 1.92001,-0.24 3.52,-0.56 1.68001,-0.32 3.12,-0.72 1.52,-0.48 3.2,-1.12 -0.15999,0.72 -0.24,1.44 -0.08,0.72 -0.15999,1.84 -0.08,1.04 -0.16001,2.8 -0.08,1.68 -0.16,4.32 0,1.84 -0.08,5.12 -0.08,3.28 -0.08,7.28 0,3.92 0,8.24 0,4.32 0,8.4 0,4 0.08,7.36 0.08,3.36 0.23999,5.44 0.08,1.6 0.24,2.64 0.16001,1.04 0.32,1.84 0.24001,0.8 0.48001,1.36 0.24,0.56 0.55999,1.2 -1.36,-0.16 -2.55999,-0.24 -1.12,-0.08 -2.96001,-0.08 -2.96,0 -4.64,0.16 -1.67999,0.08 -2.79999,0.16 v -6.88 q -0.24,0.64 -0.80001,1.84 -0.48,1.2 -1.6,2.4 -1.04,1.2 -2.88,2.08 -1.83999,0.88 -4.64,0.88 -3.43999,0 -5.84,-1.36 -2.32,-1.44 -3.83999,-3.6 -1.52,-2.24 -2.4,-4.88 -0.80001,-2.72 -1.20001,-5.2 -0.32,-2.48 -0.39999,-4.4 -0.08,-2 -0.08,-2.88 z m 23.36,-13.52 q -0.79999,-0.4 -1.67999,-0.64 -0.88,-0.24 -2.32001,-0.24 -2.55999,0 -4.08,1.12 -1.52,1.04 -2.4,2.88 -0.79999,1.76 -1.12,4 -0.24,2.24 -0.24,4.48 0,0.88 0,2.56 0.08,1.68 0.48,4 0.24,1.6 0.64,3.2 0.48,1.52 1.20001,2.8 0.72,1.2 1.84,2 1.12,0.72 2.71999,0.72 1.36,0 2.16001,-0.48 0.88,-0.48 1.35999,-1.12 0.48,-0.64 0.72,-1.28 0.24,-0.64 0.32001,-0.96 0.15999,-0.8 0.24,-2.88 0.15999,-2.16 0.15999,-4.88 0.08,-2.8 0.08,-5.76 0,-3.04 0,-5.6 z"
         id="path28316" /><path
         d="m 989.35957,1110.704 q 0,0.96 0.08,2.24 0.08,1.2 0.4,2.56 0.4,1.36 1.04,2.72 0.72,1.28 1.92,2.4 1.04,0.96 2.24,1.52 1.28,0.48 2.4,0.72 1.2,0.24 2.15998,0.32 1.03995,0 1.51995,0 4.16,0 6.24,-0.88 2.16,-0.96 3.28,-1.68 -0.64,2.64 -0.96,4.56 -0.24,1.92 -0.16,4.64 -2.48,0.64 -4.96,0.8 -2.4,0.24 -4.95995,0.24 -3.83998,0 -6.87998,-0.56 -2.96,-0.56 -5.44,-1.84 -4.32,-2.24 -6.88,-7.12 -2.48,-4.88 -2.48,-13.28 0,-3.84 0.72,-7.68 0.8,-3.84 2.72,-6.88 2,-3.12 5.44,-5.04 3.52,-1.92 8.96,-1.92 4.87993,0 7.91993,1.6 3.12,1.52 4.8,4.24 1.68,2.64 2.24,6.24 0.64,3.52 0.64,7.44 l -0.16,4.64 z m 11.43993,-6.64 q 0.08,-2 -0.08,-3.92 -0.08,-2 -0.64,-3.52 -0.55995,-1.6 -1.75993,-2.56 -1.12,-0.96 -3.12,-0.96 -2,0 -3.2,0.96 -1.2,0.96 -1.84,2.56 -0.64,1.52 -0.88,3.52 -0.24,1.92 -0.24,3.92 z"
         id="path28318" /><path
         d="m 1018.6406,1097.664 q 0,-7.92 -0.24,-12.24 -0.16,-4.4 -0.56,-6.64 -0.32,-2.32 -0.96,-3.12 -0.64,-0.8 -1.44,-1.6 1.68,-0.08 3.28,-0.24 1.6,-0.16 3.36,-0.48 1.84,-0.32 3.92,-0.88 2.08,-0.64 4.8,-1.6 -0.32,2.72 -0.48,6.32 -0.16,3.6 -0.24,7.12 0,3.52 0,6.56 0,3.04 0,4.56 0.48,-1.2 1.2,-2.72 0.8,-1.52 2.08,-2.88 1.28,-1.44 3.2,-2.32 1.92,-0.96 4.72,-0.96 3.36,0 5.84,1.52 2.48,1.44 3.84,3.52 1.04,1.44 1.68,3.36 0.64,1.84 0.96,3.68 0.32,1.84 0.4,3.6 0.08,1.76 0.08,2.96 0,6.96 -1.44,11.84 -1.44,4.88 -4.24,8 -2.72,3.04 -6.72,4.4 -4,1.36 -9.04,1.36 -1.2,0 -2.88,-0.08 -1.6,-0.08 -3.6,-0.32 -1.92,-0.24 -4.08,-0.64 -2.16,-0.4 -4.4,-1.12 0.72,-2.4 0.8,-5.44 0.16,-3.12 0.16,-6.08 z m 23.84,12.16 q 0,-2.4 -0.24,-4.88 -0.24,-2.48 -0.96,-4.48 -0.64,-2.08 -1.92,-3.36 -1.28,-1.28 -3.28,-1.28 -0.4,0 -1.04,0.08 -0.56,0.08 -1.28,0.56 -0.72,0.4 -1.44,1.28 -0.64,0.88 -1.12,2.48 -0.64,2.24 -0.8,5.52 -0.08,3.28 -0.08,8.4 0,3.28 0,5.84 0,2.48 0.16,3.84 0.4,0 1.36,0.24 0.96,0.16 2.08,0.16 2.96,0 4.64,-1.44 1.76,-1.44 2.64,-3.6 0.88,-2.16 1.04,-4.64 0.24,-2.56 0.24,-4.72 z"
         id="path28320" /><path
         d="m 1061.3606,1098.304 q -0.08,-2.64 -0.32,-4.16 -0.16,-1.6 -0.48,-2.56 -0.24,-1.04 -0.72,-1.6 -0.48,-0.64 -1.2,-1.28 3.04,-0.16 5.12,-0.32 2.08,-0.16 3.68,-0.4 1.6,-0.32 2.96,-0.8 1.44,-0.48 3.12,-1.2 -0.88,6.4 -0.88,14.48 0.08,8 0.24,18.16 0.08,2.96 0.32,6.16 0.24,3.2 1.2,5.52 -1.36,-0.16 -2.8,-0.32 -1.36,-0.16 -3.6,-0.16 -2.8,0 -4.8,0.16 -2,0.16 -3.36,0.32 0.32,-0.64 0.56,-1.12 0.24,-0.56 0.4,-1.36 0.24,-0.88 0.32,-2.16 0.08,-1.28 0.16,-3.44 0.08,-2.16 0.16,-4.96 0.08,-2.8 0.08,-5.92 0,-3.12 -0.08,-6.4 0,-3.36 -0.08,-6.64 z m 11.2,-21.2 q 0.08,3.52 -1.6,4.96 -1.6,1.44 -4.08,1.44 -2.56,0 -4.24,-1.44 -1.6,-1.44 -1.6,-4.4 0,-2.48 1.28,-4.32 1.28,-1.84 4.56,-1.84 2.8,0 4.16,1.52 1.44,1.52 1.52,4.08 z"
         id="path28322" /><path
         d="m 1112.0806,1124.704 q 0.16,2.56 0.56,3.68 0.4,1.04 0.96,1.92 -1.36,-0.24 -2.88,-0.24 -1.52,-0.08 -3.28,-0.08 -1.6,0 -3.04,0.08 -1.44,0.08 -3.04,0.24 -0.24,-1.2 -0.32,-2.88 0,-1.68 0.08,-5.04 -0.4,1.12 -1.04,2.56 -0.64,1.36 -1.84,2.64 -1.12,1.28 -3.04,2.16 -1.84,0.88 -4.64,0.88 -3.6,0 -5.68,-1.52 -2.08,-1.52 -3.2,-3.6 -1.04,-2.16 -1.36,-4.32 -0.24,-2.24 -0.24,-3.68 0,-3.92 1.2,-6.64 1.28,-2.72 3.52,-4.4 2.24,-1.76 5.28,-2.56 3.12,-0.8 6.88,-0.8 1.36,0 2.16,0.08 0.88,0 1.68,0.16 0.08,-2 0,-3.6 0,-1.6 -0.48,-2.64 -0.48,-1.12 -1.6,-1.68 -1.04,-0.64 -2.96,-0.64 -2.96,0 -5.76,1.04 -2.72,1.04 -4.96,3.12 -0.88,-3.28 -1.6,-5.04 -0.72,-1.84 -1.68,-3.52 0.8,-0.4 2.08,-1.04 1.36,-0.72 3.28,-1.28 1.92,-0.64 4.4,-1.04 2.56,-0.48 5.84,-0.48 3.6,0 6.64,0.8 3.04,0.8 4.88,2.48 1.2,1.12 1.84,2.32 0.64,1.2 0.96,3.04 0.32,1.76 0.32,4.4 0.08,2.56 0.08,6.48 z m -13.84,-16.08 q -2.96,0 -4.96,1.52 -2,1.52 -2,5.36 0,2.56 0.96,4.48 1.04,1.84 3.36,1.84 0.24,0 0.8,-0.08 0.64,-0.08 1.28,-0.48 0.72,-0.4 1.36,-1.12 0.72,-0.72 1.12,-2.08 0.24,-0.64 0.32,-1.36 0.16,-0.8 0.24,-1.84 0.08,-1.12 0.16,-2.56 0.08,-1.44 0.08,-3.52 z"
         id="path28324" /><path
         d="m 1132.0006,1094.544 q 0.4,-0.96 1.12,-2.32 0.8,-1.36 2.16,-2.56 1.36,-1.28 3.52,-2.16 2.24,-0.96 5.6,-0.96 4,0 6.16,1.36 2.24,1.28 3.28,3.2 1.04,1.92 1.2,4.08 0.24,2.16 0.24,3.84 v 23.92 q 0,1.84 0.08,3.04 0.16,1.2 0.32,2 0.16,0.72 0.32,1.28 0.24,0.48 0.48,1.04 -0.8,-0.08 -1.52,-0.16 -0.72,-0.08 -1.6,-0.08 -0.8,-0.08 -1.92,-0.08 -1.04,-0.08 -2.48,-0.08 -2.08,0 -3.44,0.08 -1.28,0.08 -2.8,0.32 0.16,-0.56 0.32,-1.2 0.24,-0.64 0.32,-2 0.16,-1.36 0.24,-3.68 0.08,-2.4 0.08,-6.48 v -12.72 q 0,-1.92 -0.08,-3.6 -0.08,-1.68 -0.64,-2.88 -0.48,-1.2 -1.6,-1.92 -1.04,-0.72 -2.96,-0.72 -1.84,0 -3.04,0.64 -1.12,0.64 -1.76,1.52 -0.56,0.8 -0.8,1.68 -0.24,0.8 -0.32,1.2 -0.16,0.96 -0.24,2.88 -0.08,1.84 -0.16,4.32 0,2.4 0,5.12 0,2.72 0,5.36 0,3.76 0,6 0.08,2.16 0.16,3.44 0.16,1.28 0.32,1.92 0.24,0.56 0.48,1.12 -1.44,-0.16 -2.96,-0.24 -1.52,-0.16 -3.92,-0.16 -1.6,0 -3.12,0.08 -1.52,0.08 -3.6,0.32 0.4,-0.8 0.64,-1.84 0.24,-1.12 0.4,-2.16 0.08,-0.56 0.16,-2.08 0.08,-1.52 0.08,-3.52 0.08,-2.08 0.08,-4.56 0,-2.56 0,-5.2 0,-2.64 0,-4.8 0,-2.24 -0.08,-4.16 0,-1.92 -0.08,-3.76 -0.08,-1.84 -0.24,-3.84 -0.16,-2.8 -0.96,-4.08 -0.72,-1.28 -1.44,-1.68 2.96,-0.16 5.04,-0.32 2.08,-0.24 3.6,-0.56 1.6,-0.32 2.8,-0.72 1.28,-0.48 2.56,-1.04 z"
         id="path28326" /></g></g></svg>
