<?xml version="1.0" encoding="UTF-8" standalone="no"?>
<!-- Created with Inkscape (http://www.inkscape.org/) -->

<svg
   width="1920"
   height="1200"
   viewBox="0 0 1920 1200"
   version="1.1"
   id="svg5"
   inkscape:version="1.2.2 (b0a8486541, 2022-12-01)"
   sodipodi:docname="wallpaper_seg2_1920x1200.svg"
   xmlns:inkscape="http://www.inkscape.org/namespaces/inkscape"
   xmlns:sodipodi="http://sodipodi.sourceforge.net/DTD/sodipodi-0.dtd"
   xmlns:xlink="http://www.w3.org/1999/xlink"
   xmlns="http://www.w3.org/2000/svg"
   xmlns:svg="http://www.w3.org/2000/svg"
   xmlns:i="http://ns.adobe.com/AdobeIllustrator/10.0/">
  <sodipodi:namedview
     id="namedview7"
     pagecolor="#505050"
     bordercolor="#eeeeee"
     borderopacity="1"
     inkscape:showpageshadow="0"
     inkscape:pageopacity="0"
     inkscape:pagecheckerboard="0"
     inkscape:deskcolor="#505050"
     inkscape:document-units="px"
     showgrid="false"
     inkscape:zoom="0.42961546"
     inkscape:cx="936.88436"
     inkscape:cy="1060.2505"
     inkscape:window-width="1686"
     inkscape:window-height="997"
     inkscape:window-x="234"
     inkscape:window-y="0"
     inkscape:window-maximized="0"
     inkscape:current-layer="layer3" />
  <defs
     id="defs2">
    <linearGradient
       inkscape:collect="always"
       id="linearGradient3733">
      <stop
         style="stop-color:#26536e;stop-opacity:1;"
         offset="0"
         id="stop3729" />
      <stop
         style="stop-color:#26536e;stop-opacity:0;"
         offset="1"
         id="stop3731" />
    </linearGradient>
    <radialGradient
       xlink:href="#linearGradient1319"
       id="radialGradient1313"
       cx="1918"
       cy="1346.5209"
       fx="1918"
       fy="1346.5209"
       r="512.86133"
       gradientTransform="matrix(-3.4072807e-8,-1.3994197,1.9880536,-8.2990613e-8,-756.9556,3881.2348)"
       gradientUnits="userSpaceOnUse" />
    <linearGradient
       id="linearGradient1319">
      <stop
         style="stop-color:#276082;stop-opacity:0.39800748;"
         offset="0.30125529"
         id="stop1221" />
      <stop
         style="stop-color:#276082;stop-opacity:0.75777662;"
         offset="0.52131933"
         id="stop1317" />
      <stop
         style="stop-color:#276082;stop-opacity:1;"
         offset="0.68381566"
         id="stop1315" />
    </linearGradient>
    <radialGradient
       xlink:href="#linearGradient1227"
       id="radialGradient1229"
       cx="-121.22272"
       cy="1900.0312"
       fx="-121.22272"
       fy="1900.0312"
       r="836.71741"
       gradientTransform="matrix(2.1892912,0.00324714,-0.00136469,0.92009846,141.49151,-726.37289)"
       gradientUnits="userSpaceOnUse" />
    <linearGradient
       id="linearGradient1227">
      <stop
         style="stop-color:#265a78;stop-opacity:0;"
         offset="0"
         id="stop1225" />
      <stop
         style="stop-color:#265a78;stop-opacity:0.74117647;"
         offset="0.2823306"
         id="stop6006" />
      <stop
         style="stop-color:#265a78;stop-opacity:0.8;"
         offset="0.40626076"
         id="stop1233" />
      <stop
         style="stop-color:#265a78;stop-opacity:1;"
         offset="0.70748854"
         id="stop1223" />
    </linearGradient>
    <radialGradient
       xlink:href="#linearGradient1287"
       id="radialGradient1277"
       cx="1920"
       cy="1637.262"
       fx="1920"
       fy="1637.262"
       r="905.21289"
       gradientTransform="matrix(-2.774444e-7,-1.1790959,2.1210483,-8.3539203e-7,-1552.7109,3463.8656)"
       gradientUnits="userSpaceOnUse" />
    <linearGradient
       id="linearGradient1287">
      <stop
         style="stop-color:#26536e;stop-opacity:0.66000003;"
         offset="0.50468224"
         id="stop1285" />
      <stop
         style="stop-color:#26536e;stop-opacity:1;"
         offset="0.92302817"
         id="stop1283" />
      <stop
         style="stop-color:#26536e;stop-opacity:0.59372801;"
         offset="1"
         id="stop1950" />
    </linearGradient>
    <radialGradient
       xlink:href="#linearGradient1969"
       id="radialGradient1971"
       cx="-77.91774"
       cy="1715.4058"
       fx="-77.91774"
       fy="1715.4058"
       r="960"
       gradientTransform="matrix(2.0799855,0.01033745,-0.00548579,1.1037896,-34.992779,-720.25597)"
       gradientUnits="userSpaceOnUse" />
    <linearGradient
       id="linearGradient1969">
      <stop
         style="stop-color:#264d64;stop-opacity:0;"
         offset="0.3990624"
         id="stop1967" />
      <stop
         style="stop-color:#264d64;stop-opacity:1;"
         offset="0.84475249"
         id="stop1965" />
    </linearGradient>
    <radialGradient
       xlink:href="#linearGradient1979"
       id="radialGradient1981"
       cx="1944.4332"
       cy="1630.2191"
       fx="1944.4332"
       fy="1630.2191"
       r="960"
       gradientTransform="matrix(-0.00516515,-1.354402,2.066879,-0.00788226,-1543.5427,3875.5851)"
       gradientUnits="userSpaceOnUse" />
    <linearGradient
       id="linearGradient1979">
      <stop
         style="stop-color:#26475b;stop-opacity:0;"
         offset="0"
         id="stop1977" />
      <stop
         style="stop-color:#26475b;stop-opacity:1;"
         offset="0.67915493"
         id="stop1975" />
    </linearGradient>
    <radialGradient
       inkscape:collect="always"
       xlink:href="#linearGradient3733"
       id="radialGradient3735"
       cx="1787.4496"
       cy="1201.5822"
       fx="1787.4496"
       fy="1201.5822"
       r="263.7738"
       gradientTransform="matrix(1.4101234,-0.01677012,0.01086404,0.87213674,-747.20177,179.45312)"
       gradientUnits="userSpaceOnUse" />
  </defs>
  <g
     inkscape:groupmode="layer"
     id="layer2"
     inkscape:label="background">
    <path
       id="rect2585"
       style="display:inline;fill:#254151;fill-rule:evenodd"
       d="M 0,0 H 1920 V 1200 H 0 Z" />
  </g>
  <g
     inkscape:groupmode="layer"
     id="layer3"
     inkscape:label="segments">
    <g
       id="g3383"
       inkscape:label="wave5"
       sodipodi:insensitive="true">
      <path
         style="display:inline;fill:#276082;fill-opacity:0.389477;stroke-width:7.281"
         d="M 1270.5942,-2.5787016 C 1232.7297,32.843704 1188.2833,63.007214 1142.2022,86.777026 1063.6272,127.30806 976.87445,148.74488 891.2623,170.821 830.57759,186.46928 769.21742,202.92802 714.87305,234.14008 643.4006,275.18946 571.25988,320.28419 517.15427,382.46093 482.79201,421.94914 423.4551,516.46162 358.40423,561.67428 272.36923,621.47165 97.95397,688.66699 0,686.44212 L -4e-5,1197.4213 H 1920 V -2.5787016 Z"
         id="path1103"
         sodipodi:nodetypes="csssssccccc"
         inkscape:label="curve5"
         sodipodi:insensitive="true" />
      <path
         id="path3261"
         style="display:inline;fill:#26475b;fill-opacity:1;stroke-width:7.281"
         inkscape:label="tile11"
         d="m 1270.5938,-2.578125 c -37.8645,35.422335 -82.3096,65.585705 -128.3907,89.355469 -78.5748,40.530956 -165.32941,61.966886 -250.94138,84.042966 -60.68459,15.64826 -122.04442,32.10833 -176.38867,63.32031 -4.1038,2.35697 -8.16878,4.90491 -12.27344,7.29102 49.59875,10.14424 100.84253,11.10916 151.58398,12.40234 72.59046,1.85004 147.37141,5.05238 213.35941,35.35743 43.0334,19.76322 80.1905,50.14542 116.2636,80.82421 35.7528,30.40619 71.6279,61.86612 114.3145,81.3711 93.3227,-44.54826 177.1791,-109.23305 273.7305,-146.84766 59.9804,-23.36727 124.1995,-35.55667 192.0332,-34.98828 67.8336,0.56839 114.0885,8.64705 156.1152,20.86133 V -2.578125 Z" />
    </g>
    <g
       id="g3380"
       inkscape:label="wave4"
       style="display:inline"
       sodipodi:insensitive="true">
      <path
         style="display:inline;fill:#276082;fill-opacity:0.432759;stroke-width:7.281"
         d="m 0,172.88423 c 63.3298,-1.61832 126.5453,-9.31579 189.0242,-19.78812 65.6283,-11.00021 131.6927,-26.91396 197.9112,-20.34218 54.1049,5.36958 105.5768,25.55464 155.1759,47.82801 45.9995,20.6569 91.457,43.41803 140.2422,56.17188 55.8202,14.59299 114.1526,15.6108 171.8301,17.08076 72.5906,1.85004 147.3714,5.05231 213.3594,35.35742 43.0336,19.76326 80.1903,50.14535 116.2636,80.82422 35.785,30.43367 71.6902,61.92548 114.4276,81.42649 48.7122,22.22729 103.1427,27.47417 156.2658,34.17244 52.4629,6.61503 105.7857,15.26954 152.7109,39.64453 57.9155,30.08385 101.2224,81.42367 149.6016,125.22656 48.8411,44.22107 103.9605,81.46161 163.1875,110.32541 V 1200 H 0 Z"
         id="path1211"
         sodipodi:nodetypes="cssssssssssscccc"
         sodipodi:insensitive="true"
         inkscape:label="curve4" />
      <path
         id="path3244"
         style="display:inline;fill:#264d64;fill-opacity:1;stroke-width:7.281"
         inkscape:label="tile10"
         d="M 362.11133,131.28906 C 304.20788,130.08287 246.44802,143.47055 189.02344,153.0957 126.54472,163.568 63.329611,171.26645 0,172.88477 v 350.45312 c 44.526538,19.54787 112.61439,33.67742 169.11719,39.7793 50.78751,5.48465 102.03284,1.1987 153.08008,-0.70703 12.00404,-0.44815 24.06879,-0.69824 36.1289,-0.6875 0.0233,-0.0162 0.0549,-0.0327 0.0781,-0.0488 65.05073,-45.21258 124.3878,-139.72476 158.75,-179.21289 50.99888,-58.60657 118.06258,-101.85858 185.44531,-141.0293 -6.77973,-1.38662 -13.53352,-2.92288 -20.24609,-4.67773 C 633.56841,224.00012 588.11065,201.2389 542.1113,180.58206 492.51235,158.30875 441.04024,138.12349 386.93552,132.75394 c -8.27729,-0.82148 -16.5523,-1.29253 -24.82422,-1.46485 z" />
      <path
         id="path3237"
         style="display:inline;fill:#264d64;fill-opacity:1;stroke-width:7.281"
         inkscape:label="tile8"
         d="m 702.59961,241.43164 c -67.3828,39.17076 -134.44638,82.42267 -185.44531,141.0293 -34.36223,39.48817 -93.6992,134.00027 -158.75,179.21289 -0.0233,0.0162 -0.0548,0.0327 -0.0781,0.0488 39.22635,0.0349 78.43555,3.28719 115.61328,15.30273 45.30147,14.64108 85.47765,41.52649 125.01563,68.04688 22.93736,15.38538 46.24942,30.56559 70.52148,43.67968 24.59983,-29.21421 51.15671,-56.70907 82.24219,-78.71289 73.16524,-51.78991 164.50313,-69.396 253.00972,-83.60547 85.8105,-13.77657 172.8434,-25.80864 253.6973,-57.68164 13.4546,-5.30388 26.6524,-11.15562 39.6777,-17.37304 -42.6787,-19.50557 -78.549,-50.96129 -114.2969,-81.36329 -36.073,-30.67875 -73.2303,-61.06101 -116.2636,-80.82421 -65.988,-30.30502 -140.76899,-33.50739 -213.35938,-35.35743 -50.74139,-1.29317 -101.98522,-2.25823 -151.58398,-12.40234 z" />
    </g>
    <g
       id="g3303"
       inkscape:label="wave3"
       style="display:inline"
       sodipodi:insensitive="true">
      <path
         id="path9425"
         style="display:inline;fill:#276082;fill-opacity:0.406378;stroke-width:7.34984"
         d="m 1571.8516,304.53905 c -110.0312,42.8661 -203.5673,120.90617 -313.4258,164.21289 -80.8541,31.87306 -167.8866,43.90503 -253.6973,57.68164 -88.50682,14.20949 -179.84434,31.81546 -253.00972,83.60547 C 708.57352,640.57936 673.99077,681.5457 641.543,723.27538 609.09523,765.00506 578.07707,808.19481 540.14065,845.00585 469.41328,913.63515 378.34326,956.704 298.00589,1013.7852 225.70359,1065.1571 160.6234,1128.3309 108.37222,1200 711.84747,1200 1316.5247,1200 1920,1200 V 290.41235 c -42.0267,-12.21429 -88.2815,-20.29352 -156.1152,-20.86191 -67.8337,-0.56839 -132.0527,11.62131 -192.0332,34.98861 z"
         sodipodi:nodetypes="ssssssscccss"
         sodipodi:insensitive="true"
         inkscape:label="curve3" />
      <path
         id="path3157"
         style="display:inline;fill:#26536e;fill-opacity:1;stroke-width:7.34984"
         inkscape:label="tile9"
         d="m 1763.8848,269.55078 c -67.8337,-0.56839 -132.0529,11.62104 -192.0332,34.98828 -96.5552,37.6161 -180.4209,102.29143 -273.7481,146.83985 0.044,0.0203 0.087,0.0442 0.1309,0.0644 48.7121,22.22727 103.1426,27.47361 156.2656,34.17187 52.4628,6.61503 105.7858,15.26957 152.7109,39.64454 37.7711,19.61993 69.2338,48.41415 100.0371,78.1289 40.0327,-14.48427 78.8449,-32.33861 115.4825,-54.00195 34.2506,-20.25211 67.3611,-40.10944 97.2695,-66.35352 V 290.41211 c -42.0267,-12.21427 -88.2817,-20.29294 -156.1152,-20.86133 z" />
      <path
         id="path3146"
         style="display:inline;fill:#26536e;fill-opacity:1;stroke-width:7.34984"
         inkscape:label="tile6"
         d="m 1298.1211,451.38672 c -13.029,6.21945 -26.2368,12.05983 -39.6953,17.36523 -80.8537,31.87294 -167.887,43.90511 -253.6973,57.68164 -88.50642,14.20945 -179.84465,31.81566 -253.00975,83.60547 -31.08542,22.00377 -57.64237,49.49871 -82.24219,78.71289 17.56667,9.49121 35.57045,18.04523 54.61524,24.11719 42.72949,13.62328 88.25644,15.69438 133.09961,14.99024 44.84314,-0.70416 89.75076,-4.06997 134.48632,-0.88672 92.86587,6.60803 183.47927,42.21743 255.91997,100.69922 19.0697,15.39525 36.7032,32.28918 53.6425,49.91406 22.8239,-24.40105 42.2727,-52.05956 61.8203,-79.28125 25.6715,-35.74885 52.3957,-71.6002 87.3672,-98.32031 31.9117,-24.38197 69.5427,-40.22991 107.8008,-52.44141 38.2586,-12.21151 77.5259,-21.0339 115.8906,-32.90625 11.1408,-3.44758 22.1604,-7.27946 33.1289,-11.24805 -30.8032,-29.71472 -62.266,-58.50899 -100.0371,-78.1289 -46.925,-24.37495 -100.2482,-33.02951 -152.7109,-39.64454 -53.1229,-6.69825 -107.5536,-11.94462 -156.2656,-34.17187 -0.039,-0.0176 -0.075,-0.039 -0.1133,-0.0566 z" />
    </g>
    <g
       id="g3279"
       inkscape:label="wave2"
       style="display:inline"
       sodipodi:insensitive="true">
      <path
         style="display:inline;fill:#276082;fill-opacity:0.398546;stroke-width:7.281"
         d="m 0,523.33804 c 44.526673,19.54793 112.61424,33.67664 169.11719,39.77852 50.78766,5.48468 102.03269,1.19873 153.08008,-0.70703 51.04819,-1.90579 103.13402,-1.09453 151.74218,14.61524 45.30159,14.64111 85.47753,41.52642 125.01563,68.04687 39.53819,26.52051 79.77743,53.33517 125.13672,67.79688 42.72964,13.62331 88.25706,15.6944 133.10035,14.99023 44.84329,-0.70416 89.74987,-4.06997 134.48558,-0.88672 92.86617,6.60806 183.47927,42.21728 255.91997,100.69922 68.2633,55.10945 119.1165,128.38434 179.4863,192.04295 70.4011,74.2364 154.5404,135.6346 246.5928,180.2858 H 0 Z"
         id="path1216"
         sodipodi:nodetypes="csssssssssccc"
         inkscape:label="curve2"
         sodipodi:insensitive="true" />
      <path
         id="path3055"
         style="display:inline;fill:#265a78;fill-opacity:1;stroke-width:7.281"
         inkscape:label="tile5"
         d="m 0,523.33789 v 163.10352 c 97.927254,2.22425 272.27071,-64.93369 358.33008,-124.71875 -12.06141,-0.0108 -24.12746,0.2393 -36.13281,0.6875 -51.04729,1.90574 -102.29252,6.19169 -153.08008,0.70703 C 112.61434,557.01531 44.526583,542.88578 0,523.33789 Z" />
      <path
         id="path3058"
         style="display:inline;fill:#265a78;fill-opacity:0.996838;stroke-width:7.281"
         inkscape:label="tile2"
         d="m 669.47656,688.75195 c -9.54357,11.33375 -18.86398,22.85941 -27.93359,34.52344 -32.44774,41.72964 -63.46596,84.91947 -101.40235,121.73047 C 469.41333,913.63509 378.34315,956.70401 298.00586,1013.7852 225.70363,1065.157 160.62417,1128.331 108.37305,1200 H 900.625 c 17.12715,-73.9533 134.374,-164.6989 186.6973,-193.2969 64.3451,-35.16868 136.0284,-59.15238 191.3847,-107.24412 7.925,-6.88492 15.3837,-14.22949 22.5332,-21.87304 -16.9394,-17.6249 -34.5727,-34.51879 -53.6425,-49.91406 -72.4407,-58.48184 -163.054,-94.09118 -255.91997,-100.69922 -44.73561,-3.18325 -89.64313,0.18256 -134.48632,0.88672 -44.84321,0.70415 -90.37007,-1.36695 -133.09961,-14.99024 -19.04481,-6.07197 -37.04852,-14.62596 -54.61524,-24.11719 z M 900.625,1200 h 773.0527 c -0.2705,-0.1312 -0.5323,-0.2806 -0.8027,-0.4121 -252.2381,-0.5398 -518.9642,-1.4261 -772.25,0.4121 z" />
      <path
         id="path3060"
         style="display:inline;fill:#265a78;fill-opacity:1;stroke-width:7.281"
         inkscape:label="tile1"
         d="m 360.60742,561.67969 c -0.76147,-0.003 -1.51975,0.0436 -2.28125,0.043 C 272.26684,621.50773 97.927287,688.66566 0,686.44141 v 510.98049 h 110.33789 c 51.92281,-70.5919 116.24582,-132.8902 187.66797,-183.6367 80.33729,-57.08119 171.40747,-100.15011 242.13476,-168.77934 37.93639,-36.811 68.95461,-80.00083 101.40235,-121.73047 9.06961,-11.66403 18.39002,-23.18969 27.93359,-34.52344 -24.27209,-13.11411 -47.5841,-28.29428 -70.52148,-43.67968 -39.53802,-26.52041 -79.71412,-53.40579 -125.01563,-68.04688 -36.45604,-11.78231 -74.8685,-15.18515 -113.33203,-15.3457 z" />
    </g>
    <g
       id="g3284"
       inkscape:label="wave1"
       style="display:inline">
      <path
         id="path12411"
         style="display:inline;fill:#276082;fill-opacity:0.416306;stroke:none;stroke-width:7.281"
         d="m 1920,483.03317 c -29.9084,26.24412 -63.0187,46.1014 -97.2695,66.35355 -46.6761,27.599 -96.8099,49.21965 -148.6114,65.25 -38.3651,11.87239 -77.632,20.6947 -115.8906,32.90625 -38.2585,12.21154 -75.8891,28.05936 -107.8008,52.44141 -34.9719,26.72023 -61.6957,62.57134 -87.3672,98.32031 -25.6713,35.74896 -51.129,72.29007 -84.3535,101.15429 -55.3565,48.09182 -127.0394,72.07532 -191.3847,107.24412 -52.3233,28.598 -169.56982,119.3434 -186.69701,193.2969 336.46171,-2.4419 709.18311,0.2189 1019.37471,0 z"
         sodipodi:nodetypes="csssssssccc"
         sodipodi:insensitive="true"
         inkscape:label="curve1" />
      <path
         id="path2976"
         style="display:inline;fill:#276082;fill-opacity:1;stroke:none;stroke-width:7.281"
         inkscape:label="tile7"
         d="m 1920,483.0332 c -29.9084,26.2441 -63.0188,46.10139 -97.2695,66.35352 -36.6376,21.66337 -75.4498,39.51769 -115.4825,54.00195 16.4284,15.84774 32.7371,31.86197 49.5645,47.09766 48.8411,44.22102 103.9606,81.4624 163.1875,110.32617 z" />
      <path
         id="path2973"
         style="display:inline;fill:#276082;fill-opacity:1;stroke:none;stroke-width:7.281"
         inkscape:label="tile4"
         d="m 1707.3105,603.44922 c -10.9809,3.97372 -22.0379,7.73598 -33.1914,11.1875 -38.3649,11.87237 -77.632,20.69472 -115.8906,32.90625 -38.2583,12.21152 -75.8891,28.0594 -107.8008,52.44141 -34.9717,26.72017 -61.6957,62.5714 -87.3672,98.32031 -19.5478,27.22175 -38.9964,54.88018 -61.8203,79.28125 43.6978,45.46564 82.3389,96.25402 125.8438,142.12886 70.194,74.0182 154.0558,135.2551 245.791,179.8731 82.8312,0.1772 170.4439,0.4662 247.125,0.4121 V 760.8125 c -59.2269,-28.86377 -114.3464,-66.10515 -163.1875,-110.32617 -16.806,-15.21632 -33.0951,-31.20877 -49.502,-47.03711 z" />
      <path
         id="path3675"
         style="opacity:1;fill:url(#radialGradient3735);stroke-width:10.0215;stop-color:#000000"
         d="m 1797.4508,809.42773 a 397.54752,295.90946 0 0 0 -407.0239,288.18557 l -0.059,1.9394 A 397.54752,295.90946 0 0 0 1412.2672,1200 H 1920 V 826.25586 a 397.54752,295.90946 0 0 0 -122.5492,-16.82813 z"
         inkscape:label="shadow4" />
      <path
         id="path2978"
         style="display:inline;fill:#276082;fill-opacity:1;stroke:none;stroke-width:7.281"
         inkscape:label="tile3"
         d="m 1301.2402,877.58594 c -7.1495,7.64356 -14.6082,14.98811 -22.5332,21.87304 -55.3564,48.09178 -127.0395,72.07538 -191.3847,107.24412 -52.3233,28.598 -169.57013,119.3435 -186.6973,193.2969 253.2861,-1.8382 520.0116,-0.9519 772.25,-0.4121 -91.7353,-44.618 -175.5969,-105.8549 -245.791,-179.8731 -43.5049,-45.87493 -82.146,-96.66317 -125.8438,-142.12886 z" />
    </g>
  </g>
  <g
     id="layer6"
     style="display:inline"
     transform="translate(19.943614,-11.497384)"
     inkscape:label="swirl"
     sodipodi:insensitive="true">
    <g
       id="g880001"
       style="display:inline;fill:#51a1d0;fill-opacity:1"
       transform="matrix(0.98475674,0,0,0.98475674,1229.1579,591.67491)">
      <path
         i:knockout="Off"
         fill="#51a1d0"
         d="m 51.986,57.297 c -1.797,0.025 0.34,0.926 2.686,1.287 0.648,-0.506 1.236,-1.018 1.76,-1.516 -1.461,0.358 -2.948,0.366 -4.446,0.229"
         id="path879977"
         style="fill:#51a1d0;fill-opacity:1" />
      <path
         i:knockout="Off"
         fill="#51a1d0"
         d="m 61.631,54.893 c 1.07,-1.477 1.85,-3.094 2.125,-4.766 -0.24,1.192 -0.887,2.221 -1.496,3.307 -3.359,2.115 -0.316,-1.256 -0.002,-2.537 -3.612,4.546 -0.496,2.726 -0.627,3.996"
         id="path879979"
         style="fill:#51a1d0;fill-opacity:1" />
      <path
         i:knockout="Off"
         fill="#51a1d0"
         d="m 65.191,45.629 c 0.217,-3.236 -0.637,-2.213 -0.924,-0.978 0.335,0.174 0.6,2.281 0.924,0.978"
         id="path879981"
         style="fill:#51a1d0;fill-opacity:1" />
      <path
         i:knockout="Off"
         fill="#51a1d0"
         d="m 45.172,1.399 c 0.959,0.172 2.072,0.304 1.916,0.533 1.049,-0.23 1.287,-0.442 -1.916,-0.533"
         id="path879983"
         style="fill:#51a1d0;fill-opacity:1" />
      <path
         i:knockout="Off"
         fill="#51a1d0"
         d="M 47.088,1.932 46.41,2.072 47.041,2.016 47.088,1.932"
         id="path879985"
         style="fill:#51a1d0;fill-opacity:1" />
      <path
         i:knockout="Off"
         fill="#51a1d0"
         d="m 76.992,46.856 c 0.107,2.906 -0.85,4.316 -1.713,6.812 l -1.553,0.776 c -1.271,2.468 0.123,1.567 -0.787,3.53 -1.984,1.764 -6.021,5.52 -7.313,5.863 -0.943,-0.021 0.639,-1.113 0.846,-1.541 -2.656,1.824 -2.131,2.738 -6.193,3.846 L 60.16,65.878 C 50.142,70.591 36.226,61.251 36.409,48.507 c -0.107,0.809 -0.304,0.607 -0.526,0.934 -0.517,-6.557 3.028,-13.143 9.007,-15.832 5.848,-2.895 12.704,-1.707 16.893,2.197 -2.301,-3.014 -6.881,-6.209 -12.309,-5.91 -5.317,0.084 -10.291,3.463 -11.951,7.131 -2.724,1.715 -3.04,6.611 -4.227,7.507 -1.597,11.737 3.004,16.808 10.787,22.773 1.225,0.826 0.345,0.951 0.511,1.58 -2.586,-1.211 -4.954,-3.039 -6.901,-5.277 1.033,1.512 2.148,2.982 3.589,4.137 -2.438,-0.826 -5.695,-5.908 -6.646,-6.115 4.203,7.525 17.052,13.197 23.78,10.383 -3.113,0.115 -7.068,0.064 -10.566,-1.229 -1.469,-0.756 -3.467,-2.322 -3.11,-2.615 9.182,3.43 18.667,2.598 26.612,-3.771 2.021,-1.574 4.229,-4.252 4.867,-4.289 -0.961,1.445 0.164,0.695 -0.574,1.971 2.014,-3.248 -0.875,-1.322 2.082,-5.609 l 1.092,1.504 c -0.406,-2.696 3.348,-5.97 2.967,-10.234 0.861,-1.304 0.961,1.403 0.047,4.403 1.268,-3.328 0.334,-3.863 0.66,-6.609 0.352,0.923 0.814,1.904 1.051,2.878 -0.826,-3.216 0.848,-5.416 1.262,-7.285 -0.408,-0.181 -1.275,1.422 -1.473,-2.377 0.029,-1.65 0.459,-0.865 0.625,-1.271 -0.324,-0.186 -1.174,-1.451 -1.691,-3.877 0.375,-0.57 1.002,1.478 1.512,1.562 -0.328,-1.929 -0.893,-3.4 -0.916,-4.88 -1.49,-3.114 -0.527,0.415 -1.736,-1.337 -1.586,-4.947 1.316,-1.148 1.512,-3.396 2.404,3.483 3.775,8.881 4.404,11.117 -0.48,-2.726 -1.256,-5.367 -2.203,-7.922 0.73,0.307 -1.176,-5.609 0.949,-1.691 C 83.519,18.706 76.074,10.902 69.225,7.24 70.063,8.007 71.121,8.97 70.741,9.121 67.335,7.093 67.934,6.935 67.446,6.078 64.671,4.949 64.489,6.169 62.651,6.08 57.421,3.306 56.413,3.601 51.6,1.863 l 0.219,1.023 c -3.465,-1.154 -4.037,0.438 -7.782,0.004 -0.228,-0.178 1.2,-0.644 2.375,-0.815 -3.35,0.442 -3.193,-0.66 -6.471,0.122 0.808,-0.567 1.662,-0.942 2.524,-1.424 -2.732,0.166 -6.522,1.59 -5.352,0.295 -4.456,1.988 -12.37,4.779 -16.811,8.943 l -0.14,-0.933 c -2.035,2.443 -8.874,7.296 -9.419,10.46 l -0.544,0.127 c -1.059,1.793 -1.744,3.825 -2.584,5.67 -1.385,2.36 -2.03,0.908 -1.833,1.278 -2.724,5.523 -4.077,10.164 -5.246,13.97 0.833,1.245 0.02,7.495 0.335,12.497 -1.368,24.704 17.338,48.69 37.785,54.228 2.997,1.072 7.454,1.031 11.245,1.141 -4.473,-1.279 -5.051,-0.678 -9.408,-2.197 -3.143,-1.48 -3.832,-3.17 -6.058,-5.102 l 0.881,1.557 c -4.366,-1.545 -2.539,-1.912 -6.091,-3.037 l 0.941,-1.229 C 28.751,98.334 26.418,96.056 25.78,94.795 l -1.548,0.061 c -1.86,-2.295 -2.851,-3.949 -2.779,-5.23 l -0.5,0.891 c -0.567,-0.973 -6.843,-8.607 -3.587,-6.83 -0.605,-0.553 -1.409,-0.9 -2.281,-2.484 l 0.663,-0.758 c -1.567,-2.016 -2.884,-4.6 -2.784,-5.461 0.836,1.129 1.416,1.34 1.99,1.533 -3.957,-9.818 -4.179,-0.541 -7.176,-9.994 L 8.412,66.472 C 7.926,65.74 7.631,64.945 7.24,64.165 l 0.276,-2.75 C 4.667,58.121 6.719,47.409 7.13,41.534 7.415,39.145 9.508,36.602 11.1,32.614 l -0.97,-0.167 c 1.854,-3.234 10.586,-12.988 14.63,-12.486 1.959,-2.461 -0.389,-0.009 -0.772,-0.629 4.303,-4.453 5.656,-3.146 8.56,-3.947 3.132,-1.859 -2.688,0.725 -1.203,-0.709 5.414,-1.383 3.837,-3.144 10.9,-3.846 0.745,0.424 -1.729,0.655 -2.35,1.205 4.511,-2.207 14.275,-1.705 20.617,1.225 7.359,3.439 15.627,13.605 15.953,23.17 l 0.371,0.1 c -0.188,3.802 0.582,8.199 -0.752,12.238 l 0.908,-1.912"
         id="path879987"
         style="fill:#51a1d0;fill-opacity:1" />
      <path
         i:knockout="Off"
         fill="#51a1d0"
         d="m 32.372,59.764 -0.252,1.26 c 1.181,1.604 2.118,3.342 3.626,4.596 -1.085,-2.118 -1.891,-2.993 -3.374,-5.856"
         id="path879989"
         style="fill:#51a1d0;fill-opacity:1" />
      <path
         i:knockout="Off"
         fill="#51a1d0"
         d="m 35.164,59.654 c -0.625,-0.691 -0.995,-1.523 -1.409,-2.352 0.396,1.457 1.207,2.709 1.962,3.982 l -0.553,-1.63"
         id="path879991"
         style="fill:#51a1d0;fill-opacity:1" />
      <path
         i:knockout="Off"
         fill="#51a1d0"
         d="m 84.568,48.916 -0.264,0.662 c -0.484,3.438 -1.529,6.84 -3.131,9.994 1.77,-3.328 2.915,-6.968 3.395,-10.656"
         id="path879993"
         style="fill:#51a1d0;fill-opacity:1" />
      <path
         i:knockout="Off"
         fill="#51a1d0"
         d="M 45.527,0.537 C 46.742,0.092 48.514,0.293 49.803,0 48.123,0.141 46.451,0.225 44.8,0.438 l 0.727,0.099"
         id="path879995"
         style="fill:#51a1d0;fill-opacity:1" />
      <path
         i:knockout="Off"
         fill="#51a1d0"
         d="m 2.872,23.219 c 0.28,2.592 -1.95,3.598 0.494,1.889 1.31,-2.951 -0.512,-0.815 -0.494,-1.889"
         id="path879997"
         style="fill:#51a1d0;fill-opacity:1" />
      <path
         i:knockout="Off"
         fill="#51a1d0"
         d="M 0,35.215 C 0.563,33.487 0.665,32.449 0.88,31.449 -0.676,33.438 0.164,33.862 0,35.215"
         id="path879999"
         style="fill:#51a1d0;fill-opacity:1" />
    </g>
  </g>
  <g
     inkscape:label="center_align"
     inkscape:groupmode="layer"
     id="layer1"
     style="display:inline"
     sodipodi:insensitive="true">
    <path
       id="rect1993"
       style="display:none;fill:#3b3b49;fill-opacity:1;fill-rule:evenodd"
       d="M -454.04297,-430.60938 V 1630.6094 H 2374.043 V -430.60938 Z M 0,60 H 1920 V 1140 H 0 Z"
       sodipodi:insensitive="true" />
    <path
       id="rect1995"
       style="display:none;fill:#3b3b49;fill-opacity:1;fill-rule:evenodd"
       d="M -454.04297,-430.60938 V 1630.6094 H 2374.043 V -430.60938 Z M 160,0 H 1760 V 1200 H 160 Z"
       sodipodi:insensitive="true" />
    <path
       id="rect1997"
       style="display:none;fill:#3b3b49;fill-opacity:1;fill-rule:evenodd"
       d="M -454.04297,-430.60938 V 1630.6094 H 2374.043 V -430.60938 Z M 320,88 H 1600 V 1112 H 320 Z"
       sodipodi:insensitive="true" />
    <path
       id="rect1999"
       style="display:none;fill:#3b3b49;fill-opacity:1;fill-rule:evenodd"
       d="M -454.04297,-430.60938 V 1630.6094 H 2374.043 V -430.60938 Z M 0,0 H 1920 V 1200 H 0 Z"
       sodipodi:insensitive="true" />
    <path
       id="path796"
       style="display:inline;fill:#3b3b49;fill-opacity:1;fill-rule:evenodd"
       d="M -454.04297,-430.60938 V 1630.6094 H 2374.043 V -430.60938 Z M 210,0 H 1710 V 1200 H 210 Z"
       sodipodi:insensitive="true" />
  </g>
</svg>
