<?xml version="1.0" encoding="UTF-8" standalone="no"?>
<!-- Created with Inkscape (http://www.inkscape.org/) -->

<svg
   width="1920"
   height="1200"
   viewBox="0 0 1920 1200"
   version="1.1"
   id="svg5"
   xml:space="preserve"
   xmlns:xlink="http://www.w3.org/1999/xlink"
   xmlns="http://www.w3.org/2000/svg"
   xmlns:svg="http://www.w3.org/2000/svg"
   xmlns:i="http://ns.adobe.com/AdobeIllustrator/10.0/"><defs
     id="defs2"><linearGradient
       id="linearGradient1525"><stop
         style="stop-color:#263a47;stop-opacity:0.33335441;"
         offset="0.80377918"
         id="stop1521" /><stop
         style="stop-color:#263a47;stop-opacity:0;"
         offset="0.9543764"
         id="stop1523" /></linearGradient><linearGradient
       id="linearGradient2612"><stop
         style="stop-color:#265a78;stop-opacity:0.47133476;"
         offset="0.11022757"
         id="stop2608" /><stop
         style="stop-color:#265a78;stop-opacity:0;"
         offset="0.84212512"
         id="stop2610" /></linearGradient><linearGradient
       id="linearGradient8357"><stop
         style="stop-color:#265a78;stop-opacity:1;"
         offset="0.56693691"
         id="stop8353" /><stop
         style="stop-color:#265a78;stop-opacity:0;"
         offset="1"
         id="stop8355" /></linearGradient><linearGradient
       id="linearGradient7985"><stop
         style="stop-color:#276082;stop-opacity:0;"
         offset="0.42959514"
         id="stop7983" /><stop
         style="stop-color:#27526b;stop-opacity:0.58999997;"
         offset="1"
         id="stop7981" /></linearGradient><linearGradient
       id="linearGradient7607"><stop
         style="stop-color:#254151;stop-opacity:0.767115;"
         offset="0.76550895"
         id="stop7603" /><stop
         style="stop-color:#254151;stop-opacity:0;"
         offset="1"
         id="stop7605" /></linearGradient><linearGradient
       id="linearGradient7367"><stop
         style="stop-color:#254151;stop-opacity:0;"
         offset="0.83138704"
         id="stop7365" /><stop
         style="stop-color:#254151;stop-opacity:0.63815278;"
         offset="1"
         id="stop7363" /></linearGradient><linearGradient
       id="linearGradient7346"><stop
         style="stop-color:#254151;stop-opacity:0.55286539;"
         offset="0.55638915"
         id="stop7342" /><stop
         style="stop-color:#254151;stop-opacity:0;"
         offset="1"
         id="stop7344" /></linearGradient><linearGradient
       id="linearGradient3498"><stop
         style="stop-color:#254151;stop-opacity:0;"
         offset="0.78503168"
         id="stop3496" /><stop
         style="stop-color:#254151;stop-opacity:1;"
         offset="1"
         id="stop3494" /></linearGradient><linearGradient
       id="linearGradient2964"><stop
         style="stop-color:#254151;stop-opacity:1;"
         offset="0"
         id="stop2960" /><stop
         style="stop-color:#254151;stop-opacity:0;"
         offset="1"
         id="stop2962" /></linearGradient><linearGradient
       id="linearGradient1979"><stop
         style="stop-color:#26475b;stop-opacity:0;"
         offset="0"
         id="stop1977" /><stop
         style="stop-color:#26475b;stop-opacity:1;"
         offset="0.67915493"
         id="stop1975" /></linearGradient><linearGradient
       id="linearGradient1969"><stop
         style="stop-color:#264d64;stop-opacity:0;"
         offset="0.3990624"
         id="stop1967" /><stop
         style="stop-color:#264d64;stop-opacity:1;"
         offset="0.84475249"
         id="stop1965" /></linearGradient><linearGradient
       id="linearGradient1227"><stop
         style="stop-color:#265a78;stop-opacity:0;"
         offset="0"
         id="stop1225" /><stop
         style="stop-color:#265a78;stop-opacity:0.74117647;"
         offset="0.2823306"
         id="stop6006" /><stop
         style="stop-color:#265a78;stop-opacity:0.8;"
         offset="0.40626076"
         id="stop1233" /><stop
         style="stop-color:#265a78;stop-opacity:1;"
         offset="0.70748854"
         id="stop1223" /></linearGradient><linearGradient
       id="linearGradient1795"><stop
         style="stop-color:#264d64;stop-opacity:0.26642156;"
         offset="0.526968"
         id="stop1791" /><stop
         style="stop-color:#264d64;stop-opacity:1;"
         offset="0.82043171"
         id="stop1793" /></linearGradient><linearGradient
       id="linearGradient1319"><stop
         style="stop-color:#276082;stop-opacity:0.39800748;"
         offset="0.30125529"
         id="stop1221" /><stop
         style="stop-color:#276082;stop-opacity:0.75777662;"
         offset="0.52131933"
         id="stop1317" /><stop
         style="stop-color:#276082;stop-opacity:1;"
         offset="0.68381566"
         id="stop1315" /></linearGradient><linearGradient
       id="linearGradient1311"><stop
         style="stop-color:#265a78;stop-opacity:0.64058191;"
         offset="0.45972198"
         id="stop1307" /><stop
         style="stop-color:#265a78;stop-opacity:1;"
         offset="0.74595678"
         id="stop1309" /></linearGradient><linearGradient
       id="linearGradient1287"><stop
         style="stop-color:#26536e;stop-opacity:0.66000003;"
         offset="0.50468224"
         id="stop1285" /><stop
         style="stop-color:#26536e;stop-opacity:1;"
         offset="0.92302817"
         id="stop1283" /><stop
         style="stop-color:#26536e;stop-opacity:0.59372801;"
         offset="1"
         id="stop1950" /></linearGradient><linearGradient
       id="linearGradient1271"><stop
         style="stop-color:#264d64;stop-opacity:0.79451448;"
         offset="0.596416"
         id="stop1267" /><stop
         style="stop-color:#264d64;stop-opacity:1;"
         offset="0.82318109"
         id="stop1269" /></linearGradient><linearGradient
       id="linearGradient2863"><stop
         style="stop-color:#265a78;stop-opacity:0.88;"
         offset="0"
         id="stop2859" /><stop
         style="stop-color:#265a78;stop-opacity:1;"
         offset="0.24582241"
         id="stop2861" /></linearGradient><linearGradient
       id="linearGradient2857"><stop
         style="stop-color:#265a78;stop-opacity:0.92000002;"
         offset="0"
         id="stop2853" /><stop
         style="stop-color:#265a78;stop-opacity:1;"
         offset="0.24582241"
         id="stop2855" /></linearGradient><linearGradient
       id="linearGradient2851"><stop
         style="stop-color:#265a78;stop-opacity:0.95999998;"
         offset="0"
         id="stop2847" /><stop
         style="stop-color:#265a78;stop-opacity:1;"
         offset="0.24582241"
         id="stop2849" /></linearGradient><linearGradient
       id="linearGradient2031"><stop
         style="stop-color:#264d64;stop-opacity:0.83999997;"
         offset="0.19950303"
         id="stop2027" /><stop
         style="stop-color:#264d64;stop-opacity:0.99000001;"
         offset="0.45128444"
         id="stop2029" /></linearGradient><linearGradient
       id="linearGradient2025"><stop
         style="stop-color:#264d64;stop-opacity:0.88;"
         offset="0.20241019"
         id="stop2021" /><stop
         style="stop-color:#264d64;stop-opacity:0.99000001;"
         offset="0.45128444"
         id="stop2023" /></linearGradient><linearGradient
       id="linearGradient2019"><stop
         style="stop-color:#264d64;stop-opacity:0.92000002;"
         offset="0.19568871"
         id="stop2015" /><stop
         style="stop-color:#264d64;stop-opacity:0.99000001;"
         offset="0.45128444"
         id="stop2017" /></linearGradient><linearGradient
       id="linearGradient13605"><stop
         style="stop-color:#264d64;stop-opacity:0.95999998;"
         offset="0.19971497"
         id="stop13601" /><stop
         style="stop-color:#264d64;stop-opacity:0.99000001;"
         offset="0.45128444"
         id="stop13603" /></linearGradient><linearGradient
       id="linearGradient13597"><stop
         style="stop-color:#264d64;stop-opacity:0.80000001;"
         offset="0.19980925"
         id="stop13593" /><stop
         style="stop-color:#264d64;stop-opacity:0.97000003;"
         offset="0.45180532"
         id="stop13595" /></linearGradient><linearGradient
       id="linearGradient13589"><stop
         style="stop-color:#264d64;stop-opacity:0.75999999;"
         offset="0.20148337"
         id="stop13585" /><stop
         style="stop-color:#264d64;stop-opacity:0.95999998;"
         offset="0.45282581"
         id="stop13587" /></linearGradient><linearGradient
       id="linearGradient13581"><stop
         style="stop-color:#264d64;stop-opacity:0.72000003;"
         offset="0.20001823"
         id="stop13577" /><stop
         style="stop-color:#264d64;stop-opacity:0.94999999;"
         offset="0.44871116"
         id="stop13579" /></linearGradient><linearGradient
       id="linearGradient12656"><stop
         style="stop-color:#276082;stop-opacity:1;"
         offset="0.84502661"
         id="stop13554" /><stop
         style="stop-color:#276082;stop-opacity:0.75777662;"
         offset="0.99940705"
         id="stop13556" /></linearGradient><linearGradient
       id="linearGradient12648"><stop
         style="stop-color:#265e7f;stop-opacity:1;"
         offset="0"
         id="stop12646" /><stop
         style="stop-color:#276082;stop-opacity:1;"
         offset="0.34994966"
         id="stop12644" /><stop
         style="stop-color:#276082;stop-opacity:1;"
         offset="0.85264051"
         id="stop13562" /><stop
         style="stop-color:#276082;stop-opacity:0.95999998;"
         offset="1"
         id="stop13564" /></linearGradient><linearGradient
       id="linearGradient12640"><stop
         style="stop-color:#265e7f;stop-opacity:0.92000002;"
         offset="0"
         id="stop12638" /><stop
         style="stop-color:#276082;stop-opacity:1;"
         offset="0.35348684"
         id="stop12636" /><stop
         style="stop-color:#276082;stop-opacity:1;"
         offset="0.8476584"
         id="stop13558" /><stop
         style="stop-color:#276082;stop-opacity:0.85000002;"
         offset="1"
         id="stop13560" /></linearGradient><linearGradient
       id="linearGradient12241"><stop
         style="stop-color:#265a78;stop-opacity:0.83999997;"
         offset="0"
         id="stop12239" /><stop
         style="stop-color:#265a78;stop-opacity:1;"
         offset="0.24582241"
         id="stop12237" /></linearGradient><linearGradient
       id="linearGradient12231"><stop
         style="stop-color:#265a78;stop-opacity:0.80000001;"
         offset="0"
         id="stop12229" /><stop
         style="stop-color:#265a78;stop-opacity:1;"
         offset="0.24852315"
         id="stop12227" /></linearGradient><linearGradient
       id="linearGradient12221"><stop
         style="stop-color:#265a78;stop-opacity:0.75999999;"
         offset="0.00097245"
         id="stop12219" /><stop
         style="stop-color:#265a78;stop-opacity:1;"
         offset="0.24779135"
         id="stop12217" /></linearGradient><linearGradient
       id="linearGradient10904"><stop
         style="stop-color:#26536e;stop-opacity:0.95999998;"
         offset="0"
         id="stop13370" /><stop
         style="stop-color:#26536e;stop-opacity:1;"
         offset="0.43724015"
         id="stop13368" /><stop
         style="stop-color:#26536e;stop-opacity:1;"
         offset="0.86353546"
         id="stop10900" /><stop
         style="stop-color:#26536e;stop-opacity:0.97000003;"
         offset="0.99957526"
         id="stop10902" /></linearGradient><linearGradient
       id="linearGradient10891"><stop
         style="stop-color:#26536e;stop-opacity:0.89999998;"
         offset="0.00538627"
         id="stop13372" /><stop
         style="stop-color:#26536e;stop-opacity:1;"
         offset="0.38196439"
         id="stop13366" /><stop
         style="stop-color:#26536e;stop-opacity:1;"
         offset="0.86029023"
         id="stop10887" /><stop
         style="stop-color:#26536e;stop-opacity:0.89999998;"
         offset="1"
         id="stop10889" /></linearGradient><linearGradient
       id="linearGradient5205"><stop
         style="stop-color:#264d64;stop-opacity:1;"
         offset="0.21939194"
         id="stop5201" /><stop
         style="stop-color:#264d64;stop-opacity:0;"
         offset="0.88213038"
         id="stop5203" /></linearGradient><linearGradient
       id="linearGradient4998"><stop
         style="stop-color:#27678d;stop-opacity:0.41074234;"
         offset="0"
         id="stop4994" /><stop
         style="stop-color:#27678d;stop-opacity:0;"
         offset="0.79514837"
         id="stop4996" /></linearGradient><linearGradient
       id="linearGradient4887"><stop
         style="stop-color:#2e7199;stop-opacity:1;"
         offset="0.11666333"
         id="stop4883" /><stop
         style="stop-color:#265a78;stop-opacity:0;"
         offset="1"
         id="stop4885" /></linearGradient><linearGradient
       id="linearGradient4697"><stop
         style="stop-color:#2e7ba8;stop-opacity:0.88999999;"
         offset="0.19623682"
         id="stop4693" /><stop
         style="stop-color:#27678d;stop-opacity:0;"
         offset="0.81461072"
         id="stop4695" /></linearGradient><linearGradient
       id="linearGradient4622"><stop
         style="stop-color:#3590c5;stop-opacity:1;"
         offset="0.18425879"
         id="stop4618" /><stop
         style="stop-color:#27678d;stop-opacity:0;"
         offset="1"
         id="stop4620" /></linearGradient><linearGradient
       id="linearGradient3744"><stop
         style="stop-color:#276082;stop-opacity:0;"
         offset="0.37055299"
         id="stop3742" /><stop
         style="stop-color:#276082;stop-opacity:1;"
         offset="1"
         id="stop3740" /></linearGradient><linearGradient
       id="linearGradient3734"><stop
         style="stop-color:#265a78;stop-opacity:0;"
         offset="0.20029873"
         id="stop3732" /><stop
         style="stop-color:#265a78;stop-opacity:1;"
         offset="1"
         id="stop3730" /></linearGradient><linearGradient
       id="linearGradient3724"><stop
         style="stop-color:#26536e;stop-opacity:0;"
         offset="0.72692394"
         id="stop3722" /><stop
         style="stop-color:#26536e;stop-opacity:1;"
         offset="1"
         id="stop3720" /></linearGradient><linearGradient
       id="linearGradient3714"><stop
         style="stop-color:#264d64;stop-opacity:0;"
         offset="0.81924415"
         id="stop3712" /><stop
         style="stop-color:#264d64;stop-opacity:1;"
         offset="1"
         id="stop3710" /></linearGradient><linearGradient
       id="linearGradient3704"><stop
         style="stop-color:#26475b;stop-opacity:0;"
         offset="0.69804424"
         id="stop3702" /><stop
         style="stop-color:#26475b;stop-opacity:1;"
         offset="1"
         id="stop3700" /></linearGradient><radialGradient
       xlink:href="#linearGradient3704"
       id="radialGradient3706"
       cx="2007.3448"
       cy="1737.1503"
       fx="2007.3448"
       fy="1737.1503"
       r="960"
       gradientTransform="matrix(0.00723467,-1.3372591,2.3898301,0.01292916,-2158.6725,4008.6)"
       gradientUnits="userSpaceOnUse" /><radialGradient
       xlink:href="#linearGradient3714"
       id="radialGradient3716"
       cx="-55.602444"
       cy="1782.1582"
       fx="-55.602444"
       fy="1782.1582"
       r="960.29187"
       gradientTransform="matrix(2.05918,0.02715482,-0.01296202,0.98292472,81.99338,-430.96247)"
       gradientUnits="userSpaceOnUse" /><radialGradient
       xlink:href="#linearGradient3724"
       id="radialGradient3726"
       cx="1903.3966"
       cy="1837.443"
       fx="1903.3966"
       fy="1837.443"
       r="905.96039"
       gradientTransform="matrix(4.1816944e-4,-0.99999991,1.9569881,8.183527e-4,-1647.0816,3219.8482)"
       gradientUnits="userSpaceOnUse" /><radialGradient
       xlink:href="#linearGradient3734"
       id="radialGradient3736"
       cx="-63.3279"
       cy="1895.5513"
       fx="-63.3279"
       fy="1895.5513"
       r="851.67627"
       gradientTransform="matrix(1.7670923,0.01726974,-0.00680528,0.69633754,61.478115,-5.3392463)"
       gradientUnits="userSpaceOnUse" /><radialGradient
       xlink:href="#linearGradient3744"
       id="radialGradient3746"
       cx="2002.5957"
       cy="1425.4607"
       fx="2002.5957"
       fy="1425.4607"
       r="513.49005"
       gradientTransform="matrix(-0.0012629,-1.1197073,1.4443859,-0.00162911,-53.790451,3537.0539)"
       gradientUnits="userSpaceOnUse" /><radialGradient
       xlink:href="#linearGradient4622"
       id="radialGradient4624"
       cx="1233.2423"
       cy="676.07361"
       fx="1233.2423"
       fy="676.07361"
       r="339.73563"
       gradientTransform="matrix(0.95342772,0.10220655,-0.12062685,1.1252604,329.35029,-918.25569)"
       gradientUnits="userSpaceOnUse" /><radialGradient
       xlink:href="#linearGradient4697"
       id="radialGradient4682"
       gradientUnits="userSpaceOnUse"
       gradientTransform="matrix(1.0258111,0.00730851,-0.06137239,2.2434326,-1544.49,-322.59569)"
       cx="1188.8241"
       cy="768.38495"
       fx="1188.8241"
       fy="768.38495"
       r="339.73563" /><radialGradient
       xlink:href="#linearGradient4887"
       id="radialGradient4889"
       cx="1284.9818"
       cy="-772.8031"
       fx="1284.9818"
       fy="-772.8031"
       r="254.67998"
       gradientTransform="matrix(1.6216229,0.21540464,-0.10196847,1.6519425,-877.57569,219.44249)"
       gradientUnits="userSpaceOnUse" /><radialGradient
       xlink:href="#linearGradient4998"
       id="radialGradient4992"
       gradientUnits="userSpaceOnUse"
       gradientTransform="matrix(1,0,0,1.1945667,-28.878962,-729.58884)"
       cx="1216.8583"
       cy="698.47076"
       fx="1216.8583"
       fy="698.47076"
       r="339.73563" /><radialGradient
       xlink:href="#linearGradient5205"
       id="radialGradient5207"
       cx="1279.6924"
       cy="835.54907"
       fx="1279.6924"
       fy="835.54907"
       r="321.97171"
       gradientTransform="matrix(1.3996605,-1.4394784,1.1781747,1.1455847,-1495.8652,1532.7701)"
       gradientUnits="userSpaceOnUse" /><linearGradient
       xlink:href="#linearGradient10891"
       id="linearGradient10893"
       x1="108.0625"
       y1="733.04877"
       x2="1919.9824"
       y2="733.04877"
       gradientUnits="userSpaceOnUse" /><linearGradient
       xlink:href="#linearGradient10904"
       id="linearGradient10898"
       gradientUnits="userSpaceOnUse"
       x1="108.0625"
       y1="733.04877"
       x2="1919.9824"
       y2="733.04877"
       gradientTransform="translate(0,14)" /><linearGradient
       xlink:href="#linearGradient12221"
       id="linearGradient12223"
       x1="-3.9511719"
       y1="853.08008"
       x2="1699.4023"
       y2="853.08008"
       gradientUnits="userSpaceOnUse" /><linearGradient
       xlink:href="#linearGradient12231"
       id="linearGradient12233"
       x1="-3.9511719"
       y1="859.08014"
       x2="1699.4023"
       y2="859.08014"
       gradientUnits="userSpaceOnUse" /><linearGradient
       xlink:href="#linearGradient2863"
       id="linearGradient12243"
       x1="-3.9511719"
       y1="863.08014"
       x2="1699.4023"
       y2="863.08014"
       gradientUnits="userSpaceOnUse"
       gradientTransform="translate(0,2)" /><linearGradient
       xlink:href="#linearGradient12640"
       id="linearGradient12642"
       x1="890.26758"
       y1="839.41797"
       x2="1917.248"
       y2="839.41797"
       gradientUnits="userSpaceOnUse"
       gradientTransform="translate(0,12)" /><linearGradient
       xlink:href="#linearGradient12648"
       id="linearGradient12650"
       x1="890.26758"
       y1="839.41797"
       x2="1917.248"
       y2="839.41797"
       gradientUnits="userSpaceOnUse"
       gradientTransform="translate(0,22)" /><linearGradient
       xlink:href="#linearGradient12656"
       id="linearGradient12658"
       x1="890.26758"
       y1="839.41797"
       x2="1917.248"
       y2="839.41797"
       gradientUnits="userSpaceOnUse" /><linearGradient
       xlink:href="#linearGradient13581"
       id="linearGradient13583"
       x1="0"
       y1="447.34152"
       x2="1920.584"
       y2="447.34152"
       gradientUnits="userSpaceOnUse" /><linearGradient
       xlink:href="#linearGradient13589"
       id="linearGradient13591"
       x1="0"
       y1="455.34348"
       x2="1920.5881"
       y2="455.34348"
       gradientUnits="userSpaceOnUse" /><linearGradient
       xlink:href="#linearGradient13597"
       id="linearGradient13599"
       x1="0"
       y1="459.34348"
       x2="1920.5881"
       y2="459.34348"
       gradientUnits="userSpaceOnUse" /><linearGradient
       xlink:href="#linearGradient2031"
       id="linearGradient13607"
       x1="0"
       y1="463.34348"
       x2="1920.5881"
       y2="463.34348"
       gradientUnits="userSpaceOnUse" /><linearGradient
       xlink:href="#linearGradient2025"
       id="linearGradient2000"
       gradientUnits="userSpaceOnUse"
       x1="0"
       y1="463.34348"
       x2="1920.5881"
       y2="463.34348"
       gradientTransform="translate(0,4)" /><linearGradient
       xlink:href="#linearGradient2019"
       id="linearGradient2004"
       gradientUnits="userSpaceOnUse"
       gradientTransform="translate(0,8)"
       x1="0"
       y1="463.34348"
       x2="1920.5881"
       y2="463.34348" /><linearGradient
       xlink:href="#linearGradient13605"
       id="linearGradient2008"
       gradientUnits="userSpaceOnUse"
       gradientTransform="translate(0,12)"
       x1="0"
       y1="463.34348"
       x2="1920.5881"
       y2="463.34348" /><linearGradient
       xlink:href="#linearGradient2857"
       id="linearGradient2831"
       gradientUnits="userSpaceOnUse"
       x1="-3.9511719"
       y1="863.08014"
       x2="1699.4023"
       y2="863.08014"
       gradientTransform="translate(0,10.852246)" /><linearGradient
       xlink:href="#linearGradient12241"
       id="linearGradient2833"
       gradientUnits="userSpaceOnUse"
       x1="-3.9511719"
       y1="863.08014"
       x2="1699.4023"
       y2="863.08014" /><linearGradient
       xlink:href="#linearGradient2851"
       id="linearGradient2835"
       gradientUnits="userSpaceOnUse"
       x1="-3.9511719"
       y1="863.08014"
       x2="1699.4023"
       y2="863.08014"
       gradientTransform="translate(0,14.85225)" /><radialGradient
       xlink:href="#linearGradient1287"
       id="radialGradient1277"
       cx="1920"
       cy="1637.262"
       fx="1920"
       fy="1637.262"
       r="905.21289"
       gradientTransform="matrix(-2.774444e-7,-1.1790959,2.1210483,-8.3539203e-7,-1552.7109,3461.8656)"
       gradientUnits="userSpaceOnUse" /><radialGradient
       xlink:href="#linearGradient1319"
       id="radialGradient1313"
       cx="1918"
       cy="1346.5209"
       fx="1918"
       fy="1346.5209"
       r="512.86133"
       gradientTransform="matrix(-3.4072807e-8,-1.3994197,1.9880536,-8.2990613e-8,-758.95561,3879.2348)"
       gradientUnits="userSpaceOnUse" /><radialGradient
       xlink:href="#linearGradient1227"
       id="radialGradient1229"
       cx="-121.22272"
       cy="1900.0312"
       fx="-121.22272"
       fy="1900.0312"
       r="836.7174"
       gradientTransform="matrix(2.1892912,0.00324714,-0.00136469,0.92009846,146.76207,-457.35746)"
       gradientUnits="userSpaceOnUse" /><radialGradient
       xlink:href="#linearGradient1969"
       id="radialGradient1971"
       cx="-77.91774"
       cy="1715.4058"
       fx="-77.91774"
       fy="1715.4058"
       r="960"
       gradientTransform="matrix(2.0799855,0.01033745,-0.00548579,1.1037896,93.560381,-644.80543)"
       gradientUnits="userSpaceOnUse" /><radialGradient
       xlink:href="#linearGradient1979"
       id="radialGradient1981"
       cx="1944.4332"
       cy="1630.2191"
       fx="1944.4332"
       fy="1630.2191"
       r="960"
       gradientTransform="matrix(-0.00516515,-1.354402,2.066879,-0.00788226,-1414.9895,3890.2809)"
       gradientUnits="userSpaceOnUse" /><radialGradient
       xlink:href="#linearGradient2964"
       id="radialGradient2966"
       cx="912.94761"
       cy="406.85361"
       fx="912.94761"
       fy="406.85361"
       r="396.45602"
       gradientTransform="matrix(1.2212338,0,0,0.25345753,-220.8171,282.91683)"
       gradientUnits="userSpaceOnUse" /><radialGradient
       xlink:href="#linearGradient3498"
       id="radialGradient3500"
       cx="403.8304"
       cy="400.25317"
       fx="403.8304"
       fy="400.25317"
       r="635.30608"
       gradientTransform="matrix(1,0,0,0.57139422,1.7509088,202.48553)"
       gradientUnits="userSpaceOnUse" /><radialGradient
       xlink:href="#linearGradient7346"
       id="radialGradient7348"
       cx="146.47547"
       cy="401.29343"
       fx="146.47547"
       fy="401.29343"
       r="520.06819"
       gradientTransform="matrix(1,0,0,0.32715833,10.587921,271.32127)"
       gradientUnits="userSpaceOnUse" /><radialGradient
       xlink:href="#linearGradient7367"
       id="radialGradient7369"
       cx="1781.9108"
       cy="393.60242"
       fx="1781.9108"
       fy="393.60242"
       r="379.07705"
       gradientTransform="matrix(1,0,0,0.67724402,-89.594489,221.84064)"
       gradientUnits="userSpaceOnUse" /><radialGradient
       xlink:href="#linearGradient7607"
       id="radialGradient7609"
       cx="1394.0477"
       cy="1147.4489"
       fx="1394.0477"
       fy="1147.4489"
       r="411.04011"
       gradientTransform="matrix(1,0,0,0.39549773,0,693.63544)"
       gradientUnits="userSpaceOnUse" /><radialGradient
       xlink:href="#linearGradient7985"
       id="radialGradient7987"
       cx="1008.8612"
       cy="1191.5876"
       fx="1008.8612"
       fy="1191.5876"
       r="122.27389"
       gradientTransform="matrix(1,0,0,1.7384634,0,-879.94383)"
       gradientUnits="userSpaceOnUse" /><radialGradient
       xlink:href="#linearGradient8357"
       id="radialGradient8359"
       cx="378.09307"
       cy="614.90186"
       fx="378.09307"
       fy="614.90186"
       r="164.73832"
       gradientTransform="matrix(1.1936265,0,0,0.28888209,-275.93944,465.73337)"
       gradientUnits="userSpaceOnUse" /><radialGradient
       xlink:href="#linearGradient2612"
       id="radialGradient2614"
       cx="1234.4191"
       cy="1753.9026"
       fx="1234.4191"
       fy="1753.9026"
       r="241.78418"
       gradientTransform="matrix(-1.9171341,-0.2821657,0.1174928,-0.79828822,3390.1617,2033.2763)"
       gradientUnits="userSpaceOnUse" /><radialGradient
       xlink:href="#linearGradient1525"
       id="radialGradient1527"
       cx="1077.3307"
       cy="-137.51361"
       fx="1077.3307"
       fy="-137.51361"
       r="154.71857"
       gradientTransform="matrix(-0.41362772,1.684513,-2.1193278,-0.52039542,1236.7782,-2035.6554)"
       gradientUnits="userSpaceOnUse" /></defs><g
     id="layer5"
     style="display:inline"><rect
       style="display:inline;fill:#254151;fill-opacity:1;fill-rule:evenodd;stroke-width:1.00598"
       id="rect2322"
       width="1920"
       height="1200"
       x="0"
       y="0" /></g><g
     id="layer4"
     style="display:inline"
     transform="translate(0,2.8522464)"><g
       id="g5143"
       style="display:inline"
       transform="translate(0,2)"><g
         id="g5211"
         style="display:inline;opacity:1"><path
           style="display:inline;opacity:1;fill:url(#radialGradient1981);fill-opacity:1;stroke-width:7.281"
           d="m 1268.9252,0 c -37.8645,35.422406 -80.6419,65.585889 -126.723,89.355701 -78.575,40.531029 -165.32775,61.967849 -250.9399,84.043969 -60.68471,15.64828 -122.04488,32.10702 -176.38925,63.31908 C 643.4006,277.76813 588.46757,341.68307 526.24023,395.73047 456.57242,456.24027 377.09987,504.78067 293.9707,544.83789 200.22277,590.01195 101.41908,624.68412 0,647.99805 V 1200 H 1920 V 0 Z"
           id="path1103"
           transform="translate(0,-4.8522464)" /><path
           id="path5154"
           style="display:inline;fill:url(#radialGradient5207);fill-opacity:1;stroke-width:9.18804"
           d="m 1273.0977,0 c -62.0345,61.784362 -137.8194,109.68651 -220.2442,139.21094 -0.1473,0.0528 -0.2999,0.0919 -0.4473,0.14453 a 339.79221,405.83688 0 0 0 -57.3144,121.86328 c 24.9444,5.09242 49.2933,12.37175 72.4512,23.12109 42.9381,19.93103 79.8218,50.60957 116.2636,80.82422 36.4421,30.21465 73.5566,60.67319 116.75,80.04492 1.0936,0.49044 2.2236,0.87432 3.3223,1.34961 91.0186,-44.42336 173.4176,-107.18264 267.9727,-144.01953 21.8909,-8.52834 44.3624,-15.49865 67.1836,-21.04101 A 339.79221,405.83688 0 0 0 1385.9941,0 Z" /><path
           style="display:inline;opacity:1;fill:url(#radialGradient1527);fill-opacity:1;stroke-width:7.281"
           d="m 1268.9252,-4.8522464 c -23.6238,22.2106414 -49.225,42.3172694 -76.4016,60.0041724 -25.0003,16.270491 -51.316,30.485643 -78.4296,42.919128 -23.5151,10.783306 -47.6414,20.233686 -72.2244,28.290666 49.0945,20.43317 105.6839,22.23702 155.9801,4.97203 37.3513,-12.82145 70.5159,-35.41512 101.969,-59.294332 C 1329.6496,49.391821 1358.4169,25.343427 1385.9941,0 Z"
           id="path1151" /></g><g
         id="g5149"
         style="display:inline;opacity:1"><path
           style="display:inline;fill:url(#radialGradient1971);fill-opacity:1;stroke-width:7.281"
           d="m 0,166.40982 c 63.329801,-1.61832 126.5453,-7.69354 189.0242,-18.16587 65.62829,-11.00021 131.6927,-26.91396 197.9112,-20.34218 54.10493,5.36958 105.57681,25.55464 155.17593,47.82801 45.99951,20.6569 91.45693,43.41803 140.24219,56.17188 55.82022,14.59299 114.15259,15.6108 171.83007,17.08076 72.59058,1.85004 147.37141,5.05231 213.35941,35.35742 43.0336,19.76326 80.1903,50.14535 116.2636,80.82422 35.785,30.43367 71.6902,61.92548 114.4276,81.42649 48.7122,22.22729 103.1427,27.47417 156.2658,34.17244 52.4629,6.61503 105.7857,15.26954 152.7109,39.64453 57.9155,30.08385 101.2224,81.42367 149.6016,125.22656 48.8411,44.22107 103.9605,81.49753 163.1875,110.36133 V 1195.1478 H 0 Z"
           id="path1211" /><path
           id="path3492"
           style="display:inline;fill:url(#radialGradient3500);fill-opacity:1;stroke-width:9.94993"
           d="M 362.11133,126.43877 C 304.20776,125.23258 246.44814,138.61828 189.02344,148.24346 126.5446,158.71577 63.329738,164.79116 0,166.40947 V 576.71611 H 577.58594 V 191.6751 c -11.80572,-5.37668 -23.66293,-10.64107 -35.47461,-15.94532 -49.59908,-22.27334 -101.07091,-42.45855 -155.17578,-47.82812 -8.27731,-0.82147 -16.55228,-1.29058 -24.82422,-1.46289 z" /><path
           style="display:inline;opacity:1;fill:url(#radialGradient2614);fill-opacity:1;stroke:none;stroke-width:7.281"
           d="m 746.11734,243.33963 c 50.53628,1.90489 101.05503,4.27486 151.5477,7.1095 43.74574,2.45587 88.01445,5.36016 129.69546,18.86625 51.6645,16.74108 96.769,48.91452 139.7773,82.07723 27.3779,21.11049 54.2925,42.82195 80.7177,65.11346 l -47.4551,13.91786 C 1058.8853,438.94685 914.75489,391.6588 805.79467,300.95688 784.52405,283.25055 764.55968,263.97536 746.11734,243.33963 Z"
           id="path2604" /></g><g
         id="g4893"
         style="display:inline"><path
           id="path9425"
           style="display:inline;fill:url(#radialGradient1277);fill-opacity:1;stroke-width:7.34984"
           d="m 1760.4102,266.14453 c -64.3591,0.83753 -128.5781,13.02723 -188.5586,36.39453 -110.0312,42.8661 -203.5673,120.90617 -313.4258,164.21289 -80.8541,31.87306 -167.8866,43.90503 -253.6973,57.68164 -88.50685,14.20949 -179.84437,31.81546 -253.00975,83.60547 -43.14526,30.54031 -77.72801,71.50665 -110.17578,113.23633 C 609.0952,763.00507 578.07704,806.19482 540.14062,843.00586 469.41325,911.63516 378.34323,954.70401 298.00586,1011.7852 225.70356,1063.1571 161.8254,1126.3309 109.57422,1198 h 9.12695 C 677.04561,1198 1303.793,1195.1478 1920,1195.1478 V 293.24425 c -42.0267,-12.21429 -88.2815,-25.12541 -132.0098,-26.76378 -9.1879,-0.34425 -18.3859,-0.45559 -27.58,-0.33594 z" /><path
           id="path4705"
           style="display:inline;fill:url(#radialGradient4889);fill-opacity:1;stroke-width:9.88344"
           d="m 1190.1828,-1152.6403 c -22.2601,104.4544 -21.3656,211.45982 -50.0182,315.23861 -23.7762,86.11766 -67.1873,167.17978 -108.4584,248.10312 -14.5593,28.54759 -28.8835,57.61916 -41.71337,87.07237 25.88717,63.32532 62.27687,116.21305 105.28417,156.33883 2.6463,-3.74401 5.4058,-7.42608 7.9981,-11.19319 26.7653,-38.89483 51.4366,-79.23632 81.2326,-116.01758 61.8576,-76.35881 145.5404,-135.69043 236.4913,-167.28 23.3701,-8.117 47.0461,-14.31174 70.8801,-19.54729 -5.6467,-31.99364 -15.8268,-62.81964 -25.5848,-93.51105 -12.95,-40.73046 -25.3404,-82.41856 -25.4015,-126.42354 -0.056,-40.15422 10.1993,-80.76423 23.7455,-120.01413 10.5607,-30.59935 23.1035,-60.65915 34.7145,-90.97545 -58.2007,-54.2585 -128.0806,-84.2572 -200.4026,-84.7327 -36.9539,0.048 -73.6676,7.7919 -108.7674,22.942 z"
           transform="matrix(0.51950105,0.85446981,-0.79544747,0.60602254,0,0)" /><path
           id="path7359"
           style="display:inline;fill:url(#radialGradient7369);fill-opacity:1;stroke-width:7.281"
           d="m 1760.4102,266.14385 c -64.3591,0.83753 -128.5782,13.02725 -188.5586,36.39453 -20.7278,8.07513 -40.7491,17.65747 -60.5254,27.76172 v 37.71093 H 1920 v -74.76757 c -42.0267,-12.21428 -88.2815,-25.12531 -132.0098,-26.76368 -9.1879,-0.34424 -18.386,-0.45558 -27.58,-0.33593 z" /></g><g
         id="g4703"
         style="display:inline"><path
           style="display:inline;fill:url(#radialGradient1229);fill-opacity:1;stroke-width:7.281"
           d="m 0.03125,505.3418 c 50.523927,33.2494 108.97637,54.36187 169.08594,61.07226 50.76759,5.66748 102.03269,1.19873 153.08008,-0.70703 51.04819,-1.90579 103.13402,-1.09453 151.74218,14.61524 45.30159,14.64111 85.47753,41.52642 125.01563,68.04687 39.53819,26.52051 79.77743,53.33517 125.13672,67.79688 42.72964,13.62331 88.25706,15.6944 133.10035,14.99023 44.84329,-0.70416 89.74987,-4.06997 134.48558,-0.88672 92.86617,6.60806 183.47927,42.21728 255.91997,100.69922 68.2633,55.10945 119.1165,128.38434 179.4863,192.04295 70.4011,74.2364 154.2984,135.6346 246.3508,180.2858 L 0,1200 Z"
           id="path1216"
           transform="translate(0,-4.8522464)" /><path
           id="path7340"
           style="display:inline;fill:url(#radialGradient7348);fill-opacity:1;stroke-width:7.99431"
           d="m 36.111343,499.1851 5.001978,69.25906 a 520.15479,170.14464 0 0 0 134.873979,4.19413 520.15479,170.14464 0 0 0 309.32483,-38.11316 c -40.70973,-5.5046 -82.50709,-2.8645 -123.52128,1.64327 -50.77714,5.58079 -101.5868,13.73361 -152.63082,11.7407 -60.43686,-2.35965 -120.259327,-19.2034 -173.048687,-48.724 z"
           transform="rotate(4.1340253)" /><path
           id="path8351"
           style="display:inline;fill:url(#radialGradient8359);fill-opacity:1;stroke:none;stroke-width:7.34658"
           d="m 244.74832,605.36376 c -12.58581,-1.81591 -25.24787,-3.27435 -37.8792,-4.55626 -16.39453,-1.66383 -32.83666,-3.2209 -49.27292,-4.78265 a 196.66878,47.589951 0 0 0 -178.868774,46.11411 l 0.25767,3.95521 a 196.66878,47.589951 0 0 0 203.531984,44.83129 196.66878,47.589951 0 0 0 188.78633,-44.61069 c -5.93484,-3.58788 -11.96609,-7.02894 -18.21202,-10.14206 -33.51251,-16.7034 -70.58563,-25.36123 -108.34307,-30.80895 z"
           transform="matrix(0.9905359,-0.13725389,0.1952139,0.98076069,0,0)" /><path
           id="path4564-5"
           style="display:inline;fill:url(#radialGradient4682);fill-opacity:1;stroke-width:14.0435"
           d="m -468.37224,531.00248 c -2.83599,-12.17981 -6.02562,-24.24412 -9.36832,-36.18904 -5.91637,-21.14179 -12.22735,-42.19005 -18.05422,-63.3865 a 349.60776,921.49243 0 0 0 -192.84609,798.06516 l 0.45851,76.5894 a 349.60776,921.49243 0 0 0 35.36574,352.7547 c 43.15827,-64.6964 90.83868,-127.0673 123.27778,-196.737 41.16564,-88.4117 55.61975,-186.4082 41.15265,-276.7259 -6.96867,-43.5052 -20.38946,-84.9662 -31.1802,-127.2669 -10.79074,-42.3005 -19.0095,-86.18726 -15.26581,-131.31486 3.97404,-47.90457 21.21803,-95.11954 38.33217,-141.57018 17.11412,-46.45065 34.44438,-93.62927 38.60476,-141.53964 3.34803,-38.5554 -1.969,-76.13984 -10.47697,-112.67924 z"
           transform="matrix(0.33505165,-0.94219976,0.97464011,0.22377813,0,0)" /></g><g
         id="g4680"
         style="display:inline"
         transform="translate(2)"><path
           id="path12411"
           style="display:inline;fill:url(#radialGradient1313);fill-opacity:1;stroke:none;stroke-width:7.281"
           d="m 1917.248,477.43945 c -29.9084,26.24412 -62.2667,49.69512 -96.5175,69.94727 -46.6761,27.599 -96.8099,49.21965 -148.6114,65.25 -38.3651,11.87239 -77.632,20.6947 -115.8906,32.90625 -38.2585,12.21154 -75.8891,28.05936 -107.8008,52.44141 -34.9719,26.72023 -61.6957,62.57134 -87.3672,98.32031 -25.6713,35.74896 -51.129,72.29007 -84.3535,101.15429 -55.3565,48.09182 -127.5991,71.07011 -191.3847,107.24412 C 1005.1347,1050.179 937.72984,1117.8033 892.27734,1198 h 6.13086 c 336.4617,-2.4419 709.4002,-2.6333 1019.5918,-2.8522 z" /><path
           id="path7841"
           style="display:inline;fill:url(#radialGradient7987);fill-opacity:1;stroke-width:7.281"
           d="m 1016.8066,1058.2402 c -49.217,40.2062 -91.18461,89.3067 -122.52926,144.6114 h 6.13086 c 38.003,-0.2758 77.60771,-0.4307 116.3984,-0.6524 z"
           transform="translate(-2,-4.8522464)" /><path
           id="path7601"
           style="display:inline;fill:url(#radialGradient7609);fill-opacity:1;stroke-width:7.35664"
           d="m 1488.5651,1273.7688 c -38.6079,10.4012 -78.1171,17.2153 -117.8458,20.3234 -54.1411,4.2356 -108.6225,1.5799 -162.0294,-6.8306 -24.9098,-3.9227 -49.5931,-9.0405 -74.3437,-13.7965 a 162.56543,411.10855 90 0 0 274.6579,36.4401 162.56543,411.10855 90 0 0 62.7445,-3.0414 z"
           transform="matrix(0.89790363,-0.44019209,0.45743,0.88924563,-2,0)" /><path
           id="path4564"
           style="display:inline;fill:url(#radialGradient4624);fill-opacity:1;stroke-width:9.18804"
           d="m 1681.1898,-243.86599 c -4.1024,4.36992 -8.2502,8.69816 -12.2537,13.16042 -26.8191,29.89259 -51.2567,62.60379 -66.443,99.78191 -16.6427,40.743466 -21.5507,85.18866 -25.6027,129.0132228 -4.052,43.8245122 -7.5188,88.2241672 -21.5693,129.9325772 -23.4101,69.49201 -74.0927,125.86797 -110.8038,189.34609 -14.9406,25.83412 -27.2883,53.09299 -37.4819,81.13763 a 405.83688,339.79221 90 0 0 11.8346,0.47963 405.83688,339.79221 90 0 0 327.3313,-411.965106 405.83688,339.79221 90 0 0 -65.0115,-230.886374 z"
           transform="rotate(30.399692)" /></g></g></g><rect
     style="display:inline;opacity:0.321;fill:#27678d;fill-rule:evenodd"
     id="rect10287"
     width="1920"
     height="1200"
     x="0"
     y="0" /><g
     id="layer6"
     style="display:inline"><g
       id="g880001"
       style="display:inline;fill:#51a1d0;fill-opacity:1"
       transform="matrix(0.98475674,0,0,0.98475674,1229.1579,591.67491)"><path
         i:knockout="Off"
         fill="#51a1d0"
         d="m 51.986,57.297 c -1.797,0.025 0.34,0.926 2.686,1.287 0.648,-0.506 1.236,-1.018 1.76,-1.516 -1.461,0.358 -2.948,0.366 -4.446,0.229"
         id="path879977"
         style="fill:#51a1d0;fill-opacity:1" /><path
         i:knockout="Off"
         fill="#51a1d0"
         d="m 61.631,54.893 c 1.07,-1.477 1.85,-3.094 2.125,-4.766 -0.24,1.192 -0.887,2.221 -1.496,3.307 -3.359,2.115 -0.316,-1.256 -0.002,-2.537 -3.612,4.546 -0.496,2.726 -0.627,3.996"
         id="path879979"
         style="fill:#51a1d0;fill-opacity:1" /><path
         i:knockout="Off"
         fill="#51a1d0"
         d="m 65.191,45.629 c 0.217,-3.236 -0.637,-2.213 -0.924,-0.978 0.335,0.174 0.6,2.281 0.924,0.978"
         id="path879981"
         style="fill:#51a1d0;fill-opacity:1" /><path
         i:knockout="Off"
         fill="#51a1d0"
         d="m 45.172,1.399 c 0.959,0.172 2.072,0.304 1.916,0.533 1.049,-0.23 1.287,-0.442 -1.916,-0.533"
         id="path879983"
         style="fill:#51a1d0;fill-opacity:1" /><path
         i:knockout="Off"
         fill="#51a1d0"
         d="M 47.088,1.932 46.41,2.072 47.041,2.016 47.088,1.932"
         id="path879985"
         style="fill:#51a1d0;fill-opacity:1" /><path
         i:knockout="Off"
         fill="#51a1d0"
         d="m 76.992,46.856 c 0.107,2.906 -0.85,4.316 -1.713,6.812 l -1.553,0.776 c -1.271,2.468 0.123,1.567 -0.787,3.53 -1.984,1.764 -6.021,5.52 -7.313,5.863 -0.943,-0.021 0.639,-1.113 0.846,-1.541 -2.656,1.824 -2.131,2.738 -6.193,3.846 L 60.16,65.878 C 50.142,70.591 36.226,61.251 36.409,48.507 c -0.107,0.809 -0.304,0.607 -0.526,0.934 -0.517,-6.557 3.028,-13.143 9.007,-15.832 5.848,-2.895 12.704,-1.707 16.893,2.197 -2.301,-3.014 -6.881,-6.209 -12.309,-5.91 -5.317,0.084 -10.291,3.463 -11.951,7.131 -2.724,1.715 -3.04,6.611 -4.227,7.507 -1.597,11.737 3.004,16.808 10.787,22.773 1.225,0.826 0.345,0.951 0.511,1.58 -2.586,-1.211 -4.954,-3.039 -6.901,-5.277 1.033,1.512 2.148,2.982 3.589,4.137 -2.438,-0.826 -5.695,-5.908 -6.646,-6.115 4.203,7.525 17.052,13.197 23.78,10.383 -3.113,0.115 -7.068,0.064 -10.566,-1.229 -1.469,-0.756 -3.467,-2.322 -3.11,-2.615 9.182,3.43 18.667,2.598 26.612,-3.771 2.021,-1.574 4.229,-4.252 4.867,-4.289 -0.961,1.445 0.164,0.695 -0.574,1.971 2.014,-3.248 -0.875,-1.322 2.082,-5.609 l 1.092,1.504 c -0.406,-2.696 3.348,-5.97 2.967,-10.234 0.861,-1.304 0.961,1.403 0.047,4.403 1.268,-3.328 0.334,-3.863 0.66,-6.609 0.352,0.923 0.814,1.904 1.051,2.878 -0.826,-3.216 0.848,-5.416 1.262,-7.285 -0.408,-0.181 -1.275,1.422 -1.473,-2.377 0.029,-1.65 0.459,-0.865 0.625,-1.271 -0.324,-0.186 -1.174,-1.451 -1.691,-3.877 0.375,-0.57 1.002,1.478 1.512,1.562 -0.328,-1.929 -0.893,-3.4 -0.916,-4.88 -1.49,-3.114 -0.527,0.415 -1.736,-1.337 -1.586,-4.947 1.316,-1.148 1.512,-3.396 2.404,3.483 3.775,8.881 4.404,11.117 -0.48,-2.726 -1.256,-5.367 -2.203,-7.922 0.73,0.307 -1.176,-5.609 0.949,-1.691 C 83.519,18.706 76.074,10.902 69.225,7.24 70.063,8.007 71.121,8.97 70.741,9.121 67.335,7.093 67.934,6.935 67.446,6.078 64.671,4.949 64.489,6.169 62.651,6.08 57.421,3.306 56.413,3.601 51.6,1.863 l 0.219,1.023 c -3.465,-1.154 -4.037,0.438 -7.782,0.004 -0.228,-0.178 1.2,-0.644 2.375,-0.815 -3.35,0.442 -3.193,-0.66 -6.471,0.122 0.808,-0.567 1.662,-0.942 2.524,-1.424 -2.732,0.166 -6.522,1.59 -5.352,0.295 -4.456,1.988 -12.37,4.779 -16.811,8.943 l -0.14,-0.933 c -2.035,2.443 -8.874,7.296 -9.419,10.46 l -0.544,0.127 c -1.059,1.793 -1.744,3.825 -2.584,5.67 -1.385,2.36 -2.03,0.908 -1.833,1.278 -2.724,5.523 -4.077,10.164 -5.246,13.97 0.833,1.245 0.02,7.495 0.335,12.497 -1.368,24.704 17.338,48.69 37.785,54.228 2.997,1.072 7.454,1.031 11.245,1.141 -4.473,-1.279 -5.051,-0.678 -9.408,-2.197 -3.143,-1.48 -3.832,-3.17 -6.058,-5.102 l 0.881,1.557 c -4.366,-1.545 -2.539,-1.912 -6.091,-3.037 l 0.941,-1.229 C 28.751,98.334 26.418,96.056 25.78,94.795 l -1.548,0.061 c -1.86,-2.295 -2.851,-3.949 -2.779,-5.23 l -0.5,0.891 c -0.567,-0.973 -6.843,-8.607 -3.587,-6.83 -0.605,-0.553 -1.409,-0.9 -2.281,-2.484 l 0.663,-0.758 c -1.567,-2.016 -2.884,-4.6 -2.784,-5.461 0.836,1.129 1.416,1.34 1.99,1.533 -3.957,-9.818 -4.179,-0.541 -7.176,-9.994 L 8.412,66.472 C 7.926,65.74 7.631,64.945 7.24,64.165 l 0.276,-2.75 C 4.667,58.121 6.719,47.409 7.13,41.534 7.415,39.145 9.508,36.602 11.1,32.614 l -0.97,-0.167 c 1.854,-3.234 10.586,-12.988 14.63,-12.486 1.959,-2.461 -0.389,-0.009 -0.772,-0.629 4.303,-4.453 5.656,-3.146 8.56,-3.947 3.132,-1.859 -2.688,0.725 -1.203,-0.709 5.414,-1.383 3.837,-3.144 10.9,-3.846 0.745,0.424 -1.729,0.655 -2.35,1.205 4.511,-2.207 14.275,-1.705 20.617,1.225 7.359,3.439 15.627,13.605 15.953,23.17 l 0.371,0.1 c -0.188,3.802 0.582,8.199 -0.752,12.238 l 0.908,-1.912"
         id="path879987"
         style="fill:#51a1d0;fill-opacity:1" /><path
         i:knockout="Off"
         fill="#51a1d0"
         d="m 32.372,59.764 -0.252,1.26 c 1.181,1.604 2.118,3.342 3.626,4.596 -1.085,-2.118 -1.891,-2.993 -3.374,-5.856"
         id="path879989"
         style="fill:#51a1d0;fill-opacity:1" /><path
         i:knockout="Off"
         fill="#51a1d0"
         d="m 35.164,59.654 c -0.625,-0.691 -0.995,-1.523 -1.409,-2.352 0.396,1.457 1.207,2.709 1.962,3.982 l -0.553,-1.63"
         id="path879991"
         style="fill:#51a1d0;fill-opacity:1" /><path
         i:knockout="Off"
         fill="#51a1d0"
         d="m 84.568,48.916 -0.264,0.662 c -0.484,3.438 -1.529,6.84 -3.131,9.994 1.77,-3.328 2.915,-6.968 3.395,-10.656"
         id="path879993"
         style="fill:#51a1d0;fill-opacity:1" /><path
         i:knockout="Off"
         fill="#51a1d0"
         d="M 45.527,0.537 C 46.742,0.092 48.514,0.293 49.803,0 48.123,0.141 46.451,0.225 44.8,0.438 l 0.727,0.099"
         id="path879995"
         style="fill:#51a1d0;fill-opacity:1" /><path
         i:knockout="Off"
         fill="#51a1d0"
         d="m 2.872,23.219 c 0.28,2.592 -1.95,3.598 0.494,1.889 1.31,-2.951 -0.512,-0.815 -0.494,-1.889"
         id="path879997"
         style="fill:#51a1d0;fill-opacity:1" /><path
         i:knockout="Off"
         fill="#51a1d0"
         d="M 0,35.215 C 0.563,33.487 0.665,32.449 0.88,31.449 -0.676,33.438 0.164,33.862 0,35.215"
         id="path879999"
         style="fill:#51a1d0;fill-opacity:1" /></g></g></svg>
