<?xml version="1.0" encoding="UTF-8" standalone="no"?>
<!-- Created with Inkscape (http://www.inkscape.org/) -->

<svg
   width="1920"
   height="1200"
   viewBox="0 0 1920 1200"
   version="1.1"
   id="svg5"
   xml:space="preserve"
   sodipodi:docname="wallpaper_light_1920x1200.svg"
   inkscape:version="1.2.2 (b0a8486541, 2022-12-01)"
   xmlns:inkscape="http://www.inkscape.org/namespaces/inkscape"
   xmlns:sodipodi="http://sodipodi.sourceforge.net/DTD/sodipodi-0.dtd"
   xmlns:xlink="http://www.w3.org/1999/xlink"
   xmlns="http://www.w3.org/2000/svg"
   xmlns:svg="http://www.w3.org/2000/svg"
   xmlns:i="http://ns.adobe.com/AdobeIllustrator/10.0/"><sodipodi:namedview
     id="namedview185"
     pagecolor="#505050"
     bordercolor="#eeeeee"
     borderopacity="1"
     inkscape:showpageshadow="0"
     inkscape:pageopacity="0"
     inkscape:pagecheckerboard="0"
     inkscape:deskcolor="#505050"
     showgrid="false"
     inkscape:zoom="0.60450639"
     inkscape:cx="929.68413"
     inkscape:cy="546.72706"
     inkscape:window-width="1920"
     inkscape:window-height="997"
     inkscape:window-x="0"
     inkscape:window-y="0"
     inkscape:window-maximized="1"
     inkscape:current-layer="svg5" /><defs
     id="defs2"><linearGradient
       inkscape:collect="always"
       id="linearGradient18172"><stop
         style="stop-color:#3d526a;stop-opacity:1;"
         offset="0.28715095"
         id="stop18170" /><stop
         style="stop-color:#265a78;stop-opacity:1;"
         offset="1"
         id="stop18168" /></linearGradient><inkscape:path-effect
       effect="spiro"
       id="path-effect1154"
       is_visible="true"
       lpeversion="1" /><linearGradient
       id="linearGradient2863"><stop
         style="stop-color:#266489;stop-opacity:0.87843138;"
         offset="0"
         id="stop2859" /><stop
         style="stop-color:#266489;stop-opacity:1;"
         offset="0.24582241"
         id="stop2861" /></linearGradient><linearGradient
       id="linearGradient2857"><stop
         style="stop-color:#266489;stop-opacity:0.92156863;"
         offset="0"
         id="stop2853" /><stop
         style="stop-color:#266489;stop-opacity:1;"
         offset="0.24582241"
         id="stop2855" /></linearGradient><linearGradient
       id="linearGradient2851"><stop
         style="stop-color:#266489;stop-opacity:0.96078432;"
         offset="0"
         id="stop2847" /><stop
         style="stop-color:#266489;stop-opacity:1;"
         offset="0.24582241"
         id="stop2849" /></linearGradient><linearGradient
       id="linearGradient2031"><stop
         style="stop-color:#266082;stop-opacity:0.81999999;"
         offset="0.19950303"
         id="stop2027" /><stop
         style="stop-color:#266082;stop-opacity:0.98823529;"
         offset="0.45128444"
         id="stop2029" /></linearGradient><linearGradient
       id="linearGradient2025"><stop
         style="stop-color:#266082;stop-opacity:0.86000001;"
         offset="0.20241019"
         id="stop2021" /><stop
         style="stop-color:#266082;stop-opacity:0.98823529;"
         offset="0.45128444"
         id="stop2023" /></linearGradient><linearGradient
       id="linearGradient2019"><stop
         style="stop-color:#266082;stop-opacity:0.88999999;"
         offset="0.19568871"
         id="stop2015" /><stop
         style="stop-color:#266082;stop-opacity:0.98823529;"
         offset="0.45128444"
         id="stop2017" /></linearGradient><linearGradient
       id="linearGradient13605"><stop
         style="stop-color:#266082;stop-opacity:0.94;"
         offset="0.19971497"
         id="stop13601" /><stop
         style="stop-color:#266082;stop-opacity:0.98823529;"
         offset="0.45128444"
         id="stop13603" /></linearGradient><linearGradient
       id="linearGradient13597"><stop
         style="stop-color:#266082;stop-opacity:0.77999997;"
         offset="0.19980925"
         id="stop13593" /><stop
         style="stop-color:#266082;stop-opacity:0.96862745;"
         offset="0.45180532"
         id="stop13595" /></linearGradient><linearGradient
       id="linearGradient13589"><stop
         style="stop-color:#266082;stop-opacity:0.73000002;"
         offset="0.20148337"
         id="stop13585" /><stop
         style="stop-color:#266082;stop-opacity:0.96078432;"
         offset="0.45282581"
         id="stop13587" /></linearGradient><linearGradient
       id="linearGradient13581"><stop
         style="stop-color:#266082;stop-opacity:0.69;"
         offset="0.20001823"
         id="stop13577" /><stop
         style="stop-color:#266082;stop-opacity:0.94901961;"
         offset="0.44871116"
         id="stop13579" /></linearGradient><linearGradient
       id="linearGradient12656"><stop
         style="stop-color:#27678d;stop-opacity:0.89019608;"
         offset="0"
         id="stop12654" /><stop
         style="stop-color:#27678d;stop-opacity:1;"
         offset="0.3511188"
         id="stop12652" /><stop
         style="stop-color:#27678d;stop-opacity:1;"
         offset="0.84502661"
         id="stop13554" /><stop
         style="stop-color:#27678d;stop-opacity:0.75686276;"
         offset="0.99940705"
         id="stop13556" /></linearGradient><linearGradient
       id="linearGradient12648"><stop
         style="stop-color:#27678d;stop-opacity:1;"
         offset="0"
         id="stop12646" /><stop
         style="stop-color:#27678d;stop-opacity:1;"
         offset="0.34994966"
         id="stop12644" /><stop
         style="stop-color:#27678d;stop-opacity:1;"
         offset="0.85264051"
         id="stop13562" /><stop
         style="stop-color:#27678d;stop-opacity:0.96078432;"
         offset="1"
         id="stop13564" /></linearGradient><linearGradient
       id="linearGradient12640"><stop
         style="stop-color:#27678d;stop-opacity:0.92156863;"
         offset="0"
         id="stop12638" /><stop
         style="stop-color:#27678d;stop-opacity:1;"
         offset="0.35348684"
         id="stop12636" /><stop
         style="stop-color:#27678d;stop-opacity:1;"
         offset="0.8476584"
         id="stop13558" /><stop
         style="stop-color:#27678d;stop-opacity:0.8509804;"
         offset="1"
         id="stop13560" /></linearGradient><linearGradient
       id="linearGradient12241"><stop
         style="stop-color:#266489;stop-opacity:0.8392157;"
         offset="0"
         id="stop12239" /><stop
         style="stop-color:#266489;stop-opacity:1;"
         offset="0.24582241"
         id="stop12237" /></linearGradient><linearGradient
       id="linearGradient12231"><stop
         style="stop-color:#266489;stop-opacity:0.80000001;"
         offset="0"
         id="stop12229" /><stop
         style="stop-color:#266489;stop-opacity:1;"
         offset="0.24852315"
         id="stop12227" /></linearGradient><linearGradient
       id="linearGradient12221"><stop
         style="stop-color:#266489;stop-opacity:0.76078433;"
         offset="0.00097245"
         id="stop12219" /><stop
         style="stop-color:#266489;stop-opacity:1;"
         offset="0.24779135"
         id="stop12217" /></linearGradient><linearGradient
       id="linearGradient10904"><stop
         style="stop-color:#266286;stop-opacity:0.96078432;"
         offset="0"
         id="stop13370" /><stop
         style="stop-color:#266286;stop-opacity:1;"
         offset="0.43724015"
         id="stop13368" /><stop
         style="stop-color:#266286;stop-opacity:1;"
         offset="0.86353546"
         id="stop10900" /><stop
         style="stop-color:#266286;stop-opacity:0.96862745;"
         offset="0.99957526"
         id="stop10902" /></linearGradient><linearGradient
       id="linearGradient10891"><stop
         style="stop-color:#266286;stop-opacity:0.89803922;"
         offset="0.00538627"
         id="stop13372" /><stop
         style="stop-color:#266286;stop-opacity:1;"
         offset="0.38196439"
         id="stop13366" /><stop
         style="stop-color:#266286;stop-opacity:1;"
         offset="0.86029023"
         id="stop10887" /><stop
         style="stop-color:#266286;stop-opacity:0.89803922;"
         offset="1"
         id="stop10889" /></linearGradient><linearGradient
       id="linearGradient5205"><stop
         style="stop-color:#265e7f;stop-opacity:0.78039217;"
         offset="0"
         id="stop5201" /><stop
         style="stop-color:#265e7f;stop-opacity:0;"
         offset="1"
         id="stop5203" /></linearGradient><linearGradient
       id="linearGradient4998"><stop
         style="stop-color:#3b95c9;stop-opacity:0.71976823;"
         offset="0"
         id="stop4994" /><stop
         style="stop-color:#266082;stop-opacity:0;"
         offset="0.79514837"
         id="stop4996" /></linearGradient><linearGradient
       id="linearGradient4887"><stop
         style="stop-color:#2c75a0;stop-opacity:1;"
         offset="0"
         id="stop4883" /><stop
         style="stop-color:#266286;stop-opacity:0;"
         offset="1"
         id="stop4885" /></linearGradient><linearGradient
       id="linearGradient4697"><stop
         style="stop-color:#3693c9;stop-opacity:1;"
         offset="0"
         id="stop4693" /><stop
         style="stop-color:#266489;stop-opacity:0;"
         offset="0.81461072"
         id="stop4695" /></linearGradient><linearGradient
       id="linearGradient4622"><stop
         style="stop-color:#348ec1;stop-opacity:1;"
         offset="0"
         id="stop4618" /><stop
         style="stop-color:#27668c;stop-opacity:0;"
         offset="1"
         id="stop4620" /></linearGradient><linearGradient
       id="linearGradient3744"><stop
         style="stop-color:#435c7b;stop-opacity:0;"
         offset="0.39728981"
         id="stop3742" /><stop
         style="stop-color:#27668c;stop-opacity:1;"
         offset="1"
         id="stop3740" /></linearGradient><linearGradient
       id="linearGradient3734"><stop
         style="stop-color:#425a78;stop-opacity:0;"
         offset="0.40911144"
         id="stop3732" /><stop
         style="stop-color:#2e6184;stop-opacity:0.70588235;"
         offset="0.61998904"
         id="stop20880" /><stop
         style="stop-color:#266489;stop-opacity:1;"
         offset="1"
         id="stop3730" /></linearGradient><linearGradient
       id="linearGradient3724"><stop
         style="stop-color:#5d4f66;stop-opacity:0;"
         offset="0.60076368"
         id="stop3722" /><stop
         style="stop-color:#3e5978;stop-opacity:0.56078431;"
         offset="0.71432281"
         id="stop17750" /><stop
         style="stop-color:#266286;stop-opacity:1;"
         offset="1"
         id="stop3720" /></linearGradient><linearGradient
       id="linearGradient3714"><stop
         style="stop-color:#574b60;stop-opacity:0;"
         offset="0.40393296"
         id="stop3712" /><stop
         style="stop-color:#41546e;stop-opacity:0.76502055;"
         offset="0.62753475"
         id="stop18166" /><stop
         style="stop-color:#266082;stop-opacity:1;"
         offset="1"
         id="stop3710" /></linearGradient><linearGradient
       id="linearGradient3704"><stop
         style="stop-color:#3e536c;stop-opacity:0;"
         offset="0.55984306"
         id="stop3702" /><stop
         style="stop-color:#265e7f;stop-opacity:1;"
         offset="1"
         id="stop3700" /></linearGradient><radialGradient
       xlink:href="#linearGradient3704"
       id="radialGradient3706"
       cx="2007.3448"
       cy="1737.1503"
       fx="2007.3448"
       fy="1737.1503"
       r="960"
       gradientTransform="matrix(0.00224976,-1.3372768,2.0176281,0.00339437,-1502.0953,4025.1989)"
       gradientUnits="userSpaceOnUse" /><radialGradient
       xlink:href="#linearGradient3714"
       id="radialGradient3716"
       cx="-55.602444"
       cy="1782.1582"
       fx="-55.602444"
       fy="1782.1582"
       r="960.29187"
       gradientTransform="matrix(1.9401776,0.00316642,-0.00172736,1.0584168,55.354613,-561.98297)"
       gradientUnits="userSpaceOnUse" /><radialGradient
       xlink:href="#linearGradient3724"
       id="radialGradient3726"
       cx="1903.3966"
       cy="1837.443"
       fx="1903.3966"
       fy="1837.443"
       r="905.96039"
       gradientTransform="matrix(2.8824916e-4,-1.0301404,1.6632747,4.6541152e-4,-1107.1525,3277.866)"
       gradientUnits="userSpaceOnUse" /><radialGradient
       xlink:href="#linearGradient3734"
       id="radialGradient3736"
       cx="-63.3279"
       cy="1895.5513"
       fx="-63.3279"
       fy="1895.5513"
       r="851.67627"
       gradientTransform="matrix(1.5818275,0.02898298,-0.01198079,0.65388556,59.556128,75.872442)"
       gradientUnits="userSpaceOnUse" /><radialGradient
       xlink:href="#linearGradient3744"
       id="radialGradient3746"
       cx="2002.5957"
       cy="1425.4607"
       fx="2002.5957"
       fy="1425.4607"
       r="513.49005"
       gradientTransform="matrix(-0.0012629,-1.1197073,1.4443859,-0.00162911,-53.790451,3537.0539)"
       gradientUnits="userSpaceOnUse" /><radialGradient
       xlink:href="#linearGradient4622"
       id="radialGradient4624"
       cx="1216.8583"
       cy="698.47076"
       fx="1216.8583"
       fy="698.47076"
       r="339.73563"
       gradientTransform="matrix(1,0,0,1.1945667,189.64906,-840.95013)"
       gradientUnits="userSpaceOnUse" /><radialGradient
       xlink:href="#linearGradient4697"
       id="radialGradient4682"
       gradientUnits="userSpaceOnUse"
       gradientTransform="matrix(1.028887,0,0,2.7123809,-1591.0997,-641.24898)"
       cx="1216.8583"
       cy="698.47076"
       fx="1216.8583"
       fy="698.47076"
       r="339.73563" /><radialGradient
       xlink:href="#linearGradient4887"
       id="radialGradient4889"
       cx="1284.9818"
       cy="-772.8031"
       fx="1284.9818"
       fy="-772.8031"
       r="254.67998"
       gradientTransform="matrix(1,0,0,1.628897,0,478.42386)"
       gradientUnits="userSpaceOnUse" /><radialGradient
       xlink:href="#linearGradient4998"
       id="radialGradient4992"
       gradientUnits="userSpaceOnUse"
       gradientTransform="matrix(1,0,0,1.1945667,-28.878962,-724.73659)"
       cx="1216.8583"
       cy="698.47076"
       fx="1216.8583"
       fy="698.47076"
       r="339.73563" /><radialGradient
       xlink:href="#linearGradient5205"
       id="radialGradient5207"
       cx="1279.6924"
       cy="835.54907"
       fx="1279.6924"
       fy="835.54907"
       r="321.97171"
       gradientTransform="matrix(1.2032907,-1.6072458,1.3530185,1.0129592,-1390.6628,1858.2759)"
       gradientUnits="userSpaceOnUse" /><linearGradient
       xlink:href="#linearGradient10891"
       id="linearGradient10893"
       x1="108.0625"
       y1="733.04877"
       x2="1919.9824"
       y2="733.04877"
       gradientUnits="userSpaceOnUse" /><linearGradient
       xlink:href="#linearGradient10904"
       id="linearGradient10898"
       gradientUnits="userSpaceOnUse"
       x1="108.0625"
       y1="733.04877"
       x2="1919.9824"
       y2="733.04877"
       gradientTransform="translate(0,14)" /><linearGradient
       xlink:href="#linearGradient12221"
       id="linearGradient12223"
       x1="-3.9511719"
       y1="853.08008"
       x2="1699.4023"
       y2="853.08008"
       gradientUnits="userSpaceOnUse" /><linearGradient
       xlink:href="#linearGradient12231"
       id="linearGradient12233"
       x1="-3.9511719"
       y1="859.08014"
       x2="1699.4023"
       y2="859.08014"
       gradientUnits="userSpaceOnUse" /><linearGradient
       xlink:href="#linearGradient2863"
       id="linearGradient12243"
       x1="-3.9511719"
       y1="863.08014"
       x2="1699.4023"
       y2="863.08014"
       gradientUnits="userSpaceOnUse"
       gradientTransform="translate(0,2)" /><linearGradient
       xlink:href="#linearGradient12640"
       id="linearGradient12642"
       x1="890.26758"
       y1="839.41797"
       x2="1917.248"
       y2="839.41797"
       gradientUnits="userSpaceOnUse"
       gradientTransform="translate(0,12)" /><linearGradient
       xlink:href="#linearGradient12648"
       id="linearGradient12650"
       x1="890.26758"
       y1="839.41797"
       x2="1917.248"
       y2="839.41797"
       gradientUnits="userSpaceOnUse"
       gradientTransform="translate(0,22)" /><linearGradient
       xlink:href="#linearGradient12656"
       id="linearGradient12658"
       x1="890.26758"
       y1="839.41797"
       x2="1917.248"
       y2="839.41797"
       gradientUnits="userSpaceOnUse" /><linearGradient
       xlink:href="#linearGradient13581"
       id="linearGradient13583"
       x1="0"
       y1="447.34152"
       x2="1920.584"
       y2="447.34152"
       gradientUnits="userSpaceOnUse" /><linearGradient
       xlink:href="#linearGradient13589"
       id="linearGradient13591"
       x1="0"
       y1="455.34348"
       x2="1920.5881"
       y2="455.34348"
       gradientUnits="userSpaceOnUse" /><linearGradient
       xlink:href="#linearGradient13597"
       id="linearGradient13599"
       x1="0"
       y1="459.34348"
       x2="1920.5881"
       y2="459.34348"
       gradientUnits="userSpaceOnUse" /><linearGradient
       xlink:href="#linearGradient2031"
       id="linearGradient13607"
       x1="0"
       y1="463.34348"
       x2="1920.5881"
       y2="463.34348"
       gradientUnits="userSpaceOnUse" /><linearGradient
       xlink:href="#linearGradient2025"
       id="linearGradient2000"
       gradientUnits="userSpaceOnUse"
       x1="0"
       y1="463.34348"
       x2="1920.5881"
       y2="463.34348"
       gradientTransform="translate(0,4)" /><linearGradient
       xlink:href="#linearGradient2019"
       id="linearGradient2004"
       gradientUnits="userSpaceOnUse"
       gradientTransform="translate(0,8)"
       x1="0"
       y1="463.34348"
       x2="1920.5881"
       y2="463.34348" /><linearGradient
       xlink:href="#linearGradient13605"
       id="linearGradient2008"
       gradientUnits="userSpaceOnUse"
       gradientTransform="translate(0,12)"
       x1="0"
       y1="463.34348"
       x2="1920.5881"
       y2="463.34348" /><linearGradient
       xlink:href="#linearGradient2857"
       id="linearGradient2831"
       gradientUnits="userSpaceOnUse"
       x1="-3.9511719"
       y1="863.08014"
       x2="1699.4023"
       y2="863.08014"
       gradientTransform="translate(0,10.852246)" /><linearGradient
       xlink:href="#linearGradient12241"
       id="linearGradient2833"
       gradientUnits="userSpaceOnUse"
       x1="-3.9511719"
       y1="863.08014"
       x2="1699.4023"
       y2="863.08014" /><linearGradient
       xlink:href="#linearGradient2851"
       id="linearGradient2835"
       gradientUnits="userSpaceOnUse"
       x1="-3.9511719"
       y1="863.08014"
       x2="1699.4023"
       y2="863.08014"
       gradientTransform="translate(0,14.85225)" /><radialGradient
       inkscape:collect="always"
       xlink:href="#linearGradient18172"
       id="radialGradient18174"
       cx="1277.8778"
       cy="633.7843"
       fx="1277.8778"
       fy="633.7843"
       r="960"
       gradientTransform="matrix(1.2320955,0.00130087,-6.598888e-4,0.62499965,-296.17141,223.33786)"
       gradientUnits="userSpaceOnUse" /></defs><g
     id="layer5"
     style="display:inline"><rect
       style="display:inline;fill:url(#radialGradient18174);fill-opacity:1;fill-rule:evenodd;stroke-width:1.00598"
       id="rect2322"
       width="1920"
       height="1200"
       x="0"
       y="0" /></g><g
     id="layer4"
     style="display:inline"
     transform="translate(0,2.8522464)"
     sodipodi:insensitive="true"><g
       id="g5143"
       style="display:inline"
       transform="translate(0,2)"><g
         id="g5211"
         style="display:inline;opacity:0.6096392"><path
           id="path1670"
           style="display:inline;fill:url(#radialGradient3706);fill-opacity:1;stroke-width:7.281"
           d="M 1273.0977,36 C 1211.0632,97.784549 1135.2786,145.68642 1052.8535,175.21094 941.29452,215.17116 817.3073,222.29325 714.87109,281.86719 643.63241,323.29755 588.54233,386.93761 526.24023,440.88086 456.48214,501.27976 377.07451,549.88675 293.9707,589.98633 200.24498,635.21123 101.43334,669.88729 0,693.14844 V 1200 H 1920 V 36 Z"
           transform="translate(0,-2)" /><path
           id="path9149"
           style="display:inline;fill:#265e7f;fill-opacity:0.93000001;stroke-width:7.281"
           d="M 1273.0977,30 C 1211.0633,91.784486 1135.2785,139.68645 1052.8535,169.21094 941.29464,209.17112 817.30914,216.29331 714.87305,275.86719 643.63443,317.29751 588.54227,380.93571 526.24023,434.87891 456.48221,495.27775 377.07443,543.88679 293.9707,583.98633 200.24508,629.21119 101.43324,663.88537 0,687.14648 v 6 C 101.43324,669.88537 200.24508,635.21119 293.9707,589.98633 377.07443,549.88679 456.48221,501.27775 526.24023,440.87891 588.54227,386.93571 643.63443,323.29751 714.87305,281.86719 817.30914,222.29331 941.29464,215.17112 1052.8535,175.21094 1135.2785,145.68645 1211.0633,97.784486 1273.0977,36 H 1920 v -6 z"
           transform="translate(0,-2)" /><path
           id="path9147"
           style="display:inline;fill:#265e7f;fill-opacity:0.91000003;stroke-width:7.281"
           d="M 1273.0977,24.000648 C 1211.0633,85.785196 1135.2786,133.68707 1052.8535,163.21159 941.29451,203.17181 817.30925,210.2939 714.87305,269.86784 643.63436,311.2982 588.54233,374.93631 526.24023,428.87956 456.48214,489.27846 377.07451,537.8874 293.9707,577.98698 200.24498,623.21189 101.43334,657.88599 0,681.14713 v 6 C 101.43334,663.88599 200.24498,629.21189 293.9707,583.98698 377.07451,543.8874 456.48214,495.27846 526.24023,434.87956 588.54233,380.93631 643.63436,317.2982 714.87305,275.86784 817.30925,216.2939 941.29451,209.17181 1052.8535,169.21159 1135.2786,139.68707 1211.0633,91.785196 1273.0977,30.000648 H 1920 v -6 z"
           transform="translate(0,-2)" /><path
           id="path9145"
           style="display:inline;fill:#265e7f;fill-opacity:0.88;stroke-width:7.281"
           d="M 1273.0977,18 C 1211.0633,79.784486 1135.2785,127.68645 1052.8535,157.21094 941.29464,197.17112 817.30914,204.29331 714.87305,263.86719 643.63443,305.29751 588.54227,368.93571 526.24023,422.87891 456.48221,483.27775 377.07443,531.88679 293.9707,571.98633 200.24508,617.21119 101.43324,651.88537 0,675.14648 v 6 C 101.43324,657.88537 200.24508,623.21119 293.9707,577.98633 377.07443,537.88679 456.48221,489.27775 526.24023,428.87891 588.54227,374.93571 643.63443,311.29751 714.87305,269.86719 817.30914,210.29331 941.29464,203.17112 1052.8535,163.21094 1135.2785,133.68645 1211.0633,85.784486 1273.0977,24 H 1920 v -6 z"
           transform="translate(0,-2)" /><path
           id="path9143"
           style="display:inline;fill:#265e7f;fill-opacity:0.81960785;stroke-width:7.281"
           d="M 1273.0977,12 C 1211.0633,73.784486 1135.2785,121.68645 1052.8535,151.21094 941.29464,191.17112 817.30914,198.29331 714.87305,257.86719 643.63443,299.29751 588.54227,362.93571 526.24023,416.87891 456.48221,477.27775 377.07443,525.88679 293.9707,565.98633 200.24508,611.21119 101.43324,645.88537 0,669.14648 v 6 C 101.43324,651.88537 200.24508,617.21119 293.9707,571.98633 377.07443,531.88679 456.48221,483.27775 526.24023,422.87891 588.54227,368.93571 643.63443,305.29751 714.87305,263.86719 817.30914,204.29331 941.29464,197.17112 1052.8535,157.21094 1135.2785,127.68645 1211.0633,79.784486 1273.0977,18 H 1920 v -6 z"
           transform="translate(0,-2)" /><path
           id="path9119"
           style="display:inline;fill:#265e7f;fill-opacity:0.78039217;stroke-width:7.281"
           d="M 1273.0977,6 C 1211.0633,67.784486 1135.2785,115.68645 1052.8535,145.21094 941.29464,185.17112 817.30914,192.29331 714.87305,251.86719 643.63443,293.29751 588.54227,356.93571 526.24023,410.87891 456.48221,471.27775 377.07443,519.88679 293.9707,559.98633 200.24508,605.21119 101.43324,639.88537 0,663.14648 v 6 C 101.43324,645.88537 200.24508,611.21119 293.9707,565.98633 377.07443,525.88679 456.48221,477.27775 526.24023,416.87891 588.54227,362.93571 643.63443,299.29751 714.87305,257.86719 817.30914,198.29331 941.29464,191.17112 1052.8535,151.21094 1135.2785,121.68645 1211.0633,73.784486 1273.0977,12 H 1920 V 6 Z"
           transform="translate(0,-2)" /><path
           id="path6398"
           style="display:inline;fill:#265e7f;fill-opacity:0.73000002;stroke-width:7.281"
           d="M 1273.0977,0 C 1211.0633,61.784486 1135.2785,109.68645 1052.8535,139.21094 941.29464,179.17112 817.30914,186.29331 714.87305,245.86719 643.63443,287.29751 588.54227,350.93571 526.24023,404.87891 456.48221,465.27775 377.07443,513.88679 293.9707,553.98633 200.24508,599.21119 101.43324,633.88537 0,657.14648 v 6 C 101.43324,639.88537 200.24508,605.21119 293.9707,559.98633 377.07443,519.88679 456.48221,471.27775 526.24023,410.87891 588.54227,356.93571 643.63443,293.29751 714.87305,251.86719 817.30914,192.29331 941.29464,185.17112 1052.8535,145.21094 1135.2785,115.68645 1211.0633,67.784486 1273.0977,6 h 646.8378 V 0 Z"
           transform="translate(0,-2)" /><path
           id="path6385"
           style="display:inline;fill:#265e7f;fill-opacity:0.70795596;stroke-width:7.281"
           d="M 1260.3594,0 C 1200.7779,55.921734 1129.7859,99.653897 1052.8535,127.21094 941.29467,167.17112 817.30914,174.29331 714.87305,233.86719 643.63443,275.29751 588.54227,338.93571 526.24023,392.87891 456.48221,453.27775 377.07443,501.88679 293.9707,541.98633 200.24508,587.21119 101.43324,621.88537 0,645.14648 v 12 C 101.43324,633.88537 200.24508,599.21119 293.9707,553.98633 377.07443,513.88679 456.48221,465.27775 526.24023,404.87891 588.54227,350.93571 643.63443,287.29751 714.87305,245.86719 817.30914,186.29331 941.29467,179.17112 1052.8535,139.21094 1135.2785,109.68645 1211.0633,61.784478 1273.0977,0 Z"
           transform="translate(0,-2)" /><path
           id="path5154"
           style="display:inline;fill:url(#radialGradient5207);fill-opacity:1;stroke-width:9.18804"
           d="m 1273.0977,0 c -62.0345,61.784362 -137.8194,109.68651 -220.2442,139.21094 -0.1473,0.0528 -0.2999,0.0919 -0.4473,0.14453 a 339.79221,405.83688 0 0 0 -57.3144,121.86328 c 24.9444,5.09242 49.2933,12.37175 72.4512,23.12109 42.9381,19.93103 79.8218,50.60957 116.2636,80.82422 36.4421,30.21465 73.5566,60.67319 116.75,80.04492 1.0936,0.49044 2.2236,0.87432 3.3223,1.34961 91.0186,-44.42336 173.4176,-107.18264 267.9727,-144.01953 21.8909,-8.52834 44.3624,-15.49865 67.1836,-21.04101 A 339.79221,405.83688 0 0 0 1385.9941,0 Z" /></g><g
         id="g20293"
         transform="translate(0,-4.8522464)"
         style="opacity:0.89013644"><path
           id="path1928"
           style="display:inline;fill:url(#radialGradient3716);fill-opacity:1;stroke-width:7.281"
           d="m 371.84961,167.23897 c -61.38644,0.24925 -122.00042,19.1719 -182.22852,33.31055 C 127.31412,215.17617 63.838575,224.82792 0,229.38155 V 1202.8522 H 1920 V 792.84834 c -59.2567,-28.81144 -114.3945,-66.08136 -163.1875,-110.36132 -48.3345,-43.86382 -91.5779,-95.33488 -149.6016,-125.22657 -46.989,-24.2071 -100.345,-32.44954 -152.7109,-39.64453 -52.3658,-7.195 -105.7138,-13.92437 -153.9434,-35.55469 -43.1935,-19.37175 -80.3079,-49.83024 -116.75,-80.04492 -36.4419,-30.21468 -73.3254,-60.89317 -116.2636,-80.82422 -59.1057,-27.43551 -125.83679,-32.7696 -190.96878,-34.76953 -65.132,-1.99994 -131.1755,-1.1914 -194.2207,-17.66797 -48.78618,-12.75001 -94.26008,-35.47652 -140.24219,-56.17187 -45.98213,-20.69536 -93.68396,-39.70288 -143.9043,-44.23828 -8.80209,-0.79492 -17.58793,-1.14108 -26.35742,-1.10547 z" /><path
           id="path2006"
           style="display:inline;fill:#266082;fill-opacity:0.96;stroke-width:7.281"
           d="m 371.84961,163.23897 c -61.38644,0.24925 -122.00042,19.1719 -182.22852,33.31055 C 127.31412,211.17617 63.838575,220.82792 0,225.38155 v 4 c 63.838575,-4.55363 127.31412,-14.20538 189.62109,-28.83203 68.83212,-16.15846 138.16922,-38.56444 208.58594,-32.20508 50.22035,4.5354 97.92217,23.54293 143.9043,44.23828 45.98211,20.69535 91.45601,43.42186 140.24219,56.17187 63.04521,16.47657 129.0887,15.66804 194.2207,17.66797 65.13199,1.99994 131.86308,7.33402 190.96878,34.76953 42.9383,19.93105 79.8217,50.60954 116.2636,80.82422 36.4421,30.21468 73.5565,60.67317 116.75,80.04492 48.2296,21.63032 101.5775,28.35969 153.9434,35.55469 52.3659,7.195 105.7219,15.43743 152.7109,39.64453 58.0237,29.89169 101.2672,81.36275 149.6016,125.22657 48.793,44.27996 103.9308,81.54988 163.1875,110.36132 v -4.0039 c -59.259,-28.81113 -114.3958,-66.07864 -163.1875,-110.35742 -48.3344,-43.86382 -91.5779,-95.33488 -149.6016,-125.22657 -46.989,-24.2071 -100.345,-32.44953 -152.7109,-39.64453 -52.3659,-7.195 -105.7138,-13.92437 -153.9434,-35.55469 -43.1935,-19.37175 -80.3079,-49.83024 -116.75,-80.04492 -36.4419,-30.21468 -73.3253,-60.89317 -116.2636,-80.82422 -59.1057,-27.43551 -125.83679,-32.76959 -190.96878,-34.76953 -65.132,-1.99993 -131.17549,-1.1914 -194.2207,-17.66797 -48.78618,-12.75001 -94.26008,-35.47652 -140.24219,-56.17187 -45.98213,-20.69535 -93.68395,-39.70288 -143.9043,-44.23828 -8.80209,-0.79492 -17.58793,-1.14108 -26.35742,-1.10547 z" /><path
           id="path2002"
           style="display:inline;fill:#266082;fill-opacity:0.92000002;stroke-width:7.281"
           d="m 371.84961,159.23897 c -61.38644,0.24925 -122.00042,19.1719 -182.22852,33.31055 C 127.31412,207.17617 63.838575,216.82792 0,221.38155 v 4 c 63.838575,-4.55363 127.31412,-14.20538 189.62109,-28.83203 68.83212,-16.15846 138.16922,-38.56444 208.58594,-32.20508 50.22035,4.5354 97.92217,23.54293 143.9043,44.23828 45.98211,20.69535 91.45601,43.42186 140.24219,56.17187 63.04521,16.47657 129.0887,15.66804 194.2207,17.66797 65.13199,1.99994 131.86308,7.33402 190.96878,34.76953 42.9383,19.93105 79.8217,50.60954 116.2636,80.82422 36.4421,30.21468 73.5565,60.67317 116.75,80.04492 48.2296,21.63032 101.5775,28.35969 153.9434,35.55469 52.3659,7.195 105.7219,15.43743 152.7109,39.64453 58.0237,29.89169 101.2672,81.36275 149.6016,125.22657 48.793,44.27996 103.9308,81.54988 163.1875,110.36132 v -4.0039 c -59.259,-28.81113 -114.3958,-66.07864 -163.1875,-110.35742 -48.3344,-43.86382 -91.5779,-95.33488 -149.6016,-125.22657 -46.989,-24.2071 -100.345,-32.44953 -152.7109,-39.64453 -52.3659,-7.195 -105.7138,-13.92437 -153.9434,-35.55469 -43.1935,-19.37175 -80.3079,-49.83024 -116.75,-80.04492 -36.4419,-30.21468 -73.3253,-60.89317 -116.2636,-80.82422 -59.1057,-27.43551 -125.83679,-32.76959 -190.96878,-34.76953 -65.132,-1.99993 -131.17549,-1.1914 -194.2207,-17.66797 -48.78618,-12.75001 -94.26008,-35.47652 -140.24219,-56.17187 -45.98213,-20.69535 -93.68395,-39.70288 -143.9043,-44.23828 -8.80209,-0.79492 -17.58793,-1.14108 -26.35742,-1.10547 z" /><path
           id="path1998"
           style="display:inline;fill:#266082;fill-opacity:0.88999999;stroke-width:7.281"
           d="m 371.84961,155.23897 c -61.38644,0.24925 -122.00042,19.1719 -182.22852,33.31055 C 127.31412,203.17617 63.838575,212.82792 0,217.38155 v 4 c 63.838575,-4.55363 127.31412,-14.20538 189.62109,-28.83203 68.83212,-16.15846 138.16922,-38.56444 208.58594,-32.20508 50.22035,4.5354 97.92217,23.54293 143.9043,44.23828 45.98211,20.69535 91.45601,43.42186 140.24219,56.17187 63.04521,16.47657 129.0887,15.66804 194.2207,17.66797 65.13199,1.99994 131.86298,7.33402 190.96868,34.76953 42.9383,19.93105 79.8217,50.60954 116.2636,80.82422 36.4421,30.21468 73.5565,60.67317 116.75,80.04492 48.2296,21.63032 101.5775,28.35969 153.9434,35.55469 52.3659,7.195 105.7219,15.43743 152.7109,39.64453 58.0237,29.89169 101.2672,81.36275 149.6016,125.22657 48.793,44.27996 103.9308,81.54988 163.1875,110.36132 v -4.0039 c -59.259,-28.81113 -114.3958,-66.07864 -163.1875,-110.35742 -48.3344,-43.86382 -91.5779,-95.33488 -149.6016,-125.22657 -46.989,-24.2071 -100.345,-32.44953 -152.7109,-39.64453 -52.3659,-7.195 -105.7138,-13.92437 -153.9434,-35.55469 -43.1935,-19.37175 -80.3079,-49.83024 -116.75,-80.04492 -36.4419,-30.21468 -73.3253,-60.89317 -116.2636,-80.82422 -59.1057,-27.43551 -125.83669,-32.76959 -190.96868,-34.76953 -65.132,-1.99993 -131.17549,-1.1914 -194.2207,-17.66797 -48.78618,-12.75001 -94.26008,-35.47652 -140.24219,-56.17187 -45.98213,-20.69535 -93.68395,-39.70288 -143.9043,-44.23828 -8.80209,-0.79492 -17.58793,-1.14108 -26.35742,-1.10547 z" /><path
           id="path9404"
           style="display:inline;fill:#266082;fill-opacity:0.88999999;stroke-width:7.281"
           d="m 371.84961,151.23897 c -61.38644,0.24925 -122.00042,19.1719 -182.22852,33.31055 C 127.31412,199.17617 63.838575,208.82792 0,213.38155 v 4 c 63.838575,-4.55363 127.31412,-14.20538 189.62109,-28.83203 68.83212,-16.15846 138.16922,-38.56444 208.58594,-32.20508 50.22035,4.5354 97.92217,23.54293 143.9043,44.23828 45.98211,20.69535 91.45601,43.42186 140.24219,56.17187 63.04521,16.47657 129.0887,15.66804 194.2207,17.66797 65.13199,1.99994 131.86308,7.33402 190.96878,34.76953 42.9383,19.93105 79.8217,50.60954 116.2636,80.82422 36.4421,30.21468 73.5565,60.67317 116.75,80.04492 48.2296,21.63032 101.5775,28.35969 153.9434,35.55469 52.3659,7.195 105.7219,15.43743 152.7109,39.64453 58.0237,29.89169 101.2672,81.36275 149.6016,125.22657 48.793,44.27996 103.9308,81.54988 163.1875,110.36132 v -4.0039 c -59.259,-28.81113 -114.3958,-66.07864 -163.1875,-110.35742 -48.3344,-43.86382 -91.5779,-95.33488 -149.6016,-125.22657 -46.989,-24.2071 -100.345,-32.44953 -152.7109,-39.64453 -52.3659,-7.195 -105.7138,-13.92437 -153.9434,-35.55469 -43.1935,-19.37175 -80.3079,-49.83024 -116.75,-80.04492 -36.4419,-30.21468 -73.3253,-60.89317 -116.2636,-80.82422 -59.1057,-27.43551 -125.83679,-32.76959 -190.96878,-34.76953 -65.132,-1.99993 -131.17549,-1.1914 -194.2207,-17.66797 -48.78618,-12.75001 -94.26008,-35.47652 -140.24219,-56.17187 -45.98213,-20.69535 -93.68395,-39.70288 -143.9043,-44.23828 -8.80209,-0.79492 -17.58793,-1.14108 -26.35742,-1.10547 z" /><path
           id="path9402"
           style="display:inline;fill:#266082;fill-opacity:0.80000001;stroke-width:7.281"
           d="m 371.84961,147.23897 c -61.38644,0.24925 -122.00042,19.1719 -182.22852,33.31055 C 127.31412,195.17617 63.838575,204.82792 0,209.38155 v 4 c 63.838575,-4.55363 127.31412,-14.20538 189.62109,-28.83203 68.83212,-16.15846 138.16922,-38.56444 208.58594,-32.20508 50.22035,4.5354 97.92217,23.54293 143.9043,44.23828 45.98211,20.69535 91.45601,43.42186 140.24219,56.17187 63.04521,16.47657 129.0887,15.66804 194.2207,17.66797 65.13199,1.99994 131.86308,7.33402 190.96878,34.76953 42.9383,19.93105 79.8217,50.60954 116.2636,80.82422 36.4421,30.21468 73.5565,60.67317 116.75,80.04492 48.2296,21.63032 101.5775,28.35969 153.9434,35.55469 52.3659,7.195 105.7219,15.43743 152.7109,39.64453 58.0237,29.89169 101.2672,81.36275 149.6016,125.22657 48.793,44.27996 103.9308,81.54988 163.1875,110.36132 v -4.0039 c -59.259,-28.81113 -114.3958,-66.07864 -163.1875,-110.35742 -48.3344,-43.86382 -91.5779,-95.33488 -149.6016,-125.22657 -46.989,-24.2071 -100.345,-32.44953 -152.7109,-39.64453 -52.3659,-7.195 -105.7138,-13.92437 -153.9434,-35.55469 -43.1935,-19.37175 -80.3079,-49.83024 -116.75,-80.04492 -36.4419,-30.21468 -73.3253,-60.89317 -116.2636,-80.82422 -59.1057,-27.43551 -125.83679,-32.76959 -190.96878,-34.76953 -65.132,-1.99993 -131.17549,-1.1914 -194.2207,-17.66797 -48.78618,-12.75001 -94.26008,-35.47652 -140.24219,-56.17187 -45.98213,-20.69535 -93.68395,-39.70288 -143.9043,-44.23828 -8.80209,-0.79492 -17.58793,-1.14108 -26.35742,-1.10547 z" /><path
           id="path9181"
           style="display:inline;fill:#266082;fill-opacity:0.75;stroke-width:7.281"
           d="m 371.84961,143.23897 c -61.38644,0.24925 -122.00042,19.1719 -182.22852,33.31055 C 127.31412,191.17617 63.838575,200.82792 0,205.38155 v 4 c 63.838575,-4.55363 127.31412,-14.20538 189.62109,-28.83203 68.83212,-16.15846 138.16922,-38.56444 208.58594,-32.20508 50.22035,4.5354 97.92217,23.54293 143.9043,44.23828 45.98211,20.69535 91.45601,43.42186 140.24219,56.17187 63.04521,16.47657 129.0887,15.66804 194.2207,17.66797 65.13199,1.99994 131.86308,7.33402 190.96878,34.76953 42.9383,19.93105 79.8217,50.60954 116.2636,80.82422 36.4421,30.21468 73.5565,60.67317 116.75,80.04492 48.2296,21.63032 101.5775,28.35969 153.9434,35.55469 52.3659,7.195 105.7219,15.43743 152.7109,39.64453 58.0237,29.89169 101.2672,81.36275 149.6016,125.22657 48.793,44.27996 103.9308,81.54988 163.1875,110.36132 v -4.0039 c -59.259,-28.81113 -114.3958,-66.07864 -163.1875,-110.35742 -48.3344,-43.86382 -91.5779,-95.33488 -149.6016,-125.22657 -46.989,-24.2071 -100.345,-32.44953 -152.7109,-39.64453 -52.3659,-7.195 -105.7138,-13.92437 -153.9434,-35.55469 -43.1935,-19.37175 -80.3079,-49.83024 -116.75,-80.04492 -36.4419,-30.21468 -73.3253,-60.89317 -116.2636,-80.82422 -59.1057,-27.43551 -125.83679,-32.76959 -190.96878,-34.76953 -65.132,-1.99993 -131.17549,-1.1914 -194.2207,-17.66797 -48.78618,-12.75001 -94.26008,-35.47652 -140.24219,-56.17187 -45.98213,-20.69535 -93.68395,-39.70288 -143.9043,-44.23828 -8.80209,-0.79492 -17.58793,-1.14108 -26.35742,-1.10547 z" /><path
           id="path9168"
           style="display:inline;fill:#266082;fill-opacity:0.69999999;stroke-width:7.281"
           d="m 371.84961,135.23897 c -61.38644,0.24925 -122.00042,19.1719 -182.22852,33.31055 C 127.31412,183.17617 63.838575,192.82792 0,197.38155 v 8 c 63.838575,-4.55363 127.31412,-14.20538 189.62109,-28.83203 68.83212,-16.15846 138.16922,-38.56444 208.58594,-32.20508 50.22035,4.5354 97.92217,23.54293 143.9043,44.23828 45.98211,20.69535 91.45601,43.42186 140.24219,56.17187 63.04521,16.47657 129.0887,15.66804 194.2207,17.66797 65.13199,1.99994 131.86308,7.33402 190.96878,34.76953 42.9383,19.93105 79.8217,50.60954 116.2636,80.82422 36.4421,30.21468 73.5565,60.67317 116.75,80.04492 48.2296,21.63032 101.5775,28.35969 153.9434,35.55469 52.3659,7.195 105.7219,15.43743 152.7109,39.64453 58.0237,29.89169 101.2672,81.36275 149.6016,125.22657 48.7928,44.27975 103.9311,81.54799 163.1875,110.35937 v -7.99805 c -59.2569,-28.81144 -114.3945,-66.08136 -163.1875,-110.36132 -48.3344,-43.86382 -91.5779,-95.33488 -149.6016,-125.22657 -46.989,-24.2071 -100.345,-32.44953 -152.7109,-39.64453 -52.3659,-7.195 -105.7138,-13.92437 -153.9434,-35.55469 -43.1935,-19.37175 -80.3079,-49.83024 -116.75,-80.04492 -36.4419,-30.21468 -73.3253,-60.89317 -116.2636,-80.82422 -59.1057,-27.43551 -125.83679,-32.76959 -190.96878,-34.76953 -65.132,-1.99993 -131.17549,-1.1914 -194.2207,-17.66797 -48.78618,-12.75001 -94.26008,-35.47652 -140.24219,-56.17187 -45.98213,-20.69535 -93.68395,-39.70288 -143.9043,-44.23828 -8.80209,-0.79492 -17.58793,-1.14108 -26.35742,-1.10547 z" /><path
           style="fill:#266082;fill-opacity:0.61;stroke-width:7.281"
           d="m 0,197.38155 c 26.612013,-1.93126 53.161416,-4.72514 79.592491,-8.37579 27.558049,-3.80631 54.989509,-8.54442 82.203259,-14.31899 18.3594,-3.89574 36.61575,-8.26217 54.83449,-12.77014 30.15724,-7.46198 60.25784,-15.32179 90.87769,-20.57206 13.76487,-2.36021 27.62693,-4.19075 41.55514,-5.21407 10.5803,-0.77734 21.19849,-1.08848 31.80296,-0.78492 10.27886,0.29423 20.54037,1.16607 30.72551,2.58186 7.28776,1.01304 14.53681,2.30446 21.72605,3.87051 -18.04587,-6.17418 -36.91232,-9.94514 -55.94502,-11.18211 -43.82732,-2.84841 -87.28316,7.66226 -130.08484,17.50924 -43.2576,9.95187 -86.69666,19.30806 -130.62702,25.66285 C 78.016804,179.378 39.035701,182.6361 0,183.53859 Z"
           id="path1152"
           inkscape:path-effect="#path-effect1154"
           inkscape:original-d="m 0,197.38155 c 15.199652,-1.59124 70.852878,-7.45506 79.592491,-8.37579 13.308051,-1.40202 72.932539,-12.33879 82.203259,-14.31899 12.26531,-2.61984 59.59709,-13.8568 54.83449,-12.77014 -7.23277,1.65026 87.57422,-19.99642 90.87769,-20.57206 1.67628,-0.2921 37.27148,-4.93116 41.55514,-5.21407 3.87243,-0.25574 29.71573,-0.93639 31.80296,-0.78492 2.2304,0.16186 21.48756,1.23984 30.72551,2.58186 9.23795,1.34203 18.66784,3.41421 21.72605,3.87051 -6.24949,-2.66191 -47.03821,-11.12002 -55.94502,-11.18211 -11.02129,-0.0768 -96.64173,12.80912 -130.08484,17.50924 -43.32732,6.08925 -113.79067,23.71069 -130.62702,25.66285 -13.79247,1.59922 -85.970161,6.71922 -116.66071,9.75066 0,4.71207 0.001,7.87168 0,13.84296 z"
           sodipodi:nodetypes="cssssssscssscc" /><path
           id="path4989"
           style="display:inline;fill:url(#radialGradient4992);fill-opacity:1;stroke-width:9.18804"
           d="m 854.18359,253.83467 a 339.79221,770.05487 0 0 0 54.71094,293.65235 c 31.66307,-7.44956 63.92244,-13.07788 95.83397,-18.20118 85.8108,-13.77663 172.8431,-25.80855 253.6973,-57.68164 15.4321,-6.08342 30.4883,-12.96617 45.3672,-20.22656 -1.0704,-0.46346 -2.1709,-0.83857 -3.2364,-1.31641 -43.1935,-19.37175 -80.3079,-49.83024 -116.75,-80.04492 -36.4419,-30.21468 -73.3254,-60.89317 -116.2636,-80.82422 -59.1057,-27.43551 -125.83679,-32.7696 -190.96878,-34.76953 -7.44677,-0.22866 -14.92586,-0.40264 -22.39063,-0.58789 z" /></g><g
         id="g4893"
         style="display:inline;opacity:0.92857103"><path
           id="path1877"
           style="display:inline;fill:url(#radialGradient3726);fill-opacity:1;stroke-width:7.34984"
           d="m 1787.9922,292.47852 c -73.5033,-2.75398 -147.5913,9.35501 -216.1406,36.06054 -110.0313,42.86614 -203.5653,120.90613 -313.4239,164.21289 -80.8542,31.87309 -167.8864,43.90305 -253.6972,57.67969 -88.507,14.2095 -179.84435,31.81736 -253.0098,83.60742 -43.14529,30.54034 -77.72798,71.50661 -110.17578,113.23633 -32.44781,41.72973 -63.4659,84.91939 -101.40234,121.73047 C 469.41512,937.63524 378.34526,980.70204 298.00781,1037.7832 233.88152,1083.346 176.36607,1138.1818 127.7207,1200 h 1792.2168 l -1.5918,-886.45508 c -42.36,-12.41036 -86.2516,-19.41402 -130.3535,-21.0664 z"
           transform="translate(0,-2)"
           sodipodi:insensitive="true" /><path
           id="path10895"
           style="display:inline;fill:url(#linearGradient10898);fill-opacity:1;stroke-width:7.34984"
           d="m 1760.4102,280.14453 c -64.3591,0.83753 -128.5781,13.02723 -188.5586,36.39453 -110.0312,42.8661 -203.5673,120.90617 -313.4258,164.21289 -80.8541,31.87306 -167.8866,43.90503 -253.6973,57.68164 -88.50685,14.20949 -179.84437,31.81546 -253.00975,83.60547 -43.14526,30.54031 -77.72801,71.50665 -110.17578,113.23633 -32.44777,41.72968 -63.46593,84.91943 -101.40235,121.73047 -70.72737,68.6293 -161.79739,111.69815 -242.13476,168.77934 -68.2139,48.4671 -128.82615,107.5175 -179.35742,174.2148 h 9.45117 c 48.59828,-61.7554 105.84348,-116.6971 169.90625,-162.2148 80.33737,-57.08119 171.40739,-100.15004 242.13476,-168.77934 37.93642,-36.81104 68.95458,-80.00079 101.40235,-121.73047 32.44777,-41.72968 67.03052,-82.69602 110.17578,-113.23633 73.16538,-51.79001 164.5029,-69.39598 253.00975,-83.60547 85.8107,-13.77661 172.8432,-25.80858 253.6973,-57.68164 109.8585,-43.30672 203.3946,-121.34679 313.4258,-164.21289 109.6787,-42.72879 233.5341,-48.08841 346.4941,-14.99414 L 1919.9355,1200 h 0.022 l -2.6977,-898.72461 c -42.36,-12.41035 -85.1671,-19.14254 -129.2691,-20.79492 -9.1879,-0.34425 -18.3859,-0.45559 -27.58,-0.33594 z"
           transform="translate(0,-2)"
           sodipodi:nodetypes="ssssssssccsssssssccccsss" /><path
           id="path9425"
           style="display:inline;fill:url(#linearGradient10893);fill-opacity:1;stroke-width:7.34984"
           d="m 1760.4102,266.14453 c -64.3591,0.83753 -128.5781,13.02723 -188.5586,36.39453 -110.0312,42.8661 -203.5673,120.90617 -313.4258,164.21289 -80.8541,31.87306 -167.8866,43.90503 -253.6973,57.68164 -88.50685,14.20949 -179.84437,31.81546 -253.00975,83.60547 -43.14526,30.54031 -77.72801,71.50665 -110.17578,113.23633 C 609.0952,763.00507 578.07704,806.19482 540.14062,843.00586 469.41325,911.63516 378.34323,954.70401 298.00586,1011.7852 225.70356,1063.1571 161.8254,1126.3309 109.57422,1198 h 9.12695 c 50.5248,-66.6886 111.09968,-125.754 179.30469,-174.2148 80.33737,-57.08119 171.40739,-100.15004 242.13476,-168.77934 37.93642,-36.81104 68.95458,-80.00079 101.40235,-121.73047 32.44777,-41.72968 67.03052,-82.69602 110.17578,-113.23633 73.16538,-51.79001 164.5029,-69.39598 253.00975,-83.60547 85.8107,-13.77661 172.8432,-25.80858 253.6973,-57.68164 109.8585,-43.30672 203.3946,-121.34679 313.4258,-164.21289 109.3309,-42.59333 235.4779,-43.86333 348.1484,-11.11701 v -10.1778 c -42.0267,-12.21429 -88.2815,-25.12541 -132.0098,-26.76378 -9.1879,-0.34425 -18.3859,-0.45559 -27.58,-0.33594 z"
           sodipodi:nodetypes="ssssssssccsssssssccss" /><path
           id="path4705"
           style="display:inline;fill:url(#radialGradient4889);fill-opacity:1;stroke-width:9.88344"
           d="m 1190.1828,-1152.6403 c -22.2601,104.4544 -21.3656,211.45982 -50.0182,315.23861 -23.7762,86.11766 -67.1873,167.17978 -108.4584,248.10312 -14.5593,28.54759 -28.8835,57.61916 -41.71337,87.07237 25.88717,63.32532 62.27687,116.21305 105.28417,156.33883 2.6463,-3.74401 5.4058,-7.42608 7.9981,-11.19319 26.7653,-38.89483 51.4366,-79.23632 81.2326,-116.01758 61.8576,-76.35881 145.5404,-135.69043 236.4913,-167.28 23.3701,-8.117 47.0461,-14.31174 70.8801,-19.54729 -5.6467,-31.99364 -15.8268,-62.81964 -25.5848,-93.51105 -12.95,-40.73046 -25.3404,-82.41856 -25.4015,-126.42354 -0.056,-40.15422 10.1993,-80.76423 23.7455,-120.01413 10.5607,-30.59935 23.1035,-60.65915 34.7145,-90.97545 -58.2007,-54.2585 -128.0806,-84.2572 -200.4026,-84.7327 -36.9539,0.048 -73.6676,7.7919 -108.7674,22.942 z"
           transform="matrix(0.51950105,0.85446981,-0.79544747,0.60602254,0,0)"
           sodipodi:insensitive="true" /></g><g
         id="g4703"
         style="display:inline"><path
           id="path1958"
           style="display:inline;fill:url(#radialGradient3736);fill-opacity:1;stroke-width:6.93461"
           d="M 0.03125 529.3418 L 0 534.81055 L 0 1200 L 1627.918 1200 C 1553.6083 1159.7632 1485.4952 1108.0849 1427.084 1047.0117 C 1366.4472 983.61167 1315.7937 910.15618 1247.5977 854.96875 C 1175.2206 796.39796 1084.5521 760.84973 991.67773 754.26953 C 946.9411 751.0999 902.03471 754.4669 857.19141 755.16797 C 812.34809 755.86905 766.82057 753.79186 724.0918 740.16602 C 678.73362 725.70168 638.49358 698.88868 598.95508 672.36914 C 559.41657 645.8496 519.24085 618.96346 473.93945 604.32227 C 425.33169 588.61246 373.24507 587.80112 322.19727 589.70703 C 271.14944 591.61293 219.8852 596.08169 169.11719 590.41406 C 109.00802 583.70362 50.554437 562.5916 0.03125 529.3418 z "
           transform="translate(0,-4.8522464)" /><path
           id="path2827"
           style="display:inline;fill:url(#linearGradient2835);fill-opacity:1;stroke-width:6.93461"
           d="M 0.03125 525.3418 L 0 530.81055 L 0 534.81055 L 0.03125 529.3418 C 50.554437 562.59161 109.00802 583.70361 169.11719 590.41406 C 219.8852 596.08169 271.14944 591.61293 322.19727 589.70703 C 373.24507 587.80113 425.33169 588.61247 473.93945 604.32227 C 519.24085 618.96347 559.41657 645.84959 598.95508 672.36914 C 638.49359 698.88868 678.73362 725.70169 724.0918 740.16602 C 766.82058 753.79187 812.34809 755.86904 857.19141 755.16797 C 902.0347 754.46689 946.9411 751.0999 991.67773 754.26953 C 1084.5521 760.84974 1175.2206 796.39795 1247.5977 854.96875 C 1315.7937 910.15618 1366.4472 983.61161 1427.084 1047.0117 C 1485.5515 1108.1436 1553.7715 1159.7862 1628.1816 1200 L 1635.3398 1200 C 1558.1358 1159.2158 1487.4381 1106.1161 1427.084 1043.0117 C 1366.4472 979.61161 1315.7937 906.15618 1247.5977 850.96875 C 1175.2206 792.39795 1084.5521 756.84974 991.67773 750.26953 C 946.9411 747.0999 902.0347 750.46689 857.19141 751.16797 C 812.34809 751.86904 766.82058 749.79187 724.0918 736.16602 C 678.73362 721.70169 638.49359 694.88868 598.95508 668.36914 C 559.41657 641.84959 519.24085 614.96347 473.93945 600.32227 C 425.33169 584.61247 373.24507 583.80113 322.19727 585.70703 C 271.14944 587.61293 219.8852 592.08169 169.11719 586.41406 C 109.00802 579.70361 50.554437 558.59161 0.03125 525.3418 z "
           transform="translate(0,-4.8522464)" /><path
           id="path12215"
           style="display:inline;fill:url(#linearGradient2831);fill-opacity:1;stroke-width:6.93461"
           d="M 0.03125 521.3418 L 0 526.81055 L 0 530.81055 L 0.03125 525.3418 C 50.554437 558.59161 109.00802 579.70361 169.11719 586.41406 C 219.8852 592.08169 271.14944 587.61293 322.19727 585.70703 C 373.24507 583.80113 425.33169 584.61247 473.93945 600.32227 C 519.24085 614.96347 559.41657 641.84959 598.95508 668.36914 C 638.49359 694.88868 678.73362 721.70169 724.0918 736.16602 C 766.82058 749.79187 812.34809 751.86904 857.19141 751.16797 C 902.0347 750.46689 946.9411 747.0999 991.67773 750.26953 C 1084.5521 756.84974 1175.2206 792.39795 1247.5977 850.96875 C 1315.7937 906.15618 1366.4472 979.61171 1427.084 1043.0117 C 1487.5556 1106.2392 1558.5065 1159.2249 1635.9043 1200 L 1643.25 1200 C 1562.9798 1158.7052 1489.4806 1104.2517 1427.084 1039.0117 C 1366.4472 975.61171 1315.7937 902.15618 1247.5977 846.96875 C 1175.2206 788.39795 1084.5521 752.84974 991.67773 746.26953 C 946.9411 743.0999 902.0347 746.46689 857.19141 747.16797 C 812.34809 747.86904 766.82058 745.79187 724.0918 732.16602 C 678.73362 717.70169 638.49359 690.88868 598.95508 664.36914 C 559.41657 637.84959 519.24085 610.96347 473.93945 596.32227 C 425.33169 580.61247 373.24507 579.80113 322.19727 581.70703 C 271.14944 583.61293 219.8852 588.08169 169.11719 582.41406 C 109.00802 575.70361 50.554437 554.59161 0.03125 521.3418 z "
           transform="translate(0,-4.8522464)" /><path
           id="path2829"
           style="display:inline;fill:url(#linearGradient12243);fill-opacity:1;stroke-width:6.93461"
           d="M 0.03125 512.48955 L 0 517.9583 L 0 521.9583 L 0.03125 516.48955 C 50.554437 549.73937 109.00802 570.85136 169.11719 577.56182 C 219.8852 583.22944 271.14944 578.76068 322.19727 576.85478 C 373.24507 574.94889 425.33169 575.76022 473.93945 591.47002 C 519.24085 606.11122 559.41657 632.99734 598.95508 659.51689 C 638.49359 686.03644 678.73362 712.84944 724.0918 727.31377 C 766.82058 740.93963 812.34809 743.01679 857.19141 742.31572 C 902.0347 741.61464 946.9411 738.24766 991.67773 741.41728 C 1084.5521 747.9975 1175.2206 783.5457 1247.5977 842.1165 C 1315.7937 897.30394 1366.4472 970.75942 1427.084 1034.1595 C 1489.5598 1099.4824 1563.2214 1153.8706 1643.627 1195.1478 L 1651.1582 1195.1478 C 1567.802 1153.4053 1491.5227 1097.5347 1427.084 1030.1595 C 1366.4472 966.75942 1315.7937 893.30394 1247.5977 838.1165 C 1175.2206 779.5457 1084.5521 743.9975 991.67773 737.41728 C 946.9411 734.24766 902.0347 737.61464 857.19141 738.31572 C 812.34809 739.01679 766.82058 736.93963 724.0918 723.31377 C 678.73362 708.84944 638.49359 682.03644 598.95508 655.51689 C 559.41657 628.99734 519.24085 602.11122 473.93945 587.47002 C 425.33169 571.76022 373.24507 570.94889 322.19727 572.85478 C 271.14944 574.76068 219.8852 579.22944 169.11719 573.56182 C 109.00802 566.85136 50.554437 545.73937 0.03125 512.48955 z " /><path
           id="path2825"
           style="display:inline;fill:url(#linearGradient2833);fill-opacity:1;stroke-width:6.93461"
           d="M 0.03125 510.48955 L 0 515.9583 L 0 519.9583 L 0.03125 514.48955 C 50.554437 547.73937 109.00802 568.85136 169.11719 575.56182 C 219.8852 581.22944 271.14944 576.76068 322.19727 574.85478 C 373.24507 572.94889 425.33169 573.76022 473.93945 589.47002 C 519.24085 604.11122 559.41657 630.99734 598.95508 657.51689 C 638.49359 684.03644 678.73362 710.84944 724.0918 725.31377 C 766.82058 738.93963 812.34809 741.01679 857.19141 740.31572 C 902.0347 739.61464 946.9411 736.24766 991.67773 739.41728 C 1084.5521 745.9975 1175.2206 781.5457 1247.5977 840.1165 C 1315.7937 895.30394 1366.4472 968.75942 1427.084 1032.1595 C 1491.5639 1099.5779 1567.917 1155.4284 1651.3496 1197.1478 L 1659.0664 1197.1478 C 1572.6046 1155.0212 1493.5648 1097.6698 1427.084 1028.1595 C 1366.4472 964.75942 1315.7937 891.30394 1247.5977 836.1165 C 1175.2206 777.5457 1084.5521 741.9975 991.67773 735.41728 C 946.9411 732.24766 902.0347 735.61464 857.19141 736.31572 C 812.34809 737.01679 766.82058 734.93963 724.0918 721.31377 C 678.73362 706.84944 638.49359 680.03644 598.95508 653.51689 C 559.41657 626.99734 519.24085 600.11122 473.93945 585.47002 C 425.33169 569.76022 373.24507 568.94889 322.19727 570.85478 C 271.14944 572.76068 219.8852 577.22944 169.11719 571.56182 C 109.00802 564.85136 50.554437 543.73937 0.03125 510.48955 z "
           transform="translate(0,-2)" /><path
           id="path11247"
           style="display:inline;fill:url(#linearGradient12233);fill-opacity:1;stroke-width:6.93461"
           d="M 0.03125 506.48955 L 0 511.9583 L 0 515.9583 L 0.03125 510.48955 C 50.554437 543.73937 109.00802 564.85136 169.11719 571.56182 C 219.8852 577.22944 271.14944 572.76068 322.19727 570.85478 C 373.24507 568.94889 425.33169 569.76022 473.93945 585.47002 C 519.24085 600.11122 559.41657 626.99734 598.95508 653.51689 C 638.49359 680.03644 678.73362 706.84944 724.0918 721.31377 C 766.82058 734.93963 812.34809 737.01679 857.19141 736.31572 C 902.0347 735.61464 946.9411 732.24766 991.67773 735.41728 C 1084.5521 741.9975 1175.2206 777.5457 1247.5977 836.1165 C 1315.7937 891.30394 1366.4472 964.75942 1427.084 1028.1595 C 1495.1781 1099.3568 1576.515 1157.6402 1665.4551 1199.9993 L 1673.5625 1199.9993 C 1581.4312 1157.3462 1497.2603 1097.5338 1427.084 1024.1595 C 1366.4472 960.75942 1315.7937 887.30394 1247.5977 832.1165 C 1175.2206 773.5457 1084.5521 737.9975 991.67773 731.41728 C 946.9411 728.24766 902.0347 731.61464 857.19141 732.31572 C 812.34809 733.01679 766.82058 730.93963 724.0918 717.31377 C 678.73362 702.84944 638.49359 676.03644 598.95508 649.51689 C 559.41657 622.99734 519.24085 596.11122 473.93945 581.47002 C 425.33169 565.76022 373.24507 564.94889 322.19727 566.85478 C 271.14944 568.76068 219.8852 573.22944 169.11719 567.56182 C 109.00802 560.85136 50.554437 539.73937 0.03125 506.48955 z "
           transform="translate(0,-2)" /><path
           id="path10957"
           style="display:inline;fill:url(#linearGradient12223);fill-opacity:1;stroke-width:6.93461"
           d="M 0.03125,500.49023 0,505.95898 v 4 l 0.03125,-5.46875 c 50.523238,33.24985 108.97671,54.36181 169.08594,61.07227 50.76806,5.66763 102.0322,1.19887 153.08008,-0.70703 51.04786,-1.9059 103.13437,-1.09458 151.74218,14.61523 45.30144,14.64122 85.47708,41.5273 125.01563,68.04688 39.53855,26.51957 79.7785,53.33253 125.13672,67.79687 42.72883,13.62587 88.25625,15.70303 133.09961,15.00196 44.84334,-0.70108 89.74964,-4.06807 134.48632,-0.89844 92.87447,6.58022 183.54287,42.12836 255.91997,100.69922 68.1961,55.18749 118.8495,128.64289 179.4863,192.04301 70.2793,73.482 154.6707,133.1927 246.9687,175.8398 h 8.3672 c -95.5962,-42.8661 -182.92,-104.1238 -255.3359,-179.8398 -60.6368,-63.40012 -111.2902,-136.85552 -179.4863,-192.04301 -72.3771,-58.57086 -163.0455,-94.119 -255.91997,-100.69922 -44.73668,-3.16963 -89.64298,0.19736 -134.48632,0.89844 -44.84336,0.70107 -90.37078,-1.37609 -133.09961,-15.00196 C 678.73358,696.85011 638.49363,670.03715 598.95508,643.51758 559.41653,616.998 519.24089,590.11192 473.93945,575.4707 425.33164,559.76089 373.24513,558.94957 322.19727,560.85547 271.14939,562.76137 219.88525,567.23013 169.11719,561.5625 109.00796,554.85204 50.554488,533.74008 0.03125,500.49023 Z" /><path
           id="path4564-5"
           style="display:inline;fill:url(#radialGradient4682);fill-opacity:1;stroke-width:14.0435"
           d="m -468.37224,531.00248 c -2.83599,-12.17981 -6.02562,-24.24412 -9.36832,-36.18904 -5.91637,-21.14179 -12.22735,-42.19005 -18.05422,-63.3865 a 349.60776,921.49243 0 0 0 -192.84609,798.06516 l 0.45851,76.5894 a 349.60776,921.49243 0 0 0 35.36574,352.7547 c 43.15827,-64.6964 90.83868,-127.0673 123.27778,-196.737 41.16564,-88.4117 55.61975,-186.4082 41.15265,-276.7259 -6.96867,-43.5052 -20.38946,-84.9662 -31.1802,-127.2669 -10.79074,-42.3005 -19.0095,-86.18726 -15.26581,-131.31486 3.97404,-47.90457 21.21803,-95.11954 38.33217,-141.57018 17.11412,-46.45065 34.44438,-93.62927 38.60476,-141.53964 3.34803,-38.5554 -1.969,-76.13984 -10.47697,-112.67924 z"
           transform="matrix(0.33505165,-0.94219976,0.97464011,0.22377813,0,0)" /></g><g
         id="g4680"
         style="display:inline"
         transform="translate(2)"><path
           id="path1990"
           style="display:inline;fill:url(#radialGradient3746);fill-opacity:1;stroke-width:7.281"
           d="m 1917.248,509.43945 c -29.9085,26.24415 -62.2667,49.6951 -96.5175,69.94727 -46.6761,27.59903 -96.8099,49.21964 -148.6114,65.25 -38.3651,11.8724 -77.632,20.69469 -115.8906,32.90625 -38.2585,12.21156 -75.8891,28.05934 -107.8008,52.44141 -34.9719,26.72027 -61.6957,62.57131 -87.3672,98.32031 -25.6713,35.749 -51.129,72.29004 -84.3535,101.15429 -55.3566,48.09186 -127.599,71.07012 -191.3847,107.24412 -69.9747,39.684 -130.19353,96.2564 -174.62699,163.2969 H 1915.2598 Z"
           transform="translate(0,-2)" /><path
           id="path12632"
           style="display:inline;fill:url(#linearGradient12650);fill-opacity:1;stroke-width:7.281"
           d="m 1917.248,499.43945 c -29.9084,26.24412 -62.2667,49.69512 -96.5175,69.94727 -46.6761,27.599 -96.8099,49.21965 -148.6114,65.25 -38.3651,11.87239 -77.632,20.6947 -115.8906,32.90625 -38.2585,12.21154 -75.8891,28.05936 -107.8008,52.44141 -34.9719,26.72023 -61.6957,62.57134 -87.3672,98.32031 -25.6713,35.74896 -51.129,72.29007 -84.3535,101.15429 -55.3565,48.09182 -127.5991,71.07011 -191.3847,107.24412 -73.4136,41.6342 -136.02124,101.8911 -180.98441,173.2969 h 6.7168 c 44.38544,-66.9966 104.34611,-123.6431 174.26761,-163.2969 63.7856,-36.174 136.0282,-59.1523 191.3847,-107.24412 33.2245,-28.86422 58.6822,-65.40533 84.3535,-101.15429 25.6715,-35.74897 52.3953,-71.60008 87.3672,-98.32031 31.9117,-24.38205 69.5423,-40.22987 107.8008,-52.44141 38.2586,-12.21155 77.5255,-21.03386 115.8906,-32.90625 51.8015,-16.03035 101.9353,-37.651 148.6114,-65.25 34.24,-20.24578 66.5876,-43.68972 96.4883,-69.92383 z"
           transform="translate(0,-2)" /><path
           id="path12634"
           style="display:inline;fill:url(#linearGradient12642);fill-opacity:1;stroke-width:7.281"
           d="m 1917.248,489.43945 c -29.9084,26.24412 -62.2667,49.69512 -96.5175,69.94727 -46.6761,27.599 -96.8099,49.21965 -148.6114,65.25 -38.3651,11.87239 -77.632,20.6947 -115.8906,32.90625 -38.2585,12.21154 -75.8891,28.05936 -107.8008,52.44141 -34.9719,26.72023 -61.6957,62.57134 -87.3672,98.32031 -25.6713,35.74896 -51.129,72.29007 -84.3535,101.15429 -55.3565,48.09182 -127.5991,71.07011 -191.3847,107.24412 -76.8007,43.5551 -141.71451,107.5258 -187.01566,183.2969 h 6.42383 c 44.93133,-71.3436 107.23833,-131.6967 180.59183,-173.2969 63.7856,-36.17401 136.0282,-59.1523 191.3847,-107.24412 33.2245,-28.86422 58.6822,-65.40533 84.3535,-101.15429 25.6715,-35.74897 52.3953,-71.60008 87.3672,-98.32031 31.9117,-24.38205 69.5423,-40.22987 107.8008,-52.44141 38.2586,-12.21155 77.5255,-21.03386 115.8906,-32.90625 51.8015,-16.03035 101.9353,-37.651 148.6114,-65.25 34.24,-20.24578 66.5876,-43.68972 96.4883,-69.92383 z"
           transform="translate(0,-2)" /><path
           id="path12411"
           style="display:inline;fill:url(#linearGradient12658);fill-opacity:1;stroke-width:7.281"
           d="m 1917.248,477.43945 c -29.9084,26.24412 -62.2667,49.69512 -96.5175,69.94727 -46.6761,27.599 -96.8099,49.21965 -148.6114,65.25 -38.3651,11.87239 -77.632,20.6947 -115.8906,32.90625 -38.2585,12.21154 -75.8891,28.05936 -107.8008,52.44141 -34.9719,26.72023 -61.6957,62.57134 -87.3672,98.32031 -25.6713,35.74896 -51.129,72.29007 -84.3535,101.15429 -55.3565,48.09182 -127.5991,71.07011 -191.3847,107.24412 C 1005.1347,1050.179 937.72984,1117.8033 892.27734,1198 h 6.13086 c 45.29329,-75.755 110.1289,-139.7505 186.9141,-183.2969 63.7856,-36.17401 136.0282,-59.1523 191.3847,-107.24412 33.2245,-28.86422 58.6822,-65.40533 84.3535,-101.15429 25.6715,-35.74897 52.3953,-71.60008 87.3672,-98.32031 31.9117,-24.38205 69.5423,-40.22987 107.8008,-52.44141 38.2586,-12.21155 77.5255,-21.03386 115.8906,-32.90625 51.8015,-16.03035 101.9353,-37.651 148.6114,-65.25 34.24,-20.24578 66.5876,-43.68972 96.4883,-69.92383 z" /><path
           id="path4564"
           style="display:inline;fill:url(#radialGradient4624);fill-opacity:1;stroke-width:9.18804"
           d="m 1681.1898,-243.86599 c -4.1024,4.36992 -8.2502,8.69816 -12.2537,13.16042 -26.8191,29.89259 -51.2567,62.60379 -66.443,99.78191 -16.6427,40.743466 -21.5507,85.18866 -25.6027,129.0132228 -4.052,43.8245122 -7.5188,88.2241672 -21.5693,129.9325772 -23.4101,69.49201 -74.0927,125.86797 -110.8038,189.34609 -14.9406,25.83412 -27.2883,53.09299 -37.4819,81.13763 a 405.83688,339.79221 90 0 0 11.8346,0.47963 405.83688,339.79221 90 0 0 327.3313,-411.965106 405.83688,339.79221 90 0 0 -65.0115,-230.886374 z"
           transform="rotate(30.399692)" /></g></g></g><rect
     style="display:inline;opacity:0.171034;fill:#27678d;fill-rule:evenodd"
     id="rect10287"
     width="1920"
     height="1200"
     x="0"
     y="0"
     sodipodi:insensitive="true" /><g
     id="layer6"
     style="display:inline"
     sodipodi:insensitive="true"><g
       id="g880001"
       style="display:inline;fill:#51a1d0;fill-opacity:1"
       transform="matrix(0.98475674,0,0,0.98475674,1229.1579,591.67491)"><path
         i:knockout="Off"
         fill="#51a1d0"
         d="m 51.986,57.297 c -1.797,0.025 0.34,0.926 2.686,1.287 0.648,-0.506 1.236,-1.018 1.76,-1.516 -1.461,0.358 -2.948,0.366 -4.446,0.229"
         id="path879977"
         style="fill:#51a1d0;fill-opacity:1" /><path
         i:knockout="Off"
         fill="#51a1d0"
         d="m 61.631,54.893 c 1.07,-1.477 1.85,-3.094 2.125,-4.766 -0.24,1.192 -0.887,2.221 -1.496,3.307 -3.359,2.115 -0.316,-1.256 -0.002,-2.537 -3.612,4.546 -0.496,2.726 -0.627,3.996"
         id="path879979"
         style="fill:#51a1d0;fill-opacity:1" /><path
         i:knockout="Off"
         fill="#51a1d0"
         d="m 65.191,45.629 c 0.217,-3.236 -0.637,-2.213 -0.924,-0.978 0.335,0.174 0.6,2.281 0.924,0.978"
         id="path879981"
         style="fill:#51a1d0;fill-opacity:1" /><path
         i:knockout="Off"
         fill="#51a1d0"
         d="m 45.172,1.399 c 0.959,0.172 2.072,0.304 1.916,0.533 1.049,-0.23 1.287,-0.442 -1.916,-0.533"
         id="path879983"
         style="fill:#51a1d0;fill-opacity:1" /><path
         i:knockout="Off"
         fill="#51a1d0"
         d="M 47.088,1.932 46.41,2.072 47.041,2.016 47.088,1.932"
         id="path879985"
         style="fill:#51a1d0;fill-opacity:1" /><path
         i:knockout="Off"
         fill="#51a1d0"
         d="m 76.992,46.856 c 0.107,2.906 -0.85,4.316 -1.713,6.812 l -1.553,0.776 c -1.271,2.468 0.123,1.567 -0.787,3.53 -1.984,1.764 -6.021,5.52 -7.313,5.863 -0.943,-0.021 0.639,-1.113 0.846,-1.541 -2.656,1.824 -2.131,2.738 -6.193,3.846 L 60.16,65.878 C 50.142,70.591 36.226,61.251 36.409,48.507 c -0.107,0.809 -0.304,0.607 -0.526,0.934 -0.517,-6.557 3.028,-13.143 9.007,-15.832 5.848,-2.895 12.704,-1.707 16.893,2.197 -2.301,-3.014 -6.881,-6.209 -12.309,-5.91 -5.317,0.084 -10.291,3.463 -11.951,7.131 -2.724,1.715 -3.04,6.611 -4.227,7.507 -1.597,11.737 3.004,16.808 10.787,22.773 1.225,0.826 0.345,0.951 0.511,1.58 -2.586,-1.211 -4.954,-3.039 -6.901,-5.277 1.033,1.512 2.148,2.982 3.589,4.137 -2.438,-0.826 -5.695,-5.908 -6.646,-6.115 4.203,7.525 17.052,13.197 23.78,10.383 -3.113,0.115 -7.068,0.064 -10.566,-1.229 -1.469,-0.756 -3.467,-2.322 -3.11,-2.615 9.182,3.43 18.667,2.598 26.612,-3.771 2.021,-1.574 4.229,-4.252 4.867,-4.289 -0.961,1.445 0.164,0.695 -0.574,1.971 2.014,-3.248 -0.875,-1.322 2.082,-5.609 l 1.092,1.504 c -0.406,-2.696 3.348,-5.97 2.967,-10.234 0.861,-1.304 0.961,1.403 0.047,4.403 1.268,-3.328 0.334,-3.863 0.66,-6.609 0.352,0.923 0.814,1.904 1.051,2.878 -0.826,-3.216 0.848,-5.416 1.262,-7.285 -0.408,-0.181 -1.275,1.422 -1.473,-2.377 0.029,-1.65 0.459,-0.865 0.625,-1.271 -0.324,-0.186 -1.174,-1.451 -1.691,-3.877 0.375,-0.57 1.002,1.478 1.512,1.562 -0.328,-1.929 -0.893,-3.4 -0.916,-4.88 -1.49,-3.114 -0.527,0.415 -1.736,-1.337 -1.586,-4.947 1.316,-1.148 1.512,-3.396 2.404,3.483 3.775,8.881 4.404,11.117 -0.48,-2.726 -1.256,-5.367 -2.203,-7.922 0.73,0.307 -1.176,-5.609 0.949,-1.691 C 83.519,18.706 76.074,10.902 69.225,7.24 70.063,8.007 71.121,8.97 70.741,9.121 67.335,7.093 67.934,6.935 67.446,6.078 64.671,4.949 64.489,6.169 62.651,6.08 57.421,3.306 56.413,3.601 51.6,1.863 l 0.219,1.023 c -3.465,-1.154 -4.037,0.438 -7.782,0.004 -0.228,-0.178 1.2,-0.644 2.375,-0.815 -3.35,0.442 -3.193,-0.66 -6.471,0.122 0.808,-0.567 1.662,-0.942 2.524,-1.424 -2.732,0.166 -6.522,1.59 -5.352,0.295 -4.456,1.988 -12.37,4.779 -16.811,8.943 l -0.14,-0.933 c -2.035,2.443 -8.874,7.296 -9.419,10.46 l -0.544,0.127 c -1.059,1.793 -1.744,3.825 -2.584,5.67 -1.385,2.36 -2.03,0.908 -1.833,1.278 -2.724,5.523 -4.077,10.164 -5.246,13.97 0.833,1.245 0.02,7.495 0.335,12.497 -1.368,24.704 17.338,48.69 37.785,54.228 2.997,1.072 7.454,1.031 11.245,1.141 -4.473,-1.279 -5.051,-0.678 -9.408,-2.197 -3.143,-1.48 -3.832,-3.17 -6.058,-5.102 l 0.881,1.557 c -4.366,-1.545 -2.539,-1.912 -6.091,-3.037 l 0.941,-1.229 C 28.751,98.334 26.418,96.056 25.78,94.795 l -1.548,0.061 c -1.86,-2.295 -2.851,-3.949 -2.779,-5.23 l -0.5,0.891 c -0.567,-0.973 -6.843,-8.607 -3.587,-6.83 -0.605,-0.553 -1.409,-0.9 -2.281,-2.484 l 0.663,-0.758 c -1.567,-2.016 -2.884,-4.6 -2.784,-5.461 0.836,1.129 1.416,1.34 1.99,1.533 -3.957,-9.818 -4.179,-0.541 -7.176,-9.994 L 8.412,66.472 C 7.926,65.74 7.631,64.945 7.24,64.165 l 0.276,-2.75 C 4.667,58.121 6.719,47.409 7.13,41.534 7.415,39.145 9.508,36.602 11.1,32.614 l -0.97,-0.167 c 1.854,-3.234 10.586,-12.988 14.63,-12.486 1.959,-2.461 -0.389,-0.009 -0.772,-0.629 4.303,-4.453 5.656,-3.146 8.56,-3.947 3.132,-1.859 -2.688,0.725 -1.203,-0.709 5.414,-1.383 3.837,-3.144 10.9,-3.846 0.745,0.424 -1.729,0.655 -2.35,1.205 4.511,-2.207 14.275,-1.705 20.617,1.225 7.359,3.439 15.627,13.605 15.953,23.17 l 0.371,0.1 c -0.188,3.802 0.582,8.199 -0.752,12.238 l 0.908,-1.912"
         id="path879987"
         style="fill:#51a1d0;fill-opacity:1" /><path
         i:knockout="Off"
         fill="#51a1d0"
         d="m 32.372,59.764 -0.252,1.26 c 1.181,1.604 2.118,3.342 3.626,4.596 -1.085,-2.118 -1.891,-2.993 -3.374,-5.856"
         id="path879989"
         style="fill:#51a1d0;fill-opacity:1" /><path
         i:knockout="Off"
         fill="#51a1d0"
         d="m 35.164,59.654 c -0.625,-0.691 -0.995,-1.523 -1.409,-2.352 0.396,1.457 1.207,2.709 1.962,3.982 l -0.553,-1.63"
         id="path879991"
         style="fill:#51a1d0;fill-opacity:1" /><path
         i:knockout="Off"
         fill="#51a1d0"
         d="m 84.568,48.916 -0.264,0.662 c -0.484,3.438 -1.529,6.84 -3.131,9.994 1.77,-3.328 2.915,-6.968 3.395,-10.656"
         id="path879993"
         style="fill:#51a1d0;fill-opacity:1" /><path
         i:knockout="Off"
         fill="#51a1d0"
         d="M 45.527,0.537 C 46.742,0.092 48.514,0.293 49.803,0 48.123,0.141 46.451,0.225 44.8,0.438 l 0.727,0.099"
         id="path879995"
         style="fill:#51a1d0;fill-opacity:1" /><path
         i:knockout="Off"
         fill="#51a1d0"
         d="m 2.872,23.219 c 0.28,2.592 -1.95,3.598 0.494,1.889 1.31,-2.951 -0.512,-0.815 -0.494,-1.889"
         id="path879997"
         style="fill:#51a1d0;fill-opacity:1" /><path
         i:knockout="Off"
         fill="#51a1d0"
         d="M 0,35.215 C 0.563,33.487 0.665,32.449 0.88,31.449 -0.676,33.438 0.164,33.862 0,35.215"
         id="path879999"
         style="fill:#51a1d0;fill-opacity:1" /></g></g><g
     id="g6013"
     style="display:inline"><path
       id="rect4435"
       style="fill:#27678d;fill-rule:evenodd"
       d="M 20.26432,-113.06664 H 88.693 v 56.82128 H 20.26432 Z" /><path
       id="rect4435-3"
       style="fill:#435c7b;fill-rule:evenodd"
       d="M 20.26432,-165.29737 H 88.693 v 56.82128 H 20.26432 Z" /><path
       id="rect4447"
       style="fill:#265a78;fill-rule:evenodd;stroke-width:0.729452"
       d="m 443.46801,-108.47609 h 73.48208 v 56.821279 h -73.48208 z" /><path
       id="rect4447-6"
       style="fill:#3d526a;fill-rule:evenodd;stroke-width:0.729452"
       d="m 443.46801,-165.29737 h 73.48208 v 56.82128 h -73.48208 z" /><path
       d="m 88.693,-112.14845 h 68.88799 c 0.245,0 0.383,0.664 0.383,1.836 v 54.9851 h -0.001 H 89.075 c -0.245,0 -0.382,-0.6646 -0.382,-1.8362 z"
       style="fill:#266489;stroke-width:0.954909px"
       id="path5016" /><path
       d="m 157.963,-110.8631 h 69.349 c 0.49001,0 0.76401,0.531 0.76401,1.469 v 55.3521 h -0.001 -69.348 c -0.49,0 -0.764,-0.5316 -0.764,-1.469 z"
       style="fill:#266286;stroke-width:0.909817px"
       id="path5018" /><path
       d="m 228.07601,-109.57775 h 69.809 c 0.73501,0 1.14601,0.399 1.14601,1.102 v 55.7191 h -0.001 -69.808 c -0.735,0 -1.146,-0.3987 -1.146,-1.1017 z"
       style="fill:#266082;stroke-width:0.864726px"
       id="path5020" /><path
       d="m 299.03102,-108.6595 h 70.269 c 0.98,0 1.528,0.266 1.528,0.734 v 56.0871 h -10e-4 -70.268 c -0.98,0 -1.528,-0.2658 -1.528,-0.7345 z"
       style="fill:#265e7f;stroke-width:0.819635px"
       id="path5022" /><path
       d="m 370.82802,-108.6595 h 70.72899 c 1.225,0 1.911,0.133 1.911,0.367 v 56.4541 h -9.9e-4 -70.72901 c -1.225,0 -1.90999,-0.1329 -1.90999,-0.3672 z"
       style="fill:#265c7b;stroke-width:0.774543px"
       id="path5024" /><path
       d="m 90.7983,-165.297 h 68.8887 c 0.245,0 0.382,0.664 0.382,1.836 v 54.985 0 H 91.1803 c -0.245,0 -0.382,-0.665 -0.382,-1.836 z"
       style="fill:#425a78;stroke-width:0.954909px"
       id="path5473" /><path
       d="m 161.332,-165.297 h 69.349 c 0.49,0 0.764,0.531 0.764,1.469 v 55.352 0 h -69.349 c -0.49,0 -0.764,-0.532 -0.764,-1.469 z"
       style="fill:#415875;stroke-width:0.909817px"
       id="path5475" /><path
       d="m 231.866,-165.297 h 69.809 c 0.735,0 1.147,0.398 1.147,1.101 v 55.72 h -10e-4 -69.809 c -0.735,0 -1.146,-0.399 -1.146,-1.102 z"
       style="fill:#405772;stroke-width:0.864726px"
       id="path5477" /><path
       d="m 302.4,-165.297 h 70.269 c 0.981,0 1.529,0.265 1.529,0.734 v 56.087 h -10e-4 -70.269 c -0.98,0 -1.528,-0.266 -1.528,-0.735 z"
       style="fill:#3f556f;stroke-width:0.819635px"
       id="path5479" /><path
       d="m 372.934,-165.297 h 70.73 c 1.225,0 1.91,0.133 1.91,0.367 v 56.454 0 h -70.73 c -1.225,0 -1.91,-0.133 -1.91,-0.367 z"
       style="fill:#3e536c;stroke-width:0.774543px"
       id="path5481" /><path
       id="rect4435-3-5"
       style="fill:#5f5169;fill-rule:evenodd"
       d="M 20.26432,-222.11865 H 88.693 v 56.82128 H 20.26432 Z" /><path
       id="rect4447-6-3"
       style="fill:#54495c;fill-rule:evenodd;stroke-width:0.729452"
       d="m 443.46801,-222.11865 h 73.48208 v 56.82128 h -73.48208 z" /><path
       d="m 90.7983,-222.119 h 68.8887 c 0.245,0 0.382,0.665 0.382,1.837 v 54.985 0 H 91.1803 c -0.245,0 -0.382,-0.665 -0.382,-1.837 z"
       style="fill:#5d4f66;stroke-width:0.954909px"
       id="path5963" /><path
       d="m 161.332,-222.119 h 69.349 c 0.49,0 0.764,0.532 0.764,1.469 v 55.353 0 h -69.349 c -0.49,0 -0.764,-0.532 -0.764,-1.469 z"
       style="fill:#5b4e64;stroke-width:0.909817px"
       id="path5965" /><path
       d="m 231.866,-222.119 h 69.809 c 0.735,0 1.147,0.399 1.147,1.102 v 55.72 h -10e-4 -69.809 c -0.735,0 -1.146,-0.399 -1.146,-1.102 z"
       style="fill:#594d62;stroke-width:0.864726px"
       id="path5967" /><path
       d="m 302.4,-222.119 h 70.269 c 0.981,0 1.529,0.266 1.529,0.735 v 56.087 h -10e-4 -70.269 c -0.98,0 -1.528,-0.266 -1.528,-0.735 z"
       style="fill:#574b60;stroke-width:0.819635px"
       id="path5969" /><path
       d="m 372.934,-222.119 h 70.73 c 1.225,0 1.91,0.133 1.91,0.368 v 56.454 0 h -70.73 c -1.225,0 -1.91,-0.133 -1.91,-0.368 z"
       style="fill:#554a5e;stroke-width:0.774543px"
       id="path5971" /></g></svg>
