<?xml version="1.0" encoding="UTF-8" standalone="no"?>
<!-- Created with Inkscape (http://www.inkscape.org/) -->

<svg
   width="1920"
   height="1200"
   viewBox="0 0 1920 1200"
   version="1.1"
   id="svg5"
   xml:space="preserve"
   sodipodi:docname="wallpaper_blur_1920x1200.svg"
   inkscape:version="1.2.2 (b0a8486541, 2022-12-01)"
   xmlns:inkscape="http://www.inkscape.org/namespaces/inkscape"
   xmlns:sodipodi="http://sodipodi.sourceforge.net/DTD/sodipodi-0.dtd"
   xmlns:xlink="http://www.w3.org/1999/xlink"
   xmlns="http://www.w3.org/2000/svg"
   xmlns:svg="http://www.w3.org/2000/svg"
   xmlns:i="http://ns.adobe.com/AdobeIllustrator/10.0/"><sodipodi:namedview
     id="namedview238"
     pagecolor="#505050"
     bordercolor="#eeeeee"
     borderopacity="1"
     inkscape:showpageshadow="0"
     inkscape:pageopacity="0"
     inkscape:pagecheckerboard="0"
     inkscape:deskcolor="#505050"
     showgrid="false"
     inkscape:zoom="0.41150195"
     inkscape:cx="995.13502"
     inkscape:cy="494.52986"
     inkscape:window-width="1920"
     inkscape:window-height="997"
     inkscape:window-x="0"
     inkscape:window-y="0"
     inkscape:window-maximized="1"
     inkscape:current-layer="layer1" /><defs
     id="defs2"><linearGradient
       inkscape:collect="always"
       id="linearGradient17656"><stop
         style="stop-color:#254151;stop-opacity:1;"
         offset="0"
         id="stop17652" /><stop
         style="stop-color:#254151;stop-opacity:0;"
         offset="1"
         id="stop17654" /></linearGradient><linearGradient
       inkscape:collect="always"
       id="linearGradient17556"><stop
         style="stop-color:#26475b;stop-opacity:1;"
         offset="0"
         id="stop17552" /><stop
         style="stop-color:#26475b;stop-opacity:0;"
         offset="1"
         id="stop17554" /></linearGradient><linearGradient
       inkscape:collect="always"
       id="linearGradient17239"><stop
         style="stop-color:#264d64;stop-opacity:1;"
         offset="0"
         id="stop17235" /><stop
         style="stop-color:#264d64;stop-opacity:0;"
         offset="1"
         id="stop17237" /></linearGradient><linearGradient
       inkscape:collect="always"
       id="linearGradient16849"><stop
         style="stop-color:#26536e;stop-opacity:1;"
         offset="0"
         id="stop16845" /><stop
         style="stop-color:#26536e;stop-opacity:0;"
         offset="1"
         id="stop16847" /></linearGradient><linearGradient
       inkscape:collect="always"
       id="linearGradient16482"><stop
         style="stop-color:#264d64;stop-opacity:1;"
         offset="0"
         id="stop16478" /><stop
         style="stop-color:#264d64;stop-opacity:0;"
         offset="1"
         id="stop16480" /></linearGradient><linearGradient
       id="linearGradient13960"><stop
         style="stop-color:#265a78;stop-opacity:0.10870586;"
         offset="0"
         id="stop13952" /><stop
         style="stop-color:#265a78;stop-opacity:0.43920743;"
         offset="0.2823306"
         id="stop13954" /><stop
         style="stop-color:#265a78;stop-opacity:0.69588804;"
         offset="0.40626076"
         id="stop13956" /><stop
         style="stop-color:#265a78;stop-opacity:1;"
         offset="0.68458074"
         id="stop13958" /></linearGradient><inkscape:path-effect
       effect="spiro"
       id="path-effect9096"
       is_visible="true"
       lpeversion="1" /><inkscape:path-effect
       effect="spiro"
       id="path-effect9071"
       is_visible="true"
       lpeversion="1" /><inkscape:path-effect
       effect="spiro"
       id="path-effect9064"
       is_visible="true"
       lpeversion="1" /><inkscape:path-effect
       effect="spiro"
       id="path-effect9057"
       is_visible="true"
       lpeversion="1" /><inkscape:path-effect
       effect="spiro"
       id="path-effect9053"
       is_visible="true"
       lpeversion="1" /><inkscape:path-effect
       effect="spiro"
       id="path-effect8768"
       is_visible="true"
       lpeversion="1" /><linearGradient
       id="linearGradient8697"><stop
         style="stop-color:#265a78;stop-opacity:0;"
         offset="0"
         id="stop8689" /><stop
         style="stop-color:#265a78;stop-opacity:0.64903498;"
         offset="0.2823306"
         id="stop8691" /><stop
         style="stop-color:#265a78;stop-opacity:0.64517409;"
         offset="0.40626076"
         id="stop8693" /><stop
         style="stop-color:#265a78;stop-opacity:1;"
         offset="0.68458074"
         id="stop8695" /></linearGradient><inkscape:path-effect
       effect="spiro"
       id="path-effect8648"
       is_visible="true"
       lpeversion="1" /><linearGradient
       id="linearGradient8584"><stop
         style="stop-color:#265a78;stop-opacity:0.10870586;"
         offset="0"
         id="stop8576" /><stop
         style="stop-color:#265a78;stop-opacity:0.52761251;"
         offset="0.2823306"
         id="stop8578" /><stop
         style="stop-color:#265a78;stop-opacity:0.74000001;"
         offset="0.52501702"
         id="stop8580" /><stop
         style="stop-color:#265a78;stop-opacity:1;"
         offset="0.68458074"
         id="stop8582" /></linearGradient><inkscape:path-effect
       effect="spiro"
       id="path-effect8174"
       is_visible="true"
       lpeversion="1" /><inkscape:path-effect
       effect="spiro"
       id="path-effect7639"
       is_visible="true"
       lpeversion="1" /><inkscape:path-effect
       effect="spiro"
       id="path-effect7494"
       is_visible="true"
       lpeversion="1" /><linearGradient
       id="linearGradient1396"><stop
         style="stop-color:#2e7ba8;stop-opacity:0.57986647;"
         offset="0"
         id="stop1392" /><stop
         style="stop-color:#26536e;stop-opacity:0;"
         offset="1"
         id="stop1394" /></linearGradient><linearGradient
       id="linearGradient1525"><stop
         style="stop-color:#263a47;stop-opacity:0.33335441;"
         offset="0.80377918"
         id="stop1521" /><stop
         style="stop-color:#263a47;stop-opacity:0;"
         offset="0.9543764"
         id="stop1523" /></linearGradient><linearGradient
       id="linearGradient2612"><stop
         style="stop-color:#265a78;stop-opacity:0.25523055;"
         offset="0.11022757"
         id="stop2608" /><stop
         style="stop-color:#265a78;stop-opacity:0;"
         offset="0.84212512"
         id="stop2610" /></linearGradient><linearGradient
       id="linearGradient8357"><stop
         style="stop-color:#265a78;stop-opacity:1;"
         offset="0.56693691"
         id="stop8353" /><stop
         style="stop-color:#265a78;stop-opacity:0;"
         offset="1"
         id="stop8355" /></linearGradient><linearGradient
       id="linearGradient7985"><stop
         style="stop-color:#276082;stop-opacity:0;"
         offset="0.42959514"
         id="stop7983" /><stop
         style="stop-color:#27526b;stop-opacity:0.58999997;"
         offset="1"
         id="stop7981" /></linearGradient><linearGradient
       id="linearGradient7607"><stop
         style="stop-color:#254151;stop-opacity:0.767115;"
         offset="0.76550895"
         id="stop7603" /><stop
         style="stop-color:#254151;stop-opacity:0;"
         offset="1"
         id="stop7605" /></linearGradient><linearGradient
       id="linearGradient7367"><stop
         style="stop-color:#254151;stop-opacity:0;"
         offset="0.83138704"
         id="stop7365" /><stop
         style="stop-color:#254151;stop-opacity:0.63815278;"
         offset="1"
         id="stop7363" /></linearGradient><linearGradient
       id="linearGradient7346"><stop
         style="stop-color:#254151;stop-opacity:0.55286539;"
         offset="0.55638915"
         id="stop7342" /><stop
         style="stop-color:#254151;stop-opacity:0;"
         offset="1"
         id="stop7344" /></linearGradient><linearGradient
       id="linearGradient3498"><stop
         style="stop-color:#254151;stop-opacity:0;"
         offset="0.78503168"
         id="stop3496" /><stop
         style="stop-color:#254151;stop-opacity:1;"
         offset="1"
         id="stop3494" /></linearGradient><linearGradient
       id="linearGradient2964"><stop
         style="stop-color:#254151;stop-opacity:1;"
         offset="0"
         id="stop2960" /><stop
         style="stop-color:#254151;stop-opacity:0;"
         offset="1"
         id="stop2962" /></linearGradient><linearGradient
       id="linearGradient1979"><stop
         style="stop-color:#26475b;stop-opacity:0;"
         offset="0"
         id="stop1977" /><stop
         style="stop-color:#26475b;stop-opacity:1;"
         offset="0.67915493"
         id="stop1975" /></linearGradient><linearGradient
       id="linearGradient1969"><stop
         style="stop-color:#264d64;stop-opacity:0;"
         offset="0.3990624"
         id="stop1967" /><stop
         style="stop-color:#264d64;stop-opacity:1;"
         offset="0.84475249"
         id="stop1965" /></linearGradient><linearGradient
       id="linearGradient1227"><stop
         style="stop-color:#265a78;stop-opacity:0;"
         offset="0"
         id="stop1225" /><stop
         style="stop-color:#265a78;stop-opacity:0.74117647;"
         offset="0.2823306"
         id="stop6006" /><stop
         style="stop-color:#265a78;stop-opacity:0.8;"
         offset="0.40626076"
         id="stop1233" /><stop
         style="stop-color:#265a78;stop-opacity:1;"
         offset="0.70748854"
         id="stop1223" /></linearGradient><linearGradient
       id="linearGradient1795"><stop
         style="stop-color:#264d64;stop-opacity:0.26642156;"
         offset="0.526968"
         id="stop1791" /><stop
         style="stop-color:#264d64;stop-opacity:1;"
         offset="0.82043171"
         id="stop1793" /></linearGradient><linearGradient
       id="linearGradient1319"><stop
         style="stop-color:#276082;stop-opacity:0.39800748;"
         offset="0.30125529"
         id="stop1221" /><stop
         style="stop-color:#276082;stop-opacity:0.75777662;"
         offset="0.52131933"
         id="stop1317" /><stop
         style="stop-color:#276082;stop-opacity:1;"
         offset="0.68381566"
         id="stop1315" /></linearGradient><linearGradient
       id="linearGradient1311"><stop
         style="stop-color:#265a78;stop-opacity:0.64058191;"
         offset="0.45972198"
         id="stop1307" /><stop
         style="stop-color:#265a78;stop-opacity:1;"
         offset="0.74595678"
         id="stop1309" /></linearGradient><linearGradient
       id="linearGradient1287"><stop
         style="stop-color:#26536e;stop-opacity:0.66000003;"
         offset="0.50468224"
         id="stop1285" /><stop
         style="stop-color:#26536e;stop-opacity:1;"
         offset="0.92302817"
         id="stop1283" /><stop
         style="stop-color:#26536e;stop-opacity:0.59372801;"
         offset="1"
         id="stop1950" /></linearGradient><linearGradient
       id="linearGradient1271"><stop
         style="stop-color:#264d64;stop-opacity:0.79451448;"
         offset="0.596416"
         id="stop1267" /><stop
         style="stop-color:#264d64;stop-opacity:1;"
         offset="0.82318109"
         id="stop1269" /></linearGradient><linearGradient
       id="linearGradient2863"><stop
         style="stop-color:#265a78;stop-opacity:0.88;"
         offset="0"
         id="stop2859" /><stop
         style="stop-color:#265a78;stop-opacity:1;"
         offset="0.24582241"
         id="stop2861" /></linearGradient><linearGradient
       id="linearGradient2857"><stop
         style="stop-color:#265a78;stop-opacity:0.92000002;"
         offset="0"
         id="stop2853" /><stop
         style="stop-color:#265a78;stop-opacity:1;"
         offset="0.24582241"
         id="stop2855" /></linearGradient><linearGradient
       id="linearGradient2851"><stop
         style="stop-color:#265a78;stop-opacity:0.95999998;"
         offset="0"
         id="stop2847" /><stop
         style="stop-color:#265a78;stop-opacity:1;"
         offset="0.24582241"
         id="stop2849" /></linearGradient><linearGradient
       id="linearGradient2031"><stop
         style="stop-color:#264d64;stop-opacity:0.83999997;"
         offset="0.19950303"
         id="stop2027" /><stop
         style="stop-color:#264d64;stop-opacity:0.99000001;"
         offset="0.45128444"
         id="stop2029" /></linearGradient><linearGradient
       id="linearGradient2025"><stop
         style="stop-color:#264d64;stop-opacity:0.88;"
         offset="0.20241019"
         id="stop2021" /><stop
         style="stop-color:#264d64;stop-opacity:0.99000001;"
         offset="0.45128444"
         id="stop2023" /></linearGradient><linearGradient
       id="linearGradient2019"><stop
         style="stop-color:#264d64;stop-opacity:0.92000002;"
         offset="0.19568871"
         id="stop2015" /><stop
         style="stop-color:#264d64;stop-opacity:0.99000001;"
         offset="0.45128444"
         id="stop2017" /></linearGradient><linearGradient
       id="linearGradient13605"><stop
         style="stop-color:#264d64;stop-opacity:0.95999998;"
         offset="0.19971497"
         id="stop13601" /><stop
         style="stop-color:#264d64;stop-opacity:0.99000001;"
         offset="0.45128444"
         id="stop13603" /></linearGradient><linearGradient
       id="linearGradient13597"><stop
         style="stop-color:#264d64;stop-opacity:0.80000001;"
         offset="0.19980925"
         id="stop13593" /><stop
         style="stop-color:#264d64;stop-opacity:0.97000003;"
         offset="0.45180532"
         id="stop13595" /></linearGradient><linearGradient
       id="linearGradient13589"><stop
         style="stop-color:#264d64;stop-opacity:0.75999999;"
         offset="0.20148337"
         id="stop13585" /><stop
         style="stop-color:#264d64;stop-opacity:0.95999998;"
         offset="0.45282581"
         id="stop13587" /></linearGradient><linearGradient
       id="linearGradient13581"><stop
         style="stop-color:#264d64;stop-opacity:0.72000003;"
         offset="0.20001823"
         id="stop13577" /><stop
         style="stop-color:#264d64;stop-opacity:0.94999999;"
         offset="0.44871116"
         id="stop13579" /></linearGradient><linearGradient
       id="linearGradient12656"><stop
         style="stop-color:#276082;stop-opacity:1;"
         offset="0.84502661"
         id="stop13554" /><stop
         style="stop-color:#276082;stop-opacity:0.75777662;"
         offset="0.99940705"
         id="stop13556" /></linearGradient><linearGradient
       id="linearGradient12648"><stop
         style="stop-color:#265e7f;stop-opacity:1;"
         offset="0"
         id="stop12646" /><stop
         style="stop-color:#276082;stop-opacity:1;"
         offset="0.34994966"
         id="stop12644" /><stop
         style="stop-color:#276082;stop-opacity:1;"
         offset="0.85264051"
         id="stop13562" /><stop
         style="stop-color:#276082;stop-opacity:0.95999998;"
         offset="1"
         id="stop13564" /></linearGradient><linearGradient
       id="linearGradient12640"><stop
         style="stop-color:#265e7f;stop-opacity:0.92000002;"
         offset="0"
         id="stop12638" /><stop
         style="stop-color:#276082;stop-opacity:1;"
         offset="0.35348684"
         id="stop12636" /><stop
         style="stop-color:#276082;stop-opacity:1;"
         offset="0.8476584"
         id="stop13558" /><stop
         style="stop-color:#276082;stop-opacity:0.85000002;"
         offset="1"
         id="stop13560" /></linearGradient><linearGradient
       id="linearGradient12241"><stop
         style="stop-color:#265a78;stop-opacity:0.83999997;"
         offset="0"
         id="stop12239" /><stop
         style="stop-color:#265a78;stop-opacity:1;"
         offset="0.24582241"
         id="stop12237" /></linearGradient><linearGradient
       id="linearGradient12231"><stop
         style="stop-color:#265a78;stop-opacity:0.80000001;"
         offset="0"
         id="stop12229" /><stop
         style="stop-color:#265a78;stop-opacity:1;"
         offset="0.24852315"
         id="stop12227" /></linearGradient><linearGradient
       id="linearGradient12221"><stop
         style="stop-color:#265a78;stop-opacity:0.75999999;"
         offset="0.00097245"
         id="stop12219" /><stop
         style="stop-color:#265a78;stop-opacity:1;"
         offset="0.24779135"
         id="stop12217" /></linearGradient><linearGradient
       id="linearGradient10904"><stop
         style="stop-color:#26536e;stop-opacity:0.95999998;"
         offset="0"
         id="stop13370" /><stop
         style="stop-color:#26536e;stop-opacity:1;"
         offset="0.43724015"
         id="stop13368" /><stop
         style="stop-color:#26536e;stop-opacity:1;"
         offset="0.86353546"
         id="stop10900" /><stop
         style="stop-color:#26536e;stop-opacity:0.97000003;"
         offset="0.99957526"
         id="stop10902" /></linearGradient><linearGradient
       id="linearGradient10891"><stop
         style="stop-color:#26536e;stop-opacity:0.89999998;"
         offset="0.00538627"
         id="stop13372" /><stop
         style="stop-color:#26536e;stop-opacity:1;"
         offset="0.38196439"
         id="stop13366" /><stop
         style="stop-color:#26536e;stop-opacity:1;"
         offset="0.86029023"
         id="stop10887" /><stop
         style="stop-color:#26536e;stop-opacity:0.89999998;"
         offset="1"
         id="stop10889" /></linearGradient><linearGradient
       id="linearGradient5205"><stop
         style="stop-color:#264d64;stop-opacity:1;"
         offset="0.21939194"
         id="stop5201" /><stop
         style="stop-color:#264d64;stop-opacity:0;"
         offset="0.88213038"
         id="stop5203" /></linearGradient><linearGradient
       id="linearGradient4998"><stop
         style="stop-color:#27678d;stop-opacity:0.41074234;"
         offset="0"
         id="stop4994" /><stop
         style="stop-color:#27678d;stop-opacity:0;"
         offset="0.79514837"
         id="stop4996" /></linearGradient><linearGradient
       id="linearGradient4887"><stop
         style="stop-color:#2e7199;stop-opacity:1;"
         offset="0.11666333"
         id="stop4883" /><stop
         style="stop-color:#265a78;stop-opacity:0;"
         offset="1"
         id="stop4885" /></linearGradient><linearGradient
       id="linearGradient4697"><stop
         style="stop-color:#2e7ba8;stop-opacity:0.38592696;"
         offset="0.19623682"
         id="stop4693" /><stop
         style="stop-color:#27678d;stop-opacity:0;"
         offset="0.81461072"
         id="stop4695" /></linearGradient><linearGradient
       id="linearGradient4622"><stop
         style="stop-color:#3590c5;stop-opacity:0.60608304;"
         offset="0.18425879"
         id="stop4618" /><stop
         style="stop-color:#27678d;stop-opacity:0;"
         offset="1"
         id="stop4620" /></linearGradient><linearGradient
       id="linearGradient3744"><stop
         style="stop-color:#276082;stop-opacity:0;"
         offset="0.37055299"
         id="stop3742" /><stop
         style="stop-color:#276082;stop-opacity:1;"
         offset="1"
         id="stop3740" /></linearGradient><linearGradient
       id="linearGradient3734"><stop
         style="stop-color:#265a78;stop-opacity:0;"
         offset="0.20029873"
         id="stop3732" /><stop
         style="stop-color:#265a78;stop-opacity:1;"
         offset="1"
         id="stop3730" /></linearGradient><linearGradient
       id="linearGradient3724"><stop
         style="stop-color:#26536e;stop-opacity:0;"
         offset="0.72692394"
         id="stop3722" /><stop
         style="stop-color:#26536e;stop-opacity:1;"
         offset="1"
         id="stop3720" /></linearGradient><linearGradient
       id="linearGradient3714"><stop
         style="stop-color:#264d64;stop-opacity:0;"
         offset="0.81924415"
         id="stop3712" /><stop
         style="stop-color:#264d64;stop-opacity:1;"
         offset="1"
         id="stop3710" /></linearGradient><linearGradient
       id="linearGradient3704"><stop
         style="stop-color:#26475b;stop-opacity:0;"
         offset="0.69804424"
         id="stop3702" /><stop
         style="stop-color:#26475b;stop-opacity:1;"
         offset="1"
         id="stop3700" /></linearGradient><radialGradient
       xlink:href="#linearGradient3704"
       id="radialGradient3706"
       cx="2007.3448"
       cy="1737.1503"
       fx="2007.3448"
       fy="1737.1503"
       r="960"
       gradientTransform="matrix(0.00723467,-1.3372591,2.3898301,0.01292916,-2158.6725,4008.6)"
       gradientUnits="userSpaceOnUse" /><radialGradient
       xlink:href="#linearGradient3714"
       id="radialGradient3716"
       cx="-55.602444"
       cy="1782.1582"
       fx="-55.602444"
       fy="1782.1582"
       r="960.29187"
       gradientTransform="matrix(2.05918,0.02715482,-0.01296202,0.98292472,81.99338,-430.96247)"
       gradientUnits="userSpaceOnUse" /><radialGradient
       xlink:href="#linearGradient3724"
       id="radialGradient3726"
       cx="1903.3966"
       cy="1837.443"
       fx="1903.3966"
       fy="1837.443"
       r="905.96039"
       gradientTransform="matrix(4.1816944e-4,-0.99999991,1.9569881,8.183527e-4,-1647.0816,3219.8482)"
       gradientUnits="userSpaceOnUse" /><radialGradient
       xlink:href="#linearGradient3734"
       id="radialGradient3736"
       cx="-63.3279"
       cy="1895.5513"
       fx="-63.3279"
       fy="1895.5513"
       r="851.67627"
       gradientTransform="matrix(1.7670923,0.01726974,-0.00680528,0.69633754,61.478115,-5.3392463)"
       gradientUnits="userSpaceOnUse" /><radialGradient
       xlink:href="#linearGradient3744"
       id="radialGradient3746"
       cx="2002.5957"
       cy="1425.4607"
       fx="2002.5957"
       fy="1425.4607"
       r="513.49005"
       gradientTransform="matrix(-0.0012629,-1.1197073,1.4443859,-0.00162911,-53.790451,3537.0539)"
       gradientUnits="userSpaceOnUse" /><radialGradient
       xlink:href="#linearGradient4622"
       id="radialGradient4624"
       cx="1233.2423"
       cy="676.07361"
       fx="1233.2423"
       fy="676.07361"
       r="339.73563"
       gradientTransform="matrix(0.95342772,0.10220655,-0.12062685,1.1252604,329.35029,-918.25569)"
       gradientUnits="userSpaceOnUse" /><radialGradient
       xlink:href="#linearGradient4697"
       id="radialGradient4682"
       gradientUnits="userSpaceOnUse"
       gradientTransform="matrix(1.0258111,0.00730851,-0.06137239,2.2434326,-1544.49,-322.59569)"
       cx="1188.8241"
       cy="768.38495"
       fx="1188.8241"
       fy="768.38495"
       r="339.73563" /><radialGradient
       xlink:href="#linearGradient4887"
       id="radialGradient4889"
       cx="1284.9818"
       cy="-772.8031"
       fx="1284.9818"
       fy="-772.8031"
       r="254.67998"
       gradientTransform="matrix(1.6216229,0.21540464,-0.10196847,1.6519425,-877.57569,219.44249)"
       gradientUnits="userSpaceOnUse" /><radialGradient
       xlink:href="#linearGradient4998"
       id="radialGradient4992"
       gradientUnits="userSpaceOnUse"
       gradientTransform="matrix(1,0,0,1.1945667,-28.878962,-729.58884)"
       cx="1216.8583"
       cy="698.47076"
       fx="1216.8583"
       fy="698.47076"
       r="339.73563" /><radialGradient
       xlink:href="#linearGradient5205"
       id="radialGradient5207"
       cx="1279.6924"
       cy="835.54907"
       fx="1279.6924"
       fy="835.54907"
       r="321.97171"
       gradientTransform="matrix(1.3996605,-1.4394784,1.1781747,1.1455847,-1495.8652,1532.7701)"
       gradientUnits="userSpaceOnUse" /><linearGradient
       xlink:href="#linearGradient10891"
       id="linearGradient10893"
       x1="108.0625"
       y1="733.04877"
       x2="1919.9824"
       y2="733.04877"
       gradientUnits="userSpaceOnUse" /><linearGradient
       xlink:href="#linearGradient10904"
       id="linearGradient10898"
       gradientUnits="userSpaceOnUse"
       x1="108.0625"
       y1="733.04877"
       x2="1919.9824"
       y2="733.04877"
       gradientTransform="translate(0,14)" /><linearGradient
       xlink:href="#linearGradient12221"
       id="linearGradient12223"
       x1="-3.9511719"
       y1="853.08008"
       x2="1699.4023"
       y2="853.08008"
       gradientUnits="userSpaceOnUse" /><linearGradient
       xlink:href="#linearGradient12231"
       id="linearGradient12233"
       x1="-3.9511719"
       y1="859.08014"
       x2="1699.4023"
       y2="859.08014"
       gradientUnits="userSpaceOnUse" /><linearGradient
       xlink:href="#linearGradient2863"
       id="linearGradient12243"
       x1="-3.9511719"
       y1="863.08014"
       x2="1699.4023"
       y2="863.08014"
       gradientUnits="userSpaceOnUse"
       gradientTransform="translate(0,2)" /><linearGradient
       xlink:href="#linearGradient12640"
       id="linearGradient12642"
       x1="890.26758"
       y1="839.41797"
       x2="1917.248"
       y2="839.41797"
       gradientUnits="userSpaceOnUse"
       gradientTransform="translate(0,12)" /><linearGradient
       xlink:href="#linearGradient12648"
       id="linearGradient12650"
       x1="890.26758"
       y1="839.41797"
       x2="1917.248"
       y2="839.41797"
       gradientUnits="userSpaceOnUse"
       gradientTransform="translate(0,22)" /><linearGradient
       xlink:href="#linearGradient12656"
       id="linearGradient12658"
       x1="890.26758"
       y1="839.41797"
       x2="1917.248"
       y2="839.41797"
       gradientUnits="userSpaceOnUse" /><linearGradient
       xlink:href="#linearGradient13581"
       id="linearGradient13583"
       x1="0"
       y1="447.34152"
       x2="1920.584"
       y2="447.34152"
       gradientUnits="userSpaceOnUse" /><linearGradient
       xlink:href="#linearGradient13589"
       id="linearGradient13591"
       x1="0"
       y1="455.34348"
       x2="1920.5881"
       y2="455.34348"
       gradientUnits="userSpaceOnUse" /><linearGradient
       xlink:href="#linearGradient13597"
       id="linearGradient13599"
       x1="0"
       y1="459.34348"
       x2="1920.5881"
       y2="459.34348"
       gradientUnits="userSpaceOnUse" /><linearGradient
       xlink:href="#linearGradient2031"
       id="linearGradient13607"
       x1="0"
       y1="463.34348"
       x2="1920.5881"
       y2="463.34348"
       gradientUnits="userSpaceOnUse" /><linearGradient
       xlink:href="#linearGradient2025"
       id="linearGradient2000"
       gradientUnits="userSpaceOnUse"
       x1="0"
       y1="463.34348"
       x2="1920.5881"
       y2="463.34348"
       gradientTransform="translate(0,4)" /><linearGradient
       xlink:href="#linearGradient2019"
       id="linearGradient2004"
       gradientUnits="userSpaceOnUse"
       gradientTransform="translate(0,8)"
       x1="0"
       y1="463.34348"
       x2="1920.5881"
       y2="463.34348" /><linearGradient
       xlink:href="#linearGradient13605"
       id="linearGradient2008"
       gradientUnits="userSpaceOnUse"
       gradientTransform="translate(0,12)"
       x1="0"
       y1="463.34348"
       x2="1920.5881"
       y2="463.34348" /><linearGradient
       xlink:href="#linearGradient2857"
       id="linearGradient2831"
       gradientUnits="userSpaceOnUse"
       x1="-3.9511719"
       y1="863.08014"
       x2="1699.4023"
       y2="863.08014"
       gradientTransform="translate(0,10.852246)" /><linearGradient
       xlink:href="#linearGradient12241"
       id="linearGradient2833"
       gradientUnits="userSpaceOnUse"
       x1="-3.9511719"
       y1="863.08014"
       x2="1699.4023"
       y2="863.08014" /><linearGradient
       xlink:href="#linearGradient2851"
       id="linearGradient2835"
       gradientUnits="userSpaceOnUse"
       x1="-3.9511719"
       y1="863.08014"
       x2="1699.4023"
       y2="863.08014"
       gradientTransform="translate(0,14.85225)" /><radialGradient
       xlink:href="#linearGradient1287"
       id="radialGradient1277"
       cx="1920"
       cy="1637.262"
       fx="1920"
       fy="1637.262"
       r="905.21289"
       gradientTransform="matrix(-2.774444e-7,-1.1790959,2.1210483,-8.3539203e-7,-1552.7109,3461.8656)"
       gradientUnits="userSpaceOnUse" /><radialGradient
       xlink:href="#linearGradient1319"
       id="radialGradient1313"
       cx="1918"
       cy="1346.5209"
       fx="1918"
       fy="1346.5209"
       r="512.86133"
       gradientTransform="matrix(-3.4072807e-8,-1.3994197,1.9880536,-8.2990613e-8,-758.95561,3879.2348)"
       gradientUnits="userSpaceOnUse" /><radialGradient
       xlink:href="#linearGradient8584"
       id="radialGradient1229"
       cx="-121.22272"
       cy="1900.0312"
       fx="-121.22272"
       fy="1900.0312"
       r="836.7174"
       gradientTransform="matrix(2.1892912,0.00324714,-0.00136469,0.92009846,146.76207,-457.35746)"
       gradientUnits="userSpaceOnUse" /><radialGradient
       xlink:href="#linearGradient1969"
       id="radialGradient1971"
       cx="-77.91774"
       cy="1715.4058"
       fx="-77.91774"
       fy="1715.4058"
       r="960"
       gradientTransform="matrix(2.0799855,0.01033745,-0.00548579,1.1037896,93.560381,-644.80543)"
       gradientUnits="userSpaceOnUse" /><radialGradient
       xlink:href="#linearGradient1979"
       id="radialGradient1981"
       cx="1944.4332"
       cy="1630.2191"
       fx="1944.4332"
       fy="1630.2191"
       r="960"
       gradientTransform="matrix(-0.00516515,-1.354402,2.066879,-0.00788226,-1414.9895,3890.2809)"
       gradientUnits="userSpaceOnUse" /><radialGradient
       xlink:href="#linearGradient2964"
       id="radialGradient2966"
       cx="912.94761"
       cy="406.85361"
       fx="912.94761"
       fy="406.85361"
       r="396.45602"
       gradientTransform="matrix(1.2212338,0,0,0.25345753,-220.8171,282.91683)"
       gradientUnits="userSpaceOnUse" /><radialGradient
       xlink:href="#linearGradient3498"
       id="radialGradient3500"
       cx="403.8304"
       cy="400.25317"
       fx="403.8304"
       fy="400.25317"
       r="635.30608"
       gradientTransform="matrix(1,0,0,0.57139422,1.7509088,202.48553)"
       gradientUnits="userSpaceOnUse" /><radialGradient
       xlink:href="#linearGradient7346"
       id="radialGradient7348"
       cx="146.47547"
       cy="401.29343"
       fx="146.47547"
       fy="401.29343"
       r="520.06819"
       gradientTransform="matrix(1,0,0,0.32715833,10.587921,271.32127)"
       gradientUnits="userSpaceOnUse" /><radialGradient
       xlink:href="#linearGradient7367"
       id="radialGradient7369"
       cx="1781.9108"
       cy="393.60242"
       fx="1781.9108"
       fy="393.60242"
       r="379.07705"
       gradientTransform="matrix(1,0,0,0.67724402,-89.594489,221.84064)"
       gradientUnits="userSpaceOnUse" /><radialGradient
       xlink:href="#linearGradient7607"
       id="radialGradient7609"
       cx="1394.0477"
       cy="1147.4489"
       fx="1394.0477"
       fy="1147.4489"
       r="411.04011"
       gradientTransform="matrix(1,0,0,0.39549773,0,693.63544)"
       gradientUnits="userSpaceOnUse" /><radialGradient
       xlink:href="#linearGradient7985"
       id="radialGradient7987"
       cx="1008.8612"
       cy="1191.5876"
       fx="1008.8612"
       fy="1191.5876"
       r="122.27389"
       gradientTransform="matrix(1,0,0,1.7384634,0,-879.94383)"
       gradientUnits="userSpaceOnUse" /><radialGradient
       xlink:href="#linearGradient8357"
       id="radialGradient8359"
       cx="378.09307"
       cy="614.90186"
       fx="378.09307"
       fy="614.90186"
       r="164.73832"
       gradientTransform="matrix(1.1936265,0,0,0.28888209,-275.93944,465.73337)"
       gradientUnits="userSpaceOnUse" /><radialGradient
       xlink:href="#linearGradient2612"
       id="radialGradient2614"
       cx="1234.4191"
       cy="1753.9026"
       fx="1234.4191"
       fy="1753.9026"
       r="241.78418"
       gradientTransform="matrix(-1.9171341,-0.2821657,0.1174928,-0.79828822,3390.1617,2033.2763)"
       gradientUnits="userSpaceOnUse" /><radialGradient
       xlink:href="#linearGradient1525"
       id="radialGradient1527"
       cx="1077.3307"
       cy="-137.51361"
       fx="1077.3307"
       fy="-137.51361"
       r="154.71857"
       gradientTransform="matrix(-0.41362772,1.684513,-2.1193278,-0.52039542,1236.7782,-2035.6554)"
       gradientUnits="userSpaceOnUse" /><radialGradient
       xlink:href="#linearGradient1396"
       id="radialGradient1398"
       cx="1301.8369"
       cy="606.71448"
       fx="1301.8369"
       fy="606.71448"
       r="404.03732"
       gradientTransform="matrix(1,0,0,0.8817634,-39.438548,108.27257)"
       gradientUnits="userSpaceOnUse" /><radialGradient
       xlink:href="#linearGradient13960"
       id="radialGradient1229-6"
       cx="-121.22272"
       cy="1900.0312"
       fx="-121.22272"
       fy="1900.0312"
       r="836.7174"
       gradientTransform="matrix(2.1892912,0.00324714,-0.00136469,0.92009846,146.76207,-457.35746)"
       gradientUnits="userSpaceOnUse" /><radialGradient
       xlink:href="#linearGradient8584"
       id="radialGradient1229-0"
       cx="-6.9451776"
       cy="1907.4839"
       fx="-6.9451776"
       fy="1907.4839"
       r="836.71741"
       gradientTransform="matrix(1.9020906,-0.3994068,0.17899901,0.85244502,-199.27344,-331.10612)"
       gradientUnits="userSpaceOnUse" /><radialGradient
       inkscape:collect="always"
       xlink:href="#linearGradient16482"
       id="radialGradient16484"
       cx="1699.2072"
       cy="581.7464"
       fx="1699.2072"
       fy="581.7464"
       r="118.92342"
       gradientTransform="matrix(1.4830206,0,0,0.98872366,-803.11796,10.576551)"
       gradientUnits="userSpaceOnUse" /><radialGradient
       inkscape:collect="always"
       xlink:href="#linearGradient16849"
       id="radialGradient16851"
       cx="728.94659"
       cy="2124.3423"
       fx="728.94659"
       fy="2124.3423"
       r="236.17903"
       gradientTransform="matrix(1.3187659,-1.2005393,0.75204944,0.8534136,-676.99658,193.00074)"
       gradientUnits="userSpaceOnUse" /><radialGradient
       inkscape:collect="always"
       xlink:href="#linearGradient17239"
       id="radialGradient17241"
       cx="76.98744"
       cy="1114.0789"
       fx="76.98744"
       fy="1114.0789"
       r="131.85278"
       gradientTransform="matrix(2.6447012,0,0,2.4141977,-82.724002,-1462.3775)"
       gradientUnits="userSpaceOnUse" /><radialGradient
       inkscape:collect="always"
       xlink:href="#linearGradient17556"
       id="radialGradient17558"
       cx="658.76465"
       cy="628.3974"
       fx="658.76465"
       fy="628.3974"
       r="175.17543"
       gradientTransform="matrix(1.7363463,0,0,1.6227869,-539.99522,-268.46409)"
       gradientUnits="userSpaceOnUse" /><radialGradient
       inkscape:collect="always"
       xlink:href="#linearGradient17556"
       id="radialGradient17565"
       gradientUnits="userSpaceOnUse"
       gradientTransform="matrix(1.7363463,0,0,1.6227869,-1033.1944,-345.87626)"
       cx="658.76465"
       cy="628.3974"
       fx="658.76465"
       fy="628.3974"
       r="175.17543" /><radialGradient
       inkscape:collect="always"
       xlink:href="#linearGradient17656"
       id="radialGradient17658"
       cx="1324.6454"
       cy="393.01067"
       fx="1324.6454"
       fy="393.01067"
       r="227.39066"
       gradientTransform="matrix(1,0,0,0.66354789,-9.7713565,179.16006)"
       gradientUnits="userSpaceOnUse" /><filter
       inkscape:collect="always"
       style="color-interpolation-filters:sRGB"
       id="filter17966"
       x="-0.02898838"
       y="-0.043686945"
       width="1.0579768"
       height="1.0873739"><feGaussianBlur
         inkscape:collect="always"
         stdDeviation="5.4930724"
         id="feGaussianBlur17968" /></filter><filter
       inkscape:collect="always"
       style="color-interpolation-filters:sRGB"
       id="filter17970"
       x="-0.05668487"
       y="-0.058423233"
       width="1.1133697"
       height="1.1168465"><feGaussianBlur
         inkscape:collect="always"
         stdDeviation="16.936997"
         id="feGaussianBlur17972" /></filter><filter
       inkscape:collect="always"
       style="color-interpolation-filters:sRGB"
       id="filter17974"
       x="-0.091873998"
       y="-0.10064597"
       width="1.183748"
       height="1.2012919"><feGaussianBlur
         inkscape:collect="always"
         stdDeviation="26.697906"
         id="feGaussianBlur17976" /></filter><filter
       inkscape:collect="always"
       style="color-interpolation-filters:sRGB"
       id="filter17978"
       x="-0.076003544"
       y="-0.08132212"
       width="1.1520071"
       height="1.1626442"><feGaussianBlur
         inkscape:collect="always"
         stdDeviation="19.264695"
         id="feGaussianBlur17980" /></filter><filter
       inkscape:collect="always"
       style="color-interpolation-filters:sRGB"
       id="filter17982"
       x="-0.055125796"
       y="-0.058983386"
       width="1.1102516"
       height="1.1179668"><feGaussianBlur
         inkscape:collect="always"
         stdDeviation="13.972791"
         id="feGaussianBlur17984" /></filter></defs><g
     inkscape:groupmode="layer"
     id="layer7"
     inkscape:label="Layer 2"
     sodipodi:insensitive="true"
     style="display:none"><path
       id="path14488"
       style="display:inline;fill:none;fill-opacity:1;stroke:#b23133;stroke-width:7.281"
       transform="translate(2,4.8522464)"
       d="m 1918,500.48955 c -29.9084,26.24412 -63.0187,26.64502 -97.2695,46.89717 -46.6761,27.599 -96.8099,49.21965 -148.6114,65.25 -38.3651,11.87239 -77.632,20.6947 -115.8906,32.90625 -38.2585,12.21154 -75.8891,28.05936 -107.8008,52.44141 -34.9719,26.72023 -61.6957,62.57134 -87.3672,98.32031 -25.6713,35.74896 -51.129,72.29007 -84.3535,101.15429 -55.3565,48.09182 -127.5991,71.07011 -191.3847,107.24412 C 1005.1347,1050.179 937.72984,1117.8033 892.27734,1198 M -1.96875,500.48955 c 50.523927,33.2494 108.97637,54.36187 169.08594,61.07226 50.76759,5.66748 102.03269,1.19873 153.08008,-0.70703 51.04819,-1.90579 103.13402,-1.09453 151.74218,14.61524 45.30159,14.64111 85.47753,41.52642 125.01563,68.04687 39.53819,26.52051 79.77743,53.33517 125.13672,67.79688 42.72964,13.62331 88.25706,15.6944 133.10035,14.99023 44.84329,-0.70416 89.74987,-4.06997 134.48558,-0.88672 92.86617,6.60806 183.47927,42.21728 255.91997,100.69922 68.2633,55.10945 132.3977,118.01864 179.4863,192.043 28.8967,45.4263 203.5424,157.9897 246.3508,180.2858 M 1918,293.24425 c -42.0267,-12.21429 -88.2815,-25.12541 -132.0098,-26.76378 -9.1879,-0.34425 -18.3859,-0.45559 -27.58,-0.33594 -64.3591,0.83753 -128.5781,13.02723 -188.5586,36.39453 -110.0312,42.8661 -203.5673,120.90617 -313.4258,164.21289 -80.8541,31.87306 -167.8866,43.90503 -253.6973,57.68164 -88.50685,14.20949 -179.84437,31.81546 -253.00975,83.60547 -43.14526,30.54031 -77.72801,71.50665 -110.17578,113.23633 C 607.0952,763.00507 576.07704,806.19482 538.14062,843.00586 467.41325,911.63516 376.34323,954.70401 296.00586,1011.7852 223.70356,1063.1571 168.95235,1126.3309 116.70117,1198 M -2,166.40982 c 63.329801,-1.61832 126.5453,-7.69354 189.0242,-18.16587 65.62829,-11.00021 131.6927,-26.91396 197.9112,-20.34218 54.10493,5.36958 105.57681,25.55464 155.17593,47.82801 45.99951,20.6569 91.45693,43.41803 140.24219,56.17188 55.82022,14.59299 114.15259,15.6108 171.83007,17.08076 72.59058,1.85004 147.37141,5.05231 213.35941,35.35742 43.0336,19.76326 80.1903,50.14535 116.2636,80.82422 35.785,30.43367 71.6902,61.92548 114.4276,81.42649 48.7122,22.22729 103.1427,27.47417 156.2658,34.17244 52.4629,6.61503 105.7857,15.26954 152.7109,39.64453 57.9155,30.08385 101.2224,81.42367 149.6016,125.22656 48.8411,44.22107 103.9605,81.49753 163.1875,110.36133 M 1271.0977,0 C 1233.2332,35.422406 1186.2833,60.733643 1140.2022,84.503455 1061.6272,125.03448 974.87445,146.4713 889.2623,168.54742 828.57759,184.1957 767.21742,200.65444 712.87305,231.8665 641.4006,272.91588 586.46757,336.83082 524.24023,390.87822 454.57242,451.38802 375.09987,499.92842 291.9707,539.98564 198.22277,585.1597 99.41908,619.83187 -2,643.1458"
       sodipodi:nodetypes="csssssssccsssssssssccsssssssssccsssssssssssccsssssc" /></g><g
     id="layer5"
     style="display:inline"
     sodipodi:insensitive="true"><rect
       style="display:inline;fill:#254151;fill-opacity:1;fill-rule:evenodd;stroke-width:1.00598"
       id="rect2322"
       width="1920"
       height="1200"
       x="0"
       y="0" /></g><g
     id="layer4"
     style="display:none"
     transform="translate(0,2.8522464)"><g
       id="g5143"
       style="display:inline"
       transform="translate(0,2)"><g
         id="g5211"
         style="display:inline;opacity:1"
         sodipodi:insensitive="true"><path
           style="display:inline;opacity:1;fill:url(#radialGradient1981);fill-opacity:1;stroke-width:7.281"
           d="m 1268.9252,0 c -37.8645,35.422406 -80.6419,65.585889 -126.723,89.355701 -78.575,40.531029 -165.32775,61.967849 -250.9399,84.043969 -60.68471,15.64828 -122.04488,32.10702 -176.38925,63.31908 C 643.4006,277.76813 588.46757,341.68307 526.24023,395.73047 456.57242,456.24027 377.09987,504.78067 293.9707,544.83789 200.22277,590.01195 101.41908,624.68412 0,647.99805 V 1200 H 1920 V 0 Z"
           id="path1103"
           transform="translate(0,-4.8522464)" /><path
           id="path5154"
           style="display:inline;fill:url(#radialGradient5207);fill-opacity:1;stroke-width:9.18804"
           d="m 1273.0977,0 c -62.0345,61.784362 -137.8194,109.68651 -220.2442,139.21094 -0.1473,0.0528 -0.2999,0.0919 -0.4473,0.14453 a 339.79221,405.83688 0 0 0 -57.3144,121.86328 c 24.9444,5.09242 49.2933,12.37175 72.4512,23.12109 42.9381,19.93103 79.8218,50.60957 116.2636,80.82422 36.4421,30.21465 73.5566,60.67319 116.75,80.04492 1.0936,0.49044 2.2236,0.87432 3.3223,1.34961 91.0186,-44.42336 173.4176,-107.18264 267.9727,-144.01953 21.8909,-8.52834 44.3624,-15.49865 67.1836,-21.04101 A 339.79221,405.83688 0 0 0 1385.9941,0 Z" /><path
           style="display:inline;opacity:1;fill:url(#radialGradient1527);fill-opacity:1;stroke-width:7.281"
           d="m 1268.9252,-4.8522464 c -23.6238,22.2106414 -49.225,42.3172694 -76.4016,60.0041724 -25.0003,16.270491 -51.316,30.485643 -78.4296,42.919128 -23.5151,10.783306 -47.6414,20.233686 -72.2244,28.290666 49.0945,20.43317 105.6839,22.23702 155.9801,4.97203 37.3513,-12.82145 70.5159,-35.41512 101.969,-59.294332 C 1329.6496,49.391821 1358.4169,25.343427 1385.9941,0 Z"
           id="path1151" /></g><g
         id="g5149"
         style="display:inline;opacity:1"
         sodipodi:insensitive="true"><path
           style="display:inline;fill:url(#radialGradient1971);fill-opacity:1;stroke-width:7.281"
           d="m 0,166.40982 c 63.329801,-1.61832 126.5453,-7.69354 189.0242,-18.16587 65.62829,-11.00021 131.6927,-26.91396 197.9112,-20.34218 54.10493,5.36958 105.57681,25.55464 155.17593,47.82801 45.99951,20.6569 91.45693,43.41803 140.24219,56.17188 55.82022,14.59299 114.15259,15.6108 171.83007,17.08076 72.59058,1.85004 147.37141,5.05231 213.35941,35.35742 43.0336,19.76326 80.1903,50.14535 116.2636,80.82422 35.785,30.43367 71.6902,61.92548 114.4276,81.42649 48.7122,22.22729 103.1427,27.47417 156.2658,34.17244 52.4629,6.61503 105.7857,15.26954 152.7109,39.64453 57.9155,30.08385 101.2224,81.42367 149.6016,125.22656 48.8411,44.22107 103.9605,81.49753 163.1875,110.36133 V 1195.1478 H 0 Z"
           id="path1211" /><path
           id="path3492"
           style="display:inline;fill:url(#radialGradient3500);fill-opacity:1;stroke-width:9.94993"
           d="M 362.11133,126.43877 C 304.20776,125.23258 246.44814,138.61828 189.02344,148.24346 126.5446,158.71577 63.329738,164.79116 0,166.40947 V 576.71611 H 577.58594 V 191.6751 c -11.80572,-5.37668 -23.66293,-10.64107 -35.47461,-15.94532 -49.59908,-22.27334 -101.07091,-42.45855 -155.17578,-47.82812 -8.27731,-0.82147 -16.55228,-1.29058 -24.82422,-1.46289 z" /><path
           style="display:inline;opacity:1;fill:url(#radialGradient2614);fill-opacity:1;stroke:none;stroke-width:7.281"
           d="m 746.11734,243.33963 c 50.53628,1.90489 101.05503,4.27486 151.5477,7.1095 43.74574,2.45587 88.01445,5.36016 129.69546,18.86625 51.6645,16.74108 96.769,48.91452 139.7773,82.07723 27.3779,21.11049 54.2925,42.82195 80.7177,65.11346 l -47.4551,13.91786 C 1058.8853,438.94685 914.75489,391.6588 805.79467,300.95688 784.52405,283.25055 764.55968,263.97536 746.11734,243.33963 Z"
           id="path2604" /></g><g
         id="g4893"
         style="display:inline"
         sodipodi:insensitive="true"><path
           id="path9425"
           style="display:inline;fill:url(#radialGradient1277);fill-opacity:1;stroke-width:7.34984"
           d="m 1760.4102,266.14453 c -64.3591,0.83753 -128.5781,13.02723 -188.5586,36.39453 -110.0312,42.8661 -203.5673,120.90617 -313.4258,164.21289 -80.8541,31.87306 -167.8866,43.90503 -253.6973,57.68164 -88.50685,14.20949 -179.84437,31.81546 -253.00975,83.60547 -43.14526,30.54031 -77.72801,71.50665 -110.17578,113.23633 C 609.0952,763.00507 578.07704,806.19482 540.14062,843.00586 469.41325,911.63516 378.34323,954.70401 298.00586,1011.7852 225.70356,1063.1571 161.8254,1126.3309 109.57422,1198 h 9.12695 C 677.04561,1198 1303.793,1195.1478 1920,1195.1478 V 293.24425 c -42.0267,-12.21429 -88.2815,-25.12541 -132.0098,-26.76378 -9.1879,-0.34425 -18.3859,-0.45559 -27.58,-0.33594 z" /><path
           id="path7359"
           style="display:inline;fill:url(#radialGradient7369);fill-opacity:1;stroke-width:7.281"
           d="m 1760.4102,266.14385 c -64.3591,0.83753 -128.5782,13.02725 -188.5586,36.39453 -20.7278,8.07513 -40.7491,17.65747 -60.5254,27.76172 v 37.71093 H 1920 v -74.76757 c -42.0267,-12.21428 -88.2815,-25.12531 -132.0098,-26.76368 -9.1879,-0.34424 -18.386,-0.45558 -27.58,-0.33593 z" /><path
           id="path1389"
           style="fill:url(#radialGradient1398);fill-opacity:1;stroke-width:7.281"
           d="m 1483.1191,345.13603 c -74.6003,41.15295 -145.4254,90.36746 -224.6933,121.61524 -80.8539,31.873 -167.8868,43.90505 -253.6973,57.68164 -44.20624,7.09717 -89.11746,15.04584 -132.11912,27.67383 a 404.10461,356.26532 0 0 0 -14.24805,81.95117 l 0.52929,29.61133 a 404.10461,356.26532 0 0 0 284.61528,319.22461 c 49.4555,-23.76249 100.0044,-45.64521 141.2011,-81.43555 33.2245,-28.86416 58.6824,-65.4054 84.3535,-101.1543 25.6715,-35.74889 52.3955,-71.60014 87.3672,-98.32031 31.9117,-24.38199 69.5425,-40.22989 107.8008,-52.44141 33.1882,-10.59312 67.0628,-18.88239 100.5215,-28.57812 A 404.10461,356.26532 0 0 0 1483.1191,345.13603 Z" /></g><g
         id="g4703"
         style="display:inline"><path
           style="display:inline;opacity:1;fill:url(#radialGradient1229);fill-opacity:1;stroke-width:7.281"
           d="m 0.03125,505.3418 c 50.523927,33.2494 108.97637,54.36187 169.08594,61.07226 50.76759,5.66748 102.03269,1.19873 153.08008,-0.70703 51.04819,-1.90579 103.13402,-1.09453 151.74218,14.61524 45.30159,14.64111 85.47753,41.52642 125.01563,68.04687 39.53819,26.52051 79.77743,53.33517 125.13672,67.79688 42.72964,13.62331 88.25706,15.6944 133.10035,14.99023 44.84329,-0.70416 89.74987,-4.06997 134.48558,-0.88672 92.86617,6.60806 183.47927,42.21728 255.91997,100.69922 68.2633,55.10945 119.1165,128.38434 179.4863,192.04295 70.4011,74.2364 154.2984,135.6346 246.3508,180.2858 L 0,1200 Z"
           id="path1216"
           transform="translate(0,-4.8522464)"
           sodipodi:insensitive="true" /><path
           id="path7340"
           style="display:inline;fill:url(#radialGradient7348);fill-opacity:1;stroke-width:7.99431"
           d="m 36.111343,499.1851 5.001978,69.25906 a 520.15479,170.14464 0 0 0 134.873979,4.19413 520.15479,170.14464 0 0 0 309.32483,-38.11316 c -40.70973,-5.5046 -82.50709,-2.8645 -123.52128,1.64327 -50.77714,5.58079 -101.5868,13.73361 -152.63082,11.7407 -60.43686,-2.35965 -120.259327,-19.2034 -173.048687,-48.724 z"
           transform="rotate(4.1340253)"
           sodipodi:insensitive="true" /><path
           id="path8351"
           style="display:inline;fill:url(#radialGradient8359);fill-opacity:1;stroke:none;stroke-width:7.34658"
           d="m 244.74832,605.36376 c -12.58581,-1.81591 -25.24787,-3.27435 -37.8792,-4.55626 -16.39453,-1.66383 -32.83666,-3.2209 -49.27292,-4.78265 a 196.66878,47.589951 0 0 0 -178.868774,46.11411 l 0.25767,3.95521 a 196.66878,47.589951 0 0 0 203.531984,44.83129 196.66878,47.589951 0 0 0 188.78633,-44.61069 c -5.93484,-3.58788 -11.96609,-7.02894 -18.21202,-10.14206 -33.51251,-16.7034 -70.58563,-25.36123 -108.34307,-30.80895 z"
           transform="matrix(0.9905359,-0.13725389,0.1952139,0.98076069,0,0)"
           sodipodi:insensitive="true" /><path
           id="path4564-5"
           style="display:inline;fill:url(#radialGradient4682);fill-opacity:1;stroke-width:14.0435"
           d="m -468.37224,531.00248 c -2.83599,-12.17981 -6.02562,-24.24412 -9.36832,-36.18904 -5.91637,-21.14179 -12.22735,-42.19005 -18.05422,-63.3865 a 349.60776,921.49243 0 0 0 -192.84609,798.06516 l 0.45851,76.5894 a 349.60776,921.49243 0 0 0 35.36574,352.7547 c 43.15827,-64.6964 90.83868,-127.0673 123.27778,-196.737 41.16564,-88.4117 55.61975,-186.4082 41.15265,-276.7259 -6.96867,-43.5052 -20.38946,-84.9662 -31.1802,-127.2669 -10.79074,-42.3005 -19.0095,-86.18726 -15.26581,-131.31486 3.97404,-47.90457 21.21803,-95.11954 38.33217,-141.57018 17.11412,-46.45065 34.44438,-93.62927 38.60476,-141.53964 3.34803,-38.5554 -1.969,-76.13984 -10.47697,-112.67924 z"
           transform="matrix(0.33505165,-0.94219976,0.97464011,0.22377813,0,0)"
           sodipodi:insensitive="true" /></g><g
         id="g4680"
         style="display:none"
         transform="translate(2)"
         sodipodi:insensitive="true"><path
           id="path12411"
           style="display:inline;fill:url(#radialGradient1313);fill-opacity:1;stroke:none;stroke-width:7.281"
           d="m 1917.248,477.43945 c -29.9084,26.24412 -62.2667,49.69512 -96.5175,69.94727 -46.6761,27.599 -96.8099,49.21965 -148.6114,65.25 -38.3651,11.87239 -77.632,20.6947 -115.8906,32.90625 -38.2585,12.21154 -75.8891,28.05936 -107.8008,52.44141 -34.9719,26.72023 -61.6957,62.57134 -87.3672,98.32031 -25.6713,35.74896 -51.129,72.29007 -84.3535,101.15429 -55.3565,48.09182 -127.5991,71.07011 -191.3847,107.24412 C 1005.1347,1050.179 937.72984,1117.8033 892.27734,1198 h 6.13086 c 336.4617,-2.4419 709.4002,-2.6333 1019.5918,-2.8522 z" /><path
           id="path7841"
           style="display:inline;fill:url(#radialGradient7987);fill-opacity:1;stroke-width:7.281"
           d="m 1016.8066,1058.2402 c -49.217,40.2062 -91.18461,89.3067 -122.52926,144.6114 h 6.13086 c 38.003,-0.2758 77.60771,-0.4307 116.3984,-0.6524 z"
           transform="translate(-2,-4.8522464)" /><path
           id="path7601"
           style="display:inline;fill:url(#radialGradient7609);fill-opacity:1;stroke-width:7.35664"
           d="m 1488.5651,1273.7688 c -38.6079,10.4012 -78.1171,17.2153 -117.8458,20.3234 -54.1411,4.2356 -108.6225,1.5799 -162.0294,-6.8306 -24.9098,-3.9227 -49.5931,-9.0405 -74.3437,-13.7965 a 162.56543,411.10855 90 0 0 274.6579,36.4401 162.56543,411.10855 90 0 0 62.7445,-3.0414 z"
           transform="matrix(0.89790363,-0.44019209,0.45743,0.88924563,-2,0)" /><path
           id="path4564"
           style="display:inline;fill:url(#radialGradient4624);fill-opacity:1;stroke-width:9.18804"
           d="m 1681.1898,-243.86599 c -4.1024,4.36992 -8.2502,8.69816 -12.2537,13.16042 -26.8191,29.89259 -51.2567,62.60379 -66.443,99.78191 -16.6427,40.743466 -21.5507,85.18866 -25.6027,129.0132228 -4.052,43.8245122 -7.5188,88.2241672 -21.5693,129.9325772 -23.4101,69.49201 -74.0927,125.86797 -110.8038,189.34609 -14.9406,25.83412 -27.2883,53.09299 -37.4819,81.13763 a 405.83688,339.79221 90 0 0 11.8346,0.47963 405.83688,339.79221 90 0 0 327.3313,-411.965106 405.83688,339.79221 90 0 0 -65.0115,-230.886374 z"
           transform="rotate(30.399692)" /></g></g></g><g
     inkscape:groupmode="layer"
     id="layer1"
     inkscape:label="Layer 1"
     style="display:inline"><path
       id="path14527"
       style="display:inline;fill:#26475b;fill-rule:evenodd;fill-opacity:1"
       d="M 1273.2754 0 C 1263.8093 8.8555927 1253.7637 17.382002 1243.3008 25.5625 C 1232.8379 33.742998 1221.9578 41.576933 1210.8203 49.046875 C 1199.6828 56.516817 1188.2888 63.623732 1176.7988 70.347656 C 1165.3089 77.071581 1153.7234 83.413022 1142.2031 89.355469 C 1132.3813 94.421842 1122.4303 99.190997 1112.3711 103.69922 C 1102.3119 108.20744 1092.143 112.45527 1081.8828 116.48242 C 1071.6226 120.50958 1061.2724 124.31433 1050.8477 127.9375 C 1040.4229 131.56067 1029.924 135.00256 1019.3711 138.29883 C 998.26532 144.89137 976.93905 150.90685 955.53906 156.6543 C 934.13907 162.40174 912.66473 167.88137 891.26172 173.40039 C 876.09056 177.31246 860.87761 181.27463 845.74219 185.50586 C 830.60677 189.73709 815.54878 194.23655 800.68945 199.22266 C 785.83013 204.20877 771.16905 209.68072 756.82617 215.85742 C 749.65473 218.94577 742.56367 222.21004 735.56641 225.67773 C 728.56915 229.14543 721.66609 232.81725 714.87305 236.71875 C 711.92767 238.41039 709.16821 240.35994 706.27734 242.12695 C 712.37934 243.31795 718.49445 244.43487 724.64062 245.37305 C 738.8602 247.54357 753.18713 249.08368 767.57227 250.21484 C 781.9574 251.346 796.39983 252.06751 810.85156 252.59766 C 825.30329 253.1278 839.76424 253.46649 854.18359 253.83398 C 872.33122 254.29649 890.61544 254.84502 908.86523 255.87891 C 917.99013 256.39585 927.10727 257.03308 936.19336 257.84375 C 945.27945 258.65442 954.33547 259.63681 963.33984 260.8418 C 972.34422 262.04679 981.29602 263.47589 990.17578 265.17578 C 999.05554 266.87567 1007.862 268.84719 1016.5742 271.14258 C 1025.2865 273.43796 1033.9044 276.05541 1042.4062 279.04688 C 1050.9081 282.03834 1059.2945 285.40327 1067.543 289.19141 C 1078.3014 294.13222 1088.6923 299.73687 1098.791 305.84375 C 1108.8897 311.95063 1118.6964 318.56133 1128.2852 325.51172 C 1137.8739 332.46211 1147.244 339.75328 1156.4727 347.22461 C 1165.7013 354.69594 1174.7883 362.34592 1183.8066 370.01562 C 1192.7529 377.62403 1201.7073 385.29915 1210.7734 392.83594 C 1219.8396 400.37273 1229.0183 407.77269 1238.4141 414.83008 C 1247.8099 421.88746 1257.4222 428.60323 1267.3574 434.77344 C 1272.325 437.85854 1277.3739 440.8069 1282.5156 443.59375 C 1287.6574 446.3806 1292.8922 449.00574 1298.2344 451.44336 C 1299.227 451.8963 1300.2566 452.23874 1301.2539 452.67773 C 1313.7317 446.64773 1326.0715 440.32404 1338.2715 433.70312 C 1351.24 426.66511 1364.0824 419.35871 1376.8613 411.91797 C 1389.6403 404.47722 1402.3567 396.90243 1415.0742 389.33203 C 1427.7918 381.76163 1440.5106 374.19455 1453.2949 366.76758 C 1466.0793 359.3406 1478.9289 352.05345 1491.9082 345.04297 C 1504.8875 338.03249 1517.9963 331.29942 1531.2988 324.97852 C 1544.6013 318.65761 1558.0977 312.74888 1571.8516 307.39062 C 1586.8467 301.54881 1602.1075 296.40674 1617.5684 291.96484 C 1633.0292 287.52295 1648.6897 283.78261 1664.4883 280.74609 C 1680.2869 277.70958 1696.2223 275.37567 1712.2305 273.75 C 1728.2387 272.12433 1744.3204 271.20548 1760.4102 270.99609 C 1769.6042 270.87644 1778.8023 270.98778 1787.9902 271.33203 C 1798.9223 271.74162 1810.012 272.85662 1821.1543 274.48828 C 1832.2966 276.11994 1843.4913 278.26837 1854.6328 280.74805 C 1865.7743 283.22773 1876.8633 286.03854 1887.793 288.99219 C 1898.7226 291.94584 1909.4933 295.04213 1920 298.0957 L 1920 0 L 1273.2754 0 z " /><path
       id="path17649"
       style="display:inline;opacity:1;fill:url(#radialGradient17658);fill-opacity:1;stroke-width:7.281;stop-color:#000000;filter:url(#filter17966)"
       d="m 1087.5599,436.04716 c 3.2376,-83.20657 107.4088,-148.95731 232.8105,-146.94533 125.4017,2.01197 224.662,71.0266 221.8354,154.23975 -2.8266,83.21315 -106.6724,149.1901 -232.0834,147.45086 -125.4109,-1.73926 -225.0116,-70.53765 -222.596,-153.75649 z"
       sodipodi:nodetypes="cssscc" /><path
       id="path14543"
       style="fill:#264d64;fill-rule:evenodd;fill-opacity:1"
       d="M 706.27734 242.12695 C 700.3995 245.71973 694.47225 249.24545 688.79883 253.12109 C 680.33509 258.90288 672.08458 264.97671 663.99805 271.28125 C 655.91151 277.58579 647.98993 284.12089 640.1875 290.82031 C 632.38507 297.51974 624.70127 304.38316 617.08984 311.34961 C 601.86699 325.28251 586.93345 339.62165 571.91602 353.85547 C 556.89858 368.08929 541.79705 382.21863 526.24023 395.73047 C 517.53177 403.29419 508.67083 410.6707 499.66797 417.86719 C 490.66511 425.06367 481.51932 432.08096 472.24609 438.92383 C 462.97286 445.76669 453.57232 452.43463 444.05273 458.9375 C 434.53315 465.44037 424.89623 471.77664 415.1543 477.95312 C 395.67044 490.3061 375.76429 502.02123 355.53516 513.15039 C 335.30603 524.27955 314.75297 534.8236 293.9707 544.83789 C 276.28493 553.36009 258.25582 561.13928 240.22656 568.9082 C 242.00332 568.87289 243.77561 568.9454 245.55273 568.90039 C 271.09586 568.25342 296.6736 566.65991 322.19727 565.70703 C 334.9593 565.23058 347.78623 564.92304 360.60742 564.97656 C 373.42861 565.03008 386.24318 565.44405 398.98242 566.4082 C 411.72166 567.37236 424.38616 568.88712 436.90234 571.14258 C 443.16044 572.27031 449.38077 573.58354 455.55664 575.10547 C 461.73251 576.6274 467.86344 578.35855 473.93945 580.32227 C 479.60215 582.1524 485.18403 584.17319 490.69531 586.36133 C 496.20659 588.54947 501.64799 590.90545 507.02539 593.40234 C 517.78019 598.39612 528.28491 603.95737 538.60938 609.89062 C 548.93384 615.82388 559.07696 622.12872 569.11133 628.60742 C 579.1457 635.08612 589.07056 641.73903 598.95508 648.36914 C 608.83962 654.99926 618.76738 661.64791 628.80859 668.11719 C 638.84981 674.58647 649.00386 680.87585 659.33984 686.78906 C 662.56545 688.63443 665.94585 690.1442 669.20898 691.91016 C 676.81984 682.86243 684.54744 673.9108 692.61914 665.3125 C 701.66654 655.67484 711.04881 646.38695 720.86523 637.59961 C 725.77345 633.20594 730.78961 628.93893 735.92773 624.81445 C 741.06586 620.68998 746.3256 616.70816 751.71875 612.89062 C 760.86441 606.41688 770.29428 600.47735 779.9668 595.01172 C 789.63932 589.54609 799.55454 584.55433 809.67188 579.97656 C 819.78921 575.39879 830.10778 571.23596 840.58789 567.42578 C 851.068 563.6156 861.70986 560.15895 872.4707 556.99609 C 883.23154 553.83324 894.11274 550.96392 905.07227 548.32812 C 916.0318 545.69233 927.07031 543.28954 938.14648 541.06055 C 960.29884 536.60256 982.60183 532.83753 1004.7285 529.28516 C 1026.1812 525.84101 1047.7095 522.50671 1069.1992 518.94336 C 1090.689 515.38001 1112.14 511.58757 1133.4355 507.23047 C 1144.0833 505.05192 1154.6922 502.73198 1165.248 500.22852 C 1175.8039 497.72505 1186.3071 495.03965 1196.7422 492.12695 C 1207.1773 489.21425 1217.5447 486.07422 1227.8301 482.66797 C 1238.1155 479.26171 1248.319 475.58764 1258.4258 471.60352 C 1272.1581 466.19018 1285.6356 460.23526 1298.9219 453.87305 C 1299.7093 453.496 1300.4678 453.05761 1301.2539 452.67773 C 1300.2566 452.23874 1299.227 451.8963 1298.2344 451.44336 C 1292.8922 449.00574 1287.6574 446.3806 1282.5156 443.59375 C 1277.3739 440.8069 1272.325 437.85854 1267.3574 434.77344 C 1257.4222 428.60323 1247.8099 421.88746 1238.4141 414.83008 C 1229.0183 407.77269 1219.8396 400.37273 1210.7734 392.83594 C 1201.7073 385.29915 1192.7529 377.62403 1183.8066 370.01562 C 1174.7883 362.34592 1165.7013 354.69594 1156.4727 347.22461 C 1147.244 339.75328 1137.8739 332.46211 1128.2852 325.51172 C 1118.6964 318.56133 1108.8897 311.95063 1098.791 305.84375 C 1088.6923 299.73687 1078.3014 294.13222 1067.543 289.19141 C 1059.2945 285.40327 1050.9081 282.03834 1042.4062 279.04688 C 1033.9044 276.05541 1025.2865 273.43796 1016.5742 271.14258 C 1007.862 268.84719 999.05554 266.87567 990.17578 265.17578 C 981.29602 263.47589 972.34422 262.04679 963.33984 260.8418 C 954.33547 259.63681 945.27945 258.65442 936.19336 257.84375 C 927.10727 257.03308 917.99013 256.39585 908.86523 255.87891 C 890.61544 254.84502 872.33122 254.29649 854.18359 253.83398 C 839.76424 253.46649 825.30329 253.1278 810.85156 252.59766 C 796.39983 252.06751 781.9574 251.346 767.57227 250.21484 C 753.18713 249.08368 738.8602 247.54357 724.64062 245.37305 C 718.49445 244.43487 712.37934 243.31795 706.27734 242.12695 z " /><path
       id="path17550"
       style="display:inline;opacity:1;fill:url(#radialGradient17558);stroke-width:13.8844;stop-color:#000000;filter:url(#filter17982)"
       d="M 299.78453,743.95371 A 304.16521,284.27238 0 0 1 611.20079,467.10162 304.16521,284.27238 0 0 1 907.93637,757.69677 304.16521,284.27238 0 0 1 597.49267,1035.5013 304.16521,284.27238 0 0 1 299.73961,745.81666" /><path
       id="path14541"
       style="fill:#264d64;fill-rule:evenodd;fill-opacity:1"
       d="M 0 647.99805 C 25.354745 642.16957 50.545466 635.63136 75.535156 628.39648 C 100.52485 621.16161 125.31295 613.22975 149.86133 604.61523 C 174.4097 596.00072 198.7192 586.70372 222.75 576.73633 C 228.64691 574.29043 234.36368 571.43456 240.22656 568.9082 C 229.2344 569.12667 218.24516 569.2627 207.27539 568.96289 C 194.53249 568.61462 181.80907 567.83093 169.11719 566.41406 C 161.6035 565.57526 154.11567 564.511 146.66602 563.22656 C 139.21636 561.94212 131.80448 560.43803 124.44336 558.7168 C 117.08224 556.99557 109.77153 555.05738 102.52344 552.9082 C 95.275343 550.75903 88.091036 548.39835 80.980469 545.83008 C 73.869901 543.26181 66.833309 540.48633 59.884766 537.50781 C 52.936223 534.52929 46.074521 531.34867 39.3125 527.96875 C 32.550479 524.58883 25.888892 521.0088 19.337891 517.23633 L 19.337891 517.23633 C 25.888892 521.0088 32.550479 524.58883 39.3125 527.96875 C 46.074521 531.34867 52.936223 534.52929 59.884766 537.50781 C 66.833309 540.48633 73.869901 543.26181 80.980469 545.83008 C 88.091036 548.39835 95.275343 550.75903 102.52344 552.9082 C 109.77153 555.05738 117.08224 556.99557 124.44336 558.7168 C 131.80448 560.43803 139.21636 561.94212 146.66602 563.22656 C 154.11567 564.511 161.6035 565.57526 169.11719 566.41406 C 181.80907 567.83093 194.53249 568.61462 207.27539 568.96289 C 218.24516 569.2627 229.2344 569.12667 240.22656 568.9082 C 258.25582 561.13928 276.28493 553.36009 293.9707 544.83789 C 314.75297 534.8236 335.30603 524.27955 355.53516 513.15039 C 375.76429 502.02123 395.67044 490.3061 415.1543 477.95312 C 424.89623 471.77664 434.53315 465.44037 444.05273 458.9375 C 453.57232 452.43463 462.97286 445.76669 472.24609 438.92383 C 481.51932 432.08096 490.66511 425.06367 499.66797 417.86719 C 508.67083 410.6707 517.53177 403.29419 526.24023 395.73047 C 541.79705 382.21863 556.89858 368.08929 571.91602 353.85547 C 586.93345 339.62165 601.86699 325.28251 617.08984 311.34961 C 624.70127 304.38316 632.38507 297.51974 640.1875 290.82031 C 647.98993 284.12089 655.91151 277.58579 663.99805 271.28125 C 672.08458 264.97671 680.33509 258.90288 688.79883 253.12109 C 694.47225 249.24545 700.3995 245.71973 706.27734 242.12695 C 705.32065 241.94022 704.35393 241.81063 703.39844 241.61719 C 696.3486 240.18989 689.33104 238.57803 682.35352 236.75391 C 670.15721 233.56545 658.16892 229.75208 646.32812 225.50195 C 634.48733 221.25183 622.79371 216.56417 611.1875 211.63086 C 587.97507 201.76424 565.11106 190.91047 542.11133 180.58203 C 529.71156 175.01369 517.19457 169.57523 504.54883 164.4668 C 491.90309 159.35836 479.12837 154.57894 466.21289 150.32812 C 453.29742 146.07731 440.24217 142.35484 427.0332 139.35938 C 420.42872 137.86164 413.78583 136.54682 407.10352 135.4375 C 400.4212 134.32818 393.69866 133.4251 386.93555 132.75391 C 378.65824 131.93243 370.38327 131.46333 362.11133 131.29102 C 353.83939 131.1187 345.57016 131.24346 337.30469 131.61328 C 329.03922 131.9831 320.77743 132.59742 312.51953 133.40234 C 304.26163 134.20726 296.00704 135.20294 287.75781 136.33594 C 271.25935 138.60193 254.77943 141.41738 238.32227 144.35352 C 221.8651 147.28965 205.43049 150.34565 189.02344 153.0957 C 173.40373 155.71378 157.73917 158.05749 142.03711 160.125 C 126.33505 162.19251 110.597 163.98493 94.832031 165.5 C 79.067066 167.01507 63.27522 168.25213 47.466797 169.21289 C 31.658374 170.17365 15.832434 170.85714 0 171.26172 L 0 647.99805 z " /><path
       id="path17562"
       style="display:inline;opacity:1;fill:url(#radialGradient17565);stroke-width:13.8844;stop-color:#000000;filter:url(#filter17978)"
       d="M -193.41465,666.54154 A 304.16521,284.27238 0 0 1 118.00161,389.68945 304.16521,284.27238 0 0 1 414.73719,680.2846 304.16521,284.27238 0 0 1 104.29349,958.08909 304.16521,284.27238 0 0 1 -193.45957,668.40449" /><path
       id="path14539"
       style="fill:#265a78;fill-rule:evenodd;fill-opacity:1"
       d="M 120.88477 1200 C 133.24947 1183.1184 145.72818 1166.6282 158.59375 1150.7441 C 165.39898 1142.3423 172.30169 1134.0865 179.33203 1125.9824 C 186.36237 1117.8784 193.51974 1109.9262 200.83398 1102.1328 C 208.14822 1094.3394 215.62041 1086.7061 223.27734 1079.2363 C 230.93428 1071.7665 238.77556 1064.4614 246.83398 1057.3281 C 254.89241 1050.1949 263.16684 1043.2331 271.68555 1036.4492 C 280.20425 1029.6654 288.96808 1023.0582 298.00586 1016.6367 C 308.04802 1009.5016 318.25736 1002.587 328.57422 995.8125 C 338.89108 989.03795 349.31498 982.40447 359.78516 975.83594 C 380.72551 962.69887 401.85246 949.81862 422.67773 936.57812 C 433.09037 929.95788 443.42712 923.24712 453.62891 916.36914 C 463.8307 909.49116 473.89607 902.44654 483.76562 895.15625 C 493.63518 887.86596 503.30868 880.32984 512.72461 872.47266 C 522.14054 864.61548 531.29971 856.43608 540.14062 847.85742 C 549.62472 838.65467 558.67603 829.05339 567.42578 819.17578 C 576.17553 809.29817 584.62412 799.14539 592.90039 788.83789 C 609.45294 768.22288 625.3191 746.99177 641.54297 726.12695 C 649.6549 715.69454 657.89967 705.31101 666.37891 695.125 C 667.29333 694.02651 668.28899 693.00383 669.20898 691.91016 C 665.94585 690.1442 662.56545 688.63443 659.33984 686.78906 C 649.00386 680.87585 638.84981 674.58647 628.80859 668.11719 C 618.76738 661.64791 608.83962 654.99926 598.95508 648.36914 C 589.07056 641.73903 579.1457 635.08612 569.11133 628.60742 C 559.07696 622.12872 548.93384 615.82388 538.60938 609.89062 C 528.28491 603.95737 517.78019 598.39612 507.02539 593.40234 C 501.64799 590.90545 496.20659 588.54947 490.69531 586.36133 C 485.18403 584.17319 479.60215 582.1524 473.93945 580.32227 C 467.86344 578.35855 461.73251 576.6274 455.55664 575.10547 C 449.38077 573.58354 443.16044 572.27031 436.90234 571.14258 C 424.38616 568.88712 411.72166 567.37236 398.98242 566.4082 C 386.24318 565.44405 373.42861 565.03008 360.60742 564.97656 C 347.78623 564.92304 334.9593 565.23058 322.19727 565.70703 C 296.6736 566.65991 271.09586 568.25342 245.55273 568.90039 C 243.77561 568.9454 242.00332 568.87289 240.22656 568.9082 C 234.36368 571.43456 228.64691 574.29043 222.75 576.73633 C 198.7192 586.70372 174.4097 596.00072 149.86133 604.61523 C 125.31295 613.22975 100.52485 621.16161 75.535156 628.39648 C 50.545466 635.63136 25.354745 642.16957 0 647.99805 L 0 1200 L 120.88477 1200 z " /><path
       id="path17224"
       style="display:inline;opacity:1;fill:url(#radialGradient17241);fill-opacity:1;stroke-width:17.5825;stop-color:#000000;filter:url(#filter17974)"
       d="M -227.7102,1219.0134 A 348.71117,318.31869 0 0 1 129.31393,909.00394 348.71117,318.31869 0 0 1 469.50738,1234.4026 348.71117,318.31869 0 0 1 113.59821,1545.4787 348.71117,318.31869 0 0 1 -227.76172,1221.0997" /><path
       id="path14537"
       style="fill:#265a78;fill-rule:evenodd;fill-opacity:0.99822235"
       d="M 896.02539 1200 C 901.21687 1190.9802 906.59889 1182.0693 912.33398 1173.3867 C 918.68364 1163.7737 925.3579 1154.3749 932.33984 1145.2109 C 939.32178 1136.0469 946.61105 1127.117 954.18945 1118.4395 C 961.76786 1109.7619 969.63439 1101.3374 977.77344 1093.1836 C 985.91249 1085.0298 994.32441 1077.1473 1002.9883 1069.5547 C 1011.6522 1061.9621 1020.5678 1054.66 1029.7207 1047.666 C 1038.8736 1040.6721 1048.2631 1033.9868 1057.8691 1027.6289 C 1067.4752 1021.271 1077.2988 1015.2392 1087.3223 1009.5547 C 1103.2686 1000.5112 1119.744 992.29339 1136.3516 984.30078 C 1152.9591 976.30817 1169.6991 968.54124 1186.1758 960.40234 C 1194.4141 956.3329 1202.5874 952.17033 1210.6445 947.83984 C 1218.7017 943.50936 1226.643 939.0107 1234.4199 934.26953 C 1242.1969 929.52836 1249.8093 924.54564 1257.207 919.24414 C 1264.6048 913.94264 1271.7875 908.32202 1278.707 902.31055 C 1287.0131 895.0945 1294.833 887.3988 1302.293 879.35547 C 1302.5165 879.11441 1302.7126 878.84715 1302.9355 878.60547 C 1301.2144 877.02516 1299.55 875.3826 1297.8184 873.81445 C 1281.4705 859.01033 1264.6635 844.7461 1247.5977 830.96875 C 1238.5426 823.65851 1229.2032 816.70654 1219.6113 810.12305 C 1210.0195 803.53955 1200.1759 797.325 1190.1094 791.49219 C 1180.0429 785.65937 1169.7543 780.20663 1159.2754 775.14844 C 1148.7965 770.09024 1138.126 765.42565 1127.2969 761.16602 C 1116.4677 756.90638 1105.4785 753.05237 1094.3613 749.61523 C 1083.2441 746.1781 1071.9993 743.15906 1060.6562 740.56836 C 1049.3132 737.97766 1037.872 735.81603 1026.3652 734.0957 C 1014.8585 732.37538 1003.286 731.09554 991.67773 730.26953 C 980.49382 729.47372 969.29927 729.08789 958.09766 728.9668 C 946.89604 728.8457 935.68661 728.99008 924.47461 729.25586 C 902.05061 729.78743 879.61303 730.80417 857.19141 731.15625 C 845.98059 731.33229 834.72825 731.33535 823.48633 731.02734 C 812.24441 730.71934 801.01383 730.09953 789.84961 729.0332 C 778.68538 727.96687 767.58709 726.45441 756.60938 724.35547 C 745.63166 722.25653 734.7742 719.57184 724.0918 716.16602 C 718.42189 714.3583 712.83104 712.35849 707.3125 710.18945 C 701.79396 708.02041 696.34732 705.68214 690.96289 703.20117 C 683.55473 699.78774 676.4021 695.80296 669.20898 691.91016 C 668.28899 693.00383 667.29333 694.02651 666.37891 695.125 C 657.89967 705.31101 649.6549 715.69454 641.54297 726.12695 C 625.3191 746.99177 609.45294 768.22288 592.90039 788.83789 C 584.62412 799.14539 576.17553 809.29817 567.42578 819.17578 C 558.67603 829.05339 549.62472 838.65467 540.14062 847.85742 C 531.29971 856.43608 522.14054 864.61548 512.72461 872.47266 C 503.30868 880.32984 493.63518 887.86596 483.76562 895.15625 C 473.89607 902.44654 463.8307 909.49116 453.62891 916.36914 C 443.42712 923.24712 433.09037 929.95788 422.67773 936.57812 C 401.85246 949.81862 380.72551 962.69887 359.78516 975.83594 C 349.31498 982.40447 338.89108 989.03795 328.57422 995.8125 C 318.25736 1002.587 308.04802 1009.5016 298.00586 1016.6367 C 288.96808 1023.0582 280.20425 1029.6654 271.68555 1036.4492 C 263.16684 1043.2331 254.89241 1050.1949 246.83398 1057.3281 C 238.77556 1064.4614 230.93428 1071.7665 223.27734 1079.2363 C 215.62041 1086.7061 208.14822 1094.3394 200.83398 1102.1328 C 193.51974 1109.9262 186.36237 1117.8784 179.33203 1125.9824 C 172.30169 1134.0865 165.39898 1142.3423 158.59375 1150.7441 C 145.72818 1166.6282 133.24947 1183.1184 120.88477 1200 L 896.02539 1200 z " /><path
       id="path14529"
       style="display:inline;fill:#26536e;fill-rule:evenodd;fill-opacity:1"
       d="M 1920 298.0957 C 1909.4933 295.04213 1898.7226 291.94584 1887.793 288.99219 C 1876.8633 286.03854 1865.7743 283.22773 1854.6328 280.74805 C 1843.4913 278.26837 1832.2966 276.11994 1821.1543 274.48828 C 1810.012 272.85662 1798.9223 271.74162 1787.9902 271.33203 C 1778.8023 270.98778 1769.6042 270.87644 1760.4102 270.99609 C 1744.3204 271.20548 1728.2387 272.12433 1712.2305 273.75 C 1696.2223 275.37567 1680.2869 277.70958 1664.4883 280.74609 C 1648.6897 283.78261 1633.0292 287.52295 1617.5684 291.96484 C 1602.1075 296.40674 1586.8467 301.54881 1571.8516 307.39062 C 1558.0977 312.74888 1544.6013 318.65761 1531.2988 324.97852 C 1517.9963 331.29942 1504.8875 338.03249 1491.9082 345.04297 C 1478.9289 352.05345 1466.0793 359.3406 1453.2949 366.76758 C 1440.5106 374.19455 1427.7918 381.76163 1415.0742 389.33203 C 1402.3567 396.90243 1389.6403 404.47722 1376.8613 411.91797 C 1364.0824 419.35871 1351.24 426.66511 1338.2715 433.70312 C 1326.0715 440.32404 1313.7317 446.64773 1301.2539 452.67773 C 1306.3744 454.9316 1311.5214 457.10611 1316.7559 459.01758 C 1323.0099 461.30135 1329.3389 463.35566 1335.7305 465.2168 C 1348.5135 468.93906 1361.5444 471.88786 1374.7129 474.35156 C 1387.8814 476.81527 1401.1871 478.79503 1414.5215 480.57617 C 1427.8559 482.35731 1441.2192 483.94067 1454.5 485.61523 C 1467.6157 487.26899 1480.7847 489.04942 1493.8945 491.17188 C 1507.0043 493.29433 1520.0545 495.75866 1532.9316 498.77734 C 1545.8087 501.79603 1558.5141 505.37044 1570.9316 509.71289 C 1577.1404 511.88412 1583.2767 514.24775 1589.3281 516.83008 C 1595.3795 519.4124 1601.3453 522.21289 1607.2109 525.25977 C 1614.4504 529.02024 1621.4619 533.11198 1628.2832 537.48047 C 1635.1046 541.84896 1641.7366 546.49339 1648.2168 551.35742 C 1654.6969 556.22145 1661.0244 561.30564 1667.2402 566.55273 C 1673.4561 571.79983 1679.5595 577.21082 1685.5879 582.72852 C 1693.6734 590.12905 1701.541 597.83977 1709.4512 605.49023 C 1710.502 605.10625 1711.5799 604.80094 1712.6289 604.41211 C 1725.3428 599.69968 1737.9261 594.63254 1750.3477 589.20312 C 1762.7692 583.77371 1775.0303 577.98273 1787.1035 571.82422 C 1799.1768 565.66571 1811.0615 559.13802 1822.7305 552.23828 C 1827.0118 549.70677 1831.2759 547.48674 1835.5176 545.48633 C 1839.7593 543.48592 1843.9779 541.7064 1848.1719 540.05859 C 1856.5598 536.76299 1864.8454 533.99324 1872.9941 531.03711 C 1881.1429 528.08098 1889.1549 524.93718 1897 520.89258 C 1900.9226 518.87028 1904.8041 516.62271 1908.6387 514.06055 C 1912.4733 511.49839 1916.2615 508.62231 1920 505.3418 L 1920 298.0957 z " /><path
       id="path16372"
       style="display:inline;opacity:1;fill:url(#radialGradient16484);stroke-width:11.6091;stop-color:#000000"
       d="M 1540.5341,582.72813 A 176.36589,117.5824 0 0 1 1721.1044,468.21496 176.36589,117.5824 0 0 1 1893.1623,588.41261 176.36589,117.5824 0 0 1 1713.1559,703.31973 176.36589,117.5824 0 0 1 1540.508,583.49869" /><path
       id="rect14485"
       style="display:inline;fill:#26536e;fill-rule:evenodd;fill-opacity:1"
       d="M 1301.2539 452.67773 C 1300.4678 453.05761 1299.7093 453.496 1298.9219 453.87305 C 1285.6356 460.23526 1272.1581 466.19018 1258.4258 471.60352 C 1248.319 475.58764 1238.1155 479.26171 1227.8301 482.66797 C 1217.5447 486.07422 1207.1773 489.21425 1196.7422 492.12695 C 1186.3071 495.03965 1175.8039 497.72505 1165.248 500.22852 C 1154.6922 502.73198 1144.0833 505.05192 1133.4355 507.23047 C 1112.14 511.58757 1090.689 515.38001 1069.1992 518.94336 C 1047.7095 522.50671 1026.1812 525.84101 1004.7285 529.28516 C 982.60183 532.83753 960.29884 536.60256 938.14648 541.06055 C 927.07031 543.28954 916.0318 545.69233 905.07227 548.32812 C 894.11274 550.96392 883.23154 553.83324 872.4707 556.99609 C 861.70986 560.15895 851.068 563.6156 840.58789 567.42578 C 830.10778 571.23596 819.78921 575.39879 809.67188 579.97656 C 799.55454 584.55433 789.63932 589.54609 779.9668 595.01172 C 770.29428 600.47735 760.86441 606.41688 751.71875 612.89062 C 746.3256 616.70816 741.06586 620.68998 735.92773 624.81445 C 730.78961 628.93893 725.77345 633.20594 720.86523 637.59961 C 711.04881 646.38695 701.66654 655.67484 692.61914 665.3125 C 684.54744 673.9108 676.81984 682.86243 669.20898 691.91016 C 676.4021 695.80296 683.55473 699.78774 690.96289 703.20117 C 696.34732 705.68214 701.79396 708.02041 707.3125 710.18945 C 712.83104 712.35849 718.42189 714.3583 724.0918 716.16602 C 734.7742 719.57184 745.63166 722.25653 756.60938 724.35547 C 767.58709 726.45441 778.68538 727.96687 789.84961 729.0332 C 801.01383 730.09953 812.24441 730.71934 823.48633 731.02734 C 834.72825 731.33535 845.98059 731.33229 857.19141 731.15625 C 879.61303 730.80417 902.05061 729.78743 924.47461 729.25586 C 935.68661 728.99008 946.89604 728.8457 958.09766 728.9668 C 969.29927 729.08789 980.49382 729.47372 991.67773 730.26953 C 1003.286 731.09554 1014.8585 732.37538 1026.3652 734.0957 C 1037.872 735.81603 1049.3132 737.97766 1060.6562 740.56836 C 1071.9993 743.15906 1083.2441 746.1781 1094.3613 749.61523 C 1105.4785 753.05237 1116.4677 756.90638 1127.2969 761.16602 C 1138.126 765.42565 1148.7965 770.09024 1159.2754 775.14844 C 1169.7543 780.20663 1180.0429 785.65937 1190.1094 791.49219 C 1200.1759 797.325 1210.0195 803.53955 1219.6113 810.12305 C 1229.2032 816.70654 1238.5426 823.65851 1247.5977 830.96875 C 1264.6635 844.7461 1281.4705 859.01033 1297.8184 873.81445 C 1299.55 875.3826 1301.2144 877.02516 1302.9355 878.60547 C 1310.1511 870.78311 1317.0593 862.66444 1323.7168 854.31641 C 1330.58 845.71045 1337.2068 836.8883 1343.7227 827.98438 C 1350.2385 819.08045 1356.6427 810.09348 1363.0605 801.15625 C 1369.4784 792.21902 1375.9612 783.27644 1382.623 774.4707 C 1389.2849 765.66497 1396.1252 756.99703 1403.2559 748.61133 C 1410.3865 740.22562 1417.8084 732.12246 1425.6328 724.44531 C 1433.4572 716.76817 1441.6848 709.51599 1450.4277 702.83594 C 1458.4057 696.74043 1466.7403 691.17948 1475.3535 686.07422 C 1483.9667 680.96896 1492.8578 676.32081 1501.9473 672.05273 C 1511.0367 667.78466 1520.3258 663.89645 1529.7324 660.3125 C 1539.139 656.72855 1548.6639 653.44741 1558.2285 650.39453 C 1577.3578 644.28876 1596.7401 639.03052 1616.1348 633.81445 C 1635.5294 628.59839 1654.9366 623.42447 1674.1191 617.48828 C 1686.001 613.81137 1697.7664 609.76006 1709.4512 605.49023 C 1701.541 597.83977 1693.6734 590.12905 1685.5879 582.72852 C 1679.5595 577.21082 1673.4561 571.79983 1667.2402 566.55273 C 1661.0244 561.30564 1654.6969 556.22145 1648.2168 551.35742 C 1641.7366 546.49339 1635.1046 541.84896 1628.2832 537.48047 C 1621.4619 533.11198 1614.4504 529.02024 1607.2109 525.25977 C 1601.3453 522.21289 1595.3795 519.4124 1589.3281 516.83008 C 1583.2767 514.24775 1577.1404 511.88412 1570.9316 509.71289 C 1558.5141 505.37044 1545.8087 501.79603 1532.9316 498.77734 C 1520.0545 495.75866 1507.0043 493.29433 1493.8945 491.17188 C 1480.7847 489.04942 1467.6157 487.26899 1454.5 485.61523 C 1441.2192 483.94067 1427.8559 482.35731 1414.5215 480.57617 C 1401.1871 478.79503 1387.8814 476.81527 1374.7129 474.35156 C 1361.5444 471.88786 1348.5135 468.93906 1335.7305 465.2168 C 1329.3389 463.35566 1323.0099 461.30135 1316.7559 459.01758 C 1311.5214 457.10611 1306.3744 454.9316 1301.2539 452.67773 z " /><path
       id="path14533"
       style="fill:#276082;fill-rule:evenodd;fill-opacity:1"
       d="M 1920 760.84766 C 1905.1933 753.63171 1890.6441 745.88912 1876.3848 737.64453 C 1862.1254 729.39995 1848.1559 720.65313 1834.5117 711.42578 C 1820.8676 702.19843 1807.5471 692.49041 1794.5859 682.32617 C 1781.6248 672.16193 1769.0228 661.54158 1756.8125 650.48633 C 1744.7177 639.53562 1732.9401 628.11286 1721.1719 616.66992 C 1717.2956 612.90083 1713.3363 609.24785 1709.4512 605.49023 C 1697.7664 609.76006 1686.001 613.81137 1674.1191 617.48828 C 1654.9366 623.42447 1635.5294 628.59839 1616.1348 633.81445 C 1596.7401 639.03052 1577.3578 644.28876 1558.2285 650.39453 C 1548.6639 653.44741 1539.139 656.72855 1529.7324 660.3125 C 1520.3258 663.89645 1511.0367 667.78466 1501.9473 672.05273 C 1492.8578 676.32081 1483.9667 680.96896 1475.3535 686.07422 C 1466.7403 691.17948 1458.4057 696.74043 1450.4277 702.83594 C 1441.6848 709.51599 1433.4572 716.76817 1425.6328 724.44531 C 1417.8084 732.12246 1410.3865 740.22562 1403.2559 748.61133 C 1396.1252 756.99703 1389.2849 765.66497 1382.623 774.4707 C 1375.9612 783.27644 1369.4784 792.21902 1363.0605 801.15625 C 1356.6427 810.09348 1350.2385 819.08045 1343.7227 827.98438 C 1337.2068 836.8883 1330.58 845.71045 1323.7168 854.31641 C 1317.0593 862.66444 1310.1511 870.78311 1302.9355 878.60547 C 1309.3385 884.48464 1315.7295 890.3801 1321.9707 896.43164 C 1329.8895 904.10982 1337.6681 911.92924 1345.2812 919.89648 C 1352.8944 927.86373 1360.3426 935.97878 1367.5996 944.24805 C 1374.8567 952.51732 1381.9229 960.94115 1388.7734 969.52539 C 1395.624 978.10963 1402.2588 986.85542 1408.6523 995.76758 C 1415.0459 1004.6797 1421.1979 1013.7587 1427.084 1023.0117 C 1428.89 1025.8509 1431.2656 1028.9521 1434.1426 1032.2773 C 1437.0195 1035.6026 1440.3986 1039.1523 1444.2109 1042.8867 C 1451.8355 1050.3556 1461.1953 1058.5663 1471.748 1067.2109 C 1482.3008 1075.8556 1494.0448 1084.9332 1506.4414 1094.1387 C 1518.838 1103.3442 1531.8868 1112.6766 1545.043 1121.8281 C 1571.3552 1140.1312 1598.1028 1157.7114 1620.9473 1172.1094 C 1641.3767 1184.9853 1656.8014 1193.9731 1667.8867 1200 L 1920 1200 L 1920 760.84766 z " /><path
       id="path14531"
       style="fill:#276082;fill-rule:evenodd;fill-opacity:1"
       d="M 1920 505.3418 C 1916.2615 508.62231 1912.4733 511.49839 1908.6387 514.06055 C 1904.8041 516.62271 1900.9226 518.87028 1897 520.89258 C 1889.1549 524.93718 1881.1429 528.08098 1872.9941 531.03711 C 1864.8454 533.99324 1856.5598 536.76299 1848.1719 540.05859 C 1843.9779 541.7064 1839.7593 543.48592 1835.5176 545.48633 C 1831.2759 547.48674 1827.0118 549.70677 1822.7305 552.23828 C 1811.0615 559.13802 1799.1768 565.66571 1787.1035 571.82422 C 1775.0303 577.98273 1762.7692 583.77371 1750.3477 589.20312 C 1737.9261 594.63254 1725.3428 599.69968 1712.6289 604.41211 C 1711.5799 604.80094 1710.502 605.10625 1709.4512 605.49023 C 1713.3363 609.24785 1717.2956 612.90083 1721.1719 616.66992 C 1732.9401 628.11286 1744.7177 639.53562 1756.8125 650.48633 C 1769.0228 661.54158 1781.6248 672.16193 1794.5859 682.32617 C 1807.5471 692.49041 1820.8676 702.19843 1834.5117 711.42578 C 1848.1559 720.65313 1862.1254 729.39995 1876.3848 737.64453 C 1890.6441 745.88912 1905.1933 753.63171 1920 760.84766 L 1920 505.3418 z " /><path
       id="path14525"
       style="display:none;fill:#276082;fill-opacity:0.511471;fill-rule:evenodd"
       d="m 0,0 v 171.26172 c 15.832434,-0.40458 31.658374,-1.08807 47.466797,-2.04883 15.808423,-0.96076 31.600269,-2.19782 47.365234,-3.71289 15.764969,-1.51507 31.503019,-3.30749 47.205079,-5.375 15.70206,-2.06751 31.36662,-4.41122 46.98633,-7.0293 16.40705,-2.75005 32.84166,-5.80605 49.29883,-8.74218 16.45716,-2.93614 32.93708,-5.75159 49.43554,-8.01758 8.24923,-1.133 16.50382,-2.12868 24.76172,-2.9336 8.2579,-0.80492 16.51969,-1.41924 24.78516,-1.78906 8.26547,-0.36982 16.5347,-0.49458 24.80664,-0.32226 8.27194,0.17231 16.54691,0.64141 24.82422,1.46289 6.76311,0.67119 13.48565,1.57427 20.16797,2.68359 6.68231,1.10932 13.3252,2.42414 19.92968,3.92188 13.20897,2.99546 26.26422,6.71793 39.17969,10.96874 12.91548,4.25082 25.6902,9.03024 38.33594,14.13868 12.64574,5.10843 25.16273,10.54689 37.5625,16.11523 22.99973,10.32844 45.86374,21.18221 69.07617,31.04883 11.60621,4.93331 23.29983,9.62097 35.14062,13.87109 11.8408,4.25013 23.82909,8.0635 36.0254,11.25196 6.97752,1.82412 13.99508,3.43598 21.04492,4.86328 0.95549,0.19344 1.92221,0.32303 2.8789,0.50976 2.89087,-1.76701 5.65033,-3.71656 8.59571,-5.4082 6.79304,-3.9015 13.6961,-7.57332 20.69336,-11.04102 6.99726,-3.46769 14.08832,-6.73196 21.25976,-9.82031 14.34288,-6.1767 29.00396,-11.64865 43.86328,-16.63476 14.85933,-4.98611 29.91732,-9.48557 45.05274,-13.7168 15.13542,-4.23123 30.34837,-8.1934 45.51953,-12.10547 21.40301,-5.51902 42.87735,-10.99865 64.27734,-16.74609 21.39999,-5.74745 42.72626,-11.76293 63.83204,-18.35547 10.5529,-3.29627 21.0518,-6.73816 31.4766,-10.36133 10.4247,-3.62317 20.7749,-7.42792 31.0351,-11.45508 10.2602,-4.02715 20.4291,-8.27498 30.4883,-12.7832 10.0592,-4.508223 20.0102,-9.277378 29.832,-14.343751 11.5203,-5.942447 23.1058,-12.283888 34.5957,-19.007813 11.49,-6.723924 22.884,-13.830839 34.0215,-21.300781 11.1375,-7.469942 22.0176,-15.303877 32.4805,-23.484375 C 1253.7637,17.382002 1263.8093,8.8555927 1273.2754,0 Z" /><path
       id="path16842"
       style="opacity:1;fill:url(#radialGradient16851);fill-opacity:1;stroke-width:12.9955;stop-color:#000000;filter:url(#filter17970)"
       d="m 1565.9781,1409.0595 a 268.59315,421.23424 47.052248 0 1 145.9081,-486.59845 268.59315,421.23424 47.052248 0 1 485.4257,-70.57502 268.59315,421.23424 47.052248 0 1 -144.317,486.36747 268.59315,421.23424 47.052248 0 1 -485.8988,72.169" /><path
       id="path14535"
       style="display:inline;fill:#276082;fill-rule:evenodd;fill-opacity:1"
       d="M 1667.8867 1200 C 1656.8014 1193.9731 1641.3767 1184.9853 1620.9473 1172.1094 C 1598.1028 1157.7114 1571.3552 1140.1312 1545.043 1121.8281 C 1531.8868 1112.6766 1518.838 1103.3442 1506.4414 1094.1387 C 1494.0448 1084.9332 1482.3008 1075.8556 1471.748 1067.2109 C 1461.1953 1058.5663 1451.8355 1050.3556 1444.2109 1042.8867 C 1440.3986 1039.1523 1437.0195 1035.6026 1434.1426 1032.2773 C 1431.2656 1028.9521 1428.89 1025.8509 1427.084 1023.0117 C 1421.1979 1013.7587 1415.0459 1004.6797 1408.6523 995.76758 C 1402.2588 986.85542 1395.624 978.10963 1388.7734 969.52539 C 1381.9229 960.94115 1374.8567 952.51732 1367.5996 944.24805 C 1360.3426 935.97878 1352.8944 927.86373 1345.2812 919.89648 C 1337.6681 911.92924 1329.8895 904.10982 1321.9707 896.43164 C 1315.7295 890.3801 1309.3385 884.48464 1302.9355 878.60547 C 1302.7126 878.84715 1302.5165 879.11441 1302.293 879.35547 C 1294.833 887.3988 1287.0131 895.0945 1278.707 902.31055 C 1271.7875 908.32202 1264.6048 913.94264 1257.207 919.24414 C 1249.8093 924.54564 1242.1969 929.52836 1234.4199 934.26953 C 1226.643 939.0107 1218.7017 943.50936 1210.6445 947.83984 C 1202.5874 952.17033 1194.4141 956.3329 1186.1758 960.40234 C 1169.6991 968.54124 1152.9591 976.30817 1136.3516 984.30078 C 1119.744 992.29339 1103.2686 1000.5112 1087.3223 1009.5547 C 1077.2988 1015.2392 1067.4752 1021.271 1057.8691 1027.6289 C 1048.2631 1033.9868 1038.8736 1040.6721 1029.7207 1047.666 C 1020.5678 1054.66 1011.6522 1061.9621 1002.9883 1069.5547 C 994.32441 1077.1473 985.91249 1085.0298 977.77344 1093.1836 C 969.63439 1101.3374 961.76786 1109.7619 954.18945 1118.4395 C 946.61105 1127.117 939.32178 1136.0469 932.33984 1145.2109 C 925.3579 1154.3749 918.68364 1163.7737 912.33398 1173.3867 C 906.59889 1182.0693 901.21687 1190.9802 896.02539 1200 L 1667.8867 1200 z " /></g><rect
     style="display:inline;opacity:0.294155;fill:#27678d;fill-rule:evenodd"
     id="rect10287"
     width="1920"
     height="1200"
     x="0"
     y="0"
     sodipodi:insensitive="true" /><g
     id="layer6"
     style="display:inline"
     sodipodi:insensitive="true"><g
       id="g880001"
       style="display:inline;fill:#51a1d0;fill-opacity:1"
       transform="matrix(0.98475674,0,0,0.98475674,1229.1579,591.67491)"><path
         i:knockout="Off"
         fill="#51a1d0"
         d="m 51.986,57.297 c -1.797,0.025 0.34,0.926 2.686,1.287 0.648,-0.506 1.236,-1.018 1.76,-1.516 -1.461,0.358 -2.948,0.366 -4.446,0.229"
         id="path879977"
         style="fill:#51a1d0;fill-opacity:1" /><path
         i:knockout="Off"
         fill="#51a1d0"
         d="m 61.631,54.893 c 1.07,-1.477 1.85,-3.094 2.125,-4.766 -0.24,1.192 -0.887,2.221 -1.496,3.307 -3.359,2.115 -0.316,-1.256 -0.002,-2.537 -3.612,4.546 -0.496,2.726 -0.627,3.996"
         id="path879979"
         style="fill:#51a1d0;fill-opacity:1" /><path
         i:knockout="Off"
         fill="#51a1d0"
         d="m 65.191,45.629 c 0.217,-3.236 -0.637,-2.213 -0.924,-0.978 0.335,0.174 0.6,2.281 0.924,0.978"
         id="path879981"
         style="fill:#51a1d0;fill-opacity:1" /><path
         i:knockout="Off"
         fill="#51a1d0"
         d="m 45.172,1.399 c 0.959,0.172 2.072,0.304 1.916,0.533 1.049,-0.23 1.287,-0.442 -1.916,-0.533"
         id="path879983"
         style="fill:#51a1d0;fill-opacity:1" /><path
         i:knockout="Off"
         fill="#51a1d0"
         d="M 47.088,1.932 46.41,2.072 47.041,2.016 47.088,1.932"
         id="path879985"
         style="fill:#51a1d0;fill-opacity:1" /><path
         i:knockout="Off"
         fill="#51a1d0"
         d="m 76.992,46.856 c 0.107,2.906 -0.85,4.316 -1.713,6.812 l -1.553,0.776 c -1.271,2.468 0.123,1.567 -0.787,3.53 -1.984,1.764 -6.021,5.52 -7.313,5.863 -0.943,-0.021 0.639,-1.113 0.846,-1.541 -2.656,1.824 -2.131,2.738 -6.193,3.846 L 60.16,65.878 C 50.142,70.591 36.226,61.251 36.409,48.507 c -0.107,0.809 -0.304,0.607 -0.526,0.934 -0.517,-6.557 3.028,-13.143 9.007,-15.832 5.848,-2.895 12.704,-1.707 16.893,2.197 -2.301,-3.014 -6.881,-6.209 -12.309,-5.91 -5.317,0.084 -10.291,3.463 -11.951,7.131 -2.724,1.715 -3.04,6.611 -4.227,7.507 -1.597,11.737 3.004,16.808 10.787,22.773 1.225,0.826 0.345,0.951 0.511,1.58 -2.586,-1.211 -4.954,-3.039 -6.901,-5.277 1.033,1.512 2.148,2.982 3.589,4.137 -2.438,-0.826 -5.695,-5.908 -6.646,-6.115 4.203,7.525 17.052,13.197 23.78,10.383 -3.113,0.115 -7.068,0.064 -10.566,-1.229 -1.469,-0.756 -3.467,-2.322 -3.11,-2.615 9.182,3.43 18.667,2.598 26.612,-3.771 2.021,-1.574 4.229,-4.252 4.867,-4.289 -0.961,1.445 0.164,0.695 -0.574,1.971 2.014,-3.248 -0.875,-1.322 2.082,-5.609 l 1.092,1.504 c -0.406,-2.696 3.348,-5.97 2.967,-10.234 0.861,-1.304 0.961,1.403 0.047,4.403 1.268,-3.328 0.334,-3.863 0.66,-6.609 0.352,0.923 0.814,1.904 1.051,2.878 -0.826,-3.216 0.848,-5.416 1.262,-7.285 -0.408,-0.181 -1.275,1.422 -1.473,-2.377 0.029,-1.65 0.459,-0.865 0.625,-1.271 -0.324,-0.186 -1.174,-1.451 -1.691,-3.877 0.375,-0.57 1.002,1.478 1.512,1.562 -0.328,-1.929 -0.893,-3.4 -0.916,-4.88 -1.49,-3.114 -0.527,0.415 -1.736,-1.337 -1.586,-4.947 1.316,-1.148 1.512,-3.396 2.404,3.483 3.775,8.881 4.404,11.117 -0.48,-2.726 -1.256,-5.367 -2.203,-7.922 0.73,0.307 -1.176,-5.609 0.949,-1.691 C 83.519,18.706 76.074,10.902 69.225,7.24 70.063,8.007 71.121,8.97 70.741,9.121 67.335,7.093 67.934,6.935 67.446,6.078 64.671,4.949 64.489,6.169 62.651,6.08 57.421,3.306 56.413,3.601 51.6,1.863 l 0.219,1.023 c -3.465,-1.154 -4.037,0.438 -7.782,0.004 -0.228,-0.178 1.2,-0.644 2.375,-0.815 -3.35,0.442 -3.193,-0.66 -6.471,0.122 0.808,-0.567 1.662,-0.942 2.524,-1.424 -2.732,0.166 -6.522,1.59 -5.352,0.295 -4.456,1.988 -12.37,4.779 -16.811,8.943 l -0.14,-0.933 c -2.035,2.443 -8.874,7.296 -9.419,10.46 l -0.544,0.127 c -1.059,1.793 -1.744,3.825 -2.584,5.67 -1.385,2.36 -2.03,0.908 -1.833,1.278 -2.724,5.523 -4.077,10.164 -5.246,13.97 0.833,1.245 0.02,7.495 0.335,12.497 -1.368,24.704 17.338,48.69 37.785,54.228 2.997,1.072 7.454,1.031 11.245,1.141 -4.473,-1.279 -5.051,-0.678 -9.408,-2.197 -3.143,-1.48 -3.832,-3.17 -6.058,-5.102 l 0.881,1.557 c -4.366,-1.545 -2.539,-1.912 -6.091,-3.037 l 0.941,-1.229 C 28.751,98.334 26.418,96.056 25.78,94.795 l -1.548,0.061 c -1.86,-2.295 -2.851,-3.949 -2.779,-5.23 l -0.5,0.891 c -0.567,-0.973 -6.843,-8.607 -3.587,-6.83 -0.605,-0.553 -1.409,-0.9 -2.281,-2.484 l 0.663,-0.758 c -1.567,-2.016 -2.884,-4.6 -2.784,-5.461 0.836,1.129 1.416,1.34 1.99,1.533 -3.957,-9.818 -4.179,-0.541 -7.176,-9.994 L 8.412,66.472 C 7.926,65.74 7.631,64.945 7.24,64.165 l 0.276,-2.75 C 4.667,58.121 6.719,47.409 7.13,41.534 7.415,39.145 9.508,36.602 11.1,32.614 l -0.97,-0.167 c 1.854,-3.234 10.586,-12.988 14.63,-12.486 1.959,-2.461 -0.389,-0.009 -0.772,-0.629 4.303,-4.453 5.656,-3.146 8.56,-3.947 3.132,-1.859 -2.688,0.725 -1.203,-0.709 5.414,-1.383 3.837,-3.144 10.9,-3.846 0.745,0.424 -1.729,0.655 -2.35,1.205 4.511,-2.207 14.275,-1.705 20.617,1.225 7.359,3.439 15.627,13.605 15.953,23.17 l 0.371,0.1 c -0.188,3.802 0.582,8.199 -0.752,12.238 l 0.908,-1.912"
         id="path879987"
         style="fill:#51a1d0;fill-opacity:1" /><path
         i:knockout="Off"
         fill="#51a1d0"
         d="m 32.372,59.764 -0.252,1.26 c 1.181,1.604 2.118,3.342 3.626,4.596 -1.085,-2.118 -1.891,-2.993 -3.374,-5.856"
         id="path879989"
         style="fill:#51a1d0;fill-opacity:1" /><path
         i:knockout="Off"
         fill="#51a1d0"
         d="m 35.164,59.654 c -0.625,-0.691 -0.995,-1.523 -1.409,-2.352 0.396,1.457 1.207,2.709 1.962,3.982 l -0.553,-1.63"
         id="path879991"
         style="fill:#51a1d0;fill-opacity:1" /><path
         i:knockout="Off"
         fill="#51a1d0"
         d="m 84.568,48.916 -0.264,0.662 c -0.484,3.438 -1.529,6.84 -3.131,9.994 1.77,-3.328 2.915,-6.968 3.395,-10.656"
         id="path879993"
         style="fill:#51a1d0;fill-opacity:1" /><path
         i:knockout="Off"
         fill="#51a1d0"
         d="M 45.527,0.537 C 46.742,0.092 48.514,0.293 49.803,0 48.123,0.141 46.451,0.225 44.8,0.438 l 0.727,0.099"
         id="path879995"
         style="fill:#51a1d0;fill-opacity:1" /><path
         i:knockout="Off"
         fill="#51a1d0"
         d="m 2.872,23.219 c 0.28,2.592 -1.95,3.598 0.494,1.889 1.31,-2.951 -0.512,-0.815 -0.494,-1.889"
         id="path879997"
         style="fill:#51a1d0;fill-opacity:1" /><path
         i:knockout="Off"
         fill="#51a1d0"
         d="M 0,35.215 C 0.563,33.487 0.665,32.449 0.88,31.449 -0.676,33.438 0.164,33.862 0,35.215"
         id="path879999"
         style="fill:#51a1d0;fill-opacity:1" /></g></g></svg>
