<?xml version="1.0" encoding="UTF-8" standalone="no"?>
<!-- Created with Inkscape (http://www.inkscape.org/) -->

<svg
   width="800"
   height="118.9"
   viewBox="0 0 211.66665 31.45896"
   version="1.1"
   id="svg5"
   sodipodi:docname="website_banner.svg"
   inkscape:version="1.2.2 (b0a8486541, 2022-12-01)"
   xmlns:inkscape="http://www.inkscape.org/namespaces/inkscape"
   xmlns:sodipodi="http://sodipodi.sourceforge.net/DTD/sodipodi-0.dtd"
   xmlns:xlink="http://www.w3.org/1999/xlink"
   xmlns="http://www.w3.org/2000/svg"
   xmlns:svg="http://www.w3.org/2000/svg"
   xmlns:i="http://ns.adobe.com/AdobeIllustrator/10.0/">
  <sodipodi:namedview
     id="namedview55"
     pagecolor="#505050"
     bordercolor="#eeeeee"
     borderopacity="1"
     inkscape:showpageshadow="0"
     inkscape:pageopacity="0"
     inkscape:pagecheckerboard="0"
     inkscape:deskcolor="#505050"
     showgrid="false"
     inkscape:zoom="1.75625"
     inkscape:cx="399.7153"
     inkscape:cy="59.501779"
     inkscape:window-width="1920"
     inkscape:window-height="997"
     inkscape:window-x="0"
     inkscape:window-y="0"
     inkscape:window-maximized="1"
     inkscape:current-layer="svg5" />
  <defs
     id="defs2">
    <linearGradient
       id="linearGradient1163">
      <stop
         style="stop-color:#276082;stop-opacity:0;"
         offset="0.78870744"
         id="stop1161" />
      <stop
         style="stop-color:#276082;stop-opacity:1;"
         offset="1"
         id="stop1159" />
    </linearGradient>
    <linearGradient
       id="linearGradient1153">
      <stop
         style="stop-color:#276082;stop-opacity:0;"
         offset="0.61090684"
         id="stop1151" />
      <stop
         style="stop-color:#276082;stop-opacity:1;"
         offset="1"
         id="stop1149" />
    </linearGradient>
    <linearGradient
       id="linearGradient1070">
      <stop
         style="stop-color:#27678d;stop-opacity:0;"
         offset="0.67332637"
         id="stop1068" />
      <stop
         style="stop-color:#27678d;stop-opacity:1;"
         offset="1"
         id="stop1066" />
    </linearGradient>
    <rect
       x="-43.098258"
       y="-305.28792"
       width="1126.5765"
       height="110.21444"
       id="rect24844" />
    <radialGradient
       xlink:href="#linearGradient3744"
       id="radialGradient3746"
       cx="2002.5957"
       cy="1425.4607"
       fx="2002.5957"
       fy="1425.4607"
       r="513.49005"
       gradientTransform="matrix(3.6027848e-4,-0.06953806,0.12603217,3.3077832e-4,53.916849,182.17785)"
       gradientUnits="userSpaceOnUse" />
    <linearGradient
       id="linearGradient3744">
      <stop
         style="stop-color:#276082;stop-opacity:0;"
         offset="0.37055299"
         id="stop3742" />
      <stop
         style="stop-color:#276082;stop-opacity:1;"
         offset="1"
         id="stop3740" />
    </linearGradient>
    <radialGradient
       xlink:href="#linearGradient3744"
       id="radialGradient3746-1"
       cx="2002.5957"
       cy="1425.4607"
       fx="2002.5957"
       fy="1425.4607"
       r="513.49005"
       gradientTransform="matrix(-3.0892594e-4,-0.0551503,-0.10806809,2.6233871e-4,148.5222,150.38793)"
       gradientUnits="userSpaceOnUse" />
    <radialGradient
       xlink:href="#linearGradient1070"
       id="radialGradient1146"
       gradientUnits="userSpaceOnUse"
       gradientTransform="matrix(1.1784632,-1.1344087,1.1832915,1.2292443,18.190102,-35.618284)"
       cx="-16.275856"
       cy="86.170441"
       fx="-16.275856"
       fy="86.170441"
       r="48.740139" />
    <radialGradient
       xlink:href="#linearGradient1153"
       id="radialGradient1155"
       cx="148.59201"
       cy="163.66113"
       fx="148.59201"
       fy="163.66113"
       r="58.741855"
       gradientTransform="matrix(0.85308123,-1.0060401,1.1036578,0.93585701,-146.49007,86.71737)"
       gradientUnits="userSpaceOnUse" />
    <radialGradient
       xlink:href="#linearGradient1163"
       id="radialGradient1165"
       cx="57.144558"
       cy="165.31393"
       fx="57.144558"
       fy="165.31393"
       r="57.339175"
       gradientTransform="matrix(0.9543641,-0.98271049,1.0896908,1.0582586,-169.93963,-23.320746)"
       gradientUnits="userSpaceOnUse" />
  </defs>
  <g
     id="layer1"
     style="display:inline">
    <path
       id="rect2322"
       style="display:inline;fill:#26475b;fill-opacity:1;fill-rule:evenodd;stroke-width:0.266166"
       d="M 0,0 V 31.459061 H 211.66666 V 0 Z" />
    <path
       id="path1990"
       style="display:inline;opacity:0.717268;fill:url(#radialGradient3746);fill-opacity:1;stroke-width:0.535984"
       d="m 211.66666,1.5776814 c -1.95692,0.5807592 -3.93859,1.0793092 -5.93865,1.4872477 -6.64715,1.3557722 -13.68313,1.8336639 -19.55385,5.2332722 -5.62913,3.2597137 -9.56217,8.8724927 -15.06781,12.3367147 -5.08968,3.202491 -11.16606,4.357085 -16.7442,6.603214 -2.80764,1.130542 -5.49731,2.550518 -8.02121,4.220931 h 65.32572 z" />
    <path
       id="path1990-2"
       style="display:inline;opacity:0.717268;fill:url(#radialGradient3746-1);fill-opacity:1;stroke-width:0.442"
       d="M 0,1.769401 V 5.137154 L 0.30747477,31.459061 H 62.715034 C 60.949343,30.333153 59.252793,29.098489 57.640925,27.761612 54.196653,24.904947 51.020187,21.518242 46.849853,19.895943 44.554427,19.003001 42.08055,18.699356 39.647708,18.315161 37.214867,17.930965 34.746185,17.441693 32.602144,16.2295 30.202019,14.872522 28.38263,12.712107 26.526546,10.67325 24.670461,8.6343932 22.632726,6.6131539 20.036503,5.6849242 18.009779,4.9603082 15.801239,4.9623856 13.652396,5.0854776 11.503553,5.2085696 9.3398492,5.4434339 7.2067951,5.1557576 4.5349736,4.7954198 1.9831942,3.5955946 0,1.769401 Z" />
    <path
       id="path944"
       style="opacity:0.696884;fill:url(#radialGradient1165);fill-opacity:1;stroke-width:1.92643"
       d="m 33.907495,12.565192 c -3.293033,0.85058 -8.065172,0.185738 -12.675522,3.112499 -4.24351,2.693884 -6.232368,4.873763 -9.093179,8.557522 -1.765269,2.273071 -8.3785184,4.645043 -8.6620037,7.223848 L 110.85156,31.939902 c -2.7923,-2.87123 -8.08842,-10.327754 -10.7858,-12.344834 C 95.955362,16.521339 87.276142,16.012754 83.207996,13.820408 79.232391,11.677933 74.912927,9.3938885 70.590988,8.0837695 66.250488,6.7680238 59.07819,10.338371 54.595354,9.648942 49.159195,8.8128989 45.85474,7.9650407 42.45195,8.7336262 39.838264,9.3239773 36.31988,11.94208 33.907495,12.565192 Z" />
    <path
       id="path1142"
       style="opacity:0.736931;fill:url(#radialGradient1155);fill-opacity:1;stroke-width:1.92643"
       d="m 145.62216,7.3602363 c -5.25622,-0.1162729 -9.60246,1.8500165 -14.60558,3.4655867 -5.19666,1.678069 -12.53877,-0.399393 -17.14911,2.527367 -4.24352,2.693884 -6.63708,6.491374 -9.49788,10.175132 -1.19065,1.533152 -5.961867,5.26231 -9.973803,7.930739 H 207.84364 c -0.36479,-3.882678 -4.97674,-7.653035 -7.64279,-9.637258 -5.18585,-3.859571 -9.77818,-2.77445 -13.84632,-4.966796 -3.97561,-2.142473 -6.90273,-5.235254 -11.22466,-6.545374 -4.34051,-1.3157455 -8.50139,0.985756 -12.98423,0.296328 -5.43615,-0.836043 -11.02476,-3.1240878 -16.52348,-3.2457247 z" />
    <path
       id="path1140"
       style="display:inline;opacity:0.703295;fill:url(#radialGradient1146);fill-opacity:1;stroke-width:1.92643"
       d="M 96.272158,5.5640014 C 91.015947,5.4477285 86.479799,7.3213518 81.476679,8.936922 c -5.196666,1.67807 -11.271801,-0.7485764 -15.88215,2.178184 -4.243511,2.693885 -6.460136,5.799914 -9.320947,9.483672 -1.672895,2.154125 -11.62603,7.45612 -13.351138,10.860283 H 157.28342 C 155.44548,28.352876 151.67309,25.55127 149.46478,22.72161 146.6216,19.078461 141.29284,18.451818 137.2247,16.259472 133.24909,14.116999 129.80781,11.151896 125.48588,9.8417763 121.14537,8.5260309 114.85697,9.4439325 110.37414,8.7545042 104.93798,7.9184609 101.77088,5.6856382 96.272158,5.5640014 Z" />
  </g>
  <g
     id="g28675"
     transform="translate(45.063276,-2.3595946)"
     style="display:inline">
    <g
       aria-label="The universal operating system"
       transform="matrix(0.18085371,0,0,0.18085371,48.858283,76.519118)"
       id="text24842"
       style="font-size:24px;font-family:Poppl-Laudatio;-inkscape-font-specification:'Poppl-Laudatio, Normal';white-space:pre;shape-inside:url(#rect24844);display:inline;opacity:1;fill:#51a1d0;stroke-width:7.281">
      <path
         d="m -35.201656,-290.85578 q 0,1.152 0,2.04 0,0.864 0,1.56 0.024,0.696 0.024,1.248 0.024,0.552 0.048,1.032 0.024,0.624 0.072,1.008 0.048,0.384 0.096,0.648 0.072,0.24 0.144,0.432 0.072,0.168 0.168,0.336 -0.456,-0.048 -1.008,-0.096 -0.528,-0.048 -1.368,-0.048 -0.624,0 -1.176,0.048 -0.552,0.024 -1.248,0.096 0.096,-0.168 0.168,-0.336 0.072,-0.192 0.12,-0.432 0.072,-0.264 0.12,-0.648 0.048,-0.384 0.072,-1.008 0.024,-0.48 0.024,-1.032 0.024,-0.552 0.024,-1.248 0.024,-0.696 0.024,-1.56 0,-0.888 0,-2.04 l -0.024,-5.928 -1.464,-0.048 q -0.624,0 -1.008,0.024 -0.384,0.024 -0.648,0.096 -0.264,0.048 -0.456,0.192 -0.192,0.12 -0.384,0.336 0,-0.408 0,-0.816 0.024,-0.408 0.024,-0.816 0,-0.504 -0.024,-0.912 -0.024,-0.408 -0.096,-0.912 0.696,0.048 1.368,0.096 0.696,0.024 1.368,0.072 0.696,0.024 1.368,0.024 0.672,0 1.344,0 0.648,0 1.44,0 0.792,-0.024 1.632,-0.024 0.84,-0.024 1.656,-0.048 0.84,-0.048 1.56,-0.12 -0.048,0.336 -0.096,0.792 -0.048,0.432 -0.048,1.056 0.024,0.552 0.024,0.912 0,0.36 0.024,0.696 -0.192,-0.216 -0.384,-0.336 -0.192,-0.144 -0.456,-0.192 -0.264,-0.072 -0.672,-0.096 -0.384,-0.024 -0.984,-0.024 l -1.344,0.048 z"
         id="path892" />
      <path
         d="m -30.305667,-291.86378 q 0,-1.296 0,-2.184 0,-0.912 -0.024,-1.56 -0.024,-0.672 -0.048,-1.152 -0.024,-0.48 -0.096,-0.936 -0.12,-0.816 -0.312,-1.128 -0.168,-0.312 -0.408,-0.552 1.056,-0.096 1.776,-0.216 0.744,-0.12 1.248,-0.24 0.504,-0.12 0.84,-0.24 0.36,-0.144 0.624,-0.264 -0.072,0.432 -0.12,0.768 -0.024,0.336 -0.048,0.72 -0.024,0.384 -0.024,0.888 0,0.48 0,1.224 l -0.024,3.36 q 0.12,-0.264 0.336,-0.648 0.24,-0.408 0.624,-0.768 0.408,-0.36 1.032,-0.624 0.624,-0.264 1.56,-0.264 0.672,0 1.296,0.168 0.624,0.144 1.104,0.48 0.768,0.6 0.888,1.368 0.144,0.768 0.144,1.752 v 6.408 q 0,0.768 0.048,1.536 0.072,0.768 0.408,1.416 -0.384,-0.048 -0.912,-0.096 -0.528,-0.048 -1.296,-0.048 -0.648,0 -1.176,0.048 -0.528,0.048 -0.96,0.096 0.264,-0.504 0.312,-1.248 0.048,-0.744 0.096,-2.064 0,-0.648 0,-1.008 0.024,-0.384 0.024,-0.624 0,-0.24 0,-0.408 0,-0.168 0,-0.408 0,-0.264 0,-0.648 0,-0.408 0,-1.104 0,-0.72 -0.048,-1.272 -0.024,-0.576 -0.192,-0.936 -0.144,-0.384 -0.456,-0.576 -0.288,-0.192 -0.816,-0.192 -0.768,0 -1.176,0.336 -0.408,0.312 -0.6,0.912 -0.192,0.6 -0.24,1.464 -0.024,0.84 -0.024,1.92 v 2.424 q 0.024,0.744 0.048,1.296 0.024,0.528 0.048,0.936 0.048,0.384 0.096,0.672 0.072,0.288 0.192,0.528 -0.456,-0.072 -0.864,-0.096 -0.408,-0.048 -0.984,-0.048 -0.816,0 -1.344,0.048 -0.528,0.048 -0.984,0.096 0.192,-0.408 0.264,-1.056 0.072,-0.624 0.072,-1.32 0.024,-0.72 0.048,-1.8 l 0.048,-5.136 z"
         id="path894" />
      <path
         d="m -14.393672,-288.43178 q 0,0.288 0.024,0.672 0.024,0.36 0.12,0.768 0.12,0.408 0.312,0.816 0.216,0.384 0.576,0.72 0.312,0.288 0.672,0.456 0.384,0.144 0.72,0.216 0.36,0.072 0.648,0.096 0.312,0 0.456,0 1.2480004,0 1.8720004,-0.264 0.648,-0.288 0.984,-0.504 -0.192,0.792 -0.288,1.368 -0.072,0.576 -0.048,1.392 -0.744,0.192 -1.488,0.24 -0.7200004,0.072 -1.4880004,0.072 -1.152,0 -2.064,-0.168 -0.888,-0.168 -1.632,-0.552 -1.296,-0.672 -2.064,-2.136 -0.744,-1.464 -0.744,-3.984 0,-1.152 0.216,-2.304 0.24,-1.152 0.816,-2.064 0.6,-0.936 1.632,-1.512 1.056,-0.576 2.688,-0.576 1.464,0 2.376,0.48 0.9360004,0.456 1.4400004,1.272 0.504,0.792 0.672,1.872 0.192,1.056 0.192,2.232 l -0.048,1.392 z m 3.432,-1.992 q 0.024,-0.6 -0.024,-1.176 -0.024,-0.6 -0.192,-1.056 -0.168,-0.48 -0.528,-0.768 -0.336,-0.288 -0.936,-0.288 -0.6,0 -0.96,0.288 -0.36,0.288 -0.552,0.768 -0.192,0.456 -0.264,1.056 -0.072,0.576 -0.072,1.176 z"
         id="path896" />
      <path
         d="m 10.542331,-287.32778 q 0,1.248 0,2.016 0.024,0.768 0.072,1.248 0.024,0.384 0.096,0.624 0.072,0.24 0.144,0.408 0.072,0.168 0.144,0.288 0.096,0.096 0.192,0.192 -0.504,-0.048 -0.96,-0.072 -0.4320004,-0.048 -1.1040004,-0.048 -0.6,0 -1.008,0.024 -0.384,0.024 -0.84,0.096 l -0.072,-2.16 q -0.168,0.288 -0.432,0.696 -0.264,0.384 -0.696,0.744 -0.432,0.36 -1.08,0.624 -0.648,0.24 -1.584,0.24 -0.84,0 -1.536,-0.24 -0.672,-0.264 -0.93600003,-0.576 -0.288,-0.312 -0.432,-0.6 -0.144,-0.312 -0.216,-0.816 -0.072,-0.504 -0.096,-1.296 0,-0.816 0,-2.16 v -2.592 q 0,-0.672 0,-1.152 0,-0.504 -0.024,-0.864 0,-0.36 -0.024,-0.624 -0.024,-0.264 -0.048,-0.528 -0.096,-0.744 -0.288,-0.984 -0.192,-0.24 -0.432,-0.384 0.96,0.024 1.65600003,-0.024 0.72,-0.072 1.224,-0.144 0.528,-0.096 0.864,-0.192 0.336,-0.12 0.6,-0.216 -0.048,0.336 -0.096,0.648 -0.024,0.288 -0.048,0.792 0,0.48 0,1.296 0,0.792 0,2.16 v 3.888 q 0,0.36 0.024,0.744 0.024,0.36 0.168,0.672 0.144,0.288 0.432,0.48 0.312,0.192 0.864,0.192 0.552,0 0.912,-0.168 0.36,-0.168 0.552,-0.384 0.216,-0.24 0.288,-0.456 0.096,-0.24 0.12,-0.336 0.072,-0.288 0.12,-0.672 0.048,-0.408 0.072,-1.08 0.024,-0.672 0.024,-1.704 0,-1.032 0,-2.592 0,-0.84 -0.024,-1.32 -0.024,-0.504 -0.12,-0.792 -0.072,-0.312 -0.24,-0.456 -0.144,-0.168 -0.384,-0.312 0.936,0 1.584,-0.024 0.672,-0.048 1.152,-0.144 0.504,-0.096 0.864,-0.192 0.3840004,-0.12 0.7440004,-0.264 -0.072,0.432 -0.12,0.744 -0.024,0.288 -0.048,0.816 0,0.504 -0.024,1.416 0,0.888 0,2.496 z"
         id="path898" />
      <path
         d="m 16.638326,-293.27978 q 0.12,-0.288 0.336,-0.696 0.24,-0.408 0.648,-0.768 0.408,-0.384 1.056,-0.648 0.672,-0.288 1.68,-0.288 1.2,0 1.848,0.408 0.672,0.384 0.984,0.96 0.312,0.576 0.36,1.224 0.072,0.648 0.072,1.152 v 7.176 q 0,0.552 0.024,0.912 0.048,0.36 0.096,0.6 0.048,0.216 0.096,0.384 0.072,0.144 0.144,0.312 -0.24,-0.024 -0.456,-0.048 -0.216,-0.024 -0.48,-0.024 -0.24,-0.024 -0.576,-0.024 -0.312,-0.024 -0.744,-0.024 -0.624,0 -1.032,0.024 -0.384,0.024 -0.84,0.096 0.048,-0.168 0.096,-0.36 0.072,-0.192 0.096,-0.6 0.048,-0.408 0.072,-1.104 0.024,-0.72 0.024,-1.944 v -3.816 q 0,-0.576 -0.024,-1.08 -0.024,-0.504 -0.192,-0.864 -0.144,-0.36 -0.48,-0.576 -0.312,-0.216 -0.888,-0.216 -0.552,0 -0.912,0.192 -0.336,0.192 -0.528,0.456 -0.168,0.24 -0.24,0.504 -0.072,0.24 -0.096,0.36 -0.048,0.288 -0.072,0.864 -0.024,0.552 -0.048,1.296 0,0.72 0,1.536 0,0.816 0,1.608 0,1.128 0,1.8 0.024,0.648 0.048,1.032 0.048,0.384 0.096,0.576 0.072,0.168 0.144,0.336 -0.432,-0.048 -0.888,-0.072 -0.456,-0.048 -1.176,-0.048 -0.48,0 -0.936,0.024 -0.456,0.024 -1.08,0.096 0.12,-0.24 0.192,-0.552 0.072,-0.336 0.12,-0.648 0.024,-0.168 0.048,-0.624 0.024,-0.456 0.024,-1.056 0.024,-0.624 0.024,-1.368 0,-0.768 0,-1.56 0,-0.792 0,-1.44 0,-0.672 -0.024,-1.248 0,-0.576 -0.024,-1.128 -0.024,-0.552 -0.072,-1.152 -0.048,-0.84 -0.288,-1.224 -0.216,-0.384 -0.432,-0.504 0.888,-0.048 1.512,-0.096 0.624,-0.072 1.08,-0.168 0.48,-0.096 0.84,-0.216 0.384,-0.144 0.768,-0.312 z"
         id="path900" />
      <path
         d="m 26.454322,-292.15178 q -0.024,-0.792 -0.096,-1.248 -0.048,-0.48 -0.144,-0.768 -0.072,-0.312 -0.216,-0.48 -0.144,-0.192 -0.36,-0.384 0.912,-0.048 1.536,-0.096 0.624,-0.048 1.104,-0.12 0.48,-0.096 0.888,-0.24 0.432,-0.144 0.936,-0.36 -0.264,1.92 -0.264,4.344 0.024,2.4 0.072,5.448 0.024,0.888 0.096,1.848 0.072,0.96 0.36,1.656 -0.408,-0.048 -0.84,-0.096 -0.408,-0.048 -1.08,-0.048 -0.84,0 -1.44,0.048 -0.6,0.048 -1.008,0.096 0.096,-0.192 0.168,-0.336 0.072,-0.168 0.12,-0.408 0.072,-0.264 0.096,-0.648 0.024,-0.384 0.048,-1.032 0.024,-0.648 0.048,-1.488 0.024,-0.84 0.024,-1.776 0,-0.936 -0.024,-1.92 0,-1.008 -0.024,-1.992 z m 3.36,-6.36 q 0.024,1.056 -0.48,1.488 -0.48,0.432 -1.224,0.432 -0.768,0 -1.272,-0.432 -0.48,-0.432 -0.48,-1.32 0,-0.744 0.384,-1.296 0.384,-0.552 1.368,-0.552 0.84,0 1.248,0.456 0.432,0.456 0.456,1.224 z"
         id="path902" />
      <path
         d="m 38.07032,-287.66378 q 0.168,-0.768 0.36,-1.8 0.216,-1.032 0.408,-2.04 0.192,-1.032 0.312,-1.92 0.144,-0.888 0.144,-1.344 0,-0.264 -0.048,-0.408 -0.048,-0.168 -0.12,-0.336 0.216,0.024 0.408,0.048 0.192,0.024 0.408,0.048 0.216,0.024 0.456,0.048 0.24,0 0.528,0 0.672,0 1.104,-0.048 0.456,-0.048 0.792,-0.096 l -0.24,0.504 q -0.216,0.456 -0.528,1.464 -0.288,0.984 -0.624,2.256 -0.336,1.248 -0.672,2.64 -0.336,1.368 -0.624,2.616 -0.264,1.224 -0.48,2.184 -0.192,0.936 -0.24,1.296 -0.552,-0.072 -1.032,-0.096 -0.456,-0.048 -1.2,-0.048 -0.408,0 -0.72,0.024 -0.288,0 -0.552,0.024 -0.24,0 -0.48,0.048 -0.24,0.024 -0.528,0.048 -0.12,-0.672 -0.336,-1.608 -0.192,-0.936 -0.456,-1.968 -0.264,-1.056 -0.552,-2.136 -0.264,-1.08 -0.528,-2.04 -0.264,-0.96 -0.48,-1.704 -0.192,-0.768 -0.312,-1.152 -0.192,-0.6 -0.312,-0.96 -0.12,-0.384 -0.24,-0.624 -0.096,-0.264 -0.192,-0.432 -0.096,-0.168 -0.192,-0.36 0.24,0.048 0.456,0.072 0.216,0.024 0.456,0.048 0.264,0.024 0.504,0.048 0.264,0 0.576,0 0.888,0 1.416,-0.024 0.552,-0.048 1.056,-0.12 l -0.024,0.192 q -0.072,0.336 0.048,1.2 0.12,0.864 0.312,1.896 0.288,1.512 0.48,2.688 0.216,1.152 0.384,1.848 l 0.576,2.592 z"
         id="path904" />
      <path
         d="m 46.638311,-288.43178 q 0,0.288 0.024,0.672 0.024,0.36 0.12,0.768 0.12,0.408 0.312,0.816 0.216,0.384 0.576,0.72 0.312,0.288 0.672,0.456 0.384,0.144 0.72,0.216 0.36,0.072 0.648,0.096 0.312,0 0.456,0 1.248,0 1.872,-0.264 0.648,-0.288 0.984,-0.504 -0.192,0.792 -0.288,1.368 -0.072,0.576 -0.048,1.392 -0.744,0.192 -1.488,0.24 -0.72,0.072 -1.488,0.072 -1.152,0 -2.064,-0.168 -0.888,-0.168 -1.632,-0.552 -1.296,-0.672 -2.064,-2.136 -0.744,-1.464 -0.744,-3.984 0,-1.152 0.216,-2.304 0.24,-1.152 0.816,-2.064 0.6,-0.936 1.632,-1.512 1.056,-0.576 2.688,-0.576 1.464,0 2.376,0.48 0.936,0.456 1.44,1.272 0.504,0.792 0.672,1.872 0.192,1.056 0.192,2.232 l -0.048,1.392 z m 3.432,-1.992 q 0.024,-0.6 -0.024,-1.176 -0.024,-0.6 -0.192,-1.056 -0.168,-0.48 -0.528,-0.768 -0.336,-0.288 -0.936,-0.288 -0.6,0 -0.96,0.288 -0.36,0.288 -0.552,0.768 -0.192,0.456 -0.264,1.056 -0.072,0.576 -0.072,1.176 z"
         id="path906" />
      <path
         d="m 58.710313,-292.05578 q 0.144,-0.384 0.408,-0.96 0.264,-0.576 0.744,-1.152 0.504,-0.576 1.272,-1.032 0.792,-0.456 1.968,-0.576 -0.312,1.152 -0.408,2.064 -0.072,0.888 -0.12,1.44 -0.192,-0.048 -0.408,-0.096 -0.192,-0.048 -0.456,-0.048 -0.768,0 -1.368,0.336 -0.6,0.336 -0.936,0.84 -0.264,0.408 -0.456,1.272 -0.192,0.84 -0.192,2.28 0,0.624 0,1.392 0,0.744 0.024,1.464 0.048,0.72 0.12,1.344 0.072,0.624 0.192,0.936 -0.408,-0.048 -0.84,-0.096 -0.432,-0.048 -1.056,-0.048 -1.032,0 -2.136,0.144 0.072,-0.24 0.12,-0.432 0.048,-0.216 0.096,-0.648 0.048,-0.528 0.072,-1.32 0.048,-0.816 0.048,-1.728 v -3.336 q 0,-0.672 0,-1.176 0,-0.528 -0.024,-0.96 0,-0.432 -0.024,-0.792 -0.024,-0.36 -0.048,-0.744 -0.072,-0.72 -0.264,-0.96 -0.168,-0.264 -0.408,-0.432 0.744,0 1.32,-0.024 0.576,-0.048 1.056,-0.144 0.504,-0.096 0.96,-0.216 0.48,-0.144 0.984,-0.36 z"
         id="path908" />
      <path
         d="m 68.766313,-295.79978 q 0.696,0 1.416,0.096 0.72,0.096 1.416,0.288 -0.264,0.648 -0.384,1.224 -0.096,0.576 -0.12,1.488 -0.408,-0.552 -1.056,-0.768 -0.648,-0.216 -1.344,-0.216 -0.912,0 -1.32,0.432 -0.384,0.408 -0.384,0.912 0,0.696 0.576,1.128 0.576,0.408 1.752,0.936 0.504,0.264 0.984,0.552 0.48,0.288 0.84,0.696 0.36,0.384 0.576,0.96 0.216,0.576 0.216,1.392 0,1.104 -0.336,1.872 -0.312,0.744 -0.84,1.248 -0.528,0.48 -1.176,0.744 -0.624,0.264 -1.248,0.384 -0.624,0.12 -1.152,0.144 -0.528,0.024 -0.84,0.024 -1.296,0 -2.016,-0.168 -0.696,-0.168 -1.032,-0.288 0.336,-0.696 0.48,-1.296 0.168,-0.624 0.24,-1.56 0.072,0.12 0.24,0.312 0.192,0.192 0.48,0.384 0.312,0.192 0.768,0.336 0.48,0.144 1.176,0.144 0.744,0 1.152,-0.192 0.432,-0.216 0.6,-0.48 0.192,-0.264 0.216,-0.504 0.048,-0.24 0.048,-0.312 0,-0.336 -0.096,-0.552 -0.096,-0.24 -0.36,-0.432 -0.24,-0.216 -0.672,-0.432 -0.432,-0.24 -1.104,-0.576 -0.456,-0.24 -0.96,-0.528 -0.48,-0.312 -0.888,-0.744 -0.384,-0.432 -0.648,-1.032 -0.24,-0.624 -0.24,-1.488 0,-1.056 0.36,-1.824 0.384,-0.792 1.032,-1.296 0.672,-0.504 1.584,-0.744 0.936,-0.264 2.064,-0.264 z"
         id="path910" />
      <path
         d="m 82.686311,-284.23178 q 0.048,0.768 0.168,1.104 0.12,0.312 0.288,0.576 -0.408,-0.072 -0.864,-0.072 -0.456,-0.024 -0.984,-0.024 -0.48,0 -0.912,0.024 -0.432,0.024 -0.912,0.072 -0.072,-0.36 -0.096,-0.864 0,-0.504 0.024,-1.512 -0.12,0.336 -0.312,0.768 -0.192,0.408 -0.552,0.792 -0.336,0.384 -0.912,0.648 -0.552,0.264 -1.392,0.264 -1.08,0 -1.704,-0.456 -0.624,-0.456 -0.96,-1.08 -0.312,-0.648 -0.408,-1.296 -0.072,-0.672 -0.072,-1.104 0,-1.176 0.36,-1.992 0.384,-0.816 1.056,-1.32 0.672,-0.528 1.584,-0.768 0.936,-0.24 2.064,-0.24 0.408,0 0.648,0.024 0.264,0 0.504,0.048 0.024,-0.6 0,-1.08 0,-0.48 -0.144,-0.792 -0.144,-0.336 -0.48,-0.504 -0.312,-0.192 -0.888,-0.192 -0.888,0 -1.728,0.312 -0.816,0.312 -1.488,0.936 -0.264,-0.984 -0.48,-1.512 -0.216,-0.552 -0.504,-1.056 0.24,-0.12 0.624,-0.312 0.408,-0.216 0.984,-0.384 0.576,-0.192 1.32,-0.312 0.768,-0.144 1.752,-0.144 1.08,0 1.992,0.24 0.912,0.24 1.464,0.744 0.36,0.336 0.552,0.696 0.192,0.36 0.288,0.912 0.096,0.528 0.096,1.32 0.024,0.768 0.024,1.944 z m -4.152,-4.824 q -0.888,0 -1.488,0.456 -0.6,0.456 -0.6,1.608 0,0.768 0.288,1.344 0.312,0.552 1.008,0.552 0.072,0 0.24,-0.024 0.192,-0.024 0.384,-0.144 0.216,-0.12 0.408,-0.336 0.216,-0.216 0.336,-0.624 0.072,-0.192 0.096,-0.408 0.048,-0.24 0.072,-0.552 0.024,-0.336 0.048,-0.768 0.024,-0.432 0.024,-1.056 z"
         id="path912" />
      <path
         d="m 88.926313,-289.77578 q 0,0.912 0,1.632 0,0.696 0,1.296 0.024,0.576 0.024,1.08 0.024,0.48 0.048,0.984 0.024,0.552 0.048,0.912 0.048,0.336 0.096,0.576 0.048,0.24 0.12,0.408 0.072,0.168 0.144,0.336 -0.48,-0.048 -0.888,-0.072 -0.408,-0.048 -1.104,-0.048 -0.864,0 -1.392,0.048 -0.504,0.024 -0.984,0.072 0.096,-0.264 0.168,-0.504 0.072,-0.264 0.12,-0.696 0.048,-0.384 0.072,-0.912 0.024,-0.552 0.024,-1.152 0.024,-0.6 0.024,-1.176 0,-0.6 0,-1.08 v -4.32 q 0,-0.984 0,-1.728 0,-0.744 -0.024,-1.32 -0.024,-0.576 -0.048,-1.008 -0.024,-0.456 -0.048,-0.84 -0.048,-0.552 -0.144,-0.888 -0.096,-0.36 -0.216,-0.576 -0.096,-0.24 -0.216,-0.36 -0.12,-0.144 -0.264,-0.264 0.936,-0.048 1.608,-0.144 0.696,-0.096 1.224,-0.216 0.552,-0.144 0.984,-0.288 0.456,-0.168 0.888,-0.36 -0.096,0.504 -0.144,0.912 -0.048,0.384 -0.096,0.984 -0.024,0.576 -0.024,1.488 0,0.912 0,2.448 z"
         id="path914" />
      <path
         d="m 108.24631,-289.10378 q -0.024,0.96 -0.192,2.136 -0.168,1.176 -0.744,2.208 -0.552,1.008 -1.656,1.704 -1.08,0.672 -2.928,0.672 -1.776,0 -2.855999,-0.576 -1.056,-0.6 -1.656,-1.536 -0.6,-0.936 -0.792,-2.088 -0.192,-1.152 -0.192,-2.304 0,-1.152 0.192,-2.352 0.192,-1.2 0.768,-2.184 0.6,-0.984 1.704,-1.608 1.103999,-0.624 2.927999,-0.624 1.824,0 2.904,0.624 1.104,0.6 1.656,1.56 0.576,0.96 0.72,2.136 0.168,1.152 0.144,2.232 z m -3.6,-0.024 q 0,-1.368 -0.096,-2.256 -0.096,-0.912 -0.312,-1.44 -0.216,-0.528 -0.576,-0.744 -0.36,-0.216 -0.864,-0.216 -0.552,0 -0.936,0.264 -0.384,0.264 -0.624,0.888 -0.216,0.6 -0.312,1.608 -0.096,1.008 -0.096,2.496 0,0.984 0.048,1.776 0.048,0.792 0.24,1.344 0.216,0.552 0.6,0.864 0.384,0.288 1.032,0.288 0.48,0 0.816,-0.168 0.36,-0.192 0.6,-0.696 0.24,-0.528 0.36,-1.488 0.12,-0.96 0.12,-2.52 z"
         id="path916" />
      <path
         d="m 113.71831,-280.36778 q 0,0.72 0.024,1.176 0.048,0.456 0.12,0.768 0.072,0.312 0.168,0.528 0.096,0.216 0.24,0.432 -0.216,-0.048 -0.432,-0.072 -0.192,-0.024 -0.432,-0.048 -0.264,-0.048 -0.552,-0.048 -0.264,0 -0.672,0 -0.48,0 -0.816,0 -0.312,0.024 -0.576,0.024 -0.264,0.024 -0.504,0.048 -0.216,0.048 -0.504,0.096 0.12,-0.24 0.192,-0.408 0.096,-0.168 0.144,-0.528 0.048,-0.336 0.072,-1.128 0.048,-0.768 0.048,-1.656 0.024,-0.864 0.024,-1.704 0.024,-0.84 0.024,-1.272 v -3.504 q 0,-1.512 -0.024,-2.856 -0.024,-1.368 -0.096,-2.472 -0.048,-0.552 -0.12,-0.888 -0.048,-0.36 -0.144,-0.576 -0.096,-0.24 -0.216,-0.384 -0.12,-0.144 -0.264,-0.288 l 0.84,0.024 q 1.584,0 2.424,-0.264 0.84,-0.264 1.296,-0.48 l -0.048,2.736 q 0.144,-0.312 0.36,-0.744 0.24,-0.432 0.624,-0.84 0.408,-0.408 0.984,-0.696 0.6,-0.288 1.464,-0.288 0.888,0 1.512,0.288 0.648,0.264 1.08,0.744 0.456,0.456 0.696,1.056 0.264,0.576 0.408,1.2 0.144,0.624 0.168,1.224 0.048,0.576 0.048,1.056 0,2.184 -0.456,3.648 -0.456,1.464 -1.296,2.352 -0.84,0.888 -2.016,1.272 -1.176,0.384 -2.616,0.384 -0.336,0 -0.6,-0.024 -0.264,0 -0.576,-0.048 z m 2.088,-12.648 q -0.552,0 -1.008,0.408 -0.456,0.408 -0.72,1.392 -0.264,1.08 -0.312,2.784 -0.024,1.68 -0.024,3.888 0.216,0.048 0.432,0.096 0.24,0.048 0.624,0.048 0.936,0 1.512,-0.312 0.576,-0.336 0.888,-0.888 0.336,-0.552 0.432,-1.296 0.12,-0.768 0.12,-1.632 0,-0.816 -0.096,-1.608 -0.072,-0.816 -0.288,-1.44 -0.216,-0.648 -0.6,-1.032 -0.36,-0.408 -0.96,-0.408 z"
         id="path918" />
      <path
         d="m 126.1503,-288.43178 q 0,0.288 0.024,0.672 0.024,0.36 0.12,0.768 0.12,0.408 0.312,0.816 0.216,0.384 0.576,0.72 0.312,0.288 0.672,0.456 0.384,0.144 0.72,0.216 0.36,0.072 0.648,0.096 0.312,0 0.456,0 1.248,0 1.872,-0.264 0.648,-0.288 0.984,-0.504 -0.192,0.792 -0.288,1.368 -0.072,0.576 -0.048,1.392 -0.744,0.192 -1.488,0.24 -0.72,0.072 -1.488,0.072 -1.152,0 -2.064,-0.168 -0.888,-0.168 -1.632,-0.552 -1.296,-0.672 -2.064,-2.136 -0.744,-1.464 -0.744,-3.984 0,-1.152 0.216,-2.304 0.24,-1.152 0.816,-2.064 0.6,-0.936 1.632,-1.512 1.056,-0.576 2.688,-0.576 1.464,0 2.376,0.48 0.936,0.456 1.44,1.272 0.504,0.792 0.672,1.872 0.192,1.056 0.192,2.232 l -0.048,1.392 z m 3.432,-1.992 q 0.024,-0.6 -0.024,-1.176 -0.024,-0.6 -0.192,-1.056 -0.168,-0.48 -0.528,-0.768 -0.336,-0.288 -0.936,-0.288 -0.6,0 -0.96,0.288 -0.36,0.288 -0.552,0.768 -0.192,0.456 -0.264,1.056 -0.072,0.576 -0.072,1.176 z"
         id="path920" />
      <path
         d="m 138.22231,-292.05578 q 0.144,-0.384 0.408,-0.96 0.264,-0.576 0.744,-1.152 0.504,-0.576 1.272,-1.032 0.792,-0.456 1.968,-0.576 -0.312,1.152 -0.408,2.064 -0.072,0.888 -0.12,1.44 -0.192,-0.048 -0.408,-0.096 -0.192,-0.048 -0.456,-0.048 -0.768,0 -1.368,0.336 -0.6,0.336 -0.936,0.84 -0.264,0.408 -0.456,1.272 -0.192,0.84 -0.192,2.28 0,0.624 0,1.392 0,0.744 0.024,1.464 0.048,0.72 0.12,1.344 0.072,0.624 0.192,0.936 -0.408,-0.048 -0.84,-0.096 -0.432,-0.048 -1.056,-0.048 -1.032,0 -2.136,0.144 0.072,-0.24 0.12,-0.432 0.048,-0.216 0.096,-0.648 0.048,-0.528 0.072,-1.32 0.048,-0.816 0.048,-1.728 v -3.336 q 0,-0.672 0,-1.176 0,-0.528 -0.024,-0.96 0,-0.432 -0.024,-0.792 -0.024,-0.36 -0.048,-0.744 -0.072,-0.72 -0.264,-0.96 -0.168,-0.264 -0.408,-0.432 0.744,0 1.32,-0.024 0.576,-0.048 1.056,-0.144 0.504,-0.096 0.96,-0.216 0.48,-0.144 0.984,-0.36 z"
         id="path922" />
      <path
         d="m 152.2143,-284.23178 q 0.048,0.768 0.168,1.104 0.12,0.312 0.288,0.576 -0.408,-0.072 -0.864,-0.072 -0.456,-0.024 -0.984,-0.024 -0.48,0 -0.912,0.024 -0.432,0.024 -0.912,0.072 -0.072,-0.36 -0.096,-0.864 0,-0.504 0.024,-1.512 -0.12,0.336 -0.312,0.768 -0.192,0.408 -0.552,0.792 -0.336,0.384 -0.912,0.648 -0.552,0.264 -1.392,0.264 -1.08,0 -1.704,-0.456 -0.624,-0.456 -0.96,-1.08 -0.312,-0.648 -0.408,-1.296 -0.072,-0.672 -0.072,-1.104 0,-1.176 0.36,-1.992 0.384,-0.816 1.056,-1.32 0.672,-0.528 1.584,-0.768 0.936,-0.24 2.064,-0.24 0.408,0 0.648,0.024 0.264,0 0.504,0.048 0.024,-0.6 0,-1.08 0,-0.48 -0.144,-0.792 -0.144,-0.336 -0.48,-0.504 -0.312,-0.192 -0.888,-0.192 -0.888,0 -1.728,0.312 -0.816,0.312 -1.488,0.936 -0.264,-0.984 -0.48,-1.512 -0.216,-0.552 -0.504,-1.056 0.24,-0.12 0.624,-0.312 0.408,-0.216 0.984,-0.384 0.576,-0.192 1.32,-0.312 0.768,-0.144 1.752,-0.144 1.08,0 1.992,0.24 0.912,0.24 1.464,0.744 0.36,0.336 0.552,0.696 0.192,0.36 0.288,0.912 0.096,0.528 0.096,1.32 0.024,0.768 0.024,1.944 z m -4.152,-4.824 q -0.888,0 -1.488,0.456 -0.6,0.456 -0.6,1.608 0,0.768 0.288,1.344 0.312,0.552 1.008,0.552 0.072,0 0.24,-0.024 0.192,-0.024 0.384,-0.144 0.216,-0.12 0.408,-0.336 0.216,-0.216 0.336,-0.624 0.072,-0.192 0.096,-0.408 0.048,-0.24 0.072,-0.552 0.024,-0.336 0.048,-0.768 0.024,-0.432 0.024,-1.056 z"
         id="path924" />
      <path
         d="m 158.5503,-289.36778 v 2.16 q 0,0.672 0.048,1.128 0.048,0.432 0.192,0.696 0.144,0.264 0.384,0.384 0.264,0.096 0.672,0.096 0.336,0 0.528,-0.048 0.216,-0.072 0.408,-0.144 -0.072,0.36 -0.144,0.792 -0.072,0.408 -0.072,0.984 l 0.048,0.768 q -0.408,0.048 -0.792,0.096 -0.384,0.048 -0.96,0.048 -1.416,0 -2.184,-0.312 -0.744,-0.336 -1.104,-0.912 -0.336,-0.576 -0.408,-1.344 -0.048,-0.768 -0.048,-1.656 l 0.072,-6 q -0.384,-0.024 -0.72,0 -0.312,0 -0.744,0.072 0.024,-0.288 0.024,-0.576 0,-0.288 0.024,-0.576 0,-0.36 -0.024,-0.6 0,-0.24 -0.024,-0.48 0.408,0.048 0.72,0.072 0.336,0.024 0.792,0 0,-0.384 0,-0.816 0,-0.456 -0.024,-0.888 0,-0.456 -0.048,-0.864 -0.048,-0.432 -0.144,-0.768 0.744,-0.048 1.272,-0.12 0.552,-0.096 0.96,-0.216 0.432,-0.12 0.768,-0.264 0.36,-0.168 0.744,-0.36 -0.072,0.36 -0.12,0.624 -0.024,0.24 -0.048,0.648 -0.024,0.408 -0.048,1.104 0,0.672 -0.024,1.896 0.624,0.024 1.008,0.024 0.384,-0.024 0.936,-0.096 -0.048,0.288 -0.072,0.624 -0.024,0.312 -0.024,0.72 0,0.6 0.096,0.96 -0.504,-0.096 -1.008,-0.096 -0.504,-0.024 -0.912,-0.024 z"
         id="path926" />
      <path
         d="m 162.51029,-292.15178 q -0.024,-0.792 -0.096,-1.248 -0.048,-0.48 -0.144,-0.768 -0.072,-0.312 -0.216,-0.48 -0.144,-0.192 -0.36,-0.384 0.912,-0.048 1.536,-0.096 0.624,-0.048 1.104,-0.12 0.48,-0.096 0.888,-0.24 0.432,-0.144 0.936,-0.36 -0.264,1.92 -0.264,4.344 0.024,2.4 0.072,5.448 0.024,0.888 0.096,1.848 0.072,0.96 0.36,1.656 -0.408,-0.048 -0.84,-0.096 -0.408,-0.048 -1.08,-0.048 -0.84,0 -1.44,0.048 -0.6,0.048 -1.008,0.096 0.096,-0.192 0.168,-0.336 0.072,-0.168 0.12,-0.408 0.072,-0.264 0.096,-0.648 0.024,-0.384 0.048,-1.032 0.024,-0.648 0.048,-1.488 0.024,-0.84 0.024,-1.776 0,-0.936 -0.024,-1.92 0,-1.008 -0.024,-1.992 z m 3.36,-6.36 q 0.024,1.056 -0.48,1.488 -0.48,0.432 -1.224,0.432 -0.768,0 -1.272,-0.432 -0.48,-0.432 -0.48,-1.32 0,-0.744 0.384,-1.296 0.384,-0.552 1.368,-0.552 0.84,0 1.248,0.456 0.432,0.456 0.456,1.224 z"
         id="path928" />
      <path
         d="m 172.20629,-293.27978 q 0.12,-0.288 0.336,-0.696 0.24,-0.408 0.648,-0.768 0.408,-0.384 1.056,-0.648 0.672,-0.288 1.68,-0.288 1.2,0 1.848,0.408 0.672,0.384 0.984,0.96 0.312,0.576 0.36,1.224 0.072,0.648 0.072,1.152 v 7.176 q 0,0.552 0.024,0.912 0.048,0.36 0.096,0.6 0.048,0.216 0.096,0.384 0.072,0.144 0.144,0.312 -0.24,-0.024 -0.456,-0.048 -0.216,-0.024 -0.48,-0.024 -0.24,-0.024 -0.576,-0.024 -0.312,-0.024 -0.744,-0.024 -0.624,0 -1.032,0.024 -0.384,0.024 -0.84,0.096 0.048,-0.168 0.096,-0.36 0.072,-0.192 0.096,-0.6 0.048,-0.408 0.072,-1.104 0.024,-0.72 0.024,-1.944 v -3.816 q 0,-0.576 -0.024,-1.08 -0.024,-0.504 -0.192,-0.864 -0.144,-0.36 -0.48,-0.576 -0.312,-0.216 -0.888,-0.216 -0.552,0 -0.912,0.192 -0.336,0.192 -0.528,0.456 -0.168,0.24 -0.24,0.504 -0.072,0.24 -0.096,0.36 -0.048,0.288 -0.072,0.864 -0.024,0.552 -0.048,1.296 0,0.72 0,1.536 0,0.816 0,1.608 0,1.128 0,1.8 0.024,0.648 0.048,1.032 0.048,0.384 0.096,0.576 0.072,0.168 0.144,0.336 -0.432,-0.048 -0.888,-0.072 -0.456,-0.048 -1.176,-0.048 -0.48,0 -0.936,0.024 -0.456,0.024 -1.08,0.096 0.12,-0.24 0.192,-0.552 0.072,-0.336 0.12,-0.648 0.024,-0.168 0.048,-0.624 0.024,-0.456 0.024,-1.056 0.024,-0.624 0.024,-1.368 0,-0.768 0,-1.56 0,-0.792 0,-1.44 0,-0.672 -0.024,-1.248 0,-0.576 -0.024,-1.128 -0.024,-0.552 -0.072,-1.152 -0.048,-0.84 -0.288,-1.224 -0.216,-0.384 -0.432,-0.504 0.888,-0.048 1.512,-0.096 0.624,-0.072 1.08,-0.168 0.48,-0.096 0.84,-0.216 0.384,-0.144 0.768,-0.312 z"
         id="path930" />
      <path
         d="m 186.41428,-295.67978 q 0.648,0 1.368,0.096 0.744,0.096 1.32,0.336 l 0.264,0.12 q 0.408,0.024 0.864,0 0.48,-0.048 0.888,-0.096 0.192,-0.024 0.48,-0.072 0.288,-0.072 0.696,-0.168 -0.024,0.264 -0.048,0.504 0,0.24 0,0.456 0,0.264 0,0.504 0.024,0.216 0.048,0.432 -0.384,-0.12 -0.888,-0.144 -0.48,-0.048 -0.888,-0.024 0.192,0.36 0.384,0.84 0.192,0.48 0.192,1.488 0,0.864 -0.24,1.632 -0.24,0.744 -0.768,1.32 -0.528,0.552 -1.368,0.888 -0.84,0.336 -2.04,0.336 -0.624,0 -1.032,-0.072 -0.408,-0.072 -0.696,-0.12 -0.24,0.12 -0.552,0.336 -0.288,0.192 -0.288,0.6 0,0.648 0.816,0.792 0.84,0.144 2.304,0.168 0.84,0.024 1.704,0.12 0.888,0.096 1.608,0.456 0.72,0.336 1.176,1.032 0.48,0.696 0.48,1.944 0,0.936 -0.264,1.656 -0.24,0.744 -0.624,1.224 -0.648,0.84 -1.992,1.392 -1.32,0.552 -3.384,0.552 -1.44,0 -2.424,-0.264 -0.984,-0.24 -1.584,-0.672 -0.576,-0.408 -0.84,-0.936 -0.24,-0.504 -0.24,-1.056 0,-0.672 0.288,-1.152 0.312,-0.456 0.72,-0.768 0.432,-0.288 0.888,-0.456 0.48,-0.168 0.816,-0.264 -0.264,-0.072 -0.648,-0.192 -0.384,-0.144 -0.72,-0.408 -0.336,-0.264 -0.576,-0.672 -0.24,-0.408 -0.24,-1.056 0,-1.008 0.648,-1.68 0.648,-0.672 1.68,-1.152 -0.192,-0.096 -0.528,-0.288 -0.336,-0.216 -0.672,-0.6 -0.312,-0.408 -0.552,-1.032 -0.24,-0.624 -0.24,-1.56 0,-1.176 0.36,-1.992 0.384,-0.84 1.008,-1.344 0.648,-0.528 1.488,-0.744 0.864,-0.24 1.848,-0.24 z m 1.488,4.176 q 0,-0.384 -0.048,-0.84 -0.024,-0.456 -0.168,-0.84 -0.12,-0.384 -0.408,-0.624 -0.264,-0.264 -0.768,-0.264 -0.48,0 -0.768,0.24 -0.288,0.216 -0.456,0.6 -0.168,0.36 -0.24,0.84 -0.048,0.48 -0.048,0.984 0,0.408 0.048,0.864 0.048,0.432 0.192,0.816 0.144,0.384 0.432,0.624 0.312,0.24 0.816,0.24 0.456,0 0.744,-0.216 0.288,-0.24 0.432,-0.624 0.144,-0.384 0.192,-0.84 0.048,-0.48 0.048,-0.96 z m -1.272,12.864 q 0.576,0 1.128,-0.12 0.576,-0.12 1.032,-0.36 0.456,-0.24 0.72,-0.624 0.288,-0.384 0.288,-0.936 0,-0.6 -0.312,-0.936 -0.312,-0.312 -0.96,-0.48 -0.624,-0.168 -1.608,-0.264 -0.96,-0.072 -2.28,-0.168 -0.384,0.264 -0.6,0.528 -0.192,0.288 -0.312,0.552 -0.096,0.264 -0.12,0.456 -0.024,0.192 -0.024,0.264 0,0.504 0.24,0.888 0.24,0.384 0.648,0.648 0.408,0.264 0.96,0.408 0.552,0.144 1.2,0.144 z"
         id="path932" />
      <path
         d="m 204.31828,-295.79978 q 0.696,0 1.416,0.096 0.72,0.096 1.416,0.288 -0.264,0.648 -0.384,1.224 -0.096,0.576 -0.12,1.488 -0.408,-0.552 -1.056,-0.768 -0.648,-0.216 -1.344,-0.216 -0.912,0 -1.32,0.432 -0.384,0.408 -0.384,0.912 0,0.696 0.576,1.128 0.576,0.408 1.752,0.936 0.504,0.264 0.984,0.552 0.48,0.288 0.84,0.696 0.36,0.384 0.576,0.96 0.216,0.576 0.216,1.392 0,1.104 -0.336,1.872 -0.312,0.744 -0.84,1.248 -0.528,0.48 -1.176,0.744 -0.624,0.264 -1.248,0.384 -0.624,0.12 -1.152,0.144 -0.528,0.024 -0.84,0.024 -1.296,0 -2.016,-0.168 -0.696,-0.168 -1.032,-0.288 0.336,-0.696 0.48,-1.296 0.168,-0.624 0.24,-1.56 0.072,0.12 0.24,0.312 0.192,0.192 0.48,0.384 0.312,0.192 0.768,0.336 0.48,0.144 1.176,0.144 0.744,0 1.152,-0.192 0.432,-0.216 0.6,-0.48 0.192,-0.264 0.216,-0.504 0.048,-0.24 0.048,-0.312 0,-0.336 -0.096,-0.552 -0.096,-0.24 -0.36,-0.432 -0.24,-0.216 -0.672,-0.432 -0.432,-0.24 -1.104,-0.576 -0.456,-0.24 -0.96,-0.528 -0.48,-0.312 -0.888,-0.744 -0.384,-0.432 -0.648,-1.032 -0.24,-0.624 -0.24,-1.488 0,-1.056 0.36,-1.824 0.384,-0.792 1.032,-1.296 0.672,-0.504 1.584,-0.744 0.936,-0.264 2.064,-0.264 z"
         id="path934" />
      <path
         d="m 214.27828,-287.85578 q 0.168,-0.696 0.384,-1.68 0.216,-0.984 0.408,-1.968 0.216,-1.008 0.36,-1.872 0.144,-0.864 0.144,-1.32 0,-0.264 -0.048,-0.432 -0.048,-0.168 -0.12,-0.336 0.168,0.024 0.336,0.048 0.168,0 0.36,0 0.192,0.024 0.408,0.024 0.216,0 0.48,0 0.432,0 0.72,0 0.312,-0.024 0.552,-0.024 0.24,-0.024 0.432,-0.048 0.216,-0.048 0.432,-0.096 -0.24,0.504 -0.432,0.936 -0.168,0.408 -0.36,1.056 -0.192,0.624 -0.48,1.632 -0.264,0.984 -0.72,2.616 -0.528,2.064 -0.84,3.312 -0.312,1.224 -0.528,1.992 -0.192,0.768 -0.336,1.248 -0.12,0.456 -0.288,0.984 -0.24,0.744 -0.552,1.512 -0.312,0.768 -0.912,1.392 -0.6,0.648 -1.608,1.032 -0.984,0.408 -2.568,0.408 -0.408,0 -0.672,-0.048 -0.264,-0.024 -0.528,-0.072 0.144,-0.36 0.24,-0.696 0.096,-0.312 0.168,-0.648 0.072,-0.336 0.12,-0.72 0.048,-0.384 0.096,-0.864 0.264,0.192 0.504,0.312 0.264,0.12 0.792,0.12 0.792,0 1.296,-0.312 0.504,-0.288 0.792,-0.696 0.288,-0.408 0.408,-0.84 0.144,-0.432 0.192,-0.696 -0.216,-0.024 -0.456,-0.024 -0.216,-0.024 -0.552,-0.024 l -0.96,0.048 q -0.048,-0.576 -0.216,-1.512 -0.168,-0.936 -0.408,-2.04 -0.216,-1.104 -0.48,-2.28 -0.264,-1.176 -0.504,-2.208 -0.24,-1.032 -0.432,-1.824 -0.192,-0.792 -0.288,-1.128 -0.144,-0.504 -0.336,-1.008 -0.168,-0.504 -0.504,-0.912 0.264,0.024 0.48,0.048 0.24,0.024 0.504,0.048 0.288,0 0.624,0.024 0.336,0 0.792,0 0.72,0 1.128,-0.024 0.432,-0.048 0.84,-0.096 -0.024,0.096 -0.048,0.24 -0.024,0.12 -0.024,0.36 0,0.216 0.024,0.6 0.048,0.36 0.12,0.912 0.12,0.888 0.264,1.8 0.144,0.912 0.312,1.92 0.168,1.008 0.384,2.136 0.216,1.128 0.48,2.424 z"
         id="path936" />
      <path
         d="m 224.81429,-295.79978 q 0.696,0 1.416,0.096 0.72,0.096 1.416,0.288 -0.264,0.648 -0.384,1.224 -0.096,0.576 -0.12,1.488 -0.408,-0.552 -1.056,-0.768 -0.648,-0.216 -1.344,-0.216 -0.912,0 -1.32,0.432 -0.384,0.408 -0.384,0.912 0,0.696 0.576,1.128 0.576,0.408 1.752,0.936 0.504,0.264 0.984,0.552 0.48,0.288 0.84,0.696 0.36,0.384 0.576,0.96 0.216,0.576 0.216,1.392 0,1.104 -0.336,1.872 -0.312,0.744 -0.84,1.248 -0.528,0.48 -1.176,0.744 -0.624,0.264 -1.248,0.384 -0.624,0.12 -1.152,0.144 -0.528,0.024 -0.84,0.024 -1.296,0 -2.016,-0.168 -0.696,-0.168 -1.032,-0.288 0.336,-0.696 0.48,-1.296 0.168,-0.624 0.24,-1.56 0.072,0.12 0.24,0.312 0.192,0.192 0.48,0.384 0.312,0.192 0.768,0.336 0.48,0.144 1.176,0.144 0.744,0 1.152,-0.192 0.432,-0.216 0.6,-0.48 0.192,-0.264 0.216,-0.504 0.048,-0.24 0.048,-0.312 0,-0.336 -0.096,-0.552 -0.096,-0.24 -0.36,-0.432 -0.24,-0.216 -0.672,-0.432 -0.432,-0.24 -1.104,-0.576 -0.456,-0.24 -0.96,-0.528 -0.48,-0.312 -0.888,-0.744 -0.384,-0.432 -0.648,-1.032 -0.24,-0.624 -0.24,-1.488 0,-1.056 0.36,-1.824 0.384,-0.792 1.032,-1.296 0.672,-0.504 1.584,-0.744 0.936,-0.264 2.064,-0.264 z"
         id="path938" />
      <path
         d="m 233.57428,-289.36778 v 2.16 q 0,0.672 0.048,1.128 0.048,0.432 0.192,0.696 0.144,0.264 0.384,0.384 0.264,0.096 0.672,0.096 0.336,0 0.528,-0.048 0.216,-0.072 0.408,-0.144 -0.072,0.36 -0.144,0.792 -0.072,0.408 -0.072,0.984 l 0.048,0.768 q -0.408,0.048 -0.792,0.096 -0.384,0.048 -0.96,0.048 -1.416,0 -2.184,-0.312 -0.744,-0.336 -1.104,-0.912 -0.336,-0.576 -0.408,-1.344 -0.048,-0.768 -0.048,-1.656 l 0.072,-6 q -0.384,-0.024 -0.72,0 -0.312,0 -0.744,0.072 0.024,-0.288 0.024,-0.576 0,-0.288 0.024,-0.576 0,-0.36 -0.024,-0.6 0,-0.24 -0.024,-0.48 0.408,0.048 0.72,0.072 0.336,0.024 0.792,0 0,-0.384 0,-0.816 0,-0.456 -0.024,-0.888 0,-0.456 -0.048,-0.864 -0.048,-0.432 -0.144,-0.768 0.744,-0.048 1.272,-0.12 0.552,-0.096 0.96,-0.216 0.432,-0.12 0.768,-0.264 0.36,-0.168 0.744,-0.36 -0.072,0.36 -0.12,0.624 -0.024,0.24 -0.048,0.648 -0.024,0.408 -0.048,1.104 0,0.672 -0.024,1.896 0.624,0.024 1.008,0.024 0.384,-0.024 0.936,-0.096 -0.048,0.288 -0.072,0.624 -0.024,0.312 -0.024,0.72 0,0.6 0.096,0.96 -0.504,-0.096 -1.008,-0.096 -0.504,-0.024 -0.912,-0.024 z"
         id="path940" />
      <path
         d="m 240.19828,-288.43178 q 0,0.288 0.024,0.672 0.024,0.36 0.12,0.768 0.12,0.408 0.312,0.816 0.216,0.384 0.576,0.72 0.312,0.288 0.672,0.456 0.384,0.144 0.72,0.216 0.36,0.072 0.648,0.096 0.312,0 0.456,0 1.248,0 1.872,-0.264 0.648,-0.288 0.984,-0.504 -0.192,0.792 -0.288,1.368 -0.072,0.576 -0.048,1.392 -0.744,0.192 -1.488,0.24 -0.72,0.072 -1.488,0.072 -1.152,0 -2.064,-0.168 -0.888,-0.168 -1.632,-0.552 -1.296,-0.672 -2.064,-2.136 -0.744,-1.464 -0.744,-3.984 0,-1.152 0.216,-2.304 0.24,-1.152 0.816,-2.064 0.6,-0.936 1.632,-1.512 1.056,-0.576 2.688,-0.576 1.464,0 2.376,0.48 0.936,0.456 1.44,1.272 0.504,0.792 0.672,1.872 0.192,1.056 0.192,2.232 l -0.048,1.392 z m 3.432,-1.992 q 0.024,-0.6 -0.024,-1.176 -0.024,-0.6 -0.192,-1.056 -0.168,-0.48 -0.528,-0.768 -0.336,-0.288 -0.936,-0.288 -0.6,0 -0.96,0.288 -0.36,0.288 -0.552,0.768 -0.192,0.456 -0.264,1.056 -0.072,0.576 -0.072,1.176 z"
         id="path942" />
      <path
         d="m 265.23028,-287.51978 q -0.024,1.272 -0.024,2.112 0,0.84 0.024,1.392 0.048,0.552 0.096,0.888 0.072,0.336 0.168,0.576 -0.408,-0.048 -0.84,-0.096 -0.408,-0.048 -1.104,-0.048 -0.648,0 -1.152,0.048 -0.504,0.024 -0.936,0.096 0.192,-0.336 0.24,-1.704 0.072,-1.392 0.072,-3.24 v -2.736 q 0,-0.504 -0.024,-0.984 -0.024,-0.504 -0.168,-0.888 -0.12,-0.384 -0.384,-0.624 -0.264,-0.24 -0.744,-0.24 -0.624,0 -0.984,0.216 -0.336,0.192 -0.504,0.72 -0.144,0.504 -0.168,1.368 -0.024,0.864 -0.024,2.184 v 2.112 2.256 q 0,0.552 0.048,0.936 0.072,0.36 0.24,0.624 -0.408,-0.048 -0.84,-0.096 -0.408,-0.048 -1.128,-0.048 -0.624,0 -1.104,0.048 -0.48,0.024 -1.032,0.096 0.048,-0.096 0.096,-0.36 0.072,-0.288 0.12,-0.864 0.048,-0.576 0.072,-1.488 0.048,-0.936 0.048,-2.328 v -1.8 q 0,-0.84 -0.024,-1.488 -0.024,-0.672 -0.168,-1.128 -0.12,-0.456 -0.408,-0.696 -0.288,-0.24 -0.816,-0.24 -0.6,0 -0.936,0.264 -0.312,0.264 -0.456,0.744 -0.144,0.456 -0.168,1.104 -0.024,0.648 -0.024,1.416 v 1.92 3.072 q 0,0.912 0.048,1.272 0.072,0.36 0.24,0.6 -0.48,-0.072 -0.888,-0.096 -0.408,-0.048 -0.96,-0.048 -0.768,0 -1.32,0.048 -0.528,0.048 -0.936,0.096 0.072,-0.144 0.12,-0.288 0.048,-0.144 0.096,-0.432 0.048,-0.288 0.072,-0.816 0.024,-0.528 0.072,-1.44 0.048,-1.296 0.048,-2.568 0,-1.296 -0.024,-2.4 -0.024,-1.104 -0.072,-1.92 -0.048,-0.816 -0.096,-1.152 -0.12,-0.744 -0.312,-1.032 -0.192,-0.288 -0.504,-0.48 0.984,-0.024 1.68,-0.096 0.72,-0.096 1.224,-0.192 0.504,-0.12 0.864,-0.24 0.36,-0.144 0.648,-0.264 v 2.688 q 0.12,-0.288 0.336,-0.696 0.24,-0.432 0.648,-0.816 0.432,-0.408 1.032,-0.696 0.624,-0.288 1.512,-0.288 0.864,0 1.392,0.288 0.528,0.264 0.816,0.648 0.288,0.36 0.408,0.768 0.12,0.408 0.168,0.672 0.12,-0.24 0.336,-0.648 0.216,-0.408 0.6,-0.792 0.408,-0.384 1.032,-0.648 0.624,-0.288 1.56,-0.288 1.2,0 1.824,0.384 0.648,0.384 0.912,0.984 0.288,0.576 0.312,1.272 0.048,0.672 0.048,1.248 z"
         id="path945" />
    </g>
    <g
       id="layer6"
       style="display:inline"
       transform="matrix(0.15099488,0,0,0.15099488,-161.73518,-79.564812)">
      <g
         id="g880001"
         style="display:inline;fill:#51a1d0;fill-opacity:1"
         transform="matrix(1.0144723,0,0,1.0144723,1234.5714,591.72714)">
        <path
           i:knockout="Off"
           fill="#51a1d0"
           d="m 51.986,57.297 c -1.797,0.025 0.34,0.926 2.686,1.287 0.648,-0.506 1.236,-1.018 1.76,-1.516 -1.461,0.358 -2.948,0.366 -4.446,0.229"
           id="path879977"
           style="fill:#51a1d0;fill-opacity:1" />
        <path
           i:knockout="Off"
           fill="#51a1d0"
           d="m 61.631,54.893 c 1.07,-1.477 1.85,-3.094 2.125,-4.766 -0.24,1.192 -0.887,2.221 -1.496,3.307 -3.359,2.115 -0.316,-1.256 -0.002,-2.537 -3.612,4.546 -0.496,2.726 -0.627,3.996"
           id="path879979"
           style="fill:#51a1d0;fill-opacity:1" />
        <path
           i:knockout="Off"
           fill="#51a1d0"
           d="m 65.191,45.629 c 0.217,-3.236 -0.637,-2.213 -0.924,-0.978 0.335,0.174 0.6,2.281 0.924,0.978"
           id="path879981"
           style="fill:#51a1d0;fill-opacity:1" />
        <path
           i:knockout="Off"
           fill="#51a1d0"
           d="m 45.172,1.399 c 0.959,0.172 2.072,0.304 1.916,0.533 1.049,-0.23 1.287,-0.442 -1.916,-0.533"
           id="path879983"
           style="fill:#51a1d0;fill-opacity:1" />
        <path
           i:knockout="Off"
           fill="#51a1d0"
           d="M 47.088,1.932 46.41,2.072 47.041,2.016 47.088,1.932"
           id="path879985"
           style="fill:#51a1d0;fill-opacity:1" />
        <path
           i:knockout="Off"
           fill="#51a1d0"
           d="m 76.992,46.856 c 0.107,2.906 -0.85,4.316 -1.713,6.812 l -1.553,0.776 c -1.271,2.468 0.123,1.567 -0.787,3.53 -1.984,1.764 -6.021,5.52 -7.313,5.863 -0.943,-0.021 0.639,-1.113 0.846,-1.541 -2.656,1.824 -2.131,2.738 -6.193,3.846 L 60.16,65.878 C 50.142,70.591 36.226,61.251 36.409,48.507 c -0.107,0.809 -0.304,0.607 -0.526,0.934 -0.517,-6.557 3.028,-13.143 9.007,-15.832 5.848,-2.895 12.704,-1.707 16.893,2.197 -2.301,-3.014 -6.881,-6.209 -12.309,-5.91 -5.317,0.084 -10.291,3.463 -11.951,7.131 -2.724,1.715 -3.04,6.611 -4.227,7.507 -1.597,11.737 3.004,16.808 10.787,22.773 1.225,0.826 0.345,0.951 0.511,1.58 -2.586,-1.211 -4.954,-3.039 -6.901,-5.277 1.033,1.512 2.148,2.982 3.589,4.137 -2.438,-0.826 -5.695,-5.908 -6.646,-6.115 4.203,7.525 17.052,13.197 23.78,10.383 -3.113,0.115 -7.068,0.064 -10.566,-1.229 -1.469,-0.756 -3.467,-2.322 -3.11,-2.615 9.182,3.43 18.667,2.598 26.612,-3.771 2.021,-1.574 4.229,-4.252 4.867,-4.289 -0.961,1.445 0.164,0.695 -0.574,1.971 2.014,-3.248 -0.875,-1.322 2.082,-5.609 l 1.092,1.504 c -0.406,-2.696 3.348,-5.97 2.967,-10.234 0.861,-1.304 0.961,1.403 0.047,4.403 1.268,-3.328 0.334,-3.863 0.66,-6.609 0.352,0.923 0.814,1.904 1.051,2.878 -0.826,-3.216 0.848,-5.416 1.262,-7.285 -0.408,-0.181 -1.275,1.422 -1.473,-2.377 0.029,-1.65 0.459,-0.865 0.625,-1.271 -0.324,-0.186 -1.174,-1.451 -1.691,-3.877 0.375,-0.57 1.002,1.478 1.512,1.562 -0.328,-1.929 -0.893,-3.4 -0.916,-4.88 -1.49,-3.114 -0.527,0.415 -1.736,-1.337 -1.586,-4.947 1.316,-1.148 1.512,-3.396 2.404,3.483 3.775,8.881 4.404,11.117 -0.48,-2.726 -1.256,-5.367 -2.203,-7.922 0.73,0.307 -1.176,-5.609 0.949,-1.691 C 83.519,18.706 76.074,10.902 69.225,7.24 70.063,8.007 71.121,8.97 70.741,9.121 67.335,7.093 67.934,6.935 67.446,6.078 64.671,4.949 64.489,6.169 62.651,6.08 57.421,3.306 56.413,3.601 51.6,1.863 l 0.219,1.023 c -3.465,-1.154 -4.037,0.438 -7.782,0.004 -0.228,-0.178 1.2,-0.644 2.375,-0.815 -3.35,0.442 -3.193,-0.66 -6.471,0.122 0.808,-0.567 1.662,-0.942 2.524,-1.424 -2.732,0.166 -6.522,1.59 -5.352,0.295 -4.456,1.988 -12.37,4.779 -16.811,8.943 l -0.14,-0.933 c -2.035,2.443 -8.874,7.296 -9.419,10.46 l -0.544,0.127 c -1.059,1.793 -1.744,3.825 -2.584,5.67 -1.385,2.36 -2.03,0.908 -1.833,1.278 -2.724,5.523 -4.077,10.164 -5.246,13.97 0.833,1.245 0.02,7.495 0.335,12.497 -1.368,24.704 17.338,48.69 37.785,54.228 2.997,1.072 7.454,1.031 11.245,1.141 -4.473,-1.279 -5.051,-0.678 -9.408,-2.197 -3.143,-1.48 -3.832,-3.17 -6.058,-5.102 l 0.881,1.557 c -4.366,-1.545 -2.539,-1.912 -6.091,-3.037 l 0.941,-1.229 C 28.751,98.334 26.418,96.056 25.78,94.795 l -1.548,0.061 c -1.86,-2.295 -2.851,-3.949 -2.779,-5.23 l -0.5,0.891 c -0.567,-0.973 -6.843,-8.607 -3.587,-6.83 -0.605,-0.553 -1.409,-0.9 -2.281,-2.484 l 0.663,-0.758 c -1.567,-2.016 -2.884,-4.6 -2.784,-5.461 0.836,1.129 1.416,1.34 1.99,1.533 -3.957,-9.818 -4.179,-0.541 -7.176,-9.994 L 8.412,66.472 C 7.926,65.74 7.631,64.945 7.24,64.165 l 0.276,-2.75 C 4.667,58.121 6.719,47.409 7.13,41.534 7.415,39.145 9.508,36.602 11.1,32.614 l -0.97,-0.167 c 1.854,-3.234 10.586,-12.988 14.63,-12.486 1.959,-2.461 -0.389,-0.009 -0.772,-0.629 4.303,-4.453 5.656,-3.146 8.56,-3.947 3.132,-1.859 -2.688,0.725 -1.203,-0.709 5.414,-1.383 3.837,-3.144 10.9,-3.846 0.745,0.424 -1.729,0.655 -2.35,1.205 4.511,-2.207 14.275,-1.705 20.617,1.225 7.359,3.439 15.627,13.605 15.953,23.17 l 0.371,0.1 c -0.188,3.802 0.582,8.199 -0.752,12.238 l 0.908,-1.912"
           id="path879987"
           style="fill:#51a1d0;fill-opacity:1" />
        <path
           i:knockout="Off"
           fill="#51a1d0"
           d="m 32.372,59.764 -0.252,1.26 c 1.181,1.604 2.118,3.342 3.626,4.596 -1.085,-2.118 -1.891,-2.993 -3.374,-5.856"
           id="path879989"
           style="fill:#51a1d0;fill-opacity:1" />
        <path
           i:knockout="Off"
           fill="#51a1d0"
           d="m 35.164,59.654 c -0.625,-0.691 -0.995,-1.523 -1.409,-2.352 0.396,1.457 1.207,2.709 1.962,3.982 l -0.553,-1.63"
           id="path879991"
           style="fill:#51a1d0;fill-opacity:1" />
        <path
           i:knockout="Off"
           fill="#51a1d0"
           d="m 84.568,48.916 -0.264,0.662 c -0.484,3.438 -1.529,6.84 -3.131,9.994 1.77,-3.328 2.915,-6.968 3.395,-10.656"
           id="path879993"
           style="fill:#51a1d0;fill-opacity:1" />
        <path
           i:knockout="Off"
           fill="#51a1d0"
           d="M 45.527,0.537 C 46.742,0.092 48.514,0.293 49.803,0 48.123,0.141 46.451,0.225 44.8,0.438 l 0.727,0.099"
           id="path879995"
           style="fill:#51a1d0;fill-opacity:1" />
        <path
           i:knockout="Off"
           fill="#51a1d0"
           d="m 2.872,23.219 c 0.28,2.592 -1.95,3.598 0.494,1.889 1.31,-2.951 -0.512,-0.815 -0.494,-1.889"
           id="path879997"
           style="fill:#51a1d0;fill-opacity:1" />
        <path
           i:knockout="Off"
           fill="#51a1d0"
           d="M 0,35.215 C 0.563,33.487 0.665,32.449 0.88,31.449 -0.676,33.438 0.164,33.862 0,35.215"
           id="path879999"
           style="fill:#51a1d0;fill-opacity:1" />
      </g>
    </g>
    <g
       aria-label="debian 13"
       transform="matrix(0.15988807,0,0,0.15988807,39.069765,-35.476398)"
       id="text28448"
       style="font-size:80px;font-family:Poppl-Laudatio;-inkscape-font-specification:'Poppl-Laudatio, Normal';white-space:pre;shape-inside:url(#rect28450);fill:#51a1d0;stroke-width:7.281">
      <path
         d="m 12.978188,324.69655 q 0,-5.92 1.2,-10 1.2,-4.16 3.44,-6.72 2.24,-2.64 5.52,-3.76 3.28,-1.2 7.36,-1.2 2.32,0 3.6,0.24 1.28,0.24 2.4,0.48 0,-2.96 -0.08,-5.12 0,-2.16 -0.24,-3.76 -0.16,-1.6 -0.64,-2.64 -0.48,-1.12 -1.28,-2 2.56,-0.16 4.48,-0.4 1.92,-0.24 3.52,-0.56 1.68,-0.32 3.12,-0.72 1.52,-0.48 3.2,-1.12 -0.16,0.72 -0.24,1.44 -0.08,0.72 -0.16,1.84 -0.08,1.04 -0.16,2.8 -0.08,1.68 -0.16,4.32 0,1.84 -0.08,5.12 -0.08,3.28 -0.08,7.28 0,3.92 0,8.24 0,4.32 0,8.4 0,4 0.08,7.36 0.08,3.36 0.24,5.44 0.08,1.6 0.24,2.64 0.16,1.04 0.32,1.84 0.24,0.8 0.48,1.36 0.24,0.56 0.56,1.2 -1.36,-0.16 -2.56,-0.24 -1.12,-0.08 -2.96,-0.08 -2.96,0 -4.64,0.16 -1.68,0.08 -2.8,0.16 v -6.88 q -0.24,0.64 -0.8,1.84 -0.48,1.2 -1.6,2.4 -1.04,1.2 -2.88,2.08 -1.84,0.88 -4.64,0.88 -3.44,0 -5.84,-1.36 -2.32,-1.44 -3.84,-3.6 -1.52,-2.24 -2.4,-4.88 -0.8,-2.72 -1.2,-5.2 -0.32,-2.48 -0.4,-4.4 -0.08,-2 -0.08,-2.88 z m 23.36,-13.52 q -0.8,-0.4 -1.68,-0.64 -0.88,-0.24 -2.32,-0.24 -2.56,0 -4.08,1.12 -1.52,1.04 -2.4,2.88 -0.8,1.76 -1.12,4 -0.24,2.24 -0.24,4.48 0,0.88 0,2.56 0.08,1.68 0.48,4 0.24,1.6 0.64,3.2 0.48,1.52 1.2,2.8 0.72,1.2 1.84,2 1.12,0.72 2.72,0.72 1.36,0 2.16,-0.48 0.88,-0.48 1.36,-1.12 0.48,-0.64 0.72,-1.28 0.24,-0.64 0.32,-0.96 0.16,-0.8 0.24,-2.88 0.16,-2.16 0.16,-4.88 0.08,-2.8 0.08,-5.76 0,-3.04 0,-5.6 z"
         id="path28523" />
      <path
         d="m 65.657979,326.97655 q 0,0.96 0.08,2.24 0.08,1.2 0.4,2.56 0.4,1.36 1.04,2.72 0.72,1.28 1.92,2.4 1.04,0.96 2.24,1.52 1.28,0.48 2.4,0.72 1.2,0.24 2.16,0.32 1.04,0 1.52,0 4.16,0 6.24,-0.88 2.16,-0.96 3.28,-1.68 -0.64,2.64 -0.96,4.56 -0.24,1.92 -0.16,4.64 -2.48,0.64 -4.96,0.8 -2.4,0.24 -4.96,0.24 -3.84,0 -6.88,-0.56 -2.96,-0.56 -5.44,-1.84 -4.32,-2.24 -6.88,-7.12 -2.48,-4.88 -2.48,-13.28 0,-3.84 0.72,-7.68 0.8,-3.84 2.72,-6.88 2,-3.12 5.44,-5.04 3.52,-1.92 8.96,-1.92 4.88,0 7.92,1.6 3.12,1.52 4.8,4.24 1.68,2.64 2.24,6.24 0.64,3.52 0.64,7.44 l -0.16,4.64 z m 11.44,-6.64 q 0.08,-2 -0.08,-3.92 -0.08,-2 -0.64,-3.52 -0.56,-1.6 -1.76,-2.56 -1.12,-0.96 -3.12,-0.96 -2,0 -3.2,0.96 -1.2,0.96 -1.84,2.56 -0.64,1.52 -0.88,3.52 -0.24,1.92 -0.24,3.92 z"
         id="path28525" />
      <path
         d="m 95.417969,314.05655 q 0,-7.92 -0.24,-12.24 -0.16,-4.4 -0.56,-6.64 -0.32,-2.32 -0.96,-3.12 -0.64,-0.8 -1.44,-1.6 1.68,-0.08 3.28,-0.24 1.6,-0.16 3.36,-0.48 1.840001,-0.32 3.920001,-0.88 2.08,-0.64 4.8,-1.6 -0.32,2.72 -0.48,6.32 -0.16,3.6 -0.24,7.12 0,3.52 0,6.56 0,3.04 0,4.56 0.48,-1.2 1.2,-2.72 0.8,-1.52 2.08,-2.88 1.28,-1.44 3.2,-2.32 1.92,-0.96 4.72,-0.96 3.36,0 5.84,1.52 2.48,1.44 3.84,3.52 1.04,1.44 1.68,3.36 0.64,1.84 0.96,3.68 0.32,1.84 0.4,3.6 0.08,1.76 0.08,2.96 0,6.96 -1.44,11.84 -1.44,4.88 -4.24,8 -2.72,3.04 -6.72,4.4 -4,1.36 -9.04,1.36 -1.2,0 -2.88,-0.08 -1.6,-0.08 -3.6,-0.32 -1.92,-0.24 -4.080001,-0.64 -2.16,-0.4 -4.4,-1.12 0.72,-2.4 0.8,-5.44 0.16,-3.12 0.16,-6.08 z m 23.840001,12.16 q 0,-2.4 -0.24,-4.88 -0.24,-2.48 -0.96,-4.48 -0.64,-2.08 -1.92,-3.36 -1.28,-1.28 -3.28,-1.28 -0.4,0 -1.04,0.08 -0.56,0.08 -1.28,0.56 -0.72,0.4 -1.44,1.28 -0.64,0.88 -1.12,2.48 -0.64,2.24 -0.8,5.52 -0.08,3.28 -0.08,8.4 0,3.28 0,5.84 0,2.48 0.16,3.84 0.4,0 1.36,0.24 0.96,0.16 2.08,0.16 2.96,0 4.64,-1.44 1.76,-1.44 2.64,-3.6 0.88,-2.16 1.04,-4.64 0.24,-2.56 0.24,-4.72 z"
         id="path28527" />
      <path
         d="m 138.13796,314.69655 q -0.08,-2.64 -0.32,-4.16 -0.16,-1.6 -0.48,-2.56 -0.24,-1.04 -0.72,-1.6 -0.48,-0.64 -1.2,-1.28 3.04,-0.16 5.12,-0.32 2.08,-0.16 3.68,-0.4 1.6,-0.32 2.96,-0.8 1.44,-0.48 3.12,-1.2 -0.88,6.4 -0.88,14.48 0.08,8 0.24,18.16 0.08,2.96 0.32,6.16 0.24,3.2 1.2,5.52 -1.36,-0.16 -2.8,-0.32 -1.36,-0.16 -3.6,-0.16 -2.8,0 -4.8,0.16 -2,0.16 -3.36,0.32 0.32,-0.64 0.56,-1.12 0.24,-0.56 0.4,-1.36 0.24,-0.88 0.32,-2.16 0.08,-1.28 0.16,-3.44 0.08,-2.16 0.16,-4.96 0.08,-2.8 0.08,-5.92 0,-3.12 -0.08,-6.4 0,-3.36 -0.08,-6.64 z m 11.2,-21.2 q 0.08,3.52 -1.6,4.96 -1.6,1.44 -4.08,1.44 -2.56,0 -4.24,-1.44 -1.6,-1.44 -1.6,-4.4 0,-2.48 1.28,-4.32 1.28,-1.84 4.56,-1.84 2.8,0 4.16,1.52 1.44,1.52 1.52,4.08 z"
         id="path28529" />
      <path
         d="m 188.85795,341.09655 q 0.16,2.56 0.56,3.68 0.4,1.04 0.96,1.92 -1.36,-0.24 -2.88,-0.24 -1.52,-0.08 -3.28,-0.08 -1.6,0 -3.04,0.08 -1.44,0.08 -3.04,0.24 -0.24,-1.2 -0.32,-2.88 0,-1.68 0.08,-5.04 -0.4,1.12 -1.04,2.56 -0.64,1.36 -1.84,2.64 -1.12,1.28 -3.04,2.16 -1.84,0.88 -4.64,0.88 -3.6,0 -5.68,-1.52 -2.08,-1.52 -3.2,-3.6 -1.04,-2.16 -1.36,-4.32 -0.24,-2.24 -0.24,-3.68 0,-3.92 1.2,-6.64 1.28,-2.72 3.52,-4.4 2.24,-1.76 5.28,-2.56 3.12,-0.8 6.88,-0.8 1.36,0 2.16,0.08 0.88,0 1.68,0.16 0.08,-2 0,-3.6 0,-1.6 -0.48,-2.64 -0.48,-1.12 -1.6,-1.68 -1.04,-0.64 -2.96,-0.64 -2.96,0 -5.76,1.04 -2.72,1.04 -4.96,3.12 -0.88,-3.28 -1.6,-5.04 -0.72,-1.84 -1.68,-3.52 0.8,-0.4 2.08,-1.04 1.36,-0.72 3.28,-1.28 1.92,-0.64 4.4,-1.04 2.56,-0.48 5.84,-0.48 3.6,0 6.64,0.8 3.04,0.8 4.88,2.48 1.2,1.12 1.84,2.32 0.64,1.2 0.96,3.04 0.32,1.76 0.32,4.4 0.08,2.56 0.08,6.48 z m -13.84,-16.08 q -2.96,0 -4.96,1.52 -2,1.52 -2,5.36 0,2.56 0.96,4.48 1.04,1.84 3.36,1.84 0.24,0 0.8,-0.08 0.64,-0.08 1.28,-0.48 0.72,-0.4 1.36,-1.12 0.72,-0.72 1.12,-2.08 0.24,-0.64 0.32,-1.36 0.16,-0.8 0.24,-1.84 0.08,-1.12 0.16,-2.56 0.08,-1.44 0.08,-3.52 z"
         id="path28531" />
      <path
         d="m 208.77796,310.93655 q 0.4,-0.96 1.12,-2.32 0.8,-1.36 2.16,-2.56 1.36,-1.28 3.52,-2.16 2.24,-0.96 5.6,-0.96 4,0 6.16,1.36 2.24,1.28 3.28,3.2 1.04,1.92 1.2,4.08 0.24,2.16 0.24,3.84 v 23.92 q 0,1.84 0.08,3.04 0.16,1.2 0.32,2 0.16,0.72 0.32,1.28 0.24,0.48 0.48,1.04 -0.8,-0.08 -1.52,-0.16 -0.72,-0.08 -1.6,-0.08 -0.8,-0.08 -1.92,-0.08 -1.04,-0.08 -2.48,-0.08 -2.08,0 -3.44,0.08 -1.28,0.08 -2.8,0.32 0.16,-0.56 0.32,-1.2 0.24,-0.64 0.32,-2 0.16,-1.36 0.24,-3.68 0.08,-2.4 0.08,-6.48 v -12.72 q 0,-1.92 -0.08,-3.6 -0.08,-1.68 -0.64,-2.88 -0.48,-1.2 -1.6,-1.92 -1.04,-0.72 -2.96,-0.72 -1.84,0 -3.04,0.64 -1.12,0.64 -1.76,1.52 -0.56,0.8 -0.8,1.68 -0.24,0.8 -0.32,1.2 -0.16,0.96 -0.24,2.88 -0.08,1.84 -0.16,4.32 0,2.4 0,5.12 0,2.72 0,5.36 0,3.76 0,6 0.08,2.16 0.16,3.44 0.16,1.28 0.32,1.92 0.24,0.56 0.48,1.12 -1.44,-0.16 -2.96,-0.24 -1.52,-0.16 -3.92,-0.16 -1.6,0 -3.12,0.08 -1.52,0.08 -3.6,0.32 0.4,-0.8 0.64,-1.84 0.24,-1.12 0.4,-2.16 0.08,-0.56 0.16,-2.08 0.08,-1.52 0.08,-3.52 0.08,-2.08 0.08,-4.56 0,-2.56 0,-5.2 0,-2.64 0,-4.8 0,-2.24 -0.08,-4.16 0,-1.92 -0.08,-3.76 -0.08,-1.84 -0.24,-3.84 -0.16,-2.8 -0.96,-4.08 -0.72,-1.28 -1.44,-1.68 2.96,-0.16 5.04,-0.32 2.08,-0.24 3.6,-0.56 1.6,-0.32 2.8,-0.72 1.28,-0.48 2.56,-1.04 z"
         id="path28533" />
      <path
         d="m 273.89554,323.41655 q 0,2.16 0,4 0,1.76 0,3.52 0.08,1.76 0.08,3.68 0.08,1.84 0.16,4.08 0.08,1.92 0.16,3.2 0.16,1.28 0.32,2.16 0.24,0.88 0.48,1.52 0.24,0.56 0.48,1.12 -1.6,-0.16 -3.68,-0.24 -2,-0.16 -4.08,-0.16 -1.6,0 -3.04,0.08 -1.44,0.08 -3.28,0.32 0.24,-0.8 0.4,-1.52 0.24,-0.72 0.4,-1.76 0.16,-1.12 0.24,-2.8 0.08,-1.68 0.16,-4.48 l 0.16,-11.2 v -12 q 0,-5.28 -0.08,-8.48 -0.08,-3.2 -0.24,-3.84 -2.56,0.88 -4.88,1.84 -2.32,0.96 -4.48,2.32 l 0.16,-2.64 q 0,-1.68 -0.16,-2.8 -0.08,-1.2 -0.24,-2.08 1.36,-0.32 3.92,-0.96 2.56,-0.64 5.6,-1.6 3.12,-1.04 6.24,-2.4 3.2,-1.36 5.76,-3.04 -0.16,1.92 -0.32,3.44 -0.08,1.44 -0.16,3.68 0,2.24 -0.08,6 0,3.76 0,10.24 z"
         id="path28535" />
      <path
         d="m 295.23457,289.45655 q 2.32,0 4.32,0.24 2.08,0.24 3.92,0.88 0.88,0.32 2.24,1.12 1.44,0.72 2.8,2.24 1.36,1.44 2.32,3.68 1.04,2.24 1.04,5.6 0,2 -0.56,4.08 -0.48,2.08 -1.68,3.92 -1.2,1.76 -3.12,3.12 -1.92,1.36 -4.64,1.92 l -1.76,0.32 1.84,0.24 q 6.24,1.04 9.2,4.32 3.04,3.28 3.04,8.8 0,4.24 -1.6,7.36 -1.52,3.04 -3.6,4.88 -2.32,2.08 -6.16,3.2 -3.76,1.12 -8.64,1.12 -0.48,0 -1.76,-0.08 -1.28,0 -3.04,-0.16 -1.76,-0.16 -3.76,-0.48 -1.92,-0.32 -3.84,-0.96 0.32,-1.04 0.56,-2 0.32,-0.96 0.48,-2 0.24,-1.12 0.32,-2.4 0.16,-1.28 0.32,-3.04 2,1.6 4.4,2.24 2.48,0.64 5.04,0.64 2.48,0 4.24,-0.72 1.76,-0.72 2.88,-1.84 1.12,-1.2 1.6,-2.64 0.48,-1.52 0.48,-3.04 0,-2.64 -1.04,-4.24 -1.04,-1.68 -2.72,-2.64 -1.6,-0.96 -3.68,-1.28 -2.08,-0.32 -4.24,-0.32 -2.08,0 -3.04,0.16 -0.96,0.08 -2.08,0.24 0.08,-1.04 0.08,-2 0.08,-0.96 0.08,-2 -0.08,-1.12 -0.08,-2.08 0,-1.04 -0.08,-2.16 0.64,0.08 1.28,0.16 0.64,0 1.68,0 1.04,0 3.04,-0.08 2,-0.16 4,-0.96 2,-0.8 3.44,-2.48 1.52,-1.68 1.52,-4.8 0,-3.2 -2.16,-5.36 -2.08,-2.24 -6.56,-2.24 -3.44,0 -5.2,0.8 -1.76,0.8 -2.72,1.44 0.48,-3.68 0.56,-5.68 0.08,-2 0,-3.76 2.16,-0.48 4.64,-0.88 2.56,-0.4 6.4,-0.4 z"
         id="path28537" />
    </g>
  </g>
</svg>
