<?xml version="1.0" encoding="UTF-8" standalone="no"?>
<!-- Created with Inkscape (http://www.inkscape.org/) -->

<svg
   width="1920"
   height="1200"
   viewBox="0 0 1920 1200"
   version="1.1"
   id="svg5"
   inkscape:version="1.2.2 (b0a8486541, 2022-12-01)"
   sodipodi:docname="login_detailed_1920x1200.svg"
   xmlns:inkscape="http://www.inkscape.org/namespaces/inkscape"
   xmlns:sodipodi="http://sodipodi.sourceforge.net/DTD/sodipodi-0.dtd"
   xmlns:xlink="http://www.w3.org/1999/xlink"
   xmlns="http://www.w3.org/2000/svg"
   xmlns:svg="http://www.w3.org/2000/svg"
   xmlns:i="http://ns.adobe.com/AdobeIllustrator/10.0/">
  <sodipodi:namedview
     id="namedview7"
     pagecolor="#505050"
     bordercolor="#eeeeee"
     borderopacity="1"
     inkscape:showpageshadow="0"
     inkscape:pageopacity="0"
     inkscape:pagecheckerboard="0"
     inkscape:deskcolor="#505050"
     inkscape:document-units="px"
     showgrid="false"
     inkscape:zoom="0.50107815"
     inkscape:cx="869.12591"
     inkscape:cy="665.56485"
     inkscape:window-width="1920"
     inkscape:window-height="997"
     inkscape:window-x="0"
     inkscape:window-y="0"
     inkscape:window-maximized="1"
     inkscape:current-layer="svg5" />
  <defs
     id="defs2">
    <linearGradient
       inkscape:collect="always"
       id="linearGradient4236">
      <stop
         style="stop-color:#5285a3;stop-opacity:0.17;"
         offset="0"
         id="stop4232" />
      <stop
         style="stop-color:#5285a3;stop-opacity:0;"
         offset="1"
         id="stop4234" />
    </linearGradient>
    <linearGradient
       inkscape:collect="always"
       id="linearGradient4230">
      <stop
         style="stop-color:#5285a3;stop-opacity:0.17;"
         offset="0"
         id="stop4226" />
      <stop
         style="stop-color:#5285a3;stop-opacity:0;"
         offset="1"
         id="stop4228" />
    </linearGradient>
    <linearGradient
       inkscape:collect="always"
       id="linearGradient3916">
      <stop
         style="stop-color:#5d809c;stop-opacity:0.11;"
         offset="0"
         id="stop3912" />
      <stop
         style="stop-color:#5d809c;stop-opacity:0;"
         offset="1"
         id="stop3914" />
    </linearGradient>
    <linearGradient
       inkscape:collect="always"
       id="linearGradient3873">
      <stop
         style="stop-color:#5d809c;stop-opacity:0.1;"
         offset="0"
         id="stop3869" />
      <stop
         style="stop-color:#5d809c;stop-opacity:0;"
         offset="1"
         id="stop3871" />
    </linearGradient>
    <rect
       x="819.70214"
       y="858.31913"
       width="74.920743"
       height="51.055131"
       id="rect3195" />
    <linearGradient
       inkscape:collect="always"
       id="linearGradient2638">
      <stop
         style="stop-color:#5d809c;stop-opacity:0.10547603;"
         offset="0"
         id="stop2634" />
      <stop
         style="stop-color:#5d809c;stop-opacity:0;"
         offset="1"
         id="stop2636" />
    </linearGradient>
    <linearGradient
       inkscape:collect="always"
       id="linearGradient1125">
      <stop
         style="stop-color:#5d809c;stop-opacity:0.11;"
         offset="0"
         id="stop1121" />
      <stop
         style="stop-color:#5d809c;stop-opacity:0;"
         offset="1"
         id="stop1123" />
    </linearGradient>
    <linearGradient
       inkscape:collect="always"
       id="linearGradient10183">
      <stop
         style="stop-color:#26536e;stop-opacity:1;"
         offset="0"
         id="stop10179" />
      <stop
         style="stop-color:#26536e;stop-opacity:0;"
         offset="1"
         id="stop10181" />
    </linearGradient>
    <linearGradient
       inkscape:collect="always"
       id="linearGradient10165">
      <stop
         style="stop-color:#26536e;stop-opacity:1;"
         offset="0"
         id="stop10161" />
      <stop
         style="stop-color:#26536e;stop-opacity:0;"
         offset="1"
         id="stop10163" />
    </linearGradient>
    <linearGradient
       inkscape:collect="always"
       id="linearGradient8832">
      <stop
         style="stop-color:#264d64;stop-opacity:1;"
         offset="0"
         id="stop8828" />
      <stop
         style="stop-color:#264d64;stop-opacity:0;"
         offset="1"
         id="stop8830" />
    </linearGradient>
    <linearGradient
       inkscape:collect="always"
       id="linearGradient8818">
      <stop
         style="stop-color:#264d64;stop-opacity:1;"
         offset="0"
         id="stop8814" />
      <stop
         style="stop-color:#264d64;stop-opacity:0;"
         offset="1"
         id="stop8816" />
    </linearGradient>
    <linearGradient
       inkscape:collect="always"
       id="linearGradient8808">
      <stop
         style="stop-color:#264d64;stop-opacity:1;"
         offset="0"
         id="stop8804" />
      <stop
         style="stop-color:#264d64;stop-opacity:0;"
         offset="1"
         id="stop8806" />
    </linearGradient>
    <linearGradient
       inkscape:collect="always"
       id="linearGradient8641">
      <stop
         style="stop-color:#26475b;stop-opacity:1;"
         offset="0"
         id="stop8637" />
      <stop
         style="stop-color:#26475b;stop-opacity:0;"
         offset="1"
         id="stop8639" />
    </linearGradient>
    <inkscape:path-effect
       effect="spiro"
       id="path-effect51187"
       is_visible="true"
       lpeversion="1" />
    <inkscape:path-effect
       effect="spiro"
       id="path-effect51183"
       is_visible="true"
       lpeversion="1" />
    <inkscape:path-effect
       effect="spiro"
       id="path-effect51179"
       is_visible="true"
       lpeversion="1" />
    <inkscape:path-effect
       effect="spiro"
       id="path-effect51175"
       is_visible="true"
       lpeversion="1" />
    <inkscape:path-effect
       effect="spiro"
       id="path-effect51117"
       is_visible="true"
       lpeversion="1" />
    <inkscape:path-effect
       effect="spiro"
       id="path-effect14198"
       is_visible="true"
       lpeversion="1" />
    <inkscape:path-effect
       effect="spiro"
       id="path-effect14114"
       is_visible="true"
       lpeversion="1" />
    <inkscape:path-effect
       effect="spiro"
       id="path-effect13849"
       is_visible="true"
       lpeversion="1" />
    <inkscape:path-effect
       effect="spiro"
       id="path-effect11092"
       is_visible="true"
       lpeversion="1" />
    <linearGradient
       inkscape:collect="always"
       xlink:href="#linearGradient8641"
       id="linearGradient8720"
       gradientUnits="userSpaceOnUse"
       x1="729.28552"
       y1="561.49274"
       x2="632.02612"
       y2="666.7016" />
    <linearGradient
       inkscape:collect="always"
       xlink:href="#linearGradient8641"
       id="linearGradient8799"
       gradientUnits="userSpaceOnUse"
       x1="213.66042"
       y1="481.37656"
       x2="213.90868"
       y2="565.7276" />
    <linearGradient
       inkscape:collect="always"
       xlink:href="#linearGradient8808"
       id="linearGradient8810"
       x1="1846.6802"
       y1="615.53925"
       x2="1876.3848"
       y2="737.61523"
       gradientUnits="userSpaceOnUse" />
    <linearGradient
       inkscape:collect="always"
       xlink:href="#linearGradient8818"
       id="linearGradient8822"
       x1="1673.6768"
       y1="991.81696"
       x2="1606.2129"
       y2="1163.4316"
       gradientUnits="userSpaceOnUse" />
    <linearGradient
       inkscape:collect="always"
       xlink:href="#linearGradient8832"
       id="linearGradient8826"
       gradientUnits="userSpaceOnUse"
       x1="1500.4482"
       y1="731.70203"
       x2="1565.4927"
       y2="836.93341" />
    <linearGradient
       inkscape:collect="always"
       xlink:href="#linearGradient10165"
       id="linearGradient10167"
       x1="1032.4443"
       y1="932.32019"
       x2="1109.316"
       y2="1050.578"
       gradientUnits="userSpaceOnUse" />
    <linearGradient
       inkscape:collect="always"
       xlink:href="#linearGradient10165"
       id="linearGradient10171"
       gradientUnits="userSpaceOnUse"
       x1="1141.7908"
       y1="1127.1176"
       x2="960"
       y2="1200" />
    <linearGradient
       inkscape:collect="always"
       xlink:href="#linearGradient10183"
       id="linearGradient10185"
       x1="67.753685"
       y1="894.8949"
       x2="70.169518"
       y2="1021.97"
       gradientUnits="userSpaceOnUse" />
    <linearGradient
       inkscape:collect="always"
       xlink:href="#linearGradient10183"
       id="linearGradient12007"
       gradientUnits="userSpaceOnUse"
       x1="242.05421"
       y1="844.31311"
       x2="226.59605"
       y2="963.09686" />
    <radialGradient
       inkscape:collect="always"
       xlink:href="#linearGradient1125"
       id="radialGradient1127"
       cx="979.37646"
       cy="1036.7908"
       fx="979.37646"
       fy="1036.7908"
       r="88.351067"
       gradientTransform="matrix(1,0,0,1.003534,-19.376706,-53.281113)"
       gradientUnits="userSpaceOnUse" />
    <radialGradient
       inkscape:collect="always"
       xlink:href="#linearGradient2638"
       id="radialGradient2632"
       gradientUnits="userSpaceOnUse"
       gradientTransform="matrix(0.96975842,0,0,0.86680992,10.241332,149.76305)"
       cx="979.37646"
       cy="1036.7908"
       fx="979.37646"
       fy="1036.7908"
       r="88.351067" />
    <radialGradient
       inkscape:collect="always"
       xlink:href="#linearGradient3873"
       id="radialGradient3875"
       cx="898.91401"
       cy="1050.1753"
       fx="898.91401"
       fy="1050.1753"
       r="60.586389"
       gradientTransform="matrix(0.84555136,0,0,0.91267429,94.212755,77.479)"
       gradientUnits="userSpaceOnUse" />
    <radialGradient
       inkscape:collect="always"
       xlink:href="#linearGradient3916"
       id="radialGradient3875-3"
       cx="898.914"
       cy="1050.1753"
       fx="898.914"
       fy="1050.1753"
       r="60.586388"
       gradientTransform="matrix(1.5051586,0,0,0.65815934,-375.61389,341.65927)"
       gradientUnits="userSpaceOnUse" />
    <radialGradient
       inkscape:collect="always"
       xlink:href="#linearGradient4236"
       id="radialGradient3928"
       gradientUnits="userSpaceOnUse"
       gradientTransform="matrix(1.6142731,0,0,1.2700635,-589.53256,-301.23413)"
       cx="898.91401"
       cy="1050.1753"
       fx="898.91401"
       fy="1050.1753"
       r="60.586389" />
    <radialGradient
       inkscape:collect="always"
       xlink:href="#linearGradient4230"
       id="radialGradient3930"
       gradientUnits="userSpaceOnUse"
       gradientTransform="matrix(2.0353706,0,0,1.1053874,-850.11917,-126.24124)"
       cx="898.914"
       cy="1050.1753"
       fx="898.914"
       fy="1050.1753"
       r="60.586388" />
    <filter
       inkscape:collect="always"
       style="color-interpolation-filters:sRGB"
       id="filter2476"
       x="-0.0028253368"
       y="-0.0050755213"
       width="1.0056507"
       height="1.010151">
      <feGaussianBlur
         inkscape:collect="always"
         stdDeviation="2.2602695"
         id="feGaussianBlur2478" />
    </filter>
    <filter
       inkscape:collect="always"
       style="color-interpolation-filters:sRGB"
       id="filter2483"
       x="-0.00075832023"
       y="-0.0018756529"
       width="1.0015166"
       height="1.0037513">
      <feGaussianBlur
         inkscape:collect="always"
         stdDeviation="0.52882622"
         id="feGaussianBlur2485" />
    </filter>
    <filter
       inkscape:collect="always"
       style="color-interpolation-filters:sRGB"
       id="filter2490"
       x="-0.0014530647"
       y="-0.0028291255"
       width="1.0029061"
       height="1.0056583">
      <feGaussianBlur
         inkscape:collect="always"
         stdDeviation="1.0968385"
         id="feGaussianBlur2492" />
    </filter>
  </defs>
  <g
     inkscape:groupmode="layer"
     id="layer2"
     inkscape:label="background"
     sodipodi:insensitive="true">
    <path
       id="rect2585"
       style="display:inline;fill:#25343c;fill-rule:evenodd;fill-opacity:1"
       d="M 0,0 H 1920 V 1200 H 0 Z" />
  </g>
  <g
     inkscape:groupmode="layer"
     id="layer5"
     inkscape:label="segments2"
     style="display:inline"
     sodipodi:insensitive="true">
    <g
       inkscape:groupmode="layer"
       id="layer9"
       inkscape:label="wave4"
       sodipodi:insensitive="true"
       style="display:inline">
      <path
         style="display:inline;fill:#26475b;fill-opacity:1;stroke-width:7.281;filter:url(#filter2476)"
         d="m 0,172.88425 c 63.3298,-1.6183 126.5453,-9.3158 189.0242,-19.7881 65.6283,-11.0002 131.6927,-26.914 197.9112,-20.3422 54.1049,5.3696 105.5768,25.5546 155.1759,47.828 45.9995,20.65691 91.457,43.41804 140.2422,56.17189 55.8202,14.59299 114.1526,15.6108 171.8301,17.08076 72.5906,1.85004 147.3714,5.05231 213.3594,35.35742 43.0336,19.76326 80.1903,50.14535 116.2636,80.82422 35.785,30.43367 71.6902,61.92548 114.4276,81.42649 48.7122,22.22729 103.1427,27.47417 156.2658,34.17244 52.4629,6.61503 105.7857,15.26954 152.7109,39.64453 57.9155,30.08385 101.2224,81.42367 149.6016,125.22656 48.8411,44.22107 103.9605,81.46161 163.1875,110.32541 V 1200 H 0 Z"
         id="path2473"
         sodipodi:nodetypes="cssssssssssscccc"
         inkscape:label="blur4" />
      <path
         style="display:inline;fill:#26475b;fill-opacity:1;stroke-width:7.281"
         d="m 0,172.88425 c 63.3298,-1.6183 126.5453,-9.3158 189.0242,-19.7881 65.6283,-11.0002 131.6927,-26.914 197.9112,-20.3422 54.1049,5.3696 105.5768,25.5546 155.1759,47.828 45.9995,20.65691 91.457,43.41804 140.2422,56.17189 55.8202,14.59299 114.1526,15.6108 171.8301,17.08076 72.5906,1.85004 147.3714,5.05231 213.3594,35.35742 43.0336,19.76326 80.1903,50.14535 116.2636,80.82422 35.785,30.43367 71.6902,61.92548 114.4276,81.42649 48.7122,22.22729 103.1427,27.47417 156.2658,34.17244 52.4629,6.61503 105.7857,15.26954 152.7109,39.64453 57.9155,30.08385 101.2224,81.42367 149.6016,125.22656 48.8411,44.22107 103.9605,81.46161 163.1875,110.32541 V 1200 H 0 Z"
         id="path1211-7"
         sodipodi:nodetypes="cssssssssssscccc"
         inkscape:label="curve4" />
      <path
         id="path8645"
         style="display:inline;fill:#254151;fill-opacity:1;stroke-width:7.281"
         inkscape:label="seg4"
         d="M 362.11133,131.28906 C 304.20782,130.08287 246.44808,143.47055 189.02344,153.0957 126.54466,163.56798 63.329674,171.26647 0,172.88477 v 350.45312 c 44.52658,19.54789 112.61434,33.67742 169.11719,39.7793 50.78756,5.48466 102.03279,1.19871 153.08008,-0.70703 51.04807,-1.90579 103.13412,-1.0945 151.74218,14.61523 45.30151,14.64109 85.47761,41.52647 125.01563,68.04688 22.93738,15.3854 46.24939,30.56557 70.52148,43.67968 24.59985,-29.21424 51.15668,-56.70905 82.24219,-78.71289 73.16531,-51.78996 164.50306,-69.39599 253.00975,-83.60547 85.8106,-13.77659 172.8433,-25.80861 253.6973,-57.68164 13.4546,-5.30389 26.6524,-11.15561 39.6777,-17.37304 -42.6788,-19.50559 -78.549,-50.96126 -114.2969,-81.36329 -36.0731,-30.67879 -73.2302,-61.06099 -116.2636,-80.82421 C 1001.555,258.88636 926.77405,255.68402 854.18359,253.83398 796.50621,252.36404 738.1736,251.34686 682.35352,236.75391 633.5684,224.00008 588.11073,201.2389 542.11133,180.58203 c -49.599,-22.27336 -101.071,-42.45854 -155.17578,-47.82812 -8.2773,-0.82148 -16.55229,-1.29253 -24.82422,-1.46485 z" />
      <path
         id="path8718"
         style="display:inline;fill:url(#linearGradient8720);fill-opacity:1;stroke-width:7.281"
         inkscape:label="seg4a"
         d="M 362.11133,131.28906 C 304.20782,130.08287 246.44808,143.47055 189.02344,153.0957 126.54466,163.56798 63.329674,171.26647 0,172.88477 v 350.45312 c 44.52658,19.54789 112.61434,33.67742 169.11719,39.7793 50.78756,5.48466 102.03279,1.19871 153.08008,-0.70703 51.04807,-1.90579 103.13412,-1.0945 151.74218,14.61523 45.30151,14.64109 85.47761,41.52647 125.01563,68.04688 22.93738,15.3854 46.24939,30.56557 70.52148,43.67968 24.59985,-29.21424 51.15668,-56.70905 82.24219,-78.71289 73.16531,-51.78996 164.50306,-69.39599 253.00975,-83.60547 85.8106,-13.77659 172.8433,-25.80861 253.6973,-57.68164 13.4546,-5.30389 26.6524,-11.15561 39.6777,-17.37304 -42.6788,-19.50559 -78.549,-50.96126 -114.2969,-81.36329 -36.0731,-30.67879 -73.2302,-61.06099 -116.2636,-80.82421 C 1001.555,258.88636 926.77405,255.68402 854.18359,253.83398 796.50621,252.36404 738.1736,251.34686 682.35352,236.75391 633.5684,224.00008 588.11073,201.2389 542.11133,180.58203 c -49.599,-22.27336 -101.071,-42.45854 -155.17578,-47.82812 -8.2773,-0.82148 -16.55229,-1.29253 -24.82422,-1.46485 z" />
      <path
         id="path8797"
         style="display:inline;fill:url(#linearGradient8799);fill-opacity:1;stroke-width:7.281"
         inkscape:label="seg4b"
         d="M 362.11133,131.28906 C 304.20782,130.08287 246.44808,143.47055 189.02344,153.0957 126.54466,163.56798 63.329674,171.26647 0,172.88477 v 350.45312 c 44.52658,19.54789 112.61434,33.67742 169.11719,39.7793 50.78756,5.48466 102.03279,1.19871 153.08008,-0.70703 51.04807,-1.90579 103.13412,-1.0945 151.74218,14.61523 45.30151,14.64109 85.47761,41.52647 125.01563,68.04688 22.93738,15.3854 46.24939,30.56557 70.52148,43.67968 24.59985,-29.21424 51.15668,-56.70905 82.24219,-78.71289 73.16531,-51.78996 164.50306,-69.39599 253.00975,-83.60547 85.8106,-13.77659 172.8433,-25.80861 253.6973,-57.68164 13.4546,-5.30389 26.6524,-11.15561 39.6777,-17.37304 -42.6788,-19.50559 -78.549,-50.96126 -114.2969,-81.36329 -36.0731,-30.67879 -73.2302,-61.06099 -116.2636,-80.82421 C 1001.555,258.88636 926.77405,255.68402 854.18359,253.83398 796.50621,252.36404 738.1736,251.34686 682.35352,236.75391 633.5684,224.00008 588.11073,201.2389 542.11133,180.58203 c -49.599,-22.27336 -101.071,-42.45854 -155.17578,-47.82812 -8.2773,-0.82148 -16.55229,-1.29253 -24.82422,-1.46485 z" />
    </g>
    <g
       inkscape:groupmode="layer"
       id="layer8"
       inkscape:label="wave3"
       sodipodi:insensitive="true"
       style="display:inline">
      <path
         id="path9425-6"
         style="display:inline;fill:#264d64;fill-opacity:1;stroke-width:7.34984;filter:url(#filter2490)"
         d="m 1571.8516,304.53905 c -110.0312,42.8661 -203.5673,120.90617 -313.4258,164.21289 -80.8541,31.87306 -167.8866,43.90503 -253.6973,57.68164 -88.50679,14.20949 -179.84431,31.81546 -253.00969,83.60547 C 708.57355,640.57936 673.9908,681.5457 641.54303,723.27538 609.09526,765.00506 578.0771,808.19481 540.14068,845.00585 469.41331,913.63515 378.34329,956.704 298.00592,1013.7852 225.70362,1065.1571 160.62343,1128.3309 108.37225,1200 711.8475,1200 1316.5247,1200 1920,1200 V 290.41235 c -42.0267,-12.21429 -88.2815,-20.29352 -156.1152,-20.86191 -67.8337,-0.56839 -132.0527,11.62131 -192.0332,34.98861 z"
         sodipodi:nodetypes="ssssssscccss"
         inkscape:label="blur3" />
      <path
         id="path2487"
         style="display:inline;fill:#264d64;fill-opacity:1;stroke-width:7.34984"
         d="m 1571.8516,304.53905 c -110.0312,42.8661 -203.5673,120.90617 -313.4258,164.21289 -80.8541,31.87306 -167.8866,43.90503 -253.6973,57.68164 -88.50679,14.20949 -179.84431,31.81546 -253.00969,83.60547 C 708.57355,640.57936 673.9908,681.5457 641.54303,723.27538 609.09526,765.00506 578.0771,808.19481 540.14068,845.00585 469.41331,913.63515 378.34329,956.704 298.00592,1013.7852 225.70362,1065.1571 160.62343,1128.3309 108.37225,1200 711.8475,1200 1316.5247,1200 1920,1200 V 290.41235 c -42.0267,-12.21429 -88.2815,-20.29352 -156.1152,-20.86191 -67.8337,-0.56839 -132.0527,11.62131 -192.0332,34.98861 z"
         sodipodi:nodetypes="ssssssscccss"
         inkscape:label="curve3" />
      <g
         id="g9181"
         inkscape:label="seg5"
         style="display:inline">
        <path
           id="path6642"
           style="display:inline;fill:#254151;fill-opacity:1;stroke-width:7.34984"
           inkscape:label="seg5"
           d="m 1298.1211,451.38672 c 0.038,0.0176 0.075,0.0391 0.1133,0.0566 6.089,2.77841 12.2675,5.29242 18.5215,7.57617 6.2539,2.28376 12.5831,4.33811 18.9746,6.19922 12.783,3.72221 25.8139,6.67113 38.9824,9.13477 13.1685,2.46363 26.4742,4.44157 39.8086,6.22265 13.3344,1.78109 26.6978,3.3645 39.9785,5.03906 13.1157,1.65376 26.2847,3.43419 39.3945,5.55665 13.1098,2.12245 26.16,4.58677 39.0371,7.60546 6.4386,1.50935 12.8341,3.15714 19.1719,4.97071 6.3379,1.81356 12.6193,3.79362 18.8281,5.96484 6.2088,2.17123 12.3451,4.53486 18.3965,7.11719 6.0514,2.58232 12.0172,5.38282 17.8828,8.42969 7.2395,3.76047 14.251,7.85221 21.0723,12.2207 6.8214,4.36849 13.4534,9.01292 19.9336,13.87695 6.4801,4.86403 12.8076,9.94821 19.0234,15.19531 6.2159,5.2471 12.3193,10.65809 18.3477,16.17579 12.0568,11.03539 23.8157,22.49846 35.584,33.9414 11.7682,11.44294 23.5458,22.86571 35.6406,33.81641 12.2103,11.05524 24.8123,21.67499 37.7734,31.83594 12.9612,10.16094 26.2816,19.86297 39.9258,29.08593 13.6442,9.22297 27.6137,17.96574 41.8731,26.20703 14.2593,8.2413 28.8085,15.98133 43.6152,23.19727 V 290.41211 c -42.0267,-12.21427 -88.2817,-20.29294 -156.1152,-20.86133 -67.8337,-0.56839 -132.0529,11.62104 -192.0332,34.98828 -96.5513,37.61458 -180.4078,102.29942 -273.7305,146.84766 z" />
        <path
           id="path8801"
           style="display:inline;fill:url(#linearGradient8810);fill-opacity:1;stroke-width:7.34984"
           inkscape:label="seg5a"
           d="m 1298.1211,451.38672 c 0.038,0.0176 0.075,0.0391 0.1133,0.0566 6.089,2.77841 12.2675,5.29242 18.5215,7.57617 6.2539,2.28376 12.5831,4.33811 18.9746,6.19922 12.783,3.72221 25.8139,6.67113 38.9824,9.13477 13.1685,2.46363 26.4742,4.44157 39.8086,6.22265 13.3344,1.78109 26.6978,3.3645 39.9785,5.03906 13.1157,1.65376 26.2847,3.43419 39.3945,5.55665 13.1098,2.12245 26.16,4.58677 39.0371,7.60546 6.4386,1.50935 12.8341,3.15714 19.1719,4.97071 6.3379,1.81356 12.6193,3.79362 18.8281,5.96484 6.2088,2.17123 12.3451,4.53486 18.3965,7.11719 6.0514,2.58232 12.0172,5.38282 17.8828,8.42969 7.2395,3.76047 14.251,7.85221 21.0723,12.2207 6.8214,4.36849 13.4534,9.01292 19.9336,13.87695 6.4801,4.86403 12.8076,9.94821 19.0234,15.19531 6.2159,5.2471 12.3193,10.65809 18.3477,16.17579 12.0568,11.03539 23.8157,22.49846 35.584,33.9414 11.7682,11.44294 23.5458,22.86571 35.6406,33.81641 12.2103,11.05524 24.8123,21.67499 37.7734,31.83594 12.9612,10.16094 26.2816,19.86297 39.9258,29.08593 13.6442,9.22297 27.6137,17.96574 41.8731,26.20703 14.2593,8.2413 28.8085,15.98133 43.6152,23.19727 V 290.41211 c -42.0267,-12.21427 -88.2817,-20.29294 -156.1152,-20.86133 -67.8337,-0.56839 -132.0529,11.62104 -192.0332,34.98828 -96.5513,37.61458 -180.4078,102.29942 -273.7305,146.84766 z" />
      </g>
      <g
         id="g9186"
         inkscape:label="seg3"
         style="display:inline">
        <path
           id="path6640"
           style="display:inline;fill:#26475b;fill-opacity:1;stroke-width:7.34984"
           inkscape:label="seg3"
           d="m 669.47656,688.75195 c 7.10701,3.83989 14.16927,7.78088 21.48633,11.15235 5.38443,2.48095 10.83108,4.8173 16.34961,6.98632 5.51853,2.16904 11.10939,4.17081 16.7793,5.97852 10.66186,3.39928 21.49898,6.07668 32.45508,8.17383 0.0209,0.004 0.0415,0.01 0.0625,0.0137 0.0272,0.005 0.0548,0.008 0.082,0.0137 10.95114,2.09088 22.02162,3.60232 33.1582,4.66602 11.16421,1.06633 22.39481,1.68418 33.63672,1.99219 11.24191,0.308 22.49427,0.30689 33.70508,0.13086 22.42161,-0.35208 44.85921,-1.37078 67.2832,-1.90235 11.21199,-0.26578 22.42144,-0.41016 33.62305,-0.28906 11.2016,0.1211 22.39618,0.50887 33.58007,1.30469 11.6083,0.826 23.1808,2.10389 34.6875,3.82422 11.5068,1.72031 22.9481,3.88195 34.291,6.47265 11.3431,2.5907 22.5879,5.61169 33.7051,9.04883 11.1172,3.43714 22.1064,7.29115 32.9356,11.55078 10.8291,4.25964 21.4996,8.92424 31.9785,13.98242 10.4789,5.0582 20.7675,10.509 30.834,16.3418 10.0665,5.8328 19.9101,12.04737 29.5019,18.63086 9.5919,6.58348 18.9313,13.53742 27.9864,20.84766 8.5328,6.88866 16.7945,14.0608 24.8359,21.46289 8.0414,7.40207 15.8624,15.03288 23.5176,22.83984 3e-4,3.4e-4 -4e-4,0.002 0,0.002 7.6547,7.80664 15.1438,15.78765 22.5176,23.89063 7.3739,8.10332 14.6339,16.32797 21.832,24.61914 14.3962,16.58233 28.5455,33.43267 42.8691,50.11523 14.3236,16.68258 28.8216,33.19863 43.9141,49.11323 8.8001,9.2796 17.8151,18.3578 27.0332,27.2286 9.2181,8.8707 18.6388,17.5338 28.2519,25.9804 9.6133,8.4466 19.4186,16.6764 29.4043,24.6836 9.9857,8.0073 20.153,15.7912 30.4883,23.3438 10.3354,7.5526 20.8397,14.8743 31.502,21.957 10.6623,7.0827 21.4827,13.9259 32.4492,20.5234 6.9786,4.1985 14.1131,8.124 21.207,12.1211 4.0538,2.2842 8.0289,4.7086 12.1192,6.9258 11.2478,6.0971 22.6321,11.9401 34.1386,17.5215 H 1920 V 760.8125 c -14.8067,-7.21594 -29.3559,-14.95597 -43.6152,-23.19727 -14.2594,-8.24129 -28.2289,-16.98406 -41.8731,-26.20703 -13.6442,-9.22296 -26.9646,-18.92499 -39.9258,-29.08593 -12.9611,-10.16095 -25.5631,-20.7807 -37.7734,-31.83594 -12.0948,-10.9507 -23.8724,-22.37347 -35.6406,-33.81641 -11.7683,-11.44294 -23.5272,-22.90601 -35.584,-33.9414 -6.0284,-5.5177 -12.1318,-10.92869 -18.3477,-16.17579 -6.2158,-5.2471 -12.5433,-10.33128 -19.0234,-15.19531 -6.4802,-4.86403 -13.1122,-9.50846 -19.9336,-13.87695 -6.8213,-4.36849 -13.8328,-8.46023 -21.0723,-12.2207 -5.8656,-3.04687 -11.8314,-5.84737 -17.8828,-8.42969 -6.0514,-2.58233 -12.1877,-4.94596 -18.3965,-7.11719 -6.2088,-2.17122 -12.4902,-4.15128 -18.8281,-5.96484 -6.3378,-1.81357 -12.7333,-3.46136 -19.1719,-4.97071 -12.8771,-3.01869 -25.9273,-5.48301 -39.0371,-7.60546 -13.1098,-2.12246 -26.2788,-3.90289 -39.3945,-5.55665 -13.2807,-1.67456 -26.6441,-3.25797 -39.9785,-5.03906 -13.3344,-1.78108 -26.6401,-3.75902 -39.8086,-6.22265 -13.1685,-2.46364 -26.1994,-5.41256 -38.9824,-9.13477 -6.3915,-1.86111 -12.7207,-3.91546 -18.9746,-6.19922 -6.254,-2.28375 -12.4325,-4.79776 -18.5215,-7.57617 -0.039,-0.0176 -0.075,-0.039 -0.1133,-0.0566 -13.029,6.21946 -26.2368,12.05981 -39.6953,17.36523 -80.8539,31.873 -167.8868,43.90507 -253.6973,57.68164 -88.5066,14.20947 -179.84459,31.81556 -253.00975,83.60547 -31.08551,22.00382 -57.64236,49.49868 -82.24219,78.71289 z" />
        <path
           id="path8812"
           style="display:inline;fill:url(#linearGradient8822);fill-opacity:1;stroke-width:7.34984"
           inkscape:label="seg3a"
           d="m 669.47656,688.75195 c 7.10701,3.83989 14.16927,7.78088 21.48633,11.15235 5.38443,2.48095 10.83108,4.8173 16.34961,6.98632 5.51853,2.16904 11.10939,4.17081 16.7793,5.97852 10.66186,3.39928 21.49898,6.07668 32.45508,8.17383 0.0209,0.004 0.0415,0.01 0.0625,0.0137 0.0272,0.005 0.0548,0.008 0.082,0.0137 10.95114,2.09088 22.02162,3.60232 33.1582,4.66602 11.16421,1.06633 22.39481,1.68418 33.63672,1.99219 11.24191,0.308 22.49427,0.30689 33.70508,0.13086 22.42161,-0.35208 44.85921,-1.37078 67.2832,-1.90235 11.21199,-0.26578 22.42144,-0.41016 33.62305,-0.28906 11.2016,0.1211 22.39618,0.50887 33.58007,1.30469 11.6083,0.826 23.1808,2.10389 34.6875,3.82422 11.5068,1.72031 22.9481,3.88195 34.291,6.47265 11.3431,2.5907 22.5879,5.61169 33.7051,9.04883 11.1172,3.43714 22.1064,7.29115 32.9356,11.55078 10.8291,4.25964 21.4996,8.92424 31.9785,13.98242 10.4789,5.0582 20.7675,10.509 30.834,16.3418 10.0665,5.8328 19.9101,12.04737 29.5019,18.63086 9.5919,6.58348 18.9313,13.53742 27.9864,20.84766 8.5328,6.88866 16.7945,14.0608 24.8359,21.46289 8.0414,7.40207 15.8624,15.03288 23.5176,22.83984 3e-4,3.4e-4 -4e-4,0.002 0,0.002 7.6547,7.80664 15.1438,15.78765 22.5176,23.89063 7.3739,8.10332 14.6339,16.32797 21.832,24.61914 14.3962,16.58233 28.5455,33.43267 42.8691,50.11523 14.3236,16.68258 28.8216,33.19863 43.9141,49.11323 8.8001,9.2796 17.8151,18.3578 27.0332,27.2286 9.2181,8.8707 18.6388,17.5338 28.2519,25.9804 9.6133,8.4466 19.4186,16.6764 29.4043,24.6836 9.9857,8.0073 20.153,15.7912 30.4883,23.3438 10.3354,7.5526 20.8397,14.8743 31.502,21.957 10.6623,7.0827 21.4827,13.9259 32.4492,20.5234 6.9786,4.1985 14.1131,8.124 21.207,12.1211 4.0538,2.2842 8.0289,4.7086 12.1192,6.9258 11.2478,6.0971 22.6321,11.9401 34.1386,17.5215 H 1920 V 760.8125 c -14.8067,-7.21594 -29.3559,-14.95597 -43.6152,-23.19727 -14.2594,-8.24129 -28.2289,-16.98406 -41.8731,-26.20703 -13.6442,-9.22296 -26.9646,-18.92499 -39.9258,-29.08593 -12.9611,-10.16095 -25.5631,-20.7807 -37.7734,-31.83594 -12.0948,-10.9507 -23.8724,-22.37347 -35.6406,-33.81641 -11.7683,-11.44294 -23.5272,-22.90601 -35.584,-33.9414 -6.0284,-5.5177 -12.1318,-10.92869 -18.3477,-16.17579 -6.2158,-5.2471 -12.5433,-10.33128 -19.0234,-15.19531 -6.4802,-4.86403 -13.1122,-9.50846 -19.9336,-13.87695 -6.8213,-4.36849 -13.8328,-8.46023 -21.0723,-12.2207 -5.8656,-3.04687 -11.8314,-5.84737 -17.8828,-8.42969 -6.0514,-2.58233 -12.1877,-4.94596 -18.3965,-7.11719 -6.2088,-2.17122 -12.4902,-4.15128 -18.8281,-5.96484 -6.3378,-1.81357 -12.7333,-3.46136 -19.1719,-4.97071 -12.8771,-3.01869 -25.9273,-5.48301 -39.0371,-7.60546 -13.1098,-2.12246 -26.2788,-3.90289 -39.3945,-5.55665 -13.2807,-1.67456 -26.6441,-3.25797 -39.9785,-5.03906 -13.3344,-1.78108 -26.6401,-3.75902 -39.8086,-6.22265 -13.1685,-2.46364 -26.1994,-5.41256 -38.9824,-9.13477 -6.3915,-1.86111 -12.7207,-3.91546 -18.9746,-6.19922 -6.254,-2.28375 -12.4325,-4.79776 -18.5215,-7.57617 -0.039,-0.0176 -0.075,-0.039 -0.1133,-0.0566 -13.029,6.21946 -26.2368,12.05981 -39.6953,17.36523 -80.8539,31.873 -167.8868,43.90507 -253.6973,57.68164 -88.5066,14.20947 -179.84459,31.81556 -253.00975,83.60547 -31.08551,22.00382 -57.64236,49.49868 -82.24219,78.71289 z" />
        <path
           id="path8824"
           style="display:inline;fill:url(#linearGradient8826);fill-opacity:1;stroke-width:7.34984"
           inkscape:label="seg3b"
           d="m 669.47656,688.75195 c 7.10701,3.83989 14.16927,7.78088 21.48633,11.15235 5.38443,2.48095 10.83108,4.8173 16.34961,6.98632 5.51853,2.16904 11.10939,4.17081 16.7793,5.97852 10.66186,3.39928 21.49898,6.07668 32.45508,8.17383 0.0209,0.004 0.0415,0.01 0.0625,0.0137 0.0272,0.005 0.0548,0.008 0.082,0.0137 10.95114,2.09088 22.02162,3.60232 33.1582,4.66602 11.16421,1.06633 22.39481,1.68418 33.63672,1.99219 11.24191,0.308 22.49427,0.30689 33.70508,0.13086 22.42161,-0.35208 44.85921,-1.37078 67.2832,-1.90235 11.21199,-0.26578 22.42144,-0.41016 33.62305,-0.28906 11.2016,0.1211 22.39618,0.50887 33.58007,1.30469 11.6083,0.826 23.1808,2.10389 34.6875,3.82422 11.5068,1.72031 22.9481,3.88195 34.291,6.47265 11.3431,2.5907 22.5879,5.61169 33.7051,9.04883 11.1172,3.43714 22.1064,7.29115 32.9356,11.55078 10.8291,4.25964 21.4996,8.92424 31.9785,13.98242 10.4789,5.0582 20.7675,10.509 30.834,16.3418 10.0665,5.8328 19.9101,12.04737 29.5019,18.63086 9.5919,6.58348 18.9313,13.53742 27.9864,20.84766 8.5328,6.88866 16.7945,14.0608 24.8359,21.46289 8.0414,7.40207 15.8624,15.03288 23.5176,22.83984 3e-4,3.4e-4 -4e-4,0.002 0,0.002 7.6547,7.80664 15.1438,15.78765 22.5176,23.89063 7.3739,8.10332 14.6339,16.32797 21.832,24.61914 14.3962,16.58233 28.5455,33.43267 42.8691,50.11523 14.3236,16.68258 28.8216,33.19863 43.9141,49.11323 8.8001,9.2796 17.8151,18.3578 27.0332,27.2286 9.2181,8.8707 18.6388,17.5338 28.2519,25.9804 9.6133,8.4466 19.4186,16.6764 29.4043,24.6836 9.9857,8.0073 20.153,15.7912 30.4883,23.3438 10.3354,7.5526 20.8397,14.8743 31.502,21.957 10.6623,7.0827 21.4827,13.9259 32.4492,20.5234 6.9786,4.1985 14.1131,8.124 21.207,12.1211 4.0538,2.2842 8.0289,4.7086 12.1192,6.9258 11.2478,6.0971 22.6321,11.9401 34.1386,17.5215 H 1920 V 760.8125 c -14.8067,-7.21594 -29.3559,-14.95597 -43.6152,-23.19727 -14.2594,-8.24129 -28.2289,-16.98406 -41.8731,-26.20703 -13.6442,-9.22296 -26.9646,-18.92499 -39.9258,-29.08593 -12.9611,-10.16095 -25.5631,-20.7807 -37.7734,-31.83594 -12.0948,-10.9507 -23.8724,-22.37347 -35.6406,-33.81641 -11.7683,-11.44294 -23.5272,-22.90601 -35.584,-33.9414 -6.0284,-5.5177 -12.1318,-10.92869 -18.3477,-16.17579 -6.2158,-5.2471 -12.5433,-10.33128 -19.0234,-15.19531 -6.4802,-4.86403 -13.1122,-9.50846 -19.9336,-13.87695 -6.8213,-4.36849 -13.8328,-8.46023 -21.0723,-12.2207 -5.8656,-3.04687 -11.8314,-5.84737 -17.8828,-8.42969 -6.0514,-2.58233 -12.1877,-4.94596 -18.3965,-7.11719 -6.2088,-2.17122 -12.4902,-4.15128 -18.8281,-5.96484 -6.3378,-1.81357 -12.7333,-3.46136 -19.1719,-4.97071 -12.8771,-3.01869 -25.9273,-5.48301 -39.0371,-7.60546 -13.1098,-2.12246 -26.2788,-3.90289 -39.3945,-5.55665 -13.2807,-1.67456 -26.6441,-3.25797 -39.9785,-5.03906 -13.3344,-1.78108 -26.6401,-3.75902 -39.8086,-6.22265 -13.1685,-2.46364 -26.1994,-5.41256 -38.9824,-9.13477 -6.3915,-1.86111 -12.7207,-3.91546 -18.9746,-6.19922 -6.254,-2.28375 -12.4325,-4.79776 -18.5215,-7.57617 -0.039,-0.0176 -0.075,-0.039 -0.1133,-0.0566 -13.029,6.21946 -26.2368,12.05981 -39.6953,17.36523 -80.8539,31.873 -167.8868,43.90507 -253.6973,57.68164 -88.5066,14.20947 -179.84459,31.81556 -253.00975,83.60547 -31.08551,22.00382 -57.64236,49.49868 -82.24219,78.71289 z" />
      </g>
    </g>
    <g
       inkscape:groupmode="layer"
       id="layer7"
       inkscape:label="wave2"
       style="display:inline"
       sodipodi:insensitive="true">
      <path
         style="display:inline;fill:#26536e;fill-opacity:1;stroke-width:7.281;filter:url(#filter2483)"
         d="m 0,523.33804 c 44.52667,19.54793 112.61424,33.67664 169.11719,39.77852 50.78766,5.48468 102.03269,1.19873 153.08008,-0.70703 51.04819,-1.90579 103.13402,-1.09453 151.74218,14.61524 45.30159,14.64111 85.47753,41.52642 125.01563,68.04687 39.53819,26.52051 79.77743,53.33517 125.13672,67.79688 42.72964,13.62331 88.25706,15.6944 133.10035,14.99023 44.84331,-0.70416 89.74991,-4.06997 134.48561,-0.88672 92.86614,6.60806 183.47924,42.21728 255.91994,100.69922 68.2633,55.10945 119.1165,128.38434 179.4863,192.04295 70.4011,74.2364 154.5404,135.6346 246.5928,180.2858 H 0 Z"
         id="path2480"
         sodipodi:nodetypes="csssssssssccc"
         inkscape:label="blur2" />
      <path
         style="display:inline;fill:#26536e;fill-opacity:1;stroke-width:7.281"
         d="m 0,523.33804 c 44.52667,19.54793 112.61424,33.67664 169.11719,39.77852 50.78766,5.48468 102.03269,1.19873 153.08008,-0.70703 51.04819,-1.90579 103.13402,-1.09453 151.74218,14.61524 45.30159,14.64111 85.47753,41.52642 125.01563,68.04687 39.53819,26.52051 79.77743,53.33517 125.13672,67.79688 42.72964,13.62331 88.25706,15.6944 133.10035,14.99023 44.84331,-0.70416 89.74991,-4.06997 134.48561,-0.88672 92.86614,6.60806 183.47924,42.21728 255.91994,100.69922 68.2633,55.10945 119.1165,128.38434 179.4863,192.04295 70.4011,74.2364 154.5404,135.6346 246.5928,180.2858 H 0 Z"
         id="path1216-3"
         sodipodi:nodetypes="csssssssssccc"
         inkscape:label="curve2" />
      <g
         id="g9814"
         inkscape:label="seg2">
        <path
           id="path6621"
           style="display:inline;fill:#264d64;fill-opacity:1;stroke-width:7.281"
           inkscape:label="seg2"
           d="m 669.47656,688.75195 c -1.00772,1.19675 -2.09662,2.317 -3.09765,3.51953 -8.47924,10.18602 -16.724,20.5715 -24.83594,31.00391 -16.22389,20.86482 -32.09002,42.09398 -48.64258,62.70899 -8.27628,10.3075 -16.72486,20.46223 -25.47461,30.33984 -8.74975,9.87761 -17.80106,19.47889 -27.28516,28.68164 -8.8409,8.57865 -18.00009,16.75805 -27.41601,24.61523 -9.41592,7.85718 -19.08944,15.39135 -28.95899,22.68164 -9.86954,7.29029 -19.93492,14.33687 -30.13671,21.21485 -10.20179,6.87798 -20.53854,13.58873 -30.95118,20.20898 -20.82527,13.2405 -41.95223,26.11879 -62.89257,39.25586 -10.47018,6.56854 -20.89408,13.20202 -31.21094,19.97656 -10.31686,6.77455 -20.52621,13.69102 -30.56836,20.82622 -9.03778,6.4214 -17.96254,13.0267 -26.76367,19.8105 -8.80114,6.7838 -17.47889,13.7456 -26.02149,20.8789 -8.54259,7.1333 -16.95074,14.4384 -25.21289,21.9082 -8.26215,7.4698 -16.37809,15.1051 -24.33789,22.8984 -7.9598,7.7934 -15.76288,15.7456 -23.39844,23.8497 -7.63555,8.104 -15.10317,16.3598 -22.39257,24.7617 -7.28941,8.4018 -14.40092,16.95 -21.32227,25.6367 -6.92135,8.6867 -13.6522,17.5121 -20.18359,26.4707 H 1673.6777 C 1581.6254,1155.3488 1497.485,1093.9512 1427.084,1019.7148 1366.7142,956.0563 1315.8609,882.78127 1247.5977,827.67188 1175.157,769.18999 1084.5438,733.58071 991.67773,726.97266 c -44.73565,-3.18325 -89.64303,0.18256 -134.48632,0.88672 -44.84325,0.70416 -90.37002,-1.36694 -133.09961,-14.99024 -19.04483,-6.07198 -37.04853,-14.62596 -54.61524,-24.11719 z" />
        <path
           id="path9809"
           style="display:inline;fill:url(#linearGradient10167);fill-opacity:1;stroke-width:7.281"
           inkscape:label="seg2a"
           d="m 669.47656,688.75195 c -1.00772,1.19675 -2.09662,2.317 -3.09765,3.51953 -8.47924,10.18602 -16.724,20.5715 -24.83594,31.00391 -16.22389,20.86482 -32.09002,42.09398 -48.64258,62.70899 -8.27628,10.3075 -16.72486,20.46223 -25.47461,30.33984 -8.74975,9.87761 -17.80106,19.47889 -27.28516,28.68164 -8.8409,8.57865 -18.00009,16.75805 -27.41601,24.61523 -9.41592,7.85718 -19.08944,15.39135 -28.95899,22.68164 -9.86954,7.29029 -19.93492,14.33687 -30.13671,21.21485 -10.20179,6.87798 -20.53854,13.58873 -30.95118,20.20898 -20.82527,13.2405 -41.95223,26.11879 -62.89257,39.25586 -10.47018,6.56854 -20.89408,13.20202 -31.21094,19.97656 -10.31686,6.77455 -20.52621,13.69102 -30.56836,20.82622 -9.03778,6.4214 -17.96254,13.0267 -26.76367,19.8105 -8.80114,6.7838 -17.47889,13.7456 -26.02149,20.8789 -8.54259,7.1333 -16.95074,14.4384 -25.21289,21.9082 -8.26215,7.4698 -16.37809,15.1051 -24.33789,22.8984 -7.9598,7.7934 -15.76288,15.7456 -23.39844,23.8497 -7.63555,8.104 -15.10317,16.3598 -22.39257,24.7617 -7.28941,8.4018 -14.40092,16.95 -21.32227,25.6367 -6.92135,8.6867 -13.6522,17.5121 -20.18359,26.4707 H 1673.6777 C 1581.6254,1155.3488 1497.485,1093.9512 1427.084,1019.7148 1366.7142,956.0563 1315.8609,882.78127 1247.5977,827.67188 1175.157,769.18999 1084.5438,733.58071 991.67773,726.97266 c -44.73565,-3.18325 -89.64303,0.18256 -134.48632,0.88672 -44.84325,0.70416 -90.37002,-1.36694 -133.09961,-14.99024 -19.04483,-6.07198 -37.04853,-14.62596 -54.61524,-24.11719 z" />
        <path
           id="path10169"
           style="display:inline;fill:url(#linearGradient10171);fill-opacity:1;stroke-width:7.281"
           inkscape:label="seg2b"
           d="m 669.47656,688.75195 c -1.00772,1.19675 -2.09662,2.317 -3.09765,3.51953 -8.47924,10.18602 -16.724,20.5715 -24.83594,31.00391 -16.22389,20.86482 -32.09002,42.09398 -48.64258,62.70899 -8.27628,10.3075 -16.72486,20.46223 -25.47461,30.33984 -8.74975,9.87761 -17.80106,19.47889 -27.28516,28.68164 -8.8409,8.57865 -18.00009,16.75805 -27.41601,24.61523 -9.41592,7.85718 -19.08944,15.39135 -28.95899,22.68164 -9.86954,7.29029 -19.93492,14.33687 -30.13671,21.21485 -10.20179,6.87798 -20.53854,13.58873 -30.95118,20.20898 -20.82527,13.2405 -41.95223,26.11879 -62.89257,39.25586 -10.47018,6.56854 -20.89408,13.20202 -31.21094,19.97656 -10.31686,6.77455 -20.52621,13.69102 -30.56836,20.82622 -9.03778,6.4214 -17.96254,13.0267 -26.76367,19.8105 -8.80114,6.7838 -17.47889,13.7456 -26.02149,20.8789 -8.54259,7.1333 -16.95074,14.4384 -25.21289,21.9082 -8.26215,7.4698 -16.37809,15.1051 -24.33789,22.8984 -7.9598,7.7934 -15.76288,15.7456 -23.39844,23.8497 -7.63555,8.104 -15.10317,16.3598 -22.39257,24.7617 -7.28941,8.4018 -14.40092,16.95 -21.32227,25.6367 -6.92135,8.6867 -13.6522,17.5121 -20.18359,26.4707 H 1673.6777 C 1581.6254,1155.3488 1497.485,1093.9512 1427.084,1019.7148 1366.7142,956.0563 1315.8609,882.78127 1247.5977,827.67188 1175.157,769.18999 1084.5438,733.58071 991.67773,726.97266 c -44.73565,-3.18325 -89.64303,0.18256 -134.48632,0.88672 -44.84325,0.70416 -90.37002,-1.36694 -133.09961,-14.99024 -19.04483,-6.07198 -37.04853,-14.62596 -54.61524,-24.11719 z" />
      </g>
      <g
         id="g10177"
         inkscape:label="seg1">
        <path
           id="path6617"
           style="display:inline;fill:#26475b;fill-opacity:0.745138;stroke-width:7.281"
           inkscape:label="seg1"
           d="M 669.47656,688.75195 C 645.20448,675.63784 621.89248,660.45769 598.95508,645.07227 559.41702,618.55184 519.241,591.66649 473.93945,577.02539 425.33134,561.31564 373.2454,560.50437 322.19727,562.41016 271.14993,564.31591 219.9048,568.60186 169.11719,563.11719 112.61429,557.01531 44.526625,542.8858 0,523.33789 V 1200 h 108.37305 c 6.53139,-8.9586 13.26224,-17.784 20.18359,-26.4707 6.92135,-8.6867 14.03286,-17.2349 21.32227,-25.6367 7.2894,-8.4019 14.75702,-16.6577 22.39257,-24.7617 7.63556,-8.1041 15.43864,-16.0563 23.39844,-23.8497 7.9598,-7.7933 16.07574,-15.4286 24.33789,-22.8984 8.26215,-7.4698 16.6703,-14.7749 25.21289,-21.9082 8.5426,-7.1333 17.22035,-14.0951 26.02149,-20.8789 8.80113,-6.7838 17.72589,-13.3891 26.76367,-19.8105 10.04215,-7.1352 20.2515,-14.05167 30.56836,-20.82622 10.31686,-6.77454 20.74076,-13.40802 31.21094,-19.97656 20.94034,-13.13707 42.0673,-26.01536 62.89257,-39.25586 10.41264,-6.62025 20.74939,-13.331 30.95118,-20.20898 10.20179,-6.87798 20.26717,-13.92456 30.13671,-21.21485 9.86955,-7.29029 19.54307,-14.82446 28.95899,-22.68164 9.41592,-7.85718 18.57511,-16.03658 27.41601,-24.61523 9.4841,-9.20275 18.53541,-18.80403 27.28516,-28.68164 8.74975,-9.87761 17.19833,-20.03234 25.47461,-30.33984 16.55256,-20.61501 32.41869,-41.84417 48.64258,-62.70899 8.11194,-10.43241 16.3567,-20.81789 24.83594,-31.00391 1.00103,-1.20253 2.08993,-2.32278 3.09765,-3.51953 z"
           sodipodi:insensitive="true" />
        <path
           id="path10173"
           style="display:inline;fill:url(#linearGradient10185);fill-opacity:1;stroke-width:7.281"
           inkscape:label="seg1a"
           d="M 669.47656,688.75195 C 645.20448,675.63784 621.89248,660.45769 598.95508,645.07227 559.41702,618.55184 519.241,591.66649 473.93945,577.02539 425.33134,561.31564 373.2454,560.50437 322.19727,562.41016 271.14993,564.31591 219.9048,568.60186 169.11719,563.11719 112.61429,557.01531 44.526625,542.8858 0,523.33789 V 1200 h 108.37305 c 6.53139,-8.9586 13.26224,-17.784 20.18359,-26.4707 6.92135,-8.6867 14.03286,-17.2349 21.32227,-25.6367 7.2894,-8.4019 14.75702,-16.6577 22.39257,-24.7617 7.63556,-8.1041 15.43864,-16.0563 23.39844,-23.8497 7.9598,-7.7933 16.07574,-15.4286 24.33789,-22.8984 8.26215,-7.4698 16.6703,-14.7749 25.21289,-21.9082 8.5426,-7.1333 17.22035,-14.0951 26.02149,-20.8789 8.80113,-6.7838 17.72589,-13.3891 26.76367,-19.8105 10.04215,-7.1352 20.2515,-14.05167 30.56836,-20.82622 10.31686,-6.77454 20.74076,-13.40802 31.21094,-19.97656 20.94034,-13.13707 42.0673,-26.01536 62.89257,-39.25586 10.41264,-6.62025 20.74939,-13.331 30.95118,-20.20898 10.20179,-6.87798 20.26717,-13.92456 30.13671,-21.21485 9.86955,-7.29029 19.54307,-14.82446 28.95899,-22.68164 9.41592,-7.85718 18.57511,-16.03658 27.41601,-24.61523 9.4841,-9.20275 18.53541,-18.80403 27.28516,-28.68164 8.74975,-9.87761 17.19833,-20.03234 25.47461,-30.33984 16.55256,-20.61501 32.41869,-41.84417 48.64258,-62.70899 8.11194,-10.43241 16.3567,-20.81789 24.83594,-31.00391 1.00103,-1.20253 2.08993,-2.32278 3.09765,-3.51953 z"
           sodipodi:insensitive="true" />
        <path
           id="path12005"
           style="display:inline;fill:url(#linearGradient12007);fill-opacity:1;stroke-width:7.281"
           inkscape:label="seg1b"
           d="M 669.47656,688.75195 C 645.20448,675.63784 621.89248,660.45769 598.95508,645.07227 559.41702,618.55184 519.241,591.66649 473.93945,577.02539 425.33134,561.31564 373.2454,560.50437 322.19727,562.41016 271.14993,564.31591 219.9048,568.60186 169.11719,563.11719 112.61429,557.01531 44.526625,542.8858 0,523.33789 V 1200 h 108.37305 c 6.53139,-8.9586 13.26224,-17.784 20.18359,-26.4707 6.92135,-8.6867 14.03286,-17.2349 21.32227,-25.6367 7.2894,-8.4019 14.75702,-16.6577 22.39257,-24.7617 7.63556,-8.1041 15.43864,-16.0563 23.39844,-23.8497 7.9598,-7.7933 16.07574,-15.4286 24.33789,-22.8984 8.26215,-7.4698 16.6703,-14.7749 25.21289,-21.9082 8.5426,-7.1333 17.22035,-14.0951 26.02149,-20.8789 8.80113,-6.7838 17.72589,-13.3891 26.76367,-19.8105 10.04215,-7.1352 20.2515,-14.05167 30.56836,-20.82622 10.31686,-6.77454 20.74076,-13.40802 31.21094,-19.97656 20.94034,-13.13707 42.0673,-26.01536 62.89257,-39.25586 10.41264,-6.62025 20.74939,-13.331 30.95118,-20.20898 10.20179,-6.87798 20.26717,-13.92456 30.13671,-21.21485 9.86955,-7.29029 19.54307,-14.82446 28.95899,-22.68164 9.41592,-7.85718 18.57511,-16.03658 27.41601,-24.61523 9.4841,-9.20275 18.53541,-18.80403 27.28516,-28.68164 8.74975,-9.87761 17.19833,-20.03234 25.47461,-30.33984 16.55256,-20.61501 32.41869,-41.84417 48.64258,-62.70899 8.11194,-10.43241 16.3567,-20.81789 24.83594,-31.00391 1.00103,-1.20253 2.08993,-2.32278 3.09765,-3.51953 z"
           sodipodi:insensitive="true" />
      </g>
    </g>
    <path
       id="rect10187"
       style="fill:#3a4c62;fill-opacity:0.368928;fill-rule:evenodd"
       d="M 0,0 H 1920 V 1200 H 0 Z" />
  </g>
  <g
     id="g15287"
     transform="matrix(0.61207793,0,0,0.61207793,926.71581,971.16774)"
     style="display:none;fill:#85a0b4;fill-opacity:1"
     inkscape:label="logo"
     sodipodi:insensitive="true">
    <path
       id="path1044"
       style="display:inline;fill:url(#radialGradient1127);stroke-width:6.72106;stop-color:#000000"
       d="m 962.13541,898.53627 c 48.72429,1.18229 87.29139,41.73711 86.19309,90.63535 -1.0983,48.89818 -41.447,87.66798 -90.1749,86.64598 -48.72777,-1.022 -87.58683,-41.4521 -86.482,-90.64184 1.10477,-49.18771 41.73964,-87.82178 90.46381,-86.63949 z"
       sodipodi:nodetypes="sssss"
       transform="matrix(1.6337789,0,0,1.6337789,-1514.0487,-1586.6734)" />
    <path
       id="path2630"
       style="display:inline;fill:url(#radialGradient2632);stroke-width:6.15128;stop-color:#000000"
       d="m 962.07092,971.90241 c 47.25068,1.02125 84.65138,36.05079 83.58628,78.28699 -1.0651,42.2362 -40.1935,75.7239 -87.44769,74.8411 -47.25415,-0.8828 -84.93806,-35.8046 -83.86663,-78.2926 1.07136,-42.4862 40.47737,-75.8567 87.72804,-74.83549 z"
       sodipodi:nodetypes="sssss"
       transform="matrix(1.6337789,0,0,1.6337789,-1514.0487,-1586.6734)" />
    <g
       id="g17174">
      <path
         i:knockout="Off"
         fill="#85a0b4"
         d="m 60.969,47.645 c -1.494,0.02 0.281,0.768 2.232,1.069 0.541,-0.422 1.027,-0.846 1.463,-1.26 -1.213,0.297 -2.449,0.304 -3.695,0.191"
         id="path15249"
         style="fill:#85a0b4;fill-opacity:1" />
      <path
         i:knockout="Off"
         fill="#85a0b4"
         d="m 68.986,45.646 c 0.893,-1.229 1.541,-2.573 1.77,-3.963 -0.201,0.99 -0.736,1.845 -1.244,2.749 -2.793,1.759 -0.264,-1.044 -0.002,-2.111 -3.002,3.783 -0.414,2.268 -0.524,3.325"
         id="path15251"
         style="fill:#85a0b4;fill-opacity:1" />
      <path
         i:knockout="Off"
         fill="#85a0b4"
         d="m 71.949,37.942 c 0.182,-2.691 -0.529,-1.839 -0.768,-0.814 0.278,0.146 0.499,1.898 0.768,0.814"
         id="path15253"
         style="fill:#85a0b4;fill-opacity:1" />
      <path
         i:knockout="Off"
         fill="#85a0b4"
         d="m 55.301,1.163 c 0.798,0.142 1.724,0.252 1.591,0.443 0.876,-0.193 1.073,-0.367 -1.591,-0.443"
         id="path15255"
         style="fill:#85a0b4;fill-opacity:1" />
      <path
         i:knockout="Off"
         fill="#85a0b4"
         d="M 56.893,1.606 56.332,1.723 56.855,1.675 56.893,1.606"
         id="path15257"
         style="fill:#85a0b4;fill-opacity:1" />
      <path
         i:knockout="Off"
         fill="#85a0b4"
         d="m 81.762,38.962 c 0.09,2.416 -0.705,3.59 -1.424,5.666 l -1.293,0.643 c -1.057,2.054 0.105,1.304 -0.652,2.937 -1.652,1.467 -5.006,4.589 -6.08,4.875 -0.785,-0.017 0.531,-0.926 0.703,-1.281 -2.209,1.516 -1.773,2.276 -5.152,3.199 L 67.766,54.78 c -8.33,3.92 -19.902,-3.847 -19.75,-14.443 -0.088,0.672 -0.253,0.504 -0.437,0.774 -0.43,-5.451 2.518,-10.926 7.49,-13.165 4.863,-2.406 10.564,-1.42 14.045,1.829 -1.912,-2.506 -5.721,-5.163 -10.232,-4.917 -4.421,0.072 -8.558,2.881 -9.938,5.932 -2.264,1.425 -2.528,5.496 -3.514,6.242 -1.329,9.76 2.497,13.975 8.97,18.936 1.016,0.686 0.286,0.791 0.422,1.313 -2.15,-1.006 -4.118,-2.526 -5.738,-4.387 0.86,1.257 1.787,2.479 2.986,3.439 -2.029,-0.685 -4.738,-4.913 -5.527,-5.085 3.495,6.258 14.178,10.975 19.775,8.634 -2.59,0.096 -5.879,0.053 -8.787,-1.022 -1.225,-0.629 -2.884,-1.93 -2.587,-2.173 7.636,2.851 15.522,2.158 22.128,-3.137 1.682,-1.31 3.518,-3.537 4.049,-3.567 -0.799,1.202 0.137,0.578 -0.477,1.639 1.672,-2.701 -0.729,-1.1 1.73,-4.664 l 0.908,1.25 c -0.34,-2.244 2.785,-4.966 2.467,-8.512 0.717,-1.084 0.799,1.168 0.039,3.662 1.055,-2.767 0.279,-3.212 0.549,-5.496 0.291,0.768 0.678,1.583 0.875,2.394 -0.688,-2.675 0.703,-4.503 1.049,-6.058 -0.342,-0.15 -1.061,1.182 -1.227,-1.976 0.025,-1.372 0.383,-0.719 0.52,-1.057 -0.268,-0.155 -0.975,-1.207 -1.404,-3.224 0.309,-0.475 0.832,1.229 1.256,1.298 -0.273,-1.603 -0.742,-2.826 -0.762,-4.057 -1.24,-2.59 -0.439,0.346 -1.443,-1.112 -1.32,-4.114 1.094,-0.955 1.258,-2.823 1.998,2.895 3.137,7.385 3.662,9.244 -0.4,-2.267 -1.045,-4.464 -1.834,-6.589 0.609,0.257 -0.979,-4.663 0.791,-1.405 C 87.189,15.552 81,9.062 75.305,6.018 76,6.655 76.879,7.455 76.565,7.581 73.731,5.896 74.229,5.763 73.823,5.051 71.518,4.112 71.364,5.128 69.839,5.053 65.489,2.745 64.651,2.99 60.648,1.546 L 60.83,2.398 C 57.949,1.438 57.473,2.76 54.36,2.4 54.171,2.253 55.358,1.864 56.336,1.723 53.55,2.091 53.68,1.173 50.954,1.824 51.625,1.353 52.337,1.04 53.053,0.64 50.782,0.778 47.629,1.962 48.602,0.884 44.897,2.538 38.316,4.859 34.623,8.322 L 34.507,7.546 c -1.692,2.031 -7.379,6.066 -7.832,8.699 l -0.453,0.105 c -0.879,1.491 -1.45,3.18 -2.148,4.713 -1.151,1.963 -1.688,0.756 -1.524,1.064 -2.265,4.592 -3.392,8.45 -4.363,11.616 0.692,1.035 0.017,6.232 0.278,10.391 -1.136,20.544 14.418,40.489 31.42,45.093 2.492,0.893 6.197,0.861 9.349,0.949 -3.718,-1.064 -4.198,-0.563 -7.822,-1.826 -2.613,-1.232 -3.185,-2.637 -5.037,-4.244 l 0.733,1.295 c -3.63,-1.285 -2.111,-1.59 -5.065,-2.525 l 0.783,-1.021 c -1.177,-0.09 -3.117,-1.982 -3.647,-3.033 l -1.288,0.051 c -1.546,-1.906 -2.371,-3.283 -2.31,-4.35 l -0.416,0.742 c -0.471,-0.809 -5.691,-7.158 -2.983,-5.68 -0.503,-0.458 -1.172,-0.747 -1.897,-2.066 l 0.551,-0.629 c -1.301,-1.677 -2.398,-3.826 -2.314,-4.542 0.695,0.938 1.177,1.114 1.655,1.275 -3.291,-8.164 -3.476,-0.449 -5.967,-8.31 l 0.526,-0.042 c -0.403,-0.611 -0.65,-1.27 -0.974,-1.919 l 0.23,-2.285 c -2.368,-2.736 -0.662,-11.645 -0.319,-16.53 0.235,-1.986 1.977,-4.101 3.3,-7.418 l -0.806,-0.138 c 1.542,-2.688 8.802,-10.799 12.166,-10.383 1.629,-2.046 -0.324,-0.008 -0.643,-0.522 3.579,-3.703 4.704,-2.616 7.119,-3.283 2.603,-1.545 -2.235,0.604 -1.001,-0.589 4.503,-1.149 3.19,-2.614 9.063,-3.197 0.62,0.352 -1.437,0.544 -1.953,1.001 3.75,-1.836 11.869,-1.417 17.145,1.018 6.117,2.861 12.994,11.314 13.266,19.267 l 0.309,0.083 c -0.156,3.162 0.484,6.819 -0.627,10.177 l 0.751,-1.591"
         id="path15259"
         style="fill:#85a0b4;fill-opacity:1" />
      <path
         i:knockout="Off"
         fill="#85a0b4"
         d="m 44.658,49.695 -0.211,1.047 c 0.983,1.335 1.763,2.781 3.016,3.821 -0.902,-1.759 -1.571,-2.486 -2.805,-4.868"
         id="path15261"
         style="fill:#85a0b4;fill-opacity:1" />
      <path
         i:knockout="Off"
         fill="#85a0b4"
         d="m 46.979,49.605 c -0.52,-0.576 -0.826,-1.268 -1.172,-1.956 0.33,1.211 1.006,2.252 1.633,3.312 l -0.461,-1.356"
         id="path15263"
         style="fill:#85a0b4;fill-opacity:1" />
      <path
         i:knockout="Off"
         fill="#85a0b4"
         d="m 88.063,40.675 -0.219,0.552 c -0.402,2.858 -1.273,5.686 -2.605,8.309 1.472,-2.767 2.421,-5.794 2.824,-8.861"
         id="path15265"
         style="fill:#85a0b4;fill-opacity:1" />
      <path
         i:knockout="Off"
         fill="#85a0b4"
         d="M 55.598,0.446 C 56.607,0.077 58.08,0.243 59.154,0 57.756,0.117 56.365,0.187 54.992,0.362 l 0.606,0.084"
         id="path15267"
         style="fill:#85a0b4;fill-opacity:1" />
      <path
         i:knockout="Off"
         fill="#85a0b4"
         d="m 20.127,19.308 c 0.233,2.154 -1.62,2.991 0.41,1.569 1.09,-2.454 -0.424,-0.677 -0.41,-1.569"
         id="path15269"
         style="fill:#85a0b4;fill-opacity:1" />
      <path
         i:knockout="Off"
         fill="#85a0b4"
         d="m 17.739,29.282 c 0.469,-1.437 0.553,-2.299 0.732,-3.132 -1.293,1.654 -0.596,2.007 -0.732,3.132"
         id="path15271"
         style="fill:#85a0b4;fill-opacity:1" />
    </g>
    <g
       id="g17160">
      <path
         i:knockout="Off"
         d="m 13.437,125.506 c -0.045,0.047 -0.045,7.506 -0.138,9.453 -0.092,1.574 -0.232,4.957 -3.568,4.957 -3.429,0 -4.263,-3.939 -4.541,-5.652 -0.324,-1.9 -0.324,-3.477 -0.324,-4.17 0,-2.225 0.139,-8.436 5.375,-8.436 1.576,0 2.456,0.465 3.151,0.834 z M 0,130.975 c 0,13.066 6.951,13.066 7.97,13.066 2.873,0 4.727,-1.576 5.514,-4.309 l 0.093,4.123 c 0.881,-0.047 1.761,-0.139 3.197,-0.139 0.51,0 0.926,0 1.298,0.047 0.371,0 0.741,0.045 1.158,0.092 -0.741,-1.482 -1.297,-4.818 -1.297,-12.049 0,-7.043 0,-18.951 0.602,-22.566 -1.667,0.789 -3.105,1.299 -6.256,1.576 1.251,1.344 1.251,2.039 1.251,8.154 -0.879,-0.277 -1.992,-0.602 -3.892,-0.602 C 1.344,118.369 0,125.598 0,130.975"
         id="path15273"
         style="fill:#85a0b4;fill-opacity:1" />
      <path
         i:knockout="Off"
         d="m 25.13,128.609 c 0.047,-3.846 0.835,-7.275 4.124,-7.275 3.615,0 3.891,3.984 3.799,7.275 z m 12.51,0.465 c 0,-5.422 -1.065,-10.752 -7.923,-10.752 -9.452,0 -9.452,10.475 -9.452,12.697 0,9.406 4.216,13.113 11.306,13.113 3.149,0 4.68,-0.461 5.514,-0.695 -0.046,-1.668 0.185,-2.734 0.465,-4.17 -0.975,0.604 -2.226,1.391 -5.006,1.391 -7.229,0 -7.322,-6.582 -7.322,-8.852 H 37.55 l 0.09,-2.732"
         id="path15275"
         style="fill:#85a0b4;fill-opacity:1" />
      <path
         i:knockout="Off"
         d="m 52.715,131.066 c 0,4.309 -0.787,10.102 -6.162,10.102 -0.742,0 -1.668,-0.141 -2.27,-0.279 -0.093,-1.668 -0.093,-4.541 -0.093,-7.877 0,-3.986 0.416,-6.068 0.742,-7.09 0.972,-3.289 3.15,-3.334 3.566,-3.334 3.522,0 4.217,4.865 4.217,8.478 z m -13.298,5.051 c 0,3.43 0,5.375 -0.556,6.857 1.9,0.742 4.262,1.158 7.09,1.158 1.807,0 7.043,0 9.869,-5.791 1.344,-2.688 1.807,-6.303 1.807,-9.037 0,-1.668 -0.186,-5.328 -1.529,-7.646 -1.296,-2.176 -3.382,-3.289 -5.605,-3.289 -4.449,0 -5.746,3.707 -6.44,5.607 0,-2.363 0.045,-10.611 0.415,-14.828 -3.011,1.391 -4.866,1.621 -6.857,1.807 1.807,0.74 1.807,3.801 1.807,13.764 v 11.398"
         id="path15277"
         style="fill:#85a0b4;fill-opacity:1" />
      <path
         i:knockout="Off"
         d="m 66.535,143.855 c -0.928,-0.139 -1.578,-0.232 -2.922,-0.232 -1.48,0 -2.502,0.094 -3.566,0.232 0.463,-0.881 0.648,-1.299 0.787,-4.309 0.186,-4.125 0.232,-15.154 -0.092,-17.471 -0.232,-1.762 -0.648,-2.039 -1.297,-2.502 3.799,-0.371 4.865,-0.648 6.625,-1.482 -0.369,2.037 -0.418,3.059 -0.418,6.162 -0.091,15.989 -0.138,17.702 0.883,19.602"
         id="path15279"
         style="fill:#85a0b4;fill-opacity:1" />
      <path
         i:knockout="Off"
         d="m 81.373,130.74 c -0.092,2.92 -0.139,4.959 -0.928,6.58 -0.973,2.086 -2.594,2.688 -3.799,2.688 -2.783,0 -3.383,-2.316 -3.383,-4.586 0,-4.355 3.893,-4.682 5.652,-4.682 z m -12.744,5.701 c 0,2.92 0.881,5.838 3.477,7.09 1.158,0.51 2.316,0.51 2.688,0.51 4.264,0 5.699,-3.152 6.58,-5.098 -0.047,2.039 0,3.289 0.139,4.912 0.834,-0.047 1.668,-0.139 3.059,-0.139 0.787,0 1.529,0.092 2.316,0.139 -0.51,-0.787 -0.787,-1.252 -0.928,-3.059 -0.092,-1.76 -0.092,-3.521 -0.092,-5.977 l 0.047,-9.453 c 0,-3.523 -0.928,-6.998 -7.879,-6.998 -4.586,0 -7.273,1.391 -8.617,2.086 0.557,1.02 1.02,1.898 1.436,3.893 1.809,-1.576 4.172,-2.41 6.58,-2.41 3.848,0 3.848,2.549 3.848,6.162 -0.881,-0.045 -1.623,-0.137 -2.875,-0.137 -5.887,10e-4 -9.779,2.268 -9.779,8.479"
         id="path15281"
         style="fill:#85a0b4;fill-opacity:1" />
      <path
         i:knockout="Off"
         d="m 108.063,139.268 c 0.047,1.576 0.047,3.244 0.695,4.588 -1.021,-0.092 -1.623,-0.232 -3.521,-0.232 -1.113,0 -1.715,0.094 -2.596,0.232 0.184,-0.602 0.279,-0.834 0.371,-1.623 0.139,-1.064 0.232,-4.633 0.232,-5.885 v -5.004 c 0,-2.178 0,-5.33 -0.141,-6.441 -0.092,-0.787 -0.322,-2.918 -3.012,-2.918 -2.641,0 -3.521,1.945 -3.846,3.521 -0.369,1.621 -0.369,3.383 -0.369,10.24 0.045,5.932 0.045,6.486 0.508,8.109 -0.787,-0.092 -1.76,-0.184 -3.15,-0.184 -1.113,0 -1.854,0.045 -2.779,0.184 0.324,-0.742 0.51,-1.113 0.602,-3.707 0.094,-2.549 0.279,-15.061 -0.141,-18.025 -0.23,-1.809 -0.695,-2.225 -1.203,-2.688 3.754,-0.186 4.957,-0.789 6.117,-1.389 v 4.91 c 0.555,-1.438 1.713,-4.635 6.348,-4.635 5.793,0 5.838,4.217 5.885,6.996 v 13.951"
         id="path15283"
         style="fill:#85a0b4;fill-opacity:1" />
      <path
         i:knockout="Off"
         fill="#85a0b4"
         d="m 66.926,111.533 -3.838,3.836 -3.836,-3.836 3.836,-3.836 3.838,3.836"
         id="path15285"
         style="fill:#85a0b4;fill-opacity:1" />
    </g>
  </g>
  <g
     inkscape:label="center_align"
     inkscape:groupmode="layer"
     id="layer1"
     style="display:inline"
     sodipodi:insensitive="true">
    <path
       id="rect1993"
       style="display:none;fill:#3b3b49;fill-opacity:1;fill-rule:evenodd"
       d="M -454.04297,-430.60938 V 1630.6094 H 2374.043 V -430.60938 Z M 0,60 H 1920 V 1140 H 0 Z"
       sodipodi:insensitive="true" />
    <path
       id="rect1995"
       style="display:none;fill:#3b3b49;fill-opacity:1;fill-rule:evenodd"
       d="M -454.04297,-430.60938 V 1630.6094 H 2374.043 V -430.60938 Z M 160,0 H 1760 V 1200 H 160 Z"
       sodipodi:insensitive="true" />
    <path
       id="rect1997"
       style="display:none;fill:#3b3b49;fill-opacity:1;fill-rule:evenodd"
       d="M -454.04297,-430.60938 V 1630.6094 H 2374.043 V -430.60938 Z M 320,88 H 1600 V 1112 H 320 Z"
       sodipodi:insensitive="true" />
    <path
       id="rect1999"
       style="display:none;fill:#3b3b49;fill-opacity:1;fill-rule:evenodd"
       d="M -454.04297,-430.60938 V 1630.6094 H 2374.043 V -430.60938 Z M 0,0 H 1920 V 1200 H 0 Z"
       sodipodi:insensitive="true" />
    <path
       id="path796"
       style="display:none;fill:#3b3b49;fill-opacity:1;fill-rule:evenodd"
       d="M -454.04297,-430.60938 V 1630.6094 H 2374.043 V -430.60938 Z M 210,0 H 1710 V 1200 H 210 Z" />
  </g>
  <g
     id="g9942"
     inkscape:label="tints"
     sodipodi:insensitive="true"
     style="display:inline">
    <path
       id="rect7413"
       style="fill:#27678d;fill-rule:evenodd"
       d="m 2033.2965,-22.873643 h 106.2478 V 71.48795 h -106.2478 z" />
    <path
       id="rect7413-3"
       style="fill:#435c7b;fill-rule:evenodd"
       d="m 2290.0086,-22.873643 h 106.2478 V 71.48795 h -106.2478 z" />
    <path
       d="m 2033.2925,110.50978 h 106.25 v 2e-4 94.3618 0 h -106.25 v -0.001 z"
       style="fill:#5285a3;fill-opacity:1"
       id="path8133" />
    <path
       d="m 2030.4802,243.89361 h 106.25 v 0.001 94.361 0 h -106.25 v 0 z"
       style="fill:#7da3ba;fill-opacity:1"
       id="path8135" />
    <path
       d="m 2030.4802,377.27744 h 106.25 v 0 94.361 0 h -106.25 v 0 z"
       style="fill:#a8c2d1;fill-opacity:1"
       id="path8137" />
    <path
       d="m 2030.4802,510.66027 h 106.25 v 0 94.362 0 h -106.25 v 0 z"
       style="fill:#d3e0e8;fill-opacity:1"
       id="path8139" />
    <path
       d="m 2290.0125,110.50978 h 106.24 v 2e-4 94.3618 0 h -106.24 v -0.001 z"
       style="fill:#687c95;fill-opacity:1"
       id="path7784" />
    <path
       d="m 2287.2002,243.89361 h 106.24 v 0.001 94.361 0 h -106.24 v 0 z"
       style="fill:#8e9daf;fill-opacity:1"
       id="path7786" />
    <path
       d="m 2287.2002,377.27744 h 106.24 v 0 94.361 0 h -106.24 v 0 z"
       style="fill:#b3bdca;fill-opacity:1"
       id="path7788" />
    <path
       d="m 2287.2002,510.66027 h 106.24 v 0 94.362 0 h -106.24 v 0 z"
       style="fill:#d9dee4;fill-opacity:1"
       id="path7790" />
    <path
       d="m 2161.65,-22.8736 h 106.25 v 2e-4 94.3613 0 h -106.25 v -2e-4 z"
       style="fill:#356184"
       id="path8507" />
    <path
       d="m 2161.65,110.51 h 106.25 v 0 0.002 0.001 94.359 0 0 0 h -106.25 v -0.001 -0.002 -0.001 z"
       style="fill:#5d809c;fill-opacity:1"
       id="path8853" />
    <path
       d="m 2158.84,243.894 h 106.24 v 0 l 0.01,0.002 v 0.001 94.359 0 h -0.01 v 0 h -106.24 v 0 -0.003 0 z"
       style="fill:#85a0b4;fill-opacity:1"
       id="path9203" />
    <path
       d="m 2158.84,377.277 h 106.24 v 0 l 0.01,0.003 v 0 94.358 0 h -0.01 v 0 h -106.24 v 0 -0.002 0 z"
       style="fill:#adbfcd;fill-opacity:1"
       id="path9557" />
    <path
       d="m 2158.84,510.66 h 106.24 v 0 l 0.01,0.002 v 0.001 94.359 0 h -0.01 v 0 h -106.24 v 0 -0.002 0 z"
       style="fill:#d6dfe6;fill-opacity:1"
       id="path9915" />
  </g>
  <g
     id="g30520"
     inkscape:label="shades"
     transform="rotate(-90,1947.0375,321.14366)"
     sodipodi:insensitive="true">
    <path
       id="rect9426"
       style="fill:#232729;fill-rule:evenodd;stroke-width:1.64541"
       d="m 789.92684,398.2185 h 73.80845 v 73.70225 h -73.80845 z" />
    <path
       id="rect9426-0-2-6"
       style="fill:#0c729f;fill-rule:evenodd;stroke-width:1.64541"
       d="m 1528.0323,398.21849 h 73.8084 v 73.70225 h -73.8084 z" />
    <path
       d="m 863.73729,398.21965 h 73.809 v 0 73.702 h -10e-4 -73.808 v 0 z"
       style="fill:#202e34;stroke-width:1.64541px"
       id="path83488" />
    <path
       d="m 937.54829,398.21965 h 73.80801 v 0 73.702 0 h -73.80801 v 0 z"
       style="fill:#1e3640;stroke-width:1.64541px"
       id="path83490" />
    <path
       d="m 1011.3583,398.21965 h 73.809 v 0 73.702 h -10e-4 -73.808 v 0 z"
       style="fill:#1c3d4c;stroke-width:1.64541px"
       id="path83492" />
    <path
       d="m 1085.1693,398.21965 h 73.808 v 0 73.702 h -10e-4 -73.807 v -10e-4 z"
       style="fill:#194558;stroke-width:1.64541px"
       id="path83494" />
    <path
       d="m 1158.9793,398.21965 h 73.809 v 0 73.702 h -10e-4 -73.808 v -10e-4 z"
       style="fill:#174c64;stroke-width:1.64541px"
       id="path83496" />
    <path
       d="m 1232.7903,398.21965 h 73.808 v 0 73.702 0 h -73.807 v -10e-4 z"
       style="fill:#15546f;stroke-width:1.64541px"
       id="path83498" />
    <path
       d="m 1306.6003,398.21965 h 73.809 v 0 73.702 h -10e-4 -73.808 v -10e-4 z"
       style="fill:#125b7b;stroke-width:1.64541px"
       id="path83500" />
    <path
       d="m 1380.4113,398.21965 h 73.808 v 0 73.702 h -10e-4 -73.807 v -10e-4 z"
       style="fill:#106387;stroke-width:1.64541px"
       id="path83502" />
    <path
       d="m 1454.2213,398.21965 h 73.809 v 0 73.702 h -10e-4 -73.808 v -10e-4 z"
       style="fill:#0e6a93;stroke-width:1.64541px"
       id="path83504" />
    <path
       id="rect9426-7"
       style="fill:#332c2c;fill-opacity:1;fill-rule:evenodd;stroke-width:1.64541"
       d="m 789.92735,840.44475 h 73.80844 v 73.70223 h -73.80844 z" />
    <path
       id="rect9426-0-2-6-1"
       style="fill:#b23133;fill-opacity:1;fill-rule:evenodd;stroke-width:1.64541"
       d="m 1528.0318,840.44474 h 73.8084 V 914.147 h -73.8084 z" />
    <path
       d="m 863.73779,840.44366 h 73.808 v 0 73.702 0 h -73.808 v 0 z"
       style="fill:#3f2c2c;fill-opacity:1;stroke-width:1.64541px"
       id="path85717" />
    <path
       d="m 937.54779,840.44366 h 73.80901 v 0 73.702 h -10e-4 -73.80801 v 0 z"
       style="fill:#4c2d2d;fill-opacity:1;stroke-width:1.64541px"
       id="path85719" />
    <path
       d="m 1011.3588,840.44366 h 73.808 v 0 73.702 h -10e-4 -73.807 v 0 z"
       style="fill:#592d2e;fill-opacity:1;stroke-width:1.64541px"
       id="path85721" />
    <path
       d="m 1085.1688,840.44366 h 73.809 v 0 73.702 h -10e-4 -73.808 v 0 z"
       style="fill:#652e2e;fill-opacity:1;stroke-width:1.64541px"
       id="path85723" />
    <path
       d="m 1158.9798,840.44366 h 73.808 v 0 73.702 h -10e-4 -73.807 v 0 z"
       style="fill:#722e2f;fill-opacity:1;stroke-width:1.64541px"
       id="path85725" />
    <path
       d="m 1232.7898,840.44366 h 73.808 v 9.9e-4 73.70101 0 h -73.808 v 0 z"
       style="fill:#7f2f30;fill-opacity:1;stroke-width:1.64541px"
       id="path85727" />
    <path
       d="m 1306.5998,840.44366 h 73.809 v 9.9e-4 73.70101 h -10e-4 -73.808 v 0 z"
       style="fill:#8b2f30;fill-opacity:1;stroke-width:1.64541px"
       id="path85729" />
    <path
       d="m 1380.4108,840.44366 h 73.808 v 9.9e-4 73.70101 0 h -73.807 v 0 z"
       style="fill:#983031;fill-opacity:1;stroke-width:1.64541px"
       id="path85731" />
    <path
       d="m 1454.2208,840.44366 h 73.809 v 9.9e-4 73.70101 h -10e-4 -73.808 v -10e-4 z"
       style="fill:#a53032;fill-opacity:1;stroke-width:1.64541px"
       id="path85733" />
    <path
       d="m 789.92479,471.92275 h 73.8081 v 10e-4 73.701 h -10e-4 -73.8071 v 0 z"
       style="fill:#252729;fill-opacity:1;stroke-width:1.64541px"
       id="path86439" />
    <path
       d="m 789.92479,545.62675 h 73.8081 v 10e-4 73.702 0 h -73.8081 v -10e-4 z"
       style="fill:#28282a;fill-opacity:1;stroke-width:1.64541px"
       id="path86441" />
    <path
       d="m 789.92489,619.33176 h 73.808 v 0 73.702 0 h -73.808 v -10e-4 z"
       style="fill:#2b292a;fill-opacity:1;stroke-width:1.64541px"
       id="path86443" />
    <path
       d="m 789.92499,693.03575 h 73.8089 v 0 73.702 h -10e-4 -73.8079 v 0 z"
       style="fill:#2d2a2b;fill-opacity:1;stroke-width:1.64541px"
       id="path86445" />
    <path
       d="m 789.92509,766.73975 h 73.8088 v 0 73.703 h -10e-4 -73.8078 v -0.001 z"
       style="fill:#302b2b;fill-opacity:1;stroke-width:1.64541px"
       id="path86447" />
    <path
       d="m 863.73589,471.92365 h 73.809 v 0 0 0 73.70201 h -10e-4 v 0 0 h -73.808 v 0 0 0 z"
       style="fill:#252d32;fill-opacity:1;stroke-width:1.64541px"
       id="path86732" />
    <path
       d="m 863.73589,545.62765 h 73.809 v 0 10e-4 0 73.701 h -10e-4 v 0 0 h -73.808 v 0 0 0 z"
       style="fill:#2a2d31;fill-opacity:1;stroke-width:1.64541px"
       id="path86734" />
    <path
       d="m 863.73589,619.33165 h 73.809 v 0 0 0 73.702 h -10e-4 v 0 0 h -73.808 v 0 -10e-4 0 z"
       style="fill:#2f2d30;fill-opacity:1;stroke-width:1.64541px"
       id="path86736" />
    <path
       d="m 863.73689,693.03566 h 73.808 v 0 9.9e-4 0 73.70101 0 0 h -10e-4 -73.807 v 0 0 -10e-4 z"
       style="fill:#342c2e;fill-opacity:1;stroke-width:1.64541px"
       id="path86738" />
    <path
       d="m 863.73689,766.73965 h 73.808 v 0 10e-4 0.001 73.7 0 0 h -10e-4 -73.807 v 0 0 -10e-4 z"
       style="fill:#392c2d;fill-opacity:1;stroke-width:1.64541px"
       id="path86740" />
    <path
       d="m 937.54689,471.92365 h 73.80801 v 0 10e-4 0 73.701 0 0 0 h -73.80701 v 0 -10e-4 0 z"
       style="fill:#25343c;fill-opacity:1;stroke-width:1.64541px"
       id="path87037" />
    <path
       d="m 937.54689,545.62765 h 73.80801 v 0 10e-4 0 73.701 0 0 0 h -73.80701 v 0 0 0 z"
       style="fill:#2d3339;fill-opacity:1;stroke-width:1.64541px"
       id="path87039" />
    <path
       d="m 937.54689,619.33165 h 73.80801 v 0 0 0 73.702 0 0 0 h -73.80701 v 0 -10e-4 0 z"
       style="fill:#353136;fill-opacity:1;stroke-width:1.64541px"
       id="path87041" />
    <path
       d="m 937.54689,693.03566 h 73.80901 v 0 0 9.9e-4 73.70101 h -10e-4 v 0 0 h -73.80701 v 0 0 0 z"
       style="fill:#3c3033;fill-opacity:1;stroke-width:1.64541px"
       id="path87043" />
    <path
       d="m 937.54689,766.73965 h 73.80901 v 0 10e-4 0 73.701 h -10e-4 v 0 0 h -73.80701 v 0 0 0 z"
       style="fill:#442e30;fill-opacity:1;stroke-width:1.64541px"
       id="path87045" />
    <path
       d="m 1011.3579,471.92365 h 73.809 v 0 0 0 73.70201 h -10e-4 v 0 h -10e-4 -73.807 v 0 0 0 z"
       style="fill:#263a47;fill-opacity:1;stroke-width:1.64541px"
       id="path87359" />
    <path
       d="m 1011.3579,545.62765 h 73.809 v 0 10e-4 0 73.701 h -10e-4 v 0 h -10e-4 -73.807 v 0 0 0 z"
       style="fill:#303742;fill-opacity:1;stroke-width:1.64541px"
       id="path87361" />
    <path
       d="m 1011.3579,619.33165 h 73.809 v 0 0 0 73.702 h -10e-4 v 0 0 h -73.808 v 0 -10e-4 0 z"
       style="fill:#3a353d;fill-opacity:1;stroke-width:1.64541px"
       id="path87363" />
    <path
       d="m 1011.3589,693.03566 h 73.808 v 0 9.9e-4 0 73.70101 h -10e-4 v 0 0 h -73.807 v 0 0 -10e-4 z"
       style="fill:#443238;fill-opacity:1;stroke-width:1.64541px"
       id="path87365" />
    <path
       d="m 1011.3589,766.73965 h 73.808 v 0 10e-4 0.001 73.7 h -10e-4 v 0 0 h -73.807 v 0 0 -10e-4 z"
       style="fill:#4e2f33;fill-opacity:1;stroke-width:1.64541px"
       id="path87367" />
    <path
       d="m 1085.1689,471.92365 h 73.808 v 0 10e-4 0 73.701 h -10e-4 v 0 0 h -73.807 v -10e-4 0 0 z"
       style="fill:#254151;fill-opacity:1;stroke-width:1.64541px"
       id="path87688" />
    <path
       d="m 1085.1689,545.62765 h 73.808 v 0 10e-4 0 73.701 0 h -10e-4 v 0 h -73.807 v 0 0 -9.9e-4 z"
       style="fill:#323d4a;fill-opacity:1;stroke-width:1.64541px"
       id="path87690" />
    <path
       d="m 1085.1689,619.33165 h 73.808 v 0 0 0 73.702 0 h -10e-4 v 0 h -73.807 v -10e-4 0 0 z"
       style="fill:#3f3943;fill-opacity:1;stroke-width:1.64541px"
       id="path87692" />
    <path
       d="m 1085.1689,693.03566 h 73.809 v 0 0 9.9e-4 73.70101 0 0 0 h -73.807 v 0 0 -10e-4 z"
       style="fill:#4b353c;fill-opacity:1;stroke-width:1.64541px"
       id="path87694" />
    <path
       d="m 1085.1689,766.73965 h 73.809 v 0 10e-4 0 73.701 0 0 0 h -73.807 v 0 0 0 z"
       style="fill:#583135;fill-opacity:1;stroke-width:1.64541px"
       id="path87696" />
    <path
       d="m 1158.9799,471.92365 h 73.809 v 0 0 0 73.70201 h -10e-4 v 0 h -10e-4 -73.807 v 0 0 -0.001 z"
       style="fill:#26475b;fill-opacity:1;stroke-width:1.64541px"
       id="path88029" />
    <path
       d="m 1158.9799,545.62765 h 73.809 v 0 10e-4 0 73.701 h -10e-4 v 0 h -10e-4 -73.807 v 0 0 -9.9e-4 z"
       style="fill:#354252;fill-opacity:1;stroke-width:1.64541px"
       id="path88031" />
    <path
       d="m 1158.9799,619.33165 h 73.809 v 0 0 0 73.702 h -10e-4 v 0 0 h -73.808 v 0 -10e-4 -10e-4 z"
       style="fill:#443d49;fill-opacity:1;stroke-width:1.64541px"
       id="path88033" />
    <path
       d="m 1158.9809,693.03566 h 73.808 v 0 9.9e-4 0 73.70101 h -10e-4 v 0 0 h -73.807 v 0 0 -0.002 z"
       style="fill:#533840;fill-opacity:1;stroke-width:1.64541px"
       id="path88035" />
    <path
       d="m 1158.9809,766.73965 h 73.808 v 0 10e-4 0.001 73.7 h -10e-4 v 0 0 h -73.807 v 0 0 -10e-4 z"
       style="fill:#623337;fill-opacity:1;stroke-width:1.64541px"
       id="path88037" />
    <path
       d="m 1232.7909,471.92365 h 73.808 v 0 10e-4 0.001 73.7 h -10e-4 v 0 0 h -73.807 v 0 0 -10e-4 z"
       style="fill:#264d64;fill-opacity:1;stroke-width:1.64541px"
       id="path88382" />
    <path
       d="m 1232.7909,545.62765 h 73.808 v 10e-4 0 10e-4 73.7 h -10e-4 v 0 0 h -73.807 v 0 0 -9.9e-4 z"
       style="fill:#38475a;fill-opacity:1;stroke-width:1.64541px"
       id="path88384" />
    <path
       d="m 1232.7909,619.33165 h 73.808 v 0 10e-4 0 73.701 h -10e-4 v 0 0 h -73.807 v 0 -10e-4 -10e-4 z"
       style="fill:#4a414f;fill-opacity:1;stroke-width:1.64541px"
       id="path88386" />
    <path
       d="m 1232.7909,693.03566 h 73.808 v 9.9e-4 0 0 73.70101 0 h -10e-4 -10e-4 -73.806 v 0 0 -0.002 z"
       style="fill:#5b3b45;fill-opacity:1;stroke-width:1.64541px"
       id="path88388" />
    <path
       d="m 1232.7909,766.73965 h 73.808 v 10e-4 0 0.001 73.7 0 h -10e-4 -10e-4 -73.806 v 0 0 -10e-4 z"
       style="fill:#6d353a;fill-opacity:1;stroke-width:1.64541px"
       id="path88390" />
    <path
       d="m 1306.6009,471.92365 h 73.809 v 0 10e-4 0.001 73.7 0 0 0 h -73.807 v -10e-4 0 0 z"
       style="fill:#26536e;fill-opacity:1;stroke-width:1.64541px"
       id="path88747" />
    <path
       d="m 1306.6009,545.62765 h 73.809 v 10e-4 0 10e-4 73.7 0 0 0 h -73.807 v 0 -9.9e-4 0 z"
       style="fill:#3a4c62;fill-opacity:1;stroke-width:1.64541px"
       id="path88749" />
    <path
       d="m 1306.6009,619.33165 h 73.809 v 0 10e-4 0 73.701 0 0 0 h -73.807 v -10e-4 0 -10e-4 z"
       style="fill:#4e4555;fill-opacity:1;stroke-width:1.64541px"
       id="path88751" />
    <path
       d="m 1306.6009,693.03566 h 73.809 v 9.9e-4 0 0 73.70101 0 0 0 h -73.807 v 0 -10e-4 -10e-4 z"
       style="fill:#623d49;fill-opacity:1;stroke-width:1.64541px"
       id="path88753" />
    <path
       d="m 1306.6009,766.73965 h 73.809 v 10e-4 0 0.001 73.7 0 0 0 h -73.807 v 0 0 -10e-4 z"
       style="fill:#76363c;fill-opacity:1;stroke-width:1.64541px"
       id="path88755" />
    <path
       d="m 1380.4119,471.92365 h 73.808 v 0 10e-4 0.001 73.7 h -10e-4 v 0 h -10e-4 -73.806 v -10e-4 0 0 z"
       style="fill:#265a78;fill-opacity:1;stroke-width:1.64541px"
       id="path89124" />
    <path
       d="m 1380.4119,545.62765 h 73.808 v 10e-4 0 10e-4 73.7 h -10e-4 v 0 h -10e-4 -73.806 v 0 -9.9e-4 0 z"
       style="fill:#3d526a;fill-opacity:1;stroke-width:1.64541px"
       id="path89126" />
    <path
       d="m 1380.4119,619.33165 h 73.808 v 0 10e-4 0 73.701 h -10e-4 v 0 h -10e-4 -73.806 v -10e-4 0 -10e-4 z"
       style="fill:#54495c;fill-opacity:1;stroke-width:1.64541px"
       id="path89128" />
    <path
       d="m 1380.4119,693.03566 h 73.808 v 9.9e-4 0 0 73.70101 h -10e-4 v 0 h -10e-4 -73.806 v 0 -10e-4 -10e-4 z"
       style="fill:#6a414d;fill-opacity:1;stroke-width:1.64541px"
       id="path89130" />
    <path
       d="m 1380.4119,766.73965 h 73.808 v 10e-4 0 0.001 73.7 h -10e-4 v 0 h -10e-4 -73.806 v 0 0 -10e-4 z"
       style="fill:#81383f;fill-opacity:1;stroke-width:1.64541px"
       id="path89132" />
    <path
       d="m 1454.2219,471.92365 h 73.809 v 0 10e-4 0.001 73.7 h -10e-4 v 0 h -10e-4 -73.807 v -10e-4 0 -10e-4 z"
       style="fill:#276082;fill-opacity:1;stroke-width:1.64541px"
       id="path89513" />
    <path
       d="m 1454.2219,545.62765 h 73.809 v 10e-4 0 10e-4 73.7 h -10e-4 v 0 h -10e-4 -73.807 v -9.9e-4 0 0 z"
       style="fill:#405672;fill-opacity:1;stroke-width:1.64541px"
       id="path89515" />
    <path
       d="m 1454.2219,619.33165 h 73.809 v 0 10e-4 0 73.701 h -10e-4 v 0 h -10e-4 -73.807 v -10e-4 0 -10e-4 z"
       style="fill:#594d62;fill-opacity:1;stroke-width:1.64541px"
       id="path89517" />
    <path
       d="m 1454.2219,693.03566 h 73.809 v 9.9e-4 0 0 73.70101 h -10e-4 v 0 h -10e-4 -73.807 v -10e-4 0 -10e-4 z"
       style="fill:#724352;fill-opacity:1;stroke-width:1.64541px"
       id="path89519" />
    <path
       d="m 1454.2219,766.73965 h 73.809 v 10e-4 0 0.001 73.7 h -10e-4 v 0 h -10e-4 -73.807 v -10e-4 0 0 z"
       style="fill:#8b3942;fill-opacity:1;stroke-width:1.64541px"
       id="path89521" />
    <path
       d="m 1528.0329,471.92274 h 73.809 v 0 73.70199 h -10e-4 -73.808 v 0 z"
       style="fill:#27678d;fill-opacity:1;stroke-width:1.64541px"
       id="path89914" />
    <path
       d="m 1528.0329,545.62673 h 73.809 v 0.001 73.70201 h -10e-4 -73.808 v -10e-4 z"
       style="fill:#435c7b;fill-opacity:1;stroke-width:1.64541px"
       id="path89916" />
    <path
       d="m 1528.0329,619.33176 h 73.808 v 0 73.702 0 h -73.808 v -10e-4 z"
       style="fill:#5f5169;fill-opacity:1;stroke-width:1.64541px"
       id="path89918" />
    <path
       d="m 1528.0329,693.03575 h 73.808 v 9.9e-4 73.70101 h -10e-4 -73.807 v 0 z"
       style="fill:#7a4657;fill-opacity:1;stroke-width:1.64541px"
       id="path89920" />
    <path
       d="m 1528.0329,766.73974 h 73.808 v 10e-4 73.702 h -10e-4 -73.807 v -10e-4 z"
       style="fill:#963b45;fill-opacity:1;stroke-width:1.64541px"
       id="path89922" />
  </g>
  <g
     id="g3273"
     transform="matrix(1.6142731,0,0,1.6142731,-584.42889,-653.31056)"
     inkscape:label="logo_horizontal">
    <g
       id="g4240"
       transform="matrix(0.61947387,0,0,0.61947387,378.58553,403.46987)"
       style="opacity:0.800885">
      <path
         id="path3922"
         style="fill:url(#radialGradient3928);fill-opacity:1;stroke-width:6.40026;stop-color:#000000"
         d="m 863.92405,955.62957 c 53.93659,1.02607 96.62949,36.22225 95.41369,78.65963 -1.2157,42.4373 -45.88086,76.0844 -99.82146,75.1974 -53.94061,-0.887 -96.95668,-35.9758 -95.73368,-78.6653 1.22301,-42.68934 46.20484,-76.21779 100.14145,-75.19173 z"
         sodipodi:nodetypes="sssss" />
      <path
         id="path3924"
         style="fill:url(#radialGradient3930);fill-opacity:1;stroke-width:6.70465;stop-color:#000000"
         d="m 982.48461,967.6578 c 68.00639,0.89311 121.83609,31.5258 120.30319,68.4607 -1.5329,36.9349 -57.8492,66.2194 -125.86079,65.4474 -68.01152,-0.772 -122.24864,-31.3112 -120.70666,-68.4656 1.542,-37.15433 58.25781,-66.33548 126.26426,-65.4425 z"
         sodipodi:nodetypes="sssss" />
    </g>
    <g
       id="g3943"
       transform="matrix(0.61947387,0,0,0.61947387,378.58553,403.46987)"
       style="opacity:0.905833">
      <path
         id="path3314"
         style="fill:url(#radialGradient3875);fill-opacity:1;stroke-width:3.92666;stop-color:#000000"
         d="m 855.52897,980.66784 c 28.25183,0.73737 50.61424,26.02946 49.97743,56.52526 -0.63679,30.4957 -24.03227,54.6746 -52.2862,54.0373 -28.25393,-0.6375 -50.78562,-25.8524 -50.14501,-56.5294 0.6406,-30.6767 24.20195,-54.77043 52.45378,-54.03316 z"
         sodipodi:nodetypes="sssss" />
      <path
         id="path3314-5"
         style="fill:url(#radialGradient3875-3);fill-opacity:1;stroke-width:4.44892;stop-color:#000000"
         d="m 979.59844,992.97833 c 50.29086,0.53177 90.09786,18.77077 88.96436,40.76217 -1.1337,21.9914 -42.7796,39.4277 -93.07423,38.9681 -50.29458,-0.4596 -90.40298,-18.643 -89.26269,-40.7651 1.14031,-22.1221 43.08171,-39.49685 93.37256,-38.96517 z"
         sodipodi:nodetypes="sssss" />
    </g>
    <g
       id="g3086"
       transform="matrix(0.61207793,0,0,0.61207793,936.46148,967.76031)"
       style="fill:#85a0b4;fill-opacity:1">
      <path
         i:knockout="Off"
         d="m 13.437,125.506 c -0.045,0.047 -0.045,7.506 -0.138,9.453 -0.092,1.574 -0.232,4.957 -3.568,4.957 -3.429,0 -4.263,-3.939 -4.541,-5.652 -0.324,-1.9 -0.324,-3.477 -0.324,-4.17 0,-2.225 0.139,-8.436 5.375,-8.436 1.576,0 2.456,0.465 3.151,0.834 z M 0,130.975 c 0,13.066 6.951,13.066 7.97,13.066 2.873,0 4.727,-1.576 5.514,-4.309 l 0.093,4.123 c 0.881,-0.047 1.761,-0.139 3.197,-0.139 0.51,0 0.926,0 1.298,0.047 0.371,0 0.741,0.045 1.158,0.092 -0.741,-1.482 -1.297,-4.818 -1.297,-12.049 0,-7.043 0,-18.951 0.602,-22.566 -1.667,0.789 -3.105,1.299 -6.256,1.576 1.251,1.344 1.251,2.039 1.251,8.154 -0.879,-0.277 -1.992,-0.602 -3.892,-0.602 C 1.344,118.369 0,125.598 0,130.975"
         id="path3072"
         style="fill:#85a0b4;fill-opacity:1" />
      <path
         i:knockout="Off"
         d="m 25.13,128.609 c 0.047,-3.846 0.835,-7.275 4.124,-7.275 3.615,0 3.891,3.984 3.799,7.275 z m 12.51,0.465 c 0,-5.422 -1.065,-10.752 -7.923,-10.752 -9.452,0 -9.452,10.475 -9.452,12.697 0,9.406 4.216,13.113 11.306,13.113 3.149,0 4.68,-0.461 5.514,-0.695 -0.046,-1.668 0.185,-2.734 0.465,-4.17 -0.975,0.604 -2.226,1.391 -5.006,1.391 -7.229,0 -7.322,-6.582 -7.322,-8.852 H 37.55 l 0.09,-2.732"
         id="path3074"
         style="fill:#85a0b4;fill-opacity:1" />
      <path
         i:knockout="Off"
         d="m 52.715,131.066 c 0,4.309 -0.787,10.102 -6.162,10.102 -0.742,0 -1.668,-0.141 -2.27,-0.279 -0.093,-1.668 -0.093,-4.541 -0.093,-7.877 0,-3.986 0.416,-6.068 0.742,-7.09 0.972,-3.289 3.15,-3.334 3.566,-3.334 3.522,0 4.217,4.865 4.217,8.478 z m -13.298,5.051 c 0,3.43 0,5.375 -0.556,6.857 1.9,0.742 4.262,1.158 7.09,1.158 1.807,0 7.043,0 9.869,-5.791 1.344,-2.688 1.807,-6.303 1.807,-9.037 0,-1.668 -0.186,-5.328 -1.529,-7.646 -1.296,-2.176 -3.382,-3.289 -5.605,-3.289 -4.449,0 -5.746,3.707 -6.44,5.607 0,-2.363 0.045,-10.611 0.415,-14.828 -3.011,1.391 -4.866,1.621 -6.857,1.807 1.807,0.74 1.807,3.801 1.807,13.764 v 11.398"
         id="path3076"
         style="fill:#85a0b4;fill-opacity:1" />
      <path
         i:knockout="Off"
         d="m 66.535,143.855 c -0.928,-0.139 -1.578,-0.232 -2.922,-0.232 -1.48,0 -2.502,0.094 -3.566,0.232 0.463,-0.881 0.648,-1.299 0.787,-4.309 0.186,-4.125 0.232,-15.154 -0.092,-17.471 -0.232,-1.762 -0.648,-2.039 -1.297,-2.502 3.799,-0.371 4.865,-0.648 6.625,-1.482 -0.369,2.037 -0.418,3.059 -0.418,6.162 -0.091,15.989 -0.138,17.702 0.883,19.602"
         id="path3078"
         style="fill:#85a0b4;fill-opacity:1" />
      <path
         i:knockout="Off"
         d="m 81.373,130.74 c -0.092,2.92 -0.139,4.959 -0.928,6.58 -0.973,2.086 -2.594,2.688 -3.799,2.688 -2.783,0 -3.383,-2.316 -3.383,-4.586 0,-4.355 3.893,-4.682 5.652,-4.682 z m -12.744,5.701 c 0,2.92 0.881,5.838 3.477,7.09 1.158,0.51 2.316,0.51 2.688,0.51 4.264,0 5.699,-3.152 6.58,-5.098 -0.047,2.039 0,3.289 0.139,4.912 0.834,-0.047 1.668,-0.139 3.059,-0.139 0.787,0 1.529,0.092 2.316,0.139 -0.51,-0.787 -0.787,-1.252 -0.928,-3.059 -0.092,-1.76 -0.092,-3.521 -0.092,-5.977 l 0.047,-9.453 c 0,-3.523 -0.928,-6.998 -7.879,-6.998 -4.586,0 -7.273,1.391 -8.617,2.086 0.557,1.02 1.02,1.898 1.436,3.893 1.809,-1.576 4.172,-2.41 6.58,-2.41 3.848,0 3.848,2.549 3.848,6.162 -0.881,-0.045 -1.623,-0.137 -2.875,-0.137 -5.887,10e-4 -9.779,2.268 -9.779,8.479"
         id="path3080"
         style="fill:#85a0b4;fill-opacity:1" />
      <path
         i:knockout="Off"
         d="m 108.063,139.268 c 0.047,1.576 0.047,3.244 0.695,4.588 -1.021,-0.092 -1.623,-0.232 -3.521,-0.232 -1.113,0 -1.715,0.094 -2.596,0.232 0.184,-0.602 0.279,-0.834 0.371,-1.623 0.139,-1.064 0.232,-4.633 0.232,-5.885 v -5.004 c 0,-2.178 0,-5.33 -0.141,-6.441 -0.092,-0.787 -0.322,-2.918 -3.012,-2.918 -2.641,0 -3.521,1.945 -3.846,3.521 -0.369,1.621 -0.369,3.383 -0.369,10.24 0.045,5.932 0.045,6.486 0.508,8.109 -0.787,-0.092 -1.76,-0.184 -3.15,-0.184 -1.113,0 -1.854,0.045 -2.779,0.184 0.324,-0.742 0.51,-1.113 0.602,-3.707 0.094,-2.549 0.279,-15.061 -0.141,-18.025 -0.23,-1.809 -0.695,-2.225 -1.203,-2.688 3.754,-0.186 4.957,-0.789 6.117,-1.389 v 4.91 c 0.555,-1.438 1.713,-4.635 6.348,-4.635 5.793,0 5.838,4.217 5.885,6.996 v 13.951"
         id="path3082"
         style="fill:#85a0b4;fill-opacity:1" />
      <path
         i:knockout="Off"
         fill="#85a0b4"
         d="m 66.926,111.533 -3.838,3.836 -3.836,-3.836 3.836,-3.836 3.838,3.836"
         id="path3084"
         style="fill:#85a0b4;fill-opacity:1" />
    </g>
    <g
       id="g3258"
       transform="matrix(0.89684088,0,0,0.85199883,109.15354,152.43201)">
      <path
         d="m 1008.9107,1051.1401 q 0,0.8305 0,1.538 0,0.6767 0,1.3534 0.031,0.6768 0.031,1.415 0.031,0.7075 0.062,1.5688 0.031,0.7382 0.062,1.2304 0.061,0.4921 0.1231,0.8305 0.092,0.3384 0.1845,0.5845 0.092,0.2153 0.1846,0.4306 -0.6152,-0.062 -1.415,-0.092 -0.769,-0.062 -1.5688,-0.062 -0.6152,0 -1.1688,0.031 -0.5537,0.031 -1.2612,0.123 0.092,-0.3076 0.1538,-0.5844 0.092,-0.2769 0.1538,-0.6767 0.062,-0.4307 0.092,-1.0767 0.031,-0.6459 0.061,-1.7225 l 0.062,-4.3065 v -4.614 q 0,-2.0302 -0.031,-3.2606 -0.031,-1.2304 -0.092,-1.4765 -0.9843,0.3384 -1.8764,0.7075 -0.892,0.3691 -1.7225,0.892 l 0.062,-1.0151 q 0,-0.6459 -0.062,-1.0766 -0.031,-0.4614 -0.092,-0.7997 0.523,-0.1231 1.5073,-0.3692 0.9843,-0.246 2.1532,-0.6152 1.1997,-0.3998 2.3993,-0.9228 1.2304,-0.5229 2.2148,-1.1689 -0.062,0.7383 -0.1231,1.3227 -0.031,0.5537 -0.062,1.415 0,0.8613 -0.031,2.307 0,1.4458 0,3.9373 z"
         style="font-weight:bold;font-size:24.8469px;font-family:Poppl-Laudatio;-inkscape-font-specification:'Poppl-Laudatio, Bold';white-space:pre;fill:#85a0b4;stroke:none;stroke-width:9.01383"
         id="path3249" />
      <path
         d="m 1016.2305,1038.3745 q 0.8921,0 1.6611,0.092 0.7997,0.092 1.5072,0.3383 0.3384,0.1231 0.8613,0.4307 0.5537,0.2768 1.0766,0.8613 0.5229,0.5536 0.8921,1.4149 0.3999,0.8613 0.3999,2.1533 0,0.769 -0.2154,1.5687 -0.1845,0.7998 -0.6459,1.5073 -0.4614,0.6767 -1.1997,1.1996 -0.7382,0.523 -1.7841,0.7383 l -0.6767,0.123 0.7075,0.092 q 2.3993,0.3998 3.5374,1.661 1.1689,1.2612 1.1689,3.3837 0,1.6303 -0.6152,2.8299 -0.5845,1.1689 -1.3842,1.8764 -0.8921,0.7998 -2.3686,1.2304 -1.4457,0.4306 -3.3221,0.4306 -0.1845,0 -0.6767,-0.031 -0.4922,0 -1.1689,-0.061 -0.6767,-0.062 -1.4457,-0.1846 -0.7383,-0.123 -1.4765,-0.3691 0.123,-0.3999 0.2153,-0.769 0.1231,-0.3691 0.1846,-0.769 0.092,-0.4306 0.123,-0.9228 0.062,-0.4922 0.1231,-1.1689 0.769,0.6152 1.6918,0.8613 0.9536,0.2461 1.9379,0.2461 0.9536,0 1.6303,-0.2769 0.6767,-0.2768 1.1074,-0.7075 0.4306,-0.4614 0.6152,-1.015 0.1845,-0.5845 0.1845,-1.1689 0,-1.0151 -0.3998,-1.6303 -0.3999,-0.646 -1.0459,-1.0151 -0.6152,-0.3691 -1.415,-0.4922 -0.7997,-0.123 -1.6303,-0.123 -0.7997,0 -1.1689,0.062 -0.3691,0.031 -0.7997,0.092 0.031,-0.3999 0.031,-0.769 0.031,-0.3691 0.031,-0.769 -0.031,-0.4306 -0.031,-0.7998 0,-0.3998 -0.031,-0.8305 0.2461,0.031 0.4921,0.062 0.2461,0 0.646,0 0.3999,0 1.1689,-0.031 0.769,-0.062 1.538,-0.3691 0.769,-0.3076 1.3227,-0.9536 0.5844,-0.6459 0.5844,-1.8456 0,-1.2304 -0.8305,-2.0609 -0.7997,-0.8613 -2.5223,-0.8613 -1.3227,0 -1.9994,0.3076 -0.6768,0.3076 -1.0459,0.5537 0.1846,-1.415 0.2153,-2.184 0.031,-0.769 0,-1.4458 0.8306,-0.1845 1.7841,-0.3383 0.9844,-0.1538 2.4609,-0.1538 z"
         style="font-weight:bold;font-size:24.8469px;font-family:Poppl-Laudatio;-inkscape-font-specification:'Poppl-Laudatio, Bold';white-space:pre;fill:#85a0b4;stroke:none;stroke-width:9.01383"
         id="path3251" />
    </g>
    <g
       id="g3070"
       transform="matrix(0.37916628,0,0,0.37916628,891.76614,1029.4072)"
       style="fill:#85a0b4;fill-opacity:1">
      <path
         i:knockout="Off"
         fill="#85a0b4"
         d="m 60.969,47.645 c -1.494,0.02 0.281,0.768 2.232,1.069 0.541,-0.422 1.027,-0.846 1.463,-1.26 -1.213,0.297 -2.449,0.304 -3.695,0.191"
         id="path3046"
         style="fill:#85a0b4;fill-opacity:1" />
      <path
         i:knockout="Off"
         fill="#85a0b4"
         d="m 68.986,45.646 c 0.893,-1.229 1.541,-2.573 1.77,-3.963 -0.201,0.99 -0.736,1.845 -1.244,2.749 -2.793,1.759 -0.264,-1.044 -0.002,-2.111 -3.002,3.783 -0.414,2.268 -0.524,3.325"
         id="path3048"
         style="fill:#85a0b4;fill-opacity:1" />
      <path
         i:knockout="Off"
         fill="#85a0b4"
         d="m 71.949,37.942 c 0.182,-2.691 -0.529,-1.839 -0.768,-0.814 0.278,0.146 0.499,1.898 0.768,0.814"
         id="path3050"
         style="fill:#85a0b4;fill-opacity:1" />
      <path
         i:knockout="Off"
         fill="#85a0b4"
         d="m 55.301,1.163 c 0.798,0.142 1.724,0.252 1.591,0.443 0.876,-0.193 1.073,-0.367 -1.591,-0.443"
         id="path3052"
         style="fill:#85a0b4;fill-opacity:1" />
      <path
         i:knockout="Off"
         fill="#85a0b4"
         d="M 56.893,1.606 56.332,1.723 56.855,1.675 56.893,1.606"
         id="path3054"
         style="fill:#85a0b4;fill-opacity:1" />
      <path
         i:knockout="Off"
         fill="#85a0b4"
         d="m 81.762,38.962 c 0.09,2.416 -0.705,3.59 -1.424,5.666 l -1.293,0.643 c -1.057,2.054 0.105,1.304 -0.652,2.937 -1.652,1.467 -5.006,4.589 -6.08,4.875 -0.785,-0.017 0.531,-0.926 0.703,-1.281 -2.209,1.516 -1.773,2.276 -5.152,3.199 L 67.766,54.78 c -8.33,3.92 -19.902,-3.847 -19.75,-14.443 -0.088,0.672 -0.253,0.504 -0.437,0.774 -0.43,-5.451 2.518,-10.926 7.49,-13.165 4.863,-2.406 10.564,-1.42 14.045,1.829 -1.912,-2.506 -5.721,-5.163 -10.232,-4.917 -4.421,0.072 -8.558,2.881 -9.938,5.932 -2.264,1.425 -2.528,5.496 -3.514,6.242 -1.329,9.76 2.497,13.975 8.97,18.936 1.016,0.686 0.286,0.791 0.422,1.313 -2.15,-1.006 -4.118,-2.526 -5.738,-4.387 0.86,1.257 1.787,2.479 2.986,3.439 -2.029,-0.685 -4.738,-4.913 -5.527,-5.085 3.495,6.258 14.178,10.975 19.775,8.634 -2.59,0.096 -5.879,0.053 -8.787,-1.022 -1.225,-0.629 -2.884,-1.93 -2.587,-2.173 7.636,2.851 15.522,2.158 22.128,-3.137 1.682,-1.31 3.518,-3.537 4.049,-3.567 -0.799,1.202 0.137,0.578 -0.477,1.639 1.672,-2.701 -0.729,-1.1 1.73,-4.664 l 0.908,1.25 c -0.34,-2.244 2.785,-4.966 2.467,-8.512 0.717,-1.084 0.799,1.168 0.039,3.662 1.055,-2.767 0.279,-3.212 0.549,-5.496 0.291,0.768 0.678,1.583 0.875,2.394 -0.688,-2.675 0.703,-4.503 1.049,-6.058 -0.342,-0.15 -1.061,1.182 -1.227,-1.976 0.025,-1.372 0.383,-0.719 0.52,-1.057 -0.268,-0.155 -0.975,-1.207 -1.404,-3.224 0.309,-0.475 0.832,1.229 1.256,1.298 -0.273,-1.603 -0.742,-2.826 -0.762,-4.057 -1.24,-2.59 -0.439,0.346 -1.443,-1.112 -1.32,-4.114 1.094,-0.955 1.258,-2.823 1.998,2.895 3.137,7.385 3.662,9.244 -0.4,-2.267 -1.045,-4.464 -1.834,-6.589 0.609,0.257 -0.979,-4.663 0.791,-1.405 C 87.189,15.552 81,9.062 75.305,6.018 76,6.655 76.879,7.455 76.565,7.581 73.731,5.896 74.229,5.763 73.823,5.051 71.518,4.112 71.364,5.128 69.839,5.053 65.489,2.745 64.651,2.99 60.648,1.546 L 60.83,2.398 C 57.949,1.438 57.473,2.76 54.36,2.4 54.171,2.253 55.358,1.864 56.336,1.723 53.55,2.091 53.68,1.173 50.954,1.824 51.625,1.353 52.337,1.04 53.053,0.64 50.782,0.778 47.629,1.962 48.602,0.884 44.897,2.538 38.316,4.859 34.623,8.322 L 34.507,7.546 c -1.692,2.031 -7.379,6.066 -7.832,8.699 l -0.453,0.105 c -0.879,1.491 -1.45,3.18 -2.148,4.713 -1.151,1.963 -1.688,0.756 -1.524,1.064 -2.265,4.592 -3.392,8.45 -4.363,11.616 0.692,1.035 0.017,6.232 0.278,10.391 -1.136,20.544 14.418,40.489 31.42,45.093 2.492,0.893 6.197,0.861 9.349,0.949 -3.718,-1.064 -4.198,-0.563 -7.822,-1.826 -2.613,-1.232 -3.185,-2.637 -5.037,-4.244 l 0.733,1.295 c -3.63,-1.285 -2.111,-1.59 -5.065,-2.525 l 0.783,-1.021 c -1.177,-0.09 -3.117,-1.982 -3.647,-3.033 l -1.288,0.051 c -1.546,-1.906 -2.371,-3.283 -2.31,-4.35 l -0.416,0.742 c -0.471,-0.809 -5.691,-7.158 -2.983,-5.68 -0.503,-0.458 -1.172,-0.747 -1.897,-2.066 l 0.551,-0.629 c -1.301,-1.677 -2.398,-3.826 -2.314,-4.542 0.695,0.938 1.177,1.114 1.655,1.275 -3.291,-8.164 -3.476,-0.449 -5.967,-8.31 l 0.526,-0.042 c -0.403,-0.611 -0.65,-1.27 -0.974,-1.919 l 0.23,-2.285 c -2.368,-2.736 -0.662,-11.645 -0.319,-16.53 0.235,-1.986 1.977,-4.101 3.3,-7.418 l -0.806,-0.138 c 1.542,-2.688 8.802,-10.799 12.166,-10.383 1.629,-2.046 -0.324,-0.008 -0.643,-0.522 3.579,-3.703 4.704,-2.616 7.119,-3.283 2.603,-1.545 -2.235,0.604 -1.001,-0.589 4.503,-1.149 3.19,-2.614 9.063,-3.197 0.62,0.352 -1.437,0.544 -1.953,1.001 3.75,-1.836 11.869,-1.417 17.145,1.018 6.117,2.861 12.994,11.314 13.266,19.267 l 0.309,0.083 c -0.156,3.162 0.484,6.819 -0.627,10.177 l 0.751,-1.591"
         id="path3056"
         style="fill:#85a0b4;fill-opacity:1" />
      <path
         i:knockout="Off"
         fill="#85a0b4"
         d="m 44.658,49.695 -0.211,1.047 c 0.983,1.335 1.763,2.781 3.016,3.821 -0.902,-1.759 -1.571,-2.486 -2.805,-4.868"
         id="path3058"
         style="fill:#85a0b4;fill-opacity:1" />
      <path
         i:knockout="Off"
         fill="#85a0b4"
         d="m 46.979,49.605 c -0.52,-0.576 -0.826,-1.268 -1.172,-1.956 0.33,1.211 1.006,2.252 1.633,3.312 l -0.461,-1.356"
         id="path3060"
         style="fill:#85a0b4;fill-opacity:1" />
      <path
         i:knockout="Off"
         fill="#85a0b4"
         d="m 88.063,40.675 -0.219,0.552 c -0.402,2.858 -1.273,5.686 -2.605,8.309 1.472,-2.767 2.421,-5.794 2.824,-8.861"
         id="path3062"
         style="fill:#85a0b4;fill-opacity:1" />
      <path
         i:knockout="Off"
         fill="#85a0b4"
         d="M 55.598,0.446 C 56.607,0.077 58.08,0.243 59.154,0 57.756,0.117 56.365,0.187 54.992,0.362 l 0.606,0.084"
         id="path3064"
         style="fill:#85a0b4;fill-opacity:1" />
      <path
         i:knockout="Off"
         fill="#85a0b4"
         d="m 20.127,19.308 c 0.233,2.154 -1.62,2.991 0.41,1.569 1.09,-2.454 -0.424,-0.677 -0.41,-1.569"
         id="path3066"
         style="fill:#85a0b4;fill-opacity:1" />
      <path
         i:knockout="Off"
         fill="#85a0b4"
         d="m 17.739,29.282 c 0.469,-1.437 0.553,-2.299 0.732,-3.132 -1.293,1.654 -0.596,2.007 -0.732,3.132"
         id="path3068"
         style="fill:#85a0b4;fill-opacity:1" />
    </g>
  </g>
</svg>
