<?xml version="1.0" encoding="UTF-8" standalone="no"?>
<!-- Created with Inkscape (http://www.inkscape.org/) -->

<svg
   width="1920"
   height="1200"
   viewBox="0 0 1920 1200"
   version="1.1"
   id="svg5"
   xmlns:xlink="http://www.w3.org/1999/xlink"
   xmlns="http://www.w3.org/2000/svg"
   xmlns:svg="http://www.w3.org/2000/svg">
  <defs
     id="defs2">
    <linearGradient
       id="linearGradient8683">
      <stop
         style="stop-color:#276082;stop-opacity:1;"
         offset="0"
         id="stop8679" />
      <stop
         style="stop-color:#276082;stop-opacity:0.1;"
         offset="1"
         id="stop8681" />
    </linearGradient>
    <linearGradient
       id="linearGradient8672">
      <stop
         style="stop-color:#276082;stop-opacity:1;"
         offset="0"
         id="stop8668" />
      <stop
         style="stop-color:#276082;stop-opacity:0;"
         offset="1"
         id="stop8670" />
    </linearGradient>
    <linearGradient
       id="linearGradient8656">
      <stop
         style="stop-color:#27678d;stop-opacity:1;"
         offset="0"
         id="stop8652" />
      <stop
         style="stop-color:#27678d;stop-opacity:0.1;"
         offset="1"
         id="stop8654" />
    </linearGradient>
    <linearGradient
       id="linearGradient8635">
      <stop
         style="stop-color:#27678d;stop-opacity:1;"
         offset="0"
         id="stop8631" />
      <stop
         style="stop-color:#27678d;stop-opacity:0.1;"
         offset="1"
         id="stop8633" />
    </linearGradient>
    <linearGradient
       xlink:href="#linearGradient8635"
       id="linearGradient8637"
       x1="1587.8999"
       y1="985.90625"
       x2="1807.2351"
       y2="1199.8981"
       gradientUnits="userSpaceOnUse" />
    <linearGradient
       xlink:href="#linearGradient8635"
       id="linearGradient8642"
       gradientUnits="userSpaceOnUse"
       x1="1839.6475"
       y1="782.61523"
       x2="1896.6747"
       y2="1050.5085" />
    <linearGradient
       xlink:href="#linearGradient8656"
       id="linearGradient8658"
       x1="1174.4741"
       y1="1149.8063"
       x2="1416.677"
       y2="1302.7545"
       gradientUnits="userSpaceOnUse" />
    <linearGradient
       xlink:href="#linearGradient8656"
       id="linearGradient8663"
       gradientUnits="userSpaceOnUse"
       x1="1301.2402"
       y1="1048.896"
       x2="1301.2402"
       y2="1200.0066" />
    <linearGradient
       xlink:href="#linearGradient8672"
       id="linearGradient8674"
       x1="1345.4341"
       y1="1131.3213"
       x2="1229.2056"
       y2="1243.3553"
       gradientUnits="userSpaceOnUse" />
    <linearGradient
       xlink:href="#linearGradient8683"
       id="linearGradient8685"
       x1="147.64552"
       y1="747.56775"
       x2="113.75624"
       y2="1014.0624"
       gradientUnits="userSpaceOnUse" />
    <linearGradient
       xlink:href="#linearGradient8683"
       id="linearGradient8689"
       gradientUnits="userSpaceOnUse"
       x1="665.0174"
       y1="827.82208"
       x2="515.90344"
       y2="1203.8468" />
    <linearGradient
       xlink:href="#linearGradient8683"
       id="linearGradient8693"
       gradientUnits="userSpaceOnUse"
       x1="1001.4973"
       y1="989.62463"
       x2="841.17627"
       y2="1187.9165" />
  </defs>
  <g
     id="layer2">
    <path
       id="rect2585"
       style="display:inline;fill:#25343c;fill-rule:evenodd;fill-opacity:1"
       d="M 0,0 H 1920 V 1200 H 0 Z" />
  </g>
  <g
     id="layer5">
    <path
       style="display:inline;fill:#276082;fill-opacity:1;stroke-width:7.281"
       d="m 0,523.33804 c 44.526673,19.54793 112.61424,33.67664 169.11719,39.77852 50.78766,5.48468 102.03269,1.19873 153.08008,-0.70703 51.04819,-1.90579 103.13402,-1.09453 151.74218,14.61524 45.30159,14.64111 85.47753,41.52642 125.01563,68.04687 39.53819,26.52051 79.77743,53.33517 125.13672,67.79688 42.72964,13.62331 88.25706,15.6944 133.10035,14.99023 44.84329,-0.70416 89.74987,-4.06997 134.48558,-0.88672 92.86617,6.60806 183.47927,42.21728 255.91997,100.69922 68.2633,55.10945 119.1165,128.38434 179.4863,192.04295 70.4011,74.2364 154.5404,135.6346 246.5928,180.2858 H 0 Z"
       id="path8463" />
    <g
       id="g8888">
      <path
         id="path8598"
         style="display:inline;fill:#26536e;fill-opacity:1;stroke-width:7.281"
         d="M 0,523.33789 V 1200 h 900.625 c 17.12717,-73.9534 134.374,-164.6989 186.6973,-193.2969 64.3452,-35.16874 136.0283,-59.15234 191.3847,-107.24412 7.925,-6.88493 15.3837,-14.22948 22.5332,-21.87304 -16.9395,-17.62492 -34.5726,-34.51877 -53.6425,-49.91406 -72.4407,-58.48189 -163.0539,-94.09117 -255.91997,-100.69922 -44.73566,-3.18325 -89.64308,0.18256 -134.48632,0.88672 -44.84325,0.70416 -90.37002,-1.36694 -133.09961,-14.99024 C 678.73255,698.40745 638.49323,671.59275 598.95508,645.07227 559.41702,618.55184 519.241,591.66649 473.93945,577.02539 425.33134,561.31564 373.2454,560.50437 322.19727,562.41016 271.14993,564.31591 219.9048,568.60186 169.11719,563.11719 112.61429,557.01531 44.526628,542.8858 0,523.33789 Z" />
      <path
         id="path8677"
         style="display:inline;fill:url(#linearGradient8685);fill-opacity:1;stroke-width:7.281"
         d="M 0,523.33789 V 1200 h 900.625 c 17.12717,-73.9534 134.374,-164.6989 186.6973,-193.2969 64.3452,-35.16874 136.0283,-59.15234 191.3847,-107.24412 7.925,-6.88493 15.3837,-14.22948 22.5332,-21.87304 -16.9395,-17.62492 -34.5726,-34.51877 -53.6425,-49.91406 -72.4407,-58.48189 -163.0539,-94.09117 -255.91997,-100.69922 -44.73566,-3.18325 -89.64308,0.18256 -134.48632,0.88672 -44.84325,0.70416 -90.37002,-1.36694 -133.09961,-14.99024 C 678.73255,698.40745 638.49323,671.59275 598.95508,645.07227 559.41702,618.55184 519.241,591.66649 473.93945,577.02539 425.33134,561.31564 373.2454,560.50437 322.19727,562.41016 271.14993,564.31591 219.9048,568.60186 169.11719,563.11719 112.61429,557.01531 44.526628,542.8858 0,523.33789 Z" />
      <path
         id="path8687"
         style="display:inline;fill:url(#linearGradient8689);fill-opacity:1;stroke-width:7.281"
         d="M 0,523.33789 V 1200 h 900.625 c 17.12717,-73.9534 134.374,-164.6989 186.6973,-193.2969 64.3452,-35.16874 136.0283,-59.15234 191.3847,-107.24412 7.925,-6.88493 15.3837,-14.22948 22.5332,-21.87304 -16.9395,-17.62492 -34.5726,-34.51877 -53.6425,-49.91406 -72.4407,-58.48189 -163.0539,-94.09117 -255.91997,-100.69922 -44.73566,-3.18325 -89.64308,0.18256 -134.48632,0.88672 -44.84325,0.70416 -90.37002,-1.36694 -133.09961,-14.99024 C 678.73255,698.40745 638.49323,671.59275 598.95508,645.07227 559.41702,618.55184 519.241,591.66649 473.93945,577.02539 425.33134,561.31564 373.2454,560.50437 322.19727,562.41016 271.14993,564.31591 219.9048,568.60186 169.11719,563.11719 112.61429,557.01531 44.526628,542.8858 0,523.33789 Z" />
      <path
         id="path8691"
         style="display:inline;fill:url(#linearGradient8693);fill-opacity:1;stroke-width:7.281"
         d="M 0,523.33789 V 1200 h 900.625 c 17.12717,-73.9534 134.374,-164.6989 186.6973,-193.2969 64.3452,-35.16874 136.0283,-59.15234 191.3847,-107.24412 7.925,-6.88493 15.3837,-14.22948 22.5332,-21.87304 -16.9395,-17.62492 -34.5726,-34.51877 -53.6425,-49.91406 -72.4407,-58.48189 -163.0539,-94.09117 -255.91997,-100.69922 -44.73566,-3.18325 -89.64308,0.18256 -134.48632,0.88672 -44.84325,0.70416 -90.37002,-1.36694 -133.09961,-14.99024 C 678.73255,698.40745 638.49323,671.59275 598.95508,645.07227 559.41702,618.55184 519.241,591.66649 473.93945,577.02539 425.33134,561.31564 373.2454,560.50437 322.19727,562.41016 271.14993,564.31591 219.9048,568.60186 169.11719,563.11719 112.61429,557.01531 44.526628,542.8858 0,523.33789 Z" />
    </g>
  </g>
  <g
     id="layer7">
    <path
       id="path8460"
       style="display:inline;fill:#27678d;fill-opacity:1;stroke:none;stroke-width:7.281"
       d="m 1920,483.03317 c -29.9084,26.24412 -63.0187,46.1014 -97.2695,66.35355 -46.6761,27.599 -96.8099,49.21965 -148.6114,65.25 -38.3651,11.87239 -77.632,20.6947 -115.8906,32.90625 -38.2585,12.21154 -75.8891,28.05936 -107.8008,52.44141 -34.9719,26.72023 -61.6957,62.57134 -87.3672,98.32031 -25.6713,35.74896 -51.129,72.29007 -84.3535,101.15429 -55.3565,48.09182 -127.0394,72.07532 -191.3847,107.24412 -52.3233,28.598 -169.56982,119.3434 -186.69701,193.2969 336.46171,-2.4419 709.18311,0.2189 1019.37471,0 z" />
    <g
       id="g8647">
      <path
         id="path8466"
         style="display:inline;fill:#26536e;fill-opacity:1;stroke:none;stroke-width:7.281"
         d="M 1920 483.0332 C 1890.0916 509.2773 1856.9812 529.13459 1822.7305 549.38672 C 1776.0544 576.98569 1725.9206 598.60638 1674.1191 614.63672 C 1635.7541 626.5091 1596.4871 635.33143 1558.2285 647.54297 C 1519.9701 659.7545 1482.3394 675.60235 1450.4277 699.98438 C 1415.4559 726.70458 1388.732 762.55575 1363.0605 798.30469 C 1343.5126 825.52647 1324.0641 853.18485 1301.2402 877.58594 C 1344.938 923.05163 1383.5791 973.83987 1427.084 1019.7148 C 1497.2781 1093.733 1581.1397 1154.9699 1672.875 1199.5879 C 1755.7063 1199.7651 1843.3188 1200.0541 1920 1200 L 1920 483.0332 z " />
      <path
         id="path8605"
         style="display:inline;fill:url(#linearGradient8637);fill-opacity:1;stroke:none;stroke-width:7.281"
         d="M 1920 483.0332 C 1890.0916 509.2773 1856.9812 529.13459 1822.7305 549.38672 C 1776.0544 576.98569 1725.9206 598.60638 1674.1191 614.63672 C 1635.7541 626.5091 1596.4871 635.33143 1558.2285 647.54297 C 1519.9701 659.7545 1482.3394 675.60235 1450.4277 699.98438 C 1415.4559 726.70458 1388.732 762.55575 1363.0605 798.30469 C 1343.5126 825.52647 1324.0641 853.18485 1301.2402 877.58594 C 1344.938 923.05163 1383.5791 973.83987 1427.084 1019.7148 C 1497.2781 1093.733 1581.1397 1154.9699 1672.875 1199.5879 C 1755.7063 1199.7651 1843.3188 1200.0541 1920 1200 L 1920 483.0332 z " />
      <path
         id="path8639"
         style="display:inline;fill:url(#linearGradient8642);fill-opacity:1;stroke:none;stroke-width:7.281"
         d="M 1920 483.0332 C 1890.0916 509.2773 1856.9812 529.13459 1822.7305 549.38672 C 1776.0544 576.98569 1725.9206 598.60638 1674.1191 614.63672 C 1635.7541 626.5091 1596.4871 635.33143 1558.2285 647.54297 C 1519.9701 659.7545 1482.3394 675.60235 1450.4277 699.98438 C 1415.4559 726.70458 1388.732 762.55575 1363.0605 798.30469 C 1343.5126 825.52647 1324.0641 853.18485 1301.2402 877.58594 C 1344.938 923.05163 1383.5791 973.83987 1427.084 1019.7148 C 1497.2781 1093.733 1581.1397 1154.9699 1672.875 1199.5879 C 1755.7063 1199.7651 1843.3188 1200.0541 1920 1200 L 1920 483.0332 z " />
    </g>
    <g
       id="g8882">
      <path
         id="path8592"
         style="display:inline;fill:#26536e;fill-opacity:1;stroke:none;stroke-width:7.281"
         d="M 1301.2402 877.58594 C 1294.0907 885.2295 1286.632 892.57405 1278.707 899.45898 C 1223.3506 947.55076 1151.6675 971.53436 1087.3223 1006.7031 C 1034.999 1035.3011 917.75217 1126.0466 900.625 1200 C 1153.9111 1198.1618 1420.6366 1199.0481 1672.875 1199.5879 C 1581.1397 1154.9699 1497.2781 1093.733 1427.084 1019.7148 C 1383.5791 973.83987 1344.938 923.05163 1301.2402 877.58594 z " />
      <path
         id="path8665"
         style="display:inline;fill:url(#linearGradient8674);fill-opacity:1;stroke:none;stroke-width:7.281"
         d="M 1301.2402 877.58594 C 1294.0907 885.2295 1286.632 892.57405 1278.707 899.45898 C 1223.3506 947.55076 1151.6675 971.53436 1087.3223 1006.7031 C 1034.999 1035.3011 917.75217 1126.0466 900.625 1200 C 1153.9111 1198.1618 1420.6366 1199.0481 1672.875 1199.5879 C 1581.1397 1154.9699 1497.2781 1093.733 1427.084 1019.7148 C 1383.5791 973.83987 1344.938 923.05163 1301.2402 877.58594 z " />
      <path
         id="path8649"
         style="display:inline;fill:url(#linearGradient8658);fill-opacity:1;stroke:none;stroke-width:7.281"
         d="M 1301.2402 877.58594 C 1294.0907 885.2295 1286.632 892.57405 1278.707 899.45898 C 1223.3506 947.55076 1151.6675 971.53436 1087.3223 1006.7031 C 1034.999 1035.3011 917.75217 1126.0466 900.625 1200 C 1153.9111 1198.1618 1420.6366 1199.0481 1672.875 1199.5879 C 1581.1397 1154.9699 1497.2781 1093.733 1427.084 1019.7148 C 1383.5791 973.83987 1344.938 923.05163 1301.2402 877.58594 z " />
      <path
         id="path8660"
         style="display:inline;fill:url(#linearGradient8663);fill-opacity:1;stroke:none;stroke-width:7.281"
         d="m 1301.2402,877.58594 c -7.1495,7.64356 -14.6082,14.98811 -22.5332,21.87304 -55.3564,48.09178 -127.0395,72.07538 -191.3847,107.24412 -52.3233,28.598 -169.57013,119.3435 -186.6973,193.2969 253.2861,-1.8382 520.0116,-0.9519 772.25,-0.4121 -45.8677,-22.309 -89.7669,-48.7727 -130.9734,-78.9115 -41.2066,-30.1387 -78.3391,-78.8397 -113.4362,-115.8488 -43.5049,-45.875 -77.5604,-84.60239 -127.2252,-127.24166 z" />
    </g>
  </g>
</svg>
