<?xml version="1.0" encoding="UTF-8" standalone="no"?>
<!-- Created with Inkscape (http://www.inkscape.org/) -->

<svg
   width="2800"
   height="1200"
   viewBox="0 0 2800 1200"
   version="1.1"
   id="svg5"
   xmlns:xlink="http://www.w3.org/1999/xlink"
   xmlns="http://www.w3.org/2000/svg"
   xmlns:svg="http://www.w3.org/2000/svg">
  <defs
     id="defs2">
    <linearGradient
       id="linearGradient3990">
      <stop
         style="stop-color:#276082;stop-opacity:1;"
         offset="0"
         id="stop3986" />
      <stop
         style="stop-color:#276082;stop-opacity:0;"
         offset="1"
         id="stop3988" />
    </linearGradient>
    <linearGradient
       id="linearGradient3981">
      <stop
         style="stop-color:#265a78;stop-opacity:1;"
         offset="0"
         id="stop3977" />
      <stop
         style="stop-color:#265a78;stop-opacity:0;"
         offset="1"
         id="stop3979" />
    </linearGradient>
    <linearGradient
       id="linearGradient3419">
      <stop
         style="stop-color:#27678d;stop-opacity:1;"
         offset="0"
         id="stop3415" />
      <stop
         style="stop-color:#27678d;stop-opacity:0.1;"
         offset="1"
         id="stop3417" />
    </linearGradient>
    <linearGradient
       id="linearGradient3413">
      <stop
         style="stop-color:#276082;stop-opacity:1;"
         offset="0"
         id="stop3409" />
      <stop
         style="stop-color:#276082;stop-opacity:0.1;"
         offset="1"
         id="stop3411" />
    </linearGradient>
    <linearGradient
       id="linearGradient3147">
      <stop
         style="stop-color:#265a78;stop-opacity:1;"
         offset="0"
         id="stop3143" />
      <stop
         style="stop-color:#265a78;stop-opacity:0.1;"
         offset="1"
         id="stop3145" />
    </linearGradient>
    <linearGradient
       id="linearGradient3135">
      <stop
         style="stop-color:#276082;stop-opacity:1;"
         offset="0"
         id="stop3131" />
      <stop
         style="stop-color:#276082;stop-opacity:0.1;"
         offset="1"
         id="stop3133" />
    </linearGradient>
    <linearGradient
       id="linearGradient3109">
      <stop
         style="stop-color:#265a78;stop-opacity:1;"
         offset="0"
         id="stop3105" />
      <stop
         style="stop-color:#265a78;stop-opacity:0.1;"
         offset="1"
         id="stop3107" />
    </linearGradient>
    <linearGradient
       id="linearGradient3052">
      <stop
         style="stop-color:#276082;stop-opacity:1;"
         offset="0"
         id="stop3048" />
      <stop
         style="stop-color:#276082;stop-opacity:0.1;"
         offset="1"
         id="stop3050" />
    </linearGradient>
    <linearGradient
       id="linearGradient3030">
      <stop
         style="stop-color:#276082;stop-opacity:1;"
         offset="0"
         id="stop3026" />
      <stop
         style="stop-color:#276082;stop-opacity:0.1;"
         offset="1"
         id="stop3028" />
    </linearGradient>
    <linearGradient
       id="linearGradient2997">
      <stop
         style="stop-color:#27678d;stop-opacity:1;"
         offset="0"
         id="stop2993" />
      <stop
         style="stop-color:#27678d;stop-opacity:0;"
         offset="1"
         id="stop2995" />
    </linearGradient>
    <linearGradient
       id="linearGradient2989">
      <stop
         style="stop-color:#27678d;stop-opacity:1;"
         offset="0"
         id="stop2985" />
      <stop
         style="stop-color:#27678d;stop-opacity:0;"
         offset="1"
         id="stop2987" />
    </linearGradient>
    <linearGradient
       id="linearGradient2966">
      <stop
         style="stop-color:#27678d;stop-opacity:1;"
         offset="0"
         id="stop2962" />
      <stop
         style="stop-color:#27678d;stop-opacity:0.1;"
         offset="1"
         id="stop2964" />
    </linearGradient>
    <linearGradient
       xlink:href="#linearGradient2966"
       id="linearGradient2968"
       x1="2616.4277"
       y1="1004.0793"
       x2="2799.8245"
       y2="1177.1218"
       gradientUnits="userSpaceOnUse" />
    <linearGradient
       xlink:href="#linearGradient3419"
       id="linearGradient2972"
       gradientUnits="userSpaceOnUse"
       x1="2798.0117"
       y1="940.8866"
       x2="2799.8245"
       y2="1177.1218" />
    <linearGradient
       xlink:href="#linearGradient2989"
       id="linearGradient2991"
       x1="2178.8938"
       y1="1112.7106"
       x2="2371.7866"
       y2="1282.9894"
       gradientUnits="userSpaceOnUse" />
    <linearGradient
       xlink:href="#linearGradient2997"
       id="linearGradient3004"
       gradientUnits="userSpaceOnUse"
       x1="2323.2383"
       y1="1072.4816"
       x2="2323.2383"
       y2="1200" />
    <linearGradient
       xlink:href="#linearGradient3030"
       id="linearGradient3032"
       x1="1692.7002"
       y1="870.25934"
       x2="1745.8145"
       y2="1200"
       gradientUnits="userSpaceOnUse" />
    <linearGradient
       xlink:href="#linearGradient3413"
       id="linearGradient3038"
       gradientUnits="userSpaceOnUse"
       x1="1991.5402"
       y1="939.38184"
       x2="1745.8145"
       y2="1200" />
    <linearGradient
       xlink:href="#linearGradient3052"
       id="linearGradient3054"
       x1="902.47491"
       y1="1053.1835"
       x2="1046.1914"
       y2="1198.8672"
       gradientUnits="userSpaceOnUse" />
    <linearGradient
       xlink:href="#linearGradient3135"
       id="linearGradient3062"
       gradientUnits="userSpaceOnUse"
       x1="1197.894"
       y1="1000.7649"
       x2="1203.1987"
       y2="1200" />
    <linearGradient
       xlink:href="#linearGradient3109"
       id="linearGradient3111"
       x1="132.92996"
       y1="770.49371"
       x2="192.02199"
       y2="959.79706"
       gradientUnits="userSpaceOnUse" />
    <linearGradient
       xlink:href="#linearGradient3147"
       id="linearGradient3115"
       gradientUnits="userSpaceOnUse"
       x1="606.26038"
       y1="746.59918"
       x2="439.42993"
       y2="940.33923" />
    <linearGradient
       xlink:href="#linearGradient3981"
       id="linearGradient3983"
       x1="1352.2579"
       y1="1046.3744"
       x2="1170.6968"
       y2="1200"
       gradientUnits="userSpaceOnUse" />
    <linearGradient
       xlink:href="#linearGradient3990"
       id="linearGradient3992"
       x1="2473.2781"
       y1="1145.3223"
       x2="2280.262"
       y2="1300.014"
       gradientUnits="userSpaceOnUse" />
  </defs>
  <g
     id="layer2"
     transform="translate(880)"
     style="display:inline">
    <path
       id="rect2585"
       style="display:inline;fill:#25343c;fill-opacity:1;fill-rule:evenodd;stroke-width:1.20761"
       d="M -880,0 H 1920 V 1200 H -880 Z" />
  </g>
  <g
     id="layer4">
    <path
       id="path2678"
       style="display:inline;fill:#265a78;fill-opacity:1;stroke-width:16.3646;stop-color:#000000"
       d="m 356.54185,451.90801 c -83.74046,6.0054 -157.5407,44.01914 -235.50083,65.34394 C 81.55033,528.05402 40.888357,534.57268 0,536.65625 v 660.87695 l 1877.7031,2.3945 c -12.4384,-30.9789 -49.6721,-42.6629 -70.2597,-63.4316 -29.1728,-29.4294 -49.2177,-66.5178 -68,-103.4551 -18.7823,-36.93739 -36.8379,-74.70162 -62.7598,-107.03123 -37.0107,-46.15953 -88.1355,-78.82 -140.4922,-106.375 -52.3565,-27.55501 -107.057,-50.95781 -156.793,-83.00196 -50.9824,-32.84729 -95.829,-74.17738 -142.4648,-112.94922 -46.6359,-38.77185 -96.1065,-75.61043 -152.7324,-97.32812 -60.4787,-23.19532 -126.36022,-28.08255 -191.13284,-28.53125 -64.77263,-0.4487 -129.77671,3.28454 -194.17774,-3.6582 -58.03679,-6.25666 -114.74601,-21.09615 -171.95703,-32.68555 -42.90826,-8.69205 -86.65128,-15.57786 -170.39174,-9.57246 z" />
    <g
       id="g3122">
      <path
         id="path2621"
         style="display:inline;fill:#26536e;fill-opacity:1;stroke-width:16.3646;stop-color:#000000"
         d="M 412.45898 449.64844 C 395.91165 449.71159 377.47611 450.40685 356.54102 451.9082 C 272.80064 457.9136 199.00107 495.92717 121.04102 517.25195 C 81.550365 528.05401 40.888316 534.57268 0 536.65625 L 0 1197.5332 L 346.36523 1197.9746 C 360.81078 1175.5586 375.78117 1153.3602 391.91406 1131.7031 C 450.55049 1052.9888 530.22749 1029.8322 619.60156 973.28125 C 659.49024 948.04187 686.77819 907.19141 715.48242 869.71875 C 743.79847 832.75285 772.47872 795.29969 858.50195 749.19141 C 944.52519 703.08313 980.87016 695.94816 1016.9395 691.12695 C 1090.2626 681.3262 1164.7717 679.74731 1237.1445 664.43359 C 1249.6515 661.78719 1262.006 658.55871 1274.332 655.22266 C 1261.9075 644.65103 1249.4628 634.10003 1236.9336 623.68359 C 1190.2977 584.91178 1140.827 548.07314 1084.2012 526.35547 C 1023.7225 503.16017 957.84091 498.27292 893.06836 497.82422 C 828.29579 497.37552 763.29159 501.10875 698.89062 494.16602 C 640.85389 487.90936 584.14456 473.06986 526.93359 461.48047 C 494.75243 454.96144 462.10099 449.45898 412.45898 449.64844 z " />
      <path
         id="path3103"
         style="display:inline;fill:url(#linearGradient3111);fill-opacity:1;stroke-width:16.3646;stop-color:#000000"
         d="M 412.45898 449.64844 C 395.91165 449.71159 377.47611 450.40685 356.54102 451.9082 C 272.80064 457.9136 199.00107 495.92717 121.04102 517.25195 C 81.550365 528.05401 40.888316 534.57268 0 536.65625 L 0 1197.5332 L 346.36523 1197.9746 C 360.81078 1175.5586 375.78117 1153.3602 391.91406 1131.7031 C 450.55049 1052.9888 530.22749 1029.8322 619.60156 973.28125 C 659.49024 948.04187 686.77819 907.19141 715.48242 869.71875 C 743.79847 832.75285 772.47872 795.29969 858.50195 749.19141 C 944.52519 703.08313 980.87016 695.94816 1016.9395 691.12695 C 1090.2626 681.3262 1164.7717 679.74731 1237.1445 664.43359 C 1249.6515 661.78719 1262.006 658.55871 1274.332 655.22266 C 1261.9075 644.65103 1249.4628 634.10003 1236.9336 623.68359 C 1190.2977 584.91178 1140.827 548.07314 1084.2012 526.35547 C 1023.7225 503.16017 957.84091 498.27292 893.06836 497.82422 C 828.29579 497.37552 763.29159 501.10875 698.89062 494.16602 C 640.85389 487.90936 584.14456 473.06986 526.93359 461.48047 C 494.75243 454.96144 462.10099 449.45898 412.45898 449.64844 z " />
      <path
         id="path3113"
         style="display:inline;fill:url(#linearGradient3115);fill-opacity:1;stroke-width:16.3646;stop-color:#000000"
         d="M 412.45898 449.64844 C 395.91165 449.71159 377.47611 450.40685 356.54102 451.9082 C 272.80064 457.9136 199.00107 495.92717 121.04102 517.25195 C 81.550365 528.05401 40.888316 534.57268 0 536.65625 L 0 1197.5332 L 346.36523 1197.9746 C 360.81078 1175.5586 375.78117 1153.3602 391.91406 1131.7031 C 450.55049 1052.9888 530.22749 1029.8322 619.60156 973.28125 C 659.49024 948.04187 686.77819 907.19141 715.48242 869.71875 C 743.79847 832.75285 772.47872 795.29969 858.50195 749.19141 C 944.52519 703.08313 980.87016 695.94816 1016.9395 691.12695 C 1090.2626 681.3262 1164.7717 679.74731 1237.1445 664.43359 C 1249.6515 661.78719 1262.006 658.55871 1274.332 655.22266 C 1261.9075 644.65103 1249.4628 634.10003 1236.9336 623.68359 C 1190.2977 584.91178 1140.827 548.07314 1084.2012 526.35547 C 1023.7225 503.16017 957.84091 498.27292 893.06836 497.82422 C 828.29579 497.37552 763.29159 501.10875 698.89062 494.16602 C 640.85389 487.90936 584.14456 473.06986 526.93359 461.48047 C 494.75243 454.96144 462.10099 449.45898 412.45898 449.64844 z " />
    </g>
  </g>
  <g
     id="layer3">
    <path
       id="path2675"
       style="display:inline;fill:#276082;fill-opacity:1;stroke-width:16.0568;stop-color:#000000"
       d="m 1590.1055,577.69922 c -60.8066,-0.21899 -120.547,15.3732 -178.4551,33.92383 -57.9082,18.55062 -115.0161,40.22285 -174.5059,52.81054 -72.3729,15.31373 -146.8818,16.8926 -220.205,26.69336 -36.06933,4.82121 -72.41508,11.95706 -158.4384,58.06538 -86.02332,46.10833 -114.7026,83.56048 -143.01868,120.52642 -28.70426,37.4727 -55.99214,78.32309 -95.88086,103.5625 -89.37416,56.55105 -169.05101,79.70745 -227.6875,158.42185 -16.62161,22.3131 -32.03951,45.1878 -46.88867,68.2969 H 2759.9609 c -12.2226,-18.9849 -23.7785,-38.6471 -38.4101,-55.9785 -30.5061,-36.1352 -72.6982,-60.3505 -113.9844,-83.4375 -41.5303,-23.2235 -84.2971,-44.9057 -121.5488,-74.50978 -39.53,-31.41453 -71.7493,-70.87283 -104.4453,-109.34961 -32.696,-38.47678 -66.6937,-76.73665 -108.6661,-104.80469 -47.2483,-31.59629 -102.5933,-48.8938 -158.0761,-61.23828 -55.4829,-12.34448 -111.9807,-20.15585 -166.875,-34.89844 -59.9998,-16.1137 -117.4588,-40.33662 -176.1406,-60.73437 -58.6818,-20.39774 -119.5836,-37.12587 -181.709,-37.34961 z" />
    <g
       id="g3070">
      <path
         id="path2610"
         style="display:inline;fill:#26536e;fill-opacity:1;stroke-width:16.0568;stop-color:#000000"
         d="M 1274.332 655.22266 C 1262.006 658.55871 1249.6515 661.78719 1237.1445 664.43359 C 1164.7718 679.7473 1090.2625 681.32621 1016.9395 691.12695 C 980.87015 695.94816 944.52511 703.08317 858.50195 749.19141 C 772.47881 795.29964 743.79844 832.75289 715.48242 869.71875 C 686.77822 907.19137 659.4902 948.0419 619.60156 973.28125 C 530.22758 1029.8321 450.55043 1052.9889 391.91406 1131.7031 C 375.78119 1153.3602 360.81077 1175.5586 346.36523 1197.9746 L 1746.0176 1199.7598 C 1764.823 1176.9804 1784.217 1154.7176 1804.8047 1133.6445 C 1777.0924 1104.6797 1757.6372 1068.8211 1739.4434 1033.041 C 1720.6611 996.10366 1702.6055 958.33934 1676.6836 926.00977 C 1639.6729 879.85028 1588.5481 847.18974 1536.1914 819.63477 C 1483.835 792.07978 1429.1344 768.67693 1379.3984 736.63281 C 1342.113 712.6103 1308.1539 684.0005 1274.332 655.22266 z " />
      <path
         id="path3056"
         style="display:inline;fill:url(#linearGradient3983);fill-opacity:1;stroke-width:16.0568;stop-color:#000000"
         d="M 1274.332 655.22266 C 1262.006 658.55871 1249.6515 661.78719 1237.1445 664.43359 C 1164.7718 679.7473 1090.2625 681.32621 1016.9395 691.12695 C 980.87015 695.94816 944.52511 703.08317 858.50195 749.19141 C 772.47881 795.29964 743.79844 832.75289 715.48242 869.71875 C 686.77822 907.19137 659.4902 948.0419 619.60156 973.28125 C 530.22758 1029.8321 450.55043 1052.9889 391.91406 1131.7031 C 375.78119 1153.3602 360.81077 1175.5586 346.36523 1197.9746 L 1746.0176 1199.7598 C 1764.823 1176.9804 1784.217 1154.7176 1804.8047 1133.6445 C 1777.0924 1104.6797 1757.6372 1068.8211 1739.4434 1033.041 C 1720.6611 996.10366 1702.6055 958.33934 1676.6836 926.00977 C 1639.6729 879.85028 1588.5481 847.18974 1536.1914 819.63477 C 1483.835 792.07978 1429.1344 768.67693 1379.3984 736.63281 C 1342.113 712.6103 1308.1539 684.0005 1274.332 655.22266 z " />
      <path
         id="path3045"
         style="display:inline;fill:url(#linearGradient3054);fill-opacity:1;stroke-width:16.0568;stop-color:#000000"
         d="M 1274.332 655.22266 C 1262.006 658.55871 1249.6515 661.78719 1237.1445 664.43359 C 1164.7718 679.7473 1090.2625 681.32621 1016.9395 691.12695 C 980.87015 695.94816 944.52511 703.08317 858.50195 749.19141 C 772.47881 795.29964 743.79844 832.75289 715.48242 869.71875 C 686.77822 907.19137 659.4902 948.0419 619.60156 973.28125 C 530.22758 1029.8321 450.55043 1052.9889 391.91406 1131.7031 C 375.78119 1153.3602 360.81077 1175.5586 346.36523 1197.9746 L 1746.0176 1199.7598 C 1764.823 1176.9804 1784.217 1154.7176 1804.8047 1133.6445 C 1777.0924 1104.6797 1757.6372 1068.8211 1739.4434 1033.041 C 1720.6611 996.10366 1702.6055 958.33934 1676.6836 926.00977 C 1639.6729 879.85028 1588.5481 847.18974 1536.1914 819.63477 C 1483.835 792.07978 1429.1344 768.67693 1379.3984 736.63281 C 1342.113 712.6103 1308.1539 684.0005 1274.332 655.22266 z " />
      <path
         id="path3060"
         style="display:inline;fill:url(#linearGradient3062);fill-opacity:1;stroke-width:16.0568;stop-color:#000000"
         d="m 1274.332,655.22266 c -12.326,3.33605 -24.6805,6.56453 -37.1875,9.21093 -72.3727,15.31371 -146.882,16.89262 -220.205,26.69336 -36.06935,4.82121 -72.41439,11.95622 -158.43755,58.06446 -86.02314,46.10823 -114.70351,83.56148 -143.01953,120.52734 -28.7042,37.47262 -55.99222,78.32315 -95.88086,103.5625 -89.37398,56.55085 -169.05113,79.70765 -227.6875,158.42185 -16.13287,21.6571 -31.10329,43.8555 -45.54883,66.2715 l 1399.65237,1.7852 c 18.8054,-22.7794 38.1994,-45.0422 58.7871,-66.1153 -27.7123,-28.9648 -47.1675,-64.8234 -65.3613,-100.6035 -18.7823,-36.93734 -36.8379,-74.70166 -62.7598,-107.03123 -37.0107,-46.15949 -77.4105,-89.51001 -129.7672,-117.06498 -52.3564,-27.55499 -102.1161,-47.8331 -151.8521,-79.87722 -37.2854,-24.02251 -76.2877,-47.38579 -120.7323,-73.84491 z" />
    </g>
    <g
       id="g3043">
      <path
         id="path2606"
         style="display:inline;fill:#26536e;fill-opacity:1;stroke-width:16.0568;stop-color:#000000"
         d="m 1590.1055,577.69922 c -60.8066,-0.21899 -120.5472,15.37324 -178.4551,33.92383 -45.7337,14.65054 -91.0155,31.06767 -137.3184,43.59961 33.8219,28.77784 67.781,57.38764 105.0664,81.41015 49.736,32.04412 104.4366,55.44697 156.793,83.00196 52.3567,27.55497 103.4815,60.21551 140.4922,106.375 25.9219,32.32957 43.9775,70.09389 62.7598,107.03123 18.1914,35.7753 37.7409,71.5489 65.4472,100.5117 3.0117,-3.0814 5.8019,-6.3823 8.8789,-9.3984 34.3932,-33.7122 73.839,-62.109 115.7012,-85.9219 78.6843,-44.75871 166.8878,-71.44212 243.8086,-119.16795 40.0412,-24.8436 76.4482,-55.04166 114.7363,-82.50976 11.2886,-8.09842 23.0452,-15.8537 35.2227,-23.36524 -15.6703,-15.09607 -32.2305,-29.16458 -50.3321,-41.26953 -47.2481,-31.59623 -102.5935,-48.89382 -158.0761,-61.23828 -55.4829,-12.34446 -111.9809,-20.15587 -166.875,-34.89844 -59.9998,-16.11366 -117.459,-40.33666 -176.1406,-60.73437 -58.6818,-20.3977 -119.5838,-37.12587 -181.709,-37.34961 z" />
      <path
         id="path3023"
         style="display:inline;fill:url(#linearGradient3032);fill-opacity:1;stroke-width:16.0568;stop-color:#000000"
         d="m 1590.1055,577.69922 c -60.8066,-0.21899 -120.5472,15.37324 -178.4551,33.92383 -45.7337,14.65054 -91.0155,31.06767 -137.3184,43.59961 33.8219,28.77784 67.781,57.38764 105.0664,81.41015 49.736,32.04412 104.4366,55.44697 156.793,83.00196 52.3567,27.55497 103.4815,60.21551 140.4922,106.375 25.9219,32.32957 43.9775,70.09389 62.7598,107.03123 18.1914,35.7753 37.7409,71.5489 65.4472,100.5117 3.0117,-3.0814 5.8019,-6.3823 8.8789,-9.3984 34.3932,-33.7122 73.839,-62.109 115.7012,-85.9219 78.6843,-44.75871 166.8878,-71.44212 243.8086,-119.16795 40.0412,-24.8436 76.4482,-55.04166 114.7363,-82.50976 11.2886,-8.09842 23.0452,-15.8537 35.2227,-23.36524 -15.6703,-15.09607 -32.2305,-29.16458 -50.3321,-41.26953 -47.2481,-31.59623 -102.5935,-48.89382 -158.0761,-61.23828 -55.4829,-12.34446 -111.9809,-20.15587 -166.875,-34.89844 -59.9998,-16.11366 -117.459,-40.33666 -176.1406,-60.73437 -58.6818,-20.3977 -119.5838,-37.12587 -181.709,-37.34961 z" />
      <path
         id="path3034"
         style="display:inline;fill:url(#linearGradient3038);fill-opacity:1;stroke-width:16.0568;stop-color:#000000"
         d="m 1590.1055,577.69922 c -60.8066,-0.21899 -120.5472,15.37324 -178.4551,33.92383 -45.7337,14.65054 -91.0155,31.06767 -137.3184,43.59961 33.8219,28.77784 67.781,57.38764 105.0664,81.41015 49.736,32.04412 104.4366,55.44697 156.793,83.00196 52.3567,27.55497 103.4815,60.21551 140.4922,106.375 25.9219,32.32957 43.9775,70.09389 62.7598,107.03123 18.1914,35.7753 37.7409,71.5489 65.4472,100.5117 3.0117,-3.0814 5.8019,-6.3823 8.8789,-9.3984 34.3932,-33.7122 73.839,-62.109 115.7012,-85.9219 78.6843,-44.75871 166.8878,-71.44212 243.8086,-119.16795 40.0412,-24.8436 76.4482,-55.04166 114.7363,-82.50976 11.2886,-8.09842 23.0452,-15.8537 35.2227,-23.36524 -15.6703,-15.09607 -32.2305,-29.16458 -50.3321,-41.26953 -47.2481,-31.59623 -102.5935,-48.89382 -158.0761,-61.23828 -55.4829,-12.34446 -111.9809,-20.15587 -166.875,-34.89844 -59.9998,-16.11366 -117.459,-40.33666 -176.1406,-60.73437 -58.6818,-20.3977 -119.5838,-37.12587 -181.709,-37.34961 z" />
    </g>
  </g>
  <g
     id="layer1">
    <path
       id="path2672"
       style="display:inline;fill:#27678d;fill-opacity:1;stroke-width:15.5529;stop-color:#000000"
       d="m 2796.4727,740.33594 c -54.3467,14.2354 -110.4791,21.63938 -166.6582,21.98242 -71.4193,0.43611 -144.4339,-10.23376 -203.8874,5.9803 -59.4535,16.21406 -99.9762,41.04125 -137.9115,68.25603 -38.2883,27.46816 -74.6951,57.6661 -114.7363,82.50976 -76.921,47.72591 -165.1241,74.4091 -243.8086,119.16795 -41.8622,23.8129 -81.308,52.2097 -115.7012,85.9219 -24.2207,23.7412 -46.3082,49.6192 -67.955,75.8457 H 2800 Z" />
    <g
       id="g3010">
      <path
         id="path2593"
         style="display:inline;fill:#26536e;fill-opacity:1;stroke-width:15.5529;stop-color:#000000;opacity:1"
         d="M 2322.9277 813.20117 C 2310.8074 820.68403 2299.2564 828.49059 2288.0156 836.55469 C 2249.7274 864.02282 2213.3205 894.22082 2173.2793 919.06445 C 2096.3584 966.79032 2008.1551 993.47362 1929.4707 1038.2324 C 1887.6085 1062.0453 1848.1627 1090.4421 1813.7695 1124.1543 C 1789.5489 1147.8955 1767.4612 1173.7735 1745.8145 1200 L 2759.9609 1200 C 2747.7383 1181.0151 2736.1824 1161.3529 2721.5508 1144.0215 C 2691.0447 1107.8863 2648.8526 1083.671 2607.5664 1060.584 C 2566.0361 1037.3605 2523.2692 1015.6783 2486.0176 986.07422 C 2446.4876 954.65972 2414.2682 915.20135 2381.5723 876.72461 C 2362.9275 854.78336 2343.6565 833.15166 2322.9277 813.20117 z " />
      <path
         id="path2981"
         style="display:inline;fill:url(#linearGradient3992);fill-opacity:1;stroke-width:15.5529;stop-color:#000000;opacity:1"
         d="M 2322.9277 813.20117 C 2310.8074 820.68403 2299.2564 828.49059 2288.0156 836.55469 C 2249.7274 864.02282 2213.3205 894.22082 2173.2793 919.06445 C 2096.3584 966.79032 2008.1551 993.47362 1929.4707 1038.2324 C 1887.6085 1062.0453 1848.1627 1090.4421 1813.7695 1124.1543 C 1789.5489 1147.8955 1767.4612 1173.7735 1745.8145 1200 L 2759.9609 1200 C 2747.7383 1181.0151 2736.1824 1161.3529 2721.5508 1144.0215 C 2691.0447 1107.8863 2648.8526 1083.671 2607.5664 1060.584 C 2566.0361 1037.3605 2523.2692 1015.6783 2486.0176 986.07422 C 2446.4876 954.65972 2414.2682 915.20135 2381.5723 876.72461 C 2362.9275 854.78336 2343.6565 833.15166 2322.9277 813.20117 z " />
      <path
         id="path2979"
         style="display:inline;fill:url(#linearGradient2991);fill-opacity:1;stroke-width:15.5529;stop-color:#000000;opacity:1"
         d="M 2322.9277 813.20117 C 2310.8074 820.68403 2299.2564 828.49059 2288.0156 836.55469 C 2249.7274 864.02282 2213.3205 894.22082 2173.2793 919.06445 C 2096.3584 966.79032 2008.1551 993.47362 1929.4707 1038.2324 C 1887.6085 1062.0453 1848.1627 1090.4421 1813.7695 1124.1543 C 1789.5489 1147.8955 1767.4612 1173.7735 1745.8145 1200 L 2759.9609 1200 C 2747.7383 1181.0151 2736.1824 1161.3529 2721.5508 1144.0215 C 2691.0447 1107.8863 2648.8526 1083.671 2607.5664 1060.584 C 2566.0361 1037.3605 2523.2692 1015.6783 2486.0176 986.07422 C 2446.4876 954.65972 2414.2682 915.20135 2381.5723 876.72461 C 2362.9275 854.78336 2343.6565 833.15166 2322.9277 813.20117 z " />
      <path
         id="path3001"
         style="display:inline;opacity:1;fill:url(#linearGradient3004);fill-opacity:1;stroke-width:15.5529;stop-color:#000000"
         d="m 2322.9277,813.20117 c -12.1203,7.48286 -23.6713,15.28942 -34.9121,23.35352 -38.2882,27.46813 -74.6951,57.66613 -114.7363,82.50976 -76.9209,47.72587 -165.1242,74.40917 -243.8086,119.16795 -41.8622,23.8129 -81.308,52.2097 -115.7012,85.9219 -24.2206,23.7412 -46.3083,49.6192 -67.955,75.8457 h 1014.1464 c -12.2226,-18.9849 -23.7785,-38.6471 -38.4101,-55.9785 -30.5061,-36.1352 -72.6982,-60.3505 -113.9844,-83.4375 -41.5303,-23.2235 -72.0362,-60.81195 -109.2878,-90.41603 -39.53,-31.4145 -62.4319,-67.49642 -95.1278,-105.97316 -18.6448,-21.94125 -59.4943,-31.04315 -80.2231,-50.99364 z" />
    </g>
    <g
       id="g2977">
      <path
         id="path2595"
         style="display:inline;fill:#26536e;fill-opacity:1;stroke-width:15.5529;stop-color:#000000;opacity:1"
         d="M 2796.4727 740.33594 C 2742.126 754.57132 2685.9935 761.97532 2629.8145 762.31836 C 2558.3952 762.75447 2485.3812 752.08478 2425.9277 768.29883 C 2384.1662 779.68798 2351.9832 795.45849 2323.2383 813.18945 C 2343.903 833.09698 2362.9772 854.84182 2381.5723 876.72461 C 2414.2682 915.20135 2446.4876 954.65972 2486.0176 986.07422 C 2523.2692 1015.6783 2566.0361 1037.3605 2607.5664 1060.584 C 2648.8526 1083.671 2691.0447 1107.8863 2721.5508 1144.0215 C 2736.1824 1161.3529 2747.7383 1181.0151 2759.9609 1200 L 2800 1200 L 2796.4727 740.33594 z " />
      <path
         id="path2937"
         style="display:inline;fill:url(#linearGradient2968);fill-opacity:1;stroke-width:15.5529;stop-color:#000000;opacity:1"
         d="M 2796.4727 740.33594 C 2742.126 754.57132 2685.9935 761.97532 2629.8145 762.31836 C 2558.3952 762.75447 2485.3812 752.08478 2425.9277 768.29883 C 2384.1662 779.68798 2351.9832 795.45849 2323.2383 813.18945 C 2343.903 833.09698 2362.9772 854.84182 2381.5723 876.72461 C 2414.2682 915.20135 2446.4876 954.65972 2486.0176 986.07422 C 2523.2692 1015.6783 2566.0361 1037.3605 2607.5664 1060.584 C 2648.8526 1083.671 2691.0447 1107.8863 2721.5508 1144.0215 C 2736.1824 1161.3529 2747.7383 1181.0151 2759.9609 1200 L 2800 1200 L 2796.4727 740.33594 z " />
      <path
         id="path2970"
         style="display:inline;fill:url(#linearGradient2972);fill-opacity:1;stroke-width:15.5529;stop-color:#000000;opacity:1"
         d="M 2796.4727 740.33594 C 2742.126 754.57132 2685.9935 761.97532 2629.8145 762.31836 C 2558.3952 762.75447 2485.3812 752.08478 2425.9277 768.29883 C 2384.1662 779.68798 2351.9832 795.45849 2323.2383 813.18945 C 2343.903 833.09698 2362.9772 854.84182 2381.5723 876.72461 C 2414.2682 915.20135 2446.4876 954.65972 2486.0176 986.07422 C 2523.2692 1015.6783 2566.0361 1037.3605 2607.5664 1060.584 C 2648.8526 1083.671 2691.0447 1107.8863 2721.5508 1144.0215 C 2736.1824 1161.3529 2747.7383 1181.0151 2759.9609 1200 L 2800 1200 L 2796.4727 740.33594 z " />
    </g>
  </g>
</svg>
