<?xml version="1.0" encoding="UTF-8" standalone="no"?>
<!-- Created with Inkscape (http://www.inkscape.org/) -->

<svg
   width="811.91705"
   height="515.92853"
   viewBox="0 0 811.91705 515.92853"
   version="1.1"
   id="svg5"
   sodipodi:docname="/tmp/ink_ext_XXXXXX.svg47C9R2"
   xmlns:inkscape="http://www.inkscape.org/namespaces/inkscape"
   xmlns:sodipodi="http://sodipodi.sourceforge.net/DTD/sodipodi-0.dtd"
   xmlns="http://www.w3.org/2000/svg"
   xmlns:svg="http://www.w3.org/2000/svg">
  <sodipodi:namedview
     id="namedview7"
     pagecolor="#505050"
     bordercolor="#eeeeee"
     borderopacity="1"
     inkscape:showpageshadow="0"
     inkscape:pageopacity="0"
     inkscape:pagecheckerboard="0"
     inkscape:deskcolor="#505050"
     inkscape:document-units="px"
     showgrid="true"
     inkscape:zoom="0.62315829"
     inkscape:cx="640.28675"
     inkscape:cy="597.76144"
     inkscape:window-width="1920"
     inkscape:window-height="997"
     inkscape:window-x="0"
     inkscape:window-y="0"
     inkscape:window-maximized="1"
     inkscape:current-layer="layer3">
    <inkscape:grid
       type="xygrid"
       id="grid9424" />
  </sodipodi:namedview>
  <defs
     id="defs2" />
  <g
     inkscape:label="Layer 1"
     inkscape:groupmode="layer"
     id="layer1"
     transform="translate(-79.333351,-430.17963)">
    <path
       id="rect9426"
       style="fill:#232729;fill-rule:evenodd;stroke-width:1.64541"
       d="m 79.335402,430.17964 h 73.808448 v 73.70225 H 79.335402 Z" />
    <path
       id="rect9426-0-2-6"
       style="fill:#0c729f;fill-rule:evenodd;stroke-width:1.64541"
       d="m 817.44085,430.17963 h 73.80845 v 73.70225 h -73.80845 z" />
    <path
       d="m 153.14585,430.18079 h 73.809 v 0 73.702 h -0.001 -73.808 v 0 z"
       style="fill:#202e34;stroke-width:1.64541px"
       id="path83488" />
    <path
       d="m 226.95685,430.18079 h 73.808 v 0 73.702 0 h -73.808 v 0 z"
       style="fill:#1e3640;stroke-width:1.64541px"
       id="path83490" />
    <path
       d="m 300.76685,430.18079 h 73.809 v 0 73.702 h -10e-4 -73.808 v 0 z"
       style="fill:#1c3d4c;stroke-width:1.64541px"
       id="path83492" />
    <path
       d="m 374.57785,430.18079 h 73.808 v 0 73.702 h -0.001 -73.807 v -10e-4 z"
       style="fill:#194558;stroke-width:1.64541px"
       id="path83494" />
    <path
       d="m 448.38785,430.18079 h 73.809 v 0 73.702 h -0.001 -73.808 v -10e-4 z"
       style="fill:#174c64;stroke-width:1.64541px"
       id="path83496" />
    <path
       d="m 522.19885,430.18079 h 73.808 v 0 73.702 h -10e-4 -73.807 v -10e-4 z"
       style="fill:#15546f;stroke-width:1.64541px"
       id="path83498" />
    <path
       d="m 596.00885,430.18079 h 73.809 v 0 73.702 h -10e-4 -73.808 v -10e-4 z"
       style="fill:#125b7b;stroke-width:1.64541px"
       id="path83500" />
    <path
       d="m 669.81985,430.18079 h 73.808 v 0 73.702 h -10e-4 -73.807 v -10e-4 z"
       style="fill:#106387;stroke-width:1.64541px"
       id="path83502" />
    <path
       d="m 743.62985,430.18079 h 73.809 v 0 73.702 h -10e-4 -73.808 v -10e-4 z"
       style="fill:#0e6a93;stroke-width:1.64541px"
       id="path83504" />
    <path
       id="rect9426-7"
       style="fill:#332c2c;fill-opacity:1;fill-rule:evenodd;stroke-width:1.64541"
       d="m 79.335905,872.40589 h 73.808445 v 73.70223 H 79.335905 Z" />
    <path
       id="rect9426-0-2-6-1"
       style="fill:#b23133;fill-opacity:1;fill-rule:evenodd;stroke-width:1.64541"
       d="m 817.44035,872.40588 h 73.80845 v 73.70225 h -73.80845 z" />
    <path
       d="m 153.14635,872.40479 h 73.808 v 0 73.702 0 h -73.808 v 0 z"
       style="fill:#3f2c2c;fill-opacity:1;stroke-width:1.64541px"
       id="path85717" />
    <path
       d="m 226.95635,872.40479 h 73.809 v 0 73.702 h -0.001 -73.808 v 0 z"
       style="fill:#4c2d2d;fill-opacity:1;stroke-width:1.64541px"
       id="path85719" />
    <path
       d="m 300.76735,872.40479 h 73.808 v 0 73.702 h -0.001 -73.807 v 0 z"
       style="fill:#592d2e;fill-opacity:1;stroke-width:1.64541px"
       id="path85721" />
    <path
       d="m 374.57735,872.40479 h 73.809 v 0 73.702 h -10e-4 -73.808 v 0 z"
       style="fill:#652e2e;fill-opacity:1;stroke-width:1.64541px"
       id="path85723" />
    <path
       d="m 448.38835,872.40479 h 73.808 v 0 73.702 h -0.001 -73.807 v 0 z"
       style="fill:#722e2f;fill-opacity:1;stroke-width:1.64541px"
       id="path85725" />
    <path
       d="m 522.19835,872.40479 h 73.808 v 10e-4 73.701 0 h -73.808 v 0 z"
       style="fill:#7f2f30;fill-opacity:1;stroke-width:1.64541px"
       id="path85727" />
    <path
       d="m 596.00835,872.40479 h 73.809 v 10e-4 73.701 h -10e-4 -73.808 v 0 z"
       style="fill:#8b2f30;fill-opacity:1;stroke-width:1.64541px"
       id="path85729" />
    <path
       d="m 669.81935,872.40479 h 73.808 v 10e-4 73.701 h -10e-4 -73.807 v 0 z"
       style="fill:#983031;fill-opacity:1;stroke-width:1.64541px"
       id="path85731" />
    <path
       d="m 743.62935,872.40479 h 73.809 v 10e-4 73.701 h -10e-4 -73.808 v -0.001 z"
       style="fill:#a53032;fill-opacity:1;stroke-width:1.64541px"
       id="path85733" />
    <path
       d="m 79.333352,503.88389 h 73.808098 v 10e-4 73.701 h -0.001 -73.807098 v 0 z"
       style="fill:#252729;fill-opacity:1;stroke-width:1.64541px"
       id="path86439" />
    <path
       d="m 79.333352,577.58789 h 73.808098 v 10e-4 73.702 0 H 79.333352 v -10e-4 z"
       style="fill:#28282a;fill-opacity:1;stroke-width:1.64541px"
       id="path86441" />
    <path
       d="m 79.333452,651.29289 h 73.807998 v 0 73.702 0 H 79.333452 v -0.001 z"
       style="fill:#2b292a;fill-opacity:1;stroke-width:1.64541px"
       id="path86443" />
    <path
       d="m 79.333552,724.99689 h 73.808898 v 0 73.702 h -0.001 -73.807898 v 0 z"
       style="fill:#2d2a2b;fill-opacity:1;stroke-width:1.64541px"
       id="path86445" />
    <path
       d="m 79.333652,798.70089 h 73.808798 v 0 73.703 h -0.001 -73.807798 v -0.001 z"
       style="fill:#302b2b;fill-opacity:1;stroke-width:1.64541px"
       id="path86447" />
    <path
       d="m 153.14445,503.88479 h 73.809 v 0 0 0 73.702 h -0.001 v 0 0 h -73.808 v 0 0 0 z"
       style="fill:#252d32;fill-opacity:1;stroke-width:1.64541px"
       id="path86732" />
    <path
       d="m 153.14445,577.58879 h 73.809 v 0 10e-4 0 73.701 h -0.001 v 0 0 h -73.808 v 0 0 0 z"
       style="fill:#2a2d31;fill-opacity:1;stroke-width:1.64541px"
       id="path86734" />
    <path
       d="m 153.14445,651.29279 h 73.809 v 0 0 0 73.702 h -0.001 v 0 0 h -73.808 v 0 -10e-4 0 z"
       style="fill:#2f2d30;fill-opacity:1;stroke-width:1.64541px"
       id="path86736" />
    <path
       d="m 153.14545,724.99679 h 73.808 v 0 10e-4 0 73.701 0 0 h -0.001 -73.807 v 0 0 -10e-4 z"
       style="fill:#342c2e;fill-opacity:1;stroke-width:1.64541px"
       id="path86738" />
    <path
       d="m 153.14545,798.70079 h 73.808 v 0 10e-4 0.001 73.7 0 0 h -0.001 -73.807 v 0 0 -10e-4 z"
       style="fill:#392c2d;fill-opacity:1;stroke-width:1.64541px"
       id="path86740" />
    <path
       d="m 226.95545,503.88479 h 73.808 v 0 10e-4 0 73.701 0 h -10e-4 v 0 h -73.807 v 0 -10e-4 0 z"
       style="fill:#25343c;fill-opacity:1;stroke-width:1.64541px"
       id="path87037" />
    <path
       d="m 226.95545,577.58879 h 73.808 v 0 10e-4 0 73.701 0 h -10e-4 v 0 h -73.807 v 0 0 0 z"
       style="fill:#2d3339;fill-opacity:1;stroke-width:1.64541px"
       id="path87039" />
    <path
       d="m 226.95545,651.29279 h 73.808 v 0 0 0 73.702 0 0 h -10e-4 -73.807 v 0 -10e-4 0 z"
       style="fill:#353136;fill-opacity:1;stroke-width:1.64541px"
       id="path87041" />
    <path
       d="m 226.95545,724.99679 h 73.809 v 0 0 10e-4 73.701 h -0.001 v 0 h -10e-4 -73.807 v 0 0 0 z"
       style="fill:#3c3033;fill-opacity:1;stroke-width:1.64541px"
       id="path87043" />
    <path
       d="m 226.95545,798.70079 h 73.809 v 0 10e-4 0 73.701 h -0.001 v 0 h -10e-4 -73.807 v 0 0 0 z"
       style="fill:#442e30;fill-opacity:1;stroke-width:1.64541px"
       id="path87045" />
  </g>
  <g
     inkscape:groupmode="layer"
     id="layer3"
     inkscape:label="Layer 3"
     transform="translate(-79.333351,-430.17963)">
    <path
       d="m 300.76645,503.88479 h 73.809 v 0 0 0 73.702 h -10e-4 v 0 h -0.001 -73.807 v 0 0 0 z"
       style="fill:#263a47;fill-opacity:1;stroke-width:1.64541px"
       id="path87359" />
    <path
       d="m 300.76645,577.58879 h 73.809 v 0 10e-4 0 73.701 h -10e-4 v 0 h -0.001 -73.807 v 0 0 0 z"
       style="fill:#303742;fill-opacity:1;stroke-width:1.64541px"
       id="path87361" />
    <path
       d="m 300.76645,651.29279 h 73.809 v 0 0 0 73.702 h -10e-4 v 0 0 h -73.808 v 0 -10e-4 0 z"
       style="fill:#3a353d;fill-opacity:1;stroke-width:1.64541px"
       id="path87363" />
    <path
       d="m 300.76745,724.99679 h 73.808 v 0 10e-4 0 73.701 h -10e-4 v 0 0 h -73.807 v 0 0 -10e-4 z"
       style="fill:#443238;fill-opacity:1;stroke-width:1.64541px"
       id="path87365" />
    <path
       d="m 300.76745,798.70079 h 73.808 v 0 10e-4 0.001 73.7 h -10e-4 v 0 0 h -73.807 v 0 0 -10e-4 z"
       style="fill:#4e2f33;fill-opacity:1;stroke-width:1.64541px"
       id="path87367" />
    <path
       d="m 374.57745,503.88479 h 73.808 v 0 10e-4 0 73.701 h -10e-4 v 0 0 h -73.807 v -10e-4 0 0 z"
       style="fill:#254151;fill-opacity:1;stroke-width:1.64541px"
       id="path87688" />
    <path
       d="m 374.57745,577.58879 h 73.808 v 0 10e-4 0 73.701 0 h -10e-4 v 0 h -73.807 v 0 0 -10e-4 z"
       style="fill:#323d4a;fill-opacity:1;stroke-width:1.64541px"
       id="path87690" />
    <path
       d="m 374.57745,651.29279 h 73.808 v 0 0 0 73.702 0 h -10e-4 v 0 h -73.807 v -10e-4 0 0 z"
       style="fill:#3f3943;fill-opacity:1;stroke-width:1.64541px"
       id="path87692" />
    <path
       d="m 374.57745,724.99679 h 73.809 v 0 0 10e-4 73.701 h -0.001 v 0 h -10e-4 -73.807 v 0 0 -10e-4 z"
       style="fill:#4b353c;fill-opacity:1;stroke-width:1.64541px"
       id="path87694" />
    <path
       d="m 374.57745,798.70079 h 73.809 v 0 10e-4 0 73.701 h -0.001 v 0 h -10e-4 -73.807 v 0 0 0 z"
       style="fill:#583135;fill-opacity:1;stroke-width:1.64541px"
       id="path87696" />
    <path
       d="m 448.38845,503.88479 h 73.809 v 0 0 0 73.702 h -10e-4 v 0 h -10e-4 -73.807 v 0 0 -10e-4 z"
       style="fill:#26475b;fill-opacity:1;stroke-width:1.64541px"
       id="path88029" />
    <path
       d="m 448.38845,577.58879 h 73.809 v 0 10e-4 0 73.701 h -10e-4 v 0 h -10e-4 -73.807 v 0 0 -10e-4 z"
       style="fill:#354252;fill-opacity:1;stroke-width:1.64541px"
       id="path88031" />
    <path
       d="m 448.38845,651.29279 h 73.809 v 0 0 0 73.702 h -10e-4 v 0 0 h -73.808 v 0 -10e-4 -10e-4 z"
       style="fill:#443d49;fill-opacity:1;stroke-width:1.64541px"
       id="path88033" />
    <path
       d="m 448.38945,724.99679 h 73.808 v 0 10e-4 0 73.701 h -10e-4 v 0 0 h -73.807 v 0 0 -0.002 z"
       style="fill:#533840;fill-opacity:1;stroke-width:1.64541px"
       id="path88035" />
    <path
       d="m 448.38945,798.70079 h 73.808 v 0 10e-4 0.001 73.7 h -10e-4 v 0 0 h -73.807 v 0 0 -10e-4 z"
       style="fill:#623337;fill-opacity:1;stroke-width:1.64541px"
       id="path88037" />
    <path
       d="m 522.19945,503.88479 h 73.808 v 0 10e-4 0.001 73.7 h -10e-4 v 0 0 h -73.807 v 0 0 -10e-4 z"
       style="fill:#264d64;fill-opacity:1;stroke-width:1.64541px"
       id="path88382" />
    <path
       d="m 522.19945,577.58879 h 73.808 v 10e-4 0 10e-4 73.7 h -10e-4 v 0 0 h -73.807 v 0 0 -10e-4 z"
       style="fill:#38475a;fill-opacity:1;stroke-width:1.64541px"
       id="path88384" />
    <path
       d="m 522.19945,651.29279 h 73.808 v 0 10e-4 0 73.701 h -10e-4 v 0 0 h -73.807 v 0 -10e-4 -10e-4 z"
       style="fill:#4a414f;fill-opacity:1;stroke-width:1.64541px"
       id="path88386" />
    <path
       d="m 522.19945,724.99679 h 73.808 v 10e-4 0 0 73.701 0 h -10e-4 -10e-4 -73.806 v 0 0 -0.002 z"
       style="fill:#5b3b45;fill-opacity:1;stroke-width:1.64541px"
       id="path88388" />
    <path
       d="m 522.19945,798.70079 h 73.808 v 10e-4 0 0.001 73.7 0 h -10e-4 -10e-4 -73.806 v 0 0 -10e-4 z"
       style="fill:#6d353a;fill-opacity:1;stroke-width:1.64541px"
       id="path88390" />
    <path
       d="m 596.00945,503.88479 h 73.809 v 0 10e-4 0.001 73.7 h -10e-4 v 0 h -10e-4 -73.807 v -10e-4 0 0 z"
       style="fill:#26536e;fill-opacity:1;stroke-width:1.64541px"
       id="path88747" />
    <path
       d="m 596.00945,577.58879 h 73.809 v 10e-4 0 10e-4 73.7 h -10e-4 v 0 h -10e-4 -73.807 v 0 -10e-4 0 z"
       style="fill:#3a4c62;fill-opacity:1;stroke-width:1.64541px"
       id="path88749" />
    <path
       d="m 596.00945,651.29279 h 73.809 v 0 10e-4 0 73.701 h -10e-4 v 0 h -10e-4 -73.807 v -10e-4 0 -10e-4 z"
       style="fill:#4e4555;fill-opacity:1;stroke-width:1.64541px"
       id="path88751" />
    <path
       d="m 596.00945,724.99679 h 73.809 v 10e-4 0 0 73.701 h -10e-4 v 0 h -10e-4 -73.807 v 0 -10e-4 -0.001 z"
       style="fill:#623d49;fill-opacity:1;stroke-width:1.64541px"
       id="path88753" />
    <path
       d="m 596.00945,798.70079 h 73.809 v 10e-4 0 0.001 73.7 h -10e-4 v 0 h -10e-4 -73.807 v 0 0 -10e-4 z"
       style="fill:#76363c;fill-opacity:1;stroke-width:1.64541px"
       id="path88755" />
    <path
       d="m 669.82045,503.88479 h 73.808 v 0 10e-4 0.001 73.7 h -0.001 v 0 h -10e-4 -73.806 v -10e-4 0 0 z"
       style="fill:#265a78;fill-opacity:1;stroke-width:1.64541px"
       id="path89124" />
    <path
       d="m 669.82045,577.58879 h 73.808 v 10e-4 0 10e-4 73.7 h -0.001 v 0 h -10e-4 -73.806 v 0 -10e-4 0 z"
       style="fill:#3d526a;fill-opacity:1;stroke-width:1.64541px"
       id="path89126" />
    <path
       d="m 669.82045,651.29279 h 73.808 v 0 10e-4 0 73.701 h -0.001 v 0 h -10e-4 -73.806 v -10e-4 0 -10e-4 z"
       style="fill:#54495c;fill-opacity:1;stroke-width:1.64541px"
       id="path89128" />
    <path
       d="m 669.82045,724.99679 h 73.808 v 10e-4 0 0 73.701 h -0.001 v 0 h -10e-4 -73.806 v 0 -10e-4 -0.001 z"
       style="fill:#6a414d;fill-opacity:1;stroke-width:1.64541px"
       id="path89130" />
    <path
       d="m 669.82045,798.70079 h 73.808 v 10e-4 0 0.001 73.7 h -0.001 v 0 h -10e-4 -73.806 v 0 0 -10e-4 z"
       style="fill:#81383f;fill-opacity:1;stroke-width:1.64541px"
       id="path89132" />
    <path
       d="m 743.63045,503.88479 h 73.809 v 0 10e-4 0.001 73.7 h -10e-4 v 0 h -10e-4 -73.807 v -10e-4 0 -10e-4 z"
       style="fill:#276082;fill-opacity:1;stroke-width:1.64541px"
       id="path89513" />
    <path
       d="m 743.63045,577.58879 h 73.809 v 10e-4 0 10e-4 73.7 h -10e-4 v 0 h -10e-4 -73.807 v -10e-4 0 0 z"
       style="fill:#405672;fill-opacity:1;stroke-width:1.64541px"
       id="path89515" />
    <path
       d="m 743.63045,651.29279 h 73.809 v 0 10e-4 0 73.701 h -10e-4 v 0 h -10e-4 -73.807 v -10e-4 0 -10e-4 z"
       style="fill:#594d62;fill-opacity:1;stroke-width:1.64541px"
       id="path89517" />
    <path
       d="m 743.63045,724.99679 h 73.809 v 10e-4 0 0 73.701 h -10e-4 v 0 h -10e-4 -73.807 v -10e-4 0 -0.001 z"
       style="fill:#724352;fill-opacity:1;stroke-width:1.64541px"
       id="path89519" />
    <path
       d="m 743.63045,798.70079 h 73.809 v 10e-4 0 0.001 73.7 h -10e-4 v 0 h -10e-4 -73.807 v -10e-4 0 0 z"
       style="fill:#8b3942;fill-opacity:1;stroke-width:1.64541px"
       id="path89521" />
    <path
       d="m 817.44145,503.88388 h 73.809 v 0 73.70199 h -10e-4 -73.808 v 0 z"
       style="fill:#27678d;fill-opacity:1;stroke-width:1.64541px"
       id="path89914" />
    <path
       d="m 817.44145,577.58787 h 73.809 v 0.001 73.70201 h -10e-4 -73.808 v -10e-4 z"
       style="fill:#435c7b;fill-opacity:1;stroke-width:1.64541px"
       id="path89916" />
    <path
       d="m 817.44145,651.29289 h 73.808 v 0 73.702 0 h -73.808 v -0.001 z"
       style="fill:#5f5169;fill-opacity:1;stroke-width:1.64541px"
       id="path89918" />
    <path
       d="m 817.44145,724.99688 h 73.808 v 9.9e-4 73.70101 h -10e-4 -73.807 v 0 z"
       style="fill:#7a4657;fill-opacity:1;stroke-width:1.64541px"
       id="path89920" />
    <path
       d="m 817.44145,798.70088 h 73.808 v 10e-4 73.702 h -10e-4 -73.807 v -10e-4 z"
       style="fill:#963b45;fill-opacity:1;stroke-width:1.64541px"
       id="path89922" />
  </g>
</svg>
