<?xml version="1.0" encoding="UTF-8" standalone="no"?>
<!-- Created with Inkscape (http://www.inkscape.org/) -->

<svg
   width="365.77621"
   height="627.89594"
   viewBox="0 0 365.77621 627.89594"
   version="1.1"
   id="svg5"
   inkscape:version="1.2.2 (b0a8486541, 2022-12-01)"
   sodipodi:docname="blues_tints.svg"
   xmlns:inkscape="http://www.inkscape.org/namespaces/inkscape"
   xmlns:sodipodi="http://sodipodi.sourceforge.net/DTD/sodipodi-0.dtd"
   xmlns="http://www.w3.org/2000/svg"
   xmlns:svg="http://www.w3.org/2000/svg">
  <sodipodi:namedview
     id="namedview7"
     pagecolor="#505050"
     bordercolor="#eeeeee"
     borderopacity="1"
     inkscape:showpageshadow="0"
     inkscape:pageopacity="0"
     inkscape:pagecheckerboard="0"
     inkscape:deskcolor="#505050"
     inkscape:document-units="px"
     showgrid="false"
     inkscape:zoom="0.42471077"
     inkscape:cx="1338.558"
     inkscape:cy="620.42222"
     inkscape:window-width="1920"
     inkscape:window-height="997"
     inkscape:window-x="0"
     inkscape:window-y="0"
     inkscape:window-maximized="1"
     inkscape:current-layer="svg5" />
  <defs
     id="defs2" />
  <g
     id="g9942"
     inkscape:label="tints"
     style="display:inline"
     transform="translate(-2030.4802,22.873643)">
    <path
       id="rect7413"
       style="fill:#27678d;fill-rule:evenodd"
       d="m 2033.2965,-22.873643 h 106.2478 V 71.48795 h -106.2478 z" />
    <path
       id="rect7413-3"
       style="fill:#435c7b;fill-rule:evenodd"
       d="m 2290.0086,-22.873643 h 106.2478 V 71.48795 h -106.2478 z" />
    <path
       d="m 2033.2925,110.50978 h 106.25 v 2e-4 94.3618 0 h -106.25 v -0.001 z"
       style="fill:#5285a3;fill-opacity:1"
       id="path8133" />
    <path
       d="m 2030.4802,243.89361 h 106.25 v 0.001 94.361 0 h -106.25 v 0 z"
       style="fill:#7da3ba;fill-opacity:1"
       id="path8135" />
    <path
       d="m 2030.4802,377.27744 h 106.25 v 0 94.361 0 h -106.25 v 0 z"
       style="fill:#a8c2d1;fill-opacity:1"
       id="path8137" />
    <path
       d="m 2030.4802,510.66027 h 106.25 v 0 94.362 0 h -106.25 v 0 z"
       style="fill:#d3e0e8;fill-opacity:1"
       id="path8139" />
    <path
       d="m 2290.0125,110.50978 h 106.24 v 2e-4 94.3618 0 h -106.24 v -0.001 z"
       style="fill:#687c95;fill-opacity:1"
       id="path7784" />
    <path
       d="m 2287.2002,243.89361 h 106.24 v 0.001 94.361 0 h -106.24 v 0 z"
       style="fill:#8e9daf;fill-opacity:1"
       id="path7786" />
    <path
       d="m 2287.2002,377.27744 h 106.24 v 0 94.361 0 h -106.24 v 0 z"
       style="fill:#b3bdca;fill-opacity:1"
       id="path7788" />
    <path
       d="m 2287.2002,510.66027 h 106.24 v 0 94.362 0 h -106.24 v 0 z"
       style="fill:#d9dee4;fill-opacity:1"
       id="path7790" />
    <path
       d="m 2161.65,-22.8736 h 106.25 v 2e-4 94.3613 0 h -106.25 v -2e-4 z"
       style="fill:#356184"
       id="path8507" />
    <path
       d="m 2161.65,110.51 h 106.25 v 0 0.002 0.001 94.359 0 0 0 h -106.25 v -0.001 -0.002 -0.001 z"
       style="fill:#5d809c;fill-opacity:1"
       id="path8853" />
    <path
       d="m 2158.84,243.894 h 106.24 v 0 l 0.01,0.002 v 0.001 94.359 0 h -0.01 v 0 h -106.24 v 0 -0.003 0 z"
       style="fill:#85a0b4;fill-opacity:1"
       id="path9203" />
    <path
       d="m 2158.84,377.277 h 106.24 v 0 l 0.01,0.003 v 0 94.358 0 h -0.01 v 0 h -106.24 v 0 -0.002 0 z"
       style="fill:#adbfcd;fill-opacity:1"
       id="path9557" />
    <path
       d="m 2158.84,510.66 h 106.24 v 0 l 0.01,0.002 v 0.001 94.359 0 h -0.01 v 0 h -106.24 v 0 -0.002 0 z"
       style="fill:#d6dfe6;fill-opacity:1"
       id="path9915" />
  </g>
</svg>
