<?xml version="1.0" encoding="UTF-8" standalone="no"?>
<!-- Created with Inkscape (http://www.inkscape.org/) -->

<svg
   version="1.1"
   id="svg1087"
   width="232.64"
   height="237.75999"
   viewBox="0 0 232.64 237.75999"
   sodipodi:docname="dots.svg"
   inkscape:version="1.2.2 (b0a8486541, 2022-12-01)"
   xmlns:inkscape="http://www.inkscape.org/namespaces/inkscape"
   xmlns:sodipodi="http://sodipodi.sourceforge.net/DTD/sodipodi-0.dtd"
   xmlns="http://www.w3.org/2000/svg"
   xmlns:svg="http://www.w3.org/2000/svg">
  <defs
     id="defs1091" />
  <sodipodi:namedview
     id="namedview1089"
     pagecolor="#505050"
     bordercolor="#eeeeee"
     borderopacity="1"
     inkscape:showpageshadow="0"
     inkscape:pageopacity="0"
     inkscape:pagecheckerboard="0"
     inkscape:deskcolor="#505050"
     showgrid="false"
     inkscape:zoom="2.1773459"
     inkscape:cx="56.031519"
     inkscape:cy="97.595884"
     inkscape:window-width="1377"
     inkscape:window-height="869"
     inkscape:window-x="173"
     inkscape:window-y="59"
     inkscape:window-maximized="0"
     inkscape:current-layer="g1093" />
  <g
     inkscape:groupmode="layer"
     inkscape:label="Image"
     id="g1093">
    <path
       style="fill:#000000;stroke-width:0.32"
       d="m 95.04048,231.85412 c -7.58167,-2.93889 -10.21176,-6.70442 -11.31003,-12.95415 6.20304,-13.73656 12.88543,-17.88702 27.63003,-15.56615 3.37919,0.81064 6.11861,-0.24834 9.60744,3.6774 1.0924,5.58761 2.69637,10.1327 4.25436,14.65354 -0.57358,5.60083 -4.46722,11.3073 -9.7018,14.95167 -10.39035,2.53608 -13.69818,-2.89669 -20.48,-4.76231 z m 39.68,-17.36421 c -7.12379,-6.19572 -9.51671,-12.82812 -9.38856,-18.9286 1.57009,-9.30172 3.2742,-12.61778 13.86013,-16.7915 7.72954,-0.21063 11.47402,5.23161 18.0586,7.59647 4.55526,1.70058 6.78899,4.96973 7.01579,9.13679 -1.56592,7.62341 -7.36722,13.56555 -12.84991,15.38984 -5.62284,1.65791 -9.8102,4.83916 -16.69605,3.59701 z m -86.70886,-6.19057 c -6.24666,-6.38491 -10.85631,-14.78088 -13.29114,-21.74491 0,-3.97773 0.93066,-6.19325 4.11596,-9.79847 5.66714,-2.80014 12.32443,-4.89039 18.60576,-7.00046 7.06001,0.16861 15.07334,2.46341 18.49168,8.84819 1.532899,10.93919 -4.582798,32.36432 -16.68994,32.40926 -3.97846,-0.6662 -7.48207,-1.33699 -11.23232,-2.71361 z m 134.28218,-7.36389 c -5.79194,-3.52639 -9.59322,-7.50035 -9.65332,-12.77887 0,-3.44367 0.68619,-5.62262 2.57005,-8.16108 6.80726,-6.32389 14.42393,-9.32254 24.55434,-7.59198 4.48133,1.6978 8.87036,5.36237 10.98386,9.63582 -0.67806,4.25954 -0.49993,8.27454 -2.31616,13.13464 -2.98879,3.03561 -5.79458,2.33147 -9.39209,3.8785 -5.47224,0.29184 -10.82032,1.19438 -16.74668,1.88301 z M 83.80931,184.90866 c -0.74623,-5.19326 1.19029,-15.41577 1.90536,-24.21482 4.88254,-6.12043 7.26958,-3.42819 11.3661,-4.84169 5.93373,-1.60992 9.61579,2.51309 14.4729,5.26335 13.67341,7.71735 12.43671,24.16647 1.17203,31.82743 -5.01722,2.25196 -7.99032,4.78237 -14.67183,4.52417 -10.26792,-3.10669 -11.6588,-3.78162 -14.24456,-12.55844 z M 14.88048,182.37295 C 3.8748551,179.32219 -0.57926128,166.22652 1.1084598,158.3955 7.7640298,150.38055 14.52983,148.00767 20.74791,147.761 c 4.766051,1.45931 15.035306,-0.48279 18.14413,0.8182 6.94885,3.27967 9.62218,6.91314 9.56364,12.99844 -0.056,5.82372 -2.99368,9.60782 -9.83227,12.66534 -8.50568,2.27705 -13.16075,7.54171 -23.74293,8.12997 z m 140.14196,-2.62192 c -6.07595,-4.05419 -7.65623,-11.76769 -7.66196,-16.82817 0,-12.03722 4.07776,-16.04683 16.32,-16.04725 6.11687,-0.13615 18.38583,8.30605 20.48,14.81052 -1.16189,4.97679 -4.60999,11.73459 -8.10645,14.4272 -7.63939,3.60974 -12.22186,4.18633 -21.03159,3.6377 z M 53.81868,160.07102 c -3.10312,-8.90209 -5.017346,-15.48707 -0.22567,-24.28864 5.75167,-4.08376 10.30697,-5.67195 17.22013,-4.91318 7.53356,1.50817 18.48784,8.25498 20.23773,16.96241 -0.18851,3.44363 -5.67328,6.09125 -7.34267,8.27194 -5.0967,6.69793 -9.74592,10.98394 -17.30772,11.28661 -5.21508,0.49216 -10.53155,-3.17615 -12.5818,-7.31914 z m 148.2618,6.98106 c -5.41128,-1.00702 -9.95112,-3.92969 -10.84032,-8.7459 -1.85683,-4.19014 -4.17807,-8.12537 -4.19968,-12.01163 1.21066,-8.28111 4.37838,-10.05115 9.77044,-11.22759 3.52725,-0.9961 7.36796,-1.51636 10.84857,-0.61691 6.15627,3.75598 8.00636,8.14191 8.13015,13.10579 -0.39289,6.4558 -1.11232,11.58863 -4.10622,16.77638 -2.42339,2.50263 -6.33546,3.90982 -9.60294,2.71986 z m -85.51954,-8.23026 c -2.26929,-3.31882 -5.73985,-6.07728 -7.1236,-9.87577 -1.10339,-7.45298 0.58925,-17.8289 5.5042,-20.72252 7.30461,-0.86007 15.90081,-1.05418 21.67246,1.55313 4.50606,3.00219 7.62588,8.32647 7.81921,12.65726 0.38704,8.98717 -7.83502,19.93479 -16.81443,22.51268 -4.07278,1.16925 -8.77673,-2.80172 -11.05784,-6.12478 z M 9.6061198,132.45683 c -2.55436,-5.32503 -5.32509,-8.91454 -4.54516,-15.86766 5.5719802,-7.25702 13.4033702,-13.02956 19.8995202,-11.64869 8.71588,3.60543 17.29326,8.66266 22.07611,17.09635 1.68713,7.59019 -1.27765,10.11354 -5.02798,15.23867 -1.38762,1.90797 -4.34034,4.81603 -6.30089,6.20558 -12.54209,0.27895 -21.79785,-0.74095 -26.1016002,-11.02425 z m 157.9778702,9.42673 c -5.45651,-3.1458 -12.22127,-7.46979 -12.38351,-13.40806 2.16029,-6.35883 5.65099,-8.06782 9.20876,-13.23515 2.65983,-2.54125 4.86275,-3.53712 8.13371,-3.67696 5.95199,-0.25446 11.7654,3.09177 13.4931,7.76672 1.71062,7.50402 1.31083,16.90492 -3.50921,21.43051 -5.44315,4.30351 -8.52306,4.38102 -14.94285,1.12294 z M 76.29711,127.57301 c -1.70449,-1.9364 -5.26653,-9.26211 -6.09328,-12.53144 -0.30773,-7.20985 0.85153,-11.61813 4.35107,-17.212262 5.63767,-4.609379 12.43679,-5.68237 18.27972,-4.403564 5.83477,1.319987 7.3924,2.272575 9.55303,3.720134 5.71902,4.975912 7.06936,12.730542 7.07414,18.364722 -0.22668,6.63018 0.29482,13.91758 -7.53608,16.75278 -10.068557,3.64535 -19.00782,-2.45691 -25.6286,-4.69037 z m 113.72049,-7.16263 c -2.61129,-4.29516 -2.6537,-8.56277 -3.62764,-13.20032 -1.21742,-4.10051 1.26105,-9.830042 5.26808,-12.178323 7.66508,-3.071493 11.83436,-0.835701 17.94244,0.945762 6.77568,3.990419 7.17868,10.347021 6.40671,16.514451 -1.13113,6.38627 -1.58245,10.57079 -8.57789,16.11066 -6.97676,-0.47676 -13.32137,-3.31368 -17.4117,-8.19223 z m -68.51227,0.63441 c -7.42048,-5.25316 -9.50561,-11.21214 -8.78206,-18.64928 3.16032,-8.947678 8.20992,-13.634484 16.89913,-15.51462 6.56497,0.363447 14.28393,4.547561 17.95574,9.679423 1.88943,3.860617 2.75192,8.450297 4.10577,11.915197 1.98355,5.04075 0.66947,10.82769 -3.11403,13.7135 -9.3519,1.50979 -18.30486,2.57305 -27.06455,-1.14422 z M 32.96643,103.14451 C 24.243451,98.798587 18.828833,87.189164 22.05739,79.675508 28.372059,71.062215 37.770747,62.568349 48.89475,65.758475 c 3.82933,1.182758 7.76124,4.373372 11.03809,8.957033 5.662723,5.014261 4.250298,12.013548 6.86088,17.901782 1.58999,3.445363 1.03688,6.947418 -1.49553,9.46906 -3.820606,2.73151 -13.713078,5.88738 -17.58781,5.8825 -5.30867,0.0418 -10.34778,-2.53936 -14.74395,-4.82434 z m 124.47405,-3.274432 c -5.19174,-4.310434 -12.1088,-12.869072 -9.64654,-18.59457 1.87563,-4.016285 5.84426,-9.19529 8.60703,-11.232048 6.51783,-3.429767 14.2547,-3.450331 21.65812,-0.426643 5.63955,3.48662 8.20341,9.550189 8.34139,16.13869 -3.04948,7.191832 -1.97113,14.317553 -9.25857,16.892093 -6.0865,2.15027 -12.59072,-1.10184 -19.70143,-2.777522 z m 36.36975,-29.615549 c 2.59009,-12.66146 3.63851,-11.466255 11.91248,-14.710716 5.51137,-2.757891 11.82787,-1.314019 15.66325,0.223916 5.94396,4.38525 9.01432,7.375971 10.71413,13.347779 -0.31651,4.853614 -2.88696,6.038643 -5.10308,9.76 -3.78249,6.940045 -11.62816,9.861814 -16.97098,10.074847 -10.41249,-5.609328 -16.01795,-11.053243 -16.2158,-18.695826 z M 77.07867,84.928848 C 69.04802,83.388203 65.41525,79.826493 63.63825,73.73737 c -1.96252,-8.947143 1.24888,-16.201755 7.9865,-23.074124 3.13836,-2.480735 8.68426,-4.747737 11.61466,-4.747737 6.86822,1.246296 16.45464,3.806816 20.92107,8.777305 1.17263,6.683361 0.96608,14.111691 -0.12745,20.182694 -1.41627,4.622236 -6.12378,9.683471 -10.09103,10.84926 -5.8163,1.117721 -11.30602,-0.891534 -16.86333,-0.79592 z m 48.20116,-5.823024 c -6.22084,-2.909851 -10.4957,-5.488945 -14.36784,-10.311481 -2.43683,-2.948892 -2.56264,-6.011843 -0.4273,-10.403087 1.94597,-4.00183 3.81817,-5.945494 10.41542,-10.812966 6.3389,-4.086997 13.31876,-6.99355 19.43754,-4.002589 4.36649,2.198341 5.98966,6.014771 7.69046,9.745149 4.74958,11.515653 0.89347,21.832802 -10.57007,26.728165 -4.50093,1.584453 -9.19976,0.05657 -12.17821,-0.943191 z m 45.16443,-17.344309 c -16.24623,-7.224568 -11.50033,-17.330811 -10.1899,-28.448261 1.76684,-5.747432 5.3621,-8.489483 9.50612,-9.835798 5.18734,-1.67461 7.86377,-1.901513 11.30223,-0.958183 6.574,2.382297 12.30629,6.978585 14.92232,13.668393 1.80734,10.523669 0.97031,17.351113 -10.43227,27.180729 -5.53328,1.124263 -10.67086,1.229005 -15.1085,-1.60688 z M 45.28048,56.549755 C 39.77427,52.284908 31.6696,42.433548 30.10264,36.637023 c 3.10753,-10.77213 4.062316,-18.309699 12.77784,-23.123599 7.28577,-2.585063 11.14662,-2.902792 16.8,0.06908 9.113159,8.861391 5.179029,17.626627 7.58257,25.200355 0.98836,2.710204 1.29744,6.239942 0.72851,8.319711 -2.16352,4.907867 -8.29016,7.76977 -12.55775,9.022221 -3.96058,1.138438 -7.2409,1.275734 -10.15333,0.424964 z M 78.84829,37.34262 C 72.271302,30.84493 74.067293,22.029852 75.00531,12.741344 86.685214,5.3668165 93.085652,2.009834 101.97609,5.3721729 c 6.93359,6.9641811 11.29206,16.0142261 11.27746,23.4233371 -0.0342,6.922992 -0.4511,8.230051 -3.62383,11.362463 -3.12565,3.085943 -4.50036,3.666208 -8.82926,3.726835 C 94.328613,43.239317 83.560263,40.34196 78.84829,37.34262 Z m 44.66125,-4.026851 c -5.50142,-7.140593 -6.92821,-11.214561 -7.39649,-17.096752 0.83634,-5.76267 3.29521,-7.6917184 6.48762,-10.3700067 4.50015,-3.4240904 10.00733,-5.3476328 14.71855,-5.3678474 5.30839,0.3107359 13.25299,0.47136598 14.9903,5.4897441 3.46939,10.021662 2.70169,16.014354 -0.37084,26.850526 -3.57154,1.397489 -6.56676,3.491027 -9.09904,5.403884 -8.1261,-0.175558 -14.74447,-1.294547 -19.3301,-4.909548 z"
       id="path1631"
       sodipodi:nodetypes="ccccccccccccccccccccccccccccccccccccccccccsccccccccccccccccccccccccccccscccccccccccscccccccccsccccccccccccccccccccccccccccsccccccccccccccccccsccccccccccccccccccccccccsccccccsccc" />
  </g>
</svg>
