<?xml version="1.0" encoding="UTF-8" standalone="no"?>
<!-- Created with Inkscape (http://www.inkscape.org/) -->

<svg
   width="811.92004"
   height="515.92755"
   viewBox="0 0 811.92004 515.92755"
   version="1.1"
   id="svg5"
   sodipodi:docname="/tmp/ink_ext_XXXXXX.svgBRK9R2"
   xmlns:inkscape="http://www.inkscape.org/namespaces/inkscape"
   xmlns:sodipodi="http://sodipodi.sourceforge.net/DTD/sodipodi-0.dtd"
   xmlns="http://www.w3.org/2000/svg"
   xmlns:svg="http://www.w3.org/2000/svg">
  <sodipodi:namedview
     id="namedview7"
     pagecolor="#505050"
     bordercolor="#eeeeee"
     borderopacity="1"
     inkscape:showpageshadow="0"
     inkscape:pageopacity="0"
     inkscape:pagecheckerboard="0"
     inkscape:deskcolor="#505050"
     inkscape:document-units="px"
     showgrid="true"
     inkscape:zoom="0.62315829"
     inkscape:cx="970.86087"
     inkscape:cy="597.76144"
     inkscape:window-width="1920"
     inkscape:window-height="997"
     inkscape:window-x="0"
     inkscape:window-y="0"
     inkscape:window-maximized="1"
     inkscape:current-layer="layer1">
    <inkscape:grid
       type="xygrid"
       id="grid9424" />
  </sodipodi:namedview>
  <defs
     id="defs2" />
  <g
     inkscape:label="Layer 1"
     inkscape:groupmode="layer"
     id="layer1"
     transform="translate(-1011.6738,-541.74066)">
    <g
       id="g74106"
       inkscape:export-filename="g74106.svg"
       inkscape:export-xdpi="96"
       inkscape:export-ydpi="96">
      <g
         id="g74020"
         transform="translate(-10.756682,41.704668)">
        <path
           d="m 1022.4333,500.03614 h 73.809 v 0 73.702 0 h -73.809 v 0 z"
           style="fill:#252525;fill-opacity:1;stroke-width:1.64541px"
           id="path34173-6" />
        <path
           d="m 1760.5397,500.03614 h 73.808 v 0 73.702 0 h -73.808 v -0.001 z"
           style="fill:#3812ca;fill-opacity:1;stroke-width:1.64541px"
           id="path34298-8" />
        <path
           d="m 1096.24,500.036 h 73.81 v 0 0 0 73.702 0 0 0 h -73.81 v 0 0 -0.001 z"
           style="fill:#262335;fill-opacity:1;stroke-width:1.64541px"
           id="path58399" />
        <path
           d="m 1170.05,500.036 h 73.81 v 0 0 0 73.702 0 0 0 h -73.81 v 0 0 -0.001 z"
           style="fill:#282146;fill-opacity:1;stroke-width:1.64541px"
           id="path58401" />
        <path
           d="m 1243.87,500.036 h 73.8 v 0 0 10e-4 73.701 0 0 0 h -73.8 v 0 0 -0.001 z"
           style="fill:#2a1f56;fill-opacity:1;stroke-width:1.64541px"
           id="path58403" />
        <path
           d="m 1317.68,500.036 h 73.8 v 0 0 10e-4 73.701 0 0 0 h -73.8 v 0 0 -0.001 z"
           style="fill:#2c1d67;fill-opacity:1;stroke-width:1.64541px"
           id="path58405" />
        <path
           d="m 1391.49,500.036 h 73.81 v 0 10e-4 0 73.701 0 h -0.01 v 0 h -73.8 v 0 0 -0.001 z"
           style="fill:#2e1b77;fill-opacity:1;stroke-width:1.64541px"
           id="path58407" />
        <path
           d="m 1465.3,500.036 h 73.81 v 0 10e-4 0 73.701 0 0 h -0.01 -73.8 v 0 0 -0.001 z"
           style="fill:#301988;fill-opacity:1;stroke-width:1.64541px"
           id="path58409" />
        <path
           d="m 1539.11,500.036 h 73.81 v 0 10e-4 0 73.701 0 0 0 h -73.81 v -0.001 0 0 z"
           style="fill:#321798;fill-opacity:1;stroke-width:1.64541px"
           id="path58411" />
        <path
           d="m 1612.92,500.036 h 73.81 v 0 10e-4 0 73.701 0 0 0 h -73.81 v -0.001 0 0 z"
           style="fill:#3415a9;fill-opacity:1;stroke-width:1.64541px"
           id="path58413" />
        <path
           d="m 1686.73,500.036 h 73.81 v 0 10e-4 0 73.701 0 0 0 h -73.81 v -0.001 0 0 z"
           style="fill:#3613b9;fill-opacity:1;stroke-width:1.64541px"
           id="path58415" />
      </g>
      <g
         id="g73887"
         transform="translate(-10.756682,229.90481)">
        <path
           d="m 1022.4351,754.06145 h 73.8088 v 0 73.702 0 h -73.8088 v 0 z"
           style="fill:#231e1c;fill-opacity:1;stroke-width:1.64541px"
           id="path34173-3-8" />
        <path
           d="m 1760.5379,754.06145 h 73.808 v 0 73.702 0 h -73.808 v -0.001 z"
           style="fill:#ca4c0b;fill-opacity:1;stroke-width:1.64541px"
           id="path34298-0-2" />
        <path
           d="m 1096.25,754.061 h 73.8 v 0 10e-4 0 73.701 0 0 0 h -73.8 v 0 0 0 z"
           style="fill:#33221a;fill-opacity:1;stroke-width:1.64541px"
           id="path59586" />
        <path
           d="m 1170.06,754.061 h 73.8 v 0 10e-4 0 73.701 0 0 0 h -73.8 v 0 0 0 z"
           style="fill:#442718;fill-opacity:1;stroke-width:1.64541px"
           id="path59588" />
        <path
           d="m 1243.87,754.061 h 73.8 v 0 10e-4 0 73.701 0 0 0 h -73.8 v 0 0 0 z"
           style="fill:#552b16;fill-opacity:1;stroke-width:1.64541px"
           id="path59590" />
        <path
           d="m 1317.68,754.061 h 73.8 v 0 10e-4 0 73.701 0 0 0 h -73.8 v 0 0 0 z"
           style="fill:#653015;fill-opacity:1;stroke-width:1.64541px"
           id="path59592" />
        <path
           d="m 1391.49,754.061 h 73.8 v 0 10e-4 0 73.701 0 0 0 h -73.8 v 0 0 0 z"
           style="fill:#763513;fill-opacity:1;stroke-width:1.64541px"
           id="path59594" />
        <path
           d="m 1465.3,754.061 h 73.81 v 0 10e-4 0 73.701 0 h -0.01 v 0 h -73.8 v 0 0 0 z"
           style="fill:#873911;fill-opacity:1;stroke-width:1.64541px"
           id="path59596" />
        <path
           d="m 1539.11,754.061 h 73.81 v 0 10e-4 0 73.701 0 0 h -0.01 -73.8 v 0 0 -0.001 z"
           style="fill:#973e10;fill-opacity:1;stroke-width:1.64541px"
           id="path59598" />
        <path
           d="m 1612.92,754.061 h 73.81 v 0 10e-4 10e-4 73.7 0 0 0 h -73.81 v 0 0 -0.001 z"
           style="fill:#a8420e;fill-opacity:1;stroke-width:1.64541px"
           id="path59600" />
        <path
           d="m 1686.73,754.061 h 73.81 v 0 10e-4 10e-4 73.7 0 0 0 h -73.81 v 0 0 -0.001 z"
           style="fill:#b9470c;fill-opacity:1;stroke-width:1.64541px"
           id="path59602" />
      </g>
      <g
         id="g74007"
         transform="translate(-10.756182,73.070808)">
        <path
           d="m 1022.43,542.374 h 73.81 v 0 0 0 73.702 0 0 0 h -73.81 v 0 0 -10e-4 z"
           style="fill:#242323;fill-opacity:1;stroke-width:1.64541px"
           id="path60807" />
        <path
           d="m 1096.24,542.374 h 73.81 v 0 0 0 0 0 10e-4 0 73.701 0 0 0 0 0 0 0 h -73.8 v 0 0 h -0.01 v -10e-4 0 -0.001 -10e-4 z"
           style="fill:#282230;fill-opacity:1;stroke-width:1.64541px"
           id="path62102" />
        <path
           d="m 1170.05,542.374 h 73.81 v 0 0 0 0 0 10e-4 0 73.701 0 0 0 0 0 0 0 h -73.8 v 0 0 h -0.01 v -10e-4 0 -0.001 -10e-4 z"
           style="fill:#2c223e;fill-opacity:1;stroke-width:1.64541px"
           id="path63319" />
        <path
           d="m 1243.87,542.374 h 73.8 v 0 0 0 0 10e-4 0 0 73.7 0 0 0 0 0 0 0 h -73.8 v 0 0 0 0 0 0 -0.001 z"
           style="fill:#31214b;fill-opacity:1;stroke-width:1.64541px"
           id="path64548" />
        <path
           d="m 1317.68,542.374 h 73.8 v 0 0 0 0 10e-4 0 0 73.7 0 0 0 0 0 0 0 h -73.8 v 0 0 0 0 0 0 -0.001 z"
           style="fill:#352059;fill-opacity:1;stroke-width:1.64541px"
           id="path65789" />
        <path
           d="m 1391.49,542.374 h 73.8 v 0 h 0.01 v 0 0 0 10e-4 0 73.7 0 0 0 0 0 h -0.01 v 0 h -73.8 v 0 0 0 0 0 -0.001 -10e-4 z"
           style="fill:#3a1f66;fill-opacity:1;stroke-width:1.64541px"
           id="path67042" />
        <path
           d="m 1465.3,542.374 h 73.81 v 0 0 0 10e-4 0 0 0 73.7 0 0 0 0 h -0.01 v 0 0 h -73.8 v 0 0 0 0 -0.001 0 0 z"
           style="fill:#3e1e74;fill-opacity:1;stroke-width:1.64541px"
           id="path68307" />
        <path
           d="m 1539.11,542.374 h 73.81 v 0 0 0 10e-4 0 0 0 73.7 0 0 0 0 0 0 h -0.01 -73.8 v 0 0 -0.001 0 0 0 -10e-4 z"
           style="fill:#421d81;fill-opacity:1;stroke-width:1.64541px"
           id="path69584" />
        <path
           d="m 1612.92,542.374 h 73.81 v 0 0 0 10e-4 0 0 0 73.7 0 0 0 0 0 0 0 h -73.81 v 0 0 0 -0.001 0 0 0 z"
           style="fill:#471c8f;fill-opacity:1;stroke-width:1.64541px"
           id="path70873" />
        <path
           d="m 1686.73,542.374 h 73.81 v 0 0 0 10e-4 0 0 0 73.7 0 0 0 0 0 0 0 h -73.81 v 0 0 0 -0.001 0 0 0 z"
           style="fill:#4b1b9c;fill-opacity:1;stroke-width:1.64541px"
           id="path72174" />
        <path
           d="m 1760.54,542.374 h 73.81 v 0 0 0 73.702 0 0 0 h -73.81 v 0 -10e-4 0 z"
           style="fill:#501baa;fill-opacity:1;stroke-width:1.64541px"
           id="path73487" />
      </g>
      <g
         id="g73994"
         transform="translate(-10.756182,104.43781)">
        <path
           d="m 1022.43,584.711 h 73.81 v 0 10e-4 0 73.701 0 0 0 h -73.81 v 0 0 0 z"
           style="fill:#242222;fill-opacity:1;stroke-width:1.64541px"
           id="path60809" />
        <path
           d="m 1096.24,584.711 h 73.81 v 0 0 0 10e-4 10e-4 0 0 73.7 0 0 0 0 0 0 0 h -73.8 v 0 0 0 l -0.01,-0.002 v 0 0 -10e-4 z"
           style="fill:#2a222c;fill-opacity:1;stroke-width:1.64541px"
           id="path62104" />
        <path
           d="m 1170.05,584.711 h 73.81 v 0 0 0 10e-4 10e-4 0 0 73.7 0 0 0 0 0 0 0 h -73.8 v 0 0 0 l -0.01,-0.002 v 0 0 -10e-4 z"
           style="fill:#312336;fill-opacity:1;stroke-width:1.64541px"
           id="path63321" />
        <path
           d="m 1243.87,584.711 h 73.8 v 0 0 0 0 10e-4 0 0 73.701 0 0 0 0 0 0 0 h -73.8 v 0 0 0 0 0 -10e-4 -0.001 z"
           style="fill:#382340;fill-opacity:1;stroke-width:1.64541px"
           id="path64550" />
        <path
           d="m 1317.68,584.711 h 73.8 v 0 0 0 0 10e-4 0 0 73.701 0 0 0 0 0 0 0 h -73.8 v 0 0 0 0 0 -10e-4 -0.001 z"
           style="fill:#3f234b;fill-opacity:1;stroke-width:1.64541px"
           id="path65791" />
        <path
           d="m 1391.49,584.711 h 73.8 v 0 0 0 l 0.01,10e-4 v 10e-4 0.001 0 73.699 0 0 0 0 h -0.01 v 0 0 h -73.8 v 0 0 0 -0.002 0 0 -10e-4 z"
           style="fill:#462355;fill-opacity:1;stroke-width:1.64541px"
           id="path67044" />
        <path
           d="m 1465.3,584.711 h 73.81 v 0 0 0 10e-4 0 0 0 73.701 0 0 0 0 h -0.01 v 0 0 h -73.8 v 0 0 -10e-4 0 0 0 -0.001 z"
           style="fill:#4d2360;fill-opacity:1;stroke-width:1.64541px"
           id="path68309" />
        <path
           d="m 1539.11,584.711 h 73.81 v 0 0 0 10e-4 0 0 0 73.701 0 0 0 0 0 0 h -0.01 -73.8 v -10e-4 0 0 0 0 0 -0.001 z"
           style="fill:#53246a;fill-opacity:1;stroke-width:1.64541px"
           id="path69586" />
        <path
           d="m 1612.92,584.711 h 73.81 v 0 0 0 10e-4 0 0 10e-4 73.7 0 0 0 0 0 0 0 h -73.81 v 0 0 0 -10e-4 0 0 -0.001 z"
           style="fill:#5a2475;fill-opacity:1;stroke-width:1.64541px"
           id="path70875" />
        <path
           d="m 1686.73,584.711 h 73.81 v 0 0 0 10e-4 0 0 10e-4 73.7 0 0 0 0 0 0 0 h -73.81 v 0 0 0 -10e-4 0 0 -0.001 z"
           style="fill:#61247f;fill-opacity:1;stroke-width:1.64541px"
           id="path72176" />
        <path
           d="m 1760.54,584.711 h 73.81 v 0 10e-4 0 73.701 0 0 0 h -73.81 v 0 -10e-4 0 z"
           style="fill:#68258a;fill-opacity:1;stroke-width:1.64541px"
           id="path73489" />
      </g>
      <g
         id="g73981"
         transform="translate(-10.756182,135.80481)">
        <path
           d="m 1022.43,627.049 h 73.81 v 0 0 0 73.702 0 0 0 h -73.81 v 0 -10e-4 0 z"
           style="fill:#242120;fill-opacity:1;stroke-width:1.64541px"
           id="path60811" />
        <path
           d="m 1096.24,627.048 h 73.81 v 0 10e-4 0 0.002 0 10e-4 0 73.699 0 0 0 0 0 0 0 h -73.8 v 0 0 0 l -0.01,-0.003 v 0 -0.001 -10e-4 z"
           style="fill:#2c2227;fill-opacity:1;stroke-width:1.64541px"
           id="path62106" />
        <path
           d="m 1170.05,627.048 h 73.81 v 0 10e-4 0 0.002 0 10e-4 0 73.699 0 0 0 0 0 0 0 h -73.8 v 0 0 0 l -0.01,-0.003 v 0 -0.001 -10e-4 z"
           style="fill:#36242f;fill-opacity:1;stroke-width:1.64541px"
           id="path63323" />
        <path
           d="m 1243.87,627.048 h 73.8 v 0 10e-4 0 0 0 0 10e-4 73.7 0 0 0 0 0 0 0 h -73.8 v 0 0 0 0 0 0 -0.002 z"
           style="fill:#3f2536;fill-opacity:1;stroke-width:1.64541px"
           id="path64552" />
        <path
           d="m 1317.68,627.048 h 73.8 v 0 10e-4 0 0 0 0 10e-4 73.7 0 0 0 0 0 0 0 h -73.8 v 0 0 0 0 0 0 -0.002 z"
           style="fill:#48263e;fill-opacity:1;stroke-width:1.64541px"
           id="path65793" />
        <path
           d="m 1391.49,627.048 h 73.8 v 0 10e-4 0 l 0.01,0.002 v 0 10e-4 0 73.698 0 h -0.01 v 0 0 0 h -0.01 v 0 h -73.79 v 0 0 0 -0.002 0 -0.001 -10e-4 z"
           style="fill:#522845;fill-opacity:1;stroke-width:1.64541px"
           id="path67046" />
        <path
           d="m 1465.3,627.048 h 73.81 v 0 10e-4 0 0 0 10e-4 0 73.7 0 0 0 0 h -0.01 v 0 0 h -73.8 v 0 0 0 0 -10e-4 0 -10e-4 z"
           style="fill:#5b294c;fill-opacity:1;stroke-width:1.64541px"
           id="path68311" />
        <path
           d="m 1539.11,627.048 h 73.81 v 0 10e-4 0 0 0 10e-4 0 73.7 0 0 0 0 0 0 h -0.01 -73.8 v 0 0 0 0 -10e-4 0 -10e-4 z"
           style="fill:#642a54;fill-opacity:1;stroke-width:1.64541px"
           id="path69588" />
        <path
           d="m 1612.92,627.048 h 73.81 v 0 10e-4 0 0 10e-4 0 0 73.7 0 0 0 0 0 0 0 h -73.81 v 0 0 0 0 -10e-4 0 0 z"
           style="fill:#6e2b5b;fill-opacity:1;stroke-width:1.64541px"
           id="path70877" />
        <path
           d="m 1686.73,627.048 h 73.81 v 0 10e-4 0 0 10e-4 0 0 73.7 0 0 0 0 0 0 0 h -73.81 v 0 0 0 0 -10e-4 0 0 z"
           style="fill:#772d62;fill-opacity:1;stroke-width:1.64541px"
           id="path72178" />
        <path
           d="m 1760.54,627.049 h 73.81 v 0 0 0 73.702 0 0 0 h -73.81 v -10e-4 0 -10e-4 z"
           style="fill:#812f6a;fill-opacity:1;stroke-width:1.64541px"
           id="path73491" />
      </g>
      <g
         id="g73968"
         transform="translate(-10.756182,167.17181)">
        <path
           d="m 1022.43,669.386 h 73.81 v 0 10e-4 0 73.701 0 0 0 h -73.81 v 0 0 -10e-4 z"
           style="fill:#23201f;fill-opacity:1;stroke-width:1.64541px"
           id="path60813" />
        <path
           d="m 1096.25,669.386 h 73.8 v 0 10e-4 0 0.002 10e-4 0 10e-4 73.697 0 0 0 0 0 0 0 h -73.8 v 0 0 0 -0.004 0 0 -10e-4 z"
           style="fill:#2e2223;fill-opacity:1;stroke-width:1.64541px"
           id="path62108" />
        <path
           d="m 1170.06,669.386 h 73.8 v 0 10e-4 0 0.002 10e-4 0 10e-4 73.697 0 0 0 0 0 0 0 h -73.8 v 0 0 0 -0.004 0 0 -10e-4 z"
           style="fill:#3a2527;fill-opacity:1;stroke-width:1.64541px"
           id="path63325" />
        <path
           d="m 1243.87,669.386 h 73.8 v 0 10e-4 0 0 0 0 0.001 73.7 0 0 0 0 0 0 0 h -73.8 v 0 0 0 -10e-4 0 0 -0.002 z"
           style="fill:#46272b;fill-opacity:1;stroke-width:1.64541px"
           id="path64554" />
        <path
           d="m 1317.68,669.386 h 73.8 v 0 10e-4 0 0 0 0 0.001 73.7 0 0 0 0 0 0 0 h -73.8 v 0 0 0 -10e-4 0 0 -0.002 z"
           style="fill:#522930;fill-opacity:1;stroke-width:1.64541px"
           id="path65795" />
        <path
           d="m 1391.49,669.386 h 73.8 v 0 10e-4 0 0.002 10e-4 0 10e-4 73.697 0 0 0 0 0 h -0.01 v 0 h -73.79 v 0 0 0 -0.004 0 0 -10e-4 z"
           style="fill:#5e2c34;fill-opacity:1;stroke-width:1.64541px"
           id="path67048" />
        <path
           d="m 1465.3,669.386 h 73.81 v 0 10e-4 0 0 0 0.001 0 73.7 0 0 0 0 h -0.01 v 0 0 h -73.8 v 0 0 0 -10e-4 0 -10e-4 -10e-4 z"
           style="fill:#6a2e38;fill-opacity:1;stroke-width:1.64541px"
           id="path68313" />
        <path
           d="m 1539.11,669.386 h 73.81 v 0 10e-4 0 0 0 0.001 0 73.7 0 0 0 0 0 0 h -0.01 -73.8 v 0 0 -10e-4 0 -10e-4 0 -10e-4 z"
           style="fill:#75313d;fill-opacity:1;stroke-width:1.64541px"
           id="path69590" />
        <path
           d="m 1612.92,669.386 h 73.81 v 0 10e-4 0 0 0.001 0 0 73.7 0 0 0 0 0 0 0 h -73.81 v 0 0 -10e-4 0 -10e-4 0 0 z"
           style="fill:#813341;fill-opacity:1;stroke-width:1.64541px"
           id="path70879" />
        <path
           d="m 1686.73,669.386 h 73.81 v 0 10e-4 0 0 0.001 0 0 73.7 0 0 0 0 0 0 0 h -73.81 v 0 0 -10e-4 0 -10e-4 0 0 z"
           style="fill:#8d3545;fill-opacity:1;stroke-width:1.64541px"
           id="path72180" />
        <path
           d="m 1760.54,669.386 h 73.81 v 0 10e-4 0 73.701 0 0 0 h -73.81 v 0 -10e-4 0 z"
           style="fill:#99384a;fill-opacity:1;stroke-width:1.64541px"
           id="path73493" />
      </g>
      <g
         id="g73955"
         transform="translate(-10.756182,198.53781)">
        <path
           d="m 1022.43,711.724 h 73.81 v 0 10e-4 0 73.701 0 0 0 h -73.81 v 0 -0.001 0 z"
           style="fill:#231f1d;fill-opacity:1;stroke-width:1.64541px"
           id="path60815" />
        <path
           d="m 1096.25,711.724 h 73.8 v 0 0 0 0.003 10e-4 0.001 0 73.697 0 0 0 0 0 0 0 h -73.8 v 0 0 0 -0.005 0 -0.001 -10e-4 z"
           style="fill:#30221e;fill-opacity:1;stroke-width:1.64541px"
           id="path62110" />
        <path
           d="m 1170.06,711.724 h 73.8 v 0 0 0 0.003 10e-4 0.001 0 73.697 0 0 0 0 0 0 0 h -73.8 v 0 0 0 -0.005 0 -0.001 -10e-4 z"
           style="fill:#3f261f;fill-opacity:1;stroke-width:1.64541px"
           id="path63327" />
        <path
           d="m 1243.87,711.724 h 73.8 v 0 0 0 0 10e-4 0 0 73.701 0 0 0 0 0 0 0 h -73.8 v 0 0 0 -0.001 -10e-4 0 -10e-4 z"
           style="fill:#4d2920;fill-opacity:1;stroke-width:1.64541px"
           id="path64556" />
        <path
           d="m 1317.68,711.724 h 73.8 v 0 0 0 0 10e-4 0 0 73.701 0 0 0 0 0 0 0 h -73.8 v 0 0 0 -0.001 -10e-4 0 -10e-4 z"
           style="fill:#5b2c22;fill-opacity:1;stroke-width:1.64541px"
           id="path65797" />
        <path
           d="m 1391.49,711.724 h 73.8 v 0 0 0 0.003 10e-4 0.001 0 73.697 0 0 0 0 0 h -0.01 v 0 h -73.79 v 0 0 0 -0.005 0 -0.001 -10e-4 z"
           style="fill:#6a3023;fill-opacity:1;stroke-width:1.64541px"
           id="path67050" />
        <path
           d="m 1465.3,711.724 h 73.81 v 0 0 0 10e-4 0 0 10e-4 73.7 0 0 0 0 h -0.01 v 0 0 h -73.8 v 0 0 -0.001 0 -10e-4 0 -10e-4 z"
           style="fill:#783324;fill-opacity:1;stroke-width:1.64541px"
           id="path68315" />
        <path
           d="m 1539.11,711.724 h 73.81 v 0 0 0 10e-4 0 0 10e-4 73.7 0 0 0 0 0 0 h -0.01 -73.8 v -0.001 0 0 0 -10e-4 -10e-4 0 z"
           style="fill:#863726;fill-opacity:1;stroke-width:1.64541px"
           id="path69592" />
        <path
           d="m 1612.92,711.724 h 73.81 v 0 0 0 10e-4 0 0 0 73.701 0 0 0 0 0 0 0 h -73.81 v 0 0 -0.001 0 -10e-4 -10e-4 0 z"
           style="fill:#943a27;fill-opacity:1;stroke-width:1.64541px"
           id="path70881" />
        <path
           d="m 1686.73,711.724 h 73.81 v 0 0 0 10e-4 0 0 0 73.701 0 0 0 0 0 0 0 h -73.81 v 0 0 -0.001 0 -10e-4 -10e-4 0 z"
           style="fill:#a33e28;fill-opacity:1;stroke-width:1.64541px"
           id="path72182" />
        <path
           d="m 1760.54,711.724 h 73.81 v 0 10e-4 0 73.701 0 0 h -0.01 -73.8 v -0.001 0 -10e-4 z"
           style="fill:#b1422a;fill-opacity:1;stroke-width:1.64541px"
           id="path73495" />
      </g>
    </g>
  </g>
</svg>
