<?xml version="1.0" encoding="UTF-8" standalone="no"?>
<!-- Created with Inkscape (http://www.inkscape.org/) -->

<svg
   width="1920"
   height="1200"
   viewBox="0 0 1920 1200"
   version="1.1"
   id="svg5"
   inkscape:version="1.2.2 (b0a8486541, 2022-12-01)"
   sodipodi:docname="viewfinders.svg"
   xmlns:inkscape="http://www.inkscape.org/namespaces/inkscape"
   xmlns:sodipodi="http://sodipodi.sourceforge.net/DTD/sodipodi-0.dtd"
   xmlns="http://www.w3.org/2000/svg"
   xmlns:svg="http://www.w3.org/2000/svg">
  <sodipodi:namedview
     id="namedview7"
     pagecolor="#505050"
     bordercolor="#eeeeee"
     borderopacity="1"
     inkscape:showpageshadow="0"
     inkscape:pageopacity="0"
     inkscape:pagecheckerboard="0"
     inkscape:deskcolor="#505050"
     inkscape:document-units="px"
     showgrid="false"
     inkscape:zoom="0.27926859"
     inkscape:cx="1061.7019"
     inkscape:cy="646.3312"
     inkscape:window-width="1686"
     inkscape:window-height="997"
     inkscape:window-x="234"
     inkscape:window-y="0"
     inkscape:window-maximized="0"
     inkscape:current-layer="layer1" />
  <defs
     id="defs2" />
  <g
     inkscape:label="center_align"
     inkscape:groupmode="layer"
     id="layer1"
     style="display:inline">
    <path
       id="rect1993"
       style="display:none;fill:#3b3b49;fill-opacity:1;fill-rule:evenodd"
       d="M -454.04297,-430.60938 V 1630.6094 H 2374.043 V -430.60938 Z M 0,60 H 1920 V 1140 H 0 Z" />
    <path
       id="rect1995"
       style="display:none;fill:#3b3b49;fill-opacity:1;fill-rule:evenodd"
       d="M -454.04297,-430.60938 V 1630.6094 H 2374.043 V -430.60938 Z M 160,0 H 1760 V 1200 H 160 Z" />
    <path
       id="rect1997"
       style="display:none;fill:#3b3b49;fill-opacity:1;fill-rule:evenodd"
       d="M -454.04297,-430.60938 V 1630.6094 H 2374.043 V -430.60938 Z M 320,88 H 1600 V 1112 H 320 Z"
       sodipodi:insensitive="true" />
    <path
       id="rect1999"
       style="display:none;fill:#3b3b49;fill-opacity:1;fill-rule:evenodd"
       d="M -454.04297,-430.60938 V 1630.6094 H 2374.043 V -430.60938 Z M 0,0 H 1920 V 1200 H 0 Z"
       sodipodi:insensitive="true" />
    <path
       id="path796"
       style="display:none;fill:#3b3b49;fill-opacity:1;fill-rule:evenodd"
       d="M -454.04297,-430.60938 V 1630.6094 H 2374.043 V -430.60938 Z M 210,0 H 1710 V 1200 H 210 Z" />
    <path
       id="rect1955"
       style="display:inline;fill:#3b3b49;fill-opacity:1;fill-rule:evenodd"
       d="M -454.04297,-430.60938 V 1630.6094 H 2374.043 V -430.60938 Z M 0,188.57227 H 1920 V 1011.4277 H 0 Z" />
  </g>
  <g
     inkscape:groupmode="layer"
     id="layer2"
     inkscape:label="top_right"
     style="display:none"
     sodipodi:insensitive="true">
    <path
       id="rect2173"
       style="display:inline;fill:#343445;fill-opacity:1;fill-rule:evenodd"
       d="M -512.06836,-446.96094 V 1646.9609 H 2432.0684 V -446.96094 Z M 0,0 H 1280 V 1024 H 0 Z" />
    <path
       id="rect2177"
       style="display:inline;fill:#343445;fill-opacity:1;fill-rule:evenodd"
       d="M -512.06836,-446.96094 V 1646.9609 H 2432.0684 V -446.96094 Z M 0,0 H 1600 V 1200 H 0 Z" />
    <path
       id="rect2179"
       style="display:inline;fill:#343445;fill-opacity:1;fill-rule:evenodd"
       d="M -512.06836,-446.96094 V 1646.9609 H 2432.0684 V -446.96094 Z M 0,0 H 1920 V 1200 H 0 Z" />
    <path
       id="rect2181"
       style="display:inline;fill:#343445;fill-opacity:1;fill-rule:evenodd"
       d="M -512.06836,-446.96094 V 1646.9609 H 2432.0684 V -446.96094 Z M 0,0 H 1920 V 1080 H 0 Z" />
  </g>
</svg>
