<?xml version="1.0" encoding="UTF-8" standalone="no"?>
<!-- Created with Inkscape (http://www.inkscape.org/) -->

<svg
   width="800"
   height="118.9"
   viewBox="0 0 211.66665 31.45896"
   version="1.1"
   id="svg5"
   sodipodi:docname="website_banner.svg"
   inkscape:version="1.2.2 (b0a8486541, 2022-12-01)"
   xmlns:inkscape="http://www.inkscape.org/namespaces/inkscape"
   xmlns:sodipodi="http://sodipodi.sourceforge.net/DTD/sodipodi-0.dtd"
   xmlns:xlink="http://www.w3.org/1999/xlink"
   xmlns="http://www.w3.org/2000/svg"
   xmlns:svg="http://www.w3.org/2000/svg"
   xmlns:i="http://ns.adobe.com/AdobeIllustrator/10.0/">
  <sodipodi:namedview
     id="namedview55"
     pagecolor="#505050"
     bordercolor="#eeeeee"
     borderopacity="1"
     inkscape:showpageshadow="0"
     inkscape:pageopacity="0"
     inkscape:pagecheckerboard="0"
     inkscape:deskcolor="#505050"
     showgrid="false"
     inkscape:zoom="1.6722421"
     inkscape:cx="393.78269"
     inkscape:cy="101.36092"
     inkscape:window-width="1920"
     inkscape:window-height="997"
     inkscape:window-x="0"
     inkscape:window-y="0"
     inkscape:window-maximized="1"
     inkscape:current-layer="svg5" />
  <defs
     id="defs2">
    <linearGradient
       id="linearGradient1163">
      <stop
         style="stop-color:#276082;stop-opacity:0;"
         offset="0.78870744"
         id="stop1161" />
      <stop
         style="stop-color:#276082;stop-opacity:1;"
         offset="1"
         id="stop1159" />
    </linearGradient>
    <linearGradient
       id="linearGradient1153">
      <stop
         style="stop-color:#276082;stop-opacity:0;"
         offset="0.61090684"
         id="stop1151" />
      <stop
         style="stop-color:#276082;stop-opacity:1;"
         offset="1"
         id="stop1149" />
    </linearGradient>
    <linearGradient
       id="linearGradient1070">
      <stop
         style="stop-color:#27678d;stop-opacity:0;"
         offset="0.67332637"
         id="stop1068" />
      <stop
         style="stop-color:#27678d;stop-opacity:1;"
         offset="1"
         id="stop1066" />
    </linearGradient>
    <rect
       x="-43.098258"
       y="-305.28792"
       width="1126.5765"
       height="110.21444"
       id="rect24844" />
    <radialGradient
       xlink:href="#linearGradient3744"
       id="radialGradient3746"
       cx="2002.5957"
       cy="1425.4607"
       fx="2002.5957"
       fy="1425.4607"
       r="513.49005"
       gradientTransform="matrix(3.6027848e-4,-0.06953806,0.12603217,3.3077832e-4,53.916849,182.17785)"
       gradientUnits="userSpaceOnUse" />
    <linearGradient
       id="linearGradient3744">
      <stop
         style="stop-color:#276082;stop-opacity:0;"
         offset="0.37055299"
         id="stop3742" />
      <stop
         style="stop-color:#276082;stop-opacity:1;"
         offset="1"
         id="stop3740" />
    </linearGradient>
    <radialGradient
       xlink:href="#linearGradient3744"
       id="radialGradient3746-1"
       cx="2002.5957"
       cy="1425.4607"
       fx="2002.5957"
       fy="1425.4607"
       r="513.49005"
       gradientTransform="matrix(-3.0892594e-4,-0.0551503,-0.10806809,2.6233871e-4,148.5222,150.38793)"
       gradientUnits="userSpaceOnUse" />
    <radialGradient
       xlink:href="#linearGradient1070"
       id="radialGradient1146"
       gradientUnits="userSpaceOnUse"
       gradientTransform="matrix(1.1784632,-1.1344087,1.1832915,1.2292443,18.190102,-35.618284)"
       cx="-16.275856"
       cy="86.170441"
       fx="-16.275856"
       fy="86.170441"
       r="48.740139" />
    <radialGradient
       xlink:href="#linearGradient1153"
       id="radialGradient1155"
       cx="148.59201"
       cy="163.66113"
       fx="148.59201"
       fy="163.66113"
       r="58.741855"
       gradientTransform="matrix(0.85308123,-1.0060401,1.1036578,0.93585701,-146.49007,86.71737)"
       gradientUnits="userSpaceOnUse" />
    <radialGradient
       xlink:href="#linearGradient1163"
       id="radialGradient1165"
       cx="57.144558"
       cy="165.31393"
       fx="57.144558"
       fy="165.31393"
       r="57.339175"
       gradientTransform="matrix(0.9543641,-0.98271049,1.0896908,1.0582586,-169.93963,-23.320746)"
       gradientUnits="userSpaceOnUse" />
  </defs>
  <path
     id="rect2322"
     style="display:inline;fill:#26475b;fill-opacity:1;fill-rule:evenodd;stroke-width:0.266166"
     d="M 0,0 V 31.459061 H 211.66666 V 0 Z" />
  <g
     id="layer1"
     style="display:inline;opacity:0.54780488">
    <path
       id="path1990"
       style="display:inline;opacity:0.717268;fill:url(#radialGradient3746);fill-opacity:1;stroke-width:0.535984"
       d="m 211.66666,1.5776814 c -1.95692,0.5807592 -3.93859,1.0793092 -5.93865,1.4872477 -6.64715,1.3557722 -13.68313,1.8336639 -19.55385,5.2332722 -5.62913,3.2597137 -9.56217,8.8724927 -15.06781,12.3367147 -5.08968,3.202491 -11.16606,4.357085 -16.7442,6.603214 -2.80764,1.130542 -5.49731,2.550518 -8.02121,4.220931 h 65.32572 z" />
    <path
       id="path1990-2"
       style="display:inline;opacity:0.717268;fill:url(#radialGradient3746-1);fill-opacity:1;stroke-width:0.442"
       d="M 0,1.769401 V 5.137154 L 0.30747477,31.459061 H 62.715034 C 60.949343,30.333153 59.252793,29.098489 57.640925,27.761612 54.196653,24.904947 51.020187,21.518242 46.849853,19.895943 44.554427,19.003001 42.08055,18.699356 39.647708,18.315161 37.214867,17.930965 34.746185,17.441693 32.602144,16.2295 30.202019,14.872522 28.38263,12.712107 26.526546,10.67325 24.670461,8.6343932 22.632726,6.6131539 20.036503,5.6849242 18.009779,4.9603082 15.801239,4.9623856 13.652396,5.0854776 11.503553,5.2085696 9.3398492,5.4434339 7.2067951,5.1557576 4.5349736,4.7954198 1.9831942,3.5955946 0,1.769401 Z" />
    <path
       id="path944"
       style="opacity:0.696884;fill:url(#radialGradient1165);fill-opacity:1;stroke-width:1.92643"
       d="m 35.190334,10.625988 c -3.293033,0.85058 -9.829569,0.525862 -14.439919,3.452623 -4.24351,2.693884 -5.75081,6.472843 -8.611621,10.156602 -1.765269,2.273071 -8.3785184,4.645043 -8.6620037,7.223848 L 110.85156,31.939902 C 108.05926,29.068672 103.48933,20.31176 100.79195,18.29468 96.681548,15.220951 88.096423,14.273073 84.028277,12.080727 80.052672,9.9382524 77.539611,6.7636833 73.217672,5.4535643 68.877172,4.1378186 63.340016,5.1659354 58.929784,5.461341 53.442008,5.8289224 48.155151,3.906253 43.722523,5.0921094 41.134026,5.7846073 37.602719,10.002876 35.190334,10.625988 Z"
       sodipodi:nodetypes="sssccssssss" />
    <path
       id="path1142"
       style="opacity:0.736931;fill:url(#radialGradient1155);fill-opacity:1;stroke-width:1.92643"
       d="m 130.3473,8.4584069 c -5.19666,1.6780691 -10.63978,-0.2992786 -15.25012,2.6274821 -4.24352,2.693884 -7.92673,7.144224 -10.78753,10.827982 -1.19065,1.533152 -9.239333,7.357602 -13.251269,10.026031 L 207.84364,31.459061 c -0.36479,-3.882678 -4.10179,-9.493979 -6.76784,-11.478202 -5.18585,-3.859571 -9.73299,-2.731327 -13.80113,-4.923673 -3.97561,-2.142473 -7.11056,-6.3741379 -11.5467,-7.2203722 -5.79363,-1.105186 -8.39834,0.7453223 -14.63472,0.098151 C 154.54741,7.2556802 151.33942,4.4120039 145.49346,4.2906541 139.0158,4.1561915 135.35042,6.8428367 130.3473,8.4584069 Z"
       sodipodi:nodetypes="sssccssssss" />
    <path
       id="path1140"
       style="display:inline;opacity:0.703295;fill:url(#radialGradient1146);fill-opacity:1;stroke-width:1.92643"
       d="M 95.671767,2.894895 C 90.415556,2.7786221 84.862792,6.2383754 79.642746,6.8647786 73.805152,7.5652872 69.799671,6.298036 64.859219,9.5110252 60.922047,12.071538 59.199731,16.947919 55.9735,20.316263 52.793602,23.636231 48.576387,24.725706 44.60254,31.459061 H 167.05358 C 162.73437,27.8799 158.5049,21.831635 156.29659,19.001975 153.45341,15.358826 148.54556,15.295334 142.94854,12.827354 137.34883,10.358185 134.02925,6.4750004 127.64437,5.0264642 121.83919,3.7094447 117.80589,6.0150749 111.16404,5.6955983 105.67032,5.4313473 101.17049,3.0165318 95.671767,2.894895 Z"
       sodipodi:nodetypes="ssssccsssss" />
  </g>
  <g
     id="g2390"
     transform="matrix(1.0254241,0,0,1.0254241,4.032087,-0.74890784)"
     style="display:inline">
    <g
       id="g3086"
       transform="matrix(0.31386264,0,0,0.31386264,80.985051,-24.004568)"
       style="fill:#85a0b4;fill-opacity:1">
      <path
         i:knockout="Off"
         d="m 13.437,125.506 c -0.045,0.047 -0.045,7.506 -0.138,9.453 -0.092,1.574 -0.232,4.957 -3.568,4.957 -3.429,0 -4.263,-3.939 -4.541,-5.652 -0.324,-1.9 -0.324,-3.477 -0.324,-4.17 0,-2.225 0.139,-8.436 5.375,-8.436 1.576,0 2.456,0.465 3.151,0.834 z M 0,130.975 c 0,13.066 6.951,13.066 7.97,13.066 2.873,0 4.727,-1.576 5.514,-4.309 l 0.093,4.123 c 0.881,-0.047 1.761,-0.139 3.197,-0.139 0.51,0 0.926,0 1.298,0.047 0.371,0 0.741,0.045 1.158,0.092 -0.741,-1.482 -1.297,-4.818 -1.297,-12.049 0,-7.043 0,-18.951 0.602,-22.566 -1.667,0.789 -3.105,1.299 -6.256,1.576 1.251,1.344 1.251,2.039 1.251,8.154 -0.879,-0.277 -1.992,-0.602 -3.892,-0.602 C 1.344,118.369 0,125.598 0,130.975"
         id="path3072"
         style="fill:#85a0b4;fill-opacity:1" />
      <path
         i:knockout="Off"
         d="m 25.13,128.609 c 0.047,-3.846 0.835,-7.275 4.124,-7.275 3.615,0 3.891,3.984 3.799,7.275 z m 12.51,0.465 c 0,-5.422 -1.065,-10.752 -7.923,-10.752 -9.452,0 -9.452,10.475 -9.452,12.697 0,9.406 4.216,13.113 11.306,13.113 3.149,0 4.68,-0.461 5.514,-0.695 -0.046,-1.668 0.185,-2.734 0.465,-4.17 -0.975,0.604 -2.226,1.391 -5.006,1.391 -7.229,0 -7.322,-6.582 -7.322,-8.852 H 37.55 l 0.09,-2.732"
         id="path3074"
         style="fill:#85a0b4;fill-opacity:1" />
      <path
         i:knockout="Off"
         d="m 52.715,131.066 c 0,4.309 -0.787,10.102 -6.162,10.102 -0.742,0 -1.668,-0.141 -2.27,-0.279 -0.093,-1.668 -0.093,-4.541 -0.093,-7.877 0,-3.986 0.416,-6.068 0.742,-7.09 0.972,-3.289 3.15,-3.334 3.566,-3.334 3.522,0 4.217,4.865 4.217,8.478 z m -13.298,5.051 c 0,3.43 0,5.375 -0.556,6.857 1.9,0.742 4.262,1.158 7.09,1.158 1.807,0 7.043,0 9.869,-5.791 1.344,-2.688 1.807,-6.303 1.807,-9.037 0,-1.668 -0.186,-5.328 -1.529,-7.646 -1.296,-2.176 -3.382,-3.289 -5.605,-3.289 -4.449,0 -5.746,3.707 -6.44,5.607 0,-2.363 0.045,-10.611 0.415,-14.828 -3.011,1.391 -4.866,1.621 -6.857,1.807 1.807,0.74 1.807,3.801 1.807,13.764 v 11.398"
         id="path3076"
         style="fill:#85a0b4;fill-opacity:1" />
      <path
         i:knockout="Off"
         d="m 66.535,143.855 c -0.928,-0.139 -1.578,-0.232 -2.922,-0.232 -1.48,0 -2.502,0.094 -3.566,0.232 0.463,-0.881 0.648,-1.299 0.787,-4.309 0.186,-4.125 0.232,-15.154 -0.092,-17.471 -0.232,-1.762 -0.648,-2.039 -1.297,-2.502 3.799,-0.371 4.865,-0.648 6.625,-1.482 -0.369,2.037 -0.418,3.059 -0.418,6.162 -0.091,15.989 -0.138,17.702 0.883,19.602"
         id="path3078"
         style="fill:#85a0b4;fill-opacity:1" />
      <path
         i:knockout="Off"
         d="m 81.373,130.74 c -0.092,2.92 -0.139,4.959 -0.928,6.58 -0.973,2.086 -2.594,2.688 -3.799,2.688 -2.783,0 -3.383,-2.316 -3.383,-4.586 0,-4.355 3.893,-4.682 5.652,-4.682 z m -12.744,5.701 c 0,2.92 0.881,5.838 3.477,7.09 1.158,0.51 2.316,0.51 2.688,0.51 4.264,0 5.699,-3.152 6.58,-5.098 -0.047,2.039 0,3.289 0.139,4.912 0.834,-0.047 1.668,-0.139 3.059,-0.139 0.787,0 1.529,0.092 2.316,0.139 -0.51,-0.787 -0.787,-1.252 -0.928,-3.059 -0.092,-1.76 -0.092,-3.521 -0.092,-5.977 l 0.047,-9.453 c 0,-3.523 -0.928,-6.998 -7.879,-6.998 -4.586,0 -7.273,1.391 -8.617,2.086 0.557,1.02 1.02,1.898 1.436,3.893 1.809,-1.576 4.172,-2.41 6.58,-2.41 3.848,0 3.848,2.549 3.848,6.162 -0.881,-0.045 -1.623,-0.137 -2.875,-0.137 -5.887,10e-4 -9.779,2.268 -9.779,8.479"
         id="path3080"
         style="fill:#85a0b4;fill-opacity:1" />
      <path
         i:knockout="Off"
         d="m 108.063,139.268 c 0.047,1.576 0.047,3.244 0.695,4.588 -1.021,-0.092 -1.623,-0.232 -3.521,-0.232 -1.113,0 -1.715,0.094 -2.596,0.232 0.184,-0.602 0.279,-0.834 0.371,-1.623 0.139,-1.064 0.232,-4.633 0.232,-5.885 v -5.004 c 0,-2.178 0,-5.33 -0.141,-6.441 -0.092,-0.787 -0.322,-2.918 -3.012,-2.918 -2.641,0 -3.521,1.945 -3.846,3.521 -0.369,1.621 -0.369,3.383 -0.369,10.24 0.045,5.932 0.045,6.486 0.508,8.109 -0.787,-0.092 -1.76,-0.184 -3.15,-0.184 -1.113,0 -1.854,0.045 -2.779,0.184 0.324,-0.742 0.51,-1.113 0.602,-3.707 0.094,-2.549 0.279,-15.061 -0.141,-18.025 -0.23,-1.809 -0.695,-2.225 -1.203,-2.688 3.754,-0.186 4.957,-0.789 6.117,-1.389 v 4.91 c 0.555,-1.438 1.713,-4.635 6.348,-4.635 5.793,0 5.838,4.217 5.885,6.996 v 13.951"
         id="path3082"
         style="fill:#85a0b4;fill-opacity:1" />
      <path
         i:knockout="Off"
         fill="#85a0b4"
         d="m 66.926,111.533 -3.838,3.836 -3.836,-3.836 3.836,-3.836 3.838,3.836"
         id="path3084"
         style="fill:#85a0b4;fill-opacity:1" />
    </g>
    <g
       id="g3258"
       transform="matrix(0.45988399,0,0,0.43688979,-343.24369,-442.09037)">
      <path
         d="m 1008.9107,1051.1401 q 0,0.8305 0,1.538 0,0.6767 0,1.3534 0.031,0.6768 0.031,1.415 0.031,0.7075 0.062,1.5688 0.031,0.7382 0.062,1.2304 0.061,0.4921 0.1231,0.8305 0.092,0.3384 0.1845,0.5845 0.092,0.2153 0.1846,0.4306 -0.6152,-0.062 -1.415,-0.092 -0.769,-0.062 -1.5688,-0.062 -0.6152,0 -1.1688,0.031 -0.5537,0.031 -1.2612,0.123 0.092,-0.3076 0.1538,-0.5844 0.092,-0.2769 0.1538,-0.6767 0.062,-0.4307 0.092,-1.0767 0.031,-0.6459 0.061,-1.7225 l 0.062,-4.3065 v -4.614 q 0,-2.0302 -0.031,-3.2606 -0.031,-1.2304 -0.092,-1.4765 -0.9843,0.3384 -1.8764,0.7075 -0.892,0.3691 -1.7225,0.892 l 0.062,-1.0151 q 0,-0.6459 -0.062,-1.0766 -0.031,-0.4614 -0.092,-0.7997 0.523,-0.1231 1.5073,-0.3692 0.9843,-0.246 2.1532,-0.6152 1.1997,-0.3998 2.3993,-0.9228 1.2304,-0.5229 2.2148,-1.1689 -0.062,0.7383 -0.1231,1.3227 -0.031,0.5537 -0.062,1.415 0,0.8613 -0.031,2.307 0,1.4458 0,3.9373 z"
         style="font-weight:bold;font-size:24.8469px;font-family:Poppl-Laudatio;-inkscape-font-specification:'Poppl-Laudatio, Bold';white-space:pre;fill:#85a0b4;stroke:none;stroke-width:9.01383"
         id="path3249" />
      <path
         d="m 1016.2305,1038.3745 q 0.8921,0 1.6611,0.092 0.7997,0.092 1.5072,0.3383 0.3384,0.1231 0.8613,0.4307 0.5537,0.2768 1.0766,0.8613 0.5229,0.5536 0.8921,1.4149 0.3999,0.8613 0.3999,2.1533 0,0.769 -0.2154,1.5687 -0.1845,0.7998 -0.6459,1.5073 -0.4614,0.6767 -1.1997,1.1996 -0.7382,0.523 -1.7841,0.7383 l -0.6767,0.123 0.7075,0.092 q 2.3993,0.3998 3.5374,1.661 1.1689,1.2612 1.1689,3.3837 0,1.6303 -0.6152,2.8299 -0.5845,1.1689 -1.3842,1.8764 -0.8921,0.7998 -2.3686,1.2304 -1.4457,0.4306 -3.3221,0.4306 -0.1845,0 -0.6767,-0.031 -0.4922,0 -1.1689,-0.061 -0.6767,-0.062 -1.4457,-0.1846 -0.7383,-0.123 -1.4765,-0.3691 0.123,-0.3999 0.2153,-0.769 0.1231,-0.3691 0.1846,-0.769 0.092,-0.4306 0.123,-0.9228 0.062,-0.4922 0.1231,-1.1689 0.769,0.6152 1.6918,0.8613 0.9536,0.2461 1.9379,0.2461 0.9536,0 1.6303,-0.2769 0.6767,-0.2768 1.1074,-0.7075 0.4306,-0.4614 0.6152,-1.015 0.1845,-0.5845 0.1845,-1.1689 0,-1.0151 -0.3998,-1.6303 -0.3999,-0.646 -1.0459,-1.0151 -0.6152,-0.3691 -1.415,-0.4922 -0.7997,-0.123 -1.6303,-0.123 -0.7997,0 -1.1689,0.062 -0.3691,0.031 -0.7997,0.092 0.031,-0.3999 0.031,-0.769 0.031,-0.3691 0.031,-0.769 -0.031,-0.4306 -0.031,-0.7998 0,-0.3998 -0.031,-0.8305 0.2461,0.031 0.4921,0.062 0.2461,0 0.646,0 0.3999,0 1.1689,-0.031 0.769,-0.062 1.538,-0.3691 0.769,-0.3076 1.3227,-0.9536 0.5844,-0.6459 0.5844,-1.8456 0,-1.2304 -0.8305,-2.0609 -0.7997,-0.8613 -2.5223,-0.8613 -1.3227,0 -1.9994,0.3076 -0.6768,0.3076 -1.0459,0.5537 0.1846,-1.415 0.2153,-2.184 0.031,-0.769 0,-1.4458 0.8306,-0.1845 1.7841,-0.3383 0.9844,-0.1538 2.4609,-0.1538 z"
         style="font-weight:bold;font-size:24.8469px;font-family:Poppl-Laudatio;-inkscape-font-specification:'Poppl-Laudatio, Bold';white-space:pre;fill:#85a0b4;stroke:none;stroke-width:9.01383"
         id="path3251" />
    </g>
    <g
       aria-label="The universal operating system"
       transform="matrix(0.17636967,0,0,0.17636967,88.012494,75.30972)"
       id="text24842"
       style="font-size:24px;font-family:Poppl-Laudatio;-inkscape-font-specification:'Poppl-Laudatio, Normal';white-space:pre;shape-inside:url(#rect24844);display:inline;opacity:1;fill:#85a0b4;fill-opacity:1;stroke-width:7.281">
      <path
         d="m -35.201656,-290.85578 q 0,1.152 0,2.04 0,0.864 0,1.56 0.024,0.696 0.024,1.248 0.024,0.552 0.048,1.032 0.024,0.624 0.072,1.008 0.048,0.384 0.096,0.648 0.072,0.24 0.144,0.432 0.072,0.168 0.168,0.336 -0.456,-0.048 -1.008,-0.096 -0.528,-0.048 -1.368,-0.048 -0.624,0 -1.176,0.048 -0.552,0.024 -1.248,0.096 0.096,-0.168 0.168,-0.336 0.072,-0.192 0.12,-0.432 0.072,-0.264 0.12,-0.648 0.048,-0.384 0.072,-1.008 0.024,-0.48 0.024,-1.032 0.024,-0.552 0.024,-1.248 0.024,-0.696 0.024,-1.56 0,-0.888 0,-2.04 l -0.024,-5.928 -1.464,-0.048 q -0.624,0 -1.008,0.024 -0.384,0.024 -0.648,0.096 -0.264,0.048 -0.456,0.192 -0.192,0.12 -0.384,0.336 0,-0.408 0,-0.816 0.024,-0.408 0.024,-0.816 0,-0.504 -0.024,-0.912 -0.024,-0.408 -0.096,-0.912 0.696,0.048 1.368,0.096 0.696,0.024 1.368,0.072 0.696,0.024 1.368,0.024 0.672,0 1.344,0 0.648,0 1.44,0 0.792,-0.024 1.632,-0.024 0.84,-0.024 1.656,-0.048 0.84,-0.048 1.56,-0.12 -0.048,0.336 -0.096,0.792 -0.048,0.432 -0.048,1.056 0.024,0.552 0.024,0.912 0,0.36 0.024,0.696 -0.192,-0.216 -0.384,-0.336 -0.192,-0.144 -0.456,-0.192 -0.264,-0.072 -0.672,-0.096 -0.384,-0.024 -0.984,-0.024 l -1.344,0.048 z"
         id="path892"
         style="fill:#85a0b4;fill-opacity:1" />
      <path
         d="m -30.305667,-291.86378 q 0,-1.296 0,-2.184 0,-0.912 -0.024,-1.56 -0.024,-0.672 -0.048,-1.152 -0.024,-0.48 -0.096,-0.936 -0.12,-0.816 -0.312,-1.128 -0.168,-0.312 -0.408,-0.552 1.056,-0.096 1.776,-0.216 0.744,-0.12 1.248,-0.24 0.504,-0.12 0.84,-0.24 0.36,-0.144 0.624,-0.264 -0.072,0.432 -0.12,0.768 -0.024,0.336 -0.048,0.72 -0.024,0.384 -0.024,0.888 0,0.48 0,1.224 l -0.024,3.36 q 0.12,-0.264 0.336,-0.648 0.24,-0.408 0.624,-0.768 0.408,-0.36 1.032,-0.624 0.624,-0.264 1.56,-0.264 0.672,0 1.296,0.168 0.624,0.144 1.104,0.48 0.768,0.6 0.888,1.368 0.144,0.768 0.144,1.752 v 6.408 q 0,0.768 0.048,1.536 0.072,0.768 0.408,1.416 -0.384,-0.048 -0.912,-0.096 -0.528,-0.048 -1.296,-0.048 -0.648,0 -1.176,0.048 -0.528,0.048 -0.96,0.096 0.264,-0.504 0.312,-1.248 0.048,-0.744 0.096,-2.064 0,-0.648 0,-1.008 0.024,-0.384 0.024,-0.624 0,-0.24 0,-0.408 0,-0.168 0,-0.408 0,-0.264 0,-0.648 0,-0.408 0,-1.104 0,-0.72 -0.048,-1.272 -0.024,-0.576 -0.192,-0.936 -0.144,-0.384 -0.456,-0.576 -0.288,-0.192 -0.816,-0.192 -0.768,0 -1.176,0.336 -0.408,0.312 -0.6,0.912 -0.192,0.6 -0.24,1.464 -0.024,0.84 -0.024,1.92 v 2.424 q 0.024,0.744 0.048,1.296 0.024,0.528 0.048,0.936 0.048,0.384 0.096,0.672 0.072,0.288 0.192,0.528 -0.456,-0.072 -0.864,-0.096 -0.408,-0.048 -0.984,-0.048 -0.816,0 -1.344,0.048 -0.528,0.048 -0.984,0.096 0.192,-0.408 0.264,-1.056 0.072,-0.624 0.072,-1.32 0.024,-0.72 0.048,-1.8 z"
         id="path894"
         style="fill:#85a0b4;fill-opacity:1" />
      <path
         d="m -14.393672,-288.43178 q 0,0.288 0.024,0.672 0.024,0.36 0.12,0.768 0.12,0.408 0.312,0.816 0.216,0.384 0.576,0.72 0.312,0.288 0.672,0.456 0.384,0.144 0.72,0.216 0.36,0.072 0.648,0.096 0.312,0 0.456,0 1.2480004,0 1.8720004,-0.264 0.648,-0.288 0.984,-0.504 -0.192,0.792 -0.288,1.368 -0.072,0.576 -0.048,1.392 -0.744,0.192 -1.488,0.24 -0.7200004,0.072 -1.4880004,0.072 -1.152,0 -2.064,-0.168 -0.888,-0.168 -1.632,-0.552 -1.296,-0.672 -2.064,-2.136 -0.744,-1.464 -0.744,-3.984 0,-1.152 0.216,-2.304 0.24,-1.152 0.816,-2.064 0.6,-0.936 1.632,-1.512 1.056,-0.576 2.688,-0.576 1.464,0 2.376,0.48 0.9360004,0.456 1.4400004,1.272 0.504,0.792 0.672,1.872 0.192,1.056 0.192,2.232 l -0.048,1.392 z m 3.432,-1.992 q 0.024,-0.6 -0.024,-1.176 -0.024,-0.6 -0.192,-1.056 -0.168,-0.48 -0.528,-0.768 -0.336,-0.288 -0.936,-0.288 -0.6,0 -0.96,0.288 -0.36,0.288 -0.552,0.768 -0.192,0.456 -0.264,1.056 -0.072,0.576 -0.072,1.176 z"
         id="path896"
         style="fill:#85a0b4;fill-opacity:1" />
      <path
         d="m 10.542331,-287.32778 q 0,1.248 0,2.016 0.024,0.768 0.072,1.248 0.024,0.384 0.096,0.624 0.072,0.24 0.144,0.408 0.072,0.168 0.144,0.288 0.096,0.096 0.192,0.192 -0.504,-0.048 -0.96,-0.072 -0.4320004,-0.048 -1.1040004,-0.048 -0.6,0 -1.008,0.024 -0.384,0.024 -0.84,0.096 l -0.072,-2.16 q -0.168,0.288 -0.432,0.696 -0.264,0.384 -0.696,0.744 -0.432,0.36 -1.08,0.624 -0.648,0.24 -1.584,0.24 -0.84,0 -1.536,-0.24 -0.672,-0.264 -0.93600003,-0.576 -0.288,-0.312 -0.432,-0.6 -0.144,-0.312 -0.216,-0.816 -0.072,-0.504 -0.096,-1.296 0,-0.816 0,-2.16 v -2.592 q 0,-0.672 0,-1.152 0,-0.504 -0.024,-0.864 0,-0.36 -0.024,-0.624 -0.024,-0.264 -0.048,-0.528 -0.096,-0.744 -0.288,-0.984 -0.192,-0.24 -0.432,-0.384 0.96,0.024 1.65600003,-0.024 0.72,-0.072 1.224,-0.144 0.528,-0.096 0.864,-0.192 0.336,-0.12 0.6,-0.216 -0.048,0.336 -0.096,0.648 -0.024,0.288 -0.048,0.792 0,0.48 0,1.296 0,0.792 0,2.16 v 3.888 q 0,0.36 0.024,0.744 0.024,0.36 0.168,0.672 0.144,0.288 0.432,0.48 0.312,0.192 0.864,0.192 0.552,0 0.912,-0.168 0.36,-0.168 0.552,-0.384 0.216,-0.24 0.288,-0.456 0.096,-0.24 0.12,-0.336 0.072,-0.288 0.12,-0.672 0.048,-0.408 0.072,-1.08 0.024,-0.672 0.024,-1.704 0,-1.032 0,-2.592 0,-0.84 -0.024,-1.32 -0.024,-0.504 -0.12,-0.792 -0.072,-0.312 -0.24,-0.456 -0.144,-0.168 -0.384,-0.312 0.936,0 1.584,-0.024 0.672,-0.048 1.152,-0.144 0.504,-0.096 0.864,-0.192 0.3840004,-0.12 0.7440004,-0.264 -0.072,0.432 -0.12,0.744 -0.024,0.288 -0.048,0.816 0,0.504 -0.024,1.416 0,0.888 0,2.496 z"
         id="path898"
         style="fill:#85a0b4;fill-opacity:1" />
      <path
         d="m 16.638326,-293.27978 q 0.12,-0.288 0.336,-0.696 0.24,-0.408 0.648,-0.768 0.408,-0.384 1.056,-0.648 0.672,-0.288 1.68,-0.288 1.2,0 1.848,0.408 0.672,0.384 0.984,0.96 0.312,0.576 0.36,1.224 0.072,0.648 0.072,1.152 v 7.176 q 0,0.552 0.024,0.912 0.048,0.36 0.096,0.6 0.048,0.216 0.096,0.384 0.072,0.144 0.144,0.312 -0.24,-0.024 -0.456,-0.048 -0.216,-0.024 -0.48,-0.024 -0.24,-0.024 -0.576,-0.024 -0.312,-0.024 -0.744,-0.024 -0.624,0 -1.032,0.024 -0.384,0.024 -0.84,0.096 0.048,-0.168 0.096,-0.36 0.072,-0.192 0.096,-0.6 0.048,-0.408 0.072,-1.104 0.024,-0.72 0.024,-1.944 v -3.816 q 0,-0.576 -0.024,-1.08 -0.024,-0.504 -0.192,-0.864 -0.144,-0.36 -0.48,-0.576 -0.312,-0.216 -0.888,-0.216 -0.552,0 -0.912,0.192 -0.336,0.192 -0.528,0.456 -0.168,0.24 -0.24,0.504 -0.072,0.24 -0.096,0.36 -0.048,0.288 -0.072,0.864 -0.024,0.552 -0.048,1.296 0,0.72 0,1.536 0,0.816 0,1.608 0,1.128 0,1.8 0.024,0.648 0.048,1.032 0.048,0.384 0.096,0.576 0.072,0.168 0.144,0.336 -0.432,-0.048 -0.888,-0.072 -0.456,-0.048 -1.176,-0.048 -0.48,0 -0.936,0.024 -0.456,0.024 -1.08,0.096 0.12,-0.24 0.192,-0.552 0.072,-0.336 0.12,-0.648 0.024,-0.168 0.048,-0.624 0.024,-0.456 0.024,-1.056 0.024,-0.624 0.024,-1.368 0,-0.768 0,-1.56 0,-0.792 0,-1.44 0,-0.672 -0.024,-1.248 0,-0.576 -0.024,-1.128 -0.024,-0.552 -0.072,-1.152 -0.048,-0.84 -0.288,-1.224 -0.216,-0.384 -0.432,-0.504 0.888,-0.048 1.512,-0.096 0.624,-0.072 1.08,-0.168 0.48,-0.096 0.84,-0.216 0.384,-0.144 0.768,-0.312 z"
         id="path900"
         style="fill:#85a0b4;fill-opacity:1" />
      <path
         d="m 26.454322,-292.15178 q -0.024,-0.792 -0.096,-1.248 -0.048,-0.48 -0.144,-0.768 -0.072,-0.312 -0.216,-0.48 -0.144,-0.192 -0.36,-0.384 0.912,-0.048 1.536,-0.096 0.624,-0.048 1.104,-0.12 0.48,-0.096 0.888,-0.24 0.432,-0.144 0.936,-0.36 -0.264,1.92 -0.264,4.344 0.024,2.4 0.072,5.448 0.024,0.888 0.096,1.848 0.072,0.96 0.36,1.656 -0.408,-0.048 -0.84,-0.096 -0.408,-0.048 -1.08,-0.048 -0.84,0 -1.44,0.048 -0.6,0.048 -1.008,0.096 0.096,-0.192 0.168,-0.336 0.072,-0.168 0.12,-0.408 0.072,-0.264 0.096,-0.648 0.024,-0.384 0.048,-1.032 0.024,-0.648 0.048,-1.488 0.024,-0.84 0.024,-1.776 0,-0.936 -0.024,-1.92 0,-1.008 -0.024,-1.992 z m 3.36,-6.36 q 0.024,1.056 -0.48,1.488 -0.48,0.432 -1.224,0.432 -0.768,0 -1.272,-0.432 -0.48,-0.432 -0.48,-1.32 0,-0.744 0.384,-1.296 0.384,-0.552 1.368,-0.552 0.84,0 1.248,0.456 0.432,0.456 0.456,1.224 z"
         id="path902"
         style="fill:#85a0b4;fill-opacity:1" />
      <path
         d="m 38.07032,-287.66378 q 0.168,-0.768 0.36,-1.8 0.216,-1.032 0.408,-2.04 0.192,-1.032 0.312,-1.92 0.144,-0.888 0.144,-1.344 0,-0.264 -0.048,-0.408 -0.048,-0.168 -0.12,-0.336 0.216,0.024 0.408,0.048 0.192,0.024 0.408,0.048 0.216,0.024 0.456,0.048 0.24,0 0.528,0 0.672,0 1.104,-0.048 0.456,-0.048 0.792,-0.096 l -0.24,0.504 q -0.216,0.456 -0.528,1.464 -0.288,0.984 -0.624,2.256 -0.336,1.248 -0.672,2.64 -0.336,1.368 -0.624,2.616 -0.264,1.224 -0.48,2.184 -0.192,0.936 -0.24,1.296 -0.552,-0.072 -1.032,-0.096 -0.456,-0.048 -1.2,-0.048 -0.408,0 -0.72,0.024 -0.288,0 -0.552,0.024 -0.24,0 -0.48,0.048 -0.24,0.024 -0.528,0.048 -0.12,-0.672 -0.336,-1.608 -0.192,-0.936 -0.456,-1.968 -0.264,-1.056 -0.552,-2.136 -0.264,-1.08 -0.528,-2.04 -0.264,-0.96 -0.48,-1.704 -0.192,-0.768 -0.312,-1.152 -0.192,-0.6 -0.312,-0.96 -0.12,-0.384 -0.24,-0.624 -0.096,-0.264 -0.192,-0.432 -0.096,-0.168 -0.192,-0.36 0.24,0.048 0.456,0.072 0.216,0.024 0.456,0.048 0.264,0.024 0.504,0.048 0.264,0 0.576,0 0.888,0 1.416,-0.024 0.552,-0.048 1.056,-0.12 l -0.024,0.192 q -0.072,0.336 0.048,1.2 0.12,0.864 0.312,1.896 0.288,1.512 0.48,2.688 0.216,1.152 0.384,1.848 l 0.576,2.592 z"
         id="path904"
         style="fill:#85a0b4;fill-opacity:1" />
      <path
         d="m 46.638311,-288.43178 q 0,0.288 0.024,0.672 0.024,0.36 0.12,0.768 0.12,0.408 0.312,0.816 0.216,0.384 0.576,0.72 0.312,0.288 0.672,0.456 0.384,0.144 0.72,0.216 0.36,0.072 0.648,0.096 0.312,0 0.456,0 1.248,0 1.872,-0.264 0.648,-0.288 0.984,-0.504 -0.192,0.792 -0.288,1.368 -0.072,0.576 -0.048,1.392 -0.744,0.192 -1.488,0.24 -0.72,0.072 -1.488,0.072 -1.152,0 -2.064,-0.168 -0.888,-0.168 -1.632,-0.552 -1.296,-0.672 -2.064,-2.136 -0.744,-1.464 -0.744,-3.984 0,-1.152 0.216,-2.304 0.24,-1.152 0.816,-2.064 0.6,-0.936 1.632,-1.512 1.056,-0.576 2.688,-0.576 1.464,0 2.376,0.48 0.936,0.456 1.44,1.272 0.504,0.792 0.672,1.872 0.192,1.056 0.192,2.232 l -0.048,1.392 z m 3.432,-1.992 q 0.024,-0.6 -0.024,-1.176 -0.024,-0.6 -0.192,-1.056 -0.168,-0.48 -0.528,-0.768 -0.336,-0.288 -0.936,-0.288 -0.6,0 -0.96,0.288 -0.36,0.288 -0.552,0.768 -0.192,0.456 -0.264,1.056 -0.072,0.576 -0.072,1.176 z"
         id="path906"
         style="fill:#85a0b4;fill-opacity:1" />
      <path
         d="m 58.710313,-292.05578 q 0.144,-0.384 0.408,-0.96 0.264,-0.576 0.744,-1.152 0.504,-0.576 1.272,-1.032 0.792,-0.456 1.968,-0.576 -0.312,1.152 -0.408,2.064 -0.072,0.888 -0.12,1.44 -0.192,-0.048 -0.408,-0.096 -0.192,-0.048 -0.456,-0.048 -0.768,0 -1.368,0.336 -0.6,0.336 -0.936,0.84 -0.264,0.408 -0.456,1.272 -0.192,0.84 -0.192,2.28 0,0.624 0,1.392 0,0.744 0.024,1.464 0.048,0.72 0.12,1.344 0.072,0.624 0.192,0.936 -0.408,-0.048 -0.84,-0.096 -0.432,-0.048 -1.056,-0.048 -1.032,0 -2.136,0.144 0.072,-0.24 0.12,-0.432 0.048,-0.216 0.096,-0.648 0.048,-0.528 0.072,-1.32 0.048,-0.816 0.048,-1.728 v -3.336 q 0,-0.672 0,-1.176 0,-0.528 -0.024,-0.96 0,-0.432 -0.024,-0.792 -0.024,-0.36 -0.048,-0.744 -0.072,-0.72 -0.264,-0.96 -0.168,-0.264 -0.408,-0.432 0.744,0 1.32,-0.024 0.576,-0.048 1.056,-0.144 0.504,-0.096 0.96,-0.216 0.48,-0.144 0.984,-0.36 z"
         id="path908"
         style="fill:#85a0b4;fill-opacity:1" />
      <path
         d="m 68.766313,-295.79978 q 0.696,0 1.416,0.096 0.72,0.096 1.416,0.288 -0.264,0.648 -0.384,1.224 -0.096,0.576 -0.12,1.488 -0.408,-0.552 -1.056,-0.768 -0.648,-0.216 -1.344,-0.216 -0.912,0 -1.32,0.432 -0.384,0.408 -0.384,0.912 0,0.696 0.576,1.128 0.576,0.408 1.752,0.936 0.504,0.264 0.984,0.552 0.48,0.288 0.84,0.696 0.36,0.384 0.576,0.96 0.216,0.576 0.216,1.392 0,1.104 -0.336,1.872 -0.312,0.744 -0.84,1.248 -0.528,0.48 -1.176,0.744 -0.624,0.264 -1.248,0.384 -0.624,0.12 -1.152,0.144 -0.528,0.024 -0.84,0.024 -1.296,0 -2.016,-0.168 -0.696,-0.168 -1.032,-0.288 0.336,-0.696 0.48,-1.296 0.168,-0.624 0.24,-1.56 0.072,0.12 0.24,0.312 0.192,0.192 0.48,0.384 0.312,0.192 0.768,0.336 0.48,0.144 1.176,0.144 0.744,0 1.152,-0.192 0.432,-0.216 0.6,-0.48 0.192,-0.264 0.216,-0.504 0.048,-0.24 0.048,-0.312 0,-0.336 -0.096,-0.552 -0.096,-0.24 -0.36,-0.432 -0.24,-0.216 -0.672,-0.432 -0.432,-0.24 -1.104,-0.576 -0.456,-0.24 -0.96,-0.528 -0.48,-0.312 -0.888,-0.744 -0.384,-0.432 -0.648,-1.032 -0.24,-0.624 -0.24,-1.488 0,-1.056 0.36,-1.824 0.384,-0.792 1.032,-1.296 0.672,-0.504 1.584,-0.744 0.936,-0.264 2.064,-0.264 z"
         id="path910"
         style="fill:#85a0b4;fill-opacity:1" />
      <path
         d="m 82.686311,-284.23178 q 0.048,0.768 0.168,1.104 0.12,0.312 0.288,0.576 -0.408,-0.072 -0.864,-0.072 -0.456,-0.024 -0.984,-0.024 -0.48,0 -0.912,0.024 -0.432,0.024 -0.912,0.072 -0.072,-0.36 -0.096,-0.864 0,-0.504 0.024,-1.512 -0.12,0.336 -0.312,0.768 -0.192,0.408 -0.552,0.792 -0.336,0.384 -0.912,0.648 -0.552,0.264 -1.392,0.264 -1.08,0 -1.704,-0.456 -0.624,-0.456 -0.96,-1.08 -0.312,-0.648 -0.408,-1.296 -0.072,-0.672 -0.072,-1.104 0,-1.176 0.36,-1.992 0.384,-0.816 1.056,-1.32 0.672,-0.528 1.584,-0.768 0.936,-0.24 2.064,-0.24 0.408,0 0.648,0.024 0.264,0 0.504,0.048 0.024,-0.6 0,-1.08 0,-0.48 -0.144,-0.792 -0.144,-0.336 -0.48,-0.504 -0.312,-0.192 -0.888,-0.192 -0.888,0 -1.728,0.312 -0.816,0.312 -1.488,0.936 -0.264,-0.984 -0.48,-1.512 -0.216,-0.552 -0.504,-1.056 0.24,-0.12 0.624,-0.312 0.408,-0.216 0.984,-0.384 0.576,-0.192 1.32,-0.312 0.768,-0.144 1.752,-0.144 1.08,0 1.992,0.24 0.912,0.24 1.464,0.744 0.36,0.336 0.552,0.696 0.192,0.36 0.288,0.912 0.096,0.528 0.096,1.32 0.024,0.768 0.024,1.944 z m -4.152,-4.824 q -0.888,0 -1.488,0.456 -0.6,0.456 -0.6,1.608 0,0.768 0.288,1.344 0.312,0.552 1.008,0.552 0.072,0 0.24,-0.024 0.192,-0.024 0.384,-0.144 0.216,-0.12 0.408,-0.336 0.216,-0.216 0.336,-0.624 0.072,-0.192 0.096,-0.408 0.048,-0.24 0.072,-0.552 0.024,-0.336 0.048,-0.768 0.024,-0.432 0.024,-1.056 z"
         id="path912"
         style="fill:#85a0b4;fill-opacity:1" />
      <path
         d="m 88.926313,-289.77578 q 0,0.912 0,1.632 0,0.696 0,1.296 0.024,0.576 0.024,1.08 0.024,0.48 0.048,0.984 0.024,0.552 0.048,0.912 0.048,0.336 0.096,0.576 0.048,0.24 0.12,0.408 0.072,0.168 0.144,0.336 -0.48,-0.048 -0.888,-0.072 -0.408,-0.048 -1.104,-0.048 -0.864,0 -1.392,0.048 -0.504,0.024 -0.984,0.072 0.096,-0.264 0.168,-0.504 0.072,-0.264 0.12,-0.696 0.048,-0.384 0.072,-0.912 0.024,-0.552 0.024,-1.152 0.024,-0.6 0.024,-1.176 0,-0.6 0,-1.08 v -4.32 q 0,-0.984 0,-1.728 0,-0.744 -0.024,-1.32 -0.024,-0.576 -0.048,-1.008 -0.024,-0.456 -0.048,-0.84 -0.048,-0.552 -0.144,-0.888 -0.096,-0.36 -0.216,-0.576 -0.096,-0.24 -0.216,-0.36 -0.12,-0.144 -0.264,-0.264 0.936,-0.048 1.608,-0.144 0.696,-0.096 1.224,-0.216 0.552,-0.144 0.984,-0.288 0.456,-0.168 0.888,-0.36 -0.096,0.504 -0.144,0.912 -0.048,0.384 -0.096,0.984 -0.024,0.576 -0.024,1.488 0,0.912 0,2.448 z"
         id="path914"
         style="fill:#85a0b4;fill-opacity:1" />
      <path
         d="m 108.24631,-289.10378 q -0.024,0.96 -0.192,2.136 -0.168,1.176 -0.744,2.208 -0.552,1.008 -1.656,1.704 -1.08,0.672 -2.928,0.672 -1.776,0 -2.855999,-0.576 -1.056,-0.6 -1.656,-1.536 -0.6,-0.936 -0.792,-2.088 -0.192,-1.152 -0.192,-2.304 0,-1.152 0.192,-2.352 0.192,-1.2 0.768,-2.184 0.6,-0.984 1.704,-1.608 1.103999,-0.624 2.927999,-0.624 1.824,0 2.904,0.624 1.104,0.6 1.656,1.56 0.576,0.96 0.72,2.136 0.168,1.152 0.144,2.232 z m -3.6,-0.024 q 0,-1.368 -0.096,-2.256 -0.096,-0.912 -0.312,-1.44 -0.216,-0.528 -0.576,-0.744 -0.36,-0.216 -0.864,-0.216 -0.552,0 -0.936,0.264 -0.384,0.264 -0.624,0.888 -0.216,0.6 -0.312,1.608 -0.096,1.008 -0.096,2.496 0,0.984 0.048,1.776 0.048,0.792 0.24,1.344 0.216,0.552 0.6,0.864 0.384,0.288 1.032,0.288 0.48,0 0.816,-0.168 0.36,-0.192 0.6,-0.696 0.24,-0.528 0.36,-1.488 0.12,-0.96 0.12,-2.52 z"
         id="path916"
         style="fill:#85a0b4;fill-opacity:1" />
      <path
         d="m 113.71831,-280.36778 q 0,0.72 0.024,1.176 0.048,0.456 0.12,0.768 0.072,0.312 0.168,0.528 0.096,0.216 0.24,0.432 -0.216,-0.048 -0.432,-0.072 -0.192,-0.024 -0.432,-0.048 -0.264,-0.048 -0.552,-0.048 -0.264,0 -0.672,0 -0.48,0 -0.816,0 -0.312,0.024 -0.576,0.024 -0.264,0.024 -0.504,0.048 -0.216,0.048 -0.504,0.096 0.12,-0.24 0.192,-0.408 0.096,-0.168 0.144,-0.528 0.048,-0.336 0.072,-1.128 0.048,-0.768 0.048,-1.656 0.024,-0.864 0.024,-1.704 0.024,-0.84 0.024,-1.272 v -3.504 q 0,-1.512 -0.024,-2.856 -0.024,-1.368 -0.096,-2.472 -0.048,-0.552 -0.12,-0.888 -0.048,-0.36 -0.144,-0.576 -0.096,-0.24 -0.216,-0.384 -0.12,-0.144 -0.264,-0.288 l 0.84,0.024 q 1.584,0 2.424,-0.264 0.84,-0.264 1.296,-0.48 l -0.048,2.736 q 0.144,-0.312 0.36,-0.744 0.24,-0.432 0.624,-0.84 0.408,-0.408 0.984,-0.696 0.6,-0.288 1.464,-0.288 0.888,0 1.512,0.288 0.648,0.264 1.08,0.744 0.456,0.456 0.696,1.056 0.264,0.576 0.408,1.2 0.144,0.624 0.168,1.224 0.048,0.576 0.048,1.056 0,2.184 -0.456,3.648 -0.456,1.464 -1.296,2.352 -0.84,0.888 -2.016,1.272 -1.176,0.384 -2.616,0.384 -0.336,0 -0.6,-0.024 -0.264,0 -0.576,-0.048 z m 2.088,-12.648 q -0.552,0 -1.008,0.408 -0.456,0.408 -0.72,1.392 -0.264,1.08 -0.312,2.784 -0.024,1.68 -0.024,3.888 0.216,0.048 0.432,0.096 0.24,0.048 0.624,0.048 0.936,0 1.512,-0.312 0.576,-0.336 0.888,-0.888 0.336,-0.552 0.432,-1.296 0.12,-0.768 0.12,-1.632 0,-0.816 -0.096,-1.608 -0.072,-0.816 -0.288,-1.44 -0.216,-0.648 -0.6,-1.032 -0.36,-0.408 -0.96,-0.408 z"
         id="path918"
         style="fill:#85a0b4;fill-opacity:1" />
      <path
         d="m 126.1503,-288.43178 q 0,0.288 0.024,0.672 0.024,0.36 0.12,0.768 0.12,0.408 0.312,0.816 0.216,0.384 0.576,0.72 0.312,0.288 0.672,0.456 0.384,0.144 0.72,0.216 0.36,0.072 0.648,0.096 0.312,0 0.456,0 1.248,0 1.872,-0.264 0.648,-0.288 0.984,-0.504 -0.192,0.792 -0.288,1.368 -0.072,0.576 -0.048,1.392 -0.744,0.192 -1.488,0.24 -0.72,0.072 -1.488,0.072 -1.152,0 -2.064,-0.168 -0.888,-0.168 -1.632,-0.552 -1.296,-0.672 -2.064,-2.136 -0.744,-1.464 -0.744,-3.984 0,-1.152 0.216,-2.304 0.24,-1.152 0.816,-2.064 0.6,-0.936 1.632,-1.512 1.056,-0.576 2.688,-0.576 1.464,0 2.376,0.48 0.936,0.456 1.44,1.272 0.504,0.792 0.672,1.872 0.192,1.056 0.192,2.232 l -0.048,1.392 z m 3.432,-1.992 q 0.024,-0.6 -0.024,-1.176 -0.024,-0.6 -0.192,-1.056 -0.168,-0.48 -0.528,-0.768 -0.336,-0.288 -0.936,-0.288 -0.6,0 -0.96,0.288 -0.36,0.288 -0.552,0.768 -0.192,0.456 -0.264,1.056 -0.072,0.576 -0.072,1.176 z"
         id="path920"
         style="fill:#85a0b4;fill-opacity:1" />
      <path
         d="m 138.22231,-292.05578 q 0.144,-0.384 0.408,-0.96 0.264,-0.576 0.744,-1.152 0.504,-0.576 1.272,-1.032 0.792,-0.456 1.968,-0.576 -0.312,1.152 -0.408,2.064 -0.072,0.888 -0.12,1.44 -0.192,-0.048 -0.408,-0.096 -0.192,-0.048 -0.456,-0.048 -0.768,0 -1.368,0.336 -0.6,0.336 -0.936,0.84 -0.264,0.408 -0.456,1.272 -0.192,0.84 -0.192,2.28 0,0.624 0,1.392 0,0.744 0.024,1.464 0.048,0.72 0.12,1.344 0.072,0.624 0.192,0.936 -0.408,-0.048 -0.84,-0.096 -0.432,-0.048 -1.056,-0.048 -1.032,0 -2.136,0.144 0.072,-0.24 0.12,-0.432 0.048,-0.216 0.096,-0.648 0.048,-0.528 0.072,-1.32 0.048,-0.816 0.048,-1.728 v -3.336 q 0,-0.672 0,-1.176 0,-0.528 -0.024,-0.96 0,-0.432 -0.024,-0.792 -0.024,-0.36 -0.048,-0.744 -0.072,-0.72 -0.264,-0.96 -0.168,-0.264 -0.408,-0.432 0.744,0 1.32,-0.024 0.576,-0.048 1.056,-0.144 0.504,-0.096 0.96,-0.216 0.48,-0.144 0.984,-0.36 z"
         id="path922"
         style="fill:#85a0b4;fill-opacity:1" />
      <path
         d="m 152.2143,-284.23178 q 0.048,0.768 0.168,1.104 0.12,0.312 0.288,0.576 -0.408,-0.072 -0.864,-0.072 -0.456,-0.024 -0.984,-0.024 -0.48,0 -0.912,0.024 -0.432,0.024 -0.912,0.072 -0.072,-0.36 -0.096,-0.864 0,-0.504 0.024,-1.512 -0.12,0.336 -0.312,0.768 -0.192,0.408 -0.552,0.792 -0.336,0.384 -0.912,0.648 -0.552,0.264 -1.392,0.264 -1.08,0 -1.704,-0.456 -0.624,-0.456 -0.96,-1.08 -0.312,-0.648 -0.408,-1.296 -0.072,-0.672 -0.072,-1.104 0,-1.176 0.36,-1.992 0.384,-0.816 1.056,-1.32 0.672,-0.528 1.584,-0.768 0.936,-0.24 2.064,-0.24 0.408,0 0.648,0.024 0.264,0 0.504,0.048 0.024,-0.6 0,-1.08 0,-0.48 -0.144,-0.792 -0.144,-0.336 -0.48,-0.504 -0.312,-0.192 -0.888,-0.192 -0.888,0 -1.728,0.312 -0.816,0.312 -1.488,0.936 -0.264,-0.984 -0.48,-1.512 -0.216,-0.552 -0.504,-1.056 0.24,-0.12 0.624,-0.312 0.408,-0.216 0.984,-0.384 0.576,-0.192 1.32,-0.312 0.768,-0.144 1.752,-0.144 1.08,0 1.992,0.24 0.912,0.24 1.464,0.744 0.36,0.336 0.552,0.696 0.192,0.36 0.288,0.912 0.096,0.528 0.096,1.32 0.024,0.768 0.024,1.944 z m -4.152,-4.824 q -0.888,0 -1.488,0.456 -0.6,0.456 -0.6,1.608 0,0.768 0.288,1.344 0.312,0.552 1.008,0.552 0.072,0 0.24,-0.024 0.192,-0.024 0.384,-0.144 0.216,-0.12 0.408,-0.336 0.216,-0.216 0.336,-0.624 0.072,-0.192 0.096,-0.408 0.048,-0.24 0.072,-0.552 0.024,-0.336 0.048,-0.768 0.024,-0.432 0.024,-1.056 z"
         id="path924"
         style="fill:#85a0b4;fill-opacity:1" />
      <path
         d="m 158.5503,-289.36778 v 2.16 q 0,0.672 0.048,1.128 0.048,0.432 0.192,0.696 0.144,0.264 0.384,0.384 0.264,0.096 0.672,0.096 0.336,0 0.528,-0.048 0.216,-0.072 0.408,-0.144 -0.072,0.36 -0.144,0.792 -0.072,0.408 -0.072,0.984 l 0.048,0.768 q -0.408,0.048 -0.792,0.096 -0.384,0.048 -0.96,0.048 -1.416,0 -2.184,-0.312 -0.744,-0.336 -1.104,-0.912 -0.336,-0.576 -0.408,-1.344 -0.048,-0.768 -0.048,-1.656 l 0.072,-6 q -0.384,-0.024 -0.72,0 -0.312,0 -0.744,0.072 0.024,-0.288 0.024,-0.576 0,-0.288 0.024,-0.576 0,-0.36 -0.024,-0.6 0,-0.24 -0.024,-0.48 0.408,0.048 0.72,0.072 0.336,0.024 0.792,0 0,-0.384 0,-0.816 0,-0.456 -0.024,-0.888 0,-0.456 -0.048,-0.864 -0.048,-0.432 -0.144,-0.768 0.744,-0.048 1.272,-0.12 0.552,-0.096 0.96,-0.216 0.432,-0.12 0.768,-0.264 0.36,-0.168 0.744,-0.36 -0.072,0.36 -0.12,0.624 -0.024,0.24 -0.048,0.648 -0.024,0.408 -0.048,1.104 0,0.672 -0.024,1.896 0.624,0.024 1.008,0.024 0.384,-0.024 0.936,-0.096 -0.048,0.288 -0.072,0.624 -0.024,0.312 -0.024,0.72 0,0.6 0.096,0.96 -0.504,-0.096 -1.008,-0.096 -0.504,-0.024 -0.912,-0.024 z"
         id="path926"
         style="fill:#85a0b4;fill-opacity:1" />
      <path
         d="m 162.51029,-292.15178 q -0.024,-0.792 -0.096,-1.248 -0.048,-0.48 -0.144,-0.768 -0.072,-0.312 -0.216,-0.48 -0.144,-0.192 -0.36,-0.384 0.912,-0.048 1.536,-0.096 0.624,-0.048 1.104,-0.12 0.48,-0.096 0.888,-0.24 0.432,-0.144 0.936,-0.36 -0.264,1.92 -0.264,4.344 0.024,2.4 0.072,5.448 0.024,0.888 0.096,1.848 0.072,0.96 0.36,1.656 -0.408,-0.048 -0.84,-0.096 -0.408,-0.048 -1.08,-0.048 -0.84,0 -1.44,0.048 -0.6,0.048 -1.008,0.096 0.096,-0.192 0.168,-0.336 0.072,-0.168 0.12,-0.408 0.072,-0.264 0.096,-0.648 0.024,-0.384 0.048,-1.032 0.024,-0.648 0.048,-1.488 0.024,-0.84 0.024,-1.776 0,-0.936 -0.024,-1.92 0,-1.008 -0.024,-1.992 z m 3.36,-6.36 q 0.024,1.056 -0.48,1.488 -0.48,0.432 -1.224,0.432 -0.768,0 -1.272,-0.432 -0.48,-0.432 -0.48,-1.32 0,-0.744 0.384,-1.296 0.384,-0.552 1.368,-0.552 0.84,0 1.248,0.456 0.432,0.456 0.456,1.224 z"
         id="path928"
         style="fill:#85a0b4;fill-opacity:1" />
      <path
         d="m 172.20629,-293.27978 q 0.12,-0.288 0.336,-0.696 0.24,-0.408 0.648,-0.768 0.408,-0.384 1.056,-0.648 0.672,-0.288 1.68,-0.288 1.2,0 1.848,0.408 0.672,0.384 0.984,0.96 0.312,0.576 0.36,1.224 0.072,0.648 0.072,1.152 v 7.176 q 0,0.552 0.024,0.912 0.048,0.36 0.096,0.6 0.048,0.216 0.096,0.384 0.072,0.144 0.144,0.312 -0.24,-0.024 -0.456,-0.048 -0.216,-0.024 -0.48,-0.024 -0.24,-0.024 -0.576,-0.024 -0.312,-0.024 -0.744,-0.024 -0.624,0 -1.032,0.024 -0.384,0.024 -0.84,0.096 0.048,-0.168 0.096,-0.36 0.072,-0.192 0.096,-0.6 0.048,-0.408 0.072,-1.104 0.024,-0.72 0.024,-1.944 v -3.816 q 0,-0.576 -0.024,-1.08 -0.024,-0.504 -0.192,-0.864 -0.144,-0.36 -0.48,-0.576 -0.312,-0.216 -0.888,-0.216 -0.552,0 -0.912,0.192 -0.336,0.192 -0.528,0.456 -0.168,0.24 -0.24,0.504 -0.072,0.24 -0.096,0.36 -0.048,0.288 -0.072,0.864 -0.024,0.552 -0.048,1.296 0,0.72 0,1.536 0,0.816 0,1.608 0,1.128 0,1.8 0.024,0.648 0.048,1.032 0.048,0.384 0.096,0.576 0.072,0.168 0.144,0.336 -0.432,-0.048 -0.888,-0.072 -0.456,-0.048 -1.176,-0.048 -0.48,0 -0.936,0.024 -0.456,0.024 -1.08,0.096 0.12,-0.24 0.192,-0.552 0.072,-0.336 0.12,-0.648 0.024,-0.168 0.048,-0.624 0.024,-0.456 0.024,-1.056 0.024,-0.624 0.024,-1.368 0,-0.768 0,-1.56 0,-0.792 0,-1.44 0,-0.672 -0.024,-1.248 0,-0.576 -0.024,-1.128 -0.024,-0.552 -0.072,-1.152 -0.048,-0.84 -0.288,-1.224 -0.216,-0.384 -0.432,-0.504 0.888,-0.048 1.512,-0.096 0.624,-0.072 1.08,-0.168 0.48,-0.096 0.84,-0.216 0.384,-0.144 0.768,-0.312 z"
         id="path930"
         style="fill:#85a0b4;fill-opacity:1" />
      <path
         d="m 186.41428,-295.67978 q 0.648,0 1.368,0.096 0.744,0.096 1.32,0.336 l 0.264,0.12 q 0.408,0.024 0.864,0 0.48,-0.048 0.888,-0.096 0.192,-0.024 0.48,-0.072 0.288,-0.072 0.696,-0.168 -0.024,0.264 -0.048,0.504 0,0.24 0,0.456 0,0.264 0,0.504 0.024,0.216 0.048,0.432 -0.384,-0.12 -0.888,-0.144 -0.48,-0.048 -0.888,-0.024 0.192,0.36 0.384,0.84 0.192,0.48 0.192,1.488 0,0.864 -0.24,1.632 -0.24,0.744 -0.768,1.32 -0.528,0.552 -1.368,0.888 -0.84,0.336 -2.04,0.336 -0.624,0 -1.032,-0.072 -0.408,-0.072 -0.696,-0.12 -0.24,0.12 -0.552,0.336 -0.288,0.192 -0.288,0.6 0,0.648 0.816,0.792 0.84,0.144 2.304,0.168 0.84,0.024 1.704,0.12 0.888,0.096 1.608,0.456 0.72,0.336 1.176,1.032 0.48,0.696 0.48,1.944 0,0.936 -0.264,1.656 -0.24,0.744 -0.624,1.224 -0.648,0.84 -1.992,1.392 -1.32,0.552 -3.384,0.552 -1.44,0 -2.424,-0.264 -0.984,-0.24 -1.584,-0.672 -0.576,-0.408 -0.84,-0.936 -0.24,-0.504 -0.24,-1.056 0,-0.672 0.288,-1.152 0.312,-0.456 0.72,-0.768 0.432,-0.288 0.888,-0.456 0.48,-0.168 0.816,-0.264 -0.264,-0.072 -0.648,-0.192 -0.384,-0.144 -0.72,-0.408 -0.336,-0.264 -0.576,-0.672 -0.24,-0.408 -0.24,-1.056 0,-1.008 0.648,-1.68 0.648,-0.672 1.68,-1.152 -0.192,-0.096 -0.528,-0.288 -0.336,-0.216 -0.672,-0.6 -0.312,-0.408 -0.552,-1.032 -0.24,-0.624 -0.24,-1.56 0,-1.176 0.36,-1.992 0.384,-0.84 1.008,-1.344 0.648,-0.528 1.488,-0.744 0.864,-0.24 1.848,-0.24 z m 1.488,4.176 q 0,-0.384 -0.048,-0.84 -0.024,-0.456 -0.168,-0.84 -0.12,-0.384 -0.408,-0.624 -0.264,-0.264 -0.768,-0.264 -0.48,0 -0.768,0.24 -0.288,0.216 -0.456,0.6 -0.168,0.36 -0.24,0.84 -0.048,0.48 -0.048,0.984 0,0.408 0.048,0.864 0.048,0.432 0.192,0.816 0.144,0.384 0.432,0.624 0.312,0.24 0.816,0.24 0.456,0 0.744,-0.216 0.288,-0.24 0.432,-0.624 0.144,-0.384 0.192,-0.84 0.048,-0.48 0.048,-0.96 z m -1.272,12.864 q 0.576,0 1.128,-0.12 0.576,-0.12 1.032,-0.36 0.456,-0.24 0.72,-0.624 0.288,-0.384 0.288,-0.936 0,-0.6 -0.312,-0.936 -0.312,-0.312 -0.96,-0.48 -0.624,-0.168 -1.608,-0.264 -0.96,-0.072 -2.28,-0.168 -0.384,0.264 -0.6,0.528 -0.192,0.288 -0.312,0.552 -0.096,0.264 -0.12,0.456 -0.024,0.192 -0.024,0.264 0,0.504 0.24,0.888 0.24,0.384 0.648,0.648 0.408,0.264 0.96,0.408 0.552,0.144 1.2,0.144 z"
         id="path932"
         style="fill:#85a0b4;fill-opacity:1" />
      <path
         d="m 204.31828,-295.79978 q 0.696,0 1.416,0.096 0.72,0.096 1.416,0.288 -0.264,0.648 -0.384,1.224 -0.096,0.576 -0.12,1.488 -0.408,-0.552 -1.056,-0.768 -0.648,-0.216 -1.344,-0.216 -0.912,0 -1.32,0.432 -0.384,0.408 -0.384,0.912 0,0.696 0.576,1.128 0.576,0.408 1.752,0.936 0.504,0.264 0.984,0.552 0.48,0.288 0.84,0.696 0.36,0.384 0.576,0.96 0.216,0.576 0.216,1.392 0,1.104 -0.336,1.872 -0.312,0.744 -0.84,1.248 -0.528,0.48 -1.176,0.744 -0.624,0.264 -1.248,0.384 -0.624,0.12 -1.152,0.144 -0.528,0.024 -0.84,0.024 -1.296,0 -2.016,-0.168 -0.696,-0.168 -1.032,-0.288 0.336,-0.696 0.48,-1.296 0.168,-0.624 0.24,-1.56 0.072,0.12 0.24,0.312 0.192,0.192 0.48,0.384 0.312,0.192 0.768,0.336 0.48,0.144 1.176,0.144 0.744,0 1.152,-0.192 0.432,-0.216 0.6,-0.48 0.192,-0.264 0.216,-0.504 0.048,-0.24 0.048,-0.312 0,-0.336 -0.096,-0.552 -0.096,-0.24 -0.36,-0.432 -0.24,-0.216 -0.672,-0.432 -0.432,-0.24 -1.104,-0.576 -0.456,-0.24 -0.96,-0.528 -0.48,-0.312 -0.888,-0.744 -0.384,-0.432 -0.648,-1.032 -0.24,-0.624 -0.24,-1.488 0,-1.056 0.36,-1.824 0.384,-0.792 1.032,-1.296 0.672,-0.504 1.584,-0.744 0.936,-0.264 2.064,-0.264 z"
         id="path934"
         style="fill:#85a0b4;fill-opacity:1" />
      <path
         d="m 214.27828,-287.85578 q 0.168,-0.696 0.384,-1.68 0.216,-0.984 0.408,-1.968 0.216,-1.008 0.36,-1.872 0.144,-0.864 0.144,-1.32 0,-0.264 -0.048,-0.432 -0.048,-0.168 -0.12,-0.336 0.168,0.024 0.336,0.048 0.168,0 0.36,0 0.192,0.024 0.408,0.024 0.216,0 0.48,0 0.432,0 0.72,0 0.312,-0.024 0.552,-0.024 0.24,-0.024 0.432,-0.048 0.216,-0.048 0.432,-0.096 -0.24,0.504 -0.432,0.936 -0.168,0.408 -0.36,1.056 -0.192,0.624 -0.48,1.632 -0.264,0.984 -0.72,2.616 -0.528,2.064 -0.84,3.312 -0.312,1.224 -0.528,1.992 -0.192,0.768 -0.336,1.248 -0.12,0.456 -0.288,0.984 -0.24,0.744 -0.552,1.512 -0.312,0.768 -0.912,1.392 -0.6,0.648 -1.608,1.032 -0.984,0.408 -2.568,0.408 -0.408,0 -0.672,-0.048 -0.264,-0.024 -0.528,-0.072 0.144,-0.36 0.24,-0.696 0.096,-0.312 0.168,-0.648 0.072,-0.336 0.12,-0.72 0.048,-0.384 0.096,-0.864 0.264,0.192 0.504,0.312 0.264,0.12 0.792,0.12 0.792,0 1.296,-0.312 0.504,-0.288 0.792,-0.696 0.288,-0.408 0.408,-0.84 0.144,-0.432 0.192,-0.696 -0.216,-0.024 -0.456,-0.024 -0.216,-0.024 -0.552,-0.024 l -0.96,0.048 q -0.048,-0.576 -0.216,-1.512 -0.168,-0.936 -0.408,-2.04 -0.216,-1.104 -0.48,-2.28 -0.264,-1.176 -0.504,-2.208 -0.24,-1.032 -0.432,-1.824 -0.192,-0.792 -0.288,-1.128 -0.144,-0.504 -0.336,-1.008 -0.168,-0.504 -0.504,-0.912 0.264,0.024 0.48,0.048 0.24,0.024 0.504,0.048 0.288,0 0.624,0.024 0.336,0 0.792,0 0.72,0 1.128,-0.024 0.432,-0.048 0.84,-0.096 -0.024,0.096 -0.048,0.24 -0.024,0.12 -0.024,0.36 0,0.216 0.024,0.6 0.048,0.36 0.12,0.912 0.12,0.888 0.264,1.8 0.144,0.912 0.312,1.92 0.168,1.008 0.384,2.136 0.216,1.128 0.48,2.424 z"
         id="path936"
         style="fill:#85a0b4;fill-opacity:1" />
      <path
         d="m 224.81429,-295.79978 q 0.696,0 1.416,0.096 0.72,0.096 1.416,0.288 -0.264,0.648 -0.384,1.224 -0.096,0.576 -0.12,1.488 -0.408,-0.552 -1.056,-0.768 -0.648,-0.216 -1.344,-0.216 -0.912,0 -1.32,0.432 -0.384,0.408 -0.384,0.912 0,0.696 0.576,1.128 0.576,0.408 1.752,0.936 0.504,0.264 0.984,0.552 0.48,0.288 0.84,0.696 0.36,0.384 0.576,0.96 0.216,0.576 0.216,1.392 0,1.104 -0.336,1.872 -0.312,0.744 -0.84,1.248 -0.528,0.48 -1.176,0.744 -0.624,0.264 -1.248,0.384 -0.624,0.12 -1.152,0.144 -0.528,0.024 -0.84,0.024 -1.296,0 -2.016,-0.168 -0.696,-0.168 -1.032,-0.288 0.336,-0.696 0.48,-1.296 0.168,-0.624 0.24,-1.56 0.072,0.12 0.24,0.312 0.192,0.192 0.48,0.384 0.312,0.192 0.768,0.336 0.48,0.144 1.176,0.144 0.744,0 1.152,-0.192 0.432,-0.216 0.6,-0.48 0.192,-0.264 0.216,-0.504 0.048,-0.24 0.048,-0.312 0,-0.336 -0.096,-0.552 -0.096,-0.24 -0.36,-0.432 -0.24,-0.216 -0.672,-0.432 -0.432,-0.24 -1.104,-0.576 -0.456,-0.24 -0.96,-0.528 -0.48,-0.312 -0.888,-0.744 -0.384,-0.432 -0.648,-1.032 -0.24,-0.624 -0.24,-1.488 0,-1.056 0.36,-1.824 0.384,-0.792 1.032,-1.296 0.672,-0.504 1.584,-0.744 0.936,-0.264 2.064,-0.264 z"
         id="path938"
         style="fill:#85a0b4;fill-opacity:1" />
      <path
         d="m 233.57428,-289.36778 v 2.16 q 0,0.672 0.048,1.128 0.048,0.432 0.192,0.696 0.144,0.264 0.384,0.384 0.264,0.096 0.672,0.096 0.336,0 0.528,-0.048 0.216,-0.072 0.408,-0.144 -0.072,0.36 -0.144,0.792 -0.072,0.408 -0.072,0.984 l 0.048,0.768 q -0.408,0.048 -0.792,0.096 -0.384,0.048 -0.96,0.048 -1.416,0 -2.184,-0.312 -0.744,-0.336 -1.104,-0.912 -0.336,-0.576 -0.408,-1.344 -0.048,-0.768 -0.048,-1.656 l 0.072,-6 q -0.384,-0.024 -0.72,0 -0.312,0 -0.744,0.072 0.024,-0.288 0.024,-0.576 0,-0.288 0.024,-0.576 0,-0.36 -0.024,-0.6 0,-0.24 -0.024,-0.48 0.408,0.048 0.72,0.072 0.336,0.024 0.792,0 0,-0.384 0,-0.816 0,-0.456 -0.024,-0.888 0,-0.456 -0.048,-0.864 -0.048,-0.432 -0.144,-0.768 0.744,-0.048 1.272,-0.12 0.552,-0.096 0.96,-0.216 0.432,-0.12 0.768,-0.264 0.36,-0.168 0.744,-0.36 -0.072,0.36 -0.12,0.624 -0.024,0.24 -0.048,0.648 -0.024,0.408 -0.048,1.104 0,0.672 -0.024,1.896 0.624,0.024 1.008,0.024 0.384,-0.024 0.936,-0.096 -0.048,0.288 -0.072,0.624 -0.024,0.312 -0.024,0.72 0,0.6 0.096,0.96 -0.504,-0.096 -1.008,-0.096 -0.504,-0.024 -0.912,-0.024 z"
         id="path940"
         style="fill:#85a0b4;fill-opacity:1" />
      <path
         d="m 240.19828,-288.43178 q 0,0.288 0.024,0.672 0.024,0.36 0.12,0.768 0.12,0.408 0.312,0.816 0.216,0.384 0.576,0.72 0.312,0.288 0.672,0.456 0.384,0.144 0.72,0.216 0.36,0.072 0.648,0.096 0.312,0 0.456,0 1.248,0 1.872,-0.264 0.648,-0.288 0.984,-0.504 -0.192,0.792 -0.288,1.368 -0.072,0.576 -0.048,1.392 -0.744,0.192 -1.488,0.24 -0.72,0.072 -1.488,0.072 -1.152,0 -2.064,-0.168 -0.888,-0.168 -1.632,-0.552 -1.296,-0.672 -2.064,-2.136 -0.744,-1.464 -0.744,-3.984 0,-1.152 0.216,-2.304 0.24,-1.152 0.816,-2.064 0.6,-0.936 1.632,-1.512 1.056,-0.576 2.688,-0.576 1.464,0 2.376,0.48 0.936,0.456 1.44,1.272 0.504,0.792 0.672,1.872 0.192,1.056 0.192,2.232 l -0.048,1.392 z m 3.432,-1.992 q 0.024,-0.6 -0.024,-1.176 -0.024,-0.6 -0.192,-1.056 -0.168,-0.48 -0.528,-0.768 -0.336,-0.288 -0.936,-0.288 -0.6,0 -0.96,0.288 -0.36,0.288 -0.552,0.768 -0.192,0.456 -0.264,1.056 -0.072,0.576 -0.072,1.176 z"
         id="path942"
         style="fill:#85a0b4;fill-opacity:1" />
      <path
         d="m 265.23028,-287.51978 q -0.024,1.272 -0.024,2.112 0,0.84 0.024,1.392 0.048,0.552 0.096,0.888 0.072,0.336 0.168,0.576 -0.408,-0.048 -0.84,-0.096 -0.408,-0.048 -1.104,-0.048 -0.648,0 -1.152,0.048 -0.504,0.024 -0.936,0.096 0.192,-0.336 0.24,-1.704 0.072,-1.392 0.072,-3.24 v -2.736 q 0,-0.504 -0.024,-0.984 -0.024,-0.504 -0.168,-0.888 -0.12,-0.384 -0.384,-0.624 -0.264,-0.24 -0.744,-0.24 -0.624,0 -0.984,0.216 -0.336,0.192 -0.504,0.72 -0.144,0.504 -0.168,1.368 -0.024,0.864 -0.024,2.184 v 2.112 2.256 q 0,0.552 0.048,0.936 0.072,0.36 0.24,0.624 -0.408,-0.048 -0.84,-0.096 -0.408,-0.048 -1.128,-0.048 -0.624,0 -1.104,0.048 -0.48,0.024 -1.032,0.096 0.048,-0.096 0.096,-0.36 0.072,-0.288 0.12,-0.864 0.048,-0.576 0.072,-1.488 0.048,-0.936 0.048,-2.328 v -1.8 q 0,-0.84 -0.024,-1.488 -0.024,-0.672 -0.168,-1.128 -0.12,-0.456 -0.408,-0.696 -0.288,-0.24 -0.816,-0.24 -0.6,0 -0.936,0.264 -0.312,0.264 -0.456,0.744 -0.144,0.456 -0.168,1.104 -0.024,0.648 -0.024,1.416 v 1.92 3.072 q 0,0.912 0.048,1.272 0.072,0.36 0.24,0.6 -0.48,-0.072 -0.888,-0.096 -0.408,-0.048 -0.96,-0.048 -0.768,0 -1.32,0.048 -0.528,0.048 -0.936,0.096 0.072,-0.144 0.12,-0.288 0.048,-0.144 0.096,-0.432 0.048,-0.288 0.072,-0.816 0.024,-0.528 0.072,-1.44 0.048,-1.296 0.048,-2.568 0,-1.296 -0.024,-2.4 -0.024,-1.104 -0.072,-1.92 -0.048,-0.816 -0.096,-1.152 -0.12,-0.744 -0.312,-1.032 -0.192,-0.288 -0.504,-0.48 0.984,-0.024 1.68,-0.096 0.72,-0.096 1.224,-0.192 0.504,-0.12 0.864,-0.24 0.36,-0.144 0.648,-0.264 v 2.688 q 0.12,-0.288 0.336,-0.696 0.24,-0.432 0.648,-0.816 0.432,-0.408 1.032,-0.696 0.624,-0.288 1.512,-0.288 0.864,0 1.392,0.288 0.528,0.264 0.816,0.648 0.288,0.36 0.408,0.768 0.12,0.408 0.168,0.672 0.12,-0.24 0.336,-0.648 0.216,-0.408 0.6,-0.792 0.408,-0.384 1.032,-0.648 0.624,-0.288 1.56,-0.288 1.2,0 1.824,0.384 0.648,0.384 0.912,0.984 0.288,0.576 0.312,1.272 0.048,0.672 0.048,1.248 z"
         id="path945"
         style="fill:#85a0b4;fill-opacity:1" />
    </g>
    <g
       id="g3070"
       transform="matrix(0.18186363,0,0,0.18186363,60.503072,10.070794)"
       style="display:inline;fill:#85a0b4;fill-opacity:1">
      <path
         i:knockout="Off"
         fill="#85a0b4"
         d="m 60.969,47.645 c -1.494,0.02 0.281,0.768 2.232,1.069 0.541,-0.422 1.027,-0.846 1.463,-1.26 -1.213,0.297 -2.449,0.304 -3.695,0.191"
         id="path3046"
         style="fill:#85a0b4;fill-opacity:1" />
      <path
         i:knockout="Off"
         fill="#85a0b4"
         d="m 68.986,45.646 c 0.893,-1.229 1.541,-2.573 1.77,-3.963 -0.201,0.99 -0.736,1.845 -1.244,2.749 -2.793,1.759 -0.264,-1.044 -0.002,-2.111 -3.002,3.783 -0.414,2.268 -0.524,3.325"
         id="path3048"
         style="fill:#85a0b4;fill-opacity:1" />
      <path
         i:knockout="Off"
         fill="#85a0b4"
         d="m 71.949,37.942 c 0.182,-2.691 -0.529,-1.839 -0.768,-0.814 0.278,0.146 0.499,1.898 0.768,0.814"
         id="path3050"
         style="fill:#85a0b4;fill-opacity:1" />
      <path
         i:knockout="Off"
         fill="#85a0b4"
         d="m 55.301,1.163 c 0.798,0.142 1.724,0.252 1.591,0.443 0.876,-0.193 1.073,-0.367 -1.591,-0.443"
         id="path3052"
         style="fill:#85a0b4;fill-opacity:1" />
      <path
         i:knockout="Off"
         fill="#85a0b4"
         d="M 56.893,1.606 56.332,1.723 56.855,1.675 56.893,1.606"
         id="path3054"
         style="fill:#85a0b4;fill-opacity:1" />
      <path
         i:knockout="Off"
         fill="#85a0b4"
         d="m 81.762,38.962 c 0.09,2.416 -0.705,3.59 -1.424,5.666 l -1.293,0.643 c -1.057,2.054 0.105,1.304 -0.652,2.937 -1.652,1.467 -5.006,4.589 -6.08,4.875 -0.785,-0.017 0.531,-0.926 0.703,-1.281 -2.209,1.516 -1.773,2.276 -5.152,3.199 L 67.766,54.78 c -8.33,3.92 -19.902,-3.847 -19.75,-14.443 -0.088,0.672 -0.253,0.504 -0.437,0.774 -0.43,-5.451 2.518,-10.926 7.49,-13.165 4.863,-2.406 10.564,-1.42 14.045,1.829 -1.912,-2.506 -5.721,-5.163 -10.232,-4.917 -4.421,0.072 -8.558,2.881 -9.938,5.932 -2.264,1.425 -2.528,5.496 -3.514,6.242 -1.329,9.76 2.497,13.975 8.97,18.936 1.016,0.686 0.286,0.791 0.422,1.313 -2.15,-1.006 -4.118,-2.526 -5.738,-4.387 0.86,1.257 1.787,2.479 2.986,3.439 -2.029,-0.685 -4.738,-4.913 -5.527,-5.085 3.495,6.258 14.178,10.975 19.775,8.634 -2.59,0.096 -5.879,0.053 -8.787,-1.022 -1.225,-0.629 -2.884,-1.93 -2.587,-2.173 7.636,2.851 15.522,2.158 22.128,-3.137 1.682,-1.31 3.518,-3.537 4.049,-3.567 -0.799,1.202 0.137,0.578 -0.477,1.639 1.672,-2.701 -0.729,-1.1 1.73,-4.664 l 0.908,1.25 c -0.34,-2.244 2.785,-4.966 2.467,-8.512 0.717,-1.084 0.799,1.168 0.039,3.662 1.055,-2.767 0.279,-3.212 0.549,-5.496 0.291,0.768 0.678,1.583 0.875,2.394 -0.688,-2.675 0.703,-4.503 1.049,-6.058 -0.342,-0.15 -1.061,1.182 -1.227,-1.976 0.025,-1.372 0.383,-0.719 0.52,-1.057 -0.268,-0.155 -0.975,-1.207 -1.404,-3.224 0.309,-0.475 0.832,1.229 1.256,1.298 -0.273,-1.603 -0.742,-2.826 -0.762,-4.057 -1.24,-2.59 -0.439,0.346 -1.443,-1.112 -1.32,-4.114 1.094,-0.955 1.258,-2.823 1.998,2.895 3.137,7.385 3.662,9.244 -0.4,-2.267 -1.045,-4.464 -1.834,-6.589 0.609,0.257 -0.979,-4.663 0.791,-1.405 C 87.189,15.552 81,9.062 75.305,6.018 76,6.655 76.879,7.455 76.565,7.581 73.731,5.896 74.229,5.763 73.823,5.051 71.518,4.112 71.364,5.128 69.839,5.053 65.489,2.745 64.651,2.99 60.648,1.546 L 60.83,2.398 C 57.949,1.438 57.473,2.76 54.36,2.4 54.171,2.253 55.358,1.864 56.336,1.723 53.55,2.091 53.68,1.173 50.954,1.824 51.625,1.353 52.337,1.04 53.053,0.64 50.782,0.778 47.629,1.962 48.602,0.884 44.897,2.538 38.316,4.859 34.623,8.322 L 34.507,7.546 c -1.692,2.031 -7.379,6.066 -7.832,8.699 l -0.453,0.105 c -0.879,1.491 -1.45,3.18 -2.148,4.713 -1.151,1.963 -1.688,0.756 -1.524,1.064 -2.265,4.592 -3.392,8.45 -4.363,11.616 0.692,1.035 0.017,6.232 0.278,10.391 -1.136,20.544 14.418,40.489 31.42,45.093 2.492,0.893 6.197,0.861 9.349,0.949 -3.718,-1.064 -4.198,-0.563 -7.822,-1.826 -2.613,-1.232 -3.185,-2.637 -5.037,-4.244 l 0.733,1.295 c -3.63,-1.285 -2.111,-1.59 -5.065,-2.525 l 0.783,-1.021 c -1.177,-0.09 -3.117,-1.982 -3.647,-3.033 l -1.288,0.051 c -1.546,-1.906 -2.371,-3.283 -2.31,-4.35 l -0.416,0.742 c -0.471,-0.809 -5.691,-7.158 -2.983,-5.68 -0.503,-0.458 -1.172,-0.747 -1.897,-2.066 l 0.551,-0.629 c -1.301,-1.677 -2.398,-3.826 -2.314,-4.542 0.695,0.938 1.177,1.114 1.655,1.275 -3.291,-8.164 -3.476,-0.449 -5.967,-8.31 l 0.526,-0.042 c -0.403,-0.611 -0.65,-1.27 -0.974,-1.919 l 0.23,-2.285 c -2.368,-2.736 -0.662,-11.645 -0.319,-16.53 0.235,-1.986 1.977,-4.101 3.3,-7.418 l -0.806,-0.138 c 1.542,-2.688 8.802,-10.799 12.166,-10.383 1.629,-2.046 -0.324,-0.008 -0.643,-0.522 3.579,-3.703 4.704,-2.616 7.119,-3.283 2.603,-1.545 -2.235,0.604 -1.001,-0.589 4.503,-1.149 3.19,-2.614 9.063,-3.197 0.62,0.352 -1.437,0.544 -1.953,1.001 3.75,-1.836 11.869,-1.417 17.145,1.018 6.117,2.861 12.994,11.314 13.266,19.267 l 0.309,0.083 c -0.156,3.162 0.484,6.819 -0.627,10.177 l 0.751,-1.591"
         id="path3056"
         style="fill:#85a0b4;fill-opacity:1" />
      <path
         i:knockout="Off"
         fill="#85a0b4"
         d="m 44.658,49.695 -0.211,1.047 c 0.983,1.335 1.763,2.781 3.016,3.821 -0.902,-1.759 -1.571,-2.486 -2.805,-4.868"
         id="path3058"
         style="fill:#85a0b4;fill-opacity:1" />
      <path
         i:knockout="Off"
         fill="#85a0b4"
         d="m 46.979,49.605 c -0.52,-0.576 -0.826,-1.268 -1.172,-1.956 0.33,1.211 1.006,2.252 1.633,3.312 l -0.461,-1.356"
         id="path3060"
         style="fill:#85a0b4;fill-opacity:1" />
      <path
         i:knockout="Off"
         fill="#85a0b4"
         d="m 88.063,40.675 -0.219,0.552 c -0.402,2.858 -1.273,5.686 -2.605,8.309 1.472,-2.767 2.421,-5.794 2.824,-8.861"
         id="path3062"
         style="fill:#85a0b4;fill-opacity:1" />
      <path
         i:knockout="Off"
         fill="#85a0b4"
         d="M 55.598,0.446 C 56.607,0.077 58.08,0.243 59.154,0 57.756,0.117 56.365,0.187 54.992,0.362 l 0.606,0.084"
         id="path3064"
         style="fill:#85a0b4;fill-opacity:1" />
      <path
         i:knockout="Off"
         fill="#85a0b4"
         d="m 20.127,19.308 c 0.233,2.154 -1.62,2.991 0.41,1.569 1.09,-2.454 -0.424,-0.677 -0.41,-1.569"
         id="path3066"
         style="fill:#85a0b4;fill-opacity:1" />
      <path
         i:knockout="Off"
         fill="#85a0b4"
         d="m 17.739,29.282 c 0.469,-1.437 0.553,-2.299 0.732,-3.132 -1.293,1.654 -0.596,2.007 -0.732,3.132"
         id="path3068"
         style="fill:#85a0b4;fill-opacity:1" />
    </g>
  </g>
</svg>
