<?xml version="1.0" encoding="UTF-8" standalone="no"?>
<!-- Created with Inkscape (http://www.inkscape.org/) -->

<svg
   width="380"
   height="380"
   viewBox="0 0 100.54166 100.54167"
   version="1.1"
   id="svg5"
   xmlns:xlink="http://www.w3.org/1999/xlink"
   xmlns="http://www.w3.org/2000/svg"
   xmlns:svg="http://www.w3.org/2000/svg"
   xmlns:i="http://ns.adobe.com/AdobeIllustrator/10.0/">
  <defs
     id="defs2">
    <rect
       x="11.417744"
       y="270.91282"
       width="347.04813"
       height="90.018619"
       id="rect28450" />
    <rect
       x="-366.89584"
       y="140.67661"
       width="451.08523"
       height="185.61756"
       id="rect18881" />
    <radialGradient
       xlink:href="#linearGradient3704"
       id="radialGradient3706"
       cx="2007.3448"
       cy="1737.1503"
       fx="2007.3448"
       fy="1737.1503"
       r="960"
       gradientTransform="matrix(0.00191417,-0.35381647,0.63230921,0.00342084,-812.33583,1044.758)"
       gradientUnits="userSpaceOnUse" />
    <linearGradient
       id="linearGradient3704">
      <stop
         style="stop-color:#26475b;stop-opacity:0;"
         offset="0.69804424"
         id="stop3702" />
      <stop
         style="stop-color:#26475b;stop-opacity:1;"
         offset="1"
         id="stop3700" />
    </linearGradient>
    <radialGradient
       xlink:href="#linearGradient3714"
       id="radialGradient3716"
       cx="-55.602444"
       cy="1782.1582"
       fx="-55.602444"
       fy="1782.1582"
       r="960.29187"
       gradientTransform="matrix(0.5448247,0.00718471,-0.00342953,0.2600655,-239.58877,-185.30849)"
       gradientUnits="userSpaceOnUse" />
    <linearGradient
       id="linearGradient3714">
      <stop
         style="stop-color:#264d64;stop-opacity:0;"
         offset="0.52651834"
         id="stop3712" />
      <stop
         style="stop-color:#264d64;stop-opacity:1;"
         offset="1"
         id="stop3710" />
    </linearGradient>
    <radialGradient
       xlink:href="#linearGradient3724"
       id="radialGradient3726"
       cx="1903.3966"
       cy="1837.443"
       fx="1903.3966"
       fy="1837.443"
       r="905.96039"
       gradientTransform="matrix(1.1064066e-4,-0.26458331,0.51778643,2.1652248e-4,-668.2075,773.25416)"
       gradientUnits="userSpaceOnUse" />
    <linearGradient
       id="linearGradient3724">
      <stop
         style="stop-color:#26536e;stop-opacity:0;"
         offset="0.72692394"
         id="stop3722" />
      <stop
         style="stop-color:#26536e;stop-opacity:1;"
         offset="1"
         id="stop3720" />
    </linearGradient>
  </defs>
  <g
     id="layer1">
    <path
       id="rect2322"
       style="display:inline;fill:#254151;fill-opacity:1;fill-rule:evenodd;stroke-width:0.266166"
       d="M 0,0 V 100.54166 H 100.54166 V 0 Z" />
    <path
       id="path1670"
       style="display:inline;fill:url(#radialGradient3706);fill-opacity:1;stroke-width:1.92643"
       d="M 83.872523,0 C 68.833506,13.304798 58.084481,29.22326 39.179498,35.994989 27.064411,40.33459 12.601273,47.298311 0,50.27083 v 50.27083 H 100.54166 V 0 Z" />
    <path
       id="path1928"
       style="display:inline;fill:url(#radialGradient3716);fill-opacity:1;stroke-width:1.92643"
       d="M 0,5.8905964 V 100.54166 H 100.54166 V 65.947124 C 94.464352,64.603186 88.097063,60.05736 82.414282,57.508706 70.985972,52.383258 60.627083,44.822067 50.985117,36.827758 41.34315,28.833448 32.532102,17.688692 21.171317,12.415263 14.424698,9.2836289 7.3017236,7.2441823 0,5.8905964 Z" />
    <path
       id="path1877"
       style="display:inline;fill:url(#radialGradient3726);fill-opacity:1;stroke-width:1.94465"
       d="M 100.54166,40.84561 C 82.067905,58.820021 74.041988,62.520727 51.577031,70.61378 40.932046,74.44866 11.399348,81.779006 0,83.667929 v 16.873731 h 100.54166 z" />
    <rect
       style="fill:#265a78;fill-opacity:0.335307;fill-rule:evenodd;stroke-width:0.264583"
       id="rect20315"
       width="100.54166"
       height="100.54166"
       x="0"
       y="0" />
  </g>
  <g
     id="g880001"
     style="display:inline;fill:#51a1d0;fill-opacity:1"
     transform="matrix(0.51356496,0,0,0.51356496,27.940799,10.251518)">
    <path
       i:knockout="Off"
       fill="#51a1d0"
       d="m 51.986,57.297 c -1.797,0.025 0.34,0.926 2.686,1.287 0.648,-0.506 1.236,-1.018 1.76,-1.516 -1.461,0.358 -2.948,0.366 -4.446,0.229"
       id="path879977"
       style="display:none;fill:#51a1d0;fill-opacity:1" />
    <path
       i:knockout="Off"
       fill="#51a1d0"
       d="m 61.631,54.893 c 1.07,-1.477 1.85,-3.094 2.125,-4.766 -0.24,1.192 -0.887,2.221 -1.496,3.307 -3.359,2.115 -0.316,-1.256 -0.002,-2.537 -3.612,4.546 -0.496,2.726 -0.627,3.996"
       id="path879979"
       style="fill:#51a1d0;fill-opacity:1" />
    <path
       i:knockout="Off"
       fill="#51a1d0"
       d="m 65.191,45.629 c 0.217,-3.236 -0.637,-2.213 -0.924,-0.978 0.335,0.174 0.6,2.281 0.924,0.978"
       id="path879981"
       style="fill:#51a1d0;fill-opacity:1" />
    <path
       i:knockout="Off"
       fill="#51a1d0"
       d="m 45.172,1.399 c 0.959,0.172 2.072,0.304 1.916,0.533 1.049,-0.23 1.287,-0.442 -1.916,-0.533"
       id="path879983"
       style="fill:#51a1d0;fill-opacity:1" />
    <path
       i:knockout="Off"
       fill="#51a1d0"
       d="M 47.088,1.932 46.41,2.072 47.041,2.016 47.088,1.932"
       id="path879985"
       style="fill:#51a1d0;fill-opacity:1" />
    <path
       i:knockout="Off"
       fill="#51a1d0"
       d="m 76.992,46.856 c 0.107,2.906 -0.85,4.316 -1.713,6.812 l -1.553,0.776 c -1.271,2.468 0.123,1.567 -0.787,3.53 -1.984,1.764 -6.021,5.52 -7.313,5.863 -0.943,-0.021 0.639,-1.113 0.846,-1.541 -2.656,1.824 -2.131,2.738 -6.193,3.846 L 60.16,65.878 C 50.142,70.591 36.226,61.251 36.409,48.507 c -0.107,0.809 -0.304,0.607 -0.526,0.934 -0.517,-6.557 3.028,-13.143 9.007,-15.832 5.848,-2.895 12.704,-1.707 16.893,2.197 -2.301,-3.014 -6.881,-6.209 -12.309,-5.91 -5.317,0.084 -10.291,3.463 -11.951,7.131 -2.724,1.715 -3.04,6.611 -4.227,7.507 -1.597,11.737 3.004,16.808 10.787,22.773 1.225,0.826 0.345,0.951 0.511,1.58 -2.586,-1.211 -4.954,-3.039 -6.901,-5.277 1.033,1.512 2.148,2.982 3.589,4.137 -2.438,-0.826 -5.695,-5.908 -6.646,-6.115 4.203,7.525 17.052,13.197 23.78,10.383 -3.113,0.115 -7.068,0.064 -10.566,-1.229 -1.469,-0.756 -3.467,-2.322 -3.11,-2.615 9.182,3.43 18.667,2.598 26.612,-3.771 2.021,-1.574 4.229,-4.252 4.867,-4.289 -0.961,1.445 0.164,0.695 -0.574,1.971 2.014,-3.248 -0.875,-1.322 2.082,-5.609 l 1.092,1.504 c -0.406,-2.696 3.348,-5.97 2.967,-10.234 0.861,-1.304 0.961,1.403 0.047,4.403 1.268,-3.328 0.334,-3.863 0.66,-6.609 0.352,0.923 0.814,1.904 1.051,2.878 -0.826,-3.216 0.848,-5.416 1.262,-7.285 -0.408,-0.181 -1.275,1.422 -1.473,-2.377 0.029,-1.65 0.459,-0.865 0.625,-1.271 -0.324,-0.186 -1.174,-1.451 -1.691,-3.877 0.375,-0.57 1.002,1.478 1.512,1.562 -0.328,-1.929 -0.893,-3.4 -0.916,-4.88 -1.49,-3.114 -0.527,0.415 -1.736,-1.337 -1.586,-4.947 1.316,-1.148 1.512,-3.396 2.404,3.483 3.775,8.881 4.404,11.117 -0.48,-2.726 -1.256,-5.367 -2.203,-7.922 0.73,0.307 -1.176,-5.609 0.949,-1.691 C 83.519,18.706 76.074,10.902 69.225,7.24 70.063,8.007 71.121,8.97 70.741,9.121 67.335,7.093 67.934,6.935 67.446,6.078 64.671,4.949 64.489,6.169 62.651,6.08 57.421,3.306 56.413,3.601 51.6,1.863 l 0.219,1.023 c -3.465,-1.154 -4.037,0.438 -7.782,0.004 -0.228,-0.178 1.2,-0.644 2.375,-0.815 -3.35,0.442 -3.193,-0.66 -6.471,0.122 0.808,-0.567 1.662,-0.942 2.524,-1.424 -2.732,0.166 -6.522,1.59 -5.352,0.295 -4.456,1.988 -12.37,4.779 -16.811,8.943 l -0.14,-0.933 c -2.035,2.443 -8.874,7.296 -9.419,10.46 l -0.544,0.127 c -1.059,1.793 -1.744,3.825 -2.584,5.67 -1.385,2.36 -2.03,0.908 -1.833,1.278 -2.724,5.523 -4.077,10.164 -5.246,13.97 0.833,1.245 0.02,7.495 0.335,12.497 -1.368,24.704 17.338,48.69 37.785,54.228 2.997,1.072 7.454,1.031 11.245,1.141 -4.473,-1.279 -5.051,-0.678 -9.408,-2.197 -3.143,-1.48 -3.832,-3.17 -6.058,-5.102 l 0.881,1.557 c -4.366,-1.545 -2.539,-1.912 -6.091,-3.037 l 0.941,-1.229 C 28.751,98.334 26.418,96.056 25.78,94.795 l -1.548,0.061 c -1.86,-2.295 -2.851,-3.949 -2.779,-5.23 l -0.5,0.891 c -0.567,-0.973 -6.843,-8.607 -3.587,-6.83 -0.605,-0.553 -1.409,-0.9 -2.281,-2.484 l 0.663,-0.758 c -1.567,-2.016 -2.884,-4.6 -2.784,-5.461 0.836,1.129 1.416,1.34 1.99,1.533 -3.957,-9.818 -4.179,-0.541 -7.176,-9.994 L 8.412,66.472 C 7.926,65.74 7.631,64.945 7.24,64.165 l 0.276,-2.75 C 4.667,58.121 6.719,47.409 7.13,41.534 7.415,39.145 9.508,36.602 11.1,32.614 l -0.97,-0.167 c 1.854,-3.234 10.586,-12.988 14.63,-12.486 1.959,-2.461 -0.389,-0.009 -0.772,-0.629 4.303,-4.453 5.656,-3.146 8.56,-3.947 3.132,-1.859 -2.688,0.725 -1.203,-0.709 5.414,-1.383 3.837,-3.144 10.9,-3.846 0.745,0.424 -1.729,0.655 -2.35,1.205 4.511,-2.207 14.275,-1.705 20.617,1.225 7.359,3.439 15.627,13.605 15.953,23.17 l 0.371,0.1 c -0.188,3.802 0.582,8.199 -0.752,12.238 l 0.908,-1.912"
       id="path879987"
       style="fill:#51a1d0;fill-opacity:1" />
    <path
       i:knockout="Off"
       fill="#51a1d0"
       d="m 32.372,59.764 -0.252,1.26 c 1.181,1.604 2.118,3.342 3.626,4.596 -1.085,-2.118 -1.891,-2.993 -3.374,-5.856"
       id="path879989"
       style="fill:#51a1d0;fill-opacity:1" />
    <path
       i:knockout="Off"
       fill="#51a1d0"
       d="m 35.164,59.654 c -0.625,-0.691 -0.995,-1.523 -1.409,-2.352 0.396,1.457 1.207,2.709 1.962,3.982 l -0.553,-1.63"
       id="path879991"
       style="fill:#51a1d0;fill-opacity:1" />
    <path
       i:knockout="Off"
       fill="#51a1d0"
       d="m 84.568,48.916 -0.264,0.662 c -0.484,3.438 -1.529,6.84 -3.131,9.994 1.77,-3.328 2.915,-6.968 3.395,-10.656"
       id="path879993"
       style="fill:#51a1d0;fill-opacity:1" />
    <path
       i:knockout="Off"
       fill="#51a1d0"
       d="M 45.527,0.537 C 46.742,0.092 48.514,0.293 49.803,0 48.123,0.141 46.451,0.225 44.8,0.438 l 0.727,0.099"
       id="path879995"
       style="fill:#51a1d0;fill-opacity:1" />
    <path
       i:knockout="Off"
       fill="#51a1d0"
       d="m 2.872,23.219 c 0.28,2.592 -1.95,3.598 0.494,1.889 1.31,-2.951 -0.512,-0.815 -0.494,-1.889"
       id="path879997"
       style="fill:#51a1d0;fill-opacity:1" />
    <path
       i:knockout="Off"
       fill="#51a1d0"
       d="M 0,35.215 C 0.563,33.487 0.665,32.449 0.88,31.449 -0.676,33.438 0.164,33.862 0,35.215"
       id="path879999"
       style="fill:#51a1d0;fill-opacity:1" />
  </g>
  <g
     aria-label="debian 13"
     transform="matrix(0.26458333,0,0,0.26458333,6.9886036,-2.1166667)"
     id="text28448"
     style="font-size:80px;font-family:Poppl-Laudatio;-inkscape-font-specification:'Poppl-Laudatio, Normal';white-space:pre;shape-inside:url(#rect28450);opacity:1;fill:#51a1d0;stroke-width:7.281">
    <path
       d="m 12.978188,324.69655 q 0,-5.92 1.2,-10 1.2,-4.16 3.44,-6.72 2.24,-2.64 5.52,-3.76 3.28,-1.2 7.36,-1.2 2.32,0 3.6,0.24 1.28,0.24 2.4,0.48 0,-2.96 -0.08,-5.12 0,-2.16 -0.24,-3.76 -0.16,-1.6 -0.64,-2.64 -0.48,-1.12 -1.28,-2 2.56,-0.16 4.48,-0.4 1.92,-0.24 3.52,-0.56 1.68,-0.32 3.12,-0.72 1.52,-0.48 3.2,-1.12 -0.16,0.72 -0.24,1.44 -0.08,0.72 -0.16,1.84 -0.08,1.04 -0.16,2.8 -0.08,1.68 -0.16,4.32 0,1.84 -0.08,5.12 -0.08,3.28 -0.08,7.28 0,3.92 0,8.24 0,4.32 0,8.4 0,4 0.08,7.36 0.08,3.36 0.24,5.44 0.08,1.6 0.24,2.64 0.16,1.04 0.32,1.84 0.24,0.8 0.48,1.36 0.24,0.56 0.56,1.2 -1.36,-0.16 -2.56,-0.24 -1.12,-0.08 -2.96,-0.08 -2.96,0 -4.64,0.16 -1.68,0.08 -2.8,0.16 v -6.88 q -0.24,0.64 -0.8,1.84 -0.48,1.2 -1.6,2.4 -1.04,1.2 -2.88,2.08 -1.84,0.88 -4.64,0.88 -3.44,0 -5.84,-1.36 -2.32,-1.44 -3.84,-3.6 -1.52,-2.24 -2.4,-4.88 -0.8,-2.72 -1.2,-5.2 -0.32,-2.48 -0.4,-4.4 -0.08,-2 -0.08,-2.88 z m 23.36,-13.52 q -0.8,-0.4 -1.68,-0.64 -0.88,-0.24 -2.32,-0.24 -2.56,0 -4.08,1.12 -1.52,1.04 -2.4,2.88 -0.8,1.76 -1.12,4 -0.24,2.24 -0.24,4.48 0,0.88 0,2.56 0.08,1.68 0.48,4 0.24,1.6 0.64,3.2 0.48,1.52 1.2,2.8 0.72,1.2 1.84,2 1.12,0.72 2.72,0.72 1.36,0 2.16,-0.48 0.88,-0.48 1.36,-1.12 0.48,-0.64 0.72,-1.28 0.24,-0.64 0.32,-0.96 0.16,-0.8 0.24,-2.88 0.16,-2.16 0.16,-4.88 0.08,-2.8 0.08,-5.76 0,-3.04 0,-5.6 z"
       id="path28523" />
    <path
       d="m 65.657979,326.97655 q 0,0.96 0.08,2.24 0.08,1.2 0.4,2.56 0.4,1.36 1.04,2.72 0.72,1.28 1.92,2.4 1.04,0.96 2.24,1.52 1.28,0.48 2.4,0.72 1.2,0.24 2.16,0.32 1.04,0 1.52,0 4.16,0 6.24,-0.88 2.16,-0.96 3.28,-1.68 -0.64,2.64 -0.96,4.56 -0.24,1.92 -0.16,4.64 -2.48,0.64 -4.96,0.8 -2.4,0.24 -4.96,0.24 -3.84,0 -6.88,-0.56 -2.96,-0.56 -5.44,-1.84 -4.32,-2.24 -6.88,-7.12 -2.48,-4.88 -2.48,-13.28 0,-3.84 0.72,-7.68 0.8,-3.84 2.72,-6.88 2,-3.12 5.44,-5.04 3.52,-1.92 8.96,-1.92 4.88,0 7.92,1.6 3.12,1.52 4.8,4.24 1.68,2.64 2.24,6.24 0.64,3.52 0.64,7.44 l -0.16,4.64 z m 11.44,-6.64 q 0.08,-2 -0.08,-3.92 -0.08,-2 -0.64,-3.52 -0.56,-1.6 -1.76,-2.56 -1.12,-0.96 -3.12,-0.96 -2,0 -3.2,0.96 -1.2,0.96 -1.84,2.56 -0.64,1.52 -0.88,3.52 -0.24,1.92 -0.24,3.92 z"
       id="path28525" />
    <path
       d="m 95.417969,314.05655 q 0,-7.92 -0.24,-12.24 -0.16,-4.4 -0.56,-6.64 -0.32,-2.32 -0.96,-3.12 -0.64,-0.8 -1.44,-1.6 1.68,-0.08 3.28,-0.24 1.6,-0.16 3.36,-0.48 1.840001,-0.32 3.920001,-0.88 2.08,-0.64 4.8,-1.6 -0.32,2.72 -0.48,6.32 -0.16,3.6 -0.24,7.12 0,3.52 0,6.56 0,3.04 0,4.56 0.48,-1.2 1.2,-2.72 0.8,-1.52 2.08,-2.88 1.28,-1.44 3.2,-2.32 1.92,-0.96 4.72,-0.96 3.36,0 5.84,1.52 2.48,1.44 3.84,3.52 1.04,1.44 1.68,3.36 0.64,1.84 0.96,3.68 0.32,1.84 0.4,3.6 0.08,1.76 0.08,2.96 0,6.96 -1.44,11.84 -1.44,4.88 -4.24,8 -2.72,3.04 -6.72,4.4 -4,1.36 -9.04,1.36 -1.2,0 -2.88,-0.08 -1.6,-0.08 -3.6,-0.32 -1.92,-0.24 -4.080001,-0.64 -2.16,-0.4 -4.4,-1.12 0.72,-2.4 0.8,-5.44 0.16,-3.12 0.16,-6.08 z m 23.840001,12.16 q 0,-2.4 -0.24,-4.88 -0.24,-2.48 -0.96,-4.48 -0.64,-2.08 -1.92,-3.36 -1.28,-1.28 -3.28,-1.28 -0.4,0 -1.04,0.08 -0.56,0.08 -1.28,0.56 -0.72,0.4 -1.44,1.28 -0.64,0.88 -1.12,2.48 -0.64,2.24 -0.8,5.52 -0.08,3.28 -0.08,8.4 0,3.28 0,5.84 0,2.48 0.16,3.84 0.4,0 1.36,0.24 0.96,0.16 2.08,0.16 2.96,0 4.64,-1.44 1.76,-1.44 2.64,-3.6 0.88,-2.16 1.04,-4.64 0.24,-2.56 0.24,-4.72 z"
       id="path28527" />
    <path
       d="m 138.13796,314.69655 q -0.08,-2.64 -0.32,-4.16 -0.16,-1.6 -0.48,-2.56 -0.24,-1.04 -0.72,-1.6 -0.48,-0.64 -1.2,-1.28 3.04,-0.16 5.12,-0.32 2.08,-0.16 3.68,-0.4 1.6,-0.32 2.96,-0.8 1.44,-0.48 3.12,-1.2 -0.88,6.4 -0.88,14.48 0.08,8 0.24,18.16 0.08,2.96 0.32,6.16 0.24,3.2 1.2,5.52 -1.36,-0.16 -2.8,-0.32 -1.36,-0.16 -3.6,-0.16 -2.8,0 -4.8,0.16 -2,0.16 -3.36,0.32 0.32,-0.64 0.56,-1.12 0.24,-0.56 0.4,-1.36 0.24,-0.88 0.32,-2.16 0.08,-1.28 0.16,-3.44 0.08,-2.16 0.16,-4.96 0.08,-2.8 0.08,-5.92 0,-3.12 -0.08,-6.4 0,-3.36 -0.08,-6.64 z m 11.2,-21.2 q 0.08,3.52 -1.6,4.96 -1.6,1.44 -4.08,1.44 -2.56,0 -4.24,-1.44 -1.6,-1.44 -1.6,-4.4 0,-2.48 1.28,-4.32 1.28,-1.84 4.56,-1.84 2.8,0 4.16,1.52 1.44,1.52 1.52,4.08 z"
       id="path28529" />
    <path
       d="m 188.85795,341.09655 q 0.16,2.56 0.56,3.68 0.4,1.04 0.96,1.92 -1.36,-0.24 -2.88,-0.24 -1.52,-0.08 -3.28,-0.08 -1.6,0 -3.04,0.08 -1.44,0.08 -3.04,0.24 -0.24,-1.2 -0.32,-2.88 0,-1.68 0.08,-5.04 -0.4,1.12 -1.04,2.56 -0.64,1.36 -1.84,2.64 -1.12,1.28 -3.04,2.16 -1.84,0.88 -4.64,0.88 -3.6,0 -5.68,-1.52 -2.08,-1.52 -3.2,-3.6 -1.04,-2.16 -1.36,-4.32 -0.24,-2.24 -0.24,-3.68 0,-3.92 1.2,-6.64 1.28,-2.72 3.52,-4.4 2.24,-1.76 5.28,-2.56 3.12,-0.8 6.88,-0.8 1.36,0 2.16,0.08 0.88,0 1.68,0.16 0.08,-2 0,-3.6 0,-1.6 -0.48,-2.64 -0.48,-1.12 -1.6,-1.68 -1.04,-0.64 -2.96,-0.64 -2.96,0 -5.76,1.04 -2.72,1.04 -4.96,3.12 -0.88,-3.28 -1.6,-5.04 -0.72,-1.84 -1.68,-3.52 0.8,-0.4 2.08,-1.04 1.36,-0.72 3.28,-1.28 1.92,-0.64 4.4,-1.04 2.56,-0.48 5.84,-0.48 3.6,0 6.64,0.8 3.04,0.8 4.88,2.48 1.2,1.12 1.84,2.32 0.64,1.2 0.96,3.04 0.32,1.76 0.32,4.4 0.08,2.56 0.08,6.48 z m -13.84,-16.08 q -2.96,0 -4.96,1.52 -2,1.52 -2,5.36 0,2.56 0.96,4.48 1.04,1.84 3.36,1.84 0.24,0 0.8,-0.08 0.64,-0.08 1.28,-0.48 0.72,-0.4 1.36,-1.12 0.72,-0.72 1.12,-2.08 0.24,-0.64 0.32,-1.36 0.16,-0.8 0.24,-1.84 0.08,-1.12 0.16,-2.56 0.08,-1.44 0.08,-3.52 z"
       id="path28531" />
    <path
       d="m 208.77796,310.93655 q 0.4,-0.96 1.12,-2.32 0.8,-1.36 2.16,-2.56 1.36,-1.28 3.52,-2.16 2.24,-0.96 5.6,-0.96 4,0 6.16,1.36 2.24,1.28 3.28,3.2 1.04,1.92 1.2,4.08 0.24,2.16 0.24,3.84 v 23.92 q 0,1.84 0.08,3.04 0.16,1.2 0.32,2 0.16,0.72 0.32,1.28 0.24,0.48 0.48,1.04 -0.8,-0.08 -1.52,-0.16 -0.72,-0.08 -1.6,-0.08 -0.8,-0.08 -1.92,-0.08 -1.04,-0.08 -2.48,-0.08 -2.08,0 -3.44,0.08 -1.28,0.08 -2.8,0.32 0.16,-0.56 0.32,-1.2 0.24,-0.64 0.32,-2 0.16,-1.36 0.24,-3.68 0.08,-2.4 0.08,-6.48 v -12.72 q 0,-1.92 -0.08,-3.6 -0.08,-1.68 -0.64,-2.88 -0.48,-1.2 -1.6,-1.92 -1.04,-0.72 -2.96,-0.72 -1.84,0 -3.04,0.64 -1.12,0.64 -1.76,1.52 -0.56,0.8 -0.8,1.68 -0.24,0.8 -0.32,1.2 -0.16,0.96 -0.24,2.88 -0.08,1.84 -0.16,4.32 0,2.4 0,5.12 0,2.72 0,5.36 0,3.76 0,6 0.08,2.16 0.16,3.44 0.16,1.28 0.32,1.92 0.24,0.56 0.48,1.12 -1.44,-0.16 -2.96,-0.24 -1.52,-0.16 -3.92,-0.16 -1.6,0 -3.12,0.08 -1.52,0.08 -3.6,0.32 0.4,-0.8 0.64,-1.84 0.24,-1.12 0.4,-2.16 0.08,-0.56 0.16,-2.08 0.08,-1.52 0.08,-3.52 0.08,-2.08 0.08,-4.56 0,-2.56 0,-5.2 0,-2.64 0,-4.8 0,-2.24 -0.08,-4.16 0,-1.92 -0.08,-3.76 -0.08,-1.84 -0.24,-3.84 -0.16,-2.8 -0.96,-4.08 -0.72,-1.28 -1.44,-1.68 2.96,-0.16 5.04,-0.32 2.08,-0.24 3.6,-0.56 1.6,-0.32 2.8,-0.72 1.28,-0.48 2.56,-1.04 z"
       id="path28533" />
    <path
       d="m 273.89554,323.41655 q 0,2.16 0,4 0,1.76 0,3.52 0.08,1.76 0.08,3.68 0.08,1.84 0.16,4.08 0.08,1.92 0.16,3.2 0.16,1.28 0.32,2.16 0.24,0.88 0.48,1.52 0.24,0.56 0.48,1.12 -1.6,-0.16 -3.68,-0.24 -2,-0.16 -4.08,-0.16 -1.6,0 -3.04,0.08 -1.44,0.08 -3.28,0.32 0.24,-0.8 0.4,-1.52 0.24,-0.72 0.4,-1.76 0.16,-1.12 0.24,-2.8 0.08,-1.68 0.16,-4.48 l 0.16,-11.2 v -12 q 0,-5.28 -0.08,-8.48 -0.08,-3.2 -0.24,-3.84 -2.56,0.88 -4.88,1.84 -2.32,0.96 -4.48,2.32 l 0.16,-2.64 q 0,-1.68 -0.16,-2.8 -0.08,-1.2 -0.24,-2.08 1.36,-0.32 3.92,-0.96 2.56,-0.64 5.6,-1.6 3.12,-1.04 6.24,-2.4 3.2,-1.36 5.76,-3.04 -0.16,1.92 -0.32,3.44 -0.08,1.44 -0.16,3.68 0,2.24 -0.08,6 0,3.76 0,10.24 z"
       id="path28535" />
    <path
       d="m 295.23457,289.45655 q 2.32,0 4.32,0.24 2.08,0.24 3.92,0.88 0.88,0.32 2.24,1.12 1.44,0.72 2.8,2.24 1.36,1.44 2.32,3.68 1.04,2.24 1.04,5.6 0,2 -0.56,4.08 -0.48,2.08 -1.68,3.92 -1.2,1.76 -3.12,3.12 -1.92,1.36 -4.64,1.92 l -1.76,0.32 1.84,0.24 q 6.24,1.04 9.2,4.32 3.04,3.28 3.04,8.8 0,4.24 -1.6,7.36 -1.52,3.04 -3.6,4.88 -2.32,2.08 -6.16,3.2 -3.76,1.12 -8.64,1.12 -0.48,0 -1.76,-0.08 -1.28,0 -3.04,-0.16 -1.76,-0.16 -3.76,-0.48 -1.92,-0.32 -3.84,-0.96 0.32,-1.04 0.56,-2 0.32,-0.96 0.48,-2 0.24,-1.12 0.32,-2.4 0.16,-1.28 0.32,-3.04 2,1.6 4.4,2.24 2.48,0.64 5.04,0.64 2.48,0 4.24,-0.72 1.76,-0.72 2.88,-1.84 1.12,-1.2 1.6,-2.64 0.48,-1.52 0.48,-3.04 0,-2.64 -1.04,-4.24 -1.04,-1.68 -2.72,-2.64 -1.6,-0.96 -3.68,-1.28 -2.08,-0.32 -4.24,-0.32 -2.08,0 -3.04,0.16 -0.96,0.08 -2.08,0.24 0.08,-1.04 0.08,-2 0.08,-0.96 0.08,-2 -0.08,-1.12 -0.08,-2.08 0,-1.04 -0.08,-2.16 0.64,0.08 1.28,0.16 0.64,0 1.68,0 1.04,0 3.04,-0.08 2,-0.16 4,-0.96 2,-0.8 3.44,-2.48 1.52,-1.68 1.52,-4.8 0,-3.2 -2.16,-5.36 -2.08,-2.24 -6.56,-2.24 -3.44,0 -5.2,0.8 -1.76,0.8 -2.72,1.44 0.48,-3.68 0.56,-5.68 0.08,-2 0,-3.76 2.16,-0.48 4.64,-0.88 2.56,-0.4 6.4,-0.4 z"
       id="path28537" />
  </g>
</svg>
