<?xml version="1.0" encoding="UTF-8" standalone="no"?>
<!-- Created with Inkscape (http://www.inkscape.org/) -->

<svg
   width="2800"
   height="1200"
   viewBox="0 0 2800 1200"
   version="1.1"
   id="svg5"
   inkscape:version="1.2.2 (b0a8486541, 2022-12-01)"
   sodipodi:docname="wallpaper_detailed_21x9e.svg"
   xmlns:inkscape="http://www.inkscape.org/namespaces/inkscape"
   xmlns:sodipodi="http://sodipodi.sourceforge.net/DTD/sodipodi-0.dtd"
   xmlns="http://www.w3.org/2000/svg"
   xmlns:svg="http://www.w3.org/2000/svg"
   xmlns:i="http://ns.adobe.com/AdobeIllustrator/10.0/">
  <sodipodi:namedview
     id="namedview7"
     pagecolor="#505050"
     bordercolor="#eeeeee"
     borderopacity="1"
     inkscape:showpageshadow="0"
     inkscape:pageopacity="0"
     inkscape:pagecheckerboard="0"
     inkscape:deskcolor="#505050"
     inkscape:document-units="px"
     showgrid="false"
     inkscape:zoom="0.37863723"
     inkscape:cx="1504.0782"
     inkscape:cy="471.42749"
     inkscape:window-width="1920"
     inkscape:window-height="997"
     inkscape:window-x="0"
     inkscape:window-y="0"
     inkscape:window-maximized="1"
     inkscape:current-layer="svg5"
     showguides="true" />
  <defs
     id="defs2">
    <inkscape:path-effect
       effect="spiro"
       id="path-effect3861"
       is_visible="true"
       lpeversion="1" />
    <inkscape:path-effect
       effect="spiro"
       id="path-effect8170"
       is_visible="true"
       lpeversion="1" />
    <inkscape:path-effect
       effect="spiro"
       id="path-effect8166"
       is_visible="true"
       lpeversion="1" />
    <inkscape:path-effect
       effect="spiro"
       id="path-effect1937"
       is_visible="true"
       lpeversion="1" />
    <inkscape:path-effect
       effect="spiro"
       id="path-effect1933"
       is_visible="true"
       lpeversion="1" />
    <inkscape:path-effect
       effect="spiro"
       id="path-effect1929"
       is_visible="true"
       lpeversion="1" />
    <inkscape:path-effect
       effect="spiro"
       id="path-effect1925"
       is_visible="true"
       lpeversion="1" />
    <inkscape:path-effect
       effect="spiro"
       id="path-effect6615"
       is_visible="true"
       lpeversion="1" />
    <inkscape:path-effect
       effect="spiro"
       id="path-effect6611"
       is_visible="true"
       lpeversion="1" />
    <inkscape:path-effect
       effect="spiro"
       id="path-effect4045"
       is_visible="true"
       lpeversion="1" />
    <inkscape:path-effect
       effect="spiro"
       id="path-effect4041"
       is_visible="true"
       lpeversion="1" />
  </defs>
  <g
     inkscape:groupmode="layer"
     id="layer2"
     inkscape:label="background"
     transform="translate(880)"
     sodipodi:insensitive="true"
     style="display:inline">
    <path
       id="rect2585"
       style="display:inline;fill:#25343c;fill-opacity:1;fill-rule:evenodd;stroke-width:1.20761"
       d="M -880,0 H 1920 V 1200 H -880 Z" />
  </g>
  <g
     id="g9942"
     inkscape:label="tints"
     style="display:inline"
     transform="translate(-2490.8893,-54.326352)"
     sodipodi:insensitive="true">
    <path
       id="rect7413"
       style="fill:#27678d;fill-rule:evenodd"
       d="m 2033.2965,-22.873643 h 106.2478 V 71.48795 h -106.2478 z" />
    <path
       id="rect7413-3"
       style="fill:#435c7b;fill-rule:evenodd"
       d="m 2290.0086,-22.873643 h 106.2478 V 71.48795 h -106.2478 z" />
    <path
       d="m 2033.2925,110.50978 h 106.25 v 2e-4 94.3618 0 h -106.25 v -0.001 z"
       style="fill:#5285a3;fill-opacity:1"
       id="path8133" />
    <path
       d="m 2030.4802,243.89361 h 106.25 v 0.001 94.361 0 h -106.25 v 0 z"
       style="fill:#7da3ba;fill-opacity:1"
       id="path8135" />
    <path
       d="m 2030.4802,377.27744 h 106.25 v 0 94.361 0 h -106.25 v 0 z"
       style="fill:#a8c2d1;fill-opacity:1"
       id="path8137" />
    <path
       d="m 2030.4802,510.66027 h 106.25 v 0 94.362 0 h -106.25 v 0 z"
       style="fill:#d3e0e8;fill-opacity:1"
       id="path8139" />
    <path
       d="m 2290.0125,110.50978 h 106.24 v 2e-4 94.3618 0 h -106.24 v -0.001 z"
       style="fill:#687c95;fill-opacity:1"
       id="path7784" />
    <path
       d="m 2287.2002,243.89361 h 106.24 v 0.001 94.361 0 h -106.24 v 0 z"
       style="fill:#8e9daf;fill-opacity:1"
       id="path7786" />
    <path
       d="m 2287.2002,377.27744 h 106.24 v 0 94.361 0 h -106.24 v 0 z"
       style="fill:#b3bdca;fill-opacity:1"
       id="path7788" />
    <path
       d="m 2287.2002,510.66027 h 106.24 v 0 94.362 0 h -106.24 v 0 z"
       style="fill:#d9dee4;fill-opacity:1"
       id="path7790" />
    <path
       d="m 2161.65,-22.8736 h 106.25 v 2e-4 94.3613 0 h -106.25 v -2e-4 z"
       style="fill:#356184"
       id="path8507" />
    <path
       d="m 2161.65,110.51 h 106.25 v 0 0.002 0.001 94.359 0 0 0 h -106.25 v -0.001 -0.002 -0.001 z"
       style="fill:#5d809c;fill-opacity:1"
       id="path8853" />
    <path
       d="m 2158.84,243.894 h 106.24 v 0 l 0.01,0.002 v 0.001 94.359 0 h -0.01 v 0 h -106.24 v 0 -0.003 0 z"
       style="fill:#85a0b4;fill-opacity:1"
       id="path9203" />
    <path
       d="m 2158.84,377.277 h 106.24 v 0 l 0.01,0.003 v 0 94.358 0 h -0.01 v 0 h -106.24 v 0 -0.002 0 z"
       style="fill:#adbfcd;fill-opacity:1"
       id="path9557" />
    <path
       d="m 2158.84,510.66 h 106.24 v 0 l 0.01,0.002 v 0.001 94.359 0 h -0.01 v 0 h -106.24 v 0 -0.002 0 z"
       style="fill:#d6dfe6;fill-opacity:1"
       id="path9915" />
  </g>
  <g
     id="g30520"
     inkscape:label="shades"
     transform="rotate(-90,607.76614,1598.3038)"
     sodipodi:insensitive="true">
    <path
       id="rect9426"
       style="fill:#232729;fill-rule:evenodd;stroke-width:1.64541"
       d="m 789.92684,398.2185 h 73.80845 v 73.70225 h -73.80845 z" />
    <path
       id="rect9426-0-2-6"
       style="fill:#0c729f;fill-rule:evenodd;stroke-width:1.64541"
       d="m 1528.0323,398.21849 h 73.8084 v 73.70225 h -73.8084 z" />
    <path
       d="m 863.73729,398.21965 h 73.809 v 0 73.702 h -10e-4 -73.808 v 0 z"
       style="fill:#202e34;stroke-width:1.64541px"
       id="path83488" />
    <path
       d="m 937.54829,398.21965 h 73.80801 v 0 73.702 0 h -73.80801 v 0 z"
       style="fill:#1e3640;stroke-width:1.64541px"
       id="path83490" />
    <path
       d="m 1011.3583,398.21965 h 73.809 v 0 73.702 h -10e-4 -73.808 v 0 z"
       style="fill:#1c3d4c;stroke-width:1.64541px"
       id="path83492" />
    <path
       d="m 1085.1693,398.21965 h 73.808 v 0 73.702 h -10e-4 -73.807 v -10e-4 z"
       style="fill:#194558;stroke-width:1.64541px"
       id="path83494" />
    <path
       d="m 1158.9793,398.21965 h 73.809 v 0 73.702 h -10e-4 -73.808 v -10e-4 z"
       style="fill:#174c64;stroke-width:1.64541px"
       id="path83496" />
    <path
       d="m 1232.7903,398.21965 h 73.808 v 0 73.702 0 h -73.807 v -10e-4 z"
       style="fill:#15546f;stroke-width:1.64541px"
       id="path83498" />
    <path
       d="m 1306.6003,398.21965 h 73.809 v 0 73.702 h -10e-4 -73.808 v -10e-4 z"
       style="fill:#125b7b;stroke-width:1.64541px"
       id="path83500" />
    <path
       d="m 1380.4113,398.21965 h 73.808 v 0 73.702 h -10e-4 -73.807 v -10e-4 z"
       style="fill:#106387;stroke-width:1.64541px"
       id="path83502" />
    <path
       d="m 1454.2213,398.21965 h 73.809 v 0 73.702 h -10e-4 -73.808 v -10e-4 z"
       style="fill:#0e6a93;stroke-width:1.64541px"
       id="path83504" />
    <path
       id="rect9426-7"
       style="fill:#332c2c;fill-opacity:1;fill-rule:evenodd;stroke-width:1.64541"
       d="m 789.92735,840.44475 h 73.80844 v 73.70223 h -73.80844 z" />
    <path
       id="rect9426-0-2-6-1"
       style="fill:#b23133;fill-opacity:1;fill-rule:evenodd;stroke-width:1.64541"
       d="m 1528.0318,840.44474 h 73.8084 V 914.147 h -73.8084 z" />
    <path
       d="m 863.73779,840.44366 h 73.808 v 0 73.702 0 h -73.808 v 0 z"
       style="fill:#3f2c2c;fill-opacity:1;stroke-width:1.64541px"
       id="path85717" />
    <path
       d="m 937.54779,840.44366 h 73.80901 v 0 73.702 h -10e-4 -73.80801 v 0 z"
       style="fill:#4c2d2d;fill-opacity:1;stroke-width:1.64541px"
       id="path85719" />
    <path
       d="m 1011.3588,840.44366 h 73.808 v 0 73.702 h -10e-4 -73.807 v 0 z"
       style="fill:#592d2e;fill-opacity:1;stroke-width:1.64541px"
       id="path85721" />
    <path
       d="m 1085.1688,840.44366 h 73.809 v 0 73.702 h -10e-4 -73.808 v 0 z"
       style="fill:#652e2e;fill-opacity:1;stroke-width:1.64541px"
       id="path85723" />
    <path
       d="m 1158.9798,840.44366 h 73.808 v 0 73.702 h -10e-4 -73.807 v 0 z"
       style="fill:#722e2f;fill-opacity:1;stroke-width:1.64541px"
       id="path85725" />
    <path
       d="m 1232.7898,840.44366 h 73.808 v 9.9e-4 73.70101 0 h -73.808 v 0 z"
       style="fill:#7f2f30;fill-opacity:1;stroke-width:1.64541px"
       id="path85727" />
    <path
       d="m 1306.5998,840.44366 h 73.809 v 9.9e-4 73.70101 h -10e-4 -73.808 v 0 z"
       style="fill:#8b2f30;fill-opacity:1;stroke-width:1.64541px"
       id="path85729" />
    <path
       d="m 1380.4108,840.44366 h 73.808 v 9.9e-4 73.70101 0 h -73.807 v 0 z"
       style="fill:#983031;fill-opacity:1;stroke-width:1.64541px"
       id="path85731" />
    <path
       d="m 1454.2208,840.44366 h 73.809 v 9.9e-4 73.70101 h -10e-4 -73.808 v -10e-4 z"
       style="fill:#a53032;fill-opacity:1;stroke-width:1.64541px"
       id="path85733" />
    <path
       d="m 789.92479,471.92275 h 73.8081 v 10e-4 73.701 h -10e-4 -73.8071 v 0 z"
       style="fill:#252729;fill-opacity:1;stroke-width:1.64541px"
       id="path86439" />
    <path
       d="m 789.92479,545.62675 h 73.8081 v 10e-4 73.702 0 h -73.8081 v -10e-4 z"
       style="fill:#28282a;fill-opacity:1;stroke-width:1.64541px"
       id="path86441" />
    <path
       d="m 789.92489,619.33176 h 73.808 v 0 73.702 0 h -73.808 v -10e-4 z"
       style="fill:#2b292a;fill-opacity:1;stroke-width:1.64541px"
       id="path86443" />
    <path
       d="m 789.92499,693.03575 h 73.8089 v 0 73.702 h -10e-4 -73.8079 v 0 z"
       style="fill:#2d2a2b;fill-opacity:1;stroke-width:1.64541px"
       id="path86445" />
    <path
       d="m 789.92509,766.73975 h 73.8088 v 0 73.703 h -10e-4 -73.8078 v -0.001 z"
       style="fill:#302b2b;fill-opacity:1;stroke-width:1.64541px"
       id="path86447" />
    <path
       d="m 863.73589,471.92365 h 73.809 v 0 0 0 73.70201 h -10e-4 v 0 0 h -73.808 v 0 0 0 z"
       style="fill:#252d32;fill-opacity:1;stroke-width:1.64541px"
       id="path86732" />
    <path
       d="m 863.73589,545.62765 h 73.809 v 0 10e-4 0 73.701 h -10e-4 v 0 0 h -73.808 v 0 0 0 z"
       style="fill:#2a2d31;fill-opacity:1;stroke-width:1.64541px"
       id="path86734" />
    <path
       d="m 863.73589,619.33165 h 73.809 v 0 0 0 73.702 h -10e-4 v 0 0 h -73.808 v 0 -10e-4 0 z"
       style="fill:#2f2d30;fill-opacity:1;stroke-width:1.64541px"
       id="path86736" />
    <path
       d="m 863.73689,693.03566 h 73.808 v 0 9.9e-4 0 73.70101 0 0 h -10e-4 -73.807 v 0 0 -10e-4 z"
       style="fill:#342c2e;fill-opacity:1;stroke-width:1.64541px"
       id="path86738" />
    <path
       d="m 863.73689,766.73965 h 73.808 v 0 10e-4 0.001 73.7 0 0 h -10e-4 -73.807 v 0 0 -10e-4 z"
       style="fill:#392c2d;fill-opacity:1;stroke-width:1.64541px"
       id="path86740" />
    <path
       d="m 937.54689,471.92365 h 73.80801 v 0 10e-4 0 73.701 0 0 0 h -73.80701 v 0 -10e-4 0 z"
       style="fill:#25343c;fill-opacity:1;stroke-width:1.64541px"
       id="path87037" />
    <path
       d="m 937.54689,545.62765 h 73.80801 v 0 10e-4 0 73.701 0 0 0 h -73.80701 v 0 0 0 z"
       style="fill:#2d3339;fill-opacity:1;stroke-width:1.64541px"
       id="path87039" />
    <path
       d="m 937.54689,619.33165 h 73.80801 v 0 0 0 73.702 0 0 0 h -73.80701 v 0 -10e-4 0 z"
       style="fill:#353136;fill-opacity:1;stroke-width:1.64541px"
       id="path87041" />
    <path
       d="m 937.54689,693.03566 h 73.80901 v 0 0 9.9e-4 73.70101 h -10e-4 v 0 0 h -73.80701 v 0 0 0 z"
       style="fill:#3c3033;fill-opacity:1;stroke-width:1.64541px"
       id="path87043" />
    <path
       d="m 937.54689,766.73965 h 73.80901 v 0 10e-4 0 73.701 h -10e-4 v 0 0 h -73.80701 v 0 0 0 z"
       style="fill:#442e30;fill-opacity:1;stroke-width:1.64541px"
       id="path87045" />
    <path
       d="m 1011.3579,471.92365 h 73.809 v 0 0 0 73.70201 h -10e-4 v 0 h -10e-4 -73.807 v 0 0 0 z"
       style="fill:#263a47;fill-opacity:1;stroke-width:1.64541px"
       id="path87359" />
    <path
       d="m 1011.3579,545.62765 h 73.809 v 0 10e-4 0 73.701 h -10e-4 v 0 h -10e-4 -73.807 v 0 0 0 z"
       style="fill:#303742;fill-opacity:1;stroke-width:1.64541px"
       id="path87361" />
    <path
       d="m 1011.3579,619.33165 h 73.809 v 0 0 0 73.702 h -10e-4 v 0 0 h -73.808 v 0 -10e-4 0 z"
       style="fill:#3a353d;fill-opacity:1;stroke-width:1.64541px"
       id="path87363" />
    <path
       d="m 1011.3589,693.03566 h 73.808 v 0 9.9e-4 0 73.70101 h -10e-4 v 0 0 h -73.807 v 0 0 -10e-4 z"
       style="fill:#443238;fill-opacity:1;stroke-width:1.64541px"
       id="path87365" />
    <path
       d="m 1011.3589,766.73965 h 73.808 v 0 10e-4 0.001 73.7 h -10e-4 v 0 0 h -73.807 v 0 0 -10e-4 z"
       style="fill:#4e2f33;fill-opacity:1;stroke-width:1.64541px"
       id="path87367" />
    <path
       d="m 1085.1689,471.92365 h 73.808 v 0 10e-4 0 73.701 h -10e-4 v 0 0 h -73.807 v -10e-4 0 0 z"
       style="fill:#254151;fill-opacity:1;stroke-width:1.64541px"
       id="path87688" />
    <path
       d="m 1085.1689,545.62765 h 73.808 v 0 10e-4 0 73.701 0 h -10e-4 v 0 h -73.807 v 0 0 -9.9e-4 z"
       style="fill:#323d4a;fill-opacity:1;stroke-width:1.64541px"
       id="path87690" />
    <path
       d="m 1085.1689,619.33165 h 73.808 v 0 0 0 73.702 0 h -10e-4 v 0 h -73.807 v -10e-4 0 0 z"
       style="fill:#3f3943;fill-opacity:1;stroke-width:1.64541px"
       id="path87692" />
    <path
       d="m 1085.1689,693.03566 h 73.809 v 0 0 9.9e-4 73.70101 0 0 0 h -73.807 v 0 0 -10e-4 z"
       style="fill:#4b353c;fill-opacity:1;stroke-width:1.64541px"
       id="path87694" />
    <path
       d="m 1085.1689,766.73965 h 73.809 v 0 10e-4 0 73.701 0 0 0 h -73.807 v 0 0 0 z"
       style="fill:#583135;fill-opacity:1;stroke-width:1.64541px"
       id="path87696" />
    <path
       d="m 1158.9799,471.92365 h 73.809 v 0 0 0 73.70201 h -10e-4 v 0 h -10e-4 -73.807 v 0 0 -0.001 z"
       style="fill:#26475b;fill-opacity:1;stroke-width:1.64541px"
       id="path88029" />
    <path
       d="m 1158.9799,545.62765 h 73.809 v 0 10e-4 0 73.701 h -10e-4 v 0 h -10e-4 -73.807 v 0 0 -9.9e-4 z"
       style="fill:#354252;fill-opacity:1;stroke-width:1.64541px"
       id="path88031" />
    <path
       d="m 1158.9799,619.33165 h 73.809 v 0 0 0 73.702 h -10e-4 v 0 0 h -73.808 v 0 -10e-4 -10e-4 z"
       style="fill:#443d49;fill-opacity:1;stroke-width:1.64541px"
       id="path88033" />
    <path
       d="m 1158.9809,693.03566 h 73.808 v 0 9.9e-4 0 73.70101 h -10e-4 v 0 0 h -73.807 v 0 0 -0.002 z"
       style="fill:#533840;fill-opacity:1;stroke-width:1.64541px"
       id="path88035" />
    <path
       d="m 1158.9809,766.73965 h 73.808 v 0 10e-4 0.001 73.7 h -10e-4 v 0 0 h -73.807 v 0 0 -10e-4 z"
       style="fill:#623337;fill-opacity:1;stroke-width:1.64541px"
       id="path88037" />
    <path
       d="m 1232.7909,471.92365 h 73.808 v 0 10e-4 0.001 73.7 h -10e-4 v 0 0 h -73.807 v 0 0 -10e-4 z"
       style="fill:#264d64;fill-opacity:1;stroke-width:1.64541px"
       id="path88382" />
    <path
       d="m 1232.7909,545.62765 h 73.808 v 10e-4 0 10e-4 73.7 h -10e-4 v 0 0 h -73.807 v 0 0 -9.9e-4 z"
       style="fill:#38475a;fill-opacity:1;stroke-width:1.64541px"
       id="path88384" />
    <path
       d="m 1232.7909,619.33165 h 73.808 v 0 10e-4 0 73.701 h -10e-4 v 0 0 h -73.807 v 0 -10e-4 -10e-4 z"
       style="fill:#4a414f;fill-opacity:1;stroke-width:1.64541px"
       id="path88386" />
    <path
       d="m 1232.7909,693.03566 h 73.808 v 9.9e-4 0 0 73.70101 0 h -10e-4 -10e-4 -73.806 v 0 0 -0.002 z"
       style="fill:#5b3b45;fill-opacity:1;stroke-width:1.64541px"
       id="path88388" />
    <path
       d="m 1232.7909,766.73965 h 73.808 v 10e-4 0 0.001 73.7 0 h -10e-4 -10e-4 -73.806 v 0 0 -10e-4 z"
       style="fill:#6d353a;fill-opacity:1;stroke-width:1.64541px"
       id="path88390" />
    <path
       d="m 1306.6009,471.92365 h 73.809 v 0 10e-4 0.001 73.7 0 0 0 h -73.807 v -10e-4 0 0 z"
       style="fill:#26536e;fill-opacity:1;stroke-width:1.64541px"
       id="path88747" />
    <path
       d="m 1306.6009,545.62765 h 73.809 v 10e-4 0 10e-4 73.7 0 0 0 h -73.807 v 0 -9.9e-4 0 z"
       style="fill:#3a4c62;fill-opacity:1;stroke-width:1.64541px"
       id="path88749" />
    <path
       d="m 1306.6009,619.33165 h 73.809 v 0 10e-4 0 73.701 0 0 0 h -73.807 v -10e-4 0 -10e-4 z"
       style="fill:#4e4555;fill-opacity:1;stroke-width:1.64541px"
       id="path88751" />
    <path
       d="m 1306.6009,693.03566 h 73.809 v 9.9e-4 0 0 73.70101 0 0 0 h -73.807 v 0 -10e-4 -10e-4 z"
       style="fill:#623d49;fill-opacity:1;stroke-width:1.64541px"
       id="path88753" />
    <path
       d="m 1306.6009,766.73965 h 73.809 v 10e-4 0 0.001 73.7 0 0 0 h -73.807 v 0 0 -10e-4 z"
       style="fill:#76363c;fill-opacity:1;stroke-width:1.64541px"
       id="path88755" />
    <path
       d="m 1380.4119,471.92365 h 73.808 v 0 10e-4 0.001 73.7 h -10e-4 v 0 h -10e-4 -73.806 v -10e-4 0 0 z"
       style="fill:#265a78;fill-opacity:1;stroke-width:1.64541px"
       id="path89124" />
    <path
       d="m 1380.4119,545.62765 h 73.808 v 10e-4 0 10e-4 73.7 h -10e-4 v 0 h -10e-4 -73.806 v 0 -9.9e-4 0 z"
       style="fill:#3d526a;fill-opacity:1;stroke-width:1.64541px"
       id="path89126" />
    <path
       d="m 1380.4119,619.33165 h 73.808 v 0 10e-4 0 73.701 h -10e-4 v 0 h -10e-4 -73.806 v -10e-4 0 -10e-4 z"
       style="fill:#54495c;fill-opacity:1;stroke-width:1.64541px"
       id="path89128" />
    <path
       d="m 1380.4119,693.03566 h 73.808 v 9.9e-4 0 0 73.70101 h -10e-4 v 0 h -10e-4 -73.806 v 0 -10e-4 -10e-4 z"
       style="fill:#6a414d;fill-opacity:1;stroke-width:1.64541px"
       id="path89130" />
    <path
       d="m 1380.4119,766.73965 h 73.808 v 10e-4 0 0.001 73.7 h -10e-4 v 0 h -10e-4 -73.806 v 0 0 -10e-4 z"
       style="fill:#81383f;fill-opacity:1;stroke-width:1.64541px"
       id="path89132" />
    <path
       d="m 1454.2219,471.92365 h 73.809 v 0 10e-4 0.001 73.7 h -10e-4 v 0 h -10e-4 -73.807 v -10e-4 0 -10e-4 z"
       style="fill:#276082;fill-opacity:1;stroke-width:1.64541px"
       id="path89513" />
    <path
       d="m 1454.2219,545.62765 h 73.809 v 10e-4 0 10e-4 73.7 h -10e-4 v 0 h -10e-4 -73.807 v -9.9e-4 0 0 z"
       style="fill:#405672;fill-opacity:1;stroke-width:1.64541px"
       id="path89515" />
    <path
       d="m 1454.2219,619.33165 h 73.809 v 0 10e-4 0 73.701 h -10e-4 v 0 h -10e-4 -73.807 v -10e-4 0 -10e-4 z"
       style="fill:#594d62;fill-opacity:1;stroke-width:1.64541px"
       id="path89517" />
    <path
       d="m 1454.2219,693.03566 h 73.809 v 9.9e-4 0 0 73.70101 h -10e-4 v 0 h -10e-4 -73.807 v -10e-4 0 -10e-4 z"
       style="fill:#724352;fill-opacity:1;stroke-width:1.64541px"
       id="path89519" />
    <path
       d="m 1454.2219,766.73965 h 73.809 v 10e-4 0 0.001 73.7 h -10e-4 v 0 h -10e-4 -73.807 v -10e-4 0 0 z"
       style="fill:#8b3942;fill-opacity:1;stroke-width:1.64541px"
       id="path89521" />
    <path
       d="m 1528.0329,471.92274 h 73.809 v 0 73.70199 h -10e-4 -73.808 v 0 z"
       style="fill:#27678d;fill-opacity:1;stroke-width:1.64541px"
       id="path89914" />
    <path
       d="m 1528.0329,545.62673 h 73.809 v 0.001 73.70201 h -10e-4 -73.808 v -10e-4 z"
       style="fill:#435c7b;fill-opacity:1;stroke-width:1.64541px"
       id="path89916" />
    <path
       d="m 1528.0329,619.33176 h 73.808 v 0 73.702 0 h -73.808 v -10e-4 z"
       style="fill:#5f5169;fill-opacity:1;stroke-width:1.64541px"
       id="path89918" />
    <path
       d="m 1528.0329,693.03575 h 73.808 v 9.9e-4 73.70101 h -10e-4 -73.807 v 0 z"
       style="fill:#7a4657;fill-opacity:1;stroke-width:1.64541px"
       id="path89920" />
    <path
       d="m 1528.0329,766.73974 h 73.808 v 10e-4 73.702 h -10e-4 -73.807 v -10e-4 z"
       style="fill:#963b45;fill-opacity:1;stroke-width:1.64541px"
       id="path89922" />
  </g>
  <g
     id="g1423"
     style="display:inline"
     inkscape:label="backup_curves">
    <path
       id="path2729"
       style="display:inline;opacity:0.638524;fill:#263a47;fill-opacity:1;stroke-width:1.02984"
       inkscape:label="curve6b"
       d="m 1344.7773,0 c -47.4502,8.5913683 -96.8463,21.267343 -132.4765,45.683594 -41.0822,28.152218 -99.9533,80.170956 -133.5508,134.638676 -34.9958,56.73456 -87.09197,112.07143 -155.08203,170.69726 -68.81296,59.3355 -156.20478,79.99769 -246.6543,100.93945 -65.89116,15.25582 -59.28371,39.04448 -136.87695,88.40625 C 448.9086,598.40097 381.59482,685.62764 333.6582,750.82031 283.194,819.45029 147.94505,873.5747 68.382812,902.06445 45.573234,910.23213 22.702426,919.6212 0,929.70312 V 1200 c 933.56772,0.2099 1866.6303,-0.2207 2800,-0.2207 V 0 Z"
       sodipodi:nodetypes="csssssssccccc" />
    <path
       id="path1413"
       style="display:inline;opacity:0.579628;fill:#254151;fill-opacity:1;stroke-width:7.281"
       inkscape:label="curve5b"
       d="m 0,0 c -0.0014251,401.68086 0.003297,809.17799 0,1200 933.48792,-7.1374 1858.0511,0.9568 2800,-2.8848 l -2.291,-438.89059 c -59.227,-28.86368 -114.3468,-66.10529 -163.1875,-110.32617 -48.3792,-43.80273 -91.6862,-95.14286 -149.6016,-125.22656 -46.9249,-24.37491 -100.2484,-33.02952 -152.7109,-39.64454 -53.1231,-6.69824 -107.5537,-11.94466 -156.2656,-34.17187 -42.7373,-19.50093 -78.6428,-50.99223 -114.4278,-81.42578 -36.073,-30.67875 -73.2303,-61.06104 -116.2636,-80.82422 -65.9879,-30.30499 -140.7692,-33.50738 -213.3594,-35.35742 -57.6775,-1.46996 -116.0103,-2.48912 -171.8301,-17.08203 -48.7852,-12.75381 -86.4225,-57.46819 -132.4219,-78.125 -49.5988,-22.27328 -108.8905,-20.50316 -177.3066,-24.52344 -68.4162,-4.02029 -130.3449,8.06824 -185.0527,-11.86358 C 1009.0551,99.168945 954.49663,68.482657 879.75586,42.013672 836.5572,26.71513 781.34732,11.791559 733.28531,0 479.39637,0.0580244 250.91323,0 0,0 Z"
       sodipodi:nodetypes="ccccsssssssssssscc" />
    <path
       id="path1411"
       style="display:inline;opacity:0.702128;fill:#26475b;fill-opacity:1;stroke-width:1.00918"
       inkscape:label="curve4b"
       d="M 2123.4863,0.40820312 C 2064.875,40.167933 2009.4975,80.497666 1946.0137,104.7793 c -45.8488,17.53641 -86.499,29.48642 -188.2305,55.33789 -99.8925,25.38413 -141.274,39.93888 -187.543,65.96289 -102.7428,57.78805 -164.0734,104.26418 -219.2343,173.79687 -55.1609,69.5327 -73.82,91.35588 -132.7813,141.5918 -58.9612,50.2359 -203.1061,110.01481 -307.19335,128.60352 -16.13304,2.88117 -93.55965,5.79194 -168.18555,34.69531 -93.66498,36.27741 -140.34728,89.59588 -206.35156,155.49023 -74.64789,74.52359 -89.05633,145.57419 -166.80664,217.73629 -64.47719,59.8431 -108.61683,93.6926 -164.22266,120.9473 850.74506,0.1234 1725.07986,3.2111 2594.53516,0 V 0.40820312 Z"
       sodipodi:nodetypes="cssssssssscccc" />
    <path
       id="path2287-7"
       style="display:inline;opacity:0.577191;fill:#264d64;stroke:none;stroke-width:7.2581;-inkscape-stroke:none;stop-color:#000000"
       inkscape:label="curve3b"
       d="M 75.929688,148.7168 C 51.072116,149.37785 25.757407,152.634 0,158.625 V 1199.8555 C 710.37309,1199.9982 1639.2949,1200 2257.3496,1200 2179.2791,1147.6831 2007.573,1075.741 1947.8652,988.75977 1896.6649,914.17219 1874.9964,870.11168 1817.1016,805.54102 1755.6639,737.01887 1676.8141,686.16417 1588.0352,666.40234 1488.4523,644.23561 1419.5872,638.26747 1328.2754,588.16602 1266.4872,554.26373 1107.3533,457.71424 1046.5625,432.67188 944.36045,390.57045 754.97095,396.14714 604.81836,348.39648 498.87911,314.7063 430.12371,264.09992 333.6543,216.59766 252.27327,176.52503 166.99267,146.29511 75.929688,148.7168 Z"
       sodipodi:nodetypes="scccssssssss" />
    <path
       id="path1415"
       style="display:inline;opacity:0.614067;fill:#26536e;fill-opacity:1;stroke-width:7.52837"
       inkscape:label="curve2b"
       d="m 2636.209,269.55078 c -71.1691,-0.56839 -138.5467,11.62101 -201.4766,34.98828 -115.4415,42.86606 -213.5776,120.90622 -328.8379,164.21289 -84.8298,31.87303 -176.1417,43.90505 -266.1718,57.68164 -92.8588,14.20948 -188.6883,31.81551 -265.4512,83.60547 -45.2668,30.54028 -81.5486,71.50669 -115.5918,113.23633 -34.0433,41.72964 -66.5869,84.91947 -106.3887,121.73047 -74.2049,68.62923 -169.7534,111.69829 -254.041,168.77934 C 1022.3926,1065.1572 954.11145,1128.331 899.29102,1200 H 2800 V 290.41211 c -44.0932,-12.21428 -92.6219,-20.29294 -163.791,-20.86133 z"
       sodipodi:nodetypes="sssssssscccs" />
    <path
       id="rect2359"
       style="display:inline;opacity:0.535113;fill:#265a78;fill-opacity:1;fill-rule:evenodd;stroke-width:0.726438"
       inkscape:label="curve1b"
       d="M 0,525.13128 V 1200 h 1207.8828 c -50.9044,-17.0215 -94.5959,-40.1046 -128.1855,-65.6536 -55.4901,-42.2068 -73.0842,-132.0985 -154.96292,-194.27349 C 849.11608,882.65182 727.3632,876.3911 647.18159,837.21822 572.10516,800.53953 529.58261,729.42546 447.44384,682.33606 367.8699,636.71705 249.51188,655.71728 162.11914,615.12227 103.13522,587.72351 61.639649,541.24504 0,525.13128 Z"
       sodipodi:nodetypes="cccsssssc" />
    <path
       id="path1419"
       style="display:inline;opacity:0.533103;fill:#276082;fill-opacity:1;stroke:none;stroke-width:7.21856"
       inkscape:label="curve0b"
       d="m 2800,483.01953 c -29.3976,26.2441 -61.9418,46.10139 -95.6076,66.35352 -45.8788,27.59897 -95.1579,49.21966 -146.0746,65.25 -37.7099,11.87238 -76.3047,20.69471 -113.9098,32.90625 -37.605,12.21152 -74.5932,28.05938 -105.9599,52.4414 -34.3745,26.72021 -60.6433,62.57138 -85.8763,98.32032 -25.2328,35.74892 -50.255,72.2901 -82.9121,101.15429 -54.4109,48.09177 -124.8707,72.07542 -188.1169,107.24419 -51.4296,28.5979 -166.6724,119.3434 -183.5071,193.2968 330.715,-2.4419 697.0707,0.2189 1001.9643,0 z" />
  </g>
  <g
     id="layer6"
     style="display:inline"
     transform="matrix(0.85081006,0,0,0.85081006,934.6138,138.89131)"
     inkscape:label="swirl"
     sodipodi:insensitive="true">
    <g
       id="g880001"
       style="display:inline;fill:#85a0b4;fill-opacity:1"
       transform="matrix(0.98475674,0,0,0.98475674,1229.1579,591.67491)">
      <path
         i:knockout="Off"
         fill="#85a0b4"
         d="m 51.986,57.297 c -1.797,0.025 0.34,0.926 2.686,1.287 0.648,-0.506 1.236,-1.018 1.76,-1.516 -1.461,0.358 -2.948,0.366 -4.446,0.229"
         id="path879977"
         style="fill:#85a0b4;fill-opacity:1" />
      <path
         i:knockout="Off"
         fill="#85a0b4"
         d="m 61.631,54.893 c 1.07,-1.477 1.85,-3.094 2.125,-4.766 -0.24,1.192 -0.887,2.221 -1.496,3.307 -3.359,2.115 -0.316,-1.256 -0.002,-2.537 -3.612,4.546 -0.496,2.726 -0.627,3.996"
         id="path879979"
         style="fill:#85a0b4;fill-opacity:1" />
      <path
         i:knockout="Off"
         fill="#85a0b4"
         d="m 65.191,45.629 c 0.217,-3.236 -0.637,-2.213 -0.924,-0.978 0.335,0.174 0.6,2.281 0.924,0.978"
         id="path879981"
         style="fill:#85a0b4;fill-opacity:1" />
      <path
         i:knockout="Off"
         fill="#85a0b4"
         d="m 45.172,1.399 c 0.959,0.172 2.072,0.304 1.916,0.533 1.049,-0.23 1.287,-0.442 -1.916,-0.533"
         id="path879983"
         style="fill:#85a0b4;fill-opacity:1" />
      <path
         i:knockout="Off"
         fill="#85a0b4"
         d="M 47.088,1.932 46.41,2.072 47.041,2.016 47.088,1.932"
         id="path879985"
         style="fill:#85a0b4;fill-opacity:1" />
      <path
         i:knockout="Off"
         fill="#85a0b4"
         d="m 76.992,46.856 c 0.107,2.906 -0.85,4.316 -1.713,6.812 l -1.553,0.776 c -1.271,2.468 0.123,1.567 -0.787,3.53 -1.984,1.764 -6.021,5.52 -7.313,5.863 -0.943,-0.021 0.639,-1.113 0.846,-1.541 -2.656,1.824 -2.131,2.738 -6.193,3.846 L 60.16,65.878 C 50.142,70.591 36.226,61.251 36.409,48.507 c -0.107,0.809 -0.304,0.607 -0.526,0.934 -0.517,-6.557 3.028,-13.143 9.007,-15.832 5.848,-2.895 12.704,-1.707 16.893,2.197 -2.301,-3.014 -6.881,-6.209 -12.309,-5.91 -5.317,0.084 -10.291,3.463 -11.951,7.131 -2.724,1.715 -3.04,6.611 -4.227,7.507 -1.597,11.737 3.004,16.808 10.787,22.773 1.225,0.826 0.345,0.951 0.511,1.58 -2.586,-1.211 -4.954,-3.039 -6.901,-5.277 1.033,1.512 2.148,2.982 3.589,4.137 -2.438,-0.826 -5.695,-5.908 -6.646,-6.115 4.203,7.525 17.052,13.197 23.78,10.383 -3.113,0.115 -7.068,0.064 -10.566,-1.229 -1.469,-0.756 -3.467,-2.322 -3.11,-2.615 9.182,3.43 18.667,2.598 26.612,-3.771 2.021,-1.574 4.229,-4.252 4.867,-4.289 -0.961,1.445 0.164,0.695 -0.574,1.971 2.014,-3.248 -0.875,-1.322 2.082,-5.609 l 1.092,1.504 c -0.406,-2.696 3.348,-5.97 2.967,-10.234 0.861,-1.304 0.961,1.403 0.047,4.403 1.268,-3.328 0.334,-3.863 0.66,-6.609 0.352,0.923 0.814,1.904 1.051,2.878 -0.826,-3.216 0.848,-5.416 1.262,-7.285 -0.408,-0.181 -1.275,1.422 -1.473,-2.377 0.029,-1.65 0.459,-0.865 0.625,-1.271 -0.324,-0.186 -1.174,-1.451 -1.691,-3.877 0.375,-0.57 1.002,1.478 1.512,1.562 -0.328,-1.929 -0.893,-3.4 -0.916,-4.88 -1.49,-3.114 -0.527,0.415 -1.736,-1.337 -1.586,-4.947 1.316,-1.148 1.512,-3.396 2.404,3.483 3.775,8.881 4.404,11.117 -0.48,-2.726 -1.256,-5.367 -2.203,-7.922 0.73,0.307 -1.176,-5.609 0.949,-1.691 C 83.519,18.706 76.074,10.902 69.225,7.24 70.063,8.007 71.121,8.97 70.741,9.121 67.335,7.093 67.934,6.935 67.446,6.078 64.671,4.949 64.489,6.169 62.651,6.08 57.421,3.306 56.413,3.601 51.6,1.863 l 0.219,1.023 c -3.465,-1.154 -4.037,0.438 -7.782,0.004 -0.228,-0.178 1.2,-0.644 2.375,-0.815 -3.35,0.442 -3.193,-0.66 -6.471,0.122 0.808,-0.567 1.662,-0.942 2.524,-1.424 -2.732,0.166 -6.522,1.59 -5.352,0.295 -4.456,1.988 -12.37,4.779 -16.811,8.943 l -0.14,-0.933 c -2.035,2.443 -8.874,7.296 -9.419,10.46 l -0.544,0.127 c -1.059,1.793 -1.744,3.825 -2.584,5.67 -1.385,2.36 -2.03,0.908 -1.833,1.278 -2.724,5.523 -4.077,10.164 -5.246,13.97 0.833,1.245 0.02,7.495 0.335,12.497 -1.368,24.704 17.338,48.69 37.785,54.228 2.997,1.072 7.454,1.031 11.245,1.141 -4.473,-1.279 -5.051,-0.678 -9.408,-2.197 -3.143,-1.48 -3.832,-3.17 -6.058,-5.102 l 0.881,1.557 c -4.366,-1.545 -2.539,-1.912 -6.091,-3.037 l 0.941,-1.229 C 28.751,98.334 26.418,96.056 25.78,94.795 l -1.548,0.061 c -1.86,-2.295 -2.851,-3.949 -2.779,-5.23 l -0.5,0.891 c -0.567,-0.973 -6.843,-8.607 -3.587,-6.83 -0.605,-0.553 -1.409,-0.9 -2.281,-2.484 l 0.663,-0.758 c -1.567,-2.016 -2.884,-4.6 -2.784,-5.461 0.836,1.129 1.416,1.34 1.99,1.533 -3.957,-9.818 -4.179,-0.541 -7.176,-9.994 L 8.412,66.472 C 7.926,65.74 7.631,64.945 7.24,64.165 l 0.276,-2.75 C 4.667,58.121 6.719,47.409 7.13,41.534 7.415,39.145 9.508,36.602 11.1,32.614 l -0.97,-0.167 c 1.854,-3.234 10.586,-12.988 14.63,-12.486 1.959,-2.461 -0.389,-0.009 -0.772,-0.629 4.303,-4.453 5.656,-3.146 8.56,-3.947 3.132,-1.859 -2.688,0.725 -1.203,-0.709 5.414,-1.383 3.837,-3.144 10.9,-3.846 0.745,0.424 -1.729,0.655 -2.35,1.205 4.511,-2.207 14.275,-1.705 20.617,1.225 7.359,3.439 15.627,13.605 15.953,23.17 l 0.371,0.1 c -0.188,3.802 0.582,8.199 -0.752,12.238 l 0.908,-1.912"
         id="path879987"
         style="fill:#85a0b4;fill-opacity:1" />
      <path
         i:knockout="Off"
         fill="#85a0b4"
         d="m 32.372,59.764 -0.252,1.26 c 1.181,1.604 2.118,3.342 3.626,4.596 -1.085,-2.118 -1.891,-2.993 -3.374,-5.856"
         id="path879989"
         style="fill:#85a0b4;fill-opacity:1" />
      <path
         i:knockout="Off"
         fill="#85a0b4"
         d="m 35.164,59.654 c -0.625,-0.691 -0.995,-1.523 -1.409,-2.352 0.396,1.457 1.207,2.709 1.962,3.982 l -0.553,-1.63"
         id="path879991"
         style="fill:#85a0b4;fill-opacity:1" />
      <path
         i:knockout="Off"
         fill="#85a0b4"
         d="m 84.568,48.916 -0.264,0.662 c -0.484,3.438 -1.529,6.84 -3.131,9.994 1.77,-3.328 2.915,-6.968 3.395,-10.656"
         id="path879993"
         style="fill:#85a0b4;fill-opacity:1" />
      <path
         i:knockout="Off"
         fill="#85a0b4"
         d="M 45.527,0.537 C 46.742,0.092 48.514,0.293 49.803,0 48.123,0.141 46.451,0.225 44.8,0.438 l 0.727,0.099"
         id="path879995"
         style="fill:#85a0b4;fill-opacity:1" />
      <path
         i:knockout="Off"
         fill="#85a0b4"
         d="m 2.872,23.219 c 0.28,2.592 -1.95,3.598 0.494,1.889 1.31,-2.951 -0.512,-0.815 -0.494,-1.889"
         id="path879997"
         style="fill:#85a0b4;fill-opacity:1" />
      <path
         i:knockout="Off"
         fill="#85a0b4"
         d="M 0,35.215 C 0.563,33.487 0.665,32.449 0.88,31.449 -0.676,33.438 0.164,33.862 0,35.215"
         id="path879999"
         style="fill:#85a0b4;fill-opacity:1" />
    </g>
  </g>
</svg>
