<?xml version="1.0" encoding="UTF-8" standalone="no"?>
<!-- Created with Inkscape (http://www.inkscape.org/) -->

<svg
   width="2800"
   height="1200"
   viewBox="0 0 2800 1200"
   version="1.1"
   id="svg5"
   inkscape:version="1.2.2 (b0a8486541, 2022-12-01)"
   sodipodi:docname="wallpaper_detailed_21x9f.svg"
   xmlns:inkscape="http://www.inkscape.org/namespaces/inkscape"
   xmlns:sodipodi="http://sodipodi.sourceforge.net/DTD/sodipodi-0.dtd"
   xmlns:xlink="http://www.w3.org/1999/xlink"
   xmlns="http://www.w3.org/2000/svg"
   xmlns:svg="http://www.w3.org/2000/svg"
   xmlns:i="http://ns.adobe.com/AdobeIllustrator/10.0/">
  <sodipodi:namedview
     id="namedview7"
     pagecolor="#505050"
     bordercolor="#eeeeee"
     borderopacity="1"
     inkscape:showpageshadow="0"
     inkscape:pageopacity="0"
     inkscape:pagecheckerboard="0"
     inkscape:deskcolor="#505050"
     inkscape:document-units="px"
     showgrid="false"
     inkscape:zoom="0.32552722"
     inkscape:cx="1463.7793"
     inkscape:cy="978.4128"
     inkscape:window-width="1920"
     inkscape:window-height="997"
     inkscape:window-x="0"
     inkscape:window-y="0"
     inkscape:window-maximized="1"
     inkscape:current-layer="layer1"
     showguides="true" />
  <defs
     id="defs2">
    <linearGradient
       inkscape:collect="always"
       id="linearGradient23804">
      <stop
         style="stop-color:#265a78;stop-opacity:0;"
         offset="0"
         id="stop23802" />
      <stop
         style="stop-color:#265a78;stop-opacity:1;"
         offset="0.70875293"
         id="stop23800" />
    </linearGradient>
    <linearGradient
       inkscape:collect="always"
       id="linearGradient23794">
      <stop
         style="stop-color:#26536e;stop-opacity:0;"
         offset="0"
         id="stop23792" />
      <stop
         style="stop-color:#26536e;stop-opacity:1;"
         offset="0.71284992"
         id="stop23790" />
    </linearGradient>
    <linearGradient
       inkscape:collect="always"
       id="linearGradient23457">
      <stop
         style="stop-color:#263a47;stop-opacity:1;"
         offset="0"
         id="stop23453" />
      <stop
         style="stop-color:#263a47;stop-opacity:0;"
         offset="1"
         id="stop23455" />
    </linearGradient>
    <linearGradient
       inkscape:collect="always"
       id="linearGradient23440">
      <stop
         style="stop-color:#254151;stop-opacity:1;"
         offset="0"
         id="stop23436" />
      <stop
         style="stop-color:#254151;stop-opacity:0;"
         offset="1"
         id="stop23438" />
    </linearGradient>
    <linearGradient
       inkscape:collect="always"
       id="linearGradient23422">
      <stop
         style="stop-color:#26475b;stop-opacity:1;"
         offset="0"
         id="stop23418" />
      <stop
         style="stop-color:#26475b;stop-opacity:0;"
         offset="1"
         id="stop23420" />
    </linearGradient>
    <linearGradient
       inkscape:collect="always"
       id="linearGradient23111">
      <stop
         style="stop-color:#264d64;stop-opacity:1;"
         offset="0"
         id="stop23107" />
      <stop
         style="stop-color:#264d64;stop-opacity:0;"
         offset="1"
         id="stop23109" />
    </linearGradient>
    <linearGradient
       inkscape:collect="always"
       id="linearGradient23092">
      <stop
         style="stop-color:#264d64;stop-opacity:1;"
         offset="0"
         id="stop23088" />
      <stop
         style="stop-color:#264d64;stop-opacity:0;"
         offset="1"
         id="stop23090" />
    </linearGradient>
    <linearGradient
       inkscape:collect="always"
       id="linearGradient23073">
      <stop
         style="stop-color:#26536e;stop-opacity:1;"
         offset="0"
         id="stop23069" />
      <stop
         style="stop-color:#26536e;stop-opacity:0;"
         offset="1"
         id="stop23071" />
    </linearGradient>
    <linearGradient
       inkscape:collect="always"
       id="linearGradient23061">
      <stop
         style="stop-color:#276082;stop-opacity:1;"
         offset="0"
         id="stop23057" />
      <stop
         style="stop-color:#276082;stop-opacity:0;"
         offset="1"
         id="stop23059" />
    </linearGradient>
    <linearGradient
       inkscape:collect="always"
       id="linearGradient23046">
      <stop
         style="stop-color:#276082;stop-opacity:1;"
         offset="0"
         id="stop23042" />
      <stop
         style="stop-color:#276082;stop-opacity:0;"
         offset="1"
         id="stop23044" />
    </linearGradient>
    <linearGradient
       inkscape:collect="always"
       id="linearGradient23029">
      <stop
         style="stop-color:#265a78;stop-opacity:1;"
         offset="0"
         id="stop23025" />
      <stop
         style="stop-color:#265a78;stop-opacity:0;"
         offset="1"
         id="stop23027" />
    </linearGradient>
    <linearGradient
       inkscape:collect="always"
       id="linearGradient23010">
      <stop
         style="stop-color:#265a78;stop-opacity:1;"
         offset="0"
         id="stop23006" />
      <stop
         style="stop-color:#265a78;stop-opacity:0;"
         offset="1"
         id="stop23008" />
    </linearGradient>
    <linearGradient
       inkscape:collect="always"
       id="linearGradient22752">
      <stop
         style="stop-color:#265a78;stop-opacity:1;"
         offset="0"
         id="stop22748" />
      <stop
         style="stop-color:#265a78;stop-opacity:0;"
         offset="1"
         id="stop22750" />
    </linearGradient>
    <linearGradient
       inkscape:collect="always"
       id="linearGradient22744">
      <stop
         style="stop-color:#265a78;stop-opacity:1;"
         offset="0"
         id="stop22740" />
      <stop
         style="stop-color:#265a78;stop-opacity:0;"
         offset="1"
         id="stop22742" />
    </linearGradient>
    <linearGradient
       inkscape:collect="always"
       id="linearGradient15911">
      <stop
         style="stop-color:#263a47;stop-opacity:0;"
         offset="0"
         id="stop15907" />
      <stop
         style="stop-color:#263a47;stop-opacity:1;"
         offset="0.76715851"
         id="stop15909" />
    </linearGradient>
    <linearGradient
       inkscape:collect="always"
       id="linearGradient15002">
      <stop
         style="stop-color:#254151;stop-opacity:0;"
         offset="0"
         id="stop14998" />
      <stop
         style="stop-color:#254151;stop-opacity:1;"
         offset="0.75093848"
         id="stop15000" />
    </linearGradient>
    <linearGradient
       inkscape:collect="always"
       id="linearGradient14996">
      <stop
         style="stop-color:#26475b;stop-opacity:0;"
         offset="0"
         id="stop14992" />
      <stop
         style="stop-color:#26475b;stop-opacity:1;"
         offset="0.7528826"
         id="stop14994" />
    </linearGradient>
    <linearGradient
       inkscape:collect="always"
       id="linearGradient14990">
      <stop
         style="stop-color:#264d64;stop-opacity:0;"
         offset="0"
         id="stop14986" />
      <stop
         style="stop-color:#264d64;stop-opacity:1;"
         offset="0.73379928"
         id="stop14988" />
    </linearGradient>
    <linearGradient
       inkscape:collect="always"
       id="linearGradient14972">
      <stop
         style="stop-color:#276082;stop-opacity:0;"
         offset="0"
         id="stop14968" />
      <stop
         style="stop-color:#276082;stop-opacity:1;"
         offset="0.72190452"
         id="stop14970" />
    </linearGradient>
    <linearGradient
       inkscape:collect="always"
       id="linearGradient13481">
      <stop
         style="stop-color:#254151;stop-opacity:0;"
         offset="0"
         id="stop13479" />
      <stop
         style="stop-color:#254151;stop-opacity:1;"
         offset="0.76715851"
         id="stop13477" />
    </linearGradient>
    <linearGradient
       inkscape:collect="always"
       id="linearGradient13471">
      <stop
         style="stop-color:#26475b;stop-opacity:0;"
         offset="0"
         id="stop13469" />
      <stop
         style="stop-color:#26475b;stop-opacity:1;"
         offset="0.82321912"
         id="stop13467" />
    </linearGradient>
    <linearGradient
       inkscape:collect="always"
       id="linearGradient13461">
      <stop
         style="stop-color:#264d64;stop-opacity:0;"
         offset="0"
         id="stop13459" />
      <stop
         style="stop-color:#264d64;stop-opacity:1;"
         offset="0.85171771"
         id="stop13457" />
    </linearGradient>
    <linearGradient
       inkscape:collect="always"
       id="linearGradient13451">
      <stop
         style="stop-color:#26536e;stop-opacity:0;"
         offset="0"
         id="stop13449" />
      <stop
         style="stop-color:#26536e;stop-opacity:1;"
         offset="0.84549451"
         id="stop13447" />
    </linearGradient>
    <linearGradient
       inkscape:collect="always"
       id="linearGradient13441">
      <stop
         style="stop-color:#265a78;stop-opacity:0;"
         offset="0"
         id="stop13439" />
      <stop
         style="stop-color:#265a78;stop-opacity:1;"
         offset="0.77094734"
         id="stop13437" />
    </linearGradient>
    <linearGradient
       inkscape:collect="always"
       id="linearGradient13431">
      <stop
         style="stop-color:#276082;stop-opacity:0;"
         offset="0"
         id="stop13429" />
      <stop
         style="stop-color:#276082;stop-opacity:1;"
         offset="0.76716775"
         id="stop13427" />
    </linearGradient>
    <linearGradient
       inkscape:collect="always"
       id="linearGradient13421">
      <stop
         style="stop-color:#27678d;stop-opacity:0;"
         offset="0"
         id="stop13419" />
      <stop
         style="stop-color:#27678d;stop-opacity:1;"
         offset="0.75157857"
         id="stop13417" />
    </linearGradient>
    <inkscape:path-effect
       effect="spiro"
       id="path-effect3861"
       is_visible="true"
       lpeversion="1" />
    <inkscape:path-effect
       effect="spiro"
       id="path-effect8170"
       is_visible="true"
       lpeversion="1" />
    <inkscape:path-effect
       effect="spiro"
       id="path-effect8166"
       is_visible="true"
       lpeversion="1" />
    <inkscape:path-effect
       effect="spiro"
       id="path-effect1937"
       is_visible="true"
       lpeversion="1" />
    <inkscape:path-effect
       effect="spiro"
       id="path-effect1933"
       is_visible="true"
       lpeversion="1" />
    <inkscape:path-effect
       effect="spiro"
       id="path-effect1929"
       is_visible="true"
       lpeversion="1" />
    <inkscape:path-effect
       effect="spiro"
       id="path-effect1925"
       is_visible="true"
       lpeversion="1" />
    <inkscape:path-effect
       effect="spiro"
       id="path-effect6615"
       is_visible="true"
       lpeversion="1" />
    <inkscape:path-effect
       effect="spiro"
       id="path-effect6611"
       is_visible="true"
       lpeversion="1" />
    <inkscape:path-effect
       effect="spiro"
       id="path-effect4045"
       is_visible="true"
       lpeversion="1" />
    <inkscape:path-effect
       effect="spiro"
       id="path-effect4041"
       is_visible="true"
       lpeversion="1" />
    <radialGradient
       inkscape:collect="always"
       xlink:href="#linearGradient13421"
       id="radialGradient13423"
       cx="2223.292"
       cy="1645.4642"
       fx="2223.292"
       fy="1645.4642"
       r="731.8222"
       gradientTransform="matrix(0.99998983,0.00451093,-0.00295729,0.6555763,4.8887293,64.769719)"
       gradientUnits="userSpaceOnUse" />
    <radialGradient
       inkscape:collect="always"
       xlink:href="#linearGradient13431"
       id="radialGradient13433"
       cx="1491.4698"
       cy="1603.6477"
       fx="1491.4698"
       fy="1603.6477"
       r="780.0056"
       gradientTransform="matrix(0.99998844,0.00480806,-0.00295722,0.61507925,4.7595851,69.984695)"
       gradientUnits="userSpaceOnUse" />
    <radialGradient
       inkscape:collect="always"
       xlink:href="#linearGradient13441"
       id="radialGradient13443"
       cx="883.86816"
       cy="1545.8374"
       fx="883.86816"
       fy="1545.8374"
       r="810.19535"
       gradientTransform="matrix(0.99998753,0.00499358,-0.00295703,0.59216,4.5821151,55.72946)"
       gradientUnits="userSpaceOnUse" />
    <radialGradient
       inkscape:collect="always"
       xlink:href="#linearGradient13451"
       id="radialGradient13453"
       cx="1913.1831"
       cy="920.34332"
       fx="1913.1831"
       fy="920.34332"
       r="734.2122"
       gradientTransform="matrix(0.99999859,-0.00167854,0.00109206,0.65060279,-1.002377,268.00977)"
       gradientUnits="userSpaceOnUse" />
    <radialGradient
       inkscape:collect="always"
       xlink:href="#linearGradient13461"
       id="radialGradient13463"
       cx="1239.3376"
       cy="845.80194"
       fx="1239.3376"
       fy="845.80194"
       r="731.82225"
       gradientTransform="matrix(0.99991817,-0.01279264,0.00850554,0.66482394,-7.0925922,265.97381)"
       gradientUnits="userSpaceOnUse" />
    <radialGradient
       inkscape:collect="always"
       xlink:href="#linearGradient13471"
       id="radialGradient13473"
       cx="582.52675"
       cy="735.64207"
       fx="582.52675"
       fy="735.64207"
       r="793.47325"
       gradientTransform="matrix(1,0,0,0.58735896,0,303.55611)"
       gradientUnits="userSpaceOnUse" />
    <radialGradient
       inkscape:collect="always"
       xlink:href="#linearGradient13481"
       id="radialGradient13483"
       cx="1734.0635"
       cy="697.71396"
       fx="1734.0635"
       fy="697.71396"
       r="733.6582"
       gradientTransform="matrix(1,0,0,0.68463222,0,220.0365)"
       gradientUnits="userSpaceOnUse" />
    <radialGradient
       inkscape:collect="always"
       xlink:href="#linearGradient15911"
       id="radialGradient14947"
       gradientUnits="userSpaceOnUse"
       gradientTransform="matrix(1.6666667,0,0,1.1410537,-933.33336,-33.272503)"
       cx="1734.0635"
       cy="697.71396"
       fx="1734.0635"
       fy="697.71396"
       r="733.6582" />
    <radialGradient
       inkscape:collect="always"
       xlink:href="#linearGradient15002"
       id="radialGradient14949"
       gradientUnits="userSpaceOnUse"
       gradientTransform="matrix(1.5955469,0.00292069,-0.00159522,0.87145504,-890.73072,183.28977)"
       cx="582.52673"
       cy="735.64209"
       fx="582.52673"
       fy="735.64209"
       r="793.47325" />
    <radialGradient
       inkscape:collect="always"
       xlink:href="#linearGradient14996"
       id="radialGradient14951"
       gradientUnits="userSpaceOnUse"
       gradientTransform="matrix(1.5678957,-0.02447118,0.01659438,1.0632213,-824.95842,85.101437)"
       cx="1239.3376"
       cy="845.80194"
       fx="1239.3376"
       fy="845.80194"
       r="731.82225" />
    <radialGradient
       inkscape:collect="always"
       xlink:href="#linearGradient14990"
       id="radialGradient14953"
       gradientUnits="userSpaceOnUse"
       gradientTransform="matrix(1.6666596,0.00486393,-0.002927,1.0029531,-930.62594,106.9271)"
       cx="1913.1831"
       cy="920.34332"
       fx="1913.1831"
       fy="920.34332"
       r="734.2122" />
    <radialGradient
       inkscape:collect="always"
       xlink:href="#linearGradient14972"
       id="radialGradient14959"
       gradientUnits="userSpaceOnUse"
       gradientTransform="matrix(1.6666528,0.00679631,-0.00437486,1.0728409,-926.1039,-257.88781)"
       cx="2223.292"
       cy="1645.4642"
       fx="2223.292"
       fy="1645.4642"
       r="731.8222" />
    <linearGradient
       inkscape:collect="always"
       xlink:href="#linearGradient22744"
       id="linearGradient22746"
       x1="907.14618"
       y1="989.55341"
       x2="1106.9694"
       y2="1176.9528"
       gradientUnits="userSpaceOnUse" />
    <linearGradient
       inkscape:collect="always"
       xlink:href="#linearGradient22752"
       id="linearGradient22754"
       x1="1125.4424"
       y1="937.1264"
       x2="940.47992"
       y2="1215.8922"
       gradientUnits="userSpaceOnUse" />
    <linearGradient
       inkscape:collect="always"
       xlink:href="#linearGradient23010"
       id="linearGradient23012"
       x1="1346.7633"
       y1="871.96722"
       x2="1356.1937"
       y2="1177.6772"
       gradientUnits="userSpaceOnUse" />
    <linearGradient
       inkscape:collect="always"
       xlink:href="#linearGradient23010"
       id="linearGradient23016"
       gradientUnits="userSpaceOnUse"
       x1="1557.1628"
       y1="1035.3131"
       x2="1356.1937"
       y2="1177.6772" />
    <linearGradient
       inkscape:collect="always"
       xlink:href="#linearGradient23010"
       id="linearGradient23020"
       gradientUnits="userSpaceOnUse"
       x1="1170.8102"
       y1="1081.3518"
       x2="1356.1937"
       y2="1177.6772" />
    <linearGradient
       inkscape:collect="always"
       xlink:href="#linearGradient23029"
       id="linearGradient23033"
       x1="1933.449"
       y1="897.0993"
       x2="1702.4302"
       y2="1163.9174"
       gradientUnits="userSpaceOnUse" />
    <linearGradient
       inkscape:collect="always"
       xlink:href="#linearGradient23029"
       id="linearGradient23037"
       gradientUnits="userSpaceOnUse"
       x1="1717.527"
       y1="870.22803"
       x2="2059.6401"
       y2="1127.5563" />
    <linearGradient
       inkscape:collect="always"
       xlink:href="#linearGradient23046"
       id="linearGradient23048"
       x1="2228.0796"
       y1="1089.7867"
       x2="2413.1294"
       y2="1214.745"
       gradientUnits="userSpaceOnUse" />
    <linearGradient
       inkscape:collect="always"
       xlink:href="#linearGradient23046"
       id="linearGradient23052"
       gradientUnits="userSpaceOnUse"
       x1="2488.8059"
       y1="1118.8007"
       x2="2304.0002"
       y2="1272.4904" />
    <linearGradient
       inkscape:collect="always"
       xlink:href="#linearGradient23061"
       id="linearGradient23063"
       x1="2688.3496"
       y1="951.69537"
       x2="2776.9065"
       y2="1204.4343"
       gradientUnits="userSpaceOnUse" />
    <linearGradient
       inkscape:collect="always"
       xlink:href="#linearGradient23073"
       id="linearGradient23075"
       x1="478.93286"
       y1="754.25018"
       x2="374.3392"
       y2="1210.4799"
       gradientUnits="userSpaceOnUse" />
    <linearGradient
       inkscape:collect="always"
       xlink:href="#linearGradient23073"
       id="linearGradient23079"
       gradientUnits="userSpaceOnUse"
       x1="98.04216"
       y1="858.76855"
       x2="374.3392"
       y2="1210.4799" />
    <linearGradient
       inkscape:collect="always"
       xlink:href="#linearGradient23073"
       id="linearGradient23083"
       gradientUnits="userSpaceOnUse"
       x1="845.00464"
       y1="802.1217"
       x2="500.82693"
       y2="1220.9106" />
    <linearGradient
       inkscape:collect="always"
       xlink:href="#linearGradient23092"
       id="linearGradient23094"
       x1="2678.1384"
       y1="539.06573"
       x2="2397.9683"
       y2="819.68622"
       gradientUnits="userSpaceOnUse" />
    <linearGradient
       inkscape:collect="always"
       xlink:href="#linearGradient23092"
       id="linearGradient23098"
       gradientUnits="userSpaceOnUse"
       x1="2084.8772"
       y1="510.34955"
       x2="2397.9683"
       y2="819.68622" />
    <linearGradient
       inkscape:collect="always"
       xlink:href="#linearGradient23092"
       id="linearGradient23102"
       gradientUnits="userSpaceOnUse"
       x1="2378.676"
       y1="503.6557"
       x2="2371.6221"
       y2="763.11646" />
    <linearGradient
       inkscape:collect="always"
       xlink:href="#linearGradient23111"
       id="linearGradient23113"
       x1="1764.4449"
       y1="543.76123"
       x2="2211.7773"
       y2="749.03033"
       gradientUnits="userSpaceOnUse" />
    <linearGradient
       inkscape:collect="always"
       xlink:href="#linearGradient23111"
       id="linearGradient23117"
       gradientUnits="userSpaceOnUse"
       x1="1964.0865"
       y1="574.86664"
       x2="1794.1737"
       y2="821.73193" />
    <linearGradient
       inkscape:collect="always"
       xlink:href="#linearGradient23422"
       id="linearGradient23424"
       x1="1458.692"
       y1="451.91043"
       x2="1342.0944"
       y2="691.17554"
       gradientUnits="userSpaceOnUse" />
    <linearGradient
       inkscape:collect="always"
       xlink:href="#linearGradient23422"
       id="linearGradient23428"
       gradientUnits="userSpaceOnUse"
       x1="1052.9767"
       y1="405.38644"
       x2="1073.8798"
       y2="704.99231" />
    <linearGradient
       inkscape:collect="always"
       xlink:href="#linearGradient23440"
       id="linearGradient23442"
       x1="65.017715"
       y1="262.42105"
       x2="49.87019"
       y2="657.96741"
       gradientUnits="userSpaceOnUse" />
    <linearGradient
       inkscape:collect="always"
       xlink:href="#linearGradient23440"
       id="linearGradient23446"
       gradientUnits="userSpaceOnUse"
       x1="245.45502"
       y1="298.54114"
       x2="49.87019"
       y2="657.96741" />
    <linearGradient
       inkscape:collect="always"
       xlink:href="#linearGradient23457"
       id="linearGradient23459"
       x1="1750.8798"
       y1="168.4812"
       x2="1950.6647"
       y2="387.29565"
       gradientUnits="userSpaceOnUse" />
    <linearGradient
       inkscape:collect="always"
       xlink:href="#linearGradient23457"
       id="linearGradient23463"
       gradientUnits="userSpaceOnUse"
       x1="2590.7788"
       y1="185.06146"
       x2="2556.5952"
       y2="349.36496" />
    <linearGradient
       inkscape:collect="always"
       xlink:href="#linearGradient23457"
       id="linearGradient23467"
       gradientUnits="userSpaceOnUse"
       x1="2171.5012"
       y1="1.74844"
       x2="2194.9426"
       y2="418.5163" />
    <radialGradient
       inkscape:collect="always"
       xlink:href="#linearGradient23794"
       id="radialGradient23796"
       cx="1481.0845"
       cy="2186.2798"
       fx="1481.0845"
       fy="2186.2798"
       r="1251.5653"
       gradientTransform="matrix(0.99938797,-0.03522761,0.02209901,0.58346407,-23.370595,41.010466)"
       gradientUnits="userSpaceOnUse" />
    <radialGradient
       inkscape:collect="always"
       xlink:href="#linearGradient23804"
       id="radialGradient23806"
       cx="8.9512892"
       cy="1752.3088"
       fx="8.9512892"
       fy="1752.3088"
       r="980.08925"
       gradientTransform="matrix(1.7174339,-0.00760037,0.00322148,0.72794815,-12.066979,-84.092662)"
       gradientUnits="userSpaceOnUse" />
  </defs>
  <g
     inkscape:groupmode="layer"
     id="layer2"
     inkscape:label="background"
     transform="translate(880)"
     sodipodi:insensitive="true"
     style="display:inline">
    <path
       id="rect2585"
       style="display:inline;fill:#25343c;fill-opacity:1;fill-rule:evenodd;stroke-width:1.20761"
       d="M -880,0 H 1920 V 1200 H -880 Z" />
  </g>
  <g
     id="g9942"
     inkscape:label="tints"
     style="display:inline"
     transform="translate(-2490.8893,-54.326352)"
     sodipodi:insensitive="true">
    <path
       id="rect7413"
       style="fill:#27678d;fill-rule:evenodd"
       d="m 2033.2965,-22.873643 h 106.2478 V 71.48795 h -106.2478 z" />
    <path
       id="rect7413-3"
       style="fill:#435c7b;fill-rule:evenodd"
       d="m 2290.0086,-22.873643 h 106.2478 V 71.48795 h -106.2478 z" />
    <path
       d="m 2033.2925,110.50978 h 106.25 v 2e-4 94.3618 0 h -106.25 v -0.001 z"
       style="fill:#5285a3;fill-opacity:1"
       id="path8133" />
    <path
       d="m 2030.4802,243.89361 h 106.25 v 0.001 94.361 0 h -106.25 v 0 z"
       style="fill:#7da3ba;fill-opacity:1"
       id="path8135" />
    <path
       d="m 2030.4802,377.27744 h 106.25 v 0 94.361 0 h -106.25 v 0 z"
       style="fill:#a8c2d1;fill-opacity:1"
       id="path8137" />
    <path
       d="m 2030.4802,510.66027 h 106.25 v 0 94.362 0 h -106.25 v 0 z"
       style="fill:#d3e0e8;fill-opacity:1"
       id="path8139" />
    <path
       d="m 2290.0125,110.50978 h 106.24 v 2e-4 94.3618 0 h -106.24 v -0.001 z"
       style="fill:#687c95;fill-opacity:1"
       id="path7784" />
    <path
       d="m 2287.2002,243.89361 h 106.24 v 0.001 94.361 0 h -106.24 v 0 z"
       style="fill:#8e9daf;fill-opacity:1"
       id="path7786" />
    <path
       d="m 2287.2002,377.27744 h 106.24 v 0 94.361 0 h -106.24 v 0 z"
       style="fill:#b3bdca;fill-opacity:1"
       id="path7788" />
    <path
       d="m 2287.2002,510.66027 h 106.24 v 0 94.362 0 h -106.24 v 0 z"
       style="fill:#d9dee4;fill-opacity:1"
       id="path7790" />
    <path
       d="m 2161.65,-22.8736 h 106.25 v 2e-4 94.3613 0 h -106.25 v -2e-4 z"
       style="fill:#356184"
       id="path8507" />
    <path
       d="m 2161.65,110.51 h 106.25 v 0 0.002 0.001 94.359 0 0 0 h -106.25 v -0.001 -0.002 -0.001 z"
       style="fill:#5d809c;fill-opacity:1"
       id="path8853" />
    <path
       d="m 2158.84,243.894 h 106.24 v 0 l 0.01,0.002 v 0.001 94.359 0 h -0.01 v 0 h -106.24 v 0 -0.003 0 z"
       style="fill:#85a0b4;fill-opacity:1"
       id="path9203" />
    <path
       d="m 2158.84,377.277 h 106.24 v 0 l 0.01,0.003 v 0 94.358 0 h -0.01 v 0 h -106.24 v 0 -0.002 0 z"
       style="fill:#adbfcd;fill-opacity:1"
       id="path9557" />
    <path
       d="m 2158.84,510.66 h 106.24 v 0 l 0.01,0.002 v 0.001 94.359 0 h -0.01 v 0 h -106.24 v 0 -0.002 0 z"
       style="fill:#d6dfe6;fill-opacity:1"
       id="path9915" />
  </g>
  <g
     id="g30520"
     inkscape:label="shades"
     transform="rotate(-90,607.76614,1598.3038)"
     sodipodi:insensitive="true">
    <path
       id="rect9426"
       style="fill:#232729;fill-rule:evenodd;stroke-width:1.64541"
       d="m 789.92684,398.2185 h 73.80845 v 73.70225 h -73.80845 z" />
    <path
       id="rect9426-0-2-6"
       style="fill:#0c729f;fill-rule:evenodd;stroke-width:1.64541"
       d="m 1528.0323,398.21849 h 73.8084 v 73.70225 h -73.8084 z" />
    <path
       d="m 863.73729,398.21965 h 73.809 v 0 73.702 h -10e-4 -73.808 v 0 z"
       style="fill:#202e34;stroke-width:1.64541px"
       id="path83488" />
    <path
       d="m 937.54829,398.21965 h 73.80801 v 0 73.702 0 h -73.80801 v 0 z"
       style="fill:#1e3640;stroke-width:1.64541px"
       id="path83490" />
    <path
       d="m 1011.3583,398.21965 h 73.809 v 0 73.702 h -10e-4 -73.808 v 0 z"
       style="fill:#1c3d4c;stroke-width:1.64541px"
       id="path83492" />
    <path
       d="m 1085.1693,398.21965 h 73.808 v 0 73.702 h -10e-4 -73.807 v -10e-4 z"
       style="fill:#194558;stroke-width:1.64541px"
       id="path83494" />
    <path
       d="m 1158.9793,398.21965 h 73.809 v 0 73.702 h -10e-4 -73.808 v -10e-4 z"
       style="fill:#174c64;stroke-width:1.64541px"
       id="path83496" />
    <path
       d="m 1232.7903,398.21965 h 73.808 v 0 73.702 0 h -73.807 v -10e-4 z"
       style="fill:#15546f;stroke-width:1.64541px"
       id="path83498" />
    <path
       d="m 1306.6003,398.21965 h 73.809 v 0 73.702 h -10e-4 -73.808 v -10e-4 z"
       style="fill:#125b7b;stroke-width:1.64541px"
       id="path83500" />
    <path
       d="m 1380.4113,398.21965 h 73.808 v 0 73.702 h -10e-4 -73.807 v -10e-4 z"
       style="fill:#106387;stroke-width:1.64541px"
       id="path83502" />
    <path
       d="m 1454.2213,398.21965 h 73.809 v 0 73.702 h -10e-4 -73.808 v -10e-4 z"
       style="fill:#0e6a93;stroke-width:1.64541px"
       id="path83504" />
    <path
       id="rect9426-7"
       style="fill:#332c2c;fill-opacity:1;fill-rule:evenodd;stroke-width:1.64541"
       d="m 789.92735,840.44475 h 73.80844 v 73.70223 h -73.80844 z" />
    <path
       id="rect9426-0-2-6-1"
       style="fill:#b23133;fill-opacity:1;fill-rule:evenodd;stroke-width:1.64541"
       d="m 1528.0318,840.44474 h 73.8084 V 914.147 h -73.8084 z" />
    <path
       d="m 863.73779,840.44366 h 73.808 v 0 73.702 0 h -73.808 v 0 z"
       style="fill:#3f2c2c;fill-opacity:1;stroke-width:1.64541px"
       id="path85717" />
    <path
       d="m 937.54779,840.44366 h 73.80901 v 0 73.702 h -10e-4 -73.80801 v 0 z"
       style="fill:#4c2d2d;fill-opacity:1;stroke-width:1.64541px"
       id="path85719" />
    <path
       d="m 1011.3588,840.44366 h 73.808 v 0 73.702 h -10e-4 -73.807 v 0 z"
       style="fill:#592d2e;fill-opacity:1;stroke-width:1.64541px"
       id="path85721" />
    <path
       d="m 1085.1688,840.44366 h 73.809 v 0 73.702 h -10e-4 -73.808 v 0 z"
       style="fill:#652e2e;fill-opacity:1;stroke-width:1.64541px"
       id="path85723" />
    <path
       d="m 1158.9798,840.44366 h 73.808 v 0 73.702 h -10e-4 -73.807 v 0 z"
       style="fill:#722e2f;fill-opacity:1;stroke-width:1.64541px"
       id="path85725" />
    <path
       d="m 1232.7898,840.44366 h 73.808 v 9.9e-4 73.70101 0 h -73.808 v 0 z"
       style="fill:#7f2f30;fill-opacity:1;stroke-width:1.64541px"
       id="path85727" />
    <path
       d="m 1306.5998,840.44366 h 73.809 v 9.9e-4 73.70101 h -10e-4 -73.808 v 0 z"
       style="fill:#8b2f30;fill-opacity:1;stroke-width:1.64541px"
       id="path85729" />
    <path
       d="m 1380.4108,840.44366 h 73.808 v 9.9e-4 73.70101 0 h -73.807 v 0 z"
       style="fill:#983031;fill-opacity:1;stroke-width:1.64541px"
       id="path85731" />
    <path
       d="m 1454.2208,840.44366 h 73.809 v 9.9e-4 73.70101 h -10e-4 -73.808 v -10e-4 z"
       style="fill:#a53032;fill-opacity:1;stroke-width:1.64541px"
       id="path85733" />
    <path
       d="m 789.92479,471.92275 h 73.8081 v 10e-4 73.701 h -10e-4 -73.8071 v 0 z"
       style="fill:#252729;fill-opacity:1;stroke-width:1.64541px"
       id="path86439" />
    <path
       d="m 789.92479,545.62675 h 73.8081 v 10e-4 73.702 0 h -73.8081 v -10e-4 z"
       style="fill:#28282a;fill-opacity:1;stroke-width:1.64541px"
       id="path86441" />
    <path
       d="m 789.92489,619.33176 h 73.808 v 0 73.702 0 h -73.808 v -10e-4 z"
       style="fill:#2b292a;fill-opacity:1;stroke-width:1.64541px"
       id="path86443" />
    <path
       d="m 789.92499,693.03575 h 73.8089 v 0 73.702 h -10e-4 -73.8079 v 0 z"
       style="fill:#2d2a2b;fill-opacity:1;stroke-width:1.64541px"
       id="path86445" />
    <path
       d="m 789.92509,766.73975 h 73.8088 v 0 73.703 h -10e-4 -73.8078 v -0.001 z"
       style="fill:#302b2b;fill-opacity:1;stroke-width:1.64541px"
       id="path86447" />
    <path
       d="m 863.73589,471.92365 h 73.809 v 0 0 0 73.70201 h -10e-4 v 0 0 h -73.808 v 0 0 0 z"
       style="fill:#252d32;fill-opacity:1;stroke-width:1.64541px"
       id="path86732" />
    <path
       d="m 863.73589,545.62765 h 73.809 v 0 10e-4 0 73.701 h -10e-4 v 0 0 h -73.808 v 0 0 0 z"
       style="fill:#2a2d31;fill-opacity:1;stroke-width:1.64541px"
       id="path86734" />
    <path
       d="m 863.73589,619.33165 h 73.809 v 0 0 0 73.702 h -10e-4 v 0 0 h -73.808 v 0 -10e-4 0 z"
       style="fill:#2f2d30;fill-opacity:1;stroke-width:1.64541px"
       id="path86736" />
    <path
       d="m 863.73689,693.03566 h 73.808 v 0 9.9e-4 0 73.70101 0 0 h -10e-4 -73.807 v 0 0 -10e-4 z"
       style="fill:#342c2e;fill-opacity:1;stroke-width:1.64541px"
       id="path86738" />
    <path
       d="m 863.73689,766.73965 h 73.808 v 0 10e-4 0.001 73.7 0 0 h -10e-4 -73.807 v 0 0 -10e-4 z"
       style="fill:#392c2d;fill-opacity:1;stroke-width:1.64541px"
       id="path86740" />
    <path
       d="m 937.54689,471.92365 h 73.80801 v 0 10e-4 0 73.701 0 0 0 h -73.80701 v 0 -10e-4 0 z"
       style="fill:#25343c;fill-opacity:1;stroke-width:1.64541px"
       id="path87037" />
    <path
       d="m 937.54689,545.62765 h 73.80801 v 0 10e-4 0 73.701 0 0 0 h -73.80701 v 0 0 0 z"
       style="fill:#2d3339;fill-opacity:1;stroke-width:1.64541px"
       id="path87039" />
    <path
       d="m 937.54689,619.33165 h 73.80801 v 0 0 0 73.702 0 0 0 h -73.80701 v 0 -10e-4 0 z"
       style="fill:#353136;fill-opacity:1;stroke-width:1.64541px"
       id="path87041" />
    <path
       d="m 937.54689,693.03566 h 73.80901 v 0 0 9.9e-4 73.70101 h -10e-4 v 0 0 h -73.80701 v 0 0 0 z"
       style="fill:#3c3033;fill-opacity:1;stroke-width:1.64541px"
       id="path87043" />
    <path
       d="m 937.54689,766.73965 h 73.80901 v 0 10e-4 0 73.701 h -10e-4 v 0 0 h -73.80701 v 0 0 0 z"
       style="fill:#442e30;fill-opacity:1;stroke-width:1.64541px"
       id="path87045" />
    <path
       d="m 1011.3579,471.92365 h 73.809 v 0 0 0 73.70201 h -10e-4 v 0 h -10e-4 -73.807 v 0 0 0 z"
       style="fill:#263a47;fill-opacity:1;stroke-width:1.64541px"
       id="path87359" />
    <path
       d="m 1011.3579,545.62765 h 73.809 v 0 10e-4 0 73.701 h -10e-4 v 0 h -10e-4 -73.807 v 0 0 0 z"
       style="fill:#303742;fill-opacity:1;stroke-width:1.64541px"
       id="path87361" />
    <path
       d="m 1011.3579,619.33165 h 73.809 v 0 0 0 73.702 h -10e-4 v 0 0 h -73.808 v 0 -10e-4 0 z"
       style="fill:#3a353d;fill-opacity:1;stroke-width:1.64541px"
       id="path87363" />
    <path
       d="m 1011.3589,693.03566 h 73.808 v 0 9.9e-4 0 73.70101 h -10e-4 v 0 0 h -73.807 v 0 0 -10e-4 z"
       style="fill:#443238;fill-opacity:1;stroke-width:1.64541px"
       id="path87365" />
    <path
       d="m 1011.3589,766.73965 h 73.808 v 0 10e-4 0.001 73.7 h -10e-4 v 0 0 h -73.807 v 0 0 -10e-4 z"
       style="fill:#4e2f33;fill-opacity:1;stroke-width:1.64541px"
       id="path87367" />
    <path
       d="m 1085.1689,471.92365 h 73.808 v 0 10e-4 0 73.701 h -10e-4 v 0 0 h -73.807 v -10e-4 0 0 z"
       style="fill:#254151;fill-opacity:1;stroke-width:1.64541px"
       id="path87688" />
    <path
       d="m 1085.1689,545.62765 h 73.808 v 0 10e-4 0 73.701 0 h -10e-4 v 0 h -73.807 v 0 0 -9.9e-4 z"
       style="fill:#323d4a;fill-opacity:1;stroke-width:1.64541px"
       id="path87690" />
    <path
       d="m 1085.1689,619.33165 h 73.808 v 0 0 0 73.702 0 h -10e-4 v 0 h -73.807 v -10e-4 0 0 z"
       style="fill:#3f3943;fill-opacity:1;stroke-width:1.64541px"
       id="path87692" />
    <path
       d="m 1085.1689,693.03566 h 73.809 v 0 0 9.9e-4 73.70101 0 0 0 h -73.807 v 0 0 -10e-4 z"
       style="fill:#4b353c;fill-opacity:1;stroke-width:1.64541px"
       id="path87694" />
    <path
       d="m 1085.1689,766.73965 h 73.809 v 0 10e-4 0 73.701 0 0 0 h -73.807 v 0 0 0 z"
       style="fill:#583135;fill-opacity:1;stroke-width:1.64541px"
       id="path87696" />
    <path
       d="m 1158.9799,471.92365 h 73.809 v 0 0 0 73.70201 h -10e-4 v 0 h -10e-4 -73.807 v 0 0 -0.001 z"
       style="fill:#26475b;fill-opacity:1;stroke-width:1.64541px"
       id="path88029" />
    <path
       d="m 1158.9799,545.62765 h 73.809 v 0 10e-4 0 73.701 h -10e-4 v 0 h -10e-4 -73.807 v 0 0 -9.9e-4 z"
       style="fill:#354252;fill-opacity:1;stroke-width:1.64541px"
       id="path88031" />
    <path
       d="m 1158.9799,619.33165 h 73.809 v 0 0 0 73.702 h -10e-4 v 0 0 h -73.808 v 0 -10e-4 -10e-4 z"
       style="fill:#443d49;fill-opacity:1;stroke-width:1.64541px"
       id="path88033" />
    <path
       d="m 1158.9809,693.03566 h 73.808 v 0 9.9e-4 0 73.70101 h -10e-4 v 0 0 h -73.807 v 0 0 -0.002 z"
       style="fill:#533840;fill-opacity:1;stroke-width:1.64541px"
       id="path88035" />
    <path
       d="m 1158.9809,766.73965 h 73.808 v 0 10e-4 0.001 73.7 h -10e-4 v 0 0 h -73.807 v 0 0 -10e-4 z"
       style="fill:#623337;fill-opacity:1;stroke-width:1.64541px"
       id="path88037" />
    <path
       d="m 1232.7909,471.92365 h 73.808 v 0 10e-4 0.001 73.7 h -10e-4 v 0 0 h -73.807 v 0 0 -10e-4 z"
       style="fill:#264d64;fill-opacity:1;stroke-width:1.64541px"
       id="path88382" />
    <path
       d="m 1232.7909,545.62765 h 73.808 v 10e-4 0 10e-4 73.7 h -10e-4 v 0 0 h -73.807 v 0 0 -9.9e-4 z"
       style="fill:#38475a;fill-opacity:1;stroke-width:1.64541px"
       id="path88384" />
    <path
       d="m 1232.7909,619.33165 h 73.808 v 0 10e-4 0 73.701 h -10e-4 v 0 0 h -73.807 v 0 -10e-4 -10e-4 z"
       style="fill:#4a414f;fill-opacity:1;stroke-width:1.64541px"
       id="path88386" />
    <path
       d="m 1232.7909,693.03566 h 73.808 v 9.9e-4 0 0 73.70101 0 h -10e-4 -10e-4 -73.806 v 0 0 -0.002 z"
       style="fill:#5b3b45;fill-opacity:1;stroke-width:1.64541px"
       id="path88388" />
    <path
       d="m 1232.7909,766.73965 h 73.808 v 10e-4 0 0.001 73.7 0 h -10e-4 -10e-4 -73.806 v 0 0 -10e-4 z"
       style="fill:#6d353a;fill-opacity:1;stroke-width:1.64541px"
       id="path88390" />
    <path
       d="m 1306.6009,471.92365 h 73.809 v 0 10e-4 0.001 73.7 0 0 0 h -73.807 v -10e-4 0 0 z"
       style="fill:#26536e;fill-opacity:1;stroke-width:1.64541px"
       id="path88747" />
    <path
       d="m 1306.6009,545.62765 h 73.809 v 10e-4 0 10e-4 73.7 0 0 0 h -73.807 v 0 -9.9e-4 0 z"
       style="fill:#3a4c62;fill-opacity:1;stroke-width:1.64541px"
       id="path88749" />
    <path
       d="m 1306.6009,619.33165 h 73.809 v 0 10e-4 0 73.701 0 0 0 h -73.807 v -10e-4 0 -10e-4 z"
       style="fill:#4e4555;fill-opacity:1;stroke-width:1.64541px"
       id="path88751" />
    <path
       d="m 1306.6009,693.03566 h 73.809 v 9.9e-4 0 0 73.70101 0 0 0 h -73.807 v 0 -10e-4 -10e-4 z"
       style="fill:#623d49;fill-opacity:1;stroke-width:1.64541px"
       id="path88753" />
    <path
       d="m 1306.6009,766.73965 h 73.809 v 10e-4 0 0.001 73.7 0 0 0 h -73.807 v 0 0 -10e-4 z"
       style="fill:#76363c;fill-opacity:1;stroke-width:1.64541px"
       id="path88755" />
    <path
       d="m 1380.4119,471.92365 h 73.808 v 0 10e-4 0.001 73.7 h -10e-4 v 0 h -10e-4 -73.806 v -10e-4 0 0 z"
       style="fill:#265a78;fill-opacity:1;stroke-width:1.64541px"
       id="path89124" />
    <path
       d="m 1380.4119,545.62765 h 73.808 v 10e-4 0 10e-4 73.7 h -10e-4 v 0 h -10e-4 -73.806 v 0 -9.9e-4 0 z"
       style="fill:#3d526a;fill-opacity:1;stroke-width:1.64541px"
       id="path89126" />
    <path
       d="m 1380.4119,619.33165 h 73.808 v 0 10e-4 0 73.701 h -10e-4 v 0 h -10e-4 -73.806 v -10e-4 0 -10e-4 z"
       style="fill:#54495c;fill-opacity:1;stroke-width:1.64541px"
       id="path89128" />
    <path
       d="m 1380.4119,693.03566 h 73.808 v 9.9e-4 0 0 73.70101 h -10e-4 v 0 h -10e-4 -73.806 v 0 -10e-4 -10e-4 z"
       style="fill:#6a414d;fill-opacity:1;stroke-width:1.64541px"
       id="path89130" />
    <path
       d="m 1380.4119,766.73965 h 73.808 v 10e-4 0 0.001 73.7 h -10e-4 v 0 h -10e-4 -73.806 v 0 0 -10e-4 z"
       style="fill:#81383f;fill-opacity:1;stroke-width:1.64541px"
       id="path89132" />
    <path
       d="m 1454.2219,471.92365 h 73.809 v 0 10e-4 0.001 73.7 h -10e-4 v 0 h -10e-4 -73.807 v -10e-4 0 -10e-4 z"
       style="fill:#276082;fill-opacity:1;stroke-width:1.64541px"
       id="path89513" />
    <path
       d="m 1454.2219,545.62765 h 73.809 v 10e-4 0 10e-4 73.7 h -10e-4 v 0 h -10e-4 -73.807 v -9.9e-4 0 0 z"
       style="fill:#405672;fill-opacity:1;stroke-width:1.64541px"
       id="path89515" />
    <path
       d="m 1454.2219,619.33165 h 73.809 v 0 10e-4 0 73.701 h -10e-4 v 0 h -10e-4 -73.807 v -10e-4 0 -10e-4 z"
       style="fill:#594d62;fill-opacity:1;stroke-width:1.64541px"
       id="path89517" />
    <path
       d="m 1454.2219,693.03566 h 73.809 v 9.9e-4 0 0 73.70101 h -10e-4 v 0 h -10e-4 -73.807 v -10e-4 0 -10e-4 z"
       style="fill:#724352;fill-opacity:1;stroke-width:1.64541px"
       id="path89519" />
    <path
       d="m 1454.2219,766.73965 h 73.809 v 10e-4 0 0.001 73.7 h -10e-4 v 0 h -10e-4 -73.807 v -10e-4 0 0 z"
       style="fill:#8b3942;fill-opacity:1;stroke-width:1.64541px"
       id="path89521" />
    <path
       d="m 1528.0329,471.92274 h 73.809 v 0 73.70199 h -10e-4 -73.808 v 0 z"
       style="fill:#27678d;fill-opacity:1;stroke-width:1.64541px"
       id="path89914" />
    <path
       d="m 1528.0329,545.62673 h 73.809 v 0.001 73.70201 h -10e-4 -73.808 v -10e-4 z"
       style="fill:#435c7b;fill-opacity:1;stroke-width:1.64541px"
       id="path89916" />
    <path
       d="m 1528.0329,619.33176 h 73.808 v 0 73.702 0 h -73.808 v -10e-4 z"
       style="fill:#5f5169;fill-opacity:1;stroke-width:1.64541px"
       id="path89918" />
    <path
       d="m 1528.0329,693.03575 h 73.808 v 9.9e-4 73.70101 h -10e-4 -73.807 v 0 z"
       style="fill:#7a4657;fill-opacity:1;stroke-width:1.64541px"
       id="path89920" />
    <path
       d="m 1528.0329,766.73974 h 73.808 v 10e-4 73.702 h -10e-4 -73.807 v -10e-4 z"
       style="fill:#963b45;fill-opacity:1;stroke-width:1.64541px"
       id="path89922" />
  </g>
  <g
     inkscape:groupmode="layer"
     id="g13192"
     inkscape:label="Layer 1 copy"
     style="display:none"
     sodipodi:insensitive="true">
    <path
       id="path13176"
       style="opacity:0.709621;fill:#254151;stroke-width:9.33177;stop-color:#000000"
       d="m 1694.3916,195.43092 c -51.3871,-0.13921 -103.0265,4.5655 -154.1895,14.25458 -204.6519,38.75631 -384.9169,154.09137 -501.2812,321.00596 -31.8329,45.6617 -57.9269,94.1814 -78.5156,144.5048 H 2424.0498 C 2365.9313,533.02446 2264.1167,409.93872 2130.3584,323.66056 2000.4411,239.85989 1848.5528,195.84857 1694.3916,195.43092 Z"
       inkscape:label="curve7" />
    <path
       id="path13178"
       style="opacity:0.709621;fill:#26475b;stroke-width:9.33177;stop-color:#000000"
       d="m 553.84493,267.8958 c -51.3871,-0.13921 -103.0265,4.5655 -154.1895,14.25458 -204.65187,38.75631 -384.91687,154.09137 -501.28117,321.00606 -31.8329,45.6617 -57.9269,94.1814 -78.5156,144.5047 H 1283.5031 C 1225.3846,605.48944 1123.57,482.4036 989.81173,396.12544 859.89443,312.32477 708.00613,268.31345 553.84493,267.8958 Z"
       inkscape:label="curve6" />
    <path
       id="path13180"
       style="opacity:0.709621;fill:#264d64;stroke-width:9.33177;stop-color:#000000"
       d="m 1233.1131,325.89583 c -51.3871,-0.13921 -103.0265,4.5655 -154.1895,14.25458 -204.65197,38.75631 -384.9169,154.09137 -501.2812,321.00599 -31.8329,45.6617 -57.9269,94.1814 -78.5156,144.5047 H 1962.7713 C 1904.6528,663.4894 1802.8382,540.40363 1669.0799,454.12547 1539.1626,370.3248 1387.2743,326.31348 1233.1131,325.89583 Z"
       inkscape:label="curve5" />
    <path
       id="path13182"
       style="opacity:0.709621;fill:#26536e;stroke-width:9.33177;stop-color:#000000"
       d="m 1912.3813,385.89584 c -51.3871,-0.13921 -103.0265,4.5655 -154.1895,14.25458 -204.6519,38.75631 -384.9169,154.09137 -501.2812,321.00597 -31.8329,45.6617 -57.9269,94.1814 -78.5156,144.5047 H 2642.0395 C 2583.921,723.48939 2482.1064,600.40364 2348.3481,514.12548 2218.4308,430.32481 2066.5425,386.31349 1912.3813,385.89584 Z"
       inkscape:label="curve4" />
    <path
       id="path13184"
       style="opacity:0.709621;fill:#265a78;stroke-width:9.33177;stop-color:#000000"
       d="m 906.17836,475.76091 c -51.3871,-0.13921 -103.0265,4.5655 -154.1895,14.25458 -204.6519,38.75631 -384.91691,154.09137 -501.28121,321.00596 -31.8329,45.66175 -57.9269,94.18135 -78.5156,144.50475 H 1635.8366 C 1577.7181,813.35445 1475.9035,690.26869 1342.1452,603.99055 1212.2279,520.18988 1060.3396,476.17856 906.17836,475.76091 Z"
       inkscape:label="curve3" />
    <path
       id="path13186"
       style="opacity:0.709621;fill:#276082;stroke-width:9.33177;stop-color:#000000"
       d="m 1565.8173,553.76093 c -51.3871,-0.13921 -103.0265,4.56551 -154.1895,14.25458 -204.6519,38.75631 -384.917,154.09137 -501.28127,321.00594 -31.8329,45.66175 -57.9269,94.18135 -78.5156,144.50475 H 2295.4755 C 2237.3569,891.35445 2135.5424,768.26873 2001.7841,681.99057 1871.8668,598.18991 1719.9785,554.17858 1565.8173,553.76093 Z"
       inkscape:label="curve2" />
    <path
       id="path13188"
       style="opacity:0.709621;fill:#27678d;stroke-width:9.33177;stop-color:#000000"
       d="m 2225.4562,633.76089 c -51.3871,-0.13921 -103.0265,4.5655 -154.1895,14.25458 -204.6519,38.75631 -384.9169,154.09137 -501.2812,321.00598 -31.8329,45.66175 -57.9269,94.18135 -78.5156,144.50475 H 2955.1143 C 2896.9958,971.35445 2795.1812,848.26869 2661.4229,761.99053 2531.5056,678.18986 2379.6174,634.17854 2225.4562,633.76089 Z"
       inkscape:label="curve1" />
    <path
       id="path13190"
       style="display:inline;fill:#354252;fill-opacity:1;fill-rule:evenodd;stroke-width:1.20761"
       d="M -880,0 V 1200 H 1920 V 0 Z m 560,240 H 1360 V 960 H -320 Z"
       transform="translate(880)" />
  </g>
  <g
     inkscape:groupmode="layer"
     id="g14532"
     inkscape:label="Layer 1 copy 1"
     sodipodi:insensitive="true"
     style="display:none">
    <path
       id="path14516"
       style="opacity:1;fill:url(#radialGradient13483);fill-opacity:1;stroke-width:9.33177;stop-color:#000000"
       d="m 1734.3916,195.43092 c -51.3871,-0.13921 -103.0265,4.5655 -154.1895,14.25458 -204.6519,38.75631 -384.9169,154.09137 -501.2812,321.00596 -31.8329,45.6617 -57.9269,94.1814 -78.5156,144.5048 l 3.1982,519.51684 757.7901,5.2869 h 706.3281 l -3.6719,-524.80374 C 2405.9313,533.02446 2304.1167,409.93872 2170.3584,323.66056 2040.4411,239.85989 1888.5528,195.84857 1734.3916,195.43092 Z"
       inkscape:label="curve7"
       sodipodi:nodetypes="ssscccccss" />
    <path
       id="path14518"
       style="opacity:1;fill:url(#radialGradient13473);fill-opacity:1;stroke-width:9.69438;stop-color:#000000"
       d="m 588.5344,269.59145 c -55.45826,-0.13921 -111.18881,4.5655 -166.40522,14.25458 -220.86549,38.75631 -415.412048,154.09137 -540.99535,321.00606 -34.35487,45.6617 -62.51618,94.1814 -84.73603,144.5047 l -7.34431,447.05291 781.13226,5.286 H 1376 V 749.3568 C 1313.277,607.18509 1203.3961,484.09925 1059.0408,397.8211 918.83078,314.02042 754.90908,270.0091 588.5344,269.59145 Z"
       inkscape:label="curve6"
       sodipodi:nodetypes="ssscccccss" />
    <path
       id="path14520"
       style="opacity:1;fill:url(#radialGradient13463);fill-opacity:1;stroke-width:9.33177;stop-color:#000000"
       d="m 1233.1131,325.89583 c -51.3871,-0.13921 -103.0265,4.5655 -154.1895,14.25458 -204.65197,38.75631 -384.9169,154.09137 -501.2812,321.00599 -31.8329,45.6617 -57.9269,94.1814 -78.5156,144.5047 L 536.84325,1200 h 746.65985 665.8952 l 13.373,-394.3389 C 1904.6528,663.4894 1802.8382,540.40363 1669.0799,454.12547 1539.1626,370.3248 1387.2743,326.31348 1233.1131,325.89583 Z"
       inkscape:label="curve5"
       sodipodi:nodetypes="ssscccccss" />
    <path
       id="path14522"
       style="opacity:1;fill:url(#radialGradient13453);fill-opacity:1;stroke-width:9.33177;stop-color:#000000"
       d="m 1912.3813,385.89584 c -51.3871,-0.13921 -103.0265,4.5655 -154.1895,14.25458 -204.6519,38.75631 -384.9169,154.09137 -501.2812,321.00597 -31.8329,45.6617 -57.9269,94.1814 -78.5156,144.5047 L 1192.257,1200 h 757.1413 697.4211 l -4.7799,-334.33891 C 2583.921,723.48939 2482.1064,600.40364 2348.3481,514.12548 2218.4308,430.32481 2066.5425,386.31349 1912.3813,385.89584 Z"
       inkscape:label="curve4"
       sodipodi:nodetypes="ssscccccss" />
    <path
       id="path14524"
       style="opacity:1;fill:url(#radialGradient13443);fill-opacity:1;stroke-width:9.81874;stop-color:#000000"
       d="M 886.26394,495.76091 C 829.37363,495.6217 772.20401,500.32641 715.5618,510.01549 488.99311,548.7718 289.42298,664.10686 160.59686,831.02145 125.35488,876.6832 96.4664,925.2028 73.67279,975.5262 H 1694.0635 C 1629.7209,833.35445 1517.0027,710.26869 1368.9198,623.99055 1225.0892,540.18988 1056.9347,496.17856 886.26394,495.76091 Z"
       inkscape:label="curve3" />
    <path
       id="path14526"
       style="opacity:1;fill:url(#radialGradient13433);fill-opacity:1;stroke-width:9.63408;stop-color:#000000"
       d="m 1493.7765,583.76093 c -54.7705,-0.13921 -109.8098,4.56551 -164.3414,14.25458 -218.1262,38.75631 -410.26,154.09137 -534.28572,321.00594 -33.92878,45.66175 -61.74082,94.18135 -83.68508,144.50475 H 2271.4755 C 2209.5304,921.35445 2101.0124,798.26873 1958.4474,711.99057 1819.9763,628.18991 1658.0877,584.17858 1493.7765,583.76093 Z"
       inkscape:label="curve2" />
    <path
       id="path14528"
       style="opacity:1;fill:url(#radialGradient13423);fill-opacity:1;stroke-width:9.33177;stop-color:#000000"
       d="m 2225.4562,673.76089 c -51.3871,-0.13921 -103.0265,4.5655 -154.1895,14.25458 -204.6519,38.75631 -384.9169,154.09137 -501.2812,321.00603 -31.8329,45.6617 -57.9269,94.1813 -78.5156,144.5047 H 2955.1143 C 2896.9958,1011.3545 2795.1812,888.26869 2661.4229,801.99053 2531.5056,718.18986 2379.6174,674.17854 2225.4562,673.76089 Z"
       inkscape:label="curve1" />
    <path
       id="path14530"
       style="display:inline;fill:#354252;fill-opacity:1;fill-rule:evenodd;stroke-width:1.20761"
       d="M -880,0 V 1200 H 1920 V 0 Z m 560,240 H 1360 V 960 H -320 Z"
       transform="translate(880)" />
  </g>
  <g
     inkscape:groupmode="layer"
     id="layer1"
     inkscape:label="Layer 1"
     style="display:inline">
    <path
       id="path12867-93"
       style="fill:url(#radialGradient14947);fill-opacity:1;stroke-width:15.5529;stop-color:#000000"
       inkscape:label="curve7"
       d="M 1510.485,-2e-6 C 1379.6294,45.207041 1343.2925,85.747201 1234.2312,167.41129 1125.17,249.07538 930.5907,331.95477 852.07622,444.57706 799.02132,520.67976 768.32484,641.45328 734.01034,725.32553 L 736.93034,1200 H 2800 V 223.76954 c 4.1828,-81.24127 62.197,-204.096495 21.6917,-230.2236248 C 2731.4495,-64.663015 2493.5966,-11.696617 2396.4389,-2e-6 Z"
       sodipodi:nodetypes="cssccccscc" />
    <path
       id="path12867-0"
       style="fill:url(#radialGradient14949);fill-opacity:1;stroke-width:16.1573;stop-color:#000000"
       inkscape:label="curve6"
       d="M 47.558593,49.319666 C 31.720626,49.279908 15.857992,49.805399 -8e-6,50.240882 V 1200 H 1360 V 848.92905 C 1307.731,730.45274 1080.5284,568.11897 991.60338,469.23884 902.67841,370.35872 843.93969,309.88522 723.64369,237.98683 606.8021,168.15306 482.91872,192.12908 350.74637,156.24598 218.57402,120.36288 186.20402,49.667707 47.558593,49.319666 Z"
       sodipodi:nodetypes="sccccssss" />
    <path
       id="path12867-7"
       style="fill:url(#radialGradient14951);fill-opacity:1;stroke-width:15.5529;stop-color:#000000"
       inkscape:label="curve5"
       d="M 1243.2315,222.74162 C 1053.1242,206.57984 1013.7374,150.5193 824.56982,180.07602 671.46711,203.99774 649.45377,259.78917 507.79583,315.78257 358.78442,374.68259 277.06862,342.8818 169.12349,428.55121 63.622767,512.28064 9.5493089,731.69381 -8e-6,746.75783 V 1200 L 2455.6652,1190.9458 2404.1353,961.46469 C 2379.9193,902.22654 2283.6581,705.42511 2218.889,635.17919 2154.12,564.93327 2045.2539,513.20955 1949.4007,445.14222 1862.4043,383.36428 1773.5243,273.36203 1608.8304,239.524 c -170.6605,-35.06394 -163.8201,0.37164 -365.5989,-16.78238 z"
       sodipodi:nodetypes="ssssccccssss" />
    <path
       id="path12867-2"
       style="fill:url(#radialGradient14953);fill-opacity:1;stroke-width:15.5529;stop-color:#000000"
       inkscape:label="curve4"
       d="m 2253.9682,243.1608 c -167.3891,2.2663 -212.8237,48.08161 -337.0127,87.22566 -155.6393,49.05708 -222.5251,10.934 -345.5412,85.37032 -113.7233,68.81328 -169.384,128.94767 -327.6405,199.64065 -97.3284,43.47647 -97.4392,173.15208 -179.1776,268.43702 C 982.85783,979.11939 834.88688,1106.273 787.98097,1211.0877 L 2800,1200 l 3.5453,-878.3021 c -72.8694,-12.91804 -105.0444,1.3145 -226.027,-24.63627 -140.2818,-30.09045 -166.6402,-56.02525 -323.5501,-53.90083 z"
       sodipodi:nodetypes="ssssscccss" />
    <path
       id="path12867-9"
       style="fill:url(#radialGradient23796);fill-opacity:1;stroke-width:18.2255;stop-color:#000000"
       inkscape:label="curve2"
       d="M 1653.3742,454.74749 C 1515.4,434.46513 1441.0699,482.32496 1305.4679,522.67373 1186.8643,557.96456 1091.8515,503.84142 964.15763,579.61856 825.82176,661.71096 847.51558,703.2569 737.98905,799.40927 631.23294,893.12951 530.69245,901.11496 429.64203,1009.7451 354.58991,1090.4269 351.5443,1144.4378 262.80606,1212.364 l 2505.80974,11.6473 C 2714.3865,1118.2431 2619.3674,1050.0374 2545.3139,965.64285 2455.9936,863.84936 2407.7029,738.1183 2309.306,669.81898 2188.7254,586.12149 2099.236,597.60566 1969.7382,556.77158 1849.8817,518.97766 1800.8424,476.42545 1653.3742,454.74749 Z"
       sodipodi:nodetypes="sssssccssss" />
    <path
       id="path12867-1"
       style="display:inline;fill:url(#radialGradient23806);fill-opacity:1;stroke-width:16.3646;stop-color:#000000"
       inkscape:label="curve3"
       d="M 572.29805,478.90805 C 478.00258,468.97331 372.75047,470.39036 276.97629,470.0496 173.96324,469.68309 97.570134,441.44119 4.9843477,418.02172 L -8e-6,1200 1960.1785,1207.8312 C 1905.6909,1094.8493 1712.9435,1012.4099 1623.898,917.96596 1534.8525,823.52199 1479.0213,759.94108 1360.15,690.68262 1240.2913,620.84885 1095.9306,633.6482 960.34479,597.76511 824.75908,561.88201 717.53093,494.20943 572.29805,478.90805 Z"
       sodipodi:nodetypes="sscccssss" />
    <path
       id="path12867"
       style="fill:url(#radialGradient14959);fill-opacity:1;stroke-width:15.5529;stop-color:#000000"
       inkscape:label="curve1"
       d="M 2518.7794,746.69271 C 2365.4969,775.51987 2277.5392,876.14404 2146.7435,952.97543 2015.9478,1029.8068 1842.3507,1083.0395 1745.8139,1200 H 2800 l 1.0436,-449.10398 c -95.2733,-0.71341 -200.8394,-19.51652 -282.2642,-4.20331 z"
       sodipodi:nodetypes="sscccs" />
  </g>
  <g
     inkscape:groupmode="layer"
     id="g20764"
     inkscape:label="Layer 1 copy 2"
     style="display:none"
     sodipodi:insensitive="true">
    <g
       id="g21788">
      <path
         id="path20750"
         style="display:inline;opacity:1;fill:#25343c;fill-opacity:1;stroke-width:15.5529;stop-color:#000000"
         inkscape:label="curve7"
         d="M 1510.485,-2e-6 C 1379.6294,45.207041 1343.2925,85.747201 1234.2312,167.41129 1125.17,249.07538 930.5907,331.95477 852.07622,444.57706 799.02132,520.67976 768.32484,641.45328 734.01034,725.32553 L 736.93034,1200 H 2800 V 223.76954 C 2757.4797,207.61855 2739.4992,136.79383 2698.9939,110.6667 2608.7517,52.45777 2497.0252,34.712565 2396.4389,-2e-6 Z"
         sodipodi:nodetypes="cssccccscc" />
      <g
         id="g23451">
        <path
           id="path20766"
           style="display:inline;opacity:1;fill:url(#linearGradient23459);fill-opacity:1;stroke-width:15.5529;stop-color:#000000"
           inkscape:label="tile7"
           d="m 1510.4844,0 c -130.8553,45.206908 -167.1929,85.748264 -276.2539,167.41211 -20.0944,15.04643 -43.1303,30.13899 -67.7676,45.44727 23.0555,3.87764 47.7642,7.41694 76.7695,9.88281 201.7784,17.15398 254.3288,-16.81507 408.4512,42.24219 70.4326,26.98868 115.212,57.90041 151.6035,90.8164 32.3913,-4.51833 68.5986,-11.20832 113.668,-25.41406 124.1889,-39.14401 169.6247,-84.96027 337.0137,-87.22656 156.9097,-2.12442 183.2671,23.81192 323.5488,53.90234 118.8942,25.50281 152.2136,12.32939 222.4824,24.12305 V 223.76953 C 2793.5349,153.31876 2851.736,17.716249 2811.2307,-8.410791 2720.9888,-66.619559 2501.3923,-0.2269323 2396.4395,0 Z"
           sodipodi:nodetypes="cscsscsssccscc" />
        <path
           id="path23461"
           style="display:inline;opacity:1;fill:url(#linearGradient23463);fill-opacity:1;stroke-width:15.5529;stop-color:#000000"
           inkscape:label="tile7"
           d="m 1510.4844,0 c -130.8553,45.206908 -167.1929,85.748264 -276.2539,167.41211 -20.0944,15.04643 -43.1303,30.13899 -67.7676,45.44727 23.0555,3.87764 47.7642,7.41694 76.7695,9.88281 201.7784,17.15398 254.3288,-16.81507 408.4512,42.24219 70.4326,26.98868 115.212,57.90041 151.6035,90.8164 32.3913,-4.51833 68.5986,-11.20832 113.668,-25.41406 124.1889,-39.14401 169.6247,-84.96027 337.0137,-87.22656 156.9097,-2.12442 183.2671,23.81192 323.5488,53.90234 118.8942,25.50281 152.2136,12.32939 222.4824,24.12305 V 223.76953 C 2793.5349,153.31876 2851.736,17.716249 2811.2307,-8.410791 2720.9888,-66.619559 2501.3923,-0.2269323 2396.4395,0 Z"
           sodipodi:nodetypes="cscsscsssccscc" />
        <path
           id="path23465"
           style="display:inline;opacity:1;fill:url(#linearGradient23467);fill-opacity:1;stroke-width:15.5529;stop-color:#000000"
           inkscape:label="tile7"
           d="m 1510.4844,0 c -130.8553,45.206908 -167.1929,85.748264 -276.2539,167.41211 -20.0944,15.04643 -43.1303,30.13899 -67.7676,45.44727 23.0555,3.87764 47.7642,7.41694 76.7695,9.88281 201.7784,17.15398 254.3288,-16.81507 408.4512,42.24219 70.4326,26.98868 115.212,57.90041 151.6035,90.8164 32.3913,-4.51833 68.5986,-11.20832 113.668,-25.41406 124.1889,-39.14401 169.6247,-84.96027 337.0137,-87.22656 156.9097,-2.12442 183.2671,23.81192 323.5488,53.90234 118.8942,25.50281 152.2136,12.32939 222.4824,24.12305 V 223.76953 C 2793.5349,153.31876 2851.736,17.716249 2811.2307,-8.410791 2720.9888,-66.619559 2501.3923,-0.2269323 2396.4395,0 Z"
           sodipodi:nodetypes="cscsscsssccscc" />
      </g>
    </g>
    <g
       id="g21784">
      <path
         id="path20752"
         style="display:inline;opacity:1;fill:#263a47;fill-opacity:1;stroke-width:16.1573;stop-color:#000000"
         inkscape:label="curve6"
         d="M 47.558593,49.319666 C 31.720626,49.279908 15.857992,49.805399 -8e-6,50.240882 V 1200 H 1360 V 848.92905 C 1307.731,730.45274 1144.3757,601.15347 1055.4507,502.27334 966.52573,403.39322 886.93593,303.02093 766.63993,231.12254 649.79834,161.28877 489.2476,165.72887 357.07525,129.84577 224.9029,93.962677 186.20402,49.667707 47.558593,49.319666 Z"
         sodipodi:nodetypes="sccccssss" />
      <g
         id="g23434">
        <path
           id="path20794"
           style="display:inline;opacity:1;fill:url(#linearGradient23442);fill-opacity:1;stroke-width:16.1573;stop-color:#000000"
           inkscape:label="tile6"
           d="M 47.558594,49.320312 C 31.720659,49.280556 15.857968,49.804753 0,50.240234 V 516.94922 C 45.084148,501.25407 83.071151,495.46726 122.39453,491 c 5.82103,-6.65192 11.68956,-12.7182 17.64063,-17.29688 C 249.25767,389.66858 358.78366,374.68316 507.79492,315.7832 608.95515,275.79741 649.27459,235.97969 719.7168,207.73242 609.11109,161.79765 472.31568,161.13176 357.07617,129.8457 224.90408,93.962685 186.20374,49.668353 47.558594,49.320312 Z" />
        <path
           id="path23444"
           style="display:inline;opacity:1;fill:url(#linearGradient23446);fill-opacity:1;stroke-width:16.1573;stop-color:#000000"
           inkscape:label="tile6"
           d="M 47.558594,49.320312 C 31.720659,49.280556 15.857968,49.804753 0,50.240234 V 516.94922 C 45.084148,501.25407 83.071151,495.46726 122.39453,491 c 5.82103,-6.65192 11.68956,-12.7182 17.64063,-17.29688 C 249.25767,389.66858 358.78366,374.68316 507.79492,315.7832 608.95515,275.79741 649.27459,235.97969 719.7168,207.73242 609.11109,161.79765 472.31568,161.13176 357.07617,129.8457 224.90408,93.962685 186.20374,49.668353 47.558594,49.320312 Z" />
      </g>
    </g>
    <g
       id="g21780">
      <path
         id="path20754"
         style="display:inline;opacity:1;fill:#254151;fill-opacity:1;stroke-width:15.5529;stop-color:#000000"
         inkscape:label="curve5"
         d="M 1243.2315,222.74162 C 1053.1242,206.57984 1013.7374,150.5193 824.56982,180.07602 671.46711,203.99774 649.45377,259.78917 507.79583,315.78257 358.78442,374.68259 249.25868,389.66857 140.03606,473.7032 71.469367,526.45762 9.5493089,731.69381 -8e-6,746.75783 V 1200 H 2329.2285 l 8.724,-257.23305 C 2313.7365,883.5288 2230.1904,740.5943 2165.4213,670.34838 2100.6523,600.10246 2014.6279,562.80764 1927.7801,483.57095 1840.7837,404.19869 1808.6852,325.14485 1651.6828,264.98401 1497.5602,205.92665 1445.0103,239.89564 1243.2315,222.74162 Z"
         sodipodi:nodetypes="ssssccccssss" />
      <g
         id="g23416">
        <path
           id="path21020"
           style="display:inline;opacity:1;fill:url(#linearGradient23424);fill-opacity:1;stroke-width:15.5529;stop-color:#000000"
           inkscape:label="tile5b"
           d="m 917.16016,171.65234 c -26.91822,0.3493 -57.12105,2.88198 -92.58985,8.42383 -43.7693,6.83879 -76.65312,16.34792 -104.85351,27.65625 16.25112,6.74919 31.95577,14.44453 46.92382,23.39063 120.29588,71.89831 199.88567,172.27037 288.81058,271.15039 17.4448,19.39773 38.2035,40.22465 59.9765,61.65234 74.8819,15.02238 148.9736,32.91089 212.0078,64.85938 26.4396,-6.50288 53.0807,-13.00823 79.9024,-18.875 54.5852,-75.09825 85.0163,-138.95371 175.084,-193.45313 87.3925,-52.88071 141.398,-49.57168 220.8633,-60.65625 -36.3918,-32.91589 -81.1696,-63.82794 -151.6016,-90.8164 -154.1222,-59.05716 -206.6732,-25.08825 -408.4512,-42.24219 -154.4614,-13.13141 -209.4267,-52.60344 -326.07224,-51.08985 z" />
        <path
           id="path23426"
           style="display:inline;opacity:1;fill:url(#linearGradient23428);fill-opacity:1;stroke-width:15.5529;stop-color:#000000"
           inkscape:label="tile5b"
           d="m 917.16016,171.65234 c -26.91822,0.3493 -57.12105,2.88198 -92.58985,8.42383 -43.7693,6.83879 -76.65312,16.34792 -104.85351,27.65625 16.25112,6.74919 31.95577,14.44453 46.92382,23.39063 120.29588,71.89831 199.88567,172.27037 288.81058,271.15039 17.4448,19.39773 38.2035,40.22465 59.9765,61.65234 74.8819,15.02238 148.9736,32.91089 212.0078,64.85938 26.4396,-6.50288 53.0807,-13.00823 79.9024,-18.875 54.5852,-75.09825 85.0163,-138.95371 175.084,-193.45313 87.3925,-52.88071 141.398,-49.57168 220.8633,-60.65625 -36.3918,-32.91589 -81.1696,-63.82794 -151.6016,-90.8164 -154.1222,-59.05716 -206.6732,-25.08825 -408.4512,-42.24219 -154.4614,-13.13141 -209.4267,-52.60344 -326.07224,-51.08985 z" />
      </g>
      <g
         id="g23431">
        <path
           id="path22022"
           style="display:inline;opacity:1;fill:#26475b;fill-opacity:1;stroke-width:15.5529;stop-color:#000000"
           inkscape:label="tile5a"
           d="M 719.7168,207.73242 C 649.27412,235.97987 608.95485,275.79754 507.79492,315.7832 358.78411,374.68298 249.25734,389.66885 140.03516,473.70312 134.08362,478.28217 128.2121,484.34741 122.39062,491 c 33.33773,-3.78772 67.57339,-6.63766 108.54688,-13.64648 94.40341,-16.14843 218.01903,-51.31602 312.83594,-51.08399 142.22525,0.34804 245.29347,61.9529 380.8789,97.83594 59.59186,15.77112 125.48816,26.72275 190.77536,39.82031 -21.773,-21.42769 -42.5317,-42.25461 -59.9765,-61.65234 -88.92491,-98.88002 -168.5147,-199.25208 -288.81058,-271.15039 -14.96805,-8.9461 -30.6727,-16.64144 -46.92382,-23.39063 z" />
      </g>
    </g>
    <g
       id="g21776">
      <path
         id="path20756"
         style="display:inline;opacity:1;fill:#26475b;fill-opacity:1;stroke-width:15.5529;stop-color:#000000"
         inkscape:label="curve4"
         d="m 2253.9682,243.1608 c -167.3891,2.2663 -212.8237,48.08161 -337.0127,87.22566 -155.6393,49.05708 -211.5176,11.63334 -334.5337,86.06966 -113.7233,68.81328 -131.6793,152.23575 -224.2821,254.84001 -71.4203,79.13381 -171.4743,115.49421 -253.2127,210.77915 C 1023.1886,977.36022 986.97109,1095.1853 940.06518,1200 H 2800 l 3.5453,-878.3021 c -72.8694,-12.91804 -105.0444,1.3145 -226.027,-24.63627 -140.2818,-30.09045 -166.6402,-56.02525 -323.5501,-53.90083 z"
         sodipodi:nodetypes="ssssscccss" />
      <g
         id="g23086">
        <path
           id="path20777"
           style="display:inline;opacity:1;fill:url(#linearGradient23094);fill-opacity:1;stroke-width:15.5529;stop-color:#000000"
           inkscape:label="tile4b"
           d="m 2281.9199,243.08398 c -8.8466,-0.0806 -18.1444,-0.0566 -27.9511,0.0762 -167.3888,2.26627 -212.825,48.08263 -337.0137,87.22656 -44.8389,14.13307 -80.9121,20.82939 -113.1817,25.34961 44.7066,40.44666 76.0524,84.08299 124.0059,127.83398 86.8477,79.23661 172.8736,116.5315 237.6426,186.77735 15.8284,17.1669 32.7835,38.75743 49.7148,62.32422 29.8358,8.9742 60.4179,20.85989 93.3321,38.6582 19.6377,10.61915 37.1441,23.12149 53.4023,36.85937 46.6103,-27.68915 96.693,-50.17167 156.9082,-61.49609 81.4246,-15.31319 186.9906,3.48973 282.2637,4.20312 L 2800,1200 l 3.5449,-878.30273 c -72.8691,-12.91801 -105.045,1.31591 -226.0273,-24.63477 -131.5139,-28.20971 -162.8989,-52.76934 -295.5977,-53.97852 z" />
        <path
           id="path23096"
           style="display:inline;opacity:1;fill:url(#linearGradient23098);fill-opacity:1;stroke-width:15.5529;stop-color:#000000"
           inkscape:label="tile4b"
           d="m 2281.9199,243.08398 c -8.8466,-0.0806 -18.1444,-0.0566 -27.9511,0.0762 -167.3888,2.26627 -212.825,48.08263 -337.0137,87.22656 -44.8389,14.13307 -80.9121,20.82939 -113.1817,25.34961 44.7066,40.44666 76.0524,84.08299 124.0059,127.83398 86.8477,79.23661 172.8736,116.5315 237.6426,186.77735 15.8284,17.1669 32.7835,38.75743 49.7148,62.32422 29.8358,8.9742 60.4179,20.85989 93.3321,38.6582 19.6377,10.61915 37.1441,23.12149 53.4023,36.85937 46.6103,-27.68915 96.693,-50.17167 156.9082,-61.49609 81.4246,-15.31319 186.9906,3.48973 282.2637,4.20312 L 2800,1200 l 3.5449,-878.30273 c -72.8691,-12.91801 -105.045,1.31591 -226.0273,-24.63477 -131.5139,-28.20971 -162.8989,-52.76934 -295.5977,-53.97852 z" />
        <path
           id="path23100"
           style="display:inline;opacity:1;fill:url(#linearGradient23102);fill-opacity:1;stroke-width:15.5529;stop-color:#000000"
           inkscape:label="tile4b"
           d="m 2281.9199,243.08398 c -8.8466,-0.0806 -18.1444,-0.0566 -27.9511,0.0762 -167.3888,2.26627 -212.825,48.08263 -337.0137,87.22656 -44.8389,14.13307 -80.9121,20.82939 -113.1817,25.34961 44.7066,40.44666 76.0524,84.08299 124.0059,127.83398 86.8477,79.23661 172.8736,116.5315 237.6426,186.77735 15.8284,17.1669 32.7835,38.75743 49.7148,62.32422 29.8358,8.9742 60.4179,20.85989 93.3321,38.6582 19.6377,10.61915 37.1441,23.12149 53.4023,36.85937 46.6103,-27.68915 96.693,-50.17167 156.9082,-61.49609 81.4246,-15.31319 186.9906,3.48973 282.2637,4.20312 L 2800,1200 l 3.5449,-878.30273 c -72.8691,-12.91801 -105.045,1.31591 -226.0273,-24.63477 -131.5139,-28.20971 -162.8989,-52.76934 -295.5977,-53.97852 z" />
      </g>
      <g
         id="g23105">
        <path
           id="path21032"
           style="display:inline;opacity:1;fill:url(#linearGradient23113);fill-opacity:1;stroke-width:15.5529;stop-color:#000000"
           inkscape:label="tile4a"
           d="m 1803.2871,355.80078 c -79.467,11.08539 -133.4712,7.77468 -220.8652,60.65625 -90.0696,54.50058 -120.5022,118.35482 -175.0899,193.45508 83.3727,-18.23668 167.7281,-30.88754 247.7461,-22.02149 147.1163,16.30058 196.2142,67.9706 315.5059,96.88477 93.3022,22.61478 166.0548,24.13472 244.3867,47.67383 -16.8756,-23.47547 -33.7726,-44.9913 -49.5488,-62.10156 -64.769,-70.24585 -150.7949,-107.54074 -237.6426,-186.77735 -47.9688,-43.7649 -79.7629,-87.31205 -124.4922,-127.76953 z" />
        <path
           id="path23115"
           style="display:inline;opacity:1;fill:url(#linearGradient23117);fill-opacity:1;stroke-width:15.5529;stop-color:#000000"
           inkscape:label="tile4a"
           d="m 1803.2871,355.80078 c -79.467,11.08539 -133.4712,7.77468 -220.8652,60.65625 -90.0696,54.50058 -120.5022,118.35482 -175.0899,193.45508 83.3727,-18.23668 167.7281,-30.88754 247.7461,-22.02149 147.1163,16.30058 196.2142,67.9706 315.5059,96.88477 93.3022,22.61478 166.0548,24.13472 244.3867,47.67383 -16.8756,-23.47547 -33.7726,-44.9913 -49.5488,-62.10156 -64.769,-70.24585 -150.7949,-107.54074 -237.6426,-186.77735 -47.9688,-43.7649 -79.7629,-87.31205 -124.4922,-127.76953 z" />
      </g>
    </g>
    <g
       id="g21771">
      <path
         id="path20758"
         style="display:inline;opacity:1;fill:#264d64;fill-opacity:1;stroke-width:16.3646;stop-color:#000000"
         inkscape:label="curve3"
         d="M 543.77279,426.26954 C 448.9557,426.03751 325.34137,461.20426 230.93778,477.35271 141.63635,492.62841 83.303994,487.94924 -8e-6,516.94988 V 1200 H 1877.7409 C 1823.2533,1087.0181 1693.8692,1038.2995 1604.8237,943.85552 1515.7782,849.41155 1467.0712,709.24219 1348.1999,639.98373 1228.3412,570.14996 1060.2374,559.98922 924.65161,524.10613 789.0659,488.22303 685.99832,426.61758 543.77279,426.26954 Z"
         sodipodi:nodetypes="sscccssss" />
      <g
         id="g23067">
        <path
           id="path21517"
           style="display:inline;opacity:1;fill:url(#linearGradient23075);fill-opacity:1;stroke-width:16.3646;stop-color:#000000"
           inkscape:label="tile3"
           d="M 543.77344,426.26953 C 448.95644,426.0375 325.341,461.20508 230.9375,477.35352 141.63616,492.6292 83.303919,487.94861 0,516.94922 V 1200 h 345.02539 c 14.84916,-23.1091 29.1891,-46.8288 46.88867,-68.2969 84.599,-102.6113 142.04742,-106.0817 238.18555,-194.2656 93.32748,-85.60578 102.43279,-157.57473 241.85351,-221.81836 128.69528,-59.30145 239.75578,-35.48324 358.80468,-63.31445 31.4283,-7.3473 63.7601,-15.59175 96.3926,-23.67383 C 1209.1913,568.95661 1052.4888,557.93768 924.65234,524.10547 789.06677,488.2224 685.99883,426.61757 543.77344,426.26953 Z" />
        <path
           id="path23077"
           style="display:inline;opacity:1;fill:url(#linearGradient23079);fill-opacity:1;stroke-width:16.3646;stop-color:#000000"
           inkscape:label="tile3"
           d="M 543.77344,426.26953 C 448.95644,426.0375 325.341,461.20508 230.9375,477.35352 141.63616,492.6292 83.303919,487.94861 0,516.94922 V 1200 h 345.02539 c 14.84916,-23.1091 29.1891,-46.8288 46.88867,-68.2969 84.599,-102.6113 142.04742,-106.0817 238.18555,-194.2656 93.32748,-85.60578 102.43279,-157.57473 241.85351,-221.81836 128.69528,-59.30145 239.75578,-35.48324 358.80468,-63.31445 31.4283,-7.3473 63.7601,-15.59175 96.3926,-23.67383 C 1209.1913,568.95661 1052.4888,557.93768 924.65234,524.10547 789.06677,488.2224 685.99883,426.61757 543.77344,426.26953 Z" />
        <path
           id="path23081"
           style="display:inline;opacity:1;fill:url(#linearGradient23083);fill-opacity:1;stroke-width:16.3646;stop-color:#000000"
           inkscape:label="tile3"
           d="M 543.77344,426.26953 C 448.95644,426.0375 325.341,461.20508 230.9375,477.35352 141.63616,492.6292 83.303919,487.94861 0,516.94922 V 1200 h 345.02539 c 14.84916,-23.1091 29.1891,-46.8288 46.88867,-68.2969 84.599,-102.6113 142.04742,-106.0817 238.18555,-194.2656 93.32748,-85.60578 102.43279,-157.57473 241.85351,-221.81836 128.69528,-59.30145 239.75578,-35.48324 358.80468,-63.31445 31.4283,-7.3473 63.7601,-15.59175 96.3926,-23.67383 C 1209.1913,568.95661 1052.4888,557.93768 924.65234,524.10547 789.06677,488.2224 685.99883,426.61757 543.77344,426.26953 Z" />
      </g>
    </g>
    <g
       id="g21766">
      <path
         id="path20760"
         style="display:inline;opacity:1;fill:#26536e;fill-opacity:1;stroke-width:16.0568;stop-color:#000000"
         inkscape:label="curve2"
         d="M 1655.0789,587.89039 C 1517.4337,572.63921 1366.869,620.485 1230.7577,652.30507 1111.7087,680.13631 1000.6494,656.31719 871.95403,715.6187 732.53317,779.86239 723.42658,851.83221 630.09901,937.43808 533.96078,1025.6221 476.51315,1029.0911 391.91407,1131.7025 374.21448,1153.1706 359.8752,1176.8909 345.02603,1200 H 2759.961 c -52.7491,-81.9328 -146.7924,-134.5513 -219.6538,-199.8161 -87.8825,-78.71984 -134.4193,-176.17518 -231.8379,-228.85419 -119.3817,-64.55554 -208.9981,-55.31514 -337.8859,-86.55524 -119.2919,-28.91423 -168.388,-80.58348 -315.5045,-96.88408 z"
         sodipodi:nodetypes="sssssccssss" />
      <g
         id="g23023">
        <path
           id="path21265"
           style="display:inline;opacity:1;fill:url(#linearGradient23033);fill-opacity:1;stroke-width:16.0568;stop-color:#000000"
           inkscape:label="tile2c"
           d="m 1602.9102,584.97461 c -90.4,-0.45908 -184.6858,21.18291 -275.6563,43.71094 7.1141,3.60138 14.1285,7.32711 20.9453,11.29883 118.8712,69.25839 167.5796,209.42721 256.625,303.87109 67.1538,71.22503 157.2143,116.47213 220.8262,182.86133 96.4304,-70.0569 221.1961,-115.0608 321.0937,-173.74219 79.4258,-46.65588 143.166,-101.9069 215.2188,-144.70508 -16.2842,-13.76913 -33.8188,-26.30001 -53.4941,-36.93945 -119.3815,-64.55542 -208.9972,-55.31465 -337.8848,-86.55469 -119.2917,-28.91417 -168.3896,-80.58419 -315.5059,-96.88477 -17.2056,-1.90638 -34.6121,-2.82686 -52.1679,-2.91601 z" />
        <path
           id="path23035"
           style="display:inline;opacity:1;fill:url(#linearGradient23037);fill-opacity:1;stroke-width:16.0568;stop-color:#000000"
           inkscape:label="tile2c"
           d="m 1602.9102,584.97461 c -90.4,-0.45908 -184.6858,21.18291 -275.6563,43.71094 7.1141,3.60138 14.1285,7.32711 20.9453,11.29883 118.8712,69.25839 167.5796,209.42721 256.625,303.87109 67.1538,71.22503 157.2143,116.47213 220.8262,182.86133 96.4304,-70.0569 221.1961,-115.0608 321.0937,-173.74219 79.4258,-46.65588 143.166,-101.9069 215.2188,-144.70508 -16.2842,-13.76913 -33.8188,-26.30001 -53.4941,-36.93945 -119.3815,-64.55542 -208.9972,-55.31465 -337.8848,-86.55469 -119.2917,-28.91417 -168.3896,-80.58419 -315.5059,-96.88477 -17.2056,-1.90638 -34.6121,-2.82686 -52.1679,-2.91601 z" />
      </g>
      <g
         id="g23000">
        <path
           id="path21503"
           style="display:inline;opacity:1;fill:url(#linearGradient23012);fill-opacity:1;stroke-width:16.0568;stop-color:#000000"
           inkscape:label="tile2b"
           d="m 1371.6172,655.24414 c -4.5438,5.36859 -8.5333,10.57552 -13.4766,16.05274 -71.4202,79.13373 -171.4745,115.49445 -253.2129,210.77929 C 1023.1894,977.36102 986.97032,1095.1854 940.06445,1200 h 805.75005 c 22.8047,-27.6295 50.0105,-51.6151 79.8359,-73.2832 -63.6115,-66.3891 -153.6725,-111.6364 -220.8262,-182.86133 -82.9443,-87.97288 -130.9529,-215.55719 -233.207,-288.61133 z" />
        <path
           id="path23014"
           style="display:inline;opacity:1;fill:url(#linearGradient23016);fill-opacity:1;stroke-width:16.0568;stop-color:#000000"
           inkscape:label="tile2b"
           d="m 1371.6172,655.24414 c -4.5438,5.36859 -8.5333,10.57552 -13.4766,16.05274 -71.4202,79.13373 -171.4745,115.49445 -253.2129,210.77929 C 1023.1894,977.36102 986.97032,1095.1854 940.06445,1200 h 805.75005 c 22.8047,-27.6295 50.0105,-51.6151 79.8359,-73.2832 -63.6115,-66.3891 -153.6725,-111.6364 -220.8262,-182.86133 -82.9443,-87.97288 -130.9529,-215.55719 -233.207,-288.61133 z" />
        <path
           id="path23018"
           style="display:inline;opacity:1;fill:url(#linearGradient23020);fill-opacity:1;stroke-width:16.0568;stop-color:#000000"
           inkscape:label="tile2b"
           d="m 1371.6172,655.24414 c -4.5438,5.36859 -8.5333,10.57552 -13.4766,16.05274 -71.4202,79.13373 -171.4745,115.49445 -253.2129,210.77929 C 1023.1894,977.36102 986.97032,1095.1854 940.06445,1200 h 805.75005 c 22.8047,-27.6295 50.0105,-51.6151 79.8359,-73.2832 -63.6115,-66.3891 -153.6725,-111.6364 -220.8262,-182.86133 -82.9443,-87.97288 -130.9529,-215.55719 -233.207,-288.61133 z" />
      </g>
      <g
         id="g22738">
        <path
           id="path21495"
           style="display:inline;opacity:1;fill:url(#linearGradient22754);fill-opacity:1;stroke-width:16.0568;stop-color:#000000"
           inkscape:label="tile2a"
           d="m 1327.1504,628.63086 c -32.6325,8.08206 -64.9643,16.32653 -96.3926,23.67383 -119.0487,27.83115 -230.1096,4.01312 -358.80468,63.31445 -139.42044,64.24351 -148.52621,136.21276 -241.85351,221.81836 -96.13793,88.1837 -153.58671,91.6545 -238.18555,194.2656 -17.69953,21.4681 -32.03953,45.1878 -46.88867,68.2969 h 595.03906 c 46.90587,-104.8146 83.12495,-222.63898 164.86325,-317.92383 81.7384,-95.28484 181.7927,-131.64556 253.2129,-210.77929 4.8193,-5.3398 9.3247,-10.59745 13.7637,-15.83399 -7.6118,-5.45156 -15.4541,-10.67123 -23.7051,-15.47851 -6.8503,-3.99125 -13.8983,-7.73618 -21.0488,-11.35352 z" />
        <path
           id="path22734"
           style="display:inline;opacity:1;fill:url(#linearGradient22746);fill-opacity:1;stroke-width:16.0568;stop-color:#000000"
           inkscape:label="tile2a"
           d="m 1327.1504,628.63086 c -32.6325,8.08206 -64.9643,16.32653 -96.3926,23.67383 -119.0487,27.83115 -230.1096,4.01312 -358.80468,63.31445 -139.42044,64.24351 -148.52621,136.21276 -241.85351,221.81836 -96.13793,88.1837 -153.58671,91.6545 -238.18555,194.2656 -17.69953,21.4681 -32.03953,45.1878 -46.88867,68.2969 h 595.03906 c 46.90587,-104.8146 83.12495,-222.63898 164.86325,-317.92383 81.7384,-95.28484 181.7927,-131.64556 253.2129,-210.77929 4.8193,-5.3398 9.3247,-10.59745 13.7637,-15.83399 -7.6118,-5.45156 -15.4541,-10.67123 -23.7051,-15.47851 -6.8503,-3.99125 -13.8983,-7.73618 -21.0488,-11.35352 z" />
      </g>
    </g>
    <g
       id="g21761">
      <path
         id="path20762"
         style="display:inline;opacity:1;fill:#265a78;fill-opacity:1;stroke-width:15.5529;stop-color:#000000"
         inkscape:label="curve1"
         d="M 2518.7794,746.69271 C 2365.4969,775.51987 2277.5392,876.14404 2146.7435,952.97543 2015.9478,1029.8068 1842.3507,1083.0395 1745.8139,1200 H 2800 l 1.0436,-449.10398 c -95.2733,-0.71341 -200.8394,-19.51652 -282.2642,-4.20331 z"
         sodipodi:nodetypes="sscccs" />
      <g
         id="g23055">
        <path
           id="path20789"
           style="display:inline;opacity:1;fill:url(#linearGradient23063);fill-opacity:1;stroke-width:15.5529;stop-color:#000000"
           inkscape:label="tile1b"
           d="m 2583.8359,740.78906 c -22.8358,0.37948 -44.7004,2.076 -65.0566,5.9043 -60.2014,11.32181 -110.2151,33.89581 -156.8164,61.57617 64.3434,54.40583 108.2107,129.09316 178.3437,191.91407 72.8614,65.2647 166.9053,117.8837 219.6543,199.8164 H 2800 l 1.043,-449.10352 c -71.4549,-0.53505 -148.6996,-11.24586 -217.2071,-10.10742 z" />
      </g>
      <g
         id="g23040">
        <path
           id="path23050"
           style="display:inline;opacity:1;fill:url(#linearGradient23052);fill-opacity:1;stroke-width:15.5529;stop-color:#000000"
           inkscape:label="tile1a"
           d="M 2361.4863,808.42188 C 2289.6055,851.18594 2226.016,906.40909 2146.7441,952.97461 2015.9486,1029.8059 1842.3512,1083.0396 1745.8145,1200 H 2759.9609 C 2707.2119,1118.0673 2613.168,1065.4483 2540.3066,1000.1836 2470.111,937.30659 2425.924,862.8399 2361.4863,808.42188 Z" />
        <path
           id="path21260"
           style="display:inline;opacity:1;fill:url(#linearGradient23048);fill-opacity:1;stroke-width:15.5529;stop-color:#000000"
           inkscape:label="tile1a"
           d="M 2361.4863,808.42188 C 2289.6055,851.18594 2226.016,906.40909 2146.7441,952.97461 2015.9486,1029.8059 1842.3512,1083.0396 1745.8145,1200 H 2759.9609 C 2707.2119,1118.0673 2613.168,1065.4483 2540.3066,1000.1836 2470.111,937.30659 2425.924,862.8399 2361.4863,808.42188 Z" />
      </g>
    </g>
  </g>
  <g
     id="layer6"
     style="display:inline"
     transform="matrix(0.42540503,0,0,0.42540503,858.89523,843.65303)"
     inkscape:label="swirl">
    <g
       id="g880001"
       style="display:inline;fill:#85a0b4;fill-opacity:1"
       transform="matrix(1.4771351,0,0,1.4771351,1207.749,564.97594)"
       sodipodi:insensitive="true">
      <path
         i:knockout="Off"
         fill="#85a0b4"
         d="m 51.986,57.297 c -1.797,0.025 0.34,0.926 2.686,1.287 0.648,-0.506 1.236,-1.018 1.76,-1.516 -1.461,0.358 -2.948,0.366 -4.446,0.229"
         id="path879977"
         style="fill:#85a0b4;fill-opacity:1" />
      <path
         i:knockout="Off"
         fill="#85a0b4"
         d="m 61.631,54.893 c 1.07,-1.477 1.85,-3.094 2.125,-4.766 -0.24,1.192 -0.887,2.221 -1.496,3.307 -3.359,2.115 -0.316,-1.256 -0.002,-2.537 -3.612,4.546 -0.496,2.726 -0.627,3.996"
         id="path879979"
         style="fill:#85a0b4;fill-opacity:1" />
      <path
         i:knockout="Off"
         fill="#85a0b4"
         d="m 65.191,45.629 c 0.217,-3.236 -0.637,-2.213 -0.924,-0.978 0.335,0.174 0.6,2.281 0.924,0.978"
         id="path879981"
         style="fill:#85a0b4;fill-opacity:1" />
      <path
         i:knockout="Off"
         fill="#85a0b4"
         d="m 45.172,1.399 c 0.959,0.172 2.072,0.304 1.916,0.533 1.049,-0.23 1.287,-0.442 -1.916,-0.533"
         id="path879983"
         style="fill:#85a0b4;fill-opacity:1" />
      <path
         i:knockout="Off"
         fill="#85a0b4"
         d="M 47.088,1.932 46.41,2.072 47.041,2.016 47.088,1.932"
         id="path879985"
         style="fill:#85a0b4;fill-opacity:1" />
      <path
         i:knockout="Off"
         fill="#85a0b4"
         d="m 76.992,46.856 c 0.107,2.906 -0.85,4.316 -1.713,6.812 l -1.553,0.776 c -1.271,2.468 0.123,1.567 -0.787,3.53 -1.984,1.764 -6.021,5.52 -7.313,5.863 -0.943,-0.021 0.639,-1.113 0.846,-1.541 -2.656,1.824 -2.131,2.738 -6.193,3.846 L 60.16,65.878 C 50.142,70.591 36.226,61.251 36.409,48.507 c -0.107,0.809 -0.304,0.607 -0.526,0.934 -0.517,-6.557 3.028,-13.143 9.007,-15.832 5.848,-2.895 12.704,-1.707 16.893,2.197 -2.301,-3.014 -6.881,-6.209 -12.309,-5.91 -5.317,0.084 -10.291,3.463 -11.951,7.131 -2.724,1.715 -3.04,6.611 -4.227,7.507 -1.597,11.737 3.004,16.808 10.787,22.773 1.225,0.826 0.345,0.951 0.511,1.58 -2.586,-1.211 -4.954,-3.039 -6.901,-5.277 1.033,1.512 2.148,2.982 3.589,4.137 -2.438,-0.826 -5.695,-5.908 -6.646,-6.115 4.203,7.525 17.052,13.197 23.78,10.383 -3.113,0.115 -7.068,0.064 -10.566,-1.229 -1.469,-0.756 -3.467,-2.322 -3.11,-2.615 9.182,3.43 18.667,2.598 26.612,-3.771 2.021,-1.574 4.229,-4.252 4.867,-4.289 -0.961,1.445 0.164,0.695 -0.574,1.971 2.014,-3.248 -0.875,-1.322 2.082,-5.609 l 1.092,1.504 c -0.406,-2.696 3.348,-5.97 2.967,-10.234 0.861,-1.304 0.961,1.403 0.047,4.403 1.268,-3.328 0.334,-3.863 0.66,-6.609 0.352,0.923 0.814,1.904 1.051,2.878 -0.826,-3.216 0.848,-5.416 1.262,-7.285 -0.408,-0.181 -1.275,1.422 -1.473,-2.377 0.029,-1.65 0.459,-0.865 0.625,-1.271 -0.324,-0.186 -1.174,-1.451 -1.691,-3.877 0.375,-0.57 1.002,1.478 1.512,1.562 -0.328,-1.929 -0.893,-3.4 -0.916,-4.88 -1.49,-3.114 -0.527,0.415 -1.736,-1.337 -1.586,-4.947 1.316,-1.148 1.512,-3.396 2.404,3.483 3.775,8.881 4.404,11.117 -0.48,-2.726 -1.256,-5.367 -2.203,-7.922 0.73,0.307 -1.176,-5.609 0.949,-1.691 C 83.519,18.706 76.074,10.902 69.225,7.24 70.063,8.007 71.121,8.97 70.741,9.121 67.335,7.093 67.934,6.935 67.446,6.078 64.671,4.949 64.489,6.169 62.651,6.08 57.421,3.306 56.413,3.601 51.6,1.863 l 0.219,1.023 c -3.465,-1.154 -4.037,0.438 -7.782,0.004 -0.228,-0.178 1.2,-0.644 2.375,-0.815 -3.35,0.442 -3.193,-0.66 -6.471,0.122 0.808,-0.567 1.662,-0.942 2.524,-1.424 -2.732,0.166 -6.522,1.59 -5.352,0.295 -4.456,1.988 -12.37,4.779 -16.811,8.943 l -0.14,-0.933 c -2.035,2.443 -8.874,7.296 -9.419,10.46 l -0.544,0.127 c -1.059,1.793 -1.744,3.825 -2.584,5.67 -1.385,2.36 -2.03,0.908 -1.833,1.278 -2.724,5.523 -4.077,10.164 -5.246,13.97 0.833,1.245 0.02,7.495 0.335,12.497 -1.368,24.704 17.338,48.69 37.785,54.228 2.997,1.072 7.454,1.031 11.245,1.141 -4.473,-1.279 -5.051,-0.678 -9.408,-2.197 -3.143,-1.48 -3.832,-3.17 -6.058,-5.102 l 0.881,1.557 c -4.366,-1.545 -2.539,-1.912 -6.091,-3.037 l 0.941,-1.229 C 28.751,98.334 26.418,96.056 25.78,94.795 l -1.548,0.061 c -1.86,-2.295 -2.851,-3.949 -2.779,-5.23 l -0.5,0.891 c -0.567,-0.973 -6.843,-8.607 -3.587,-6.83 -0.605,-0.553 -1.409,-0.9 -2.281,-2.484 l 0.663,-0.758 c -1.567,-2.016 -2.884,-4.6 -2.784,-5.461 0.836,1.129 1.416,1.34 1.99,1.533 -3.957,-9.818 -4.179,-0.541 -7.176,-9.994 L 8.412,66.472 C 7.926,65.74 7.631,64.945 7.24,64.165 l 0.276,-2.75 C 4.667,58.121 6.719,47.409 7.13,41.534 7.415,39.145 9.508,36.602 11.1,32.614 l -0.97,-0.167 c 1.854,-3.234 10.586,-12.988 14.63,-12.486 1.959,-2.461 -0.389,-0.009 -0.772,-0.629 4.303,-4.453 5.656,-3.146 8.56,-3.947 3.132,-1.859 -2.688,0.725 -1.203,-0.709 5.414,-1.383 3.837,-3.144 10.9,-3.846 0.745,0.424 -1.729,0.655 -2.35,1.205 4.511,-2.207 14.275,-1.705 20.617,1.225 7.359,3.439 15.627,13.605 15.953,23.17 l 0.371,0.1 c -0.188,3.802 0.582,8.199 -0.752,12.238 l 0.908,-1.912"
         id="path879987"
         style="fill:#85a0b4;fill-opacity:1" />
      <path
         i:knockout="Off"
         fill="#85a0b4"
         d="m 32.372,59.764 -0.252,1.26 c 1.181,1.604 2.118,3.342 3.626,4.596 -1.085,-2.118 -1.891,-2.993 -3.374,-5.856"
         id="path879989"
         style="fill:#85a0b4;fill-opacity:1" />
      <path
         i:knockout="Off"
         fill="#85a0b4"
         d="m 35.164,59.654 c -0.625,-0.691 -0.995,-1.523 -1.409,-2.352 0.396,1.457 1.207,2.709 1.962,3.982 l -0.553,-1.63"
         id="path879991"
         style="fill:#85a0b4;fill-opacity:1" />
      <path
         i:knockout="Off"
         fill="#85a0b4"
         d="m 84.568,48.916 -0.264,0.662 c -0.484,3.438 -1.529,6.84 -3.131,9.994 1.77,-3.328 2.915,-6.968 3.395,-10.656"
         id="path879993"
         style="fill:#85a0b4;fill-opacity:1" />
      <path
         i:knockout="Off"
         fill="#85a0b4"
         d="M 45.527,0.537 C 46.742,0.092 48.514,0.293 49.803,0 48.123,0.141 46.451,0.225 44.8,0.438 l 0.727,0.099"
         id="path879995"
         style="fill:#85a0b4;fill-opacity:1" />
      <path
         i:knockout="Off"
         fill="#85a0b4"
         d="m 2.872,23.219 c 0.28,2.592 -1.95,3.598 0.494,1.889 1.31,-2.951 -0.512,-0.815 -0.494,-1.889"
         id="path879997"
         style="fill:#85a0b4;fill-opacity:1" />
      <path
         i:knockout="Off"
         fill="#85a0b4"
         d="M 0,35.215 C 0.563,33.487 0.665,32.449 0.88,31.449 -0.676,33.438 0.164,33.862 0,35.215"
         id="path879999"
         style="fill:#85a0b4;fill-opacity:1" />
    </g>
  </g>
</svg>
