<?xml version="1.0" encoding="UTF-8" standalone="no"?>
<!-- Created with Inkscape (http://www.inkscape.org/) -->

<svg
   width="2800"
   height="1200"
   viewBox="0 0 2800 1200"
   version="1.1"
   id="svg5"
   xmlns:xlink="http://www.w3.org/1999/xlink"
   xmlns="http://www.w3.org/2000/svg"
   xmlns:svg="http://www.w3.org/2000/svg"
   xmlns:i="http://ns.adobe.com/AdobeIllustrator/10.0/">
  <defs
     id="defs2">
    <linearGradient
       id="linearGradient3589">
      <stop
         style="stop-color:#254151;stop-opacity:1;"
         offset="0"
         id="stop3585" />
      <stop
         style="stop-color:#254151;stop-opacity:0;"
         offset="1"
         id="stop3587" />
    </linearGradient>
    <linearGradient
       id="linearGradient3581">
      <stop
         style="stop-color:#254151;stop-opacity:1;"
         offset="0"
         id="stop3577" />
      <stop
         style="stop-color:#254151;stop-opacity:0;"
         offset="1"
         id="stop3579" />
    </linearGradient>
    <linearGradient
       id="linearGradient3573">
      <stop
         style="stop-color:#254151;stop-opacity:1;"
         offset="0"
         id="stop3569" />
      <stop
         style="stop-color:#254151;stop-opacity:0;"
         offset="1"
         id="stop3571" />
    </linearGradient>
    <linearGradient
       id="linearGradient2962">
      <stop
         style="stop-color:#265a78;stop-opacity:1;"
         offset="0"
         id="stop2958" />
      <stop
         style="stop-color:#265a78;stop-opacity:0;"
         offset="1"
         id="stop2960" />
    </linearGradient>
    <linearGradient
       id="linearGradient2954">
      <stop
         style="stop-color:#265a78;stop-opacity:1;"
         offset="0"
         id="stop2950" />
      <stop
         style="stop-color:#265a78;stop-opacity:0;"
         offset="1"
         id="stop2952" />
    </linearGradient>
    <linearGradient
       id="linearGradient2567">
      <stop
         style="stop-color:#265a78;stop-opacity:1;"
         offset="0"
         id="stop2563" />
      <stop
         style="stop-color:#265a78;stop-opacity:0;"
         offset="1"
         id="stop2565" />
    </linearGradient>
    <linearGradient
       id="linearGradient2528">
      <stop
         style="stop-color:#265a78;stop-opacity:1;"
         offset="0"
         id="stop2524" />
      <stop
         style="stop-color:#265a78;stop-opacity:0;"
         offset="1"
         id="stop2526" />
    </linearGradient>
    <linearGradient
       id="linearGradient1797">
      <stop
         style="stop-color:#276082;stop-opacity:1;"
         offset="0"
         id="stop1793" />
      <stop
         style="stop-color:#276082;stop-opacity:0;"
         offset="1"
         id="stop1795" />
    </linearGradient>
    <linearGradient
       id="linearGradient1789">
      <stop
         style="stop-color:#276082;stop-opacity:1;"
         offset="0"
         id="stop1785" />
      <stop
         style="stop-color:#276082;stop-opacity:0;"
         offset="1"
         id="stop1787" />
    </linearGradient>
    <linearGradient
       id="linearGradient1757">
      <stop
         style="stop-color:#276082;stop-opacity:1;"
         offset="0"
         id="stop1753" />
      <stop
         style="stop-color:#276082;stop-opacity:0;"
         offset="1"
         id="stop1755" />
    </linearGradient>
    <linearGradient
       id="linearGradient1749">
      <stop
         style="stop-color:#276082;stop-opacity:1;"
         offset="0"
         id="stop1745" />
      <stop
         style="stop-color:#276082;stop-opacity:0;"
         offset="1"
         id="stop1747" />
    </linearGradient>
    <linearGradient
       id="linearGradient1208">
      <stop
         style="stop-color:#27678d;stop-opacity:1;"
         offset="0"
         id="stop1204" />
      <stop
         style="stop-color:#27678d;stop-opacity:0;"
         offset="1"
         id="stop1206" />
    </linearGradient>
    <linearGradient
       id="linearGradient49041">
      <stop
         style="stop-color:#27678d;stop-opacity:1;"
         offset="0"
         id="stop49037" />
      <stop
         style="stop-color:#27678d;stop-opacity:0;"
         offset="1"
         id="stop49039" />
    </linearGradient>
    <linearGradient
       id="linearGradient47040">
      <stop
         style="stop-color:#263a47;stop-opacity:1;"
         offset="0"
         id="stop47036" />
      <stop
         style="stop-color:#263a47;stop-opacity:0;"
         offset="1"
         id="stop47038" />
    </linearGradient>
    <linearGradient
       id="linearGradient44914">
      <stop
         style="stop-color:#254151;stop-opacity:1;"
         offset="0"
         id="stop44910" />
      <stop
         style="stop-color:#254151;stop-opacity:0;"
         offset="1"
         id="stop44912" />
    </linearGradient>
    <linearGradient
       id="linearGradient43231">
      <stop
         style="stop-color:#264d64;stop-opacity:1;"
         offset="0"
         id="stop43227" />
      <stop
         style="stop-color:#264d64;stop-opacity:0;"
         offset="1"
         id="stop43229" />
    </linearGradient>
    <linearGradient
       id="linearGradient39723">
      <stop
         style="stop-color:#265a78;stop-opacity:1;"
         offset="0"
         id="stop39719" />
      <stop
         style="stop-color:#265a78;stop-opacity:0;"
         offset="1"
         id="stop39721" />
    </linearGradient>
    <linearGradient
       id="linearGradient39715">
      <stop
         style="stop-color:#265a78;stop-opacity:1;"
         offset="0"
         id="stop39711" />
      <stop
         style="stop-color:#265a78;stop-opacity:0;"
         offset="1"
         id="stop39713" />
    </linearGradient>
    <linearGradient
       id="linearGradient25550">
      <stop
         style="stop-color:#27678d;stop-opacity:1;"
         offset="0"
         id="stop25546" />
      <stop
         style="stop-color:#27678d;stop-opacity:0;"
         offset="1"
         id="stop25548" />
    </linearGradient>
    <linearGradient
       id="linearGradient25394">
      <stop
         style="stop-color:#266388;stop-opacity:1;"
         offset="0"
         id="stop25390" />
      <stop
         style="stop-color:#27678d;stop-opacity:0;"
         offset="1"
         id="stop25392" />
    </linearGradient>
    <linearGradient
       id="linearGradient14204">
      <stop
         style="stop-color:#265a78;stop-opacity:1;"
         offset="0.28506613"
         id="stop14200" />
      <stop
         style="stop-color:#265a78;stop-opacity:0;"
         offset="1"
         id="stop14202" />
    </linearGradient>
    <linearGradient
       id="linearGradient14190">
      <stop
         style="stop-color:#5d809c;stop-opacity:0.33499566;"
         offset="0"
         id="stop14186" />
      <stop
         style="stop-color:#5d809c;stop-opacity:0;"
         offset="1"
         id="stop14188" />
    </linearGradient>
    <linearGradient
       id="linearGradient13855">
      <stop
         style="stop-color:#27678d;stop-opacity:1;"
         offset="0.61089045"
         id="stop13851" />
      <stop
         style="stop-color:#27678d;stop-opacity:0;"
         offset="1"
         id="stop13853" />
    </linearGradient>
    <linearGradient
       id="linearGradient11650">
      <stop
         style="stop-color:#276082;stop-opacity:1;"
         offset="0"
         id="stop11646" />
      <stop
         style="stop-color:#5d809c;stop-opacity:0;"
         offset="1"
         id="stop11648" />
    </linearGradient>
    <linearGradient
       id="linearGradient9949">
      <stop
         style="stop-color:#356184;stop-opacity:0.72753626;"
         offset="0"
         id="stop9945" />
      <stop
         style="stop-color:#356184;stop-opacity:0.21960784;"
         offset="0.35032788"
         id="stop14941" />
      <stop
         style="stop-color:#356184;stop-opacity:0;"
         offset="0.74791056"
         id="stop9947" />
    </linearGradient>
    <radialGradient
       xlink:href="#linearGradient9949"
       id="radialGradient9951"
       cx="1301.2402"
       cy="622.97833"
       fx="1301.2402"
       fy="622.97833"
       r="309.37985"
       gradientTransform="matrix(1,0,0,0.60237586,-13.852259,228.12151)"
       gradientUnits="userSpaceOnUse" />
    <radialGradient
       xlink:href="#linearGradient11650"
       id="radialGradient11652"
       cx="1808.1495"
       cy="755.26746"
       fx="1808.1495"
       fy="755.26746"
       r="168.96977"
       gradientTransform="matrix(0.07643917,1.5754418,-1.7485341,0.08483695,2483.6375,-2290.7862)"
       gradientUnits="userSpaceOnUse" />
    <radialGradient
       xlink:href="#linearGradient13855"
       id="radialGradient13857"
       cx="1639.1797"
       cy="924.15015"
       fx="1639.1797"
       fy="924.15015"
       r="168.96974"
       gradientTransform="matrix(0.03133913,-1.6869846,2.1377123,0.03971193,-387.75793,3617.009)"
       gradientUnits="userSpaceOnUse" />
    <radialGradient
       xlink:href="#linearGradient14190"
       id="radialGradient14192"
       cx="1299.636"
       cy="364.37604"
       fx="1299.636"
       fy="364.37604"
       r="222.02402"
       gradientTransform="matrix(-1.7971509,0.03848755,-0.02311776,-1.0794681,3643.7015,981.18103)"
       gradientUnits="userSpaceOnUse" />
    <radialGradient
       xlink:href="#linearGradient14204"
       id="radialGradient14206"
       cx="912.32507"
       cy="1031.6346"
       fx="912.32507"
       fy="1031.6346"
       r="222.02402"
       gradientTransform="matrix(1.9999906,-0.00605216,0.00281468,0.93008354,-860.08736,-58.732031)"
       gradientUnits="userSpaceOnUse" />
    <filter
       style="color-interpolation-filters:sRGB"
       id="filter2598"
       x="-0.024571377"
       y="-0.065893216"
       width="1.0491428"
       height="1.1317864">
      <feGaussianBlur
         stdDeviation="12.463835"
         id="feGaussianBlur2600" />
    </filter>
    <filter
       style="color-interpolation-filters:sRGB"
       id="filter2628"
       x="-0.057305439"
       y="-0.15898813"
       width="1.1146109"
       height="1.3179763">
      <feGaussianBlur
         stdDeviation="10.532109"
         id="feGaussianBlur2630" />
    </filter>
    <filter
       style="color-interpolation-filters:sRGB"
       id="filter2635"
       x="-0.093956407"
       y="-0.071576609"
       width="1.1879128"
       height="1.1431532">
      <feGaussianBlur
         stdDeviation="8.2843752"
         id="feGaussianBlur2637" />
    </filter>
    <filter
       style="color-interpolation-filters:sRGB"
       id="filter2829"
       x="-0.015831482"
       y="-0.032631129"
       width="1.031663"
       height="1.0652623">
      <feGaussianBlur
         stdDeviation="3.4725545"
         id="feGaussianBlur2831" />
    </filter>
    <linearGradient
       xlink:href="#linearGradient25550"
       id="linearGradient25396"
       x1="1243.4292"
       y1="1143.8857"
       x2="1332.0697"
       y2="1205.9899"
       gradientUnits="userSpaceOnUse" />
    <linearGradient
       xlink:href="#linearGradient25394"
       id="linearGradient25404"
       gradientUnits="userSpaceOnUse"
       x1="1358.7017"
       y1="1123.1667"
       x2="1226.3506"
       y2="1261.8086" />
    <linearGradient
       xlink:href="#linearGradient39715"
       id="linearGradient39717"
       x1="995.55487"
       y1="962.34827"
       x2="892.29089"
       y2="1105.22"
       gradientUnits="userSpaceOnUse" />
    <linearGradient
       xlink:href="#linearGradient39723"
       id="linearGradient39850"
       gradientUnits="userSpaceOnUse"
       x1="601.29767"
       y1="975.10193"
       x2="708.08142"
       y2="1069.0786" />
    <linearGradient
       xlink:href="#linearGradient39715"
       id="linearGradient39872"
       gradientUnits="userSpaceOnUse"
       x1="817.15717"
       y1="920.51361"
       x2="835.25867"
       y2="1024.6296" />
    <linearGradient
       xlink:href="#linearGradient43231"
       id="linearGradient43233"
       x1="1852.6553"
       y1="453.80246"
       x2="1826.9412"
       y2="517.67535"
       gradientUnits="userSpaceOnUse" />
    <linearGradient
       xlink:href="#linearGradient43231"
       id="linearGradient44480"
       gradientUnits="userSpaceOnUse"
       x1="1627.2626"
       y1="481.2999"
       x2="1707.248"
       y2="553.4679" />
    <linearGradient
       xlink:href="#linearGradient44914"
       id="linearGradient44916"
       x1="1011.7289"
       y1="451.38672"
       x2="902.91608"
       y2="621.04572"
       gradientUnits="userSpaceOnUse" />
    <linearGradient
       xlink:href="#linearGradient44914"
       id="linearGradient44921"
       gradientUnits="userSpaceOnUse"
       x1="737.51239"
       y1="405.70261"
       x2="816.51465"
       y2="523.33801" />
    <linearGradient
       xlink:href="#linearGradient47040"
       id="linearGradient47042"
       x1="1874.8914"
       y1="125.22417"
       x2="1882.5895"
       y2="362.0975"
       gradientUnits="userSpaceOnUse" />
    <linearGradient
       xlink:href="#linearGradient47040"
       id="linearGradient47047"
       gradientUnits="userSpaceOnUse"
       x1="1377.9191"
       y1="226.57504"
       x2="1432.1735"
       y2="421.54102" />
    <linearGradient
       xlink:href="#linearGradient49041"
       id="linearGradient49043"
       x1="1828.3345"
       y1="832.86841"
       x2="1746.0526"
       y2="967.03717"
       gradientUnits="userSpaceOnUse" />
    <linearGradient
       xlink:href="#linearGradient49041"
       id="linearGradient49048"
       gradientUnits="userSpaceOnUse"
       x1="1435.3868"
       y1="936.2616"
       x2="1546.0549"
       y2="1019.6569" />
    <linearGradient
       xlink:href="#linearGradient49041"
       id="linearGradient49961"
       gradientUnits="userSpaceOnUse"
       x1="1688.5034"
       y1="780.69501"
       x2="1735.1748"
       y2="941.71802" />
    <linearGradient
       xlink:href="#linearGradient1208"
       id="linearGradient1210"
       x1="1888.0325"
       y1="703.00751"
       x2="1966.4827"
       y2="782.30438"
       gradientUnits="userSpaceOnUse" />
    <linearGradient
       xlink:href="#linearGradient1749"
       id="linearGradient1751"
       x1="813.76611"
       y1="1099.5709"
       x2="739.58282"
       y2="1200.4081"
       gradientUnits="userSpaceOnUse" />
    <linearGradient
       xlink:href="#linearGradient1757"
       id="linearGradient1759"
       x1="667.0376"
       y1="1097.7635"
       x2="797.4375"
       y2="1199.5093"
       gradientUnits="userSpaceOnUse" />
    <linearGradient
       xlink:href="#linearGradient1789"
       id="linearGradient1791"
       x1="183.91798"
       y1="828.65222"
       x2="291.10385"
       y2="988.11273"
       gradientUnits="userSpaceOnUse" />
    <linearGradient
       xlink:href="#linearGradient1797"
       id="linearGradient1799"
       x1="293.72818"
       y1="873.10913"
       x2="187.4379"
       y2="983.53027"
       gradientUnits="userSpaceOnUse" />
    <linearGradient
       xlink:href="#linearGradient2528"
       id="linearGradient2530"
       x1="537.63702"
       y1="704.49438"
       x2="668.01556"
       y2="859.63776"
       gradientUnits="userSpaceOnUse" />
    <linearGradient
       xlink:href="#linearGradient2567"
       id="linearGradient2569"
       x1="700.09277"
       y1="717.19635"
       x2="586.91528"
       y2="897.51752"
       gradientUnits="userSpaceOnUse" />
    <linearGradient
       xlink:href="#linearGradient2954"
       id="linearGradient2956"
       x1="988.37219"
       y1="796.35846"
       x2="1242.7797"
       y2="969.97308"
       gradientUnits="userSpaceOnUse" />
    <linearGradient
       xlink:href="#linearGradient2962"
       id="linearGradient2964"
       x1="1298.5376"
       y1="791.37646"
       x2="1169.1055"
       y2="958.32825"
       gradientUnits="userSpaceOnUse" />
    <linearGradient
       xlink:href="#linearGradient3573"
       id="linearGradient3575"
       x1="1295.7286"
       y1="348.30884"
       x2="1114.426"
       y2="618.59583"
       gradientUnits="userSpaceOnUse" />
    <linearGradient
       xlink:href="#linearGradient3581"
       id="linearGradient3583"
       x1="823.46381"
       y1="282.03931"
       x2="898.362"
       y2="676.2478"
       gradientUnits="userSpaceOnUse" />
    <linearGradient
       xlink:href="#linearGradient3589"
       id="linearGradient3591"
       x1="258.66617"
       y1="358.52356"
       x2="499.15427"
       y2="587.19922"
       gradientUnits="userSpaceOnUse" />
  </defs>
  <g
     id="layer2"
     transform="translate(880)"
     style="display:inline">
    <path
       id="rect2585"
       style="display:inline;fill:#25343c;fill-opacity:1;fill-rule:evenodd;stroke-width:1.20761"
       d="M -880,0 H 1920 V 1200 H -880 Z" />
  </g>
  <g
     id="layer5"
     style="display:inline;opacity:1">
    <g
       id="layer12"
       style="display:inline;opacity:1">
      <path
         style="display:inline;opacity:1;fill:#263a47;fill-opacity:1;stroke-width:0.998781"
         d="m 258.66618,1198.941 c 54.46567,-27.2547 97.70054,-61.1031 160.85567,-120.9462 76.1561,-72.1622 90.26812,-143.21305 163.38542,-217.73671 64.65092,-65.89442 110.37554,-119.21381 202.12,-155.49126 73.09575,-28.9034 148.93519,-31.81415 164.73744,-34.69533 101.95299,-18.58872 243.14309,-78.36698 300.89529,-128.60293 57.7523,-50.23597 76.0273,-72.05832 130.0571,-141.59109 54.0299,-69.53276 114.1041,-116.00911 214.7402,-173.79722 45.3202,-26.02403 85.8516,-40.57826 183.6959,-65.96242 99.6456,-25.85149 139.4621,-37.80239 184.3708,-55.33882 62.1821,-24.281655 116.4258,-64.611206 173.8353,-104.37097539 H 2800 V 1198.941 c -849.3576,3.3008 -2141.77603,0 -2541.33382,0 z"
         id="path16389" />
      <path
         id="path16482"
         style="display:none;opacity:1;fill:#263a47;fill-opacity:1;stroke-width:0.998781"
         d="M 2137.3594,0.40820312 C 2079.9499,40.167893 2025.7055,80.497687 1963.5234,104.7793 c -44.9085,17.53639 -83.6267,34.17002 -184.3711,55.33789 -121.4678,25.52217 -142.0499,41.57166 -203.0253,77.76172 50.9004,10.97241 103.5921,12.03945 155.7656,13.36914 72.5895,1.85004 147.3715,5.05264 213.3594,35.35742 43.0326,19.76304 80.1913,50.14568 116.2636,80.82422 35.785,30.43334 64.1902,50.57621 118.4492,83.07226 86.4036,-43.00876 234.1552,-130.75224 271.8868,-145.96289 59.9803,-23.36724 124.1995,-35.55667 192.0332,-34.98828 67.8335,0.56839 114.0885,8.64706 156.1152,20.86133 V 0.40820312 Z" />
      <path
         id="path6183"
         style="display:inline;fill:#263a47;fill-opacity:1;stroke-width:7.281;filter:url(#filter2598)"
         d="m 1270.5938,-2.578125 c -37.8645,35.422335 -82.3096,65.585705 -128.3907,89.355469 -78.5748,40.530956 -165.32941,61.966886 -250.94138,84.042966 -60.68459,15.64826 -122.04442,32.10833 -176.38867,63.32031 -4.1038,2.35697 -8.16878,4.90491 -12.27344,7.29102 49.59875,10.14424 100.84253,11.10916 151.58398,12.40234 72.59046,1.85004 147.37141,5.05238 213.35941,35.35743 43.0334,19.76322 80.1905,50.14542 116.2636,80.82421 35.7528,30.40619 71.6279,61.86612 114.3145,81.3711 93.3227,-44.54826 177.1791,-109.23305 273.7305,-146.84766 59.9804,-23.36727 124.1995,-35.55667 192.0332,-34.98828 67.8336,0.56839 114.0885,8.64705 156.1152,20.86133 V -2.578125 Z"
         transform="translate(877.70923,0.2978627)" />
      <path
         id="path6179"
         style="display:inline;opacity:1;fill:#263a47;fill-opacity:1;stroke-width:7.281"
         d="m 1270.5938,-2.578125 c -37.8645,35.422335 -82.3096,65.585705 -128.3907,89.355469 -78.5748,40.530956 -165.32941,61.966886 -250.94138,84.042966 -60.68459,15.64826 -122.04442,32.10833 -176.38867,63.32031 -4.1038,2.35697 -8.16878,4.90491 -12.27344,7.29102 49.59875,10.14424 100.84253,11.10916 151.58398,12.40234 72.59046,1.85004 147.37141,5.05238 213.35941,35.35743 43.0334,19.76322 80.1905,50.14542 116.2636,80.82421 35.7528,30.40619 71.6279,61.86612 114.3145,81.3711 93.3227,-44.54826 177.1791,-109.23305 273.7305,-146.84766 59.9804,-23.36727 124.1995,-35.55667 192.0332,-34.98828 67.8336,0.56839 114.0885,8.64705 156.1152,20.86133 V -2.578125 Z"
         transform="translate(877.70923,0.2978627)" />
      <g
         id="g6173"
         style="display:inline"
         transform="translate(877.70923,0.2978627)">
        <path
           id="path6167"
           style="display:inline;fill:#25343c;fill-opacity:0.923141;stroke-width:7.281"
           d="m 1270.5938,-2.578125 c -37.8645,35.422335 -82.3096,65.585705 -128.3907,89.355469 -78.5748,40.530956 -165.32941,61.966886 -250.94138,84.042966 -60.68459,15.64826 -122.04442,32.10833 -176.38867,63.32031 -4.1038,2.35697 -8.16878,4.90491 -12.27344,7.29102 49.59875,10.14424 100.84253,11.10916 151.58398,12.40234 72.59046,1.85004 147.37141,5.05238 213.35941,35.35743 43.0334,19.76322 80.1905,50.14542 116.2636,80.82421 35.7528,30.40619 71.6279,61.86612 114.3145,81.3711 93.3227,-44.54826 177.1791,-109.23305 273.7305,-146.84766 59.9804,-23.36727 124.1995,-35.55667 192.0332,-34.98828 67.8336,0.56839 114.0885,8.64705 156.1152,20.86133 V -2.578125 Z" />
        <path
           id="path6169"
           style="display:inline;fill:url(#linearGradient47042);fill-opacity:1;stroke-width:7.281"
           d="m 1270.5938,-2.578125 c -37.8645,35.422335 -82.3096,65.585705 -128.3907,89.355469 -78.5748,40.530956 -165.32941,61.966886 -250.94138,84.042966 -60.68459,15.64826 -122.04442,32.10833 -176.38867,63.32031 -4.1038,2.35697 -8.16878,4.90491 -12.27344,7.29102 49.59875,10.14424 100.84253,11.10916 151.58398,12.40234 72.59046,1.85004 147.37141,5.05238 213.35941,35.35743 43.0334,19.76322 80.1905,50.14542 116.2636,80.82421 35.7528,30.40619 71.6279,61.86612 114.3145,81.3711 93.3227,-44.54826 177.1791,-109.23305 273.7305,-146.84766 59.9804,-23.36727 124.1995,-35.55667 192.0332,-34.98828 67.8336,0.56839 114.0885,8.64705 156.1152,20.86133 V -2.578125 Z" />
        <path
           id="path6171"
           style="display:inline;fill:url(#linearGradient47047);fill-opacity:1;stroke-width:7.281"
           d="m 1270.5938,-2.578125 c -37.8645,35.422335 -82.3096,65.585705 -128.3907,89.355469 -78.5748,40.530956 -165.32941,61.966886 -250.94138,84.042966 -60.68459,15.64826 -122.04442,32.10833 -176.38867,63.32031 -4.1038,2.35697 -8.16878,4.90491 -12.27344,7.29102 49.59875,10.14424 100.84253,11.10916 151.58398,12.40234 72.59046,1.85004 147.37141,5.05238 213.35941,35.35743 43.0334,19.76322 80.1905,50.14542 116.2636,80.82421 35.7528,30.40619 71.6279,61.86612 114.3145,81.3711 93.3227,-44.54826 177.1791,-109.23305 273.7305,-146.84766 59.9804,-23.36727 124.1995,-35.55667 192.0332,-34.98828 67.8336,0.56839 114.0885,8.64705 156.1152,20.86133 V -2.578125 Z" />
      </g>
    </g>
    <g
       id="layer11"
       style="display:inline;opacity:1">
      <path
         id="path16391"
         style="display:inline;opacity:1;fill:#254151;fill-opacity:1;stroke-width:7.281"
         d="m 1066.7344,150.50977 c -56.1899,9.4182 -123.44028,19.74707 -202.72261,18.69117 -79.28234,-1.05589 -172.25437,-8.88954 -238.28132,-9.16969 -63.19211,-0.26814 -106.4702,4.62706 -156.76172,15.06445 -55.26304,11.46918 -89.56234,21.40887 -130.06836,38.42188 -43.49958,18.27037 -60.47635,30.85866 -111.66992,43.66601 -51.19356,12.80737 -84.46228,13.0885 -133.685548,11.11719 C 55.338506,266.77067 27.885636,264.87948 0,260.2832 0,399.78542 0.00281249,897.53798 0,1200 h 877.42578 v -5.1641 c 0.0736,-6e-4 0.20967,0 0.2832,0 0.86,-0.01 -0.85993,2.5686 0,2.5801 C 1326.75,1203.4029 2800,1197.1152 2800,1197.1152 l -2.291,-438.89059 c -59.227,-28.86371 -114.3467,-66.10524 -163.1875,-110.32617 -48.3792,-43.80277 -91.6862,-95.14282 -149.6016,-125.22656 -46.925,-24.37493 -100.2483,-33.02952 -152.7109,-39.64454 -53.1231,-6.69825 -107.5536,-11.94464 -156.2656,-34.17187 -42.7373,-19.50095 -78.6428,-50.9922 -114.4278,-81.42578 -36.0731,-30.67878 -73.2302,-61.06102 -116.2636,-80.82422 -65.9879,-30.30502 -140.7691,-33.50738 -213.3594,-35.35742 -57.6775,-1.46996 -116.0102,-2.4891 -171.8301,-17.08203 -48.7852,-12.75382 -94.2428,-35.51504 -140.2422,-56.17188 -49.5989,-22.2733 -101.0709,-42.45662 -169.4871,-46.47691 -68.4163,-4.02029 -126.1743,9.36737 -183.5988,18.99254 z" />
      <path
         id="path16472"
         style="display:inline;opacity:1;fill:#254151;fill-opacity:1;stroke-width:7.281"
         d="m 1225.1562,130.78516 c -57.673,7.9e-4 -108.1762,11.30259 -158.4218,19.72461 -37.8862,6.35018 -81.26376,12.83452 -129.50393,16.24804 -25.45575,1.80128 -51.61601,2.69117 -73.21875,2.44336 -79.28162,-1.05589 -172.25493,-8.88977 -238.28125,-9.16992 -63.19157,-0.26814 -106.47065,4.62715 -156.76172,15.06445 -55.2625,11.46909 -89.5627,21.40905 -130.06836,38.42188 -43.49922,18.27019 -60.47681,30.85879 -111.66992,43.66601 -51.19312,12.80723 -84.46273,13.0885 -133.685548,11.11719 C 55.338848,266.77067 27.885384,264.87948 0,260.2832 c 0,35.32998 -2.237267e-4,165.69758 0,237.99219 38.491258,6.34991 173.6989,22.28071 243.06836,67.35938 11.29318,7.33867 21.84468,14.42319 32.56836,21.56445 37.49152,-18.8424 40.89056,-20.73431 122.79883,-63.99024 42.86838,-22.63886 59.99211,-26.72769 80.54297,-33.65429 31.59175,-10.648 58.10632,-17.47749 109.2832,-18.28711 4.2647,-0.0675 8.7017,-0.0935 13.32617,-0.0762 13.87352,0.0519 29.4429,0.49128 47.17383,1.35351 27.6717,1.34564 50.76411,3.05876 71.17969,5.17774 49.35233,5.12238 81.28142,12.89844 111.53906,25.63086 43.48924,18.30015 85.74689,32.81695 119.88086,42.13476 34.13386,9.31781 66.35127,14.48304 95.46487,17.62695 50.7863,5.48468 102.034,1.19873 153.08,-0.70703 7.7399,-0.28894 15.5231,-0.32179 23.295,-0.44336 10.3823,-6.92053 19.755,-13.79476 27.459,-20.49609 57.7519,-50.23577 76.0272,-72.05931 130.0566,-141.5918 50.4071,-64.87059 106.5235,-109.77944 195.4824,-162.42187 -5.3681,-1.15726 -10.8116,-1.89694 -16.1367,-3.28906 -48.7852,-12.75373 -94.2429,-35.51504 -140.2422,-56.17188 -49.5981,-22.27294 -101.071,-42.45636 -169.4863,-46.47656 -8.552,-0.50254 -16.9386,-0.73254 -25.1778,-0.73242 z" />
      <g
         id="g3355"
         style="display:inline;opacity:1">
        <path
           id="path3343"
           style="display:inline;opacity:1;fill:#25343c;fill-opacity:1;stroke-width:7.281"
           d="m 1225.1562,130.78516 c -57.673,7.9e-4 -108.1762,11.30259 -158.4218,19.72461 -37.8862,6.35018 -81.26376,12.83452 -129.50393,16.24804 -25.45575,1.80128 -51.61601,2.69117 -73.21875,2.44336 -79.28162,-1.05589 -172.25493,-8.88977 -238.28125,-9.16992 -63.19157,-0.26814 -106.47065,4.62715 -156.76172,15.06445 -55.2625,11.46909 -89.5627,21.40905 -130.06836,38.42188 -43.49922,18.27019 -60.47681,30.85879 -111.66992,43.66601 -51.19312,12.80723 -84.46273,13.0885 -133.685548,11.11719 C 55.338848,266.77067 27.885384,264.87948 0,260.2832 c 0,35.32998 -2.237267e-4,165.69758 0,237.99219 38.491258,6.34991 173.6989,22.28071 243.06836,67.35938 11.29318,7.33867 21.84468,14.42319 32.56836,21.56445 37.49152,-18.8424 40.89056,-20.73431 122.79883,-63.99024 42.86838,-22.63886 59.99211,-26.72769 80.54297,-33.65429 31.59175,-10.648 58.10632,-17.47749 109.2832,-18.28711 4.2647,-0.0675 8.7017,-0.0935 13.32617,-0.0762 13.87352,0.0519 29.4429,0.49128 47.17383,1.35351 27.6717,1.34564 50.76411,3.05876 71.17969,5.17774 49.35233,5.12238 81.28142,12.89844 111.53906,25.63086 43.48924,18.30015 85.74689,32.81695 119.88086,42.13476 34.13386,9.31781 66.35127,14.48304 95.46487,17.62695 50.7863,5.48468 102.034,1.19873 153.08,-0.70703 7.7399,-0.28894 15.5231,-0.32179 23.295,-0.44336 10.3823,-6.92053 19.755,-13.79476 27.459,-20.49609 57.7519,-50.23577 76.0272,-72.05931 130.0566,-141.5918 50.4071,-64.87059 106.5235,-109.77944 195.4824,-162.42187 -5.3681,-1.15726 -10.8116,-1.89694 -16.1367,-3.28906 -48.7852,-12.75373 -94.2429,-35.51504 -140.2422,-56.17188 -49.5981,-22.27294 -101.071,-42.45636 -169.4863,-46.47656 -8.552,-0.50254 -16.9386,-0.73254 -25.1778,-0.73242 z" />
        <path
           id="path3345"
           style="display:inline;opacity:1;fill:url(#linearGradient3575);fill-opacity:1;stroke-width:7.281"
           d="m 1225.1562,130.78516 c -57.673,7.9e-4 -108.1762,11.30259 -158.4218,19.72461 -37.8862,6.35018 -81.26376,12.83452 -129.50393,16.24804 -25.45575,1.80128 -51.61601,2.69117 -73.21875,2.44336 -79.28162,-1.05589 -172.25493,-8.88977 -238.28125,-9.16992 -63.19157,-0.26814 -106.47065,4.62715 -156.76172,15.06445 -55.2625,11.46909 -89.5627,21.40905 -130.06836,38.42188 -43.49922,18.27019 -60.47681,30.85879 -111.66992,43.66601 -51.19312,12.80723 -84.46273,13.0885 -133.685548,11.11719 C 55.338848,266.77067 27.885384,264.87948 0,260.2832 c 0,35.32998 -2.237267e-4,165.69758 0,237.99219 38.491258,6.34991 173.6989,22.28071 243.06836,67.35938 11.29318,7.33867 21.84468,14.42319 32.56836,21.56445 37.49152,-18.8424 40.89056,-20.73431 122.79883,-63.99024 42.86838,-22.63886 59.99211,-26.72769 80.54297,-33.65429 31.59175,-10.648 58.10632,-17.47749 109.2832,-18.28711 4.2647,-0.0675 8.7017,-0.0935 13.32617,-0.0762 13.87352,0.0519 29.4429,0.49128 47.17383,1.35351 27.6717,1.34564 50.76411,3.05876 71.17969,5.17774 49.35233,5.12238 81.28142,12.89844 111.53906,25.63086 43.48924,18.30015 85.74689,32.81695 119.88086,42.13476 34.13386,9.31781 66.35127,14.48304 95.46487,17.62695 50.7863,5.48468 102.034,1.19873 153.08,-0.70703 7.7399,-0.28894 15.5231,-0.32179 23.295,-0.44336 10.3823,-6.92053 19.755,-13.79476 27.459,-20.49609 57.7519,-50.23577 76.0272,-72.05931 130.0566,-141.5918 50.4071,-64.87059 106.5235,-109.77944 195.4824,-162.42187 -5.3681,-1.15726 -10.8116,-1.89694 -16.1367,-3.28906 -48.7852,-12.75373 -94.2429,-35.51504 -140.2422,-56.17188 -49.5981,-22.27294 -101.071,-42.45636 -169.4863,-46.47656 -8.552,-0.50254 -16.9386,-0.73254 -25.1778,-0.73242 z" />
        <path
           id="path3347"
           style="display:inline;opacity:1;fill:url(#linearGradient3583);fill-opacity:1;stroke-width:7.281"
           d="m 1225.1562,130.78516 c -57.673,7.9e-4 -108.1762,11.30259 -158.4218,19.72461 -37.8862,6.35018 -81.26376,12.83452 -129.50393,16.24804 -25.45575,1.80128 -51.61601,2.69117 -73.21875,2.44336 -79.28162,-1.05589 -172.25493,-8.88977 -238.28125,-9.16992 -63.19157,-0.26814 -106.47065,4.62715 -156.76172,15.06445 -55.2625,11.46909 -89.5627,21.40905 -130.06836,38.42188 -43.49922,18.27019 -60.47681,30.85879 -111.66992,43.66601 -51.19312,12.80723 -84.46273,13.0885 -133.685548,11.11719 C 55.338848,266.77067 27.885384,264.87948 0,260.2832 c 0,35.32998 -2.237267e-4,165.69758 0,237.99219 38.491258,6.34991 173.6989,22.28071 243.06836,67.35938 11.29318,7.33867 21.84468,14.42319 32.56836,21.56445 37.49152,-18.8424 40.89056,-20.73431 122.79883,-63.99024 42.86838,-22.63886 59.99211,-26.72769 80.54297,-33.65429 31.59175,-10.648 58.10632,-17.47749 109.2832,-18.28711 4.2647,-0.0675 8.7017,-0.0935 13.32617,-0.0762 13.87352,0.0519 29.4429,0.49128 47.17383,1.35351 27.6717,1.34564 50.76411,3.05876 71.17969,5.17774 49.35233,5.12238 81.28142,12.89844 111.53906,25.63086 43.48924,18.30015 85.74689,32.81695 119.88086,42.13476 34.13386,9.31781 66.35127,14.48304 95.46487,17.62695 50.7863,5.48468 102.034,1.19873 153.08,-0.70703 7.7399,-0.28894 15.5231,-0.32179 23.295,-0.44336 10.3823,-6.92053 19.755,-13.79476 27.459,-20.49609 57.7519,-50.23577 76.0272,-72.05931 130.0566,-141.5918 50.4071,-64.87059 106.5235,-109.77944 195.4824,-162.42187 -5.3681,-1.15726 -10.8116,-1.89694 -16.1367,-3.28906 -48.7852,-12.75373 -94.2429,-35.51504 -140.2422,-56.17188 -49.5981,-22.27294 -101.071,-42.45636 -169.4863,-46.47656 -8.552,-0.50254 -16.9386,-0.73254 -25.1778,-0.73242 z" />
        <path
           id="path3349"
           style="display:inline;opacity:1;fill:url(#linearGradient3591);fill-opacity:1;stroke-width:7.281"
           d="m 1225.1562,130.78516 c -57.673,7.9e-4 -108.1762,11.30259 -158.4218,19.72461 -37.8862,6.35018 -81.26376,12.83452 -129.50393,16.24804 -25.45575,1.80128 -51.61601,2.69117 -73.21875,2.44336 -79.28162,-1.05589 -172.25493,-8.88977 -238.28125,-9.16992 -63.19157,-0.26814 -106.47065,4.62715 -156.76172,15.06445 -55.2625,11.46909 -89.5627,21.40905 -130.06836,38.42188 -43.49922,18.27019 -60.47681,30.85879 -111.66992,43.66601 -51.19312,12.80723 -84.46273,13.0885 -133.685548,11.11719 C 55.338848,266.77067 27.885384,264.87948 0,260.2832 c 0,35.32998 -2.237267e-4,165.69758 0,237.99219 38.491258,6.34991 173.6989,22.28071 243.06836,67.35938 11.29318,7.33867 21.84468,14.42319 32.56836,21.56445 37.49152,-18.8424 40.89056,-20.73431 122.79883,-63.99024 42.86838,-22.63886 59.99211,-26.72769 80.54297,-33.65429 31.59175,-10.648 58.10632,-17.47749 109.2832,-18.28711 4.2647,-0.0675 8.7017,-0.0935 13.32617,-0.0762 13.87352,0.0519 29.4429,0.49128 47.17383,1.35351 27.6717,1.34564 50.76411,3.05876 71.17969,5.17774 49.35233,5.12238 81.28142,12.89844 111.53906,25.63086 43.48924,18.30015 85.74689,32.81695 119.88086,42.13476 34.13386,9.31781 66.35127,14.48304 95.46487,17.62695 50.7863,5.48468 102.034,1.19873 153.08,-0.70703 7.7399,-0.28894 15.5231,-0.32179 23.295,-0.44336 10.3823,-6.92053 19.755,-13.79476 27.459,-20.49609 57.7519,-50.23577 76.0272,-72.05931 130.0566,-141.5918 50.4071,-64.87059 106.5235,-109.77944 195.4824,-162.42187 -5.3681,-1.15726 -10.8116,-1.89694 -16.1367,-3.28906 -48.7852,-12.75373 -94.2429,-35.51504 -140.2422,-56.17188 -49.5981,-22.27294 -101.071,-42.45636 -169.4863,-46.47656 -8.552,-0.50254 -16.9386,-0.73254 -25.1778,-0.73242 z" />
      </g>
      <path
         id="path16476"
         style="display:inline;opacity:1;fill:#254151;fill-opacity:1;stroke-width:7.281"
         d="m 1576.127,237.87891 c -88.3614,52.37999 -145.1971,97.3772 -195.4102,161.99804 -54.0296,69.53263 -72.3045,91.35593 -130.0566,141.5918 -7.704,6.70135 -17.0767,13.57554 -27.459,20.49609 43.4873,-0.6802 87.21,1.73084 128.4472,15.0586 45.3016,14.64087 85.4776,41.52678 125.0157,68.04687 23.4046,15.69922 47.0868,31.43687 71.9004,44.71875 0.198,-0.23596 0.4111,-0.45763 0.6093,-0.69336 6.548,-8.32781 14.2074,-16.84546 22.3223,-25.35937 1.6114,-1.72723 3.3279,-3.33657 4.9609,-5.04102 4.8638,-4.94437 9.735,-9.80465 14.9043,-14.62304 5.5921,-5.34099 11.3287,-10.50086 17.2168,-15.50196 7.6867,-6.54085 15.4606,-12.78194 23.1407,-18.53125 25.3745,-18.99538 55.6668,-33.58477 88.3183,-45.24218 52.5586,-19.18222 109.1776,-29.45071 164.6914,-38.36329 42.9048,-6.88819 86.1156,-13.34043 128.707,-22.05468 21.2957,-4.3571 42.4365,-9.28007 63.3067,-15.10547 20.8702,-5.8254 41.4703,-12.5533 61.6836,-20.52149 14.0894,-5.55408 27.8976,-11.70855 41.5195,-18.25781 -1.3241,-0.57589 -2.6861,-1.03825 -4.0019,-1.63867 -42.7373,-19.50081 -78.6428,-50.99241 -114.4278,-81.42578 -36.0724,-30.67857 -73.2309,-61.06116 -116.2636,-80.82422 -65.9879,-30.30481 -140.7698,-33.50738 -213.3594,-35.35742 -52.1735,-1.32969 -104.8651,-2.39672 -155.7656,-13.36914 z" />
      <g
         id="g7918"
         style="display:inline;opacity:1"
         transform="translate(877.70923,0.2978627)">
        <path
           id="path7912"
           style="display:inline;fill:#263a47;fill-opacity:0.393736;stroke-width:7.281"
           d="m 702.59961,241.43164 c -67.3828,39.17076 -134.44638,82.42267 -185.44531,141.0293 -34.36223,39.48817 -93.6992,134.00027 -158.75,179.21289 -0.0233,0.0162 -0.0548,0.0327 -0.0781,0.0488 39.22635,0.0349 78.43555,3.28719 115.61328,15.30273 45.30147,14.64108 85.47765,41.52649 125.01563,68.04688 22.93736,15.38538 46.24942,30.56559 70.52148,43.67968 24.59983,-29.21421 51.15671,-56.70907 82.24219,-78.71289 73.16524,-51.78991 164.50313,-69.396 253.00972,-83.60547 85.8105,-13.77657 172.8434,-25.80864 253.6973,-57.68164 13.4546,-5.30388 26.6524,-11.15562 39.6777,-17.37304 -42.6787,-19.50557 -78.549,-50.96129 -114.2969,-81.36329 -36.073,-30.67875 -73.2303,-61.06101 -116.2636,-80.82421 -65.988,-30.30502 -140.76899,-33.50739 -213.35938,-35.35743 -50.74139,-1.29317 -101.98522,-2.25823 -151.58398,-12.40234 z" />
        <path
           id="path7914"
           style="display:inline;fill:url(#linearGradient44916);fill-opacity:1;stroke-width:7.281"
           d="m 702.59961,241.43164 c -67.3828,39.17076 -134.44638,82.42267 -185.44531,141.0293 -34.36223,39.48817 -93.6992,134.00027 -158.75,179.21289 -0.0233,0.0162 -0.0548,0.0327 -0.0781,0.0488 39.22635,0.0349 78.43555,3.28719 115.61328,15.30273 45.30147,14.64108 85.47765,41.52649 125.01563,68.04688 22.93736,15.38538 46.24942,30.56559 70.52148,43.67968 24.59983,-29.21421 51.15671,-56.70907 82.24219,-78.71289 73.16524,-51.78991 164.50313,-69.396 253.00972,-83.60547 85.8105,-13.77657 172.8434,-25.80864 253.6973,-57.68164 13.4546,-5.30388 26.6524,-11.15562 39.6777,-17.37304 -42.6787,-19.50557 -78.549,-50.96129 -114.2969,-81.36329 -36.073,-30.67875 -73.2303,-61.06101 -116.2636,-80.82421 -65.988,-30.30502 -140.76899,-33.50739 -213.35938,-35.35743 -50.74139,-1.29317 -101.98522,-2.25823 -151.58398,-12.40234 z" />
        <path
           id="path7916"
           style="display:inline;fill:url(#linearGradient44921);fill-opacity:1;stroke-width:7.281"
           d="m 702.59961,241.43164 c -67.3828,39.17076 -134.44638,82.42267 -185.44531,141.0293 -34.36223,39.48817 -93.6992,134.00027 -158.75,179.21289 -0.0233,0.0162 -0.0548,0.0327 -0.0781,0.0488 39.22635,0.0349 78.43555,3.28719 115.61328,15.30273 45.30147,14.64108 85.47765,41.52649 125.01563,68.04688 22.93736,15.38538 46.24942,30.56559 70.52148,43.67968 24.59983,-29.21421 51.15671,-56.70907 82.24219,-78.71289 73.16524,-51.78991 164.50313,-69.396 253.00972,-83.60547 85.8105,-13.77657 172.8434,-25.80864 253.6973,-57.68164 13.4546,-5.30388 26.6524,-11.15562 39.6777,-17.37304 -42.6787,-19.50557 -78.549,-50.96129 -114.2969,-81.36329 -36.073,-30.67875 -73.2303,-61.06101 -116.2636,-80.82421 -65.988,-30.30502 -140.76899,-33.50739 -213.35938,-35.35743 -50.74139,-1.29317 -101.98522,-2.25823 -151.58398,-12.40234 z" />
      </g>
    </g>
    <g
       id="layer10"
       style="display:inline;opacity:1">
      <path
         id="path16393"
         style="display:inline;opacity:1;fill:#264d64;fill-opacity:1;stroke-width:7.34984"
         d="m 2451.8516,304.53903 c -110.0312,42.8661 -203.5673,120.90617 -313.4258,164.21289 -80.8541,31.87306 -167.8866,43.90503 -253.6973,57.68164 -88.5068,14.20949 -179.8444,31.81546 -253.0097,83.60547 -43.1453,30.54031 -77.7281,71.50665 -110.1758,113.23633 -32.4478,41.72968 -63.466,84.91943 -101.4024,121.73047 -70.7273,68.6293 -161.7974,111.69815 -242.1347,168.77937 -72.3023,51.3719 -137.3825,114.5457 -189.63371,186.2148 603.47521,0 1208.15251,0 1811.62781,0 V 290.41233 c -42.0267,-12.21429 -88.2815,-20.29352 -156.1152,-20.86191 -67.8337,-0.56839 -132.0527,11.62131 -192.0332,34.98861 z" />
      <path
         id="path16466"
         style="display:inline;opacity:1;fill:#264d64;fill-opacity:1;stroke-width:7.281"
         d="m 2179.9473,450.49414 c -13.6224,6.54961 -27.4315,12.70345 -41.5215,18.25781 -80.8536,31.87291 -167.8871,43.90513 -253.6973,57.68164 -88.5063,14.20944 -179.8449,31.81571 -253.0097,83.60547 -31.3807,22.21262 -58.1648,50.00367 -82.959,79.5293 17.0791,9.13755 34.5609,17.40691 53.041,23.29883 42.7289,13.62315 88.259,15.6944 133.1015,14.99023 44.8433,-0.70416 89.7495,-4.0699 134.4844,-0.88672 92.8654,6.60805 183.48,42.21776 255.9199,100.69922 7.8761,7.07486 9.9095,8.93268 15.3789,13.83399 l 39.3243,37.20898 c 13.3065,-15.83099 53.4204,-67.01066 63.0507,-80.42187 25.6715,-35.74879 52.3959,-71.60021 87.3672,-98.32032 31.9117,-24.38187 69.5429,-40.22998 107.8008,-52.4414 38.2586,-12.21149 77.5261,-21.03392 115.8906,-32.90625 11.2578,-3.48379 22.3947,-7.35134 33.4766,-11.36719 -31.6331,-30.60774 -63.8391,-60.41058 -102.6758,-80.58398 -46.9249,-24.37491 -100.2484,-33.02952 -152.7109,-39.64454 -51.6875,-6.51723 -104.5705,-11.78655 -152.2617,-32.5332 z" />
      <path
         id="path5754"
         style="display:inline;mix-blend-mode:normal;fill:#264d64;fill-opacity:1;stroke-width:7.34984;filter:url(#filter2628)"
         d="m 1763.8848,269.55078 c -67.8337,-0.56839 -109.5787,18.33414 -169.5589,41.70135 -30.5484,11.90107 -86.71,60.47186 -115.4195,76.29572 l 4.4764,40.97754 H 1920 V 290.41211 c -42.0267,-12.21426 -88.2818,-20.29294 -156.1152,-20.86133 z"
         transform="translate(877.70923,0.2978627)" />
      <path
         id="path16478"
         style="display:inline;opacity:1;fill:#264d64;fill-opacity:1;stroke-width:7.34984"
         d="m 2643.8848,269.55078 c -67.8337,-0.56839 -132.0532,11.62113 -192.0332,34.98828 -95.9146,37.36652 -179.3024,101.44649 -271.8868,145.96289 47.6866,20.74025 100.5631,26.00898 152.2442,32.52539 52.4624,6.61502 105.7861,15.26965 152.7109,39.64454 38.8367,20.17337 71.0427,49.97627 102.6758,80.58398 39.9102,-14.46267 78.6026,-32.28191 115.1348,-53.88281 34.2502,-20.25203 67.3611,-40.10952 97.2695,-66.35352 V 290.41211 c -42.0267,-12.21424 -88.282,-20.29294 -156.1152,-20.86133 z" />
      <g
         id="g5744"
         style="display:inline;opacity:1"
         transform="translate(877.70923,0.2978627)">
        <path
           id="path5738"
           style="display:inline;fill:#26475b;fill-opacity:1;stroke-width:7.34984"
           d="m 1763.8848,269.55078 c -67.8337,-0.56839 -132.0529,11.62104 -192.0332,34.98828 -96.5552,37.6161 -180.4209,102.29143 -273.7481,146.83985 0.044,0.0203 0.087,0.0442 0.1309,0.0644 48.7121,22.22727 103.1426,27.47361 156.2656,34.17187 52.4628,6.61503 105.7858,15.26957 152.7109,39.64454 37.7711,19.61993 69.2338,48.41415 100.0371,78.1289 40.0327,-14.48427 78.8449,-32.33861 115.4825,-54.00195 34.2506,-20.25211 67.3611,-40.10944 97.2695,-66.35352 V 290.41211 c -42.0267,-12.21427 -88.2817,-20.29294 -156.1152,-20.86133 z" />
        <path
           id="path5740"
           style="display:inline;fill:url(#linearGradient43233);fill-opacity:1;stroke-width:7.34984"
           d="m 1763.8848,269.55078 c -67.8337,-0.56839 -132.0529,11.62104 -192.0332,34.98828 -96.5552,37.6161 -180.4209,102.29143 -273.7481,146.83985 0.044,0.0203 0.087,0.0442 0.1309,0.0644 48.7121,22.22727 103.1426,27.47361 156.2656,34.17187 52.4628,6.61503 105.7858,15.26957 152.7109,39.64454 37.7711,19.61993 69.2338,48.41415 100.0371,78.1289 40.0327,-14.48427 78.8449,-32.33861 115.4825,-54.00195 34.2506,-20.25211 67.3611,-40.10944 97.2695,-66.35352 V 290.41211 c -42.0267,-12.21427 -88.2817,-20.29294 -156.1152,-20.86133 z" />
        <path
           id="path5742"
           style="display:inline;fill:url(#linearGradient44480);fill-opacity:1;stroke-width:7.34984"
           d="m 1763.8848,269.55078 c -67.8337,-0.56839 -132.0529,11.62104 -192.0332,34.98828 -96.5552,37.6161 -180.4209,102.29143 -273.7481,146.83985 0.044,0.0203 0.087,0.0442 0.1309,0.0644 48.7121,22.22727 103.1426,27.47361 156.2656,34.17187 52.4628,6.61503 105.7858,15.26957 152.7109,39.64454 37.7711,19.61993 69.2338,48.41415 100.0371,78.1289 40.0327,-14.48427 78.8449,-32.33861 115.4825,-54.00195 34.2506,-20.25211 67.3611,-40.10944 97.2695,-66.35352 V 290.41211 c -42.0267,-12.21427 -88.2817,-20.29294 -156.1152,-20.86133 z" />
      </g>
      <path
         id="path1258"
         style="display:inline;opacity:1;fill:url(#radialGradient9951);fill-opacity:1;stroke-width:6.62085;stop-color:#000000"
         d="m 1354.7617,421.54102 c -31.2441,17.58239 -63.0032,34.07101 -96.3359,47.21093 -80.4707,31.72193 -167.0594,43.79103 -252.4746,57.48633 a 309.37985,186.36295 0 0 0 -27.83987,72.33984 l -0.0449,1.22071 A 309.37985,186.36295 0 0 0 1280.9238,789.71094 309.37985,186.36295 0 0 0 1596.6895,607.58789 309.37985,186.36295 0 0 0 1354.7617,421.54102 Z"
         transform="translate(877.70923,0.2978627)" />
    </g>
    <g
       id="layer9"
       style="display:inline;opacity:1">
      <path
         id="path16395"
         style="display:inline;opacity:1;fill:#265a78;stroke:none;stroke-width:7.281;-inkscape-stroke:none;stop-color:#000000"
         d="m 478.97852,489.55469 c -20.55108,6.92671 -37.66927,11.02414 -80.54297,33.65429 -56.48569,29.81503 -109.67178,58.87649 -148.61719,76.99414 -38.9454,18.11766 -76.08248,36.05782 -121.50391,40.28907 -39.357394,3.66634 -85.072791,-0.40383 -128.31054375,-3.18946 0,99.68096 -0.00390625,320.04748 0,562.57427 C 839.36666,1200 1820.3282,1200 2551.3867,1200 c -92.0521,-44.6511 -176.1929,-106.051 -246.5937,-180.2871 -60.3698,-63.65843 -111.2231,-136.93369 -179.4864,-192.04298 -72.4404,-58.48176 -163.054,-94.09117 -255.9199,-100.69922 -44.7354,-3.18323 -89.6411,0.18256 -134.4844,0.88672 -44.843,0.70417 -90.3721,-1.36698 -133.1015,-14.99023 -45.3593,-14.46168 -85.5988,-41.27644 -125.1367,-67.79688 -39.5381,-26.52036 -79.7141,-53.40582 -125.0157,-68.04687 -48.6079,-15.70974 -100.694,-16.52101 -151.7422,-14.61524 -51.0471,1.90576 -102.2926,6.19171 -153.08,0.70703 -29.1136,-3.14402 -61.32982,-8.30815 -95.46412,-17.62607 -34.1343,-9.31792 -76.39193,-23.83527 -119.88161,-42.13564 -42.77476,-17.99955 -100.5334,-34.54732 -182.95461,-37.95787 -76.85547,-3.18024 -127.42443,9.96156 -169.54734,24.15904 z" />
      <path
         id="path16450"
         style="display:inline;opacity:1;fill:#276082;fill-opacity:1;stroke-width:7.34984"
         d="m 1548.7598,689.56836 c -9.2955,11.06923 -18.3692,22.32841 -27.2168,33.70703 -32.4478,41.72956 -63.466,84.91955 -101.4024,121.73047 -70.727,68.62909 -161.7977,111.69815 -242.1347,168.77934 -2.9762,2.1146 -5.7402,4.5448 -8.6914,6.6992 10.8811,5.9171 22.2188,12.4559 34.8437,20.6308 74.7426,48.3975 153.0073,83.5957 202.8477,157.1973 129.007,-0.5487 231.0349,-0.9282 374.6054,-1.5117 0.9652,-3.6033 1.9642,-7.2131 3.3692,-10.8809 1.8132,-4.7336 3.9769,-9.5133 6.4511,-14.3203 4.9486,-9.6139 11.1388,-19.3358 18.2481,-29.0117 42.6556,-58.0553 118.4043,-114.4524 157.6426,-135.8984 64.345,-35.16879 136.029,-59.15191 186.0195,-105.91216 9.4712,-8.85926 19.1551,-14.42379 26.668,-22.06445 -7.5118,-9.00572 -15.7133,-16.01908 -54.7032,-51.04297 -72.4401,-58.48158 -163.0543,-94.09117 -255.9199,-100.69922 -44.7351,-3.1832 -89.6411,0.18256 -134.4844,0.88672 -44.8427,0.70417 -90.3724,-1.36704 -133.1015,-14.99023 -18.4801,-5.89192 -35.9617,-14.16126 -53.041,-23.29883 z" />
      <g
         id="g7478"
         style="display:inline"
         transform="translate(877.70923,0.2978627)">
        <path
           id="path7470"
           style="display:inline;fill:#264d64;fill-opacity:0.48597;stroke-width:7.281"
           d="m 669.47656,688.75195 c -9.54357,11.33375 -18.86398,22.85941 -27.93359,34.52344 -32.44774,41.72964 -63.46596,84.91947 -101.40235,121.73047 C 469.41333,913.63509 378.34315,956.70401 298.00586,1013.7852 225.70363,1065.157 160.62417,1128.331 108.37305,1200 H 900.625 c 17.12715,-73.9533 134.374,-164.6989 186.6973,-193.2969 64.3451,-35.16868 136.0284,-59.15238 191.3847,-107.24412 7.925,-6.88492 15.3837,-14.22949 22.5332,-21.87304 -16.9394,-17.6249 -34.5727,-34.51879 -53.6425,-49.91406 -72.4407,-58.48184 -163.054,-94.09118 -255.91997,-100.69922 -44.73561,-3.18325 -89.64313,0.18256 -134.48632,0.88672 -44.84321,0.70415 -90.37007,-1.36695 -133.09961,-14.99024 -19.04481,-6.07197 -37.04852,-14.62596 -54.61524,-24.11719 z M 900.625,1200 h 773.0527 c -0.2705,-0.1312 -0.5323,-0.2806 -0.8027,-0.4121 -252.2381,-0.5398 -518.9642,-1.4261 -772.25,0.4121 z" />
        <path
           id="path7472"
           style="display:inline;fill:url(#linearGradient39872);fill-opacity:1;stroke-width:7.281"
           d="m 669.47656,688.75195 c -9.54357,11.33375 -18.86398,22.85941 -27.93359,34.52344 -32.44774,41.72964 -63.46596,84.91947 -101.40235,121.73047 C 469.41333,913.63509 378.34315,956.70401 298.00586,1013.7852 225.70363,1065.157 160.62417,1128.331 108.37305,1200 H 900.625 c 17.12715,-73.9533 134.374,-164.6989 186.6973,-193.2969 64.3451,-35.16868 136.0284,-59.15238 191.3847,-107.24412 7.925,-6.88492 15.3837,-14.22949 22.5332,-21.87304 -16.9394,-17.6249 -34.5727,-34.51879 -53.6425,-49.91406 -72.4407,-58.48184 -163.054,-94.09118 -255.91997,-100.69922 -44.73561,-3.18325 -89.64313,0.18256 -134.48632,0.88672 -44.84321,0.70415 -90.37007,-1.36695 -133.09961,-14.99024 -19.04481,-6.07197 -37.04852,-14.62596 -54.61524,-24.11719 z M 900.625,1200 h 773.0527 c -0.2705,-0.1312 -0.5323,-0.2806 -0.8027,-0.4121 -252.2381,-0.5398 -518.9642,-1.4261 -772.25,0.4121 z" />
        <path
           id="path7474"
           style="display:inline;fill:url(#linearGradient39717);fill-opacity:1;stroke-width:7.281"
           d="m 669.47656,688.75195 c -9.54357,11.33375 -18.86398,22.85941 -27.93359,34.52344 -32.44774,41.72964 -63.46596,84.91947 -101.40235,121.73047 C 469.41333,913.63509 378.34315,956.70401 298.00586,1013.7852 225.70363,1065.157 160.62417,1128.331 108.37305,1200 H 900.625 c 17.12715,-73.9533 134.374,-164.6989 186.6973,-193.2969 64.3451,-35.16868 136.0284,-59.15238 191.3847,-107.24412 7.925,-6.88492 15.3837,-14.22949 22.5332,-21.87304 -16.9394,-17.6249 -34.5727,-34.51879 -53.6425,-49.91406 -72.4407,-58.48184 -163.054,-94.09118 -255.91997,-100.69922 -44.73561,-3.18325 -89.64313,0.18256 -134.48632,0.88672 -44.84321,0.70415 -90.37007,-1.36695 -133.09961,-14.99024 -19.04481,-6.07197 -37.04852,-14.62596 -54.61524,-24.11719 z M 900.625,1200 h 773.0527 c -0.2705,-0.1312 -0.5323,-0.2806 -0.8027,-0.4121 -252.2381,-0.5398 -518.9642,-1.4261 -772.25,0.4121 z" />
        <path
           id="path7476"
           style="display:inline;fill:url(#linearGradient39850);fill-opacity:1;stroke-width:7.281"
           d="m 669.47656,688.75195 c -9.54356,11.33374 -18.86399,22.85942 -27.93359,34.52344 -32.44771,41.7296 -63.46599,84.91951 -101.40235,121.73047 C 469.41341,913.63502 378.34307,956.70402 298.00586,1013.7852 225.7037,1065.1569 160.62411,1128.3311 108.37305,1200 H 648.10156 L 1121.9492,755.99414 c -41.7541,-15.8407 -85.7233,-25.85158 -130.27147,-29.02148 -44.73556,-3.18325 -89.64318,0.18256 -134.48632,0.88672 -44.84317,0.70414 -90.37012,-1.36696 -133.09961,-14.99024 -19.04479,-6.07196 -37.04854,-14.62597 -54.61524,-24.11719 z" />
      </g>
      <g
         id="g6607"
         style="display:inline;opacity:1"
         transform="translate(877.70923,0.2978627)">
        <path
           style="opacity:1;fill:url(#radialGradient14192);fill-opacity:1;stroke:none;stroke-width:7.281;-inkscape-stroke:none;stop-color:#000000"
           d="m 1301.2402,877.58594 c -16.6045,-17.94313 -34.5519,-34.64329 -53.6425,-49.91469 -41.4229,-33.13601 -88.3555,-59.53561 -138.5951,-76.56028 -37.8998,-12.8431 -77.4905,-20.32183 -117.32487,-24.13831 -44.70279,-4.28292 -89.84311,-3.9855 -134.48558,0.88609 21.79139,35.35696 50.19531,66.62326 83.30405,91.69895 50.07097,37.92243 110.457,61.29956 172.5503,70.76692 62.6556,9.55309 127.397,5.1708 188.1937,-12.73868 z"
           id="path6603" />
        <path
           style="display:inline;opacity:1;fill:url(#radialGradient14206);fill-opacity:1;stroke:none;stroke-width:7.281;-inkscape-stroke:none;stop-color:#000000"
           d="m 1301.2402,877.58594 c -16.6045,-17.94313 -34.5519,-34.64329 -53.6425,-49.91469 -41.4229,-33.13601 -88.3555,-59.53561 -138.5951,-76.56028 -37.8998,-12.8431 -77.4905,-20.32183 -117.32487,-24.13831 -44.70279,-4.28292 -89.84311,-3.9855 -134.48558,0.88609 21.79139,35.35696 50.19531,66.62326 83.30405,91.69895 50.07097,37.92243 110.457,61.29956 172.5503,70.76692 62.6556,9.55309 127.397,5.1708 188.1937,-12.73868 z"
           id="path6605" />
      </g>
      <path
         id="path16464"
         style="display:inline;opacity:1;fill:#265a78;fill-opacity:1;stroke-width:0.998781"
         d="m 1238.3164,561.67773 c -5.0454,-0.0211 -10.0723,0.20823 -15.1152,0.28711 -67.4475,44.95854 -185.0831,91.99842 -273.43558,108.10743 -15.80221,2.88116 -91.64267,5.79197 -164.73828,34.69531 -79.66149,31.49962 -125.12455,76.4619 -177.91015,130.73437 43.12918,22.01272 88.04275,31.40602 132.31445,44.79493 60.0678,18.166 92.21333,25.20934 143.98438,44.4707 51.771,19.2614 79.9474,23.28397 144.42378,44.04883 65.5192,21.10067 76.1201,28.85268 141.4747,51.66799 7e-4,-5e-4 0,0 0,0 2.9506,-2.1538 5.714,-4.5832 8.6895,-6.6972 70.2304,-49.9002 148.6592,-89.09682 214.5332,-144.01762 0.2127,-0.17823 0.4107,-0.36072 0.623,-0.53906 9.2576,-7.74196 18.2787,-15.78088 26.9785,-24.22266 9.4841,-9.20274 18.5354,-18.80403 27.2852,-28.68164 26.2492,-29.63283 49.7813,-61.75163 74.1172,-93.04883 8.7872,-11.30088 17.7915,-22.48932 27.0195,-33.48633 -24.813,-13.28177 -48.4938,-29.0198 -71.8984,-44.71875 -39.5381,-26.52024 -79.7141,-53.4059 -125.0157,-68.04687 -36.4556,-11.78227 -74.8683,-15.18513 -113.332,-15.34571 z" />
      <g
         id="g2943"
         style="display:inline;opacity:1">
        <path
           id="path2935"
           style="display:inline;opacity:1;fill:#26536e;fill-opacity:1;stroke-width:0.998781"
           d="m 1238.3164,561.67773 c -5.0454,-0.0211 -10.0723,0.20823 -15.1152,0.28711 -67.4475,44.95854 -185.0831,91.99842 -273.43558,108.10743 -15.80221,2.88116 -91.64267,5.79197 -164.73828,34.69531 -79.66149,31.49962 -125.12455,76.4619 -177.91015,130.73437 43.12918,22.01272 88.04275,31.40602 132.31445,44.79493 60.0678,18.166 92.21333,25.20934 143.98438,44.4707 51.771,19.2614 79.9474,23.28397 144.42378,44.04883 65.5192,21.10067 76.1201,28.85268 141.4747,51.66799 7e-4,-5e-4 0,0 0,0 2.9506,-2.1538 5.714,-4.5832 8.6895,-6.6972 70.2304,-49.9002 148.6592,-89.09682 214.5332,-144.01762 0.2127,-0.17823 0.4107,-0.36072 0.623,-0.53906 9.2576,-7.74196 18.2787,-15.78088 26.9785,-24.22266 9.4841,-9.20274 18.5354,-18.80403 27.2852,-28.68164 26.2492,-29.63283 49.7813,-61.75163 74.1172,-93.04883 8.7872,-11.30088 17.7915,-22.48932 27.0195,-33.48633 -24.813,-13.28177 -48.4938,-29.0198 -71.8984,-44.71875 -39.5381,-26.52024 -79.7141,-53.4059 -125.0157,-68.04687 -36.4556,-11.78227 -74.8683,-15.18513 -113.332,-15.34571 z" />
        <path
           id="path2937"
           style="display:inline;opacity:1;fill:url(#linearGradient2956);fill-opacity:1;stroke-width:0.998781"
           d="m 1238.3164,561.67773 c -5.0454,-0.0211 -10.0723,0.20823 -15.1152,0.28711 -67.4475,44.95854 -185.0831,91.99842 -273.43558,108.10743 -15.80221,2.88116 -91.64267,5.79197 -164.73828,34.69531 -79.66149,31.49962 -125.12455,76.4619 -177.91015,130.73437 43.12918,22.01272 88.04275,31.40602 132.31445,44.79493 60.0678,18.166 92.21333,25.20934 143.98438,44.4707 51.771,19.2614 79.9474,23.28397 144.42378,44.04883 65.5192,21.10067 76.1201,28.85268 141.4747,51.66799 7e-4,-5e-4 0,0 0,0 2.9506,-2.1538 5.714,-4.5832 8.6895,-6.6972 70.2304,-49.9002 148.6592,-89.09682 214.5332,-144.01762 0.2127,-0.17823 0.4107,-0.36072 0.623,-0.53906 9.2576,-7.74196 18.2787,-15.78088 26.9785,-24.22266 9.4841,-9.20274 18.5354,-18.80403 27.2852,-28.68164 26.2492,-29.63283 49.7813,-61.75163 74.1172,-93.04883 8.7872,-11.30088 17.7915,-22.48932 27.0195,-33.48633 -24.813,-13.28177 -48.4938,-29.0198 -71.8984,-44.71875 -39.5381,-26.52024 -79.7141,-53.4059 -125.0157,-68.04687 -36.4556,-11.78227 -74.8683,-15.18513 -113.332,-15.34571 z" />
        <path
           id="path2939"
           style="display:inline;opacity:1;fill:url(#linearGradient2964);fill-opacity:1;stroke-width:0.998781"
           d="m 1238.3164,561.67773 c -5.0454,-0.0211 -10.0723,0.20823 -15.1152,0.28711 -67.4475,44.95854 -185.0831,91.99842 -273.43558,108.10743 -15.80221,2.88116 -91.64267,5.79197 -164.73828,34.69531 -79.66149,31.49962 -125.12455,76.4619 -177.91015,130.73437 43.12918,22.01272 88.04275,31.40602 132.31445,44.79493 60.0678,18.166 92.21333,25.20934 143.98438,44.4707 51.771,19.2614 79.9474,23.28397 144.42378,44.04883 65.5192,21.10067 76.1201,28.85268 141.4747,51.66799 7e-4,-5e-4 0,0 0,0 2.9506,-2.1538 5.714,-4.5832 8.6895,-6.6972 70.2304,-49.9002 148.6592,-89.09682 214.5332,-144.01762 0.2127,-0.17823 0.4107,-0.36072 0.623,-0.53906 9.2576,-7.74196 18.2787,-15.78088 26.9785,-24.22266 9.4841,-9.20274 18.5354,-18.80403 27.2852,-28.68164 26.2492,-29.63283 49.7813,-61.75163 74.1172,-93.04883 8.7872,-11.30088 17.7915,-22.48932 27.0195,-33.48633 -24.813,-13.28177 -48.4938,-29.0198 -71.8984,-44.71875 -39.5381,-26.52024 -79.7141,-53.4059 -125.0157,-68.04687 -36.4556,-11.78227 -74.8683,-15.18513 -113.332,-15.34571 z" />
      </g>
      <path
         id="path16460"
         style="display:inline;opacity:1;fill:#265a78;fill-opacity:1;stroke:none;stroke-width:7.281;-inkscape-stroke:none;stop-color:#000000"
         d="m 576.27304,471.66023 c -39.18845,0.41697 -65.70257,7.24641 -97.29452,17.89446 -20.55096,6.92665 -37.66957,11.02432 -80.54297,33.65429 -44.83517,23.66551 -87.25112,46.60274 -122.45703,64.22266 53.50338,35.6415 100.21908,69.48406 144.5629,112.02429 44.34382,42.54024 84.84166,61.87876 141.19491,106.96009 14.81928,11.85506 29.99242,21.23184 45.38086,29.08593 52.78548,-54.27235 98.24882,-99.23481 177.91015,-130.73437 73.09547,-28.90328 148.93611,-31.81417 164.73828,-34.69531 88.35338,-16.10919 206.08628,-63.15042 273.53318,-108.10938 -7.8045,0.1212 -15.6202,0.15515 -23.3926,0.44531 -51.0465,1.90576 -102.2932,6.19171 -153.08,0.70703 -29.1136,-3.14396 -61.33081,-8.30909 -95.46487,-17.62695 -34.13412,-9.31786 -76.39142,-23.83451 -119.88086,-42.13476 -30.25778,-12.73245 -62.18674,-20.5085 -111.53906,-25.63086 -20.41557,-2.11898 -43.50784,-3.8321 -71.17969,-5.17774 -17.73103,-0.86223 -33.30024,-1.30166 -72.48868,-0.88469 z" />
      <g
         id="g2517"
         style="display:inline;opacity:1">
        <path
           id="path2155"
           style="display:inline;opacity:1;fill:#264d64;fill-opacity:1;stroke:none;stroke-width:7.281;-inkscape-stroke:none;stop-color:#000000"
           d="m 576.27304,471.66023 c -39.18845,0.41697 -65.70257,7.24641 -97.29452,17.89446 -20.55096,6.92665 -37.66957,11.02432 -80.54297,33.65429 -44.83517,23.66551 -87.25112,46.60274 -122.45703,64.22266 53.50338,35.6415 100.21908,69.48406 144.5629,112.02429 44.34382,42.54024 84.84166,61.87876 141.19491,106.96009 14.81928,11.85506 29.99242,21.23184 45.38086,29.08593 52.78548,-54.27235 98.24882,-99.23481 177.91015,-130.73437 73.09547,-28.90328 148.93611,-31.81417 164.73828,-34.69531 88.35338,-16.10919 206.08628,-63.15042 273.53318,-108.10938 -7.8045,0.1212 -15.6202,0.15515 -23.3926,0.44531 -51.0465,1.90576 -102.2932,6.19171 -153.08,0.70703 -29.1136,-3.14396 -61.33081,-8.30909 -95.46487,-17.62695 -34.13412,-9.31786 -76.39142,-23.83451 -119.88086,-42.13476 -30.25778,-12.73245 -62.18674,-20.5085 -111.53906,-25.63086 -20.41557,-2.11898 -43.50784,-3.8321 -71.17969,-5.17774 -17.73103,-0.86223 -33.30024,-1.30166 -72.48868,-0.88469 z" />
        <path
           id="path2157"
           style="display:inline;opacity:1;fill:url(#linearGradient2530);fill-opacity:1;stroke:none;stroke-width:7.281;-inkscape-stroke:none;stop-color:#000000"
           d="m 576.27304,471.66023 c -39.18845,0.41697 -65.70257,7.24641 -97.29452,17.89446 -20.55096,6.92665 -37.66957,11.02432 -80.54297,33.65429 -44.83517,23.66551 -87.25112,46.60274 -122.45703,64.22266 53.50338,35.6415 100.21908,69.48406 144.5629,112.02429 44.34382,42.54024 84.84166,61.87876 141.19491,106.96009 14.81928,11.85506 29.99242,21.23184 45.38086,29.08593 52.78548,-54.27235 98.24882,-99.23481 177.91015,-130.73437 73.09547,-28.90328 148.93611,-31.81417 164.73828,-34.69531 88.35338,-16.10919 206.08628,-63.15042 273.53318,-108.10938 -7.8045,0.1212 -15.6202,0.15515 -23.3926,0.44531 -51.0465,1.90576 -102.2932,6.19171 -153.08,0.70703 -29.1136,-3.14396 -61.33081,-8.30909 -95.46487,-17.62695 -34.13412,-9.31786 -76.39142,-23.83451 -119.88086,-42.13476 -30.25778,-12.73245 -62.18674,-20.5085 -111.53906,-25.63086 -20.41557,-2.11898 -43.50784,-3.8321 -71.17969,-5.17774 -17.73103,-0.86223 -33.30024,-1.30166 -72.48868,-0.88469 z" />
        <path
           id="path2159"
           style="display:inline;opacity:1;fill:url(#linearGradient2569);fill-opacity:1;stroke:none;stroke-width:7.281;-inkscape-stroke:none;stop-color:#000000"
           d="m 576.27304,471.66023 c -39.18845,0.41697 -65.70257,7.24641 -97.29452,17.89446 -20.55096,6.92665 -37.66957,11.02432 -80.54297,33.65429 -44.83517,23.66551 -87.25112,46.60274 -122.45703,64.22266 53.50338,35.6415 100.21908,69.48406 144.5629,112.02429 44.34382,42.54024 84.84166,61.87876 141.19491,106.96009 14.81928,11.85506 29.99242,21.23184 45.38086,29.08593 52.78548,-54.27235 98.24882,-99.23481 177.91015,-130.73437 73.09547,-28.90328 148.93611,-31.81417 164.73828,-34.69531 88.35338,-16.10919 206.08628,-63.15042 273.53318,-108.10938 -7.8045,0.1212 -15.6202,0.15515 -23.3926,0.44531 -51.0465,1.90576 -102.2932,6.19171 -153.08,0.70703 -29.1136,-3.14396 -61.33081,-8.30909 -95.46487,-17.62695 -34.13412,-9.31786 -76.39142,-23.83451 -119.88086,-42.13476 -30.25778,-12.73245 -62.18674,-20.5085 -111.53906,-25.63086 -20.41557,-2.11898 -43.50784,-3.8321 -71.17969,-5.17774 -17.73103,-0.86223 -33.30024,-1.30166 -72.48868,-0.88469 z" />
      </g>
    </g>
    <g
       id="layer8"
       style="display:inline;opacity:1">
      <path
         id="path16397"
         style="display:inline;opacity:1;fill:#27678d;fill-opacity:1;stroke:none;stroke-width:7.281"
         d="m 2800,483.02021 c -29.9084,26.24412 -63.0187,46.1014 -97.2695,66.35355 -46.6761,27.599 -96.8099,49.21965 -148.6114,65.25 -38.3651,11.87239 -77.632,20.6947 -115.8906,32.90625 -38.2585,12.21154 -75.8891,28.05936 -107.8008,52.44141 -34.9719,26.72023 -61.6957,62.57134 -87.3672,98.32031 -25.6713,35.74896 -51.129,72.29007 -84.3535,101.15429 -55.3565,48.09182 -127.0394,72.07532 -191.3847,107.24408 -52.3233,28.598 -169.5698,119.3434 -186.697,193.2969 336.4617,-2.4419 709.1831,0.2189 1019.3747,0 z" />
      <path
         id="path5283"
         style="display:inline;fill:#27678d;fill-opacity:1;stroke:none;stroke-width:7.281;filter:url(#filter2829)"
         d="m 1224.9881,960.37835 c -40.4992,22.15121 -97.0645,24.13357 -137.6658,46.32475 -52.3233,28.598 -169.57015,119.3436 -186.6973,193.2969 172.578,-1.2525 350.205,-1.1554 526.4277,-0.8496 v -179.4688 c -22.9201,-24.17123 -44.5096,-49.68525 -66.1816,-75.0859 z"
         transform="translate(877.70923,0.2978627)" />
      <path
         id="path4876"
         style="display:inline;mix-blend-mode:normal;fill:#27678d;fill-opacity:1;stroke:none;stroke-width:7.281;filter:url(#filter2635)"
         d="m 1920,483.0332 c -29.9084,26.2441 -63.0188,46.10139 -97.2695,66.35352 -36.6376,21.66337 -74.3119,52.52965 -114.3446,67.01391 16.4284,15.84774 31.5992,18.85001 48.4266,34.0857 48.8411,44.22102 103.9606,81.4624 163.1875,110.32617 z"
         transform="translate(877.70923,0.2978627)" />
      <path
         id="path16452"
         style="display:none;opacity:1;fill:#27678d;fill-opacity:1;stroke:none;stroke-width:7.281"
         d="m 2179.9707,878.87695 c -6.7717,7.16484 -13.7982,14.08265 -21.2637,20.56836 -55.3564,48.09177 -127.0395,72.07542 -191.3847,107.24419 -52.3178,28.5949 -169.5431,119.3242 -186.6895,193.2734 2.0625,10e-5 3.8464,-10e-5 5.9082,0 250.8797,-1.7751 514.3426,-0.9297 764.0098,-0.3926 -91.7217,-44.6165 -175.5728,-105.8488 -245.7578,-179.8574 -43.1299,-45.47932 -81.5883,-95.67057 -124.8223,-140.83595 z" />
      <g
         id="g2465"
         style="display:inline;opacity:1"
         transform="translate(877.70923,0.2978627)">
        <path
           id="path2459"
           style="display:inline;fill:#265a78;fill-opacity:1;stroke:none;stroke-width:7.281"
           d="m 1301.2402,877.58594 c -7.1495,7.64356 -14.6082,14.98811 -22.5332,21.87304 -55.3564,48.09178 -127.0395,72.07538 -191.3847,107.24412 -52.3233,28.598 -169.57013,119.3435 -186.6973,193.2969 253.2861,-1.8382 520.0116,-0.9519 772.25,-0.4121 -91.7353,-44.618 -175.5969,-105.8549 -245.791,-179.8731 -43.5049,-45.87493 -82.146,-96.66317 -125.8438,-142.12886 z" />
        <path
           id="path2461"
           style="display:inline;fill:url(#linearGradient25404);fill-opacity:1;stroke:none;stroke-width:7.281"
           d="m 1301.2402,877.58594 c -7.1495,7.64356 -14.6082,14.98811 -22.5332,21.87304 -55.3564,48.09178 -127.0395,72.07538 -191.3847,107.24412 -52.3233,28.598 -169.57013,119.3435 -186.6973,193.2969 253.2861,-1.8382 520.0116,-0.9519 772.25,-0.4121 -91.7353,-44.618 -175.5969,-105.8549 -245.791,-179.8731 -43.5049,-45.87493 -82.146,-96.66317 -125.8438,-142.12886 z" />
        <path
           id="path2463"
           style="display:inline;fill:url(#linearGradient25396);fill-opacity:1;stroke:none;stroke-width:7.281"
           d="m 1301.2402,877.58594 c -7.1495,7.64356 -14.6082,14.98811 -22.5332,21.87304 -55.3564,48.09178 -127.0395,72.07538 -191.3847,107.24412 -52.3233,28.598 -169.57013,119.3435 -186.6973,193.2969 253.2861,-1.8382 520.0116,-0.9519 772.25,-0.4121 -91.7353,-44.618 -175.5969,-105.8549 -245.791,-179.8731 -43.5049,-45.87493 -82.146,-96.66317 -125.8438,-142.12886 z" />
      </g>
      <path
         id="path16454"
         style="display:none;opacity:1;fill:#27678d;fill-opacity:1;stroke:none;stroke-width:7.281"
         d="m 2587.6543,603.3125 c -11.0934,4.02067 -22.2654,7.82306 -33.5352,11.31055 -38.3649,11.87237 -77.632,20.69472 -115.8906,32.90625 -38.2583,12.2115 -75.8891,28.05941 -107.8008,52.4414 -34.9717,26.72019 -61.6957,62.57141 -87.3672,98.32032 -19.8746,27.67691 -39.7288,55.7254 -63.0507,80.42187 43.2578,45.18092 81.6339,95.5003 124.7832,141.00001 69.3371,73.1145 152.0457,133.6925 242.4707,178.166 64.7534,-0.2443 252.7363,-0.7637 252.7363,-0.7637 l -2.291,-438.89059 c -59.227,-28.86368 -114.3468,-66.10529 -163.1875,-110.32617 -15.9172,-14.41152 -31.3472,-29.56811 -46.8672,-44.58594 z" />
      <g
         id="g4452"
         style="display:inline"
         transform="translate(877.70923,0.2978627)">
        <path
           id="path4444"
           style="display:inline;fill:#265069;fill-opacity:0.301205;stroke:none;stroke-width:7.281"
           d="m 1707.3105,603.44922 c -10.9809,3.97372 -22.0379,7.73598 -33.1914,11.1875 -38.3649,11.87237 -77.632,20.69472 -115.8906,32.90625 -38.2583,12.21152 -75.8891,28.0594 -107.8008,52.44141 -34.9717,26.72017 -61.6957,62.5714 -87.3672,98.32031 -19.5478,27.22175 -38.9964,54.88018 -61.8203,79.28125 43.6978,45.46564 82.3389,96.25402 125.8438,142.12886 70.194,74.0182 154.0558,135.2551 245.791,179.8731 82.8312,0.1772 170.4439,0.4662 247.125,0.4121 V 760.8125 c -59.2269,-28.86377 -114.3464,-66.10515 -163.1875,-110.32617 -16.806,-15.21632 -33.0951,-31.20877 -49.502,-47.03711 z" />
        <path
           id="path4446"
           style="display:inline;fill:url(#linearGradient49043);fill-opacity:1;stroke:none;stroke-width:7.281"
           d="m 1707.3105,603.44922 c -10.9809,3.97372 -22.0379,7.73598 -33.1914,11.1875 -38.3649,11.87237 -77.632,20.69472 -115.8906,32.90625 -38.2583,12.21152 -75.8891,28.0594 -107.8008,52.44141 -34.9717,26.72017 -61.6957,62.5714 -87.3672,98.32031 -19.5478,27.22175 -38.9964,54.88018 -61.8203,79.28125 43.6978,45.46564 82.3389,96.25402 125.8438,142.12886 70.194,74.0182 154.0558,135.2551 245.791,179.8731 82.8312,0.1772 170.4439,0.4662 247.125,0.4121 V 760.8125 c -59.2269,-28.86377 -114.3464,-66.10515 -163.1875,-110.32617 -16.806,-15.21632 -33.0951,-31.20877 -49.502,-47.03711 z" />
        <path
           id="path4448"
           style="display:inline;fill:url(#linearGradient49048);fill-opacity:1;stroke:none;stroke-width:7.281"
           d="m 1707.3105,603.44922 c -10.9809,3.97372 -22.0379,7.73598 -33.1914,11.1875 -38.3649,11.87237 -77.632,20.69472 -115.8906,32.90625 -38.2583,12.21152 -75.8891,28.0594 -107.8008,52.44141 -34.9717,26.72017 -61.6957,62.5714 -87.3672,98.32031 -19.5478,27.22175 -38.9964,54.88018 -61.8203,79.28125 43.6978,45.46564 82.3389,96.25402 125.8438,142.12886 70.194,74.0182 154.0558,135.2551 245.791,179.8731 82.8312,0.1772 170.4439,0.4662 247.125,0.4121 V 760.8125 c -59.2269,-28.86377 -114.3464,-66.10515 -163.1875,-110.32617 -16.806,-15.21632 -33.0951,-31.20877 -49.502,-47.03711 z" />
        <path
           id="path4450"
           style="display:inline;fill:url(#linearGradient49961);fill-opacity:1;stroke:none;stroke-width:7.281"
           d="m 1707.3105,603.44922 c -10.9809,3.97372 -22.0379,7.73598 -33.1914,11.1875 -38.3649,11.87237 -77.632,20.69472 -115.8906,32.90625 -38.2583,12.21152 -75.8891,28.0594 -107.8008,52.44141 -34.9717,26.72017 -61.6957,62.5714 -87.3672,98.32031 -19.5478,27.22175 -38.9964,54.88018 -61.8203,79.28125 43.6978,45.46564 82.3389,96.25402 125.8438,142.12886 70.194,74.0182 154.0558,135.2551 245.791,179.8731 82.8312,0.1772 170.4439,0.4662 247.125,0.4121 V 760.8125 c -59.2269,-28.86377 -114.3464,-66.10515 -163.1875,-110.32617 -16.806,-15.21632 -33.0951,-31.20877 -49.502,-47.03711 z" />
      </g>
      <g
         id="g4037"
         style="display:inline"
         transform="translate(877.70923,0.2978627)">
        <path
           style="display:inline;opacity:1;fill:url(#radialGradient11652);fill-opacity:1;stroke:none;stroke-width:7.281;-inkscape-stroke:none;stop-color:#000000"
           d="m 1301.2402,877.58594 c 21.109,-26.0303 41.7208,-52.46381 61.8203,-79.28125 26.3854,-35.20421 52.4086,-71.61032 87.3672,-98.32031 31.897,-24.37078 69.7938,-39.52554 107.8008,-52.44141 38.0382,-12.92648 76.7352,-23.9142 115.8906,-32.90625 -11.3301,42.1984 -28.6738,82.77735 -51.3439,120.129 -38.5792,63.56388 -94.964,118.98349 -165.395,142.82022 -50.1858,16.98491 -105.9542,16.98491 -156.14,0 z"
           id="path4033" />
        <path
           style="display:inline;opacity:1;fill:url(#radialGradient13857);fill-opacity:1;stroke:none;stroke-width:7.281;-inkscape-stroke:none;stop-color:#000000"
           d="m 1301.2402,877.58594 c 21.0914,-26.04438 41.7028,-52.47745 61.8203,-79.28125 26.4071,-35.18383 52.4711,-71.53419 87.3672,-98.32031 31.8506,-24.44837 69.6838,-39.82101 107.8008,-52.44141 26.4436,-8.75537 53.2782,-16.32961 80.3971,-22.69257 3.9243,37.19422 -1.5773,75.34527 -15.8504,109.91532 -14.3798,34.82833 -37.5555,65.86906 -66.2751,90.26122 -28.7195,24.39216 -62.9016,42.16548 -99.1199,52.559 -50.6847,14.54492 -105.4553,14.54492 -156.14,0 z"
           id="path4035" />
      </g>
      <path
         id="path16468"
         style="display:inline;opacity:1;fill:#27678d;fill-opacity:1;stroke:none;stroke-width:7.281"
         d="m 2800,483.01953 c -29.9084,26.24408 -63.0189,46.10141 -97.2695,66.35352 -36.5214,21.59463 -75.1785,39.47901 -115.0762,53.93945 15.52,15.01781 30.95,30.17443 46.8672,44.58594 48.8406,44.22083 103.9605,81.46252 163.1875,110.32617 2.291,-158.23145 2.1473,-212.60768 2.291,-275.20508 z" />
      <path
         id="path4858"
         style="display:inline;opacity:1;fill:#27678d;fill-opacity:1;stroke:none;stroke-width:7.281"
         d="m 1920,483.0332 c -29.9084,26.2441 -63.0188,46.10139 -97.2695,66.35352 -36.6376,21.66337 -75.4498,39.51769 -115.4825,54.00195 16.4284,15.84774 32.7371,31.86197 49.5645,47.09766 48.8411,44.22102 103.9606,81.4624 163.1875,110.32617 z"
         transform="translate(877.70923,0.2978627)" />
      <g
         id="g4870"
         style="display:inline"
         transform="translate(877.70923,0.2978627)">
        <path
           id="path4866"
           style="display:inline;fill:#265a78;fill-opacity:1;stroke:none;stroke-width:7.281"
           d="m 1920,483.0332 c -29.9084,26.2441 -63.0188,46.10139 -97.2695,66.35352 -36.6376,21.66337 -75.4498,39.51769 -115.4825,54.00195 16.4284,15.84774 32.7371,31.86197 49.5645,47.09766 48.8411,44.22102 103.9606,81.4624 163.1875,110.32617 z" />
        <path
           id="path4868"
           style="display:inline;fill:url(#linearGradient1210);fill-opacity:1;stroke:none;stroke-width:7.281"
           d="m 1920,483.0332 c -29.9084,26.2441 -63.0188,46.10139 -97.2695,66.35352 -36.6376,21.66337 -75.4498,39.51769 -115.4825,54.00195 16.4284,15.84774 32.7371,31.86197 49.5645,47.09766 48.8411,44.22102 103.9606,81.4624 163.1875,110.32617 z" />
      </g>
    </g>
    <g
       id="layer7"
       style="display:inline;opacity:1">
      <path
         style="display:inline;opacity:1;fill:#276082;fill-opacity:1;stroke-width:1.06667"
         d="m 0,498.276 c 38.4916,6.35 173.69915,22.27991 243.06914,67.35894 69.36999,45.07903 128.09519,85.68422 174.95539,131.02247 46.8602,45.33825 87.3589,64.67678 143.7125,109.75839 56.3537,45.08161 117.6274,55.71472 177.6955,73.88083 60.0681,18.1661 92.2122,25.21039 143.9835,44.47185 51.7713,19.2615 79.8887,23.4647 144.42427,44.047 64.5355,20.5824 103.1995,24.9542 176.3181,72.29992 75.3466,48.7884 154.3508,84.0578 204.1276,158.8846 H 0 Z"
         id="path16399" />
      <path
         id="path16458"
         style="display:inline;opacity:1;fill:#276082;fill-opacity:1;stroke-width:1.06667"
         d="m 0,498.27539 c -0.00400608,90.49186 0.00399901,401.79717 0.00390625,139.02734 43.23762375,2.78563 88.95327575,6.85577 128.31054375,3.18946 45.42131,-4.23125 82.55863,-22.17144 121.50391,-40.28907 7.42293,-3.45318 17.43651,-8.82614 25.81836,-13.0039 -10.72375,-7.14133 -21.27511,-14.22571 -32.56836,-21.56445 C 173.69841,520.55582 38.491524,504.62537 0,498.27539 Z" />
      <path
         id="path16442"
         style="display:inline;opacity:1;fill:#276082;fill-opacity:1;stroke:none;stroke-width:7.281;-inkscape-stroke:none;stop-color:#000000"
         d="m 275.63672,587.19922 c -8.38183,4.17774 -18.39545,9.55074 -25.81836,13.0039 -38.9452,18.11761 -76.08268,36.05782 -121.50391,40.28907 -39.357184,3.66629 -85.073006,-0.40383 -128.31054375,-3.18946 0,99.68046 -0.00390625,320.04848 0,562.57427 133.01974375,0.1924 72.55865375,0.053 131.50976375,0.1308 269.6808,0.3555 37.76232,-0.1215 127.15235,-1.0664 54.46537,-27.2547 97.70068,-61.1042 160.85546,-120.9473 76.15575,-72.1617 90.26982,-143.21298 163.38672,-217.73629 8.50162,-8.66514 16.17866,-16.50056 24.17188,-24.71875 -15.37822,-7.85132 -30.53399,-17.2756 -45.34375,-29.12304 -56.35335,-45.08141 -96.85099,-64.41977 -143.71094,-109.75782 -1.06516,-1.03056 -2.20513,-2.03652 -3.2832,-3.0625 -38.62866,-36.7622 -85.45507,-70.66875 -139.10547,-106.39648 z" />
      <g
         id="g1771"
         style="display:inline;opacity:1">
        <path
           id="path1762"
           style="display:inline;opacity:1;fill:#265a78;fill-opacity:1;stroke:none;stroke-width:7.281;-inkscape-stroke:none;stop-color:#000000"
           d="m 275.63672,587.19922 c -8.38183,4.17774 -18.39545,9.55074 -25.81836,13.0039 -38.9452,18.11761 -76.08268,36.05782 -121.50391,40.28907 -39.357184,3.66629 -85.073006,-0.40383 -128.31054375,-3.18946 0,99.68046 -0.00390625,320.04848 0,562.57427 133.01974375,0.1924 72.55865375,0.053 131.50976375,0.1308 269.6808,0.3555 37.76232,-0.1215 127.15235,-1.0664 54.46537,-27.2547 97.70068,-61.1042 160.85546,-120.9473 76.15575,-72.1617 90.26982,-143.21298 163.38672,-217.73629 8.50162,-8.66514 16.17866,-16.50056 24.17188,-24.71875 -15.37822,-7.85132 -30.53399,-17.2756 -45.34375,-29.12304 -56.35335,-45.08141 -96.85099,-64.41977 -143.71094,-109.75782 -1.06516,-1.03056 -2.20513,-2.03652 -3.2832,-3.0625 -38.62866,-36.7622 -85.45507,-70.66875 -139.10547,-106.39648 z" />
        <path
           id="path1764"
           style="display:inline;opacity:1;fill:url(#linearGradient1791);fill-opacity:1;stroke:none;stroke-width:7.281;-inkscape-stroke:none;stop-color:#000000"
           d="m 275.63672,587.19922 c -8.38183,4.17774 -18.39545,9.55074 -25.81836,13.0039 -38.9452,18.11761 -76.08268,36.05782 -121.50391,40.28907 -39.357184,3.66629 -85.073006,-0.40383 -128.31054375,-3.18946 0,99.68046 -0.00390625,320.04848 0,562.57427 133.01974375,0.1924 72.55865375,0.053 131.50976375,0.1308 269.6808,0.3555 37.76232,-0.1215 127.15235,-1.0664 54.46537,-27.2547 97.70068,-61.1042 160.85546,-120.9473 76.15575,-72.1617 90.26982,-143.21298 163.38672,-217.73629 8.50162,-8.66514 16.17866,-16.50056 24.17188,-24.71875 -15.37822,-7.85132 -30.53399,-17.2756 -45.34375,-29.12304 -56.35335,-45.08141 -96.85099,-64.41977 -143.71094,-109.75782 -1.06516,-1.03056 -2.20513,-2.03652 -3.2832,-3.0625 -38.62866,-36.7622 -85.45507,-70.66875 -139.10547,-106.39648 z" />
        <path
           id="path1766"
           style="display:inline;opacity:1;fill:url(#linearGradient1799);fill-opacity:1;stroke:none;stroke-width:7.281;-inkscape-stroke:none;stop-color:#000000"
           d="m 275.63672,587.19922 c -8.38183,4.17774 -18.39545,9.55074 -25.81836,13.0039 -38.9452,18.11761 -76.08268,36.05782 -121.50391,40.28907 -39.357184,3.66629 -85.073006,-0.40383 -128.31054375,-3.18946 0,99.68046 -0.00390625,320.04848 0,562.57427 133.01974375,0.1924 72.55865375,0.053 131.50976375,0.1308 269.6808,0.3555 37.76232,-0.1215 127.15235,-1.0664 54.46537,-27.2547 97.70068,-61.1042 160.85546,-120.9473 76.15575,-72.1617 90.26982,-143.21298 163.38672,-217.73629 8.50162,-8.66514 16.17866,-16.50056 24.17188,-24.71875 -15.37822,-7.85132 -30.53399,-17.2756 -45.34375,-29.12304 -56.35335,-45.08141 -96.85099,-64.41977 -143.71094,-109.75782 -1.06516,-1.03056 -2.20513,-2.03652 -3.2832,-3.0625 -38.62866,-36.7622 -85.45507,-70.66875 -139.10547,-106.39648 z" />
      </g>
      <path
         id="path16446"
         style="display:inline;opacity:1;fill:#276082;fill-opacity:1;stroke:none;stroke-width:7.281;-inkscape-stroke:none;stop-color:#000000"
         d="m 607.11719,835.50195 c -8.00634,8.23186 -15.69444,16.07754 -24.20899,24.75586 -73.11714,74.52352 -87.23076,145.57429 -163.38672,217.73629 -63.15499,59.8431 -106.38991,93.6926 -160.85546,120.9473 132.3204,0 450.24522,0.456 729.88867,0.8203 6.36574,-8.7242 12.93191,-17.3144 19.66991,-25.7773 3.1387,-3.9452 6.4366,-7.7671 9.6524,-11.6543 3.626,-4.3786 7.1885,-8.8046 10.9101,-13.1074 1.085,-1.2561 2.2313,-2.4556 3.3242,-3.7051 13.3145,-15.2022 27.1753,-29.9459 41.5977,-44.1406 2.1684,-2.1379 4.4118,-4.1808 6.6035,-6.295 13.3769,-12.8814 27.1213,-25.3771 41.3047,-37.3437 3.3375,-2.8196 6.7422,-5.5225 10.1211,-8.2891 12.2321,-10.0048 24.6379,-19.7816 37.3672,-29.0762 -60.5114,-22.49973 -121.1936,-45.23479 -141.2657,-51.55659 -64.53524,-20.58194 -92.65266,-24.78739 -144.42378,-44.04883 -51.77115,-19.2614 -83.91646,-26.30466 -143.98438,-44.4707 -44.27179,-13.38907 -89.18529,-22.7822 -132.31445,-44.79493 z" />
      <g
         id="g1720">
        <path
           id="path1708"
           style="display:inline;opacity:1;fill:#265a78;fill-opacity:1;stroke:none;stroke-width:7.281;-inkscape-stroke:none;stop-color:#000000"
           d="m 607.11719,835.50195 c -8.00634,8.23186 -15.69444,16.07754 -24.20899,24.75586 -73.11714,74.52352 -87.23076,145.57429 -163.38672,217.73629 -63.15499,59.8431 -106.38991,93.6926 -160.85546,120.9473 132.3204,0 450.24522,0.456 729.88867,0.8203 6.36574,-8.7242 12.93191,-17.3144 19.66991,-25.7773 3.1387,-3.9452 6.4366,-7.7671 9.6524,-11.6543 3.626,-4.3786 7.1885,-8.8046 10.9101,-13.1074 1.085,-1.2561 2.2313,-2.4556 3.3242,-3.7051 13.3145,-15.2022 27.1753,-29.9459 41.5977,-44.1406 2.1684,-2.1379 4.4118,-4.1808 6.6035,-6.295 13.3769,-12.8814 27.1213,-25.3771 41.3047,-37.3437 3.3375,-2.8196 6.7422,-5.5225 10.1211,-8.2891 12.2321,-10.0048 24.6379,-19.7816 37.3672,-29.0762 -60.5114,-22.49973 -121.1936,-45.23479 -141.2657,-51.55659 -64.53524,-20.58194 -92.65266,-24.78739 -144.42378,-44.04883 -51.77115,-19.2614 -83.91646,-26.30466 -143.98438,-44.4707 -44.27179,-13.38907 -89.18529,-22.7822 -132.31445,-44.79493 z" />
        <path
           id="path1711"
           style="display:inline;opacity:1;fill:url(#linearGradient1751);fill-opacity:1;stroke:none;stroke-width:7.281;-inkscape-stroke:none;stop-color:#000000"
           d="m 607.11719,835.50195 c -8.00634,8.23186 -15.69444,16.07754 -24.20899,24.75586 -73.11714,74.52352 -87.23076,145.57429 -163.38672,217.73629 -63.15499,59.8431 -106.38991,93.6926 -160.85546,120.9473 132.3204,0 450.24522,0.456 729.88867,0.8203 6.36574,-8.7242 12.93191,-17.3144 19.66991,-25.7773 3.1387,-3.9452 6.4366,-7.7671 9.6524,-11.6543 3.626,-4.3786 7.1885,-8.8046 10.9101,-13.1074 1.085,-1.2561 2.2313,-2.4556 3.3242,-3.7051 13.3145,-15.2022 27.1753,-29.9459 41.5977,-44.1406 2.1684,-2.1379 4.4118,-4.1808 6.6035,-6.295 13.3769,-12.8814 27.1213,-25.3771 41.3047,-37.3437 3.3375,-2.8196 6.7422,-5.5225 10.1211,-8.2891 12.2321,-10.0048 24.6379,-19.7816 37.3672,-29.0762 -60.5114,-22.49973 -121.1936,-45.23479 -141.2657,-51.55659 -64.53524,-20.58194 -92.65266,-24.78739 -144.42378,-44.04883 -51.77115,-19.2614 -83.91646,-26.30466 -143.98438,-44.4707 -44.27179,-13.38907 -89.18529,-22.7822 -132.31445,-44.79493 z" />
        <path
           id="path1714"
           style="display:inline;opacity:1;fill:url(#linearGradient1759);fill-opacity:1;stroke:none;stroke-width:7.281;-inkscape-stroke:none;stop-color:#000000"
           d="m 607.11719,835.50195 c -8.00634,8.23186 -15.69444,16.07754 -24.20899,24.75586 -73.11714,74.52352 -87.23076,145.57429 -163.38672,217.73629 -63.15499,59.8431 -106.38991,93.6926 -160.85546,120.9473 132.3204,0 450.24522,0.456 729.88867,0.8203 6.36574,-8.7242 12.93191,-17.3144 19.66991,-25.7773 3.1387,-3.9452 6.4366,-7.7671 9.6524,-11.6543 3.626,-4.3786 7.1885,-8.8046 10.9101,-13.1074 1.085,-1.2561 2.2313,-2.4556 3.3242,-3.7051 13.3145,-15.2022 27.1753,-29.9459 41.5977,-44.1406 2.1684,-2.1379 4.4118,-4.1808 6.6035,-6.295 13.3769,-12.8814 27.1213,-25.3771 41.3047,-37.3437 3.3375,-2.8196 6.7422,-5.5225 10.1211,-8.2891 12.2321,-10.0048 24.6379,-19.7816 37.3672,-29.0762 -60.5114,-22.49973 -121.1936,-45.23479 -141.2657,-51.55659 -64.53524,-20.58194 -92.65266,-24.78739 -144.42378,-44.04883 -51.77115,-19.2614 -83.91646,-26.30466 -143.98438,-44.4707 -44.27179,-13.38907 -89.18529,-22.7822 -132.31445,-44.79493 z" />
      </g>
      <path
         id="path16448"
         style="display:inline;opacity:1;fill:#276082;fill-opacity:1;stroke-width:7.34984"
         d="m 1169.1055,1020.373 c -68.7119,50.1712 -130.6536,110.9375 -180.73245,179.627 81.60055,-0.3479 274.46365,-1.0744 418.63285,-1.6875 -49.8404,-73.6015 -128.1052,-108.7998 -202.8477,-157.1973 -12.7065,-8.2277 -24.1106,-14.7995 -35.0527,-20.7422 z" />
    </g>
    <path
       id="rect3645"
       style="display:inline;opacity:0.331624;fill:#265a78;fill-rule:evenodd"
       d="M 0,0 H 2800 V 1200 H 0 Z" />
  </g>
  <g
     id="layer6"
     style="display:inline"
     transform="matrix(0.85081006,0,0,0.85081006,1074.5962,80.676897)">
    <g
       id="g880001"
       style="display:inline;fill:#85a0b4;fill-opacity:1"
       transform="matrix(0.98475674,0,0,0.98475674,1229.1579,591.67491)">
      <path
         i:knockout="Off"
         fill="#85a0b4"
         d="m 51.986,57.297 c -1.797,0.025 0.34,0.926 2.686,1.287 0.648,-0.506 1.236,-1.018 1.76,-1.516 -1.461,0.358 -2.948,0.366 -4.446,0.229"
         id="path879977"
         style="fill:#85a0b4;fill-opacity:1" />
      <path
         i:knockout="Off"
         fill="#85a0b4"
         d="m 61.631,54.893 c 1.07,-1.477 1.85,-3.094 2.125,-4.766 -0.24,1.192 -0.887,2.221 -1.496,3.307 -3.359,2.115 -0.316,-1.256 -0.002,-2.537 -3.612,4.546 -0.496,2.726 -0.627,3.996"
         id="path879979"
         style="fill:#85a0b4;fill-opacity:1" />
      <path
         i:knockout="Off"
         fill="#85a0b4"
         d="m 65.191,45.629 c 0.217,-3.236 -0.637,-2.213 -0.924,-0.978 0.335,0.174 0.6,2.281 0.924,0.978"
         id="path879981"
         style="fill:#85a0b4;fill-opacity:1" />
      <path
         i:knockout="Off"
         fill="#85a0b4"
         d="m 45.172,1.399 c 0.959,0.172 2.072,0.304 1.916,0.533 1.049,-0.23 1.287,-0.442 -1.916,-0.533"
         id="path879983"
         style="fill:#85a0b4;fill-opacity:1" />
      <path
         i:knockout="Off"
         fill="#85a0b4"
         d="M 47.088,1.932 46.41,2.072 47.041,2.016 47.088,1.932"
         id="path879985"
         style="fill:#85a0b4;fill-opacity:1" />
      <path
         i:knockout="Off"
         fill="#85a0b4"
         d="m 76.992,46.856 c 0.107,2.906 -0.85,4.316 -1.713,6.812 l -1.553,0.776 c -1.271,2.468 0.123,1.567 -0.787,3.53 -1.984,1.764 -6.021,5.52 -7.313,5.863 -0.943,-0.021 0.639,-1.113 0.846,-1.541 -2.656,1.824 -2.131,2.738 -6.193,3.846 L 60.16,65.878 C 50.142,70.591 36.226,61.251 36.409,48.507 c -0.107,0.809 -0.304,0.607 -0.526,0.934 -0.517,-6.557 3.028,-13.143 9.007,-15.832 5.848,-2.895 12.704,-1.707 16.893,2.197 -2.301,-3.014 -6.881,-6.209 -12.309,-5.91 -5.317,0.084 -10.291,3.463 -11.951,7.131 -2.724,1.715 -3.04,6.611 -4.227,7.507 -1.597,11.737 3.004,16.808 10.787,22.773 1.225,0.826 0.345,0.951 0.511,1.58 -2.586,-1.211 -4.954,-3.039 -6.901,-5.277 1.033,1.512 2.148,2.982 3.589,4.137 -2.438,-0.826 -5.695,-5.908 -6.646,-6.115 4.203,7.525 17.052,13.197 23.78,10.383 -3.113,0.115 -7.068,0.064 -10.566,-1.229 -1.469,-0.756 -3.467,-2.322 -3.11,-2.615 9.182,3.43 18.667,2.598 26.612,-3.771 2.021,-1.574 4.229,-4.252 4.867,-4.289 -0.961,1.445 0.164,0.695 -0.574,1.971 2.014,-3.248 -0.875,-1.322 2.082,-5.609 l 1.092,1.504 c -0.406,-2.696 3.348,-5.97 2.967,-10.234 0.861,-1.304 0.961,1.403 0.047,4.403 1.268,-3.328 0.334,-3.863 0.66,-6.609 0.352,0.923 0.814,1.904 1.051,2.878 -0.826,-3.216 0.848,-5.416 1.262,-7.285 -0.408,-0.181 -1.275,1.422 -1.473,-2.377 0.029,-1.65 0.459,-0.865 0.625,-1.271 -0.324,-0.186 -1.174,-1.451 -1.691,-3.877 0.375,-0.57 1.002,1.478 1.512,1.562 -0.328,-1.929 -0.893,-3.4 -0.916,-4.88 -1.49,-3.114 -0.527,0.415 -1.736,-1.337 -1.586,-4.947 1.316,-1.148 1.512,-3.396 2.404,3.483 3.775,8.881 4.404,11.117 -0.48,-2.726 -1.256,-5.367 -2.203,-7.922 0.73,0.307 -1.176,-5.609 0.949,-1.691 C 83.519,18.706 76.074,10.902 69.225,7.24 70.063,8.007 71.121,8.97 70.741,9.121 67.335,7.093 67.934,6.935 67.446,6.078 64.671,4.949 64.489,6.169 62.651,6.08 57.421,3.306 56.413,3.601 51.6,1.863 l 0.219,1.023 c -3.465,-1.154 -4.037,0.438 -7.782,0.004 -0.228,-0.178 1.2,-0.644 2.375,-0.815 -3.35,0.442 -3.193,-0.66 -6.471,0.122 0.808,-0.567 1.662,-0.942 2.524,-1.424 -2.732,0.166 -6.522,1.59 -5.352,0.295 -4.456,1.988 -12.37,4.779 -16.811,8.943 l -0.14,-0.933 c -2.035,2.443 -8.874,7.296 -9.419,10.46 l -0.544,0.127 c -1.059,1.793 -1.744,3.825 -2.584,5.67 -1.385,2.36 -2.03,0.908 -1.833,1.278 -2.724,5.523 -4.077,10.164 -5.246,13.97 0.833,1.245 0.02,7.495 0.335,12.497 -1.368,24.704 17.338,48.69 37.785,54.228 2.997,1.072 7.454,1.031 11.245,1.141 -4.473,-1.279 -5.051,-0.678 -9.408,-2.197 -3.143,-1.48 -3.832,-3.17 -6.058,-5.102 l 0.881,1.557 c -4.366,-1.545 -2.539,-1.912 -6.091,-3.037 l 0.941,-1.229 C 28.751,98.334 26.418,96.056 25.78,94.795 l -1.548,0.061 c -1.86,-2.295 -2.851,-3.949 -2.779,-5.23 l -0.5,0.891 c -0.567,-0.973 -6.843,-8.607 -3.587,-6.83 -0.605,-0.553 -1.409,-0.9 -2.281,-2.484 l 0.663,-0.758 c -1.567,-2.016 -2.884,-4.6 -2.784,-5.461 0.836,1.129 1.416,1.34 1.99,1.533 -3.957,-9.818 -4.179,-0.541 -7.176,-9.994 L 8.412,66.472 C 7.926,65.74 7.631,64.945 7.24,64.165 l 0.276,-2.75 C 4.667,58.121 6.719,47.409 7.13,41.534 7.415,39.145 9.508,36.602 11.1,32.614 l -0.97,-0.167 c 1.854,-3.234 10.586,-12.988 14.63,-12.486 1.959,-2.461 -0.389,-0.009 -0.772,-0.629 4.303,-4.453 5.656,-3.146 8.56,-3.947 3.132,-1.859 -2.688,0.725 -1.203,-0.709 5.414,-1.383 3.837,-3.144 10.9,-3.846 0.745,0.424 -1.729,0.655 -2.35,1.205 4.511,-2.207 14.275,-1.705 20.617,1.225 7.359,3.439 15.627,13.605 15.953,23.17 l 0.371,0.1 c -0.188,3.802 0.582,8.199 -0.752,12.238 l 0.908,-1.912"
         id="path879987"
         style="fill:#85a0b4;fill-opacity:1" />
      <path
         i:knockout="Off"
         fill="#85a0b4"
         d="m 32.372,59.764 -0.252,1.26 c 1.181,1.604 2.118,3.342 3.626,4.596 -1.085,-2.118 -1.891,-2.993 -3.374,-5.856"
         id="path879989"
         style="fill:#85a0b4;fill-opacity:1" />
      <path
         i:knockout="Off"
         fill="#85a0b4"
         d="m 35.164,59.654 c -0.625,-0.691 -0.995,-1.523 -1.409,-2.352 0.396,1.457 1.207,2.709 1.962,3.982 l -0.553,-1.63"
         id="path879991"
         style="fill:#85a0b4;fill-opacity:1" />
      <path
         i:knockout="Off"
         fill="#85a0b4"
         d="m 84.568,48.916 -0.264,0.662 c -0.484,3.438 -1.529,6.84 -3.131,9.994 1.77,-3.328 2.915,-6.968 3.395,-10.656"
         id="path879993"
         style="fill:#85a0b4;fill-opacity:1" />
      <path
         i:knockout="Off"
         fill="#85a0b4"
         d="M 45.527,0.537 C 46.742,0.092 48.514,0.293 49.803,0 48.123,0.141 46.451,0.225 44.8,0.438 l 0.727,0.099"
         id="path879995"
         style="fill:#85a0b4;fill-opacity:1" />
      <path
         i:knockout="Off"
         fill="#85a0b4"
         d="m 2.872,23.219 c 0.28,2.592 -1.95,3.598 0.494,1.889 1.31,-2.951 -0.512,-0.815 -0.494,-1.889"
         id="path879997"
         style="fill:#85a0b4;fill-opacity:1" />
      <path
         i:knockout="Off"
         fill="#85a0b4"
         d="M 0,35.215 C 0.563,33.487 0.665,32.449 0.88,31.449 -0.676,33.438 0.164,33.862 0,35.215"
         id="path879999"
         style="fill:#85a0b4;fill-opacity:1" />
    </g>
  </g>
</svg>
