<?xml version="1.0" encoding="UTF-8" standalone="no"?>
<!-- Created with Inkscape (http://www.inkscape.org/) -->

<svg
   width="800"
   height="75"
   viewBox="0 0 211.66666 19.84375"
   version="1.1"
   id="svg5"
   sodipodi:docname="installer.svg"
   inkscape:version="1.2.2 (b0a8486541, 2022-12-01)"
   xmlns:inkscape="http://www.inkscape.org/namespaces/inkscape"
   xmlns:sodipodi="http://sodipodi.sourceforge.net/DTD/sodipodi-0.dtd"
   xmlns:xlink="http://www.w3.org/1999/xlink"
   xmlns="http://www.w3.org/2000/svg"
   xmlns:svg="http://www.w3.org/2000/svg"
   xmlns:i="http://ns.adobe.com/AdobeIllustrator/10.0/">
  <sodipodi:namedview
     id="namedview5"
     pagecolor="#505050"
     bordercolor="#eeeeee"
     borderopacity="1"
     inkscape:showpageshadow="0"
     inkscape:pageopacity="0"
     inkscape:pagecheckerboard="0"
     inkscape:deskcolor="#505050"
     showgrid="false"
     inkscape:zoom="1.3172834"
     inkscape:cx="390.19696"
     inkscape:cy="134.74701"
     inkscape:window-width="1920"
     inkscape:window-height="997"
     inkscape:window-x="0"
     inkscape:window-y="0"
     inkscape:window-maximized="1"
     inkscape:current-layer="svg5"
     showguides="true" />
  <defs
     id="defs2">
    <linearGradient
       inkscape:collect="always"
       id="linearGradient4267">
      <stop
         style="stop-color:#000000;stop-opacity:1;"
         offset="0"
         id="stop4263" />
      <stop
         style="stop-color:#ffffff;stop-opacity:1;"
         offset="1"
         id="stop4265" />
    </linearGradient>
    <linearGradient
       inkscape:collect="always"
       id="linearGradient3207">
      <stop
         style="stop-color:#ffffff;stop-opacity:1;"
         offset="0"
         id="stop3203" />
      <stop
         style="stop-color:#000000;stop-opacity:1;"
         offset="1"
         id="stop3205" />
    </linearGradient>
    <linearGradient
       inkscape:collect="always"
       id="linearGradient4723">
      <stop
         style="stop-color:#265a78;stop-opacity:0;"
         offset="0.81724155"
         id="stop4721" />
      <stop
         style="stop-color:#265a78;stop-opacity:1;"
         offset="1"
         id="stop4719" />
    </linearGradient>
    <linearGradient
       inkscape:collect="always"
       id="linearGradient4693">
      <stop
         style="stop-color:#276082;stop-opacity:0;"
         offset="0.7978794"
         id="stop4691" />
      <stop
         style="stop-color:#276082;stop-opacity:1;"
         offset="1"
         id="stop4689" />
    </linearGradient>
    <linearGradient
       inkscape:collect="always"
       id="linearGradient4683">
      <stop
         style="stop-color:#265a78;stop-opacity:0;"
         offset="0.75652242"
         id="stop4681" />
      <stop
         style="stop-color:#265a78;stop-opacity:1;"
         offset="1"
         id="stop4679" />
    </linearGradient>
    <radialGradient
       inkscape:collect="always"
       xlink:href="#linearGradient4683"
       id="radialGradient4685"
       cx="4.5227289"
       cy="123.87486"
       fx="4.5227289"
       fy="123.87486"
       r="65.662127"
       gradientTransform="matrix(0.75781623,-0.84662793,0.8411625,0.75292413,-105.04615,-21.178315)"
       gradientUnits="userSpaceOnUse" />
    <radialGradient
       inkscape:collect="always"
       xlink:href="#linearGradient4693"
       id="radialGradient4695"
       cx="71.821243"
       cy="127.17577"
       fx="71.821243"
       fy="127.17577"
       r="63.269104"
       gradientTransform="matrix(0.81568891,-0.98545465,0.93713187,0.91944935,-105.94302,34.392407)"
       gradientUnits="userSpaceOnUse" />
    <radialGradient
       inkscape:collect="always"
       xlink:href="#linearGradient4723"
       id="radialGradient4725"
       cx="223.30025"
       cy="130.41374"
       fx="223.30025"
       fy="130.41374"
       r="65.666499"
       gradientTransform="matrix(1.0680436,-0.87157957,1.1690834,0.80677909,-168.7316,162.42087)"
       gradientUnits="userSpaceOnUse" />
    <rect
       x="-43.098259"
       y="-305.28793"
       width="1126.5765"
       height="110.21444"
       id="rect24844" />
    <radialGradient
       inkscape:collect="always"
       xlink:href="#linearGradient4693"
       id="radialGradient3146"
       gradientUnits="userSpaceOnUse"
       gradientTransform="matrix(-0.81568891,-0.98545465,-0.93713187,0.91944935,324.02041,35.541882)"
       cx="71.821243"
       cy="127.17577"
       fx="71.821243"
       fy="127.17577"
       r="63.269104" />
    <mask
       maskUnits="userSpaceOnUse"
       id="mask3268">
      <path
         id="path3270"
         style="opacity:0.486216;fill:url(#linearGradient3272);fill-opacity:1;fill-rule:evenodd;stroke-width:0.264583"
         d="M 89.916869,-12.495173 H 216.07513 V 27.405211 H 89.916869 Z" />
    </mask>
    <linearGradient
       inkscape:collect="always"
       xlink:href="#linearGradient3207"
       id="linearGradient3272"
       gradientUnits="userSpaceOnUse"
       x1="133.004"
       y1="11.78155"
       x2="105.83333"
       y2="19.84375" />
    <mask
       maskUnits="userSpaceOnUse"
       id="mask3275">
      <path
         id="path3277"
         style="display:inline;opacity:0.486216;fill:url(#linearGradient3279);fill-opacity:1;fill-rule:evenodd;stroke-width:0.264583"
         d="M 130.05578,26.977395 3.8975265,27.034947 3.8793232,-12.865434 130.03757,-12.922986 Z" />
    </mask>
    <linearGradient
       inkscape:collect="always"
       xlink:href="#linearGradient3207"
       id="linearGradient3279"
       gradientUnits="userSpaceOnUse"
       gradientTransform="rotate(179.97386,109.98182,7.2456891)"
       x1="144.85092"
       y1="7.6088948"
       x2="110.1328"
       y2="-5.3523045" />
    <filter
       style="color-interpolation-filters:sRGB;"
       inkscape:label="Roughen"
       id="filter1919"
       x="0"
       y="0"
       width="1"
       height="1">
      <feTurbulence
         type="turbulence"
         numOctaves="2"
         seed="139"
         baseFrequency="3.75282 3.77694"
         result="turbulence"
         id="feTurbulence1915" />
      <feDisplacementMap
         in="SourceGraphic"
         in2="turbulence"
         scale="3.4959"
         yChannelSelector="G"
         xChannelSelector="R"
         id="feDisplacementMap1917" />
    </filter>
    <mask
       maskUnits="userSpaceOnUse"
       id="mask4276">
      <rect
         style="opacity:0.485167;fill:url(#linearGradient4280);fill-opacity:1;fill-rule:evenodd;stroke-width:0.264583"
         id="rect4278"
         width="118.24304"
         height="25.073822"
         x="11.210899"
         y="-0.67689592" />
    </mask>
    <linearGradient
       inkscape:collect="always"
       xlink:href="#linearGradient4267"
       id="linearGradient4280"
       gradientUnits="userSpaceOnUse"
       x1="92.700104"
       y1="17.691542"
       x2="72.676567"
       y2="9.4297981" />
  </defs>
  <g
     inkscape:groupmode="layer"
     id="layer2"
     inkscape:label="background">
    <path
       id="rect4340"
       style="fill:#26475b;fill-rule:evenodd;stroke-width:0.264583"
       d="M 0,0 H 211.66666 V 19.84375 H 0 Z"
       sodipodi:nodetypes="ccccc" />
  </g>
  <g
     id="layer1"
     inkscape:label="frills"
     sodipodi:insensitive="true"
     style="display:inline">
    <path
       id="path4394"
       style="display:inline;opacity:0.675752;fill:url(#radialGradient4685);fill-opacity:1;stroke-width:1.95077"
       inkscape:transform-center-x="-0.2953054"
       inkscape:transform-center-y="2.1334363"
       d="M 0,0 V 19.84375 H 73.283381 C 71.928726,19.394066 70.626593,18.958106 69.120328,18.050578 63.563738,14.70272 61.460137,8.3514873 53.215356,6.8347248 49.360339,6.1255305 42.455934,7.6183634 37.173441,6.7876993 32.086425,5.9877731 27.473927,3.2482145 22.45651,2.0892781 18.894607,1.2665403 15.295639,0.55938704 11.675256,0 Z"
       sodipodi:insensitive="true" />
    <path
       id="path4636"
       style="display:inline;opacity:0.689805;fill:url(#radialGradient4695);fill-opacity:1;stroke-width:2.03548"
       inkscape:transform-center-x="-0.2953054"
       inkscape:transform-center-y="2.3227328"
       d="m 47.832739,2.7030897 c -0.818879,-0.00241 -1.638389,0.058613 -2.458765,0.2002913 -4.828984,0.8339652 -8.570636,5.1726256 -13.086023,7.214425 -5.653876,2.55661 -12.851669,1.85318 -17.442346,6.263042 -1.082495,1.039858 -2.103019,2.206304 -3.048392,3.462902 H 127.86299 C 123.82019,17.243467 125.1217,10.754784 118.02845,9.3340819 114.17344,8.5619618 107.55179,11.239162 102.34827,10.564524 97.234877,9.9015686 92.731537,6.2239229 87.631342,5.4497812 80.18011,4.3187839 72.582297,6.7345904 65.07303,6.2346305 59.269439,5.8482335 53.564885,2.719931 47.832739,2.7030897 Z"
       mask="url(#mask3275)"
       sodipodi:insensitive="true" />
    <path
       id="path4675"
       style="display:inline;opacity:0.740701;fill:#27678d;fill-opacity:0.47534221;stroke-width:2.52935"
       inkscape:transform-center-x="-0.34708444"
       inkscape:transform-center-y="3.0515625"
       d="M 122.49665,1.7536871 C 115.1538,1.8298327 106.92957,2.8292523 99.585178,2.7366811 90.622724,2.6237154 84.961902,0.48942558 76.038867,2.0245291 70.835225,2.9197549 67.330094,7.6789741 62.48619,10.159811 c -4.117397,2.108751 -8.897342,0.417547 -15.349194,6.469357 -1.010016,0.947391 -1.858492,2.135418 -2.860113,3.214582 H 175.39629 c -4.59558,-3.426304 -9.30138,-9.469837 -15.737,-10.9106566 -4.53094,-1.0143962 -10.78192,0.2908902 -17.02365,-1.9951435 -5.58456,-2.045348 -13.55697,-5.2525186 -20.13899,-5.1842628 z"
       sodipodi:nodetypes="sssssccsss"
       sodipodi:insensitive="true" />
    <path
       id="path3143"
       style="display:inline;opacity:0.931621;fill:url(#radialGradient3146);fill-opacity:1;stroke-width:2.03548"
       inkscape:transform-center-x="0.29530511"
       inkscape:transform-center-y="2.3227328"
       d="m 170.24466,3.8525645 c 0.81888,-0.00241 1.63839,0.058613 2.45876,0.2002913 4.82899,0.8339652 8.57063,5.1726256 13.08602,7.2144252 5.65388,2.55661 12.85167,1.85318 17.44235,6.263042 1.08249,1.039858 2.10302,2.206304 3.04839,3.462902 H 90.214406 c 4.0428,-2.600283 2.74129,-9.088966 9.834544,-10.509668 3.85501,-0.7721204 10.47666,1.90508 15.68018,1.230442 5.11339,-0.662955 9.61673,-4.3406013 14.71692,-5.114743 7.45124,-1.1309973 15.04905,1.2848092 22.55832,0.7848493 5.80359,-0.386397 11.50814,-3.5146995 17.24029,-3.5315408 z"
       mask="url(#mask3268)"
       sodipodi:insensitive="true" />
    <path
       id="path4632"
       style="display:inline;opacity:0.690193;fill:url(#radialGradient4725);fill-opacity:1;stroke-width:2.2519"
       inkscape:transform-center-x="-0.39351508"
       inkscape:transform-center-y="2.1334363"
       d="m 189.97133,0.14531704 c -4.45611,2.08922436 -8.13336,5.33847936 -12.88009,7.09310696 -7.0395,2.6021337 -16.24036,1.8626791 -22.34316,5.564518 -3.26743,1.981959 -6.39968,4.443176 -8.87084,7.186125 h 67.17994 V 0.14531704 Z"
       sodipodi:insensitive="true" />
  </g>
  <g
     id="g3273"
     transform="matrix(0.51278215,0,0,0.51278215,-390.47782,-525.84817)"
     inkscape:label="logo_horizontal"
     style="display:inline"
     sodipodi:insensitive="true">
    <g
       id="g3086"
       transform="matrix(0.61207793,0,0,0.61207793,936.46148,967.76031)"
       style="fill:#85a0b4;fill-opacity:1">
      <path
         i:knockout="Off"
         d="m 13.437,125.506 c -0.045,0.047 -0.045,7.506 -0.138,9.453 -0.092,1.574 -0.232,4.957 -3.568,4.957 -3.429,0 -4.263,-3.939 -4.541,-5.652 -0.324,-1.9 -0.324,-3.477 -0.324,-4.17 0,-2.225 0.139,-8.436 5.375,-8.436 1.576,0 2.456,0.465 3.151,0.834 z M 0,130.975 c 0,13.066 6.951,13.066 7.97,13.066 2.873,0 4.727,-1.576 5.514,-4.309 l 0.093,4.123 c 0.881,-0.047 1.761,-0.139 3.197,-0.139 0.51,0 0.926,0 1.298,0.047 0.371,0 0.741,0.045 1.158,0.092 -0.741,-1.482 -1.297,-4.818 -1.297,-12.049 0,-7.043 0,-18.951 0.602,-22.566 -1.667,0.789 -3.105,1.299 -6.256,1.576 1.251,1.344 1.251,2.039 1.251,8.154 -0.879,-0.277 -1.992,-0.602 -3.892,-0.602 C 1.344,118.369 0,125.598 0,130.975"
         id="path3072"
         style="fill:#85a0b4;fill-opacity:1" />
      <path
         i:knockout="Off"
         d="m 25.13,128.609 c 0.047,-3.846 0.835,-7.275 4.124,-7.275 3.615,0 3.891,3.984 3.799,7.275 z m 12.51,0.465 c 0,-5.422 -1.065,-10.752 -7.923,-10.752 -9.452,0 -9.452,10.475 -9.452,12.697 0,9.406 4.216,13.113 11.306,13.113 3.149,0 4.68,-0.461 5.514,-0.695 -0.046,-1.668 0.185,-2.734 0.465,-4.17 -0.975,0.604 -2.226,1.391 -5.006,1.391 -7.229,0 -7.322,-6.582 -7.322,-8.852 H 37.55 l 0.09,-2.732"
         id="path3074"
         style="fill:#85a0b4;fill-opacity:1" />
      <path
         i:knockout="Off"
         d="m 52.715,131.066 c 0,4.309 -0.787,10.102 -6.162,10.102 -0.742,0 -1.668,-0.141 -2.27,-0.279 -0.093,-1.668 -0.093,-4.541 -0.093,-7.877 0,-3.986 0.416,-6.068 0.742,-7.09 0.972,-3.289 3.15,-3.334 3.566,-3.334 3.522,0 4.217,4.865 4.217,8.478 z m -13.298,5.051 c 0,3.43 0,5.375 -0.556,6.857 1.9,0.742 4.262,1.158 7.09,1.158 1.807,0 7.043,0 9.869,-5.791 1.344,-2.688 1.807,-6.303 1.807,-9.037 0,-1.668 -0.186,-5.328 -1.529,-7.646 -1.296,-2.176 -3.382,-3.289 -5.605,-3.289 -4.449,0 -5.746,3.707 -6.44,5.607 0,-2.363 0.045,-10.611 0.415,-14.828 -3.011,1.391 -4.866,1.621 -6.857,1.807 1.807,0.74 1.807,3.801 1.807,13.764 v 11.398"
         id="path3076"
         style="fill:#85a0b4;fill-opacity:1" />
      <path
         i:knockout="Off"
         d="m 66.535,143.855 c -0.928,-0.139 -1.578,-0.232 -2.922,-0.232 -1.48,0 -2.502,0.094 -3.566,0.232 0.463,-0.881 0.648,-1.299 0.787,-4.309 0.186,-4.125 0.232,-15.154 -0.092,-17.471 -0.232,-1.762 -0.648,-2.039 -1.297,-2.502 3.799,-0.371 4.865,-0.648 6.625,-1.482 -0.369,2.037 -0.418,3.059 -0.418,6.162 -0.091,15.989 -0.138,17.702 0.883,19.602"
         id="path3078"
         style="fill:#85a0b4;fill-opacity:1" />
      <path
         i:knockout="Off"
         d="m 81.373,130.74 c -0.092,2.92 -0.139,4.959 -0.928,6.58 -0.973,2.086 -2.594,2.688 -3.799,2.688 -2.783,0 -3.383,-2.316 -3.383,-4.586 0,-4.355 3.893,-4.682 5.652,-4.682 z m -12.744,5.701 c 0,2.92 0.881,5.838 3.477,7.09 1.158,0.51 2.316,0.51 2.688,0.51 4.264,0 5.699,-3.152 6.58,-5.098 -0.047,2.039 0,3.289 0.139,4.912 0.834,-0.047 1.668,-0.139 3.059,-0.139 0.787,0 1.529,0.092 2.316,0.139 -0.51,-0.787 -0.787,-1.252 -0.928,-3.059 -0.092,-1.76 -0.092,-3.521 -0.092,-5.977 l 0.047,-9.453 c 0,-3.523 -0.928,-6.998 -7.879,-6.998 -4.586,0 -7.273,1.391 -8.617,2.086 0.557,1.02 1.02,1.898 1.436,3.893 1.809,-1.576 4.172,-2.41 6.58,-2.41 3.848,0 3.848,2.549 3.848,6.162 -0.881,-0.045 -1.623,-0.137 -2.875,-0.137 -5.887,10e-4 -9.779,2.268 -9.779,8.479"
         id="path3080"
         style="fill:#85a0b4;fill-opacity:1" />
      <path
         i:knockout="Off"
         d="m 108.063,139.268 c 0.047,1.576 0.047,3.244 0.695,4.588 -1.021,-0.092 -1.623,-0.232 -3.521,-0.232 -1.113,0 -1.715,0.094 -2.596,0.232 0.184,-0.602 0.279,-0.834 0.371,-1.623 0.139,-1.064 0.232,-4.633 0.232,-5.885 v -5.004 c 0,-2.178 0,-5.33 -0.141,-6.441 -0.092,-0.787 -0.322,-2.918 -3.012,-2.918 -2.641,0 -3.521,1.945 -3.846,3.521 -0.369,1.621 -0.369,3.383 -0.369,10.24 0.045,5.932 0.045,6.486 0.508,8.109 -0.787,-0.092 -1.76,-0.184 -3.15,-0.184 -1.113,0 -1.854,0.045 -2.779,0.184 0.324,-0.742 0.51,-1.113 0.602,-3.707 0.094,-2.549 0.279,-15.061 -0.141,-18.025 -0.23,-1.809 -0.695,-2.225 -1.203,-2.688 3.754,-0.186 4.957,-0.789 6.117,-1.389 v 4.91 c 0.555,-1.438 1.713,-4.635 6.348,-4.635 5.793,0 5.838,4.217 5.885,6.996 v 13.951"
         id="path3082"
         style="fill:#85a0b4;fill-opacity:1" />
      <path
         i:knockout="Off"
         fill="#85a0b4"
         d="m 66.926,111.533 -3.838,3.836 -3.836,-3.836 3.836,-3.836 3.838,3.836"
         id="path3084"
         style="fill:#85a0b4;fill-opacity:1" />
    </g>
    <g
       id="g3258"
       transform="matrix(0.89684088,0,0,0.85199883,109.15354,152.43201)">
      <path
         d="m 1008.9107,1051.1401 q 0,0.8305 0,1.538 0,0.6767 0,1.3534 0.031,0.6768 0.031,1.415 0.031,0.7075 0.062,1.5688 0.031,0.7382 0.062,1.2304 0.061,0.4921 0.1231,0.8305 0.092,0.3384 0.1845,0.5845 0.092,0.2153 0.1846,0.4306 -0.6152,-0.062 -1.415,-0.092 -0.769,-0.062 -1.5688,-0.062 -0.6152,0 -1.1688,0.031 -0.5537,0.031 -1.2612,0.123 0.092,-0.3076 0.1538,-0.5844 0.092,-0.2769 0.1538,-0.6767 0.062,-0.4307 0.092,-1.0767 0.031,-0.6459 0.061,-1.7225 l 0.062,-4.3065 v -4.614 q 0,-2.0302 -0.031,-3.2606 -0.031,-1.2304 -0.092,-1.4765 -0.9843,0.3384 -1.8764,0.7075 -0.892,0.3691 -1.7225,0.892 l 0.062,-1.0151 q 0,-0.6459 -0.062,-1.0766 -0.031,-0.4614 -0.092,-0.7997 0.523,-0.1231 1.5073,-0.3692 0.9843,-0.246 2.1532,-0.6152 1.1997,-0.3998 2.3993,-0.9228 1.2304,-0.5229 2.2148,-1.1689 -0.062,0.7383 -0.1231,1.3227 -0.031,0.5537 -0.062,1.415 0,0.8613 -0.031,2.307 0,1.4458 0,3.9373 z"
         style="font-weight:bold;font-size:24.8469px;font-family:Poppl-Laudatio;-inkscape-font-specification:'Poppl-Laudatio, Bold';white-space:pre;fill:#85a0b4;stroke:none;stroke-width:9.01383"
         id="path3249" />
      <path
         d="m 1016.2305,1038.3745 q 0.8921,0 1.6611,0.092 0.7997,0.092 1.5072,0.3383 0.3384,0.1231 0.8613,0.4307 0.5537,0.2768 1.0766,0.8613 0.5229,0.5536 0.8921,1.4149 0.3999,0.8613 0.3999,2.1533 0,0.769 -0.2154,1.5687 -0.1845,0.7998 -0.6459,1.5073 -0.4614,0.6767 -1.1997,1.1996 -0.7382,0.523 -1.7841,0.7383 l -0.6767,0.123 0.7075,0.092 q 2.3993,0.3998 3.5374,1.661 1.1689,1.2612 1.1689,3.3837 0,1.6303 -0.6152,2.8299 -0.5845,1.1689 -1.3842,1.8764 -0.8921,0.7998 -2.3686,1.2304 -1.4457,0.4306 -3.3221,0.4306 -0.1845,0 -0.6767,-0.031 -0.4922,0 -1.1689,-0.061 -0.6767,-0.062 -1.4457,-0.1846 -0.7383,-0.123 -1.4765,-0.3691 0.123,-0.3999 0.2153,-0.769 0.1231,-0.3691 0.1846,-0.769 0.092,-0.4306 0.123,-0.9228 0.062,-0.4922 0.1231,-1.1689 0.769,0.6152 1.6918,0.8613 0.9536,0.2461 1.9379,0.2461 0.9536,0 1.6303,-0.2769 0.6767,-0.2768 1.1074,-0.7075 0.4306,-0.4614 0.6152,-1.015 0.1845,-0.5845 0.1845,-1.1689 0,-1.0151 -0.3998,-1.6303 -0.3999,-0.646 -1.0459,-1.0151 -0.6152,-0.3691 -1.415,-0.4922 -0.7997,-0.123 -1.6303,-0.123 -0.7997,0 -1.1689,0.062 -0.3691,0.031 -0.7997,0.092 0.031,-0.3999 0.031,-0.769 0.031,-0.3691 0.031,-0.769 -0.031,-0.4306 -0.031,-0.7998 0,-0.3998 -0.031,-0.8305 0.2461,0.031 0.4921,0.062 0.2461,0 0.646,0 0.3999,0 1.1689,-0.031 0.769,-0.062 1.538,-0.3691 0.769,-0.3076 1.3227,-0.9536 0.5844,-0.6459 0.5844,-1.8456 0,-1.2304 -0.8305,-2.0609 -0.7997,-0.8613 -2.5223,-0.8613 -1.3227,0 -1.9994,0.3076 -0.6768,0.3076 -1.0459,0.5537 0.1846,-1.415 0.2153,-2.184 0.031,-0.769 0,-1.4458 0.8306,-0.1845 1.7841,-0.3383 0.9844,-0.1538 2.4609,-0.1538 z"
         style="font-weight:bold;font-size:24.8469px;font-family:Poppl-Laudatio;-inkscape-font-specification:'Poppl-Laudatio, Bold';white-space:pre;fill:#85a0b4;stroke:none;stroke-width:9.01383"
         id="path3251" />
    </g>
    <g
       id="g3070"
       transform="matrix(0.27064872,0,0,0.27064872,903.88697,1033.6588)"
       style="display:inline;fill:#85a0b4;fill-opacity:1">
      <path
         i:knockout="Off"
         fill="#85a0b4"
         d="m 60.969,47.645 c -1.494,0.02 0.281,0.768 2.232,1.069 0.541,-0.422 1.027,-0.846 1.463,-1.26 -1.213,0.297 -2.449,0.304 -3.695,0.191"
         id="path3046"
         style="fill:#85a0b4;fill-opacity:1" />
      <path
         i:knockout="Off"
         fill="#85a0b4"
         d="m 68.986,45.646 c 0.893,-1.229 1.541,-2.573 1.77,-3.963 -0.201,0.99 -0.736,1.845 -1.244,2.749 -2.793,1.759 -0.264,-1.044 -0.002,-2.111 -3.002,3.783 -0.414,2.268 -0.524,3.325"
         id="path3048"
         style="fill:#85a0b4;fill-opacity:1" />
      <path
         i:knockout="Off"
         fill="#85a0b4"
         d="m 71.949,37.942 c 0.182,-2.691 -0.529,-1.839 -0.768,-0.814 0.278,0.146 0.499,1.898 0.768,0.814"
         id="path3050"
         style="fill:#85a0b4;fill-opacity:1" />
      <path
         i:knockout="Off"
         fill="#85a0b4"
         d="m 55.301,1.163 c 0.798,0.142 1.724,0.252 1.591,0.443 0.876,-0.193 1.073,-0.367 -1.591,-0.443"
         id="path3052"
         style="fill:#85a0b4;fill-opacity:1" />
      <path
         i:knockout="Off"
         fill="#85a0b4"
         d="M 56.893,1.606 56.332,1.723 56.855,1.675 56.893,1.606"
         id="path3054"
         style="fill:#85a0b4;fill-opacity:1" />
      <path
         i:knockout="Off"
         fill="#85a0b4"
         d="m 81.762,38.962 c 0.09,2.416 -0.705,3.59 -1.424,5.666 l -1.293,0.643 c -1.057,2.054 0.105,1.304 -0.652,2.937 -1.652,1.467 -5.006,4.589 -6.08,4.875 -0.785,-0.017 0.531,-0.926 0.703,-1.281 -2.209,1.516 -1.773,2.276 -5.152,3.199 L 67.766,54.78 c -8.33,3.92 -19.902,-3.847 -19.75,-14.443 -0.088,0.672 -0.253,0.504 -0.437,0.774 -0.43,-5.451 2.518,-10.926 7.49,-13.165 4.863,-2.406 10.564,-1.42 14.045,1.829 -1.912,-2.506 -5.721,-5.163 -10.232,-4.917 -4.421,0.072 -8.558,2.881 -9.938,5.932 -2.264,1.425 -2.528,5.496 -3.514,6.242 -1.329,9.76 2.497,13.975 8.97,18.936 1.016,0.686 0.286,0.791 0.422,1.313 -2.15,-1.006 -4.118,-2.526 -5.738,-4.387 0.86,1.257 1.787,2.479 2.986,3.439 -2.029,-0.685 -4.738,-4.913 -5.527,-5.085 3.495,6.258 14.178,10.975 19.775,8.634 -2.59,0.096 -5.879,0.053 -8.787,-1.022 -1.225,-0.629 -2.884,-1.93 -2.587,-2.173 7.636,2.851 15.522,2.158 22.128,-3.137 1.682,-1.31 3.518,-3.537 4.049,-3.567 -0.799,1.202 0.137,0.578 -0.477,1.639 1.672,-2.701 -0.729,-1.1 1.73,-4.664 l 0.908,1.25 c -0.34,-2.244 2.785,-4.966 2.467,-8.512 0.717,-1.084 0.799,1.168 0.039,3.662 1.055,-2.767 0.279,-3.212 0.549,-5.496 0.291,0.768 0.678,1.583 0.875,2.394 -0.688,-2.675 0.703,-4.503 1.049,-6.058 -0.342,-0.15 -1.061,1.182 -1.227,-1.976 0.025,-1.372 0.383,-0.719 0.52,-1.057 -0.268,-0.155 -0.975,-1.207 -1.404,-3.224 0.309,-0.475 0.832,1.229 1.256,1.298 -0.273,-1.603 -0.742,-2.826 -0.762,-4.057 -1.24,-2.59 -0.439,0.346 -1.443,-1.112 -1.32,-4.114 1.094,-0.955 1.258,-2.823 1.998,2.895 3.137,7.385 3.662,9.244 -0.4,-2.267 -1.045,-4.464 -1.834,-6.589 0.609,0.257 -0.979,-4.663 0.791,-1.405 C 87.189,15.552 81,9.062 75.305,6.018 76,6.655 76.879,7.455 76.565,7.581 73.731,5.896 74.229,5.763 73.823,5.051 71.518,4.112 71.364,5.128 69.839,5.053 65.489,2.745 64.651,2.99 60.648,1.546 L 60.83,2.398 C 57.949,1.438 57.473,2.76 54.36,2.4 54.171,2.253 55.358,1.864 56.336,1.723 53.55,2.091 53.68,1.173 50.954,1.824 51.625,1.353 52.337,1.04 53.053,0.64 50.782,0.778 47.629,1.962 48.602,0.884 44.897,2.538 38.316,4.859 34.623,8.322 L 34.507,7.546 c -1.692,2.031 -7.379,6.066 -7.832,8.699 l -0.453,0.105 c -0.879,1.491 -1.45,3.18 -2.148,4.713 -1.151,1.963 -1.688,0.756 -1.524,1.064 -2.265,4.592 -3.392,8.45 -4.363,11.616 0.692,1.035 0.017,6.232 0.278,10.391 -1.136,20.544 14.418,40.489 31.42,45.093 2.492,0.893 6.197,0.861 9.349,0.949 -3.718,-1.064 -4.198,-0.563 -7.822,-1.826 -2.613,-1.232 -3.185,-2.637 -5.037,-4.244 l 0.733,1.295 c -3.63,-1.285 -2.111,-1.59 -5.065,-2.525 l 0.783,-1.021 c -1.177,-0.09 -3.117,-1.982 -3.647,-3.033 l -1.288,0.051 c -1.546,-1.906 -2.371,-3.283 -2.31,-4.35 l -0.416,0.742 c -0.471,-0.809 -5.691,-7.158 -2.983,-5.68 -0.503,-0.458 -1.172,-0.747 -1.897,-2.066 l 0.551,-0.629 c -1.301,-1.677 -2.398,-3.826 -2.314,-4.542 0.695,0.938 1.177,1.114 1.655,1.275 -3.291,-8.164 -3.476,-0.449 -5.967,-8.31 l 0.526,-0.042 c -0.403,-0.611 -0.65,-1.27 -0.974,-1.919 l 0.23,-2.285 c -2.368,-2.736 -0.662,-11.645 -0.319,-16.53 0.235,-1.986 1.977,-4.101 3.3,-7.418 l -0.806,-0.138 c 1.542,-2.688 8.802,-10.799 12.166,-10.383 1.629,-2.046 -0.324,-0.008 -0.643,-0.522 3.579,-3.703 4.704,-2.616 7.119,-3.283 2.603,-1.545 -2.235,0.604 -1.001,-0.589 4.503,-1.149 3.19,-2.614 9.063,-3.197 0.62,0.352 -1.437,0.544 -1.953,1.001 3.75,-1.836 11.869,-1.417 17.145,1.018 6.117,2.861 12.994,11.314 13.266,19.267 l 0.309,0.083 c -0.156,3.162 0.484,6.819 -0.627,10.177 l 0.751,-1.591"
         id="path3056"
         style="fill:#85a0b4;fill-opacity:1" />
      <path
         i:knockout="Off"
         fill="#85a0b4"
         d="m 44.658,49.695 -0.211,1.047 c 0.983,1.335 1.763,2.781 3.016,3.821 -0.902,-1.759 -1.571,-2.486 -2.805,-4.868"
         id="path3058"
         style="fill:#85a0b4;fill-opacity:1" />
      <path
         i:knockout="Off"
         fill="#85a0b4"
         d="m 46.979,49.605 c -0.52,-0.576 -0.826,-1.268 -1.172,-1.956 0.33,1.211 1.006,2.252 1.633,3.312 l -0.461,-1.356"
         id="path3060"
         style="fill:#85a0b4;fill-opacity:1" />
      <path
         i:knockout="Off"
         fill="#85a0b4"
         d="m 88.063,40.675 -0.219,0.552 c -0.402,2.858 -1.273,5.686 -2.605,8.309 1.472,-2.767 2.421,-5.794 2.824,-8.861"
         id="path3062"
         style="fill:#85a0b4;fill-opacity:1" />
      <path
         i:knockout="Off"
         fill="#85a0b4"
         d="M 55.598,0.446 C 56.607,0.077 58.08,0.243 59.154,0 57.756,0.117 56.365,0.187 54.992,0.362 l 0.606,0.084"
         id="path3064"
         style="fill:#85a0b4;fill-opacity:1" />
      <path
         i:knockout="Off"
         fill="#85a0b4"
         d="m 20.127,19.308 c 0.233,2.154 -1.62,2.991 0.41,1.569 1.09,-2.454 -0.424,-0.677 -0.41,-1.569"
         id="path3066"
         style="fill:#85a0b4;fill-opacity:1" />
      <path
         i:knockout="Off"
         fill="#85a0b4"
         d="m 17.739,29.282 c 0.469,-1.437 0.553,-2.299 0.732,-3.132 -1.293,1.654 -0.596,2.007 -0.732,3.132"
         id="path3068"
         style="fill:#85a0b4;fill-opacity:1" />
    </g>
  </g>
</svg>
