<?xml version="1.0" encoding="UTF-8" standalone="no"?>
<!-- Created with Inkscape (http://www.inkscape.org/) -->

<svg
   width="800"
   height="75"
   viewBox="0 0 211.66666 19.84375"
   version="1.1"
   id="svg5"
   sodipodi:docname="installer.svg"
   inkscape:version="1.2.2 (b0a8486541, 2022-12-01)"
   xmlns:inkscape="http://www.inkscape.org/namespaces/inkscape"
   xmlns:sodipodi="http://sodipodi.sourceforge.net/DTD/sodipodi-0.dtd"
   xmlns:xlink="http://www.w3.org/1999/xlink"
   xmlns="http://www.w3.org/2000/svg"
   xmlns:svg="http://www.w3.org/2000/svg"
   xmlns:i="http://ns.adobe.com/AdobeIllustrator/10.0/">
  <sodipodi:namedview
     id="namedview5"
     pagecolor="#505050"
     bordercolor="#eeeeee"
     borderopacity="1"
     inkscape:showpageshadow="0"
     inkscape:pageopacity="0"
     inkscape:pagecheckerboard="0"
     inkscape:deskcolor="#505050"
     showgrid="false"
     inkscape:zoom="1.4979004"
     inkscape:cx="397.55648"
     inkscape:cy="81.78114"
     inkscape:window-width="1920"
     inkscape:window-height="997"
     inkscape:window-x="0"
     inkscape:window-y="0"
     inkscape:window-maximized="1"
     inkscape:current-layer="svg5"
     showguides="true">
    <sodipodi:guide
       position="78.249806,7.4792204"
       orientation="1,0"
       id="guide4736"
       inkscape:locked="false" />
  </sodipodi:namedview>
  <defs
     id="defs2">
    <linearGradient
       inkscape:collect="always"
       id="linearGradient4723">
      <stop
         style="stop-color:#265a78;stop-opacity:0;"
         offset="0.68549889"
         id="stop4721" />
      <stop
         style="stop-color:#265a78;stop-opacity:1;"
         offset="1"
         id="stop4719" />
    </linearGradient>
    <linearGradient
       inkscape:collect="always"
       id="linearGradient4713">
      <stop
         style="stop-color:#276082;stop-opacity:0;"
         offset="0.6767171"
         id="stop4711" />
      <stop
         style="stop-color:#276082;stop-opacity:1;"
         offset="1"
         id="stop4709" />
    </linearGradient>
    <linearGradient
       inkscape:collect="always"
       id="linearGradient4703">
      <stop
         style="stop-color:#27678d;stop-opacity:0;"
         offset="0.61287498"
         id="stop4701" />
      <stop
         style="stop-color:#27678d;stop-opacity:1;"
         offset="1"
         id="stop4699" />
    </linearGradient>
    <linearGradient
       inkscape:collect="always"
       id="linearGradient4693">
      <stop
         style="stop-color:#276082;stop-opacity:0;"
         offset="0.7978794"
         id="stop4691" />
      <stop
         style="stop-color:#276082;stop-opacity:1;"
         offset="1"
         id="stop4689" />
    </linearGradient>
    <linearGradient
       inkscape:collect="always"
       id="linearGradient4683">
      <stop
         style="stop-color:#265a78;stop-opacity:0;"
         offset="0.75652242"
         id="stop4681" />
      <stop
         style="stop-color:#265a78;stop-opacity:1;"
         offset="1"
         id="stop4679" />
    </linearGradient>
    <radialGradient
       inkscape:collect="always"
       xlink:href="#linearGradient4683"
       id="radialGradient4685"
       cx="4.5227289"
       cy="123.87486"
       fx="4.5227289"
       fy="123.87486"
       r="65.662127"
       gradientTransform="matrix(0.75781623,-0.84662793,0.8411625,0.75292413,-105.04615,-21.178315)"
       gradientUnits="userSpaceOnUse" />
    <radialGradient
       inkscape:collect="always"
       xlink:href="#linearGradient4693"
       id="radialGradient4695"
       cx="71.821243"
       cy="127.17577"
       fx="71.821243"
       fy="127.17577"
       r="63.269104"
       gradientTransform="matrix(0.81568891,-0.9051427,0.93713187,0.84451665,-105.94302,33.20673)"
       gradientUnits="userSpaceOnUse" />
    <radialGradient
       inkscape:collect="always"
       xlink:href="#linearGradient4703"
       id="radialGradient4705"
       cx="95.605659"
       cy="132.21507"
       fx="95.605659"
       fy="132.21507"
       r="65.561283"
       gradientTransform="matrix(0.84777485,-0.96205192,0.90274001,0.79550828,-104.80225,62.385206)"
       gradientUnits="userSpaceOnUse" />
    <radialGradient
       inkscape:collect="always"
       xlink:href="#linearGradient4713"
       id="radialGradient4715"
       cx="169.67876"
       cy="116.64935"
       fx="169.67876"
       fy="116.64935"
       r="63.292947"
       gradientTransform="matrix(0.84326971,-0.93661172,0.90748602,0.81704666,-79.263856,133.13288)"
       gradientUnits="userSpaceOnUse" />
    <radialGradient
       inkscape:collect="always"
       xlink:href="#linearGradient4723"
       id="radialGradient4725"
       cx="223.30025"
       cy="130.41374"
       fx="223.30025"
       fy="130.41374"
       r="65.666499"
       gradientTransform="matrix(0.85089478,-0.87157957,0.93139166,0.80677909,-92.498889,162.27555)"
       gradientUnits="userSpaceOnUse" />
    <rect
       x="-43.098259"
       y="-305.28793"
       width="1126.5765"
       height="110.21444"
       id="rect24844" />
  </defs>
  <g
     id="layer1">
    <rect
       style="fill:#26475b;fill-rule:evenodd;stroke-width:0.264583"
       id="rect4340"
       width="211.66666"
       height="19.84375"
       x="0"
       y="0" />
    <path
       id="path4394"
       style="opacity:0.675752;fill:url(#radialGradient4685);fill-opacity:1;stroke-width:1.95077"
       inkscape:transform-center-x="-0.2953054"
       inkscape:transform-center-y="2.1334363"
       d="M 0 0 L 0 19.84375 L 73.283381 19.84375 C 71.928726 19.394066 70.626593 18.958106 69.120328 18.050578 C 63.563738 14.70272 61.460137 8.3514873 53.215356 6.8347248 C 49.360339 6.1255305 42.455934 7.6183634 37.173441 6.7876993 C 32.086425 5.9877731 27.473927 3.2482145 22.45651 2.0892781 C 18.894607 1.2665403 15.295639 0.55938704 11.675256 0 L 0 0 z " />
    <path
       id="path4632"
       style="opacity:0.690193;fill:url(#radialGradient4725);fill-opacity:1;stroke-width:2.00998"
       inkscape:transform-center-x="-0.31350654"
       inkscape:transform-center-y="2.1334363"
       d="M 193.2745 0 C 189.72438 2.0892244 186.79477 5.3384794 183.01312 7.093107 C 177.40485 9.6952407 170.07466 8.9557861 165.21265 12.657625 C 162.60954 14.639584 160.11412 17.100801 158.14538 19.84375 L 211.66666 19.84375 L 211.66666 0 L 193.2745 0 z " />
    <path
       id="path4636"
       style="opacity:0.689805;fill:url(#radialGradient4695);fill-opacity:1;stroke-width:1.95077"
       inkscape:transform-center-x="-0.2953054"
       inkscape:transform-center-y="2.1334363"
       d="M 47.832739 4.1000081 C 47.01386 4.0977982 46.19435 4.1538438 45.373974 4.2839762 C 40.54499 5.0499754 36.803338 9.0350465 32.287951 10.910445 C 26.634075 13.258698 19.436282 12.612595 14.845605 16.663065 C 13.76311 17.618178 12.742586 18.689561 11.797213 19.84375 L 127.86299 19.84375 C 123.82019 17.455383 125.1217 11.495511 118.02845 10.190592 C 114.17344 9.4813976 107.55179 11.940413 102.34827 11.320756 C 97.234877 10.71183 92.731537 7.3339027 87.631342 6.6228515 C 80.18011 5.5840275 72.582297 7.8029522 65.07303 7.3437377 C 59.269439 6.988831 53.564885 4.1154769 47.832739 4.1000081 z " />
    <path
       id="path4636-5"
       style="opacity:0.73675;fill:url(#radialGradient4715);fill-opacity:1;stroke-width:1.95077"
       inkscape:transform-center-x="-0.2953054"
       inkscape:transform-center-y="2.1334363"
       d="M 192.15726 4.4524413 C 185.30076 4.5193833 178.76557 7.7930721 171.91664 8.1219847 C 164.49278 8.4785074 157.11983 5.8916289 149.6968 6.2652506 C 145.09568 6.4968393 140.65241 8.0306723 136.109 8.7932616 C 130.40594 9.7504932 124.38749 9.3888535 118.95191 11.362614 C 113.86432 13.210011 109.67978 16.895305 105.11141 19.84375 L 211.66666 19.84375 L 211.66666 6.7551431 C 210.10076 6.8788518 208.55262 6.9485575 207.11139 6.8631469 C 202.07116 6.5644512 197.2061 4.4031514 192.15726 4.4524413 z " />
    <path
       id="path4675"
       style="opacity:0.74070062;fill:url(#radialGradient4705);fill-opacity:1;stroke-width:1.95077"
       inkscape:transform-center-x="-0.2953054"
       inkscape:transform-center-y="2.1334363"
       d="M 110.82786 7.1964598 C 104.58106 7.2873838 98.662907 10.500477 92.419164 10.716142 C 84.756351 10.980822 77.173699 6.8926863 69.581798 7.9659219 C 65.154433 8.5918003 61.351907 11.464252 57.230614 13.198677 C 53.727448 14.672967 51.768529 12.604883 46.710326 17.596342 C 45.956387 18.340333 45.129083 19.089275 44.276883 19.84375 L 155.83596 19.84375 C 151.92595 17.448321 147.92216 13.223111 142.4466 12.215792 C 138.59158 11.506598 131.33472 10.489297 125.78198 9.6071654 C 120.79545 8.814983 115.87639 7.1229799 110.82786 7.1964598 z " />
  </g>
  <g
     id="g5101">
    <g
       id="layer6"
       inkscape:label="swirl"
       style="display:inline"
       transform="matrix(0.14040736,0,0,0.14040736,-97.757382,-80.884675)">
      <g
         id="g880001"
         style="display:inline;fill:#51a1d0;fill-opacity:1"
         transform="matrix(1.0144723,0,0,1.0144723,1234.5714,591.72714)">
        <path
           i:knockout="Off"
           fill="#51a1d0"
           d="m 51.986,57.297 c -1.797,0.025 0.34,0.926 2.686,1.287 0.648,-0.506 1.236,-1.018 1.76,-1.516 -1.461,0.358 -2.948,0.366 -4.446,0.229"
           id="path879977"
           style="fill:#51a1d0;fill-opacity:1" />
        <path
           i:knockout="Off"
           fill="#51a1d0"
           d="m 61.631,54.893 c 1.07,-1.477 1.85,-3.094 2.125,-4.766 -0.24,1.192 -0.887,2.221 -1.496,3.307 -3.359,2.115 -0.316,-1.256 -0.002,-2.537 -3.612,4.546 -0.496,2.726 -0.627,3.996"
           id="path879979"
           style="fill:#51a1d0;fill-opacity:1" />
        <path
           i:knockout="Off"
           fill="#51a1d0"
           d="m 65.191,45.629 c 0.217,-3.236 -0.637,-2.213 -0.924,-0.978 0.335,0.174 0.6,2.281 0.924,0.978"
           id="path879981"
           style="fill:#51a1d0;fill-opacity:1" />
        <path
           i:knockout="Off"
           fill="#51a1d0"
           d="m 45.172,1.399 c 0.959,0.172 2.072,0.304 1.916,0.533 1.049,-0.23 1.287,-0.442 -1.916,-0.533"
           id="path879983"
           style="fill:#51a1d0;fill-opacity:1" />
        <path
           i:knockout="Off"
           fill="#51a1d0"
           d="M 47.088,1.932 46.41,2.072 47.041,2.016 47.088,1.932"
           id="path879985"
           style="fill:#51a1d0;fill-opacity:1" />
        <path
           i:knockout="Off"
           fill="#51a1d0"
           d="m 76.992,46.856 c 0.107,2.906 -0.85,4.316 -1.713,6.812 l -1.553,0.776 c -1.271,2.468 0.123,1.567 -0.787,3.53 -1.984,1.764 -6.021,5.52 -7.313,5.863 -0.943,-0.021 0.639,-1.113 0.846,-1.541 -2.656,1.824 -2.131,2.738 -6.193,3.846 L 60.16,65.878 C 50.142,70.591 36.226,61.251 36.409,48.507 c -0.107,0.809 -0.304,0.607 -0.526,0.934 -0.517,-6.557 3.028,-13.143 9.007,-15.832 5.848,-2.895 12.704,-1.707 16.893,2.197 -2.301,-3.014 -6.881,-6.209 -12.309,-5.91 -5.317,0.084 -10.291,3.463 -11.951,7.131 -2.724,1.715 -3.04,6.611 -4.227,7.507 -1.597,11.737 3.004,16.808 10.787,22.773 1.225,0.826 0.345,0.951 0.511,1.58 -2.586,-1.211 -4.954,-3.039 -6.901,-5.277 1.033,1.512 2.148,2.982 3.589,4.137 -2.438,-0.826 -5.695,-5.908 -6.646,-6.115 4.203,7.525 17.052,13.197 23.78,10.383 -3.113,0.115 -7.068,0.064 -10.566,-1.229 -1.469,-0.756 -3.467,-2.322 -3.11,-2.615 9.182,3.43 18.667,2.598 26.612,-3.771 2.021,-1.574 4.229,-4.252 4.867,-4.289 -0.961,1.445 0.164,0.695 -0.574,1.971 2.014,-3.248 -0.875,-1.322 2.082,-5.609 l 1.092,1.504 c -0.406,-2.696 3.348,-5.97 2.967,-10.234 0.861,-1.304 0.961,1.403 0.047,4.403 1.268,-3.328 0.334,-3.863 0.66,-6.609 0.352,0.923 0.814,1.904 1.051,2.878 -0.826,-3.216 0.848,-5.416 1.262,-7.285 -0.408,-0.181 -1.275,1.422 -1.473,-2.377 0.029,-1.65 0.459,-0.865 0.625,-1.271 -0.324,-0.186 -1.174,-1.451 -1.691,-3.877 0.375,-0.57 1.002,1.478 1.512,1.562 -0.328,-1.929 -0.893,-3.4 -0.916,-4.88 -1.49,-3.114 -0.527,0.415 -1.736,-1.337 -1.586,-4.947 1.316,-1.148 1.512,-3.396 2.404,3.483 3.775,8.881 4.404,11.117 -0.48,-2.726 -1.256,-5.367 -2.203,-7.922 0.73,0.307 -1.176,-5.609 0.949,-1.691 C 83.519,18.706 76.074,10.902 69.225,7.24 70.063,8.007 71.121,8.97 70.741,9.121 67.335,7.093 67.934,6.935 67.446,6.078 64.671,4.949 64.489,6.169 62.651,6.08 57.421,3.306 56.413,3.601 51.6,1.863 l 0.219,1.023 c -3.465,-1.154 -4.037,0.438 -7.782,0.004 -0.228,-0.178 1.2,-0.644 2.375,-0.815 -3.35,0.442 -3.193,-0.66 -6.471,0.122 0.808,-0.567 1.662,-0.942 2.524,-1.424 -2.732,0.166 -6.522,1.59 -5.352,0.295 -4.456,1.988 -12.37,4.779 -16.811,8.943 l -0.14,-0.933 c -2.035,2.443 -8.874,7.296 -9.419,10.46 l -0.544,0.127 c -1.059,1.793 -1.744,3.825 -2.584,5.67 -1.385,2.36 -2.03,0.908 -1.833,1.278 -2.724,5.523 -4.077,10.164 -5.246,13.97 0.833,1.245 0.02,7.495 0.335,12.497 -1.368,24.704 17.338,48.69 37.785,54.228 2.997,1.072 7.454,1.031 11.245,1.141 -4.473,-1.279 -5.051,-0.678 -9.408,-2.197 -3.143,-1.48 -3.832,-3.17 -6.058,-5.102 l 0.881,1.557 c -4.366,-1.545 -2.539,-1.912 -6.091,-3.037 l 0.941,-1.229 C 28.751,98.334 26.418,96.056 25.78,94.795 l -1.548,0.061 c -1.86,-2.295 -2.851,-3.949 -2.779,-5.23 l -0.5,0.891 c -0.567,-0.973 -6.843,-8.607 -3.587,-6.83 -0.605,-0.553 -1.409,-0.9 -2.281,-2.484 l 0.663,-0.758 c -1.567,-2.016 -2.884,-4.6 -2.784,-5.461 0.836,1.129 1.416,1.34 1.99,1.533 -3.957,-9.818 -4.179,-0.541 -7.176,-9.994 L 8.412,66.472 C 7.926,65.74 7.631,64.945 7.24,64.165 l 0.276,-2.75 C 4.667,58.121 6.719,47.409 7.13,41.534 7.415,39.145 9.508,36.602 11.1,32.614 l -0.97,-0.167 c 1.854,-3.234 10.586,-12.988 14.63,-12.486 1.959,-2.461 -0.389,-0.009 -0.772,-0.629 4.303,-4.453 5.656,-3.146 8.56,-3.947 3.132,-1.859 -2.688,0.725 -1.203,-0.709 5.414,-1.383 3.837,-3.144 10.9,-3.846 0.745,0.424 -1.729,0.655 -2.35,1.205 4.511,-2.207 14.275,-1.705 20.617,1.225 7.359,3.439 15.627,13.605 15.953,23.17 l 0.371,0.1 c -0.188,3.802 0.582,8.199 -0.752,12.238 l 0.908,-1.912"
           id="path879987"
           style="fill:#51a1d0;fill-opacity:1" />
        <path
           i:knockout="Off"
           fill="#51a1d0"
           d="m 32.372,59.764 -0.252,1.26 c 1.181,1.604 2.118,3.342 3.626,4.596 -1.085,-2.118 -1.891,-2.993 -3.374,-5.856"
           id="path879989"
           style="fill:#51a1d0;fill-opacity:1" />
        <path
           i:knockout="Off"
           fill="#51a1d0"
           d="m 35.164,59.654 c -0.625,-0.691 -0.995,-1.523 -1.409,-2.352 0.396,1.457 1.207,2.709 1.962,3.982 l -0.553,-1.63"
           id="path879991"
           style="fill:#51a1d0;fill-opacity:1" />
        <path
           i:knockout="Off"
           fill="#51a1d0"
           d="m 84.568,48.916 -0.264,0.662 c -0.484,3.438 -1.529,6.84 -3.131,9.994 1.77,-3.328 2.915,-6.968 3.395,-10.656"
           id="path879993"
           style="fill:#51a1d0;fill-opacity:1" />
        <path
           i:knockout="Off"
           fill="#51a1d0"
           d="M 45.527,0.537 C 46.742,0.092 48.514,0.293 49.803,0 48.123,0.141 46.451,0.225 44.8,0.438 l 0.727,0.099"
           id="path879995"
           style="fill:#51a1d0;fill-opacity:1" />
        <path
           i:knockout="Off"
           fill="#51a1d0"
           d="m 2.872,23.219 c 0.28,2.592 -1.95,3.598 0.494,1.889 1.31,-2.951 -0.512,-0.815 -0.494,-1.889"
           id="path879997"
           style="fill:#51a1d0;fill-opacity:1" />
        <path
           i:knockout="Off"
           fill="#51a1d0"
           d="M 0,35.215 C 0.563,33.487 0.665,32.449 0.88,31.449 -0.676,33.438 0.164,33.862 0,35.215"
           id="path879999"
           style="fill:#51a1d0;fill-opacity:1" />
      </g>
    </g>
    <g
       aria-label="debian 13"
       transform="matrix(0.15988807,0,0,0.15988807,88.144047,-40.797267)"
       id="text28448"
       style="font-size:80px;font-family:Poppl-Laudatio;-inkscape-font-specification:'Poppl-Laudatio, Normal';white-space:pre;shape-inside:url(#rect28450);fill:#51a1d0;stroke-width:7.281">
      <path
         d="m 12.978188,324.69655 q 0,-5.92 1.2,-10 1.2,-4.16 3.44,-6.72 2.24,-2.64 5.52,-3.76 3.28,-1.2 7.36,-1.2 2.32,0 3.6,0.24 1.28,0.24 2.4,0.48 0,-2.96 -0.08,-5.12 0,-2.16 -0.24,-3.76 -0.16,-1.6 -0.64,-2.64 -0.48,-1.12 -1.28,-2 2.56,-0.16 4.48,-0.4 1.92,-0.24 3.52,-0.56 1.68,-0.32 3.12,-0.72 1.52,-0.48 3.2,-1.12 -0.16,0.72 -0.24,1.44 -0.08,0.72 -0.16,1.84 -0.08,1.04 -0.16,2.8 -0.08,1.68 -0.16,4.32 0,1.84 -0.08,5.12 -0.08,3.28 -0.08,7.28 0,3.92 0,8.24 0,4.32 0,8.4 0,4 0.08,7.36 0.08,3.36 0.24,5.44 0.08,1.6 0.24,2.64 0.16,1.04 0.32,1.84 0.24,0.8 0.48,1.36 0.24,0.56 0.56,1.2 -1.36,-0.16 -2.56,-0.24 -1.12,-0.08 -2.96,-0.08 -2.96,0 -4.64,0.16 -1.68,0.08 -2.8,0.16 v -6.88 q -0.24,0.64 -0.8,1.84 -0.48,1.2 -1.6,2.4 -1.04,1.2 -2.88,2.08 -1.84,0.88 -4.64,0.88 -3.44,0 -5.84,-1.36 -2.32,-1.44 -3.84,-3.6 -1.52,-2.24 -2.4,-4.88 -0.8,-2.72 -1.2,-5.2 -0.32,-2.48 -0.4,-4.4 -0.08,-2 -0.08,-2.88 z m 23.36,-13.52 q -0.8,-0.4 -1.68,-0.64 -0.88,-0.24 -2.32,-0.24 -2.56,0 -4.08,1.12 -1.52,1.04 -2.4,2.88 -0.8,1.76 -1.12,4 -0.24,2.24 -0.24,4.48 0,0.88 0,2.56 0.08,1.68 0.48,4 0.24,1.6 0.64,3.2 0.48,1.52 1.2,2.8 0.72,1.2 1.84,2 1.12,0.72 2.72,0.72 1.36,0 2.16,-0.48 0.88,-0.48 1.36,-1.12 0.48,-0.64 0.72,-1.28 0.24,-0.64 0.32,-0.96 0.16,-0.8 0.24,-2.88 0.16,-2.16 0.16,-4.88 0.08,-2.8 0.08,-5.76 0,-3.04 0,-5.6 z"
         id="path28523" />
      <path
         d="m 65.657979,326.97655 q 0,0.96 0.08,2.24 0.08,1.2 0.4,2.56 0.4,1.36 1.04,2.72 0.72,1.28 1.92,2.4 1.04,0.96 2.24,1.52 1.28,0.48 2.4,0.72 1.2,0.24 2.16,0.32 1.04,0 1.52,0 4.16,0 6.24,-0.88 2.16,-0.96 3.28,-1.68 -0.64,2.64 -0.96,4.56 -0.24,1.92 -0.16,4.64 -2.48,0.64 -4.96,0.8 -2.4,0.24 -4.96,0.24 -3.84,0 -6.88,-0.56 -2.96,-0.56 -5.44,-1.84 -4.32,-2.24 -6.88,-7.12 -2.48,-4.88 -2.48,-13.28 0,-3.84 0.72,-7.68 0.8,-3.84 2.72,-6.88 2,-3.12 5.44,-5.04 3.52,-1.92 8.96,-1.92 4.88,0 7.92,1.6 3.12,1.52 4.8,4.24 1.68,2.64 2.24,6.24 0.64,3.52 0.64,7.44 l -0.16,4.64 z m 11.44,-6.64 q 0.08,-2 -0.08,-3.92 -0.08,-2 -0.64,-3.52 -0.56,-1.6 -1.76,-2.56 -1.12,-0.96 -3.12,-0.96 -2,0 -3.2,0.96 -1.2,0.96 -1.84,2.56 -0.64,1.52 -0.88,3.52 -0.24,1.92 -0.24,3.92 z"
         id="path28525" />
      <path
         d="m 95.417969,314.05655 q 0,-7.92 -0.24,-12.24 -0.16,-4.4 -0.56,-6.64 -0.32,-2.32 -0.96,-3.12 -0.64,-0.8 -1.44,-1.6 1.68,-0.08 3.28,-0.24 1.6,-0.16 3.36,-0.48 1.840001,-0.32 3.920001,-0.88 2.08,-0.64 4.8,-1.6 -0.32,2.72 -0.48,6.32 -0.16,3.6 -0.24,7.12 0,3.52 0,6.56 0,3.04 0,4.56 0.48,-1.2 1.2,-2.72 0.8,-1.52 2.08,-2.88 1.28,-1.44 3.2,-2.32 1.92,-0.96 4.72,-0.96 3.36,0 5.84,1.52 2.48,1.44 3.84,3.52 1.04,1.44 1.68,3.36 0.64,1.84 0.96,3.68 0.32,1.84 0.4,3.6 0.08,1.76 0.08,2.96 0,6.96 -1.44,11.84 -1.44,4.88 -4.24,8 -2.72,3.04 -6.72,4.4 -4,1.36 -9.04,1.36 -1.2,0 -2.88,-0.08 -1.6,-0.08 -3.6,-0.32 -1.92,-0.24 -4.080001,-0.64 -2.16,-0.4 -4.4,-1.12 0.72,-2.4 0.8,-5.44 0.16,-3.12 0.16,-6.08 z m 23.840001,12.16 q 0,-2.4 -0.24,-4.88 -0.24,-2.48 -0.96,-4.48 -0.64,-2.08 -1.92,-3.36 -1.28,-1.28 -3.28,-1.28 -0.4,0 -1.04,0.08 -0.56,0.08 -1.28,0.56 -0.72,0.4 -1.44,1.28 -0.64,0.88 -1.12,2.48 -0.64,2.24 -0.8,5.52 -0.08,3.28 -0.08,8.4 0,3.28 0,5.84 0,2.48 0.16,3.84 0.4,0 1.36,0.24 0.96,0.16 2.08,0.16 2.96,0 4.64,-1.44 1.76,-1.44 2.64,-3.6 0.88,-2.16 1.04,-4.64 0.24,-2.56 0.24,-4.72 z"
         id="path28527" />
      <path
         d="m 138.13796,314.69655 q -0.08,-2.64 -0.32,-4.16 -0.16,-1.6 -0.48,-2.56 -0.24,-1.04 -0.72,-1.6 -0.48,-0.64 -1.2,-1.28 3.04,-0.16 5.12,-0.32 2.08,-0.16 3.68,-0.4 1.6,-0.32 2.96,-0.8 1.44,-0.48 3.12,-1.2 -0.88,6.4 -0.88,14.48 0.08,8 0.24,18.16 0.08,2.96 0.32,6.16 0.24,3.2 1.2,5.52 -1.36,-0.16 -2.8,-0.32 -1.36,-0.16 -3.6,-0.16 -2.8,0 -4.8,0.16 -2,0.16 -3.36,0.32 0.32,-0.64 0.56,-1.12 0.24,-0.56 0.4,-1.36 0.24,-0.88 0.32,-2.16 0.08,-1.28 0.16,-3.44 0.08,-2.16 0.16,-4.96 0.08,-2.8 0.08,-5.92 0,-3.12 -0.08,-6.4 0,-3.36 -0.08,-6.64 z m 11.2,-21.2 q 0.08,3.52 -1.6,4.96 -1.6,1.44 -4.08,1.44 -2.56,0 -4.24,-1.44 -1.6,-1.44 -1.6,-4.4 0,-2.48 1.28,-4.32 1.28,-1.84 4.56,-1.84 2.8,0 4.16,1.52 1.44,1.52 1.52,4.08 z"
         id="path28529" />
      <path
         d="m 188.85795,341.09655 q 0.16,2.56 0.56,3.68 0.4,1.04 0.96,1.92 -1.36,-0.24 -2.88,-0.24 -1.52,-0.08 -3.28,-0.08 -1.6,0 -3.04,0.08 -1.44,0.08 -3.04,0.24 -0.24,-1.2 -0.32,-2.88 0,-1.68 0.08,-5.04 -0.4,1.12 -1.04,2.56 -0.64,1.36 -1.84,2.64 -1.12,1.28 -3.04,2.16 -1.84,0.88 -4.64,0.88 -3.6,0 -5.68,-1.52 -2.08,-1.52 -3.2,-3.6 -1.04,-2.16 -1.36,-4.32 -0.24,-2.24 -0.24,-3.68 0,-3.92 1.2,-6.64 1.28,-2.72 3.52,-4.4 2.24,-1.76 5.28,-2.56 3.12,-0.8 6.88,-0.8 1.36,0 2.16,0.08 0.88,0 1.68,0.16 0.08,-2 0,-3.6 0,-1.6 -0.48,-2.64 -0.48,-1.12 -1.6,-1.68 -1.04,-0.64 -2.96,-0.64 -2.96,0 -5.76,1.04 -2.72,1.04 -4.96,3.12 -0.88,-3.28 -1.6,-5.04 -0.72,-1.84 -1.68,-3.52 0.8,-0.4 2.08,-1.04 1.36,-0.72 3.28,-1.28 1.92,-0.64 4.4,-1.04 2.56,-0.48 5.84,-0.48 3.6,0 6.64,0.8 3.04,0.8 4.88,2.48 1.2,1.12 1.84,2.32 0.64,1.2 0.96,3.04 0.32,1.76 0.32,4.4 0.08,2.56 0.08,6.48 z m -13.84,-16.08 q -2.96,0 -4.96,1.52 -2,1.52 -2,5.36 0,2.56 0.96,4.48 1.04,1.84 3.36,1.84 0.24,0 0.8,-0.08 0.64,-0.08 1.28,-0.48 0.72,-0.4 1.36,-1.12 0.72,-0.72 1.12,-2.08 0.24,-0.64 0.32,-1.36 0.16,-0.8 0.24,-1.84 0.08,-1.12 0.16,-2.56 0.08,-1.44 0.08,-3.52 z"
         id="path28531" />
      <path
         d="m 208.77796,310.93655 q 0.4,-0.96 1.12,-2.32 0.8,-1.36 2.16,-2.56 1.36,-1.28 3.52,-2.16 2.24,-0.96 5.6,-0.96 4,0 6.16,1.36 2.24,1.28 3.28,3.2 1.04,1.92 1.2,4.08 0.24,2.16 0.24,3.84 v 23.92 q 0,1.84 0.08,3.04 0.16,1.2 0.32,2 0.16,0.72 0.32,1.28 0.24,0.48 0.48,1.04 -0.8,-0.08 -1.52,-0.16 -0.72,-0.08 -1.6,-0.08 -0.8,-0.08 -1.92,-0.08 -1.04,-0.08 -2.48,-0.08 -2.08,0 -3.44,0.08 -1.28,0.08 -2.8,0.32 0.16,-0.56 0.32,-1.2 0.24,-0.64 0.32,-2 0.16,-1.36 0.24,-3.68 0.08,-2.4 0.08,-6.48 v -12.72 q 0,-1.92 -0.08,-3.6 -0.08,-1.68 -0.64,-2.88 -0.48,-1.2 -1.6,-1.92 -1.04,-0.72 -2.96,-0.72 -1.84,0 -3.04,0.64 -1.12,0.64 -1.76,1.52 -0.56,0.8 -0.8,1.68 -0.24,0.8 -0.32,1.2 -0.16,0.96 -0.24,2.88 -0.08,1.84 -0.16,4.32 0,2.4 0,5.12 0,2.72 0,5.36 0,3.76 0,6 0.08,2.16 0.16,3.44 0.16,1.28 0.32,1.92 0.24,0.56 0.48,1.12 -1.44,-0.16 -2.96,-0.24 -1.52,-0.16 -3.92,-0.16 -1.6,0 -3.12,0.08 -1.52,0.08 -3.6,0.32 0.4,-0.8 0.64,-1.84 0.24,-1.12 0.4,-2.16 0.08,-0.56 0.16,-2.08 0.08,-1.52 0.08,-3.52 0.08,-2.08 0.08,-4.56 0,-2.56 0,-5.2 0,-2.64 0,-4.8 0,-2.24 -0.08,-4.16 0,-1.92 -0.08,-3.76 -0.08,-1.84 -0.24,-3.84 -0.16,-2.8 -0.96,-4.08 -0.72,-1.28 -1.44,-1.68 2.96,-0.16 5.04,-0.32 2.08,-0.24 3.6,-0.56 1.6,-0.32 2.8,-0.72 1.28,-0.48 2.56,-1.04 z"
         id="path28533" />
      <path
         d="m 273.89554,323.41655 q 0,2.16 0,4 0,1.76 0,3.52 0.08,1.76 0.08,3.68 0.08,1.84 0.16,4.08 0.08,1.92 0.16,3.2 0.16,1.28 0.32,2.16 0.24,0.88 0.48,1.52 0.24,0.56 0.48,1.12 -1.6,-0.16 -3.68,-0.24 -2,-0.16 -4.08,-0.16 -1.6,0 -3.04,0.08 -1.44,0.08 -3.28,0.32 0.24,-0.8 0.4,-1.52 0.24,-0.72 0.4,-1.76 0.16,-1.12 0.24,-2.8 0.08,-1.68 0.16,-4.48 l 0.16,-11.2 v -12 q 0,-5.28 -0.08,-8.48 -0.08,-3.2 -0.24,-3.84 -2.56,0.88 -4.88,1.84 -2.32,0.96 -4.48,2.32 l 0.16,-2.64 q 0,-1.68 -0.16,-2.8 -0.08,-1.2 -0.24,-2.08 1.36,-0.32 3.92,-0.96 2.56,-0.64 5.6,-1.6 3.12,-1.04 6.24,-2.4 3.2,-1.36 5.76,-3.04 -0.16,1.92 -0.32,3.44 -0.08,1.44 -0.16,3.68 0,2.24 -0.08,6 0,3.76 0,10.24 z"
         id="path28535" />
      <path
         d="m 295.23457,289.45655 q 2.32,0 4.32,0.24 2.08,0.24 3.92,0.88 0.88,0.32 2.24,1.12 1.44,0.72 2.8,2.24 1.36,1.44 2.32,3.68 1.04,2.24 1.04,5.6 0,2 -0.56,4.08 -0.48,2.08 -1.68,3.92 -1.2,1.76 -3.12,3.12 -1.92,1.36 -4.64,1.92 l -1.76,0.32 1.84,0.24 q 6.24,1.04 9.2,4.32 3.04,3.28 3.04,8.8 0,4.24 -1.6,7.36 -1.52,3.04 -3.6,4.88 -2.32,2.08 -6.16,3.2 -3.76,1.12 -8.64,1.12 -0.48,0 -1.76,-0.08 -1.28,0 -3.04,-0.16 -1.76,-0.16 -3.76,-0.48 -1.92,-0.32 -3.84,-0.96 0.32,-1.04 0.56,-2 0.32,-0.96 0.48,-2 0.24,-1.12 0.32,-2.4 0.16,-1.28 0.32,-3.04 2,1.6 4.4,2.24 2.48,0.64 5.04,0.64 2.48,0 4.24,-0.72 1.76,-0.72 2.88,-1.84 1.12,-1.2 1.6,-2.64 0.48,-1.52 0.48,-3.04 0,-2.64 -1.04,-4.24 -1.04,-1.68 -2.72,-2.64 -1.6,-0.96 -3.68,-1.28 -2.08,-0.32 -4.24,-0.32 -2.08,0 -3.04,0.16 -0.96,0.08 -2.08,0.24 0.08,-1.04 0.08,-2 0.08,-0.96 0.08,-2 -0.08,-1.12 -0.08,-2.08 0,-1.04 -0.08,-2.16 0.64,0.08 1.28,0.16 0.64,0 1.68,0 1.04,0 3.04,-0.08 2,-0.16 4,-0.96 2,-0.8 3.44,-2.48 1.52,-1.68 1.52,-4.8 0,-3.2 -2.16,-5.36 -2.08,-2.24 -6.56,-2.24 -3.44,0 -5.2,0.8 -1.76,0.8 -2.72,1.44 0.48,-3.68 0.56,-5.68 0.08,-2 0,-3.76 2.16,-0.48 4.64,-0.88 2.56,-0.4 6.4,-0.4 z"
         id="path28537" />
    </g>
  </g>
</svg>
